%TF.GenerationSoftware,KiCad,Pcbnew,(5.1.10)-1*%
%TF.CreationDate,2021-09-03T07:56:25-07:00*%
%TF.ProjectId,Foundation,466f756e-6461-4746-996f-6e2e6b696361,rev?*%
%TF.SameCoordinates,Original*%
%TF.FileFunction,Legend,Bot*%
%TF.FilePolarity,Positive*%
%FSLAX46Y46*%
G04 Gerber Fmt 4.6, Leading zero omitted, Abs format (unit mm)*
G04 Created by KiCad (PCBNEW (5.1.10)-1) date 2021-09-03 07:56:25*
%MOMM*%
%LPD*%
G01*
G04 APERTURE LIST*
%ADD10C,0.150000*%
%ADD11C,0.500000*%
%ADD12C,0.300000*%
%ADD13C,0.250000*%
%ADD14C,0.200000*%
%ADD15C,0.010000*%
%ADD16C,0.120000*%
%ADD17C,0.400000*%
G04 APERTURE END LIST*
D10*
X46952380Y93976190D02*
X45952380Y93976190D01*
X46904761Y93547619D02*
X46952380Y93404761D01*
X46952380Y93166666D01*
X46904761Y93071428D01*
X46857142Y93023809D01*
X46761904Y92976190D01*
X46666666Y92976190D01*
X46571428Y93023809D01*
X46523809Y93071428D01*
X46476190Y93166666D01*
X46428571Y93357142D01*
X46380952Y93452380D01*
X46333333Y93500000D01*
X46238095Y93547619D01*
X46142857Y93547619D01*
X46047619Y93500000D01*
X46000000Y93452380D01*
X45952380Y93357142D01*
X45952380Y93119047D01*
X46000000Y92976190D01*
X46952380Y92547619D02*
X45952380Y92547619D01*
X45952380Y92166666D01*
X46000000Y92071428D01*
X46047619Y92023809D01*
X46142857Y91976190D01*
X46285714Y91976190D01*
X46380952Y92023809D01*
X46428571Y92071428D01*
X46476190Y92166666D01*
X46476190Y92547619D01*
X25809523Y52797619D02*
X25476190Y51797619D01*
X25142857Y52797619D01*
X24809523Y52464285D02*
X24809523Y51464285D01*
X24809523Y52416666D02*
X24714285Y52464285D01*
X24523809Y52464285D01*
X24428571Y52416666D01*
X24380952Y52369047D01*
X24333333Y52273809D01*
X24333333Y51988095D01*
X24380952Y51892857D01*
X24428571Y51845238D01*
X24523809Y51797619D01*
X24714285Y51797619D01*
X24809523Y51845238D01*
X23904761Y52464285D02*
X23904761Y51464285D01*
X23904761Y52416666D02*
X23809523Y52464285D01*
X23619047Y52464285D01*
X23523809Y52416666D01*
X23476190Y52369047D01*
X23428571Y52273809D01*
X23428571Y51988095D01*
X23476190Y51892857D01*
X23523809Y51845238D01*
X23619047Y51797619D01*
X23809523Y51797619D01*
X23904761Y51845238D01*
X22285714Y51845238D02*
X22142857Y51797619D01*
X21904761Y51797619D01*
X21809523Y51845238D01*
X21761904Y51892857D01*
X21714285Y51988095D01*
X21714285Y52083333D01*
X21761904Y52178571D01*
X21809523Y52226190D01*
X21904761Y52273809D01*
X22095238Y52321428D01*
X22190476Y52369047D01*
X22238095Y52416666D01*
X22285714Y52511904D01*
X22285714Y52607142D01*
X22238095Y52702380D01*
X22190476Y52750000D01*
X22095238Y52797619D01*
X21857142Y52797619D01*
X21714285Y52750000D01*
X21285714Y51797619D02*
X21285714Y52797619D01*
X20809523Y51797619D02*
X20809523Y52797619D01*
X20238095Y51797619D01*
X20238095Y52797619D01*
X19761904Y52321428D02*
X19428571Y52321428D01*
X19285714Y51797619D02*
X19761904Y51797619D01*
X19761904Y52797619D01*
X19285714Y52797619D01*
X32988095Y35845238D02*
X32845238Y35797619D01*
X32607142Y35797619D01*
X32511904Y35845238D01*
X32464285Y35892857D01*
X32416666Y35988095D01*
X32416666Y36083333D01*
X32464285Y36178571D01*
X32511904Y36226190D01*
X32607142Y36273809D01*
X32797619Y36321428D01*
X32892857Y36369047D01*
X32940476Y36416666D01*
X32988095Y36511904D01*
X32988095Y36607142D01*
X32940476Y36702380D01*
X32892857Y36750000D01*
X32797619Y36797619D01*
X32559523Y36797619D01*
X32416666Y36750000D01*
X31797619Y36273809D02*
X31797619Y35797619D01*
X32130952Y36797619D02*
X31797619Y36273809D01*
X31464285Y36797619D01*
X31130952Y35797619D02*
X31130952Y36797619D01*
X30559523Y35797619D01*
X30559523Y36797619D01*
X29511904Y35892857D02*
X29559523Y35845238D01*
X29702380Y35797619D01*
X29797619Y35797619D01*
X29940476Y35845238D01*
X30035714Y35940476D01*
X30083333Y36035714D01*
X30130952Y36226190D01*
X30130952Y36369047D01*
X30083333Y36559523D01*
X30035714Y36654761D01*
X29940476Y36750000D01*
X29797619Y36797619D01*
X29702380Y36797619D01*
X29559523Y36750000D01*
X29511904Y36702380D01*
D11*
X19785714Y105345238D02*
X20452380Y106297619D01*
X20928571Y105345238D02*
X20928571Y107345238D01*
X20166666Y107345238D01*
X19976190Y107250000D01*
X19880952Y107154761D01*
X19785714Y106964285D01*
X19785714Y106678571D01*
X19880952Y106488095D01*
X19976190Y106392857D01*
X20166666Y106297619D01*
X20928571Y106297619D01*
X18928571Y106392857D02*
X18261904Y106392857D01*
X17976190Y105345238D02*
X18928571Y105345238D01*
X18928571Y107345238D01*
X17976190Y107345238D01*
X17119047Y105345238D02*
X17119047Y107345238D01*
X16642857Y107345238D01*
X16357142Y107250000D01*
X16166666Y107059523D01*
X16071428Y106869047D01*
X15976190Y106488095D01*
X15976190Y106202380D01*
X16071428Y105821428D01*
X16166666Y105630952D01*
X16357142Y105440476D01*
X16642857Y105345238D01*
X17119047Y105345238D01*
D12*
X21114285Y103414285D02*
X20200000Y103414285D01*
X19000000Y102957142D02*
X19685714Y102957142D01*
X19342857Y102957142D02*
X19342857Y104157142D01*
X19457142Y103985714D01*
X19571428Y103871428D01*
X19685714Y103814285D01*
X18542857Y104042857D02*
X18485714Y104100000D01*
X18371428Y104157142D01*
X18085714Y104157142D01*
X17971428Y104100000D01*
X17914285Y104042857D01*
X17857142Y103928571D01*
X17857142Y103814285D01*
X17914285Y103642857D01*
X18600000Y102957142D01*
X17857142Y102957142D01*
X17514285Y104157142D02*
X17114285Y102957142D01*
X16714285Y104157142D01*
X31521428Y100707142D02*
X31521428Y101907142D01*
X31064285Y101907142D01*
X30950000Y101850000D01*
X30892857Y101792857D01*
X30835714Y101678571D01*
X30835714Y101507142D01*
X30892857Y101392857D01*
X30950000Y101335714D01*
X31064285Y101278571D01*
X31521428Y101278571D01*
X30092857Y101907142D02*
X29864285Y101907142D01*
X29750000Y101850000D01*
X29635714Y101735714D01*
X29578571Y101507142D01*
X29578571Y101107142D01*
X29635714Y100878571D01*
X29750000Y100764285D01*
X29864285Y100707142D01*
X30092857Y100707142D01*
X30207142Y100764285D01*
X30321428Y100878571D01*
X30378571Y101107142D01*
X30378571Y101507142D01*
X30321428Y101735714D01*
X30207142Y101850000D01*
X30092857Y101907142D01*
X29178571Y101907142D02*
X28892857Y100707142D01*
X28664285Y101564285D01*
X28435714Y100707142D01*
X28150000Y101907142D01*
X27692857Y101335714D02*
X27292857Y101335714D01*
X27121428Y100707142D02*
X27692857Y100707142D01*
X27692857Y101907142D01*
X27121428Y101907142D01*
X25921428Y100707142D02*
X26321428Y101278571D01*
X26607142Y100707142D02*
X26607142Y101907142D01*
X26150000Y101907142D01*
X26035714Y101850000D01*
X25978571Y101792857D01*
X25921428Y101678571D01*
X25921428Y101507142D01*
X25978571Y101392857D01*
X26035714Y101335714D01*
X26150000Y101278571D01*
X26607142Y101278571D01*
D13*
X15000000Y2297619D02*
X15000000Y3297619D01*
X14428571Y2297619D01*
X14428571Y3297619D01*
X13380952Y2297619D02*
X13714285Y2773809D01*
X13952380Y2297619D02*
X13952380Y3297619D01*
X13571428Y3297619D01*
X13476190Y3250000D01*
X13428571Y3202380D01*
X13380952Y3107142D01*
X13380952Y2964285D01*
X13428571Y2869047D01*
X13476190Y2821428D01*
X13571428Y2773809D01*
X13952380Y2773809D01*
X12428571Y2297619D02*
X13000000Y2297619D01*
X12714285Y2297619D02*
X12714285Y3297619D01*
X12809523Y3154761D01*
X12904761Y3059523D01*
X13000000Y3011904D01*
X12000000Y2678571D02*
X11238095Y2678571D01*
X10904761Y3297619D02*
X10571428Y2297619D01*
X10238095Y3297619D01*
X9380952Y2297619D02*
X9952380Y2297619D01*
X9666666Y2297619D02*
X9666666Y3297619D01*
X9761904Y3154761D01*
X9857142Y3059523D01*
X9952380Y3011904D01*
X8952380Y2392857D02*
X8904761Y2345238D01*
X8952380Y2297619D01*
X9000000Y2345238D01*
X8952380Y2392857D01*
X8952380Y2297619D01*
X7952380Y2297619D02*
X8523809Y2297619D01*
X8238095Y2297619D02*
X8238095Y3297619D01*
X8333333Y3154761D01*
X8428571Y3059523D01*
X8523809Y3011904D01*
D10*
%TO.C,RV7*%
X34702000Y41200000D02*
X34702000Y44705200D01*
X34702000Y41200000D02*
X34702000Y37694800D01*
X28098000Y41200000D02*
X28098000Y44705200D01*
X28098000Y41200000D02*
X28098000Y37694800D01*
X28098000Y37694800D02*
X34702000Y37694800D01*
X34702000Y44705200D02*
X28098000Y44705200D01*
D14*
%TO.C,REF\u002A\u002A*%
X14300000Y8000000D02*
G75*
G03*
X14300000Y8000000I-3050000J0D01*
G01*
X13250000Y5750000D02*
X9000000Y10000000D01*
D15*
G36*
X21677237Y3239474D02*
G01*
X26356184Y3239474D01*
X26356184Y4392500D01*
X21677237Y4392500D01*
X21677237Y3239474D01*
G37*
X21677237Y3239474D02*
X26356184Y3239474D01*
X26356184Y4392500D01*
X21677237Y4392500D01*
X21677237Y3239474D01*
G36*
X21176744Y11150663D02*
G01*
X21177567Y11034934D01*
X21777885Y10425000D01*
X22378204Y9815066D01*
X22378641Y9535165D01*
X22379079Y9255263D01*
X22744663Y9255263D01*
X22754083Y9184244D01*
X22757650Y9151873D01*
X22763662Y9090913D01*
X22771799Y9005002D01*
X22781738Y8897774D01*
X22793157Y8772867D01*
X22805736Y8633917D01*
X22819153Y8484559D01*
X22833085Y8328432D01*
X22847212Y8169170D01*
X22861212Y8010410D01*
X22874763Y7855789D01*
X22887544Y7708943D01*
X22899233Y7573507D01*
X22909508Y7453120D01*
X22918048Y7351416D01*
X22924531Y7272033D01*
X22928636Y7218606D01*
X22930041Y7194771D01*
X22930040Y7194658D01*
X22919796Y7175534D01*
X22889026Y7136045D01*
X22837311Y7075734D01*
X22764233Y6994139D01*
X22669373Y6890802D01*
X22552313Y6765262D01*
X22412633Y6617060D01*
X22249916Y6445737D01*
X22204179Y6397763D01*
X21478805Y5637434D01*
X21537449Y5578948D01*
X21596092Y5520461D01*
X21690974Y5623690D01*
X21725685Y5660997D01*
X21779906Y5718689D01*
X21850059Y5792987D01*
X21932568Y5880111D01*
X22023855Y5976282D01*
X22120342Y6077720D01*
X22178065Y6138305D01*
X22286434Y6251803D01*
X22374028Y6342715D01*
X22443080Y6412693D01*
X22495824Y6463390D01*
X22534494Y6496460D01*
X22561323Y6513556D01*
X22578544Y6516331D01*
X22588392Y6506437D01*
X22593099Y6485529D01*
X22594899Y6455259D01*
X22595141Y6446998D01*
X22607658Y6390091D01*
X22638497Y6321307D01*
X22681503Y6251525D01*
X22730520Y6191622D01*
X22750134Y6173118D01*
X22850770Y6108372D01*
X22968327Y6072146D01*
X23072262Y6063553D01*
X23190049Y6079761D01*
X23298831Y6127288D01*
X23395110Y6204489D01*
X23412875Y6223705D01*
X23477832Y6297500D01*
X24601579Y6297500D01*
X24601579Y6063553D01*
X24902368Y6063553D01*
X24902368Y6172848D01*
X24906143Y6247461D01*
X24918825Y6299250D01*
X24934237Y6327420D01*
X24945250Y6347576D01*
X24954679Y6376800D01*
X24963151Y6419425D01*
X24971290Y6479783D01*
X24979721Y6562207D01*
X24989068Y6671028D01*
X24995469Y6751983D01*
X25024831Y7131268D01*
X25745659Y6401062D01*
X25875992Y6268934D01*
X26001108Y6141904D01*
X26118721Y6022305D01*
X26226545Y5912472D01*
X26322295Y5814737D01*
X26403683Y5731434D01*
X26468423Y5664896D01*
X26514230Y5617458D01*
X26538792Y5591480D01*
X26579145Y5550351D01*
X26612805Y5521665D01*
X26630910Y5512105D01*
X26654035Y5523303D01*
X26687743Y5551281D01*
X26699169Y5562674D01*
X26747617Y5613243D01*
X26480881Y5884298D01*
X26412831Y5953348D01*
X26325085Y6042226D01*
X26221492Y6147041D01*
X26105900Y6263903D01*
X25982159Y6388921D01*
X25854119Y6518205D01*
X25725628Y6647864D01*
X25633454Y6740821D01*
X25493342Y6882480D01*
X25375632Y7002409D01*
X25278820Y7102232D01*
X25201399Y7183572D01*
X25141864Y7248052D01*
X25112358Y7281723D01*
X24875409Y7281723D01*
X24845743Y6902408D01*
X24836797Y6791223D01*
X24828142Y6689547D01*
X24820271Y6602696D01*
X24813672Y6535982D01*
X24808836Y6494721D01*
X24807280Y6485494D01*
X24798482Y6447895D01*
X23536681Y6447895D01*
X23528258Y6552827D01*
X23502828Y6676805D01*
X23449611Y6786476D01*
X23371963Y6877844D01*
X23273237Y6946917D01*
X23162428Y6988380D01*
X23126480Y7007829D01*
X23108483Y7049570D01*
X23108106Y7051411D01*
X23105947Y7069033D01*
X23108616Y7087078D01*
X23118720Y7108892D01*
X23138863Y7137823D01*
X23171651Y7177217D01*
X23219690Y7230423D01*
X23285584Y7300786D01*
X23371940Y7391654D01*
X23377520Y7397507D01*
X23470405Y7495044D01*
X23569155Y7598933D01*
X23666984Y7702023D01*
X23757107Y7797161D01*
X23832738Y7877196D01*
X23849605Y7895089D01*
X23914265Y7962556D01*
X23971705Y8020291D01*
X24017801Y8064325D01*
X24048431Y8090686D01*
X24058715Y8096479D01*
X24074052Y8084354D01*
X24109917Y8051090D01*
X24163488Y7999458D01*
X24231940Y7932225D01*
X24312447Y7852163D01*
X24402187Y7762039D01*
X24475532Y7687802D01*
X24875409Y7281723D01*
X25112358Y7281723D01*
X25098709Y7297297D01*
X25070429Y7332929D01*
X25055517Y7356571D01*
X25052199Y7367520D01*
X25053456Y7391414D01*
X25057274Y7445499D01*
X25063407Y7526662D01*
X25071607Y7631790D01*
X25081627Y7757772D01*
X25093220Y7901495D01*
X25106140Y8059846D01*
X25120138Y8229713D01*
X25131419Y8365472D01*
X25195250Y9130894D01*
X25031004Y9130894D01*
X25030297Y9114376D01*
X25026969Y9067855D01*
X25021290Y8994622D01*
X25013526Y8897972D01*
X25003943Y8781195D01*
X24992811Y8647586D01*
X24980395Y8500437D01*
X24968480Y8360729D01*
X24954984Y8202213D01*
X24942413Y8052579D01*
X24931055Y7915398D01*
X24921198Y7794241D01*
X24913130Y7692680D01*
X24907140Y7614288D01*
X24903515Y7562637D01*
X24902509Y7542577D01*
X24900940Y7530092D01*
X24894722Y7525138D01*
X24881459Y7529782D01*
X24858753Y7546091D01*
X24824208Y7576132D01*
X24775427Y7621973D01*
X24710013Y7685680D01*
X24625569Y7769321D01*
X24535971Y7858701D01*
X24169574Y8224814D01*
X24172141Y8227566D01*
X23929951Y8227566D01*
X23918913Y8212450D01*
X23888013Y8176858D01*
X23840347Y8124059D01*
X23779013Y8057327D01*
X23707107Y7979930D01*
X23627727Y7895142D01*
X23543969Y7806233D01*
X23458930Y7716474D01*
X23375708Y7629136D01*
X23297399Y7547491D01*
X23227100Y7474809D01*
X23167909Y7414363D01*
X23122922Y7369422D01*
X23095236Y7343258D01*
X23087686Y7337928D01*
X23085197Y7355133D01*
X23080030Y7402652D01*
X23072470Y7477511D01*
X23062800Y7576736D01*
X23051305Y7697351D01*
X23038269Y7836382D01*
X23023976Y7990855D01*
X23008710Y8157794D01*
X22996521Y8292403D01*
X22980929Y8466946D01*
X22966523Y8631373D01*
X22953547Y8782701D01*
X22942241Y8917947D01*
X22932848Y9034130D01*
X22925611Y9128265D01*
X22920772Y9197370D01*
X22918573Y9238462D01*
X22918824Y9249132D01*
X22931970Y9239628D01*
X22965446Y9209080D01*
X23016326Y9160444D01*
X23081683Y9096677D01*
X23158591Y9020735D01*
X23244124Y8935576D01*
X23335354Y8844155D01*
X23429356Y8749431D01*
X23523202Y8654359D01*
X23613967Y8561897D01*
X23698723Y8475001D01*
X23774544Y8396628D01*
X23838503Y8329735D01*
X23887674Y8277278D01*
X23919131Y8242215D01*
X23929951Y8227566D01*
X24172141Y8227566D01*
X24306202Y8371240D01*
X24375784Y8445552D01*
X24453881Y8528517D01*
X24537406Y8616898D01*
X24623270Y8707459D01*
X24708385Y8796964D01*
X24789664Y8882177D01*
X24864019Y8959861D01*
X24928363Y9026780D01*
X24979606Y9079697D01*
X25014663Y9115377D01*
X25030444Y9130584D01*
X25031004Y9130894D01*
X25195250Y9130894D01*
X25211204Y9322193D01*
X26009286Y10161515D01*
X26807368Y11000836D01*
X26806781Y11118148D01*
X26806194Y11235461D01*
X26677275Y11097747D01*
X26605124Y11020937D01*
X26519940Y10930696D01*
X26424021Y10829425D01*
X26319666Y10719524D01*
X26209174Y10603396D01*
X26094844Y10483442D01*
X25978975Y10362064D01*
X25863865Y10241662D01*
X25751814Y10124638D01*
X25645119Y10013394D01*
X25546080Y9910331D01*
X25456997Y9817850D01*
X25380166Y9738353D01*
X25317888Y9674242D01*
X25272462Y9627917D01*
X25246185Y9601781D01*
X25240426Y9596767D01*
X25240030Y9614209D01*
X25242208Y9658865D01*
X25246583Y9724660D01*
X25252775Y9805517D01*
X25255433Y9837817D01*
X25275228Y10074079D01*
X25120242Y10074079D01*
X25112240Y10036480D01*
X25108160Y10006745D01*
X25102425Y9950797D01*
X25095701Y9875764D01*
X25088648Y9788775D01*
X25086207Y9756579D01*
X25079008Y9664139D01*
X25071742Y9578293D01*
X25065136Y9507153D01*
X25059916Y9458831D01*
X25058739Y9450061D01*
X25054298Y9432058D01*
X25044687Y9410983D01*
X25027860Y9384475D01*
X25001775Y9350172D01*
X24964387Y9305711D01*
X24913654Y9248729D01*
X24847530Y9176864D01*
X24763974Y9087754D01*
X24660940Y8979036D01*
X24555833Y8868725D01*
X24451262Y8759559D01*
X24353649Y8658460D01*
X24265422Y8567885D01*
X24189012Y8490292D01*
X24126849Y8428138D01*
X24081363Y8383882D01*
X24054983Y8359982D01*
X24049357Y8356426D01*
X24034557Y8369319D01*
X23999961Y8402940D01*
X23948929Y8453918D01*
X23884817Y8518880D01*
X23810984Y8594452D01*
X23757589Y8649507D01*
X23478827Y8937763D01*
X24300790Y8937763D01*
X24300790Y9255263D01*
X23298158Y9255263D01*
X23298158Y9113794D01*
X23114342Y9297040D01*
X22983948Y9427029D01*
X22730000Y9427029D01*
X22727571Y9406523D01*
X22715276Y9395098D01*
X22685604Y9390120D01*
X22631045Y9388956D01*
X22621382Y9388948D01*
X22512763Y9388948D01*
X22512763Y9680416D01*
X22621382Y9572763D01*
X22682654Y9507313D01*
X22719301Y9457171D01*
X22730000Y9427029D01*
X22983948Y9427029D01*
X22930526Y9480285D01*
X22930526Y9643498D01*
X22930015Y9718586D01*
X22927672Y9766355D01*
X22922289Y9792902D01*
X22912656Y9804321D01*
X22898129Y9806711D01*
X22881973Y9810220D01*
X22870031Y9824289D01*
X22860861Y9854231D01*
X22853018Y9905358D01*
X22845058Y9982983D01*
X22842504Y10011415D01*
X22836974Y10074079D01*
X25120242Y10074079D01*
X25275228Y10074079D01*
X25487237Y10074079D01*
X25487237Y10224474D01*
X25397141Y10224474D01*
X25344445Y10225917D01*
X25315812Y10232884D01*
X25312309Y10237030D01*
X25127766Y10237030D01*
X25118054Y10227558D01*
X25084412Y10224634D01*
X25061706Y10224474D01*
X24985921Y10224474D01*
X24703306Y10224474D01*
X22823481Y10224474D01*
X22887062Y10289587D01*
X22985814Y10369938D01*
X23108032Y10431911D01*
X23255787Y10476354D01*
X23402599Y10500935D01*
X23498684Y10512404D01*
X23498684Y10391579D01*
X24267368Y10391579D01*
X24267368Y10528655D01*
X24380165Y10517224D01*
X24458975Y10507575D01*
X24542943Y10494786D01*
X24593224Y10485652D01*
X24693487Y10465512D01*
X24698397Y10344993D01*
X24703306Y10224474D01*
X24985921Y10224474D01*
X24985921Y10291316D01*
X24988131Y10333190D01*
X24993650Y10356464D01*
X24995874Y10358158D01*
X25020613Y10347440D01*
X25056757Y10321437D01*
X25092990Y10289377D01*
X25117999Y10260489D01*
X25120227Y10256733D01*
X25127766Y10237030D01*
X25312309Y10237030D01*
X25301919Y10249326D01*
X25296311Y10267238D01*
X25273422Y10313721D01*
X25229460Y10369600D01*
X25171989Y10427040D01*
X25108573Y10478207D01*
X25066918Y10504857D01*
X25019466Y10534028D01*
X24995141Y10558533D01*
X24986595Y10587428D01*
X24985938Y10604638D01*
X24985937Y10608816D01*
X24133684Y10608816D01*
X24133684Y10525263D01*
X23632368Y10525263D01*
X23632368Y10608816D01*
X24133684Y10608816D01*
X24985937Y10608816D01*
X24985921Y10658948D01*
X24845274Y10658948D01*
X24780564Y10657383D01*
X24730130Y10653215D01*
X24702094Y10647227D01*
X24699057Y10644803D01*
X24681273Y10641082D01*
X24637992Y10642606D01*
X24576651Y10648925D01*
X24534737Y10654760D01*
X24458737Y10666222D01*
X24389230Y10676570D01*
X24336997Y10684204D01*
X24321678Y10686373D01*
X24281653Y10698768D01*
X24267368Y10718192D01*
X24263025Y10726102D01*
X24247490Y10732137D01*
X24217001Y10736534D01*
X24167800Y10739531D01*
X24096126Y10741365D01*
X23998219Y10742275D01*
X23883026Y10742500D01*
X23760086Y10742372D01*
X23666559Y10741770D01*
X23598440Y10740361D01*
X23551719Y10737819D01*
X23522391Y10733811D01*
X23506449Y10728009D01*
X23499885Y10720083D01*
X23498684Y10710867D01*
X23488460Y10681615D01*
X23454970Y10664969D01*
X23393988Y10659032D01*
X23383017Y10658948D01*
X23279746Y10648294D01*
X23162453Y10618967D01*
X23041715Y10574916D01*
X22928111Y10520089D01*
X22832219Y10458436D01*
X22819799Y10448668D01*
X22779318Y10416885D01*
X22755345Y10404156D01*
X22738604Y10408271D01*
X22721419Y10425250D01*
X22670664Y10458508D01*
X22604607Y10471275D01*
X22533474Y10464635D01*
X22467486Y10439673D01*
X22416868Y10397471D01*
X22413203Y10392566D01*
X22375328Y10313789D01*
X22368281Y10232246D01*
X22391285Y10154513D01*
X22443563Y10087165D01*
X22449956Y10081604D01*
X22487073Y10055187D01*
X22524733Y10043553D01*
X22577676Y10042713D01*
X22590902Y10043458D01*
X22642703Y10045359D01*
X22669386Y10041004D01*
X22679045Y10027862D01*
X22680037Y10015592D01*
X22682061Y9979998D01*
X22687086Y9926467D01*
X22690697Y9894441D01*
X22695934Y9843573D01*
X22693756Y9817532D01*
X22681125Y9808014D01*
X22658625Y9806711D01*
X22645282Y9811014D01*
X22623756Y9824943D01*
X22592452Y9850023D01*
X22549776Y9887781D01*
X22494132Y9939744D01*
X22423925Y10007438D01*
X22337560Y10092389D01*
X22233442Y10196125D01*
X22109975Y10320172D01*
X21965564Y10466056D01*
X21895969Y10536551D01*
X21175921Y11266390D01*
X21176744Y11150663D01*
G37*
X21176744Y11150663D02*
X21177567Y11034934D01*
X21777885Y10425000D01*
X22378204Y9815066D01*
X22378641Y9535165D01*
X22379079Y9255263D01*
X22744663Y9255263D01*
X22754083Y9184244D01*
X22757650Y9151873D01*
X22763662Y9090913D01*
X22771799Y9005002D01*
X22781738Y8897774D01*
X22793157Y8772867D01*
X22805736Y8633917D01*
X22819153Y8484559D01*
X22833085Y8328432D01*
X22847212Y8169170D01*
X22861212Y8010410D01*
X22874763Y7855789D01*
X22887544Y7708943D01*
X22899233Y7573507D01*
X22909508Y7453120D01*
X22918048Y7351416D01*
X22924531Y7272033D01*
X22928636Y7218606D01*
X22930041Y7194771D01*
X22930040Y7194658D01*
X22919796Y7175534D01*
X22889026Y7136045D01*
X22837311Y7075734D01*
X22764233Y6994139D01*
X22669373Y6890802D01*
X22552313Y6765262D01*
X22412633Y6617060D01*
X22249916Y6445737D01*
X22204179Y6397763D01*
X21478805Y5637434D01*
X21537449Y5578948D01*
X21596092Y5520461D01*
X21690974Y5623690D01*
X21725685Y5660997D01*
X21779906Y5718689D01*
X21850059Y5792987D01*
X21932568Y5880111D01*
X22023855Y5976282D01*
X22120342Y6077720D01*
X22178065Y6138305D01*
X22286434Y6251803D01*
X22374028Y6342715D01*
X22443080Y6412693D01*
X22495824Y6463390D01*
X22534494Y6496460D01*
X22561323Y6513556D01*
X22578544Y6516331D01*
X22588392Y6506437D01*
X22593099Y6485529D01*
X22594899Y6455259D01*
X22595141Y6446998D01*
X22607658Y6390091D01*
X22638497Y6321307D01*
X22681503Y6251525D01*
X22730520Y6191622D01*
X22750134Y6173118D01*
X22850770Y6108372D01*
X22968327Y6072146D01*
X23072262Y6063553D01*
X23190049Y6079761D01*
X23298831Y6127288D01*
X23395110Y6204489D01*
X23412875Y6223705D01*
X23477832Y6297500D01*
X24601579Y6297500D01*
X24601579Y6063553D01*
X24902368Y6063553D01*
X24902368Y6172848D01*
X24906143Y6247461D01*
X24918825Y6299250D01*
X24934237Y6327420D01*
X24945250Y6347576D01*
X24954679Y6376800D01*
X24963151Y6419425D01*
X24971290Y6479783D01*
X24979721Y6562207D01*
X24989068Y6671028D01*
X24995469Y6751983D01*
X25024831Y7131268D01*
X25745659Y6401062D01*
X25875992Y6268934D01*
X26001108Y6141904D01*
X26118721Y6022305D01*
X26226545Y5912472D01*
X26322295Y5814737D01*
X26403683Y5731434D01*
X26468423Y5664896D01*
X26514230Y5617458D01*
X26538792Y5591480D01*
X26579145Y5550351D01*
X26612805Y5521665D01*
X26630910Y5512105D01*
X26654035Y5523303D01*
X26687743Y5551281D01*
X26699169Y5562674D01*
X26747617Y5613243D01*
X26480881Y5884298D01*
X26412831Y5953348D01*
X26325085Y6042226D01*
X26221492Y6147041D01*
X26105900Y6263903D01*
X25982159Y6388921D01*
X25854119Y6518205D01*
X25725628Y6647864D01*
X25633454Y6740821D01*
X25493342Y6882480D01*
X25375632Y7002409D01*
X25278820Y7102232D01*
X25201399Y7183572D01*
X25141864Y7248052D01*
X25112358Y7281723D01*
X24875409Y7281723D01*
X24845743Y6902408D01*
X24836797Y6791223D01*
X24828142Y6689547D01*
X24820271Y6602696D01*
X24813672Y6535982D01*
X24808836Y6494721D01*
X24807280Y6485494D01*
X24798482Y6447895D01*
X23536681Y6447895D01*
X23528258Y6552827D01*
X23502828Y6676805D01*
X23449611Y6786476D01*
X23371963Y6877844D01*
X23273237Y6946917D01*
X23162428Y6988380D01*
X23126480Y7007829D01*
X23108483Y7049570D01*
X23108106Y7051411D01*
X23105947Y7069033D01*
X23108616Y7087078D01*
X23118720Y7108892D01*
X23138863Y7137823D01*
X23171651Y7177217D01*
X23219690Y7230423D01*
X23285584Y7300786D01*
X23371940Y7391654D01*
X23377520Y7397507D01*
X23470405Y7495044D01*
X23569155Y7598933D01*
X23666984Y7702023D01*
X23757107Y7797161D01*
X23832738Y7877196D01*
X23849605Y7895089D01*
X23914265Y7962556D01*
X23971705Y8020291D01*
X24017801Y8064325D01*
X24048431Y8090686D01*
X24058715Y8096479D01*
X24074052Y8084354D01*
X24109917Y8051090D01*
X24163488Y7999458D01*
X24231940Y7932225D01*
X24312447Y7852163D01*
X24402187Y7762039D01*
X24475532Y7687802D01*
X24875409Y7281723D01*
X25112358Y7281723D01*
X25098709Y7297297D01*
X25070429Y7332929D01*
X25055517Y7356571D01*
X25052199Y7367520D01*
X25053456Y7391414D01*
X25057274Y7445499D01*
X25063407Y7526662D01*
X25071607Y7631790D01*
X25081627Y7757772D01*
X25093220Y7901495D01*
X25106140Y8059846D01*
X25120138Y8229713D01*
X25131419Y8365472D01*
X25195250Y9130894D01*
X25031004Y9130894D01*
X25030297Y9114376D01*
X25026969Y9067855D01*
X25021290Y8994622D01*
X25013526Y8897972D01*
X25003943Y8781195D01*
X24992811Y8647586D01*
X24980395Y8500437D01*
X24968480Y8360729D01*
X24954984Y8202213D01*
X24942413Y8052579D01*
X24931055Y7915398D01*
X24921198Y7794241D01*
X24913130Y7692680D01*
X24907140Y7614288D01*
X24903515Y7562637D01*
X24902509Y7542577D01*
X24900940Y7530092D01*
X24894722Y7525138D01*
X24881459Y7529782D01*
X24858753Y7546091D01*
X24824208Y7576132D01*
X24775427Y7621973D01*
X24710013Y7685680D01*
X24625569Y7769321D01*
X24535971Y7858701D01*
X24169574Y8224814D01*
X24172141Y8227566D01*
X23929951Y8227566D01*
X23918913Y8212450D01*
X23888013Y8176858D01*
X23840347Y8124059D01*
X23779013Y8057327D01*
X23707107Y7979930D01*
X23627727Y7895142D01*
X23543969Y7806233D01*
X23458930Y7716474D01*
X23375708Y7629136D01*
X23297399Y7547491D01*
X23227100Y7474809D01*
X23167909Y7414363D01*
X23122922Y7369422D01*
X23095236Y7343258D01*
X23087686Y7337928D01*
X23085197Y7355133D01*
X23080030Y7402652D01*
X23072470Y7477511D01*
X23062800Y7576736D01*
X23051305Y7697351D01*
X23038269Y7836382D01*
X23023976Y7990855D01*
X23008710Y8157794D01*
X22996521Y8292403D01*
X22980929Y8466946D01*
X22966523Y8631373D01*
X22953547Y8782701D01*
X22942241Y8917947D01*
X22932848Y9034130D01*
X22925611Y9128265D01*
X22920772Y9197370D01*
X22918573Y9238462D01*
X22918824Y9249132D01*
X22931970Y9239628D01*
X22965446Y9209080D01*
X23016326Y9160444D01*
X23081683Y9096677D01*
X23158591Y9020735D01*
X23244124Y8935576D01*
X23335354Y8844155D01*
X23429356Y8749431D01*
X23523202Y8654359D01*
X23613967Y8561897D01*
X23698723Y8475001D01*
X23774544Y8396628D01*
X23838503Y8329735D01*
X23887674Y8277278D01*
X23919131Y8242215D01*
X23929951Y8227566D01*
X24172141Y8227566D01*
X24306202Y8371240D01*
X24375784Y8445552D01*
X24453881Y8528517D01*
X24537406Y8616898D01*
X24623270Y8707459D01*
X24708385Y8796964D01*
X24789664Y8882177D01*
X24864019Y8959861D01*
X24928363Y9026780D01*
X24979606Y9079697D01*
X25014663Y9115377D01*
X25030444Y9130584D01*
X25031004Y9130894D01*
X25195250Y9130894D01*
X25211204Y9322193D01*
X26009286Y10161515D01*
X26807368Y11000836D01*
X26806781Y11118148D01*
X26806194Y11235461D01*
X26677275Y11097747D01*
X26605124Y11020937D01*
X26519940Y10930696D01*
X26424021Y10829425D01*
X26319666Y10719524D01*
X26209174Y10603396D01*
X26094844Y10483442D01*
X25978975Y10362064D01*
X25863865Y10241662D01*
X25751814Y10124638D01*
X25645119Y10013394D01*
X25546080Y9910331D01*
X25456997Y9817850D01*
X25380166Y9738353D01*
X25317888Y9674242D01*
X25272462Y9627917D01*
X25246185Y9601781D01*
X25240426Y9596767D01*
X25240030Y9614209D01*
X25242208Y9658865D01*
X25246583Y9724660D01*
X25252775Y9805517D01*
X25255433Y9837817D01*
X25275228Y10074079D01*
X25120242Y10074079D01*
X25112240Y10036480D01*
X25108160Y10006745D01*
X25102425Y9950797D01*
X25095701Y9875764D01*
X25088648Y9788775D01*
X25086207Y9756579D01*
X25079008Y9664139D01*
X25071742Y9578293D01*
X25065136Y9507153D01*
X25059916Y9458831D01*
X25058739Y9450061D01*
X25054298Y9432058D01*
X25044687Y9410983D01*
X25027860Y9384475D01*
X25001775Y9350172D01*
X24964387Y9305711D01*
X24913654Y9248729D01*
X24847530Y9176864D01*
X24763974Y9087754D01*
X24660940Y8979036D01*
X24555833Y8868725D01*
X24451262Y8759559D01*
X24353649Y8658460D01*
X24265422Y8567885D01*
X24189012Y8490292D01*
X24126849Y8428138D01*
X24081363Y8383882D01*
X24054983Y8359982D01*
X24049357Y8356426D01*
X24034557Y8369319D01*
X23999961Y8402940D01*
X23948929Y8453918D01*
X23884817Y8518880D01*
X23810984Y8594452D01*
X23757589Y8649507D01*
X23478827Y8937763D01*
X24300790Y8937763D01*
X24300790Y9255263D01*
X23298158Y9255263D01*
X23298158Y9113794D01*
X23114342Y9297040D01*
X22983948Y9427029D01*
X22730000Y9427029D01*
X22727571Y9406523D01*
X22715276Y9395098D01*
X22685604Y9390120D01*
X22631045Y9388956D01*
X22621382Y9388948D01*
X22512763Y9388948D01*
X22512763Y9680416D01*
X22621382Y9572763D01*
X22682654Y9507313D01*
X22719301Y9457171D01*
X22730000Y9427029D01*
X22983948Y9427029D01*
X22930526Y9480285D01*
X22930526Y9643498D01*
X22930015Y9718586D01*
X22927672Y9766355D01*
X22922289Y9792902D01*
X22912656Y9804321D01*
X22898129Y9806711D01*
X22881973Y9810220D01*
X22870031Y9824289D01*
X22860861Y9854231D01*
X22853018Y9905358D01*
X22845058Y9982983D01*
X22842504Y10011415D01*
X22836974Y10074079D01*
X25120242Y10074079D01*
X25275228Y10074079D01*
X25487237Y10074079D01*
X25487237Y10224474D01*
X25397141Y10224474D01*
X25344445Y10225917D01*
X25315812Y10232884D01*
X25312309Y10237030D01*
X25127766Y10237030D01*
X25118054Y10227558D01*
X25084412Y10224634D01*
X25061706Y10224474D01*
X24985921Y10224474D01*
X24703306Y10224474D01*
X22823481Y10224474D01*
X22887062Y10289587D01*
X22985814Y10369938D01*
X23108032Y10431911D01*
X23255787Y10476354D01*
X23402599Y10500935D01*
X23498684Y10512404D01*
X23498684Y10391579D01*
X24267368Y10391579D01*
X24267368Y10528655D01*
X24380165Y10517224D01*
X24458975Y10507575D01*
X24542943Y10494786D01*
X24593224Y10485652D01*
X24693487Y10465512D01*
X24698397Y10344993D01*
X24703306Y10224474D01*
X24985921Y10224474D01*
X24985921Y10291316D01*
X24988131Y10333190D01*
X24993650Y10356464D01*
X24995874Y10358158D01*
X25020613Y10347440D01*
X25056757Y10321437D01*
X25092990Y10289377D01*
X25117999Y10260489D01*
X25120227Y10256733D01*
X25127766Y10237030D01*
X25312309Y10237030D01*
X25301919Y10249326D01*
X25296311Y10267238D01*
X25273422Y10313721D01*
X25229460Y10369600D01*
X25171989Y10427040D01*
X25108573Y10478207D01*
X25066918Y10504857D01*
X25019466Y10534028D01*
X24995141Y10558533D01*
X24986595Y10587428D01*
X24985938Y10604638D01*
X24985937Y10608816D01*
X24133684Y10608816D01*
X24133684Y10525263D01*
X23632368Y10525263D01*
X23632368Y10608816D01*
X24133684Y10608816D01*
X24985937Y10608816D01*
X24985921Y10658948D01*
X24845274Y10658948D01*
X24780564Y10657383D01*
X24730130Y10653215D01*
X24702094Y10647227D01*
X24699057Y10644803D01*
X24681273Y10641082D01*
X24637992Y10642606D01*
X24576651Y10648925D01*
X24534737Y10654760D01*
X24458737Y10666222D01*
X24389230Y10676570D01*
X24336997Y10684204D01*
X24321678Y10686373D01*
X24281653Y10698768D01*
X24267368Y10718192D01*
X24263025Y10726102D01*
X24247490Y10732137D01*
X24217001Y10736534D01*
X24167800Y10739531D01*
X24096126Y10741365D01*
X23998219Y10742275D01*
X23883026Y10742500D01*
X23760086Y10742372D01*
X23666559Y10741770D01*
X23598440Y10740361D01*
X23551719Y10737819D01*
X23522391Y10733811D01*
X23506449Y10728009D01*
X23499885Y10720083D01*
X23498684Y10710867D01*
X23488460Y10681615D01*
X23454970Y10664969D01*
X23393988Y10659032D01*
X23383017Y10658948D01*
X23279746Y10648294D01*
X23162453Y10618967D01*
X23041715Y10574916D01*
X22928111Y10520089D01*
X22832219Y10458436D01*
X22819799Y10448668D01*
X22779318Y10416885D01*
X22755345Y10404156D01*
X22738604Y10408271D01*
X22721419Y10425250D01*
X22670664Y10458508D01*
X22604607Y10471275D01*
X22533474Y10464635D01*
X22467486Y10439673D01*
X22416868Y10397471D01*
X22413203Y10392566D01*
X22375328Y10313789D01*
X22368281Y10232246D01*
X22391285Y10154513D01*
X22443563Y10087165D01*
X22449956Y10081604D01*
X22487073Y10055187D01*
X22524733Y10043553D01*
X22577676Y10042713D01*
X22590902Y10043458D01*
X22642703Y10045359D01*
X22669386Y10041004D01*
X22679045Y10027862D01*
X22680037Y10015592D01*
X22682061Y9979998D01*
X22687086Y9926467D01*
X22690697Y9894441D01*
X22695934Y9843573D01*
X22693756Y9817532D01*
X22681125Y9808014D01*
X22658625Y9806711D01*
X22645282Y9811014D01*
X22623756Y9824943D01*
X22592452Y9850023D01*
X22549776Y9887781D01*
X22494132Y9939744D01*
X22423925Y10007438D01*
X22337560Y10092389D01*
X22233442Y10196125D01*
X22109975Y10320172D01*
X21965564Y10466056D01*
X21895969Y10536551D01*
X21175921Y11266390D01*
X21176744Y11150663D01*
D16*
%TO.C,J3*%
X45080000Y86590000D02*
X39880000Y86590000D01*
X45080000Y94330000D02*
X45080000Y86590000D01*
X39880000Y94330000D02*
X39880000Y86590000D01*
X45080000Y94330000D02*
X39880000Y94330000D01*
X44385000Y94524000D02*
X45274000Y94524000D01*
X45274000Y94524000D02*
X45274000Y93635000D01*
D10*
%TO.C,RV2*%
X25802000Y60755200D02*
X19198000Y60755200D01*
X19198000Y53744800D02*
X25802000Y53744800D01*
X19198000Y57250000D02*
X19198000Y53744800D01*
X19198000Y57250000D02*
X19198000Y60755200D01*
X25802000Y57250000D02*
X25802000Y53744800D01*
X25802000Y57250000D02*
X25802000Y60755200D01*
%TO.C,J5*%
X22450000Y102750000D02*
X28750000Y102750000D01*
X22450000Y107750000D02*
X22450000Y102750000D01*
X35050000Y107750000D02*
X22450000Y107750000D01*
X35050000Y102750000D02*
X35050000Y107750000D01*
X28750000Y102750000D02*
X35050000Y102750000D01*
%TO.C,RV7*%
X31995238Y39985619D02*
X32328571Y40461809D01*
X32566666Y39985619D02*
X32566666Y40985619D01*
X32185714Y40985619D01*
X32090476Y40938000D01*
X32042857Y40890380D01*
X31995238Y40795142D01*
X31995238Y40652285D01*
X32042857Y40557047D01*
X32090476Y40509428D01*
X32185714Y40461809D01*
X32566666Y40461809D01*
X31709523Y40985619D02*
X31376190Y39985619D01*
X31042857Y40985619D01*
X30804761Y40985619D02*
X30138095Y40985619D01*
X30566666Y39985619D01*
X32947619Y37953619D02*
X33519047Y37953619D01*
X33233333Y37953619D02*
X33233333Y38953619D01*
X33328571Y38810761D01*
X33423809Y38715523D01*
X33519047Y38667904D01*
X32328571Y38953619D02*
X32233333Y38953619D01*
X32138095Y38906000D01*
X32090476Y38858380D01*
X32042857Y38763142D01*
X31995238Y38572666D01*
X31995238Y38334571D01*
X32042857Y38144095D01*
X32090476Y38048857D01*
X32138095Y38001238D01*
X32233333Y37953619D01*
X32328571Y37953619D01*
X32423809Y38001238D01*
X32471428Y38048857D01*
X32519047Y38144095D01*
X32566666Y38334571D01*
X32566666Y38572666D01*
X32519047Y38763142D01*
X32471428Y38858380D01*
X32423809Y38906000D01*
X32328571Y38953619D01*
X31376190Y38953619D02*
X31280952Y38953619D01*
X31185714Y38906000D01*
X31138095Y38858380D01*
X31090476Y38763142D01*
X31042857Y38572666D01*
X31042857Y38334571D01*
X31090476Y38144095D01*
X31138095Y38048857D01*
X31185714Y38001238D01*
X31280952Y37953619D01*
X31376190Y37953619D01*
X31471428Y38001238D01*
X31519047Y38048857D01*
X31566666Y38144095D01*
X31614285Y38334571D01*
X31614285Y38572666D01*
X31566666Y38763142D01*
X31519047Y38858380D01*
X31471428Y38906000D01*
X31376190Y38953619D01*
X30614285Y37953619D02*
X30614285Y38953619D01*
X30042857Y37953619D02*
X30471428Y38525047D01*
X30042857Y38953619D02*
X30614285Y38382190D01*
X29757142Y38953619D02*
X29185714Y38953619D01*
X29471428Y37953619D02*
X29471428Y38953619D01*
%TO.C,REF\u002A\u002A*%
D17*
X13392857Y6642857D02*
X13392857Y9642857D01*
X12250000Y9642857D01*
X11964285Y9500000D01*
X11821428Y9357142D01*
X11678571Y9071428D01*
X11678571Y8642857D01*
X11821428Y8357142D01*
X11964285Y8214285D01*
X12250000Y8071428D01*
X13392857Y8071428D01*
X10392857Y6642857D02*
X10392857Y9642857D01*
X10392857Y8500000D02*
X10107142Y8642857D01*
X9535714Y8642857D01*
X9250000Y8500000D01*
X9107142Y8357142D01*
X8964285Y8071428D01*
X8964285Y7214285D01*
X9107142Y6928571D01*
X9250000Y6785714D01*
X9535714Y6642857D01*
X10107142Y6642857D01*
X10392857Y6785714D01*
%TO.C,RV2*%
D10*
X23095238Y54257619D02*
X23428571Y54733809D01*
X23666666Y54257619D02*
X23666666Y55257619D01*
X23285714Y55257619D01*
X23190476Y55210000D01*
X23142857Y55162380D01*
X23095238Y55067142D01*
X23095238Y54924285D01*
X23142857Y54829047D01*
X23190476Y54781428D01*
X23285714Y54733809D01*
X23666666Y54733809D01*
X22809523Y55257619D02*
X22476190Y54257619D01*
X22142857Y55257619D01*
X21857142Y55162380D02*
X21809523Y55210000D01*
X21714285Y55257619D01*
X21476190Y55257619D01*
X21380952Y55210000D01*
X21333333Y55162380D01*
X21285714Y55067142D01*
X21285714Y54971904D01*
X21333333Y54829047D01*
X21904761Y54257619D01*
X21285714Y54257619D01*
%TD*%
M02*
