%TF.GenerationSoftware,KiCad,Pcbnew,(5.1.10)-1*%
%TF.CreationDate,2021-09-03T07:56:25-07:00*%
%TF.ProjectId,Foundation,466f756e-6461-4746-996f-6e2e6b696361,rev?*%
%TF.SameCoordinates,Original*%
%TF.FileFunction,Soldermask,Bot*%
%TF.FilePolarity,Negative*%
%FSLAX46Y46*%
G04 Gerber Fmt 4.6, Leading zero omitted, Abs format (unit mm)*
G04 Created by KiCad (PCBNEW (5.1.10)-1) date 2021-09-03 07:56:25*
%MOMM*%
%LPD*%
G01*
G04 APERTURE LIST*
%ADD10C,1.524000*%
%ADD11C,2.000000*%
%ADD12O,1.900000X1.200000*%
%ADD13O,2.100000X1.200000*%
%ADD14O,2.100000X1.100000*%
%ADD15C,2.800000*%
%ADD16C,1.800000*%
%ADD17R,2.000000X2.000000*%
%ADD18R,1.700000X1.700000*%
%ADD19O,1.700000X1.700000*%
%ADD20C,1.650000*%
G04 APERTURE END LIST*
D10*
%TO.C,C19*%
X29640000Y51840000D03*
X29640000Y46760000D03*
%TD*%
D11*
%TO.C,RV7*%
X28860000Y41148600D03*
X31400000Y43688600D03*
X33940000Y41148600D03*
%TD*%
D12*
%TO.C,J6*%
X37500000Y42379500D03*
D13*
X38500000Y44620000D03*
D14*
X38500000Y52920000D03*
%TD*%
D15*
%TO.C,RV6*%
X32200000Y27998000D03*
X41800000Y27998000D03*
D16*
X34500000Y20498000D03*
X39500000Y20498000D03*
X37000000Y20498000D03*
%TD*%
D11*
%TO.C,D6*%
X5500000Y42059999D03*
D17*
X5500000Y34439999D03*
%TD*%
D11*
%TO.C,D7*%
X2750000Y42060000D03*
D17*
X2750000Y34440000D03*
%TD*%
D11*
%TO.C,D1*%
X3500000Y81190000D03*
D17*
X3500000Y88810000D03*
%TD*%
D18*
%TO.C,J3*%
X43750000Y93000000D03*
D19*
X41210000Y93000000D03*
X43750000Y90460000D03*
X41210000Y90460000D03*
X43750000Y87920000D03*
X41210000Y87920000D03*
%TD*%
D12*
%TO.C,J10*%
X30250000Y1879500D03*
D13*
X30250000Y4120000D03*
D14*
X30250000Y12420000D03*
%TD*%
D15*
%TO.C,RV3*%
X32200000Y67498000D03*
X41800000Y67498000D03*
D20*
X34500000Y59998000D03*
D16*
X39500000Y59998000D03*
D20*
X37000000Y59998000D03*
%TD*%
D15*
%TO.C,RV1*%
X28200000Y96498000D03*
X37800000Y96498000D03*
D16*
X30500000Y88998000D03*
X35500000Y88998000D03*
X33000000Y88998000D03*
%TD*%
D11*
%TO.C,RV2*%
X19960000Y57198600D03*
X22500000Y59738600D03*
X25040000Y57198600D03*
%TD*%
%TO.C,J5*%
X33830000Y103980000D03*
X33830000Y106520000D03*
X31290000Y103980000D03*
X31290000Y106520000D03*
X28750000Y103980000D03*
X28750000Y106520000D03*
X26210000Y103980000D03*
X26210000Y106520000D03*
X23670000Y103980000D03*
X23670000Y106520000D03*
%TD*%
D15*
%TO.C,RV5*%
X6200000Y27998000D03*
X15800000Y27998000D03*
D16*
X8500000Y20498000D03*
X13500000Y20498000D03*
X11000000Y20498000D03*
%TD*%
D15*
%TO.C,RV4*%
X6200000Y52998000D03*
X15800000Y52998000D03*
D16*
X8500000Y45498000D03*
X13500000Y45498000D03*
X11000000Y45498000D03*
%TD*%
D12*
%TO.C,J9*%
X42750000Y1879500D03*
D13*
X42750000Y4120000D03*
D14*
X42750000Y12420000D03*
%TD*%
D12*
%TO.C,J8*%
X5250000Y1879500D03*
D13*
X5250000Y4120000D03*
D14*
X5250000Y12420000D03*
%TD*%
D12*
%TO.C,J7*%
X9500000Y79620500D03*
D13*
X9500000Y77380000D03*
D14*
X9500000Y69080000D03*
%TD*%
D12*
%TO.C,J4*%
X13000000Y93620500D03*
D13*
X13000000Y91380000D03*
D14*
X13000000Y83080000D03*
%TD*%
D12*
%TO.C,J2*%
X17750000Y1879500D03*
D13*
X17750000Y4120000D03*
D14*
X17750000Y12420000D03*
%TD*%
D12*
%TO.C,J1*%
X9500000Y96379500D03*
D13*
X9500000Y98620000D03*
D14*
X9500000Y106920000D03*
%TD*%
M02*
