M48
; DRILL file {KiCad (5.1.10)-1} date 09/03/21 07:56:27
; FORMAT={-:-/ absolute / inch / decimal}
; #@! TF.CreationDate,2021-09-03T07:56:27-07:00
; #@! TF.GenerationSoftware,Kicad,Pcbnew,(5.1.10)-1
FMAT,2
INCH
T1C0.0157
T2C0.0197
T3C0.0276
T4C0.0300
T5C0.0393
T6C0.0394
T7C0.0433
T8C0.0709
%
G90
G05
T1
X0.128Y2.2835
X0.128Y1.8898
X0.1575Y1.25
X0.2131Y3.4218
X0.3086Y1.3716
X0.3209Y3.2736
X0.374Y2.3425
X0.4035Y0.5413
X0.4159Y1.4691
X0.5217Y2.6575
X0.5671Y2.8285
X0.6068Y1.6668
X0.6201Y0.8465
X0.6299Y0.935
X0.6352Y2.3963
X0.6398Y4.2913
X0.6398Y0.5906
X0.6516Y3.9941
X0.7008Y1.7795
X0.7677Y3.7894
X0.7911Y1.0569
X0.8036Y1.4405
X0.8071Y0.8465
X0.8346Y2.9291
X0.8346Y2.874
X0.8346Y2.8268
X0.8346Y2.7717
X0.8366Y2.5295
X0.9002Y0.6443
X0.9252Y3.6713
X0.9252Y3.5728
X0.9252Y3.5138
X0.935Y3.1693
X0.9626Y1.7461
X0.9862Y2.5768
X1.0402Y1.9913
X1.0433Y3.5138
X1.063Y1.7717
X1.0787Y3.0236
X1.1004Y2.5768
X1.1747Y0.7741
X1.1796Y0.9385
X1.1909Y0.8563
X1.3386Y3.248
X1.3484Y3.0413
X1.3583Y0.6791
X1.3622Y1.5354
X1.3622Y1.4803
X1.3681Y2.4311
X1.3701Y2.9291
X1.3878Y2.8898
X1.4094Y2.8425
X1.4173Y3.3957
X1.4567Y2.8445
X1.4764Y2.3031
X1.4882Y1.937
X1.5389Y3.409
X1.565Y0.6594
X1.5669Y0.7165
X1.5728Y4.0669
X1.6339Y3.189
X1.6732Y3.8976
X1.6772Y1.4803
X1.7028Y2.3622
X1.7402Y1.8504
X1.7598Y3.935
X1.7598Y3.8602
X1.7638Y2.2362
X1.7717Y0.9154
X1.7815Y3.189
X1.7815Y2.7362
X1.7835Y1.6024
X1.7913Y3.7598
X1.7913Y3.3858
X1.7913Y2.9626
X1.7913Y2.8445
X1.8012Y1.0138
X1.811Y1.8504
X1.8504Y4.0748
T4
X1.1669Y2.0409
X1.1669Y1.8409
T5
X0.9319Y4.1937
X0.9319Y4.0937
X1.0319Y4.1937
X1.0319Y4.0937
X1.1319Y4.1937
X1.1319Y4.0937
X1.2319Y4.1937
X1.2319Y4.0937
X1.3319Y4.1937
X1.3319Y4.0937
T6
X0.1083Y1.6559
X0.1083Y1.3559
X0.1378Y3.4965
X0.1378Y3.1965
X0.2165Y1.6559
X0.2165Y1.3559
X0.7858Y2.2519
X0.8858Y2.3519
X0.9858Y2.2519
X1.1362Y1.62
X1.2362Y1.72
X1.3362Y1.62
X1.6224Y3.6614
X1.6224Y3.5614
X1.6224Y3.4614
X1.7224Y3.6614
X1.7224Y3.5614
X1.7224Y3.4614
T7
X0.3346Y1.7913
X0.3346Y0.807
X0.4331Y1.7913
X0.4331Y0.807
X0.5315Y1.7913
X0.5315Y0.807
X1.2008Y3.5039
X1.2992Y3.5039
X1.3583Y2.3621
X1.3583Y0.807
X1.3976Y3.5039
X1.4567Y2.3621
X1.4567Y0.807
X1.5551Y2.3621
X1.5551Y0.807
T8
X0.2441Y2.0865
X0.2441Y1.1023
X0.622Y2.0865
X0.622Y1.1023
X1.1102Y3.7991
X1.2677Y2.6574
X1.2677Y1.1023
X1.4882Y3.7991
X1.6457Y2.6574
X1.6457Y1.1023
T1
G00X0.1929Y0.489
M15
G01X0.2205Y0.489
M16
G05
G00X0.3602Y4.2094
M15
G01X0.3878Y4.2094
M16
G05
G00X0.3878Y2.7197
M15
G01X0.3602Y2.7197
M16
G05
G00X0.5256Y3.2709
M15
G01X0.498Y3.2709
M16
G05
G00X0.685Y0.489
M15
G01X0.7126Y0.489
M16
G05
G00X1.1772Y0.489
M15
G01X1.2047Y0.489
M16
G05
G00X1.502Y2.0835
M15
G01X1.5295Y2.0835
M16
G05
G00X1.6693Y0.489
M15
G01X1.6969Y0.489
M16
G05
T2
G00X0.1949Y0.1622
M15
G01X0.2185Y0.1622
M16
G05
G00X0.3622Y3.8827
M15
G01X0.3858Y3.8827
M16
G05
G00X0.3858Y3.0465
M15
G01X0.3622Y3.0465
M16
G05
G00X0.5236Y3.5976
M15
G01X0.5Y3.5976
M16
G05
G00X0.687Y0.1622
M15
G01X0.7106Y0.1622
M16
G05
G00X1.1791Y0.1622
M15
G01X1.2028Y0.1622
M16
G05
G00X1.5039Y1.7567
M15
G01X1.5276Y1.7567
M16
G05
G00X1.6713Y0.1622
M15
G01X1.6949Y0.1622
M16
G05
T3
G00X0.1929Y0.074
M15
G01X0.2205Y0.074
M16
G05
G00X0.3602Y3.7945
M15
G01X0.3878Y3.7945
M16
G05
G00X0.3878Y3.1347
M15
G01X0.3602Y3.1347
M16
G05
G00X0.5256Y3.6858
M15
G01X0.498Y3.6858
M16
G05
G00X0.685Y0.074
M15
G01X0.7126Y0.074
M16
G05
G00X1.1772Y0.074
M15
G01X1.2047Y0.074
M16
G05
G00X1.4626Y1.6685
M15
G01X1.4902Y1.6685
M16
G05
G00X1.6693Y0.074
M15
G01X1.6969Y0.074
M16
G05
T0
M30
