%TF.GenerationSoftware,KiCad,Pcbnew,(5.1.10)-1*%
%TF.CreationDate,2021-09-03T07:56:25-07:00*%
%TF.ProjectId,Foundation,466f756e-6461-4746-996f-6e2e6b696361,rev?*%
%TF.SameCoordinates,Original*%
%TF.FileFunction,Copper,L1,Top*%
%TF.FilePolarity,Positive*%
%FSLAX46Y46*%
G04 Gerber Fmt 4.6, Leading zero omitted, Abs format (unit mm)*
G04 Created by KiCad (PCBNEW (5.1.10)-1) date 2021-09-03 07:56:25*
%MOMM*%
%LPD*%
G01*
G04 APERTURE LIST*
%TA.AperFunction,ComponentPad*%
%ADD10C,1.524000*%
%TD*%
%TA.AperFunction,ComponentPad*%
%ADD11C,2.000000*%
%TD*%
%TA.AperFunction,ComponentPad*%
%ADD12O,1.900000X1.200000*%
%TD*%
%TA.AperFunction,ComponentPad*%
%ADD13O,2.100000X1.200000*%
%TD*%
%TA.AperFunction,ComponentPad*%
%ADD14O,2.100000X1.100000*%
%TD*%
%TA.AperFunction,ComponentPad*%
%ADD15C,2.800000*%
%TD*%
%TA.AperFunction,ComponentPad*%
%ADD16C,1.800000*%
%TD*%
%TA.AperFunction,SMDPad,CuDef*%
%ADD17R,0.500000X0.500000*%
%TD*%
%TA.AperFunction,SMDPad,CuDef*%
%ADD18R,1.200000X0.900000*%
%TD*%
%TA.AperFunction,SMDPad,CuDef*%
%ADD19R,0.900000X1.200000*%
%TD*%
%TA.AperFunction,SMDPad,CuDef*%
%ADD20R,0.400000X0.650000*%
%TD*%
%TA.AperFunction,ComponentPad*%
%ADD21R,2.000000X2.000000*%
%TD*%
%TA.AperFunction,ComponentPad*%
%ADD22R,1.700000X1.700000*%
%TD*%
%TA.AperFunction,ComponentPad*%
%ADD23O,1.700000X1.700000*%
%TD*%
%TA.AperFunction,SMDPad,CuDef*%
%ADD24R,1.400000X0.800000*%
%TD*%
%TA.AperFunction,ComponentPad*%
%ADD25C,1.650000*%
%TD*%
%TA.AperFunction,SMDPad,CuDef*%
%ADD26R,1.060000X0.650000*%
%TD*%
%TA.AperFunction,SMDPad,CuDef*%
%ADD27R,0.800000X1.400000*%
%TD*%
%TA.AperFunction,ViaPad*%
%ADD28C,0.800000*%
%TD*%
%TA.AperFunction,Conductor*%
%ADD29C,0.650000*%
%TD*%
%TA.AperFunction,Conductor*%
%ADD30C,0.600000*%
%TD*%
%TA.AperFunction,Conductor*%
%ADD31C,0.350000*%
%TD*%
%TA.AperFunction,Conductor*%
%ADD32C,0.500000*%
%TD*%
%TA.AperFunction,Conductor*%
%ADD33C,0.800000*%
%TD*%
%TA.AperFunction,Conductor*%
%ADD34C,1.000000*%
%TD*%
%TA.AperFunction,Conductor*%
%ADD35C,0.850000*%
%TD*%
%TA.AperFunction,Conductor*%
%ADD36C,0.250000*%
%TD*%
G04 APERTURE END LIST*
D10*
%TO.P,C19,2*%
%TO.N,GND*%
X29640000Y51840000D03*
%TO.P,C19,1*%
%TO.N,Net-(C19-Pad1)*%
X29640000Y46760000D03*
%TD*%
D11*
%TO.P,RV7,3*%
%TO.N,Net-(Q5-PadG)*%
X28860000Y41148600D03*
%TO.P,RV7,2*%
X31400000Y43688600D03*
%TO.P,RV7,1*%
%TO.N,Net-(R27-Pad1)*%
X33940000Y41148600D03*
%TD*%
%TO.P,R27,2*%
%TO.N,pulsePin*%
%TA.AperFunction,SMDPad,CuDef*%
G36*
G01*
X32437500Y47225000D02*
X31962500Y47225000D01*
G75*
G02*
X31725000Y47462500I0J237500D01*
G01*
X31725000Y47962500D01*
G75*
G02*
X31962500Y48200000I237500J0D01*
G01*
X32437500Y48200000D01*
G75*
G02*
X32675000Y47962500I0J-237500D01*
G01*
X32675000Y47462500D01*
G75*
G02*
X32437500Y47225000I-237500J0D01*
G01*
G37*
%TD.AperFunction*%
%TO.P,R27,1*%
%TO.N,Net-(R27-Pad1)*%
%TA.AperFunction,SMDPad,CuDef*%
G36*
G01*
X32437500Y45400000D02*
X31962500Y45400000D01*
G75*
G02*
X31725000Y45637500I0J237500D01*
G01*
X31725000Y46137500D01*
G75*
G02*
X31962500Y46375000I237500J0D01*
G01*
X32437500Y46375000D01*
G75*
G02*
X32675000Y46137500I0J-237500D01*
G01*
X32675000Y45637500D01*
G75*
G02*
X32437500Y45400000I-237500J0D01*
G01*
G37*
%TD.AperFunction*%
%TD*%
D12*
%TO.P,J6,S*%
%TO.N,GND*%
X37500000Y42379500D03*
D13*
%TO.P,J6,TN*%
X38500000Y44620000D03*
D14*
%TO.P,J6,T*%
%TO.N,Net-(J6-PadT)*%
X38500000Y52920000D03*
%TD*%
%TO.P,R33,2*%
%TO.N,GND*%
%TA.AperFunction,SMDPad,CuDef*%
G36*
G01*
X28675000Y21512500D02*
X28675000Y21987500D01*
G75*
G02*
X28912500Y22225000I237500J0D01*
G01*
X29412500Y22225000D01*
G75*
G02*
X29650000Y21987500I0J-237500D01*
G01*
X29650000Y21512500D01*
G75*
G02*
X29412500Y21275000I-237500J0D01*
G01*
X28912500Y21275000D01*
G75*
G02*
X28675000Y21512500I0J237500D01*
G01*
G37*
%TD.AperFunction*%
%TO.P,R33,1*%
%TO.N,Net-(C22-Pad2)*%
%TA.AperFunction,SMDPad,CuDef*%
G36*
G01*
X26850000Y21512500D02*
X26850000Y21987500D01*
G75*
G02*
X27087500Y22225000I237500J0D01*
G01*
X27587500Y22225000D01*
G75*
G02*
X27825000Y21987500I0J-237500D01*
G01*
X27825000Y21512500D01*
G75*
G02*
X27587500Y21275000I-237500J0D01*
G01*
X27087500Y21275000D01*
G75*
G02*
X26850000Y21512500I0J237500D01*
G01*
G37*
%TD.AperFunction*%
%TD*%
D15*
%TO.P,RV6,*%
%TO.N,*%
X32200000Y27998000D03*
X41800000Y27998000D03*
D16*
%TO.P,RV6,1*%
%TO.N,Net-(C8-Pad1)*%
X34500000Y20498000D03*
%TO.P,RV6,3*%
%TO.N,Net-(C25-Pad1)*%
X39500000Y20498000D03*
%TO.P,RV6,2*%
X37000000Y20498000D03*
%TD*%
%TO.P,C28,2*%
%TO.N,GND*%
%TA.AperFunction,SMDPad,CuDef*%
G36*
G01*
X17362500Y46575000D02*
X17837500Y46575000D01*
G75*
G02*
X18075000Y46337500I0J-237500D01*
G01*
X18075000Y45837500D01*
G75*
G02*
X17837500Y45600000I-237500J0D01*
G01*
X17362500Y45600000D01*
G75*
G02*
X17125000Y45837500I0J237500D01*
G01*
X17125000Y46337500D01*
G75*
G02*
X17362500Y46575000I237500J0D01*
G01*
G37*
%TD.AperFunction*%
%TO.P,C28,1*%
%TO.N,-12V*%
%TA.AperFunction,SMDPad,CuDef*%
G36*
G01*
X17362500Y48400000D02*
X17837500Y48400000D01*
G75*
G02*
X18075000Y48162500I0J-237500D01*
G01*
X18075000Y47662500D01*
G75*
G02*
X17837500Y47425000I-237500J0D01*
G01*
X17362500Y47425000D01*
G75*
G02*
X17125000Y47662500I0J237500D01*
G01*
X17125000Y48162500D01*
G75*
G02*
X17362500Y48400000I237500J0D01*
G01*
G37*
%TD.AperFunction*%
%TD*%
%TO.P,C27,2*%
%TO.N,GND*%
%TA.AperFunction,SMDPad,CuDef*%
G36*
G01*
X26762500Y46375000D02*
X27237500Y46375000D01*
G75*
G02*
X27475000Y46137500I0J-237500D01*
G01*
X27475000Y45637500D01*
G75*
G02*
X27237500Y45400000I-237500J0D01*
G01*
X26762500Y45400000D01*
G75*
G02*
X26525000Y45637500I0J237500D01*
G01*
X26525000Y46137500D01*
G75*
G02*
X26762500Y46375000I237500J0D01*
G01*
G37*
%TD.AperFunction*%
%TO.P,C27,1*%
%TO.N,+12V*%
%TA.AperFunction,SMDPad,CuDef*%
G36*
G01*
X26762500Y48200000D02*
X27237500Y48200000D01*
G75*
G02*
X27475000Y47962500I0J-237500D01*
G01*
X27475000Y47462500D01*
G75*
G02*
X27237500Y47225000I-237500J0D01*
G01*
X26762500Y47225000D01*
G75*
G02*
X26525000Y47462500I0J237500D01*
G01*
X26525000Y47962500D01*
G75*
G02*
X26762500Y48200000I237500J0D01*
G01*
G37*
%TD.AperFunction*%
%TD*%
%TO.P,C26,2*%
%TO.N,GND*%
%TA.AperFunction,SMDPad,CuDef*%
G36*
G01*
X28762500Y24325000D02*
X29237500Y24325000D01*
G75*
G02*
X29475000Y24087500I0J-237500D01*
G01*
X29475000Y23587500D01*
G75*
G02*
X29237500Y23350000I-237500J0D01*
G01*
X28762500Y23350000D01*
G75*
G02*
X28525000Y23587500I0J237500D01*
G01*
X28525000Y24087500D01*
G75*
G02*
X28762500Y24325000I237500J0D01*
G01*
G37*
%TD.AperFunction*%
%TO.P,C26,1*%
%TO.N,+12V*%
%TA.AperFunction,SMDPad,CuDef*%
G36*
G01*
X28762500Y26150000D02*
X29237500Y26150000D01*
G75*
G02*
X29475000Y25912500I0J-237500D01*
G01*
X29475000Y25412500D01*
G75*
G02*
X29237500Y25175000I-237500J0D01*
G01*
X28762500Y25175000D01*
G75*
G02*
X28525000Y25412500I0J237500D01*
G01*
X28525000Y25912500D01*
G75*
G02*
X28762500Y26150000I237500J0D01*
G01*
G37*
%TD.AperFunction*%
%TD*%
%TO.P,C8,2*%
%TO.N,Net-(C8-Pad2)*%
%TA.AperFunction,SMDPad,CuDef*%
G36*
G01*
X23825000Y22737500D02*
X23825000Y22262500D01*
G75*
G02*
X23587500Y22025000I-237500J0D01*
G01*
X23087500Y22025000D01*
G75*
G02*
X22850000Y22262500I0J237500D01*
G01*
X22850000Y22737500D01*
G75*
G02*
X23087500Y22975000I237500J0D01*
G01*
X23587500Y22975000D01*
G75*
G02*
X23825000Y22737500I0J-237500D01*
G01*
G37*
%TD.AperFunction*%
%TO.P,C8,1*%
%TO.N,Net-(C8-Pad1)*%
%TA.AperFunction,SMDPad,CuDef*%
G36*
G01*
X25650000Y22737500D02*
X25650000Y22262500D01*
G75*
G02*
X25412500Y22025000I-237500J0D01*
G01*
X24912500Y22025000D01*
G75*
G02*
X24675000Y22262500I0J237500D01*
G01*
X24675000Y22737500D01*
G75*
G02*
X24912500Y22975000I237500J0D01*
G01*
X25412500Y22975000D01*
G75*
G02*
X25650000Y22737500I0J-237500D01*
G01*
G37*
%TD.AperFunction*%
%TD*%
%TO.P,C4,2*%
%TO.N,Net-(C4-Pad2)*%
%TA.AperFunction,SMDPad,CuDef*%
G36*
G01*
X18675000Y21762500D02*
X18675000Y22237500D01*
G75*
G02*
X18912500Y22475000I237500J0D01*
G01*
X19412500Y22475000D01*
G75*
G02*
X19650000Y22237500I0J-237500D01*
G01*
X19650000Y21762500D01*
G75*
G02*
X19412500Y21525000I-237500J0D01*
G01*
X18912500Y21525000D01*
G75*
G02*
X18675000Y21762500I0J237500D01*
G01*
G37*
%TD.AperFunction*%
%TO.P,C4,1*%
%TO.N,sineDrum*%
%TA.AperFunction,SMDPad,CuDef*%
G36*
G01*
X16850000Y21762500D02*
X16850000Y22237500D01*
G75*
G02*
X17087500Y22475000I237500J0D01*
G01*
X17587500Y22475000D01*
G75*
G02*
X17825000Y22237500I0J-237500D01*
G01*
X17825000Y21762500D01*
G75*
G02*
X17587500Y21525000I-237500J0D01*
G01*
X17087500Y21525000D01*
G75*
G02*
X16850000Y21762500I0J237500D01*
G01*
G37*
%TD.AperFunction*%
%TD*%
%TO.P,C14,2*%
%TO.N,-12V*%
%TA.AperFunction,SMDPad,CuDef*%
G36*
G01*
X18800000Y105300000D02*
X17700000Y105300000D01*
G75*
G02*
X17450000Y105550000I0J250000D01*
G01*
X17450000Y108550000D01*
G75*
G02*
X17700000Y108800000I250000J0D01*
G01*
X18800000Y108800000D01*
G75*
G02*
X19050000Y108550000I0J-250000D01*
G01*
X19050000Y105550000D01*
G75*
G02*
X18800000Y105300000I-250000J0D01*
G01*
G37*
%TD.AperFunction*%
%TO.P,C14,1*%
%TO.N,GND*%
%TA.AperFunction,SMDPad,CuDef*%
G36*
G01*
X18800000Y99700000D02*
X17700000Y99700000D01*
G75*
G02*
X17450000Y99950000I0J250000D01*
G01*
X17450000Y102950000D01*
G75*
G02*
X17700000Y103200000I250000J0D01*
G01*
X18800000Y103200000D01*
G75*
G02*
X19050000Y102950000I0J-250000D01*
G01*
X19050000Y99950000D01*
G75*
G02*
X18800000Y99700000I-250000J0D01*
G01*
G37*
%TD.AperFunction*%
%TD*%
%TO.P,C13,2*%
%TO.N,GND*%
%TA.AperFunction,SMDPad,CuDef*%
G36*
G01*
X41700000Y105550000D02*
X41700000Y104450000D01*
G75*
G02*
X41450000Y104200000I-250000J0D01*
G01*
X38450000Y104200000D01*
G75*
G02*
X38200000Y104450000I0J250000D01*
G01*
X38200000Y105550000D01*
G75*
G02*
X38450000Y105800000I250000J0D01*
G01*
X41450000Y105800000D01*
G75*
G02*
X41700000Y105550000I0J-250000D01*
G01*
G37*
%TD.AperFunction*%
%TO.P,C13,1*%
%TO.N,+12V*%
%TA.AperFunction,SMDPad,CuDef*%
G36*
G01*
X47300000Y105550000D02*
X47300000Y104450000D01*
G75*
G02*
X47050000Y104200000I-250000J0D01*
G01*
X44050000Y104200000D01*
G75*
G02*
X43800000Y104450000I0J250000D01*
G01*
X43800000Y105550000D01*
G75*
G02*
X44050000Y105800000I250000J0D01*
G01*
X47050000Y105800000D01*
G75*
G02*
X47300000Y105550000I0J-250000D01*
G01*
G37*
%TD.AperFunction*%
%TD*%
%TO.P,C5,2*%
%TO.N,GND*%
%TA.AperFunction,SMDPad,CuDef*%
G36*
G01*
X43550000Y38850000D02*
X43550000Y39950000D01*
G75*
G02*
X43800000Y40200000I250000J0D01*
G01*
X46800000Y40200000D01*
G75*
G02*
X47050000Y39950000I0J-250000D01*
G01*
X47050000Y38850000D01*
G75*
G02*
X46800000Y38600000I-250000J0D01*
G01*
X43800000Y38600000D01*
G75*
G02*
X43550000Y38850000I0J250000D01*
G01*
G37*
%TD.AperFunction*%
%TO.P,C5,1*%
%TO.N,+6V*%
%TA.AperFunction,SMDPad,CuDef*%
G36*
G01*
X37950000Y38850000D02*
X37950000Y39950000D01*
G75*
G02*
X38200000Y40200000I250000J0D01*
G01*
X41200000Y40200000D01*
G75*
G02*
X41450000Y39950000I0J-250000D01*
G01*
X41450000Y38850000D01*
G75*
G02*
X41200000Y38600000I-250000J0D01*
G01*
X38200000Y38600000D01*
G75*
G02*
X37950000Y38850000I0J250000D01*
G01*
G37*
%TD.AperFunction*%
%TD*%
%TO.P,R55,2*%
%TO.N,GND*%
%TA.AperFunction,SMDPad,CuDef*%
G36*
G01*
X44675000Y77762500D02*
X44675000Y78237500D01*
G75*
G02*
X44912500Y78475000I237500J0D01*
G01*
X45412500Y78475000D01*
G75*
G02*
X45650000Y78237500I0J-237500D01*
G01*
X45650000Y77762500D01*
G75*
G02*
X45412500Y77525000I-237500J0D01*
G01*
X44912500Y77525000D01*
G75*
G02*
X44675000Y77762500I0J237500D01*
G01*
G37*
%TD.AperFunction*%
%TO.P,R55,1*%
%TO.N,Net-(C1-Pad1)*%
%TA.AperFunction,SMDPad,CuDef*%
G36*
G01*
X42850000Y77762500D02*
X42850000Y78237500D01*
G75*
G02*
X43087500Y78475000I237500J0D01*
G01*
X43587500Y78475000D01*
G75*
G02*
X43825000Y78237500I0J-237500D01*
G01*
X43825000Y77762500D01*
G75*
G02*
X43587500Y77525000I-237500J0D01*
G01*
X43087500Y77525000D01*
G75*
G02*
X42850000Y77762500I0J237500D01*
G01*
G37*
%TD.AperFunction*%
%TD*%
D17*
%TO.P,D9,2*%
%TO.N,pulsePin*%
X25400000Y69500000D03*
%TO.P,D9,1*%
%TO.N,Net-(D9-Pad1)*%
X27600000Y69500000D03*
%TD*%
%TO.P,D3,2*%
%TO.N,pulsePin*%
X25400000Y73750000D03*
%TO.P,D3,1*%
%TO.N,Net-(C10-Pad1)*%
X27600000Y73750000D03*
%TD*%
%TO.P,D2,2*%
%TO.N,pulsePin*%
X25400000Y71600000D03*
%TO.P,D2,1*%
%TO.N,Net-(D2-Pad1)*%
X27600000Y71600000D03*
%TD*%
D18*
%TO.P,D10,2*%
%TO.N,GND*%
X45000000Y24100000D03*
%TO.P,D10,1*%
%TO.N,env1*%
X45000000Y27400000D03*
%TD*%
D19*
%TO.P,D8,2*%
%TO.N,GND*%
X43850000Y56800000D03*
%TO.P,D8,1*%
%TO.N,pulsePin*%
X40550000Y56800000D03*
%TD*%
%TO.P,D5,2*%
%TO.N,-12V*%
X23350000Y100750000D03*
%TO.P,D5,1*%
%TO.N,Net-(D5-Pad1)*%
X26650000Y100750000D03*
%TD*%
D18*
%TO.P,D4,2*%
%TO.N,Net-(D4-Pad2)*%
X36500000Y103600000D03*
%TO.P,D4,1*%
%TO.N,+12V*%
X36500000Y106900000D03*
%TD*%
D20*
%TO.P,Q6,6*%
%TO.N,GND*%
X25850000Y65450000D03*
%TO.P,Q6,4*%
X27150000Y65450000D03*
%TO.P,Q6,2*%
%TO.N,Net-(Q6-Pad2)*%
X26500000Y63550000D03*
%TO.P,Q6,5*%
%TO.N,Net-(Q6-Pad1)*%
X26500000Y65450000D03*
%TO.P,Q6,3*%
%TO.N,Iexpo*%
X27150000Y63550000D03*
%TO.P,Q6,1*%
%TO.N,Net-(Q6-Pad1)*%
X25850000Y63550000D03*
%TD*%
%TO.P,U1,8*%
%TO.N,+5V*%
%TA.AperFunction,SMDPad,CuDef*%
G36*
G01*
X22050000Y75505000D02*
X22050000Y75805000D01*
G75*
G02*
X22200000Y75955000I150000J0D01*
G01*
X23500000Y75955000D01*
G75*
G02*
X23650000Y75805000I0J-150000D01*
G01*
X23650000Y75505000D01*
G75*
G02*
X23500000Y75355000I-150000J0D01*
G01*
X22200000Y75355000D01*
G75*
G02*
X22050000Y75505000I0J150000D01*
G01*
G37*
%TD.AperFunction*%
%TO.P,U1,7*%
%TO.N,trigPin*%
%TA.AperFunction,SMDPad,CuDef*%
G36*
G01*
X22050000Y74235000D02*
X22050000Y74535000D01*
G75*
G02*
X22200000Y74685000I150000J0D01*
G01*
X23500000Y74685000D01*
G75*
G02*
X23650000Y74535000I0J-150000D01*
G01*
X23650000Y74235000D01*
G75*
G02*
X23500000Y74085000I-150000J0D01*
G01*
X22200000Y74085000D01*
G75*
G02*
X22050000Y74235000I0J150000D01*
G01*
G37*
%TD.AperFunction*%
%TO.P,U1,6*%
%TO.N,pulsePin*%
%TA.AperFunction,SMDPad,CuDef*%
G36*
G01*
X22050000Y72965000D02*
X22050000Y73265000D01*
G75*
G02*
X22200000Y73415000I150000J0D01*
G01*
X23500000Y73415000D01*
G75*
G02*
X23650000Y73265000I0J-150000D01*
G01*
X23650000Y72965000D01*
G75*
G02*
X23500000Y72815000I-150000J0D01*
G01*
X22200000Y72815000D01*
G75*
G02*
X22050000Y72965000I0J150000D01*
G01*
G37*
%TD.AperFunction*%
%TO.P,U1,5*%
%TO.N,pwmPin*%
%TA.AperFunction,SMDPad,CuDef*%
G36*
G01*
X22050000Y71695000D02*
X22050000Y71995000D01*
G75*
G02*
X22200000Y72145000I150000J0D01*
G01*
X23500000Y72145000D01*
G75*
G02*
X23650000Y71995000I0J-150000D01*
G01*
X23650000Y71695000D01*
G75*
G02*
X23500000Y71545000I-150000J0D01*
G01*
X22200000Y71545000D01*
G75*
G02*
X22050000Y71695000I0J150000D01*
G01*
G37*
%TD.AperFunction*%
%TO.P,U1,4*%
%TO.N,GND*%
%TA.AperFunction,SMDPad,CuDef*%
G36*
G01*
X14850000Y71695000D02*
X14850000Y71995000D01*
G75*
G02*
X15000000Y72145000I150000J0D01*
G01*
X16300000Y72145000D01*
G75*
G02*
X16450000Y71995000I0J-150000D01*
G01*
X16450000Y71695000D01*
G75*
G02*
X16300000Y71545000I-150000J0D01*
G01*
X15000000Y71545000D01*
G75*
G02*
X14850000Y71695000I0J150000D01*
G01*
G37*
%TD.AperFunction*%
%TO.P,U1,3*%
%TO.N,noisePin*%
%TA.AperFunction,SMDPad,CuDef*%
G36*
G01*
X14850000Y72965000D02*
X14850000Y73265000D01*
G75*
G02*
X15000000Y73415000I150000J0D01*
G01*
X16300000Y73415000D01*
G75*
G02*
X16450000Y73265000I0J-150000D01*
G01*
X16450000Y72965000D01*
G75*
G02*
X16300000Y72815000I-150000J0D01*
G01*
X15000000Y72815000D01*
G75*
G02*
X14850000Y72965000I0J150000D01*
G01*
G37*
%TD.AperFunction*%
%TO.P,U1,2*%
%TO.N,decayPin*%
%TA.AperFunction,SMDPad,CuDef*%
G36*
G01*
X14850000Y74235000D02*
X14850000Y74535000D01*
G75*
G02*
X15000000Y74685000I150000J0D01*
G01*
X16300000Y74685000D01*
G75*
G02*
X16450000Y74535000I0J-150000D01*
G01*
X16450000Y74235000D01*
G75*
G02*
X16300000Y74085000I-150000J0D01*
G01*
X15000000Y74085000D01*
G75*
G02*
X14850000Y74235000I0J150000D01*
G01*
G37*
%TD.AperFunction*%
%TO.P,U1,1*%
%TO.N,RST*%
%TA.AperFunction,SMDPad,CuDef*%
G36*
G01*
X14850000Y75505000D02*
X14850000Y75805000D01*
G75*
G02*
X15000000Y75955000I150000J0D01*
G01*
X16300000Y75955000D01*
G75*
G02*
X16450000Y75805000I0J-150000D01*
G01*
X16450000Y75505000D01*
G75*
G02*
X16300000Y75355000I-150000J0D01*
G01*
X15000000Y75355000D01*
G75*
G02*
X14850000Y75505000I0J150000D01*
G01*
G37*
%TD.AperFunction*%
%TD*%
%TO.P,C9,2*%
%TO.N,GND*%
%TA.AperFunction,SMDPad,CuDef*%
G36*
G01*
X39575000Y84237500D02*
X39575000Y83762500D01*
G75*
G02*
X39337500Y83525000I-237500J0D01*
G01*
X38837500Y83525000D01*
G75*
G02*
X38600000Y83762500I0J237500D01*
G01*
X38600000Y84237500D01*
G75*
G02*
X38837500Y84475000I237500J0D01*
G01*
X39337500Y84475000D01*
G75*
G02*
X39575000Y84237500I0J-237500D01*
G01*
G37*
%TD.AperFunction*%
%TO.P,C9,1*%
%TO.N,Net-(C9-Pad1)*%
%TA.AperFunction,SMDPad,CuDef*%
G36*
G01*
X41400000Y84237500D02*
X41400000Y83762500D01*
G75*
G02*
X41162500Y83525000I-237500J0D01*
G01*
X40662500Y83525000D01*
G75*
G02*
X40425000Y83762500I0J237500D01*
G01*
X40425000Y84237500D01*
G75*
G02*
X40662500Y84475000I237500J0D01*
G01*
X41162500Y84475000D01*
G75*
G02*
X41400000Y84237500I0J-237500D01*
G01*
G37*
%TD.AperFunction*%
%TD*%
%TO.P,R13,2*%
%TO.N,Net-(D2-Pad1)*%
%TA.AperFunction,SMDPad,CuDef*%
G36*
G01*
X39575000Y82537500D02*
X39575000Y82062500D01*
G75*
G02*
X39337500Y81825000I-237500J0D01*
G01*
X38837500Y81825000D01*
G75*
G02*
X38600000Y82062500I0J237500D01*
G01*
X38600000Y82537500D01*
G75*
G02*
X38837500Y82775000I237500J0D01*
G01*
X39337500Y82775000D01*
G75*
G02*
X39575000Y82537500I0J-237500D01*
G01*
G37*
%TD.AperFunction*%
%TO.P,R13,1*%
%TO.N,Net-(C9-Pad1)*%
%TA.AperFunction,SMDPad,CuDef*%
G36*
G01*
X41400000Y82537500D02*
X41400000Y82062500D01*
G75*
G02*
X41162500Y81825000I-237500J0D01*
G01*
X40662500Y81825000D01*
G75*
G02*
X40425000Y82062500I0J237500D01*
G01*
X40425000Y82537500D01*
G75*
G02*
X40662500Y82775000I237500J0D01*
G01*
X41162500Y82775000D01*
G75*
G02*
X41400000Y82537500I0J-237500D01*
G01*
G37*
%TD.AperFunction*%
%TD*%
%TO.P,R15,2*%
%TO.N,Net-(C9-Pad1)*%
%TA.AperFunction,SMDPad,CuDef*%
G36*
G01*
X40425000Y85562500D02*
X40425000Y86037500D01*
G75*
G02*
X40662500Y86275000I237500J0D01*
G01*
X41162500Y86275000D01*
G75*
G02*
X41400000Y86037500I0J-237500D01*
G01*
X41400000Y85562500D01*
G75*
G02*
X41162500Y85325000I-237500J0D01*
G01*
X40662500Y85325000D01*
G75*
G02*
X40425000Y85562500I0J237500D01*
G01*
G37*
%TD.AperFunction*%
%TO.P,R15,1*%
%TO.N,GND*%
%TA.AperFunction,SMDPad,CuDef*%
G36*
G01*
X38600000Y85562500D02*
X38600000Y86037500D01*
G75*
G02*
X38837500Y86275000I237500J0D01*
G01*
X39337500Y86275000D01*
G75*
G02*
X39575000Y86037500I0J-237500D01*
G01*
X39575000Y85562500D01*
G75*
G02*
X39337500Y85325000I-237500J0D01*
G01*
X38837500Y85325000D01*
G75*
G02*
X38600000Y85562500I0J237500D01*
G01*
G37*
%TD.AperFunction*%
%TD*%
%TO.P,R19,2*%
%TO.N,env2*%
%TA.AperFunction,SMDPad,CuDef*%
G36*
G01*
X43875000Y82287500D02*
X43875000Y81812500D01*
G75*
G02*
X43637500Y81575000I-237500J0D01*
G01*
X43137500Y81575000D01*
G75*
G02*
X42900000Y81812500I0J237500D01*
G01*
X42900000Y82287500D01*
G75*
G02*
X43137500Y82525000I237500J0D01*
G01*
X43637500Y82525000D01*
G75*
G02*
X43875000Y82287500I0J-237500D01*
G01*
G37*
%TD.AperFunction*%
%TO.P,R19,1*%
%TO.N,GND*%
%TA.AperFunction,SMDPad,CuDef*%
G36*
G01*
X45700000Y82287500D02*
X45700000Y81812500D01*
G75*
G02*
X45462500Y81575000I-237500J0D01*
G01*
X44962500Y81575000D01*
G75*
G02*
X44725000Y81812500I0J237500D01*
G01*
X44725000Y82287500D01*
G75*
G02*
X44962500Y82525000I237500J0D01*
G01*
X45462500Y82525000D01*
G75*
G02*
X45700000Y82287500I0J-237500D01*
G01*
G37*
%TD.AperFunction*%
%TD*%
%TO.P,C3,2*%
%TO.N,texture*%
%TA.AperFunction,SMDPad,CuDef*%
G36*
G01*
X24775000Y37837500D02*
X24775000Y37362500D01*
G75*
G02*
X24537500Y37125000I-237500J0D01*
G01*
X24037500Y37125000D01*
G75*
G02*
X23800000Y37362500I0J237500D01*
G01*
X23800000Y37837500D01*
G75*
G02*
X24037500Y38075000I237500J0D01*
G01*
X24537500Y38075000D01*
G75*
G02*
X24775000Y37837500I0J-237500D01*
G01*
G37*
%TD.AperFunction*%
%TO.P,C3,1*%
%TO.N,Net-(C3-Pad1)*%
%TA.AperFunction,SMDPad,CuDef*%
G36*
G01*
X26600000Y37837500D02*
X26600000Y37362500D01*
G75*
G02*
X26362500Y37125000I-237500J0D01*
G01*
X25862500Y37125000D01*
G75*
G02*
X25625000Y37362500I0J237500D01*
G01*
X25625000Y37837500D01*
G75*
G02*
X25862500Y38075000I237500J0D01*
G01*
X26362500Y38075000D01*
G75*
G02*
X26600000Y37837500I0J-237500D01*
G01*
G37*
%TD.AperFunction*%
%TD*%
%TO.P,R52,2*%
%TO.N,pwmPin*%
%TA.AperFunction,SMDPad,CuDef*%
G36*
G01*
X44675000Y79512500D02*
X44675000Y79987500D01*
G75*
G02*
X44912500Y80225000I237500J0D01*
G01*
X45412500Y80225000D01*
G75*
G02*
X45650000Y79987500I0J-237500D01*
G01*
X45650000Y79512500D01*
G75*
G02*
X45412500Y79275000I-237500J0D01*
G01*
X44912500Y79275000D01*
G75*
G02*
X44675000Y79512500I0J237500D01*
G01*
G37*
%TD.AperFunction*%
%TO.P,R52,1*%
%TO.N,Net-(Q9-PadB)*%
%TA.AperFunction,SMDPad,CuDef*%
G36*
G01*
X42850000Y79512500D02*
X42850000Y79987500D01*
G75*
G02*
X43087500Y80225000I237500J0D01*
G01*
X43587500Y80225000D01*
G75*
G02*
X43825000Y79987500I0J-237500D01*
G01*
X43825000Y79512500D01*
G75*
G02*
X43587500Y79275000I-237500J0D01*
G01*
X43087500Y79275000D01*
G75*
G02*
X42850000Y79512500I0J237500D01*
G01*
G37*
%TD.AperFunction*%
%TD*%
%TO.P,R51,2*%
%TO.N,GND*%
%TA.AperFunction,SMDPad,CuDef*%
G36*
G01*
X44675000Y70512500D02*
X44675000Y70987500D01*
G75*
G02*
X44912500Y71225000I237500J0D01*
G01*
X45412500Y71225000D01*
G75*
G02*
X45650000Y70987500I0J-237500D01*
G01*
X45650000Y70512500D01*
G75*
G02*
X45412500Y70275000I-237500J0D01*
G01*
X44912500Y70275000D01*
G75*
G02*
X44675000Y70512500I0J237500D01*
G01*
G37*
%TD.AperFunction*%
%TO.P,R51,1*%
%TO.N,env3*%
%TA.AperFunction,SMDPad,CuDef*%
G36*
G01*
X42850000Y70512500D02*
X42850000Y70987500D01*
G75*
G02*
X43087500Y71225000I237500J0D01*
G01*
X43587500Y71225000D01*
G75*
G02*
X43825000Y70987500I0J-237500D01*
G01*
X43825000Y70512500D01*
G75*
G02*
X43587500Y70275000I-237500J0D01*
G01*
X43087500Y70275000D01*
G75*
G02*
X42850000Y70512500I0J237500D01*
G01*
G37*
%TD.AperFunction*%
%TD*%
%TO.P,R7,2*%
%TO.N,Net-(Q9-PadC)*%
%TA.AperFunction,SMDPad,CuDef*%
G36*
G01*
X40675000Y76262500D02*
X40675000Y76737500D01*
G75*
G02*
X40912500Y76975000I237500J0D01*
G01*
X41412500Y76975000D01*
G75*
G02*
X41650000Y76737500I0J-237500D01*
G01*
X41650000Y76262500D01*
G75*
G02*
X41412500Y76025000I-237500J0D01*
G01*
X40912500Y76025000D01*
G75*
G02*
X40675000Y76262500I0J237500D01*
G01*
G37*
%TD.AperFunction*%
%TO.P,R7,1*%
%TO.N,Net-(C1-Pad1)*%
%TA.AperFunction,SMDPad,CuDef*%
G36*
G01*
X38850000Y76262500D02*
X38850000Y76737500D01*
G75*
G02*
X39087500Y76975000I237500J0D01*
G01*
X39587500Y76975000D01*
G75*
G02*
X39825000Y76737500I0J-237500D01*
G01*
X39825000Y76262500D01*
G75*
G02*
X39587500Y76025000I-237500J0D01*
G01*
X39087500Y76025000D01*
G75*
G02*
X38850000Y76262500I0J237500D01*
G01*
G37*
%TD.AperFunction*%
%TD*%
%TO.P,C1,2*%
%TO.N,GND*%
%TA.AperFunction,SMDPad,CuDef*%
G36*
G01*
X44675000Y76012500D02*
X44675000Y76487500D01*
G75*
G02*
X44912500Y76725000I237500J0D01*
G01*
X45412500Y76725000D01*
G75*
G02*
X45650000Y76487500I0J-237500D01*
G01*
X45650000Y76012500D01*
G75*
G02*
X45412500Y75775000I-237500J0D01*
G01*
X44912500Y75775000D01*
G75*
G02*
X44675000Y76012500I0J237500D01*
G01*
G37*
%TD.AperFunction*%
%TO.P,C1,1*%
%TO.N,Net-(C1-Pad1)*%
%TA.AperFunction,SMDPad,CuDef*%
G36*
G01*
X42850000Y76012500D02*
X42850000Y76487500D01*
G75*
G02*
X43087500Y76725000I237500J0D01*
G01*
X43587500Y76725000D01*
G75*
G02*
X43825000Y76487500I0J-237500D01*
G01*
X43825000Y76012500D01*
G75*
G02*
X43587500Y75775000I-237500J0D01*
G01*
X43087500Y75775000D01*
G75*
G02*
X42850000Y76012500I0J237500D01*
G01*
G37*
%TD.AperFunction*%
%TD*%
%TO.P,R50,2*%
%TO.N,GND*%
%TA.AperFunction,SMDPad,CuDef*%
G36*
G01*
X14925000Y43012500D02*
X14925000Y43487500D01*
G75*
G02*
X15162500Y43725000I237500J0D01*
G01*
X15662500Y43725000D01*
G75*
G02*
X15900000Y43487500I0J-237500D01*
G01*
X15900000Y43012500D01*
G75*
G02*
X15662500Y42775000I-237500J0D01*
G01*
X15162500Y42775000D01*
G75*
G02*
X14925000Y43012500I0J237500D01*
G01*
G37*
%TD.AperFunction*%
%TO.P,R50,1*%
%TO.N,Net-(R50-Pad1)*%
%TA.AperFunction,SMDPad,CuDef*%
G36*
G01*
X13100000Y43012500D02*
X13100000Y43487500D01*
G75*
G02*
X13337500Y43725000I237500J0D01*
G01*
X13837500Y43725000D01*
G75*
G02*
X14075000Y43487500I0J-237500D01*
G01*
X14075000Y43012500D01*
G75*
G02*
X13837500Y42775000I-237500J0D01*
G01*
X13337500Y42775000D01*
G75*
G02*
X13100000Y43012500I0J237500D01*
G01*
G37*
%TD.AperFunction*%
%TD*%
%TO.P,R2,2*%
%TO.N,noisePin*%
%TA.AperFunction,SMDPad,CuDef*%
G36*
G01*
X5087500Y95512500D02*
X5087500Y95987500D01*
G75*
G02*
X5325000Y96225000I237500J0D01*
G01*
X5825000Y96225000D01*
G75*
G02*
X6062500Y95987500I0J-237500D01*
G01*
X6062500Y95512500D01*
G75*
G02*
X5825000Y95275000I-237500J0D01*
G01*
X5325000Y95275000D01*
G75*
G02*
X5087500Y95512500I0J237500D01*
G01*
G37*
%TD.AperFunction*%
%TO.P,R2,1*%
%TO.N,Net-(Q2-PadB)*%
%TA.AperFunction,SMDPad,CuDef*%
G36*
G01*
X3262500Y95512500D02*
X3262500Y95987500D01*
G75*
G02*
X3500000Y96225000I237500J0D01*
G01*
X4000000Y96225000D01*
G75*
G02*
X4237500Y95987500I0J-237500D01*
G01*
X4237500Y95512500D01*
G75*
G02*
X4000000Y95275000I-237500J0D01*
G01*
X3500000Y95275000D01*
G75*
G02*
X3262500Y95512500I0J237500D01*
G01*
G37*
%TD.AperFunction*%
%TD*%
%TO.P,C15,2*%
%TO.N,GND*%
%TA.AperFunction,SMDPad,CuDef*%
G36*
G01*
X22237500Y63175000D02*
X21762500Y63175000D01*
G75*
G02*
X21525000Y63412500I0J237500D01*
G01*
X21525000Y63912500D01*
G75*
G02*
X21762500Y64150000I237500J0D01*
G01*
X22237500Y64150000D01*
G75*
G02*
X22475000Y63912500I0J-237500D01*
G01*
X22475000Y63412500D01*
G75*
G02*
X22237500Y63175000I-237500J0D01*
G01*
G37*
%TD.AperFunction*%
%TO.P,C15,1*%
%TO.N,+12V*%
%TA.AperFunction,SMDPad,CuDef*%
G36*
G01*
X22237500Y61350000D02*
X21762500Y61350000D01*
G75*
G02*
X21525000Y61587500I0J237500D01*
G01*
X21525000Y62087500D01*
G75*
G02*
X21762500Y62325000I237500J0D01*
G01*
X22237500Y62325000D01*
G75*
G02*
X22475000Y62087500I0J-237500D01*
G01*
X22475000Y61587500D01*
G75*
G02*
X22237500Y61350000I-237500J0D01*
G01*
G37*
%TD.AperFunction*%
%TD*%
%TO.P,R30,2*%
%TO.N,Net-(R30-Pad2)*%
%TA.AperFunction,SMDPad,CuDef*%
G36*
G01*
X29325000Y35237500D02*
X29325000Y34762500D01*
G75*
G02*
X29087500Y34525000I-237500J0D01*
G01*
X28587500Y34525000D01*
G75*
G02*
X28350000Y34762500I0J237500D01*
G01*
X28350000Y35237500D01*
G75*
G02*
X28587500Y35475000I237500J0D01*
G01*
X29087500Y35475000D01*
G75*
G02*
X29325000Y35237500I0J-237500D01*
G01*
G37*
%TD.AperFunction*%
%TO.P,R30,1*%
%TO.N,env3*%
%TA.AperFunction,SMDPad,CuDef*%
G36*
G01*
X31150000Y35237500D02*
X31150000Y34762500D01*
G75*
G02*
X30912500Y34525000I-237500J0D01*
G01*
X30412500Y34525000D01*
G75*
G02*
X30175000Y34762500I0J237500D01*
G01*
X30175000Y35237500D01*
G75*
G02*
X30412500Y35475000I237500J0D01*
G01*
X30912500Y35475000D01*
G75*
G02*
X31150000Y35237500I0J-237500D01*
G01*
G37*
%TD.AperFunction*%
%TD*%
%TO.P,C2,2*%
%TO.N,GND*%
%TA.AperFunction,SMDPad,CuDef*%
G36*
G01*
X26825000Y75512500D02*
X26825000Y75987500D01*
G75*
G02*
X27062500Y76225000I237500J0D01*
G01*
X27562500Y76225000D01*
G75*
G02*
X27800000Y75987500I0J-237500D01*
G01*
X27800000Y75512500D01*
G75*
G02*
X27562500Y75275000I-237500J0D01*
G01*
X27062500Y75275000D01*
G75*
G02*
X26825000Y75512500I0J237500D01*
G01*
G37*
%TD.AperFunction*%
%TO.P,C2,1*%
%TO.N,+5V*%
%TA.AperFunction,SMDPad,CuDef*%
G36*
G01*
X25000000Y75512500D02*
X25000000Y75987500D01*
G75*
G02*
X25237500Y76225000I237500J0D01*
G01*
X25737500Y76225000D01*
G75*
G02*
X25975000Y75987500I0J-237500D01*
G01*
X25975000Y75512500D01*
G75*
G02*
X25737500Y75275000I-237500J0D01*
G01*
X25237500Y75275000D01*
G75*
G02*
X25000000Y75512500I0J237500D01*
G01*
G37*
%TD.AperFunction*%
%TD*%
%TO.P,C6,2*%
%TO.N,sine*%
%TA.AperFunction,SMDPad,CuDef*%
G36*
G01*
X13075000Y33737500D02*
X13075000Y33262500D01*
G75*
G02*
X12837500Y33025000I-237500J0D01*
G01*
X12337500Y33025000D01*
G75*
G02*
X12100000Y33262500I0J237500D01*
G01*
X12100000Y33737500D01*
G75*
G02*
X12337500Y33975000I237500J0D01*
G01*
X12837500Y33975000D01*
G75*
G02*
X13075000Y33737500I0J-237500D01*
G01*
G37*
%TD.AperFunction*%
%TO.P,C6,1*%
%TO.N,Net-(C6-Pad1)*%
%TA.AperFunction,SMDPad,CuDef*%
G36*
G01*
X14900000Y33737500D02*
X14900000Y33262500D01*
G75*
G02*
X14662500Y33025000I-237500J0D01*
G01*
X14162500Y33025000D01*
G75*
G02*
X13925000Y33262500I0J237500D01*
G01*
X13925000Y33737500D01*
G75*
G02*
X14162500Y33975000I237500J0D01*
G01*
X14662500Y33975000D01*
G75*
G02*
X14900000Y33737500I0J-237500D01*
G01*
G37*
%TD.AperFunction*%
%TD*%
%TO.P,C10,2*%
%TO.N,GND*%
%TA.AperFunction,SMDPad,CuDef*%
G36*
G01*
X32425000Y82262500D02*
X32425000Y82737500D01*
G75*
G02*
X32662500Y82975000I237500J0D01*
G01*
X33162500Y82975000D01*
G75*
G02*
X33400000Y82737500I0J-237500D01*
G01*
X33400000Y82262500D01*
G75*
G02*
X33162500Y82025000I-237500J0D01*
G01*
X32662500Y82025000D01*
G75*
G02*
X32425000Y82262500I0J237500D01*
G01*
G37*
%TD.AperFunction*%
%TO.P,C10,1*%
%TO.N,Net-(C10-Pad1)*%
%TA.AperFunction,SMDPad,CuDef*%
G36*
G01*
X30600000Y82262500D02*
X30600000Y82737500D01*
G75*
G02*
X30837500Y82975000I237500J0D01*
G01*
X31337500Y82975000D01*
G75*
G02*
X31575000Y82737500I0J-237500D01*
G01*
X31575000Y82262500D01*
G75*
G02*
X31337500Y82025000I-237500J0D01*
G01*
X30837500Y82025000D01*
G75*
G02*
X30600000Y82262500I0J237500D01*
G01*
G37*
%TD.AperFunction*%
%TD*%
%TO.P,C12,2*%
%TO.N,Net-(C12-Pad2)*%
%TA.AperFunction,SMDPad,CuDef*%
G36*
G01*
X20075000Y88237500D02*
X20075000Y87762500D01*
G75*
G02*
X19837500Y87525000I-237500J0D01*
G01*
X19337500Y87525000D01*
G75*
G02*
X19100000Y87762500I0J237500D01*
G01*
X19100000Y88237500D01*
G75*
G02*
X19337500Y88475000I237500J0D01*
G01*
X19837500Y88475000D01*
G75*
G02*
X20075000Y88237500I0J-237500D01*
G01*
G37*
%TD.AperFunction*%
%TO.P,C12,1*%
%TO.N,decayPin*%
%TA.AperFunction,SMDPad,CuDef*%
G36*
G01*
X21900000Y88237500D02*
X21900000Y87762500D01*
G75*
G02*
X21662500Y87525000I-237500J0D01*
G01*
X21162500Y87525000D01*
G75*
G02*
X20925000Y87762500I0J237500D01*
G01*
X20925000Y88237500D01*
G75*
G02*
X21162500Y88475000I237500J0D01*
G01*
X21662500Y88475000D01*
G75*
G02*
X21900000Y88237500I0J-237500D01*
G01*
G37*
%TD.AperFunction*%
%TD*%
%TO.P,C16,2*%
%TO.N,-12V*%
%TA.AperFunction,SMDPad,CuDef*%
G36*
G01*
X11925000Y59262500D02*
X11925000Y59737500D01*
G75*
G02*
X12162500Y59975000I237500J0D01*
G01*
X12662500Y59975000D01*
G75*
G02*
X12900000Y59737500I0J-237500D01*
G01*
X12900000Y59262500D01*
G75*
G02*
X12662500Y59025000I-237500J0D01*
G01*
X12162500Y59025000D01*
G75*
G02*
X11925000Y59262500I0J237500D01*
G01*
G37*
%TD.AperFunction*%
%TO.P,C16,1*%
%TO.N,GND*%
%TA.AperFunction,SMDPad,CuDef*%
G36*
G01*
X10100000Y59262500D02*
X10100000Y59737500D01*
G75*
G02*
X10337500Y59975000I237500J0D01*
G01*
X10837500Y59975000D01*
G75*
G02*
X11075000Y59737500I0J-237500D01*
G01*
X11075000Y59262500D01*
G75*
G02*
X10837500Y59025000I-237500J0D01*
G01*
X10337500Y59025000D01*
G75*
G02*
X10100000Y59262500I0J237500D01*
G01*
G37*
%TD.AperFunction*%
%TD*%
%TO.P,C17,2*%
%TO.N,GND*%
%TA.AperFunction,SMDPad,CuDef*%
G36*
G01*
X19012500Y37075000D02*
X19487500Y37075000D01*
G75*
G02*
X19725000Y36837500I0J-237500D01*
G01*
X19725000Y36337500D01*
G75*
G02*
X19487500Y36100000I-237500J0D01*
G01*
X19012500Y36100000D01*
G75*
G02*
X18775000Y36337500I0J237500D01*
G01*
X18775000Y36837500D01*
G75*
G02*
X19012500Y37075000I237500J0D01*
G01*
G37*
%TD.AperFunction*%
%TO.P,C17,1*%
%TO.N,+12V*%
%TA.AperFunction,SMDPad,CuDef*%
G36*
G01*
X19012500Y38900000D02*
X19487500Y38900000D01*
G75*
G02*
X19725000Y38662500I0J-237500D01*
G01*
X19725000Y38162500D01*
G75*
G02*
X19487500Y37925000I-237500J0D01*
G01*
X19012500Y37925000D01*
G75*
G02*
X18775000Y38162500I0J237500D01*
G01*
X18775000Y38662500D01*
G75*
G02*
X19012500Y38900000I237500J0D01*
G01*
G37*
%TD.AperFunction*%
%TD*%
%TO.P,C18,2*%
%TO.N,-12V*%
%TA.AperFunction,SMDPad,CuDef*%
G36*
G01*
X9175000Y35762500D02*
X9175000Y36237500D01*
G75*
G02*
X9412500Y36475000I237500J0D01*
G01*
X9912500Y36475000D01*
G75*
G02*
X10150000Y36237500I0J-237500D01*
G01*
X10150000Y35762500D01*
G75*
G02*
X9912500Y35525000I-237500J0D01*
G01*
X9412500Y35525000D01*
G75*
G02*
X9175000Y35762500I0J237500D01*
G01*
G37*
%TD.AperFunction*%
%TO.P,C18,1*%
%TO.N,GND*%
%TA.AperFunction,SMDPad,CuDef*%
G36*
G01*
X7350000Y35762500D02*
X7350000Y36237500D01*
G75*
G02*
X7587500Y36475000I237500J0D01*
G01*
X8087500Y36475000D01*
G75*
G02*
X8325000Y36237500I0J-237500D01*
G01*
X8325000Y35762500D01*
G75*
G02*
X8087500Y35525000I-237500J0D01*
G01*
X7587500Y35525000D01*
G75*
G02*
X7350000Y35762500I0J237500D01*
G01*
G37*
%TD.AperFunction*%
%TD*%
%TO.P,C20,2*%
%TO.N,GND*%
%TA.AperFunction,SMDPad,CuDef*%
G36*
G01*
X29237500Y19175000D02*
X28762500Y19175000D01*
G75*
G02*
X28525000Y19412500I0J237500D01*
G01*
X28525000Y19912500D01*
G75*
G02*
X28762500Y20150000I237500J0D01*
G01*
X29237500Y20150000D01*
G75*
G02*
X29475000Y19912500I0J-237500D01*
G01*
X29475000Y19412500D01*
G75*
G02*
X29237500Y19175000I-237500J0D01*
G01*
G37*
%TD.AperFunction*%
%TO.P,C20,1*%
%TO.N,+12V*%
%TA.AperFunction,SMDPad,CuDef*%
G36*
G01*
X29237500Y17350000D02*
X28762500Y17350000D01*
G75*
G02*
X28525000Y17587500I0J237500D01*
G01*
X28525000Y18087500D01*
G75*
G02*
X28762500Y18325000I237500J0D01*
G01*
X29237500Y18325000D01*
G75*
G02*
X29475000Y18087500I0J-237500D01*
G01*
X29475000Y17587500D01*
G75*
G02*
X29237500Y17350000I-237500J0D01*
G01*
G37*
%TD.AperFunction*%
%TD*%
%TO.P,C21,2*%
%TO.N,-12V*%
%TA.AperFunction,SMDPad,CuDef*%
G36*
G01*
X18675000Y14762500D02*
X18675000Y15237500D01*
G75*
G02*
X18912500Y15475000I237500J0D01*
G01*
X19412500Y15475000D01*
G75*
G02*
X19650000Y15237500I0J-237500D01*
G01*
X19650000Y14762500D01*
G75*
G02*
X19412500Y14525000I-237500J0D01*
G01*
X18912500Y14525000D01*
G75*
G02*
X18675000Y14762500I0J237500D01*
G01*
G37*
%TD.AperFunction*%
%TO.P,C21,1*%
%TO.N,GND*%
%TA.AperFunction,SMDPad,CuDef*%
G36*
G01*
X16850000Y14762500D02*
X16850000Y15237500D01*
G75*
G02*
X17087500Y15475000I237500J0D01*
G01*
X17587500Y15475000D01*
G75*
G02*
X17825000Y15237500I0J-237500D01*
G01*
X17825000Y14762500D01*
G75*
G02*
X17587500Y14525000I-237500J0D01*
G01*
X17087500Y14525000D01*
G75*
G02*
X16850000Y14762500I0J237500D01*
G01*
G37*
%TD.AperFunction*%
%TD*%
%TO.P,C22,2*%
%TO.N,Net-(C22-Pad2)*%
%TA.AperFunction,SMDPad,CuDef*%
G36*
G01*
X17825000Y16987500D02*
X17825000Y16512500D01*
G75*
G02*
X17587500Y16275000I-237500J0D01*
G01*
X17087500Y16275000D01*
G75*
G02*
X16850000Y16512500I0J237500D01*
G01*
X16850000Y16987500D01*
G75*
G02*
X17087500Y17225000I237500J0D01*
G01*
X17587500Y17225000D01*
G75*
G02*
X17825000Y16987500I0J-237500D01*
G01*
G37*
%TD.AperFunction*%
%TO.P,C22,1*%
%TO.N,noiseDrum*%
%TA.AperFunction,SMDPad,CuDef*%
G36*
G01*
X19650000Y16987500D02*
X19650000Y16512500D01*
G75*
G02*
X19412500Y16275000I-237500J0D01*
G01*
X18912500Y16275000D01*
G75*
G02*
X18675000Y16512500I0J237500D01*
G01*
X18675000Y16987500D01*
G75*
G02*
X18912500Y17225000I237500J0D01*
G01*
X19412500Y17225000D01*
G75*
G02*
X19650000Y16987500I0J-237500D01*
G01*
G37*
%TD.AperFunction*%
%TD*%
%TO.P,C23,2*%
%TO.N,Net-(C23-Pad2)*%
%TA.AperFunction,SMDPad,CuDef*%
G36*
G01*
X9175000Y40112500D02*
X9175000Y40587500D01*
G75*
G02*
X9412500Y40825000I237500J0D01*
G01*
X9912500Y40825000D01*
G75*
G02*
X10150000Y40587500I0J-237500D01*
G01*
X10150000Y40112500D01*
G75*
G02*
X9912500Y39875000I-237500J0D01*
G01*
X9412500Y39875000D01*
G75*
G02*
X9175000Y40112500I0J237500D01*
G01*
G37*
%TD.AperFunction*%
%TO.P,C23,1*%
%TO.N,sine*%
%TA.AperFunction,SMDPad,CuDef*%
G36*
G01*
X7350000Y40112500D02*
X7350000Y40587500D01*
G75*
G02*
X7587500Y40825000I237500J0D01*
G01*
X8087500Y40825000D01*
G75*
G02*
X8325000Y40587500I0J-237500D01*
G01*
X8325000Y40112500D01*
G75*
G02*
X8087500Y39875000I-237500J0D01*
G01*
X7587500Y39875000D01*
G75*
G02*
X7350000Y40112500I0J237500D01*
G01*
G37*
%TD.AperFunction*%
%TD*%
%TO.P,C25,2*%
%TO.N,GND*%
%TA.AperFunction,SMDPad,CuDef*%
G36*
G01*
X41325000Y16987500D02*
X41325000Y16512500D01*
G75*
G02*
X41087500Y16275000I-237500J0D01*
G01*
X40587500Y16275000D01*
G75*
G02*
X40350000Y16512500I0J237500D01*
G01*
X40350000Y16987500D01*
G75*
G02*
X40587500Y17225000I237500J0D01*
G01*
X41087500Y17225000D01*
G75*
G02*
X41325000Y16987500I0J-237500D01*
G01*
G37*
%TD.AperFunction*%
%TO.P,C25,1*%
%TO.N,Net-(C25-Pad1)*%
%TA.AperFunction,SMDPad,CuDef*%
G36*
G01*
X43150000Y16987500D02*
X43150000Y16512500D01*
G75*
G02*
X42912500Y16275000I-237500J0D01*
G01*
X42412500Y16275000D01*
G75*
G02*
X42175000Y16512500I0J237500D01*
G01*
X42175000Y16987500D01*
G75*
G02*
X42412500Y17225000I237500J0D01*
G01*
X42912500Y17225000D01*
G75*
G02*
X43150000Y16987500I0J-237500D01*
G01*
G37*
%TD.AperFunction*%
%TD*%
%TO.P,R1,2*%
%TO.N,Net-(J1-PadT)*%
%TA.AperFunction,SMDPad,CuDef*%
G36*
G01*
X17325000Y98487500D02*
X17325000Y98012500D01*
G75*
G02*
X17087500Y97775000I-237500J0D01*
G01*
X16587500Y97775000D01*
G75*
G02*
X16350000Y98012500I0J237500D01*
G01*
X16350000Y98487500D01*
G75*
G02*
X16587500Y98725000I237500J0D01*
G01*
X17087500Y98725000D01*
G75*
G02*
X17325000Y98487500I0J-237500D01*
G01*
G37*
%TD.AperFunction*%
%TO.P,R1,1*%
%TO.N,Net-(Q1-PadB)*%
%TA.AperFunction,SMDPad,CuDef*%
G36*
G01*
X19150000Y98487500D02*
X19150000Y98012500D01*
G75*
G02*
X18912500Y97775000I-237500J0D01*
G01*
X18412500Y97775000D01*
G75*
G02*
X18175000Y98012500I0J237500D01*
G01*
X18175000Y98487500D01*
G75*
G02*
X18412500Y98725000I237500J0D01*
G01*
X18912500Y98725000D01*
G75*
G02*
X19150000Y98487500I0J-237500D01*
G01*
G37*
%TD.AperFunction*%
%TD*%
%TO.P,R4,2*%
%TO.N,+6V*%
%TA.AperFunction,SMDPad,CuDef*%
G36*
G01*
X45762500Y44775001D02*
X46237500Y44775001D01*
G75*
G02*
X46475000Y44537501I0J-237500D01*
G01*
X46475000Y44037501D01*
G75*
G02*
X46237500Y43800001I-237500J0D01*
G01*
X45762500Y43800001D01*
G75*
G02*
X45525000Y44037501I0J237500D01*
G01*
X45525000Y44537501D01*
G75*
G02*
X45762500Y44775001I237500J0D01*
G01*
G37*
%TD.AperFunction*%
%TO.P,R4,1*%
%TO.N,+12V*%
%TA.AperFunction,SMDPad,CuDef*%
G36*
G01*
X45762500Y46600001D02*
X46237500Y46600001D01*
G75*
G02*
X46475000Y46362501I0J-237500D01*
G01*
X46475000Y45862501D01*
G75*
G02*
X46237500Y45625001I-237500J0D01*
G01*
X45762500Y45625001D01*
G75*
G02*
X45525000Y45862501I0J237500D01*
G01*
X45525000Y46362501D01*
G75*
G02*
X45762500Y46600001I237500J0D01*
G01*
G37*
%TD.AperFunction*%
%TD*%
%TO.P,R5,2*%
%TO.N,GND*%
%TA.AperFunction,SMDPad,CuDef*%
G36*
G01*
X44437500Y45625000D02*
X43962500Y45625000D01*
G75*
G02*
X43725000Y45862500I0J237500D01*
G01*
X43725000Y46362500D01*
G75*
G02*
X43962500Y46600000I237500J0D01*
G01*
X44437500Y46600000D01*
G75*
G02*
X44675000Y46362500I0J-237500D01*
G01*
X44675000Y45862500D01*
G75*
G02*
X44437500Y45625000I-237500J0D01*
G01*
G37*
%TD.AperFunction*%
%TO.P,R5,1*%
%TO.N,+6V*%
%TA.AperFunction,SMDPad,CuDef*%
G36*
G01*
X44437500Y43800000D02*
X43962500Y43800000D01*
G75*
G02*
X43725000Y44037500I0J237500D01*
G01*
X43725000Y44537500D01*
G75*
G02*
X43962500Y44775000I237500J0D01*
G01*
X44437500Y44775000D01*
G75*
G02*
X44675000Y44537500I0J-237500D01*
G01*
X44675000Y44037500D01*
G75*
G02*
X44437500Y43800000I-237500J0D01*
G01*
G37*
%TD.AperFunction*%
%TD*%
%TO.P,R6,2*%
%TO.N,+5V*%
%TA.AperFunction,SMDPad,CuDef*%
G36*
G01*
X22162500Y94737500D02*
X22162500Y94262500D01*
G75*
G02*
X21925000Y94025000I-237500J0D01*
G01*
X21425000Y94025000D01*
G75*
G02*
X21187500Y94262500I0J237500D01*
G01*
X21187500Y94737500D01*
G75*
G02*
X21425000Y94975000I237500J0D01*
G01*
X21925000Y94975000D01*
G75*
G02*
X22162500Y94737500I0J-237500D01*
G01*
G37*
%TD.AperFunction*%
%TO.P,R6,1*%
%TO.N,trigPin*%
%TA.AperFunction,SMDPad,CuDef*%
G36*
G01*
X23987500Y94737500D02*
X23987500Y94262500D01*
G75*
G02*
X23750000Y94025000I-237500J0D01*
G01*
X23250000Y94025000D01*
G75*
G02*
X23012500Y94262500I0J237500D01*
G01*
X23012500Y94737500D01*
G75*
G02*
X23250000Y94975000I237500J0D01*
G01*
X23750000Y94975000D01*
G75*
G02*
X23987500Y94737500I0J-237500D01*
G01*
G37*
%TD.AperFunction*%
%TD*%
%TO.P,R8,2*%
%TO.N,+5V*%
%TA.AperFunction,SMDPad,CuDef*%
G36*
G01*
X20925000Y77262500D02*
X20925000Y77737500D01*
G75*
G02*
X21162500Y77975000I237500J0D01*
G01*
X21662500Y77975000D01*
G75*
G02*
X21900000Y77737500I0J-237500D01*
G01*
X21900000Y77262500D01*
G75*
G02*
X21662500Y77025000I-237500J0D01*
G01*
X21162500Y77025000D01*
G75*
G02*
X20925000Y77262500I0J237500D01*
G01*
G37*
%TD.AperFunction*%
%TO.P,R8,1*%
%TO.N,RST*%
%TA.AperFunction,SMDPad,CuDef*%
G36*
G01*
X19100000Y77262500D02*
X19100000Y77737500D01*
G75*
G02*
X19337500Y77975000I237500J0D01*
G01*
X19837500Y77975000D01*
G75*
G02*
X20075000Y77737500I0J-237500D01*
G01*
X20075000Y77262500D01*
G75*
G02*
X19837500Y77025000I-237500J0D01*
G01*
X19337500Y77025000D01*
G75*
G02*
X19100000Y77262500I0J237500D01*
G01*
G37*
%TD.AperFunction*%
%TD*%
%TO.P,R9,2*%
%TO.N,-5V*%
%TA.AperFunction,SMDPad,CuDef*%
G36*
G01*
X6262500Y85575000D02*
X6737500Y85575000D01*
G75*
G02*
X6975000Y85337500I0J-237500D01*
G01*
X6975000Y84837500D01*
G75*
G02*
X6737500Y84600000I-237500J0D01*
G01*
X6262500Y84600000D01*
G75*
G02*
X6025000Y84837500I0J237500D01*
G01*
X6025000Y85337500D01*
G75*
G02*
X6262500Y85575000I237500J0D01*
G01*
G37*
%TD.AperFunction*%
%TO.P,R9,1*%
%TO.N,-12V*%
%TA.AperFunction,SMDPad,CuDef*%
G36*
G01*
X6262500Y87400000D02*
X6737500Y87400000D01*
G75*
G02*
X6975000Y87162500I0J-237500D01*
G01*
X6975000Y86662500D01*
G75*
G02*
X6737500Y86425000I-237500J0D01*
G01*
X6262500Y86425000D01*
G75*
G02*
X6025000Y86662500I0J237500D01*
G01*
X6025000Y87162500D01*
G75*
G02*
X6262500Y87400000I237500J0D01*
G01*
G37*
%TD.AperFunction*%
%TD*%
%TO.P,R10,2*%
%TO.N,Net-(C6-Pad1)*%
%TA.AperFunction,SMDPad,CuDef*%
G36*
G01*
X17825000Y32487500D02*
X17825000Y32012500D01*
G75*
G02*
X17587500Y31775000I-237500J0D01*
G01*
X17087500Y31775000D01*
G75*
G02*
X16850000Y32012500I0J237500D01*
G01*
X16850000Y32487500D01*
G75*
G02*
X17087500Y32725000I237500J0D01*
G01*
X17587500Y32725000D01*
G75*
G02*
X17825000Y32487500I0J-237500D01*
G01*
G37*
%TD.AperFunction*%
%TO.P,R10,1*%
%TO.N,Net-(R10-Pad1)*%
%TA.AperFunction,SMDPad,CuDef*%
G36*
G01*
X19650000Y32487500D02*
X19650000Y32012500D01*
G75*
G02*
X19412500Y31775000I-237500J0D01*
G01*
X18912500Y31775000D01*
G75*
G02*
X18675000Y32012500I0J237500D01*
G01*
X18675000Y32487500D01*
G75*
G02*
X18912500Y32725000I237500J0D01*
G01*
X19412500Y32725000D01*
G75*
G02*
X19650000Y32487500I0J-237500D01*
G01*
G37*
%TD.AperFunction*%
%TD*%
%TO.P,R11,2*%
%TO.N,Net-(R10-Pad1)*%
%TA.AperFunction,SMDPad,CuDef*%
G36*
G01*
X18675000Y30262500D02*
X18675000Y30737500D01*
G75*
G02*
X18912500Y30975000I237500J0D01*
G01*
X19412500Y30975000D01*
G75*
G02*
X19650000Y30737500I0J-237500D01*
G01*
X19650000Y30262500D01*
G75*
G02*
X19412500Y30025000I-237500J0D01*
G01*
X18912500Y30025000D01*
G75*
G02*
X18675000Y30262500I0J237500D01*
G01*
G37*
%TD.AperFunction*%
%TO.P,R11,1*%
%TO.N,+6V*%
%TA.AperFunction,SMDPad,CuDef*%
G36*
G01*
X16850000Y30262500D02*
X16850000Y30737500D01*
G75*
G02*
X17087500Y30975000I237500J0D01*
G01*
X17587500Y30975000D01*
G75*
G02*
X17825000Y30737500I0J-237500D01*
G01*
X17825000Y30262500D01*
G75*
G02*
X17587500Y30025000I-237500J0D01*
G01*
X17087500Y30025000D01*
G75*
G02*
X16850000Y30262500I0J237500D01*
G01*
G37*
%TD.AperFunction*%
%TD*%
%TO.P,R12,2*%
%TO.N,pwmPin*%
%TA.AperFunction,SMDPad,CuDef*%
G36*
G01*
X31575000Y73737500D02*
X31575000Y73262500D01*
G75*
G02*
X31337500Y73025000I-237500J0D01*
G01*
X30837500Y73025000D01*
G75*
G02*
X30600000Y73262500I0J237500D01*
G01*
X30600000Y73737500D01*
G75*
G02*
X30837500Y73975000I237500J0D01*
G01*
X31337500Y73975000D01*
G75*
G02*
X31575000Y73737500I0J-237500D01*
G01*
G37*
%TD.AperFunction*%
%TO.P,R12,1*%
%TO.N,Net-(Q3-PadB)*%
%TA.AperFunction,SMDPad,CuDef*%
G36*
G01*
X33400000Y73737500D02*
X33400000Y73262500D01*
G75*
G02*
X33162500Y73025000I-237500J0D01*
G01*
X32662500Y73025000D01*
G75*
G02*
X32425000Y73262500I0J237500D01*
G01*
X32425000Y73737500D01*
G75*
G02*
X32662500Y73975000I237500J0D01*
G01*
X33162500Y73975000D01*
G75*
G02*
X33400000Y73737500I0J-237500D01*
G01*
G37*
%TD.AperFunction*%
%TD*%
%TO.P,R14,2*%
%TO.N,Net-(C10-Pad1)*%
%TA.AperFunction,SMDPad,CuDef*%
G36*
G01*
X31575000Y79237500D02*
X31575000Y78762500D01*
G75*
G02*
X31337500Y78525000I-237500J0D01*
G01*
X30837500Y78525000D01*
G75*
G02*
X30600000Y78762500I0J237500D01*
G01*
X30600000Y79237500D01*
G75*
G02*
X30837500Y79475000I237500J0D01*
G01*
X31337500Y79475000D01*
G75*
G02*
X31575000Y79237500I0J-237500D01*
G01*
G37*
%TD.AperFunction*%
%TO.P,R14,1*%
%TO.N,Net-(Q3-PadC)*%
%TA.AperFunction,SMDPad,CuDef*%
G36*
G01*
X33400000Y79237500D02*
X33400000Y78762500D01*
G75*
G02*
X33162500Y78525000I-237500J0D01*
G01*
X32662500Y78525000D01*
G75*
G02*
X32425000Y78762500I0J237500D01*
G01*
X32425000Y79237500D01*
G75*
G02*
X32662500Y79475000I237500J0D01*
G01*
X33162500Y79475000D01*
G75*
G02*
X33400000Y79237500I0J-237500D01*
G01*
G37*
%TD.AperFunction*%
%TD*%
%TO.P,R16,2*%
%TO.N,Net-(R16-Pad2)*%
%TA.AperFunction,SMDPad,CuDef*%
G36*
G01*
X29325000Y36737500D02*
X29325000Y36262500D01*
G75*
G02*
X29087500Y36025000I-237500J0D01*
G01*
X28587500Y36025000D01*
G75*
G02*
X28350000Y36262500I0J237500D01*
G01*
X28350000Y36737500D01*
G75*
G02*
X28587500Y36975000I237500J0D01*
G01*
X29087500Y36975000D01*
G75*
G02*
X29325000Y36737500I0J-237500D01*
G01*
G37*
%TD.AperFunction*%
%TO.P,R16,1*%
%TO.N,env1*%
%TA.AperFunction,SMDPad,CuDef*%
G36*
G01*
X31150000Y36737500D02*
X31150000Y36262500D01*
G75*
G02*
X30912500Y36025000I-237500J0D01*
G01*
X30412500Y36025000D01*
G75*
G02*
X30175000Y36262500I0J237500D01*
G01*
X30175000Y36737500D01*
G75*
G02*
X30412500Y36975000I237500J0D01*
G01*
X30912500Y36975000D01*
G75*
G02*
X31150000Y36737500I0J-237500D01*
G01*
G37*
%TD.AperFunction*%
%TD*%
%TO.P,R17,2*%
%TO.N,GND*%
%TA.AperFunction,SMDPad,CuDef*%
G36*
G01*
X32425000Y80512500D02*
X32425000Y80987500D01*
G75*
G02*
X32662500Y81225000I237500J0D01*
G01*
X33162500Y81225000D01*
G75*
G02*
X33400000Y80987500I0J-237500D01*
G01*
X33400000Y80512500D01*
G75*
G02*
X33162500Y80275000I-237500J0D01*
G01*
X32662500Y80275000D01*
G75*
G02*
X32425000Y80512500I0J237500D01*
G01*
G37*
%TD.AperFunction*%
%TO.P,R17,1*%
%TO.N,Net-(C10-Pad1)*%
%TA.AperFunction,SMDPad,CuDef*%
G36*
G01*
X30600000Y80512500D02*
X30600000Y80987500D01*
G75*
G02*
X30837500Y81225000I237500J0D01*
G01*
X31337500Y81225000D01*
G75*
G02*
X31575000Y80987500I0J-237500D01*
G01*
X31575000Y80512500D01*
G75*
G02*
X31337500Y80275000I-237500J0D01*
G01*
X30837500Y80275000D01*
G75*
G02*
X30600000Y80512500I0J237500D01*
G01*
G37*
%TD.AperFunction*%
%TD*%
%TO.P,R18,2*%
%TO.N,+6V*%
%TA.AperFunction,SMDPad,CuDef*%
G36*
G01*
X17825000Y25737500D02*
X17825000Y25262500D01*
G75*
G02*
X17587500Y25025000I-237500J0D01*
G01*
X17087500Y25025000D01*
G75*
G02*
X16850000Y25262500I0J237500D01*
G01*
X16850000Y25737500D01*
G75*
G02*
X17087500Y25975000I237500J0D01*
G01*
X17587500Y25975000D01*
G75*
G02*
X17825000Y25737500I0J-237500D01*
G01*
G37*
%TD.AperFunction*%
%TO.P,R18,1*%
%TO.N,Net-(R18-Pad1)*%
%TA.AperFunction,SMDPad,CuDef*%
G36*
G01*
X19650000Y25737500D02*
X19650000Y25262500D01*
G75*
G02*
X19412500Y25025000I-237500J0D01*
G01*
X18912500Y25025000D01*
G75*
G02*
X18675000Y25262500I0J237500D01*
G01*
X18675000Y25737500D01*
G75*
G02*
X18912500Y25975000I237500J0D01*
G01*
X19412500Y25975000D01*
G75*
G02*
X19650000Y25737500I0J-237500D01*
G01*
G37*
%TD.AperFunction*%
%TD*%
%TO.P,R20,2*%
%TO.N,Net-(R20-Pad2)*%
%TA.AperFunction,SMDPad,CuDef*%
G36*
G01*
X20925000Y89512500D02*
X20925000Y89987500D01*
G75*
G02*
X21162500Y90225000I237500J0D01*
G01*
X21662500Y90225000D01*
G75*
G02*
X21900000Y89987500I0J-237500D01*
G01*
X21900000Y89512500D01*
G75*
G02*
X21662500Y89275000I-237500J0D01*
G01*
X21162500Y89275000D01*
G75*
G02*
X20925000Y89512500I0J237500D01*
G01*
G37*
%TD.AperFunction*%
%TO.P,R20,1*%
%TO.N,Net-(C12-Pad2)*%
%TA.AperFunction,SMDPad,CuDef*%
G36*
G01*
X19100000Y89512500D02*
X19100000Y89987500D01*
G75*
G02*
X19337500Y90225000I237500J0D01*
G01*
X19837500Y90225000D01*
G75*
G02*
X20075000Y89987500I0J-237500D01*
G01*
X20075000Y89512500D01*
G75*
G02*
X19837500Y89275000I-237500J0D01*
G01*
X19337500Y89275000D01*
G75*
G02*
X19100000Y89512500I0J237500D01*
G01*
G37*
%TD.AperFunction*%
%TD*%
%TO.P,R21,2*%
%TO.N,Net-(J4-PadT)*%
%TA.AperFunction,SMDPad,CuDef*%
G36*
G01*
X20075000Y84737500D02*
X20075000Y84262500D01*
G75*
G02*
X19837500Y84025000I-237500J0D01*
G01*
X19337500Y84025000D01*
G75*
G02*
X19100000Y84262500I0J237500D01*
G01*
X19100000Y84737500D01*
G75*
G02*
X19337500Y84975000I237500J0D01*
G01*
X19837500Y84975000D01*
G75*
G02*
X20075000Y84737500I0J-237500D01*
G01*
G37*
%TD.AperFunction*%
%TO.P,R21,1*%
%TO.N,Net-(C12-Pad2)*%
%TA.AperFunction,SMDPad,CuDef*%
G36*
G01*
X21900000Y84737500D02*
X21900000Y84262500D01*
G75*
G02*
X21662500Y84025000I-237500J0D01*
G01*
X21162500Y84025000D01*
G75*
G02*
X20925000Y84262500I0J237500D01*
G01*
X20925000Y84737500D01*
G75*
G02*
X21162500Y84975000I237500J0D01*
G01*
X21662500Y84975000D01*
G75*
G02*
X21900000Y84737500I0J-237500D01*
G01*
G37*
%TD.AperFunction*%
%TD*%
%TO.P,R22,2*%
%TO.N,-5V*%
%TA.AperFunction,SMDPad,CuDef*%
G36*
G01*
X20075000Y82737500D02*
X20075000Y82262500D01*
G75*
G02*
X19837500Y82025000I-237500J0D01*
G01*
X19337500Y82025000D01*
G75*
G02*
X19100000Y82262500I0J237500D01*
G01*
X19100000Y82737500D01*
G75*
G02*
X19337500Y82975000I237500J0D01*
G01*
X19837500Y82975000D01*
G75*
G02*
X20075000Y82737500I0J-237500D01*
G01*
G37*
%TD.AperFunction*%
%TO.P,R22,1*%
%TO.N,Net-(C12-Pad2)*%
%TA.AperFunction,SMDPad,CuDef*%
G36*
G01*
X21900000Y82737500D02*
X21900000Y82262500D01*
G75*
G02*
X21662500Y82025000I-237500J0D01*
G01*
X21162500Y82025000D01*
G75*
G02*
X20925000Y82262500I0J237500D01*
G01*
X20925000Y82737500D01*
G75*
G02*
X21162500Y82975000I237500J0D01*
G01*
X21662500Y82975000D01*
G75*
G02*
X21900000Y82737500I0J-237500D01*
G01*
G37*
%TD.AperFunction*%
%TD*%
%TO.P,R23,2*%
%TO.N,GND*%
%TA.AperFunction,SMDPad,CuDef*%
G36*
G01*
X17825000Y23987500D02*
X17825000Y23512500D01*
G75*
G02*
X17587500Y23275000I-237500J0D01*
G01*
X17087500Y23275000D01*
G75*
G02*
X16850000Y23512500I0J237500D01*
G01*
X16850000Y23987500D01*
G75*
G02*
X17087500Y24225000I237500J0D01*
G01*
X17587500Y24225000D01*
G75*
G02*
X17825000Y23987500I0J-237500D01*
G01*
G37*
%TD.AperFunction*%
%TO.P,R23,1*%
%TO.N,Net-(C4-Pad2)*%
%TA.AperFunction,SMDPad,CuDef*%
G36*
G01*
X19650000Y23987500D02*
X19650000Y23512500D01*
G75*
G02*
X19412500Y23275000I-237500J0D01*
G01*
X18912500Y23275000D01*
G75*
G02*
X18675000Y23512500I0J237500D01*
G01*
X18675000Y23987500D01*
G75*
G02*
X18912500Y24225000I237500J0D01*
G01*
X19412500Y24225000D01*
G75*
G02*
X19650000Y23987500I0J-237500D01*
G01*
G37*
%TD.AperFunction*%
%TD*%
%TO.P,R24,2*%
%TO.N,Net-(C12-Pad2)*%
%TA.AperFunction,SMDPad,CuDef*%
G36*
G01*
X20075000Y86487500D02*
X20075000Y86012500D01*
G75*
G02*
X19837500Y85775000I-237500J0D01*
G01*
X19337500Y85775000D01*
G75*
G02*
X19100000Y86012500I0J237500D01*
G01*
X19100000Y86487500D01*
G75*
G02*
X19337500Y86725000I237500J0D01*
G01*
X19837500Y86725000D01*
G75*
G02*
X20075000Y86487500I0J-237500D01*
G01*
G37*
%TD.AperFunction*%
%TO.P,R24,1*%
%TO.N,decayPin*%
%TA.AperFunction,SMDPad,CuDef*%
G36*
G01*
X21900000Y86487500D02*
X21900000Y86012500D01*
G75*
G02*
X21662500Y85775000I-237500J0D01*
G01*
X21162500Y85775000D01*
G75*
G02*
X20925000Y86012500I0J237500D01*
G01*
X20925000Y86487500D01*
G75*
G02*
X21162500Y86725000I237500J0D01*
G01*
X21662500Y86725000D01*
G75*
G02*
X21900000Y86487500I0J-237500D01*
G01*
G37*
%TD.AperFunction*%
%TD*%
%TO.P,R25,2*%
%TO.N,Net-(C3-Pad1)*%
%TA.AperFunction,SMDPad,CuDef*%
G36*
G01*
X30175000Y33012500D02*
X30175000Y33487500D01*
G75*
G02*
X30412500Y33725000I237500J0D01*
G01*
X30912500Y33725000D01*
G75*
G02*
X31150000Y33487500I0J-237500D01*
G01*
X31150000Y33012500D01*
G75*
G02*
X30912500Y32775000I-237500J0D01*
G01*
X30412500Y32775000D01*
G75*
G02*
X30175000Y33012500I0J237500D01*
G01*
G37*
%TD.AperFunction*%
%TO.P,R25,1*%
%TO.N,Net-(R25-Pad1)*%
%TA.AperFunction,SMDPad,CuDef*%
G36*
G01*
X28350000Y33012500D02*
X28350000Y33487500D01*
G75*
G02*
X28587500Y33725000I237500J0D01*
G01*
X29087500Y33725000D01*
G75*
G02*
X29325000Y33487500I0J-237500D01*
G01*
X29325000Y33012500D01*
G75*
G02*
X29087500Y32775000I-237500J0D01*
G01*
X28587500Y32775000D01*
G75*
G02*
X28350000Y33012500I0J237500D01*
G01*
G37*
%TD.AperFunction*%
%TD*%
%TO.P,R28,2*%
%TO.N,Net-(Q5-PadG)*%
%TA.AperFunction,SMDPad,CuDef*%
G36*
G01*
X21675000Y41762500D02*
X21675000Y42237500D01*
G75*
G02*
X21912500Y42475000I237500J0D01*
G01*
X22412500Y42475000D01*
G75*
G02*
X22650000Y42237500I0J-237500D01*
G01*
X22650000Y41762500D01*
G75*
G02*
X22412500Y41525000I-237500J0D01*
G01*
X21912500Y41525000D01*
G75*
G02*
X21675000Y41762500I0J237500D01*
G01*
G37*
%TD.AperFunction*%
%TO.P,R28,1*%
%TO.N,-12V*%
%TA.AperFunction,SMDPad,CuDef*%
G36*
G01*
X19850000Y41762500D02*
X19850000Y42237500D01*
G75*
G02*
X20087500Y42475000I237500J0D01*
G01*
X20587500Y42475000D01*
G75*
G02*
X20825000Y42237500I0J-237500D01*
G01*
X20825000Y41762500D01*
G75*
G02*
X20587500Y41525000I-237500J0D01*
G01*
X20087500Y41525000D01*
G75*
G02*
X19850000Y41762500I0J237500D01*
G01*
G37*
%TD.AperFunction*%
%TD*%
%TO.P,R29,2*%
%TO.N,Net-(R29-Pad2)*%
%TA.AperFunction,SMDPad,CuDef*%
G36*
G01*
X35512500Y56325000D02*
X35987500Y56325000D01*
G75*
G02*
X36225000Y56087500I0J-237500D01*
G01*
X36225000Y55587500D01*
G75*
G02*
X35987500Y55350000I-237500J0D01*
G01*
X35512500Y55350000D01*
G75*
G02*
X35275000Y55587500I0J237500D01*
G01*
X35275000Y56087500D01*
G75*
G02*
X35512500Y56325000I237500J0D01*
G01*
G37*
%TD.AperFunction*%
%TO.P,R29,1*%
%TO.N,Iexpo*%
%TA.AperFunction,SMDPad,CuDef*%
G36*
G01*
X35512500Y58150000D02*
X35987500Y58150000D01*
G75*
G02*
X36225000Y57912500I0J-237500D01*
G01*
X36225000Y57412500D01*
G75*
G02*
X35987500Y57175000I-237500J0D01*
G01*
X35512500Y57175000D01*
G75*
G02*
X35275000Y57412500I0J237500D01*
G01*
X35275000Y57912500D01*
G75*
G02*
X35512500Y58150000I237500J0D01*
G01*
G37*
%TD.AperFunction*%
%TD*%
%TO.P,R31,2*%
%TO.N,+6V*%
%TA.AperFunction,SMDPad,CuDef*%
G36*
G01*
X29237500Y28675000D02*
X28762500Y28675000D01*
G75*
G02*
X28525000Y28912500I0J237500D01*
G01*
X28525000Y29412500D01*
G75*
G02*
X28762500Y29650000I237500J0D01*
G01*
X29237500Y29650000D01*
G75*
G02*
X29475000Y29412500I0J-237500D01*
G01*
X29475000Y28912500D01*
G75*
G02*
X29237500Y28675000I-237500J0D01*
G01*
G37*
%TD.AperFunction*%
%TO.P,R31,1*%
%TO.N,Net-(R31-Pad1)*%
%TA.AperFunction,SMDPad,CuDef*%
G36*
G01*
X29237500Y26850000D02*
X28762500Y26850000D01*
G75*
G02*
X28525000Y27087500I0J237500D01*
G01*
X28525000Y27587500D01*
G75*
G02*
X28762500Y27825000I237500J0D01*
G01*
X29237500Y27825000D01*
G75*
G02*
X29475000Y27587500I0J-237500D01*
G01*
X29475000Y27087500D01*
G75*
G02*
X29237500Y26850000I-237500J0D01*
G01*
G37*
%TD.AperFunction*%
%TD*%
%TO.P,R32,2*%
%TO.N,-12V*%
%TA.AperFunction,SMDPad,CuDef*%
G36*
G01*
X20825000Y43987500D02*
X20825000Y43512500D01*
G75*
G02*
X20587500Y43275000I-237500J0D01*
G01*
X20087500Y43275000D01*
G75*
G02*
X19850000Y43512500I0J237500D01*
G01*
X19850000Y43987500D01*
G75*
G02*
X20087500Y44225000I237500J0D01*
G01*
X20587500Y44225000D01*
G75*
G02*
X20825000Y43987500I0J-237500D01*
G01*
G37*
%TD.AperFunction*%
%TO.P,R32,1*%
%TO.N,triangle*%
%TA.AperFunction,SMDPad,CuDef*%
G36*
G01*
X22650000Y43987500D02*
X22650000Y43512500D01*
G75*
G02*
X22412500Y43275000I-237500J0D01*
G01*
X21912500Y43275000D01*
G75*
G02*
X21675000Y43512500I0J237500D01*
G01*
X21675000Y43987500D01*
G75*
G02*
X21912500Y44225000I237500J0D01*
G01*
X22412500Y44225000D01*
G75*
G02*
X22650000Y43987500I0J-237500D01*
G01*
G37*
%TD.AperFunction*%
%TD*%
%TO.P,R34,2*%
%TO.N,Net-(R34-Pad2)*%
%TA.AperFunction,SMDPad,CuDef*%
G36*
G01*
X17487500Y57175000D02*
X17012500Y57175000D01*
G75*
G02*
X16775000Y57412500I0J237500D01*
G01*
X16775000Y57912500D01*
G75*
G02*
X17012500Y58150000I237500J0D01*
G01*
X17487500Y58150000D01*
G75*
G02*
X17725000Y57912500I0J-237500D01*
G01*
X17725000Y57412500D01*
G75*
G02*
X17487500Y57175000I-237500J0D01*
G01*
G37*
%TD.AperFunction*%
%TO.P,R34,1*%
%TO.N,Net-(R34-Pad1)*%
%TA.AperFunction,SMDPad,CuDef*%
G36*
G01*
X17487500Y55350000D02*
X17012500Y55350000D01*
G75*
G02*
X16775000Y55587500I0J237500D01*
G01*
X16775000Y56087500D01*
G75*
G02*
X17012500Y56325000I237500J0D01*
G01*
X17487500Y56325000D01*
G75*
G02*
X17725000Y56087500I0J-237500D01*
G01*
X17725000Y55587500D01*
G75*
G02*
X17487500Y55350000I-237500J0D01*
G01*
G37*
%TD.AperFunction*%
%TD*%
%TO.P,R35,2*%
%TO.N,GND*%
%TA.AperFunction,SMDPad,CuDef*%
G36*
G01*
X37737500Y57175000D02*
X37262500Y57175000D01*
G75*
G02*
X37025000Y57412500I0J237500D01*
G01*
X37025000Y57912500D01*
G75*
G02*
X37262500Y58150000I237500J0D01*
G01*
X37737500Y58150000D01*
G75*
G02*
X37975000Y57912500I0J-237500D01*
G01*
X37975000Y57412500D01*
G75*
G02*
X37737500Y57175000I-237500J0D01*
G01*
G37*
%TD.AperFunction*%
%TO.P,R35,1*%
%TO.N,Net-(R35-Pad1)*%
%TA.AperFunction,SMDPad,CuDef*%
G36*
G01*
X37737500Y55350000D02*
X37262500Y55350000D01*
G75*
G02*
X37025000Y55587500I0J237500D01*
G01*
X37025000Y56087500D01*
G75*
G02*
X37262500Y56325000I237500J0D01*
G01*
X37737500Y56325000D01*
G75*
G02*
X37975000Y56087500I0J-237500D01*
G01*
X37975000Y55587500D01*
G75*
G02*
X37737500Y55350000I-237500J0D01*
G01*
G37*
%TD.AperFunction*%
%TD*%
%TO.P,R36,2*%
%TO.N,Net-(R36-Pad2)*%
%TA.AperFunction,SMDPad,CuDef*%
G36*
G01*
X11075000Y66737500D02*
X11075000Y66262500D01*
G75*
G02*
X10837500Y66025000I-237500J0D01*
G01*
X10337500Y66025000D01*
G75*
G02*
X10100000Y66262500I0J237500D01*
G01*
X10100000Y66737500D01*
G75*
G02*
X10337500Y66975000I237500J0D01*
G01*
X10837500Y66975000D01*
G75*
G02*
X11075000Y66737500I0J-237500D01*
G01*
G37*
%TD.AperFunction*%
%TO.P,R36,1*%
%TO.N,Net-(R36-Pad1)*%
%TA.AperFunction,SMDPad,CuDef*%
G36*
G01*
X12900000Y66737500D02*
X12900000Y66262500D01*
G75*
G02*
X12662500Y66025000I-237500J0D01*
G01*
X12162500Y66025000D01*
G75*
G02*
X11925000Y66262500I0J237500D01*
G01*
X11925000Y66737500D01*
G75*
G02*
X12162500Y66975000I237500J0D01*
G01*
X12662500Y66975000D01*
G75*
G02*
X12900000Y66737500I0J-237500D01*
G01*
G37*
%TD.AperFunction*%
%TD*%
%TO.P,R37,2*%
%TO.N,Net-(R37-Pad2)*%
%TA.AperFunction,SMDPad,CuDef*%
G36*
G01*
X11075000Y61487500D02*
X11075000Y61012500D01*
G75*
G02*
X10837500Y60775000I-237500J0D01*
G01*
X10337500Y60775000D01*
G75*
G02*
X10100000Y61012500I0J237500D01*
G01*
X10100000Y61487500D01*
G75*
G02*
X10337500Y61725000I237500J0D01*
G01*
X10837500Y61725000D01*
G75*
G02*
X11075000Y61487500I0J-237500D01*
G01*
G37*
%TD.AperFunction*%
%TO.P,R37,1*%
%TO.N,Net-(R36-Pad1)*%
%TA.AperFunction,SMDPad,CuDef*%
G36*
G01*
X12900000Y61487500D02*
X12900000Y61012500D01*
G75*
G02*
X12662500Y60775000I-237500J0D01*
G01*
X12162500Y60775000D01*
G75*
G02*
X11925000Y61012500I0J237500D01*
G01*
X11925000Y61487500D01*
G75*
G02*
X12162500Y61725000I237500J0D01*
G01*
X12662500Y61725000D01*
G75*
G02*
X12900000Y61487500I0J-237500D01*
G01*
G37*
%TD.AperFunction*%
%TD*%
%TO.P,R38,2*%
%TO.N,Net-(J6-PadT)*%
%TA.AperFunction,SMDPad,CuDef*%
G36*
G01*
X11075000Y64987500D02*
X11075000Y64512500D01*
G75*
G02*
X10837500Y64275000I-237500J0D01*
G01*
X10337500Y64275000D01*
G75*
G02*
X10100000Y64512500I0J237500D01*
G01*
X10100000Y64987500D01*
G75*
G02*
X10337500Y65225000I237500J0D01*
G01*
X10837500Y65225000D01*
G75*
G02*
X11075000Y64987500I0J-237500D01*
G01*
G37*
%TD.AperFunction*%
%TO.P,R38,1*%
%TO.N,Net-(R36-Pad1)*%
%TA.AperFunction,SMDPad,CuDef*%
G36*
G01*
X12900000Y64987500D02*
X12900000Y64512500D01*
G75*
G02*
X12662500Y64275000I-237500J0D01*
G01*
X12162500Y64275000D01*
G75*
G02*
X11925000Y64512500I0J237500D01*
G01*
X11925000Y64987500D01*
G75*
G02*
X12162500Y65225000I237500J0D01*
G01*
X12662500Y65225000D01*
G75*
G02*
X12900000Y64987500I0J-237500D01*
G01*
G37*
%TD.AperFunction*%
%TD*%
%TO.P,R39,2*%
%TO.N,Net-(J7-PadT)*%
%TA.AperFunction,SMDPad,CuDef*%
G36*
G01*
X11075000Y63237500D02*
X11075000Y62762500D01*
G75*
G02*
X10837500Y62525000I-237500J0D01*
G01*
X10337500Y62525000D01*
G75*
G02*
X10100000Y62762500I0J237500D01*
G01*
X10100000Y63237500D01*
G75*
G02*
X10337500Y63475000I237500J0D01*
G01*
X10837500Y63475000D01*
G75*
G02*
X11075000Y63237500I0J-237500D01*
G01*
G37*
%TD.AperFunction*%
%TO.P,R39,1*%
%TO.N,Net-(R36-Pad1)*%
%TA.AperFunction,SMDPad,CuDef*%
G36*
G01*
X12900000Y63237500D02*
X12900000Y62762500D01*
G75*
G02*
X12662500Y62525000I-237500J0D01*
G01*
X12162500Y62525000D01*
G75*
G02*
X11925000Y62762500I0J237500D01*
G01*
X11925000Y63237500D01*
G75*
G02*
X12162500Y63475000I237500J0D01*
G01*
X12662500Y63475000D01*
G75*
G02*
X12900000Y63237500I0J-237500D01*
G01*
G37*
%TD.AperFunction*%
%TD*%
%TO.P,R40,2*%
%TO.N,Net-(R36-Pad1)*%
%TA.AperFunction,SMDPad,CuDef*%
G36*
G01*
X16825000Y65487500D02*
X16825000Y65012500D01*
G75*
G02*
X16587500Y64775000I-237500J0D01*
G01*
X16087500Y64775000D01*
G75*
G02*
X15850000Y65012500I0J237500D01*
G01*
X15850000Y65487500D01*
G75*
G02*
X16087500Y65725000I237500J0D01*
G01*
X16587500Y65725000D01*
G75*
G02*
X16825000Y65487500I0J-237500D01*
G01*
G37*
%TD.AperFunction*%
%TO.P,R40,1*%
%TO.N,Net-(Q6-Pad2)*%
%TA.AperFunction,SMDPad,CuDef*%
G36*
G01*
X18650000Y65487500D02*
X18650000Y65012500D01*
G75*
G02*
X18412500Y64775000I-237500J0D01*
G01*
X17912500Y64775000D01*
G75*
G02*
X17675000Y65012500I0J237500D01*
G01*
X17675000Y65487500D01*
G75*
G02*
X17912500Y65725000I237500J0D01*
G01*
X18412500Y65725000D01*
G75*
G02*
X18650000Y65487500I0J-237500D01*
G01*
G37*
%TD.AperFunction*%
%TD*%
%TO.P,R41,2*%
%TO.N,-12V*%
%TA.AperFunction,SMDPad,CuDef*%
G36*
G01*
X16825000Y67737500D02*
X16825000Y67262500D01*
G75*
G02*
X16587500Y67025000I-237500J0D01*
G01*
X16087500Y67025000D01*
G75*
G02*
X15850000Y67262500I0J237500D01*
G01*
X15850000Y67737500D01*
G75*
G02*
X16087500Y67975000I237500J0D01*
G01*
X16587500Y67975000D01*
G75*
G02*
X16825000Y67737500I0J-237500D01*
G01*
G37*
%TD.AperFunction*%
%TO.P,R41,1*%
%TO.N,Net-(Q6-Pad1)*%
%TA.AperFunction,SMDPad,CuDef*%
G36*
G01*
X18650000Y67737500D02*
X18650000Y67262500D01*
G75*
G02*
X18412500Y67025000I-237500J0D01*
G01*
X17912500Y67025000D01*
G75*
G02*
X17675000Y67262500I0J237500D01*
G01*
X17675000Y67737500D01*
G75*
G02*
X17912500Y67975000I237500J0D01*
G01*
X18412500Y67975000D01*
G75*
G02*
X18650000Y67737500I0J-237500D01*
G01*
G37*
%TD.AperFunction*%
%TD*%
%TO.P,R42,2*%
%TO.N,sineDrum*%
%TA.AperFunction,SMDPad,CuDef*%
G36*
G01*
X17825000Y20487500D02*
X17825000Y20012500D01*
G75*
G02*
X17587500Y19775000I-237500J0D01*
G01*
X17087500Y19775000D01*
G75*
G02*
X16850000Y20012500I0J237500D01*
G01*
X16850000Y20487500D01*
G75*
G02*
X17087500Y20725000I237500J0D01*
G01*
X17587500Y20725000D01*
G75*
G02*
X17825000Y20487500I0J-237500D01*
G01*
G37*
%TD.AperFunction*%
%TO.P,R42,1*%
%TO.N,Net-(C8-Pad2)*%
%TA.AperFunction,SMDPad,CuDef*%
G36*
G01*
X19650000Y20487500D02*
X19650000Y20012500D01*
G75*
G02*
X19412500Y19775000I-237500J0D01*
G01*
X18912500Y19775000D01*
G75*
G02*
X18675000Y20012500I0J237500D01*
G01*
X18675000Y20487500D01*
G75*
G02*
X18912500Y20725000I237500J0D01*
G01*
X19412500Y20725000D01*
G75*
G02*
X19650000Y20487500I0J-237500D01*
G01*
G37*
%TD.AperFunction*%
%TD*%
%TO.P,R43,2*%
%TO.N,noiseDrum*%
%TA.AperFunction,SMDPad,CuDef*%
G36*
G01*
X17825000Y18737500D02*
X17825000Y18262500D01*
G75*
G02*
X17587500Y18025000I-237500J0D01*
G01*
X17087500Y18025000D01*
G75*
G02*
X16850000Y18262500I0J237500D01*
G01*
X16850000Y18737500D01*
G75*
G02*
X17087500Y18975000I237500J0D01*
G01*
X17587500Y18975000D01*
G75*
G02*
X17825000Y18737500I0J-237500D01*
G01*
G37*
%TD.AperFunction*%
%TO.P,R43,1*%
%TO.N,Net-(C8-Pad2)*%
%TA.AperFunction,SMDPad,CuDef*%
G36*
G01*
X19650000Y18737500D02*
X19650000Y18262500D01*
G75*
G02*
X19412500Y18025000I-237500J0D01*
G01*
X18912500Y18025000D01*
G75*
G02*
X18675000Y18262500I0J237500D01*
G01*
X18675000Y18737500D01*
G75*
G02*
X18912500Y18975000I237500J0D01*
G01*
X19412500Y18975000D01*
G75*
G02*
X19650000Y18737500I0J-237500D01*
G01*
G37*
%TD.AperFunction*%
%TD*%
%TO.P,R44,2*%
%TO.N,triangle*%
%TA.AperFunction,SMDPad,CuDef*%
G36*
G01*
X11000000Y41762500D02*
X11000000Y42237500D01*
G75*
G02*
X11237500Y42475000I237500J0D01*
G01*
X11737500Y42475000D01*
G75*
G02*
X11975000Y42237500I0J-237500D01*
G01*
X11975000Y41762500D01*
G75*
G02*
X11737500Y41525000I-237500J0D01*
G01*
X11237500Y41525000D01*
G75*
G02*
X11000000Y41762500I0J237500D01*
G01*
G37*
%TD.AperFunction*%
%TO.P,R44,1*%
%TO.N,Net-(C23-Pad2)*%
%TA.AperFunction,SMDPad,CuDef*%
G36*
G01*
X9175000Y41762500D02*
X9175000Y42237500D01*
G75*
G02*
X9412500Y42475000I237500J0D01*
G01*
X9912500Y42475000D01*
G75*
G02*
X10150000Y42237500I0J-237500D01*
G01*
X10150000Y41762500D01*
G75*
G02*
X9912500Y41525000I-237500J0D01*
G01*
X9412500Y41525000D01*
G75*
G02*
X9175000Y41762500I0J237500D01*
G01*
G37*
%TD.AperFunction*%
%TD*%
%TO.P,R46,2*%
%TO.N,Net-(C8-Pad2)*%
%TA.AperFunction,SMDPad,CuDef*%
G36*
G01*
X23825000Y20987500D02*
X23825000Y20512500D01*
G75*
G02*
X23587500Y20275000I-237500J0D01*
G01*
X23087500Y20275000D01*
G75*
G02*
X22850000Y20512500I0J237500D01*
G01*
X22850000Y20987500D01*
G75*
G02*
X23087500Y21225000I237500J0D01*
G01*
X23587500Y21225000D01*
G75*
G02*
X23825000Y20987500I0J-237500D01*
G01*
G37*
%TD.AperFunction*%
%TO.P,R46,1*%
%TO.N,Net-(C8-Pad1)*%
%TA.AperFunction,SMDPad,CuDef*%
G36*
G01*
X25650000Y20987500D02*
X25650000Y20512500D01*
G75*
G02*
X25412500Y20275000I-237500J0D01*
G01*
X24912500Y20275000D01*
G75*
G02*
X24675000Y20512500I0J237500D01*
G01*
X24675000Y20987500D01*
G75*
G02*
X24912500Y21225000I237500J0D01*
G01*
X25412500Y21225000D01*
G75*
G02*
X25650000Y20987500I0J-237500D01*
G01*
G37*
%TD.AperFunction*%
%TD*%
%TO.P,R47,2*%
%TO.N,Net-(C23-Pad2)*%
%TA.AperFunction,SMDPad,CuDef*%
G36*
G01*
X9175000Y38362500D02*
X9175000Y38837500D01*
G75*
G02*
X9412500Y39075000I237500J0D01*
G01*
X9912500Y39075000D01*
G75*
G02*
X10150000Y38837500I0J-237500D01*
G01*
X10150000Y38362500D01*
G75*
G02*
X9912500Y38125000I-237500J0D01*
G01*
X9412500Y38125000D01*
G75*
G02*
X9175000Y38362500I0J237500D01*
G01*
G37*
%TD.AperFunction*%
%TO.P,R47,1*%
%TO.N,sine*%
%TA.AperFunction,SMDPad,CuDef*%
G36*
G01*
X7350000Y38362500D02*
X7350000Y38837500D01*
G75*
G02*
X7587500Y39075000I237500J0D01*
G01*
X8087500Y39075000D01*
G75*
G02*
X8325000Y38837500I0J-237500D01*
G01*
X8325000Y38362500D01*
G75*
G02*
X8087500Y38125000I-237500J0D01*
G01*
X7587500Y38125000D01*
G75*
G02*
X7350000Y38362500I0J237500D01*
G01*
G37*
%TD.AperFunction*%
%TD*%
D11*
%TO.P,D6,2*%
%TO.N,Net-(D6-Pad2)*%
X5500000Y42059999D03*
D21*
%TO.P,D6,1*%
%TO.N,Net-(C23-Pad2)*%
X5500000Y34439999D03*
%TD*%
D11*
%TO.P,D7,2*%
%TO.N,Net-(D6-Pad2)*%
X2750000Y42060000D03*
D21*
%TO.P,D7,1*%
%TO.N,sine*%
X2750000Y34440000D03*
%TD*%
D11*
%TO.P,D1,2*%
%TO.N,-5V*%
X3500000Y81190000D03*
D21*
%TO.P,D1,1*%
%TO.N,GND*%
X3500000Y88810000D03*
%TD*%
D22*
%TO.P,J3,1*%
%TO.N,pulsePin*%
X43750000Y93000000D03*
D23*
%TO.P,J3,2*%
%TO.N,+5V*%
X41210000Y93000000D03*
%TO.P,J3,3*%
%TO.N,trigPin*%
X43750000Y90460000D03*
%TO.P,J3,4*%
%TO.N,pwmPin*%
X41210000Y90460000D03*
%TO.P,J3,5*%
%TO.N,RST*%
X43750000Y87920000D03*
%TO.P,J3,6*%
%TO.N,GND*%
X41210000Y87920000D03*
%TD*%
D24*
%TO.P,Q4,B*%
%TO.N,Net-(C9-Pad1)*%
X43000000Y85800000D03*
%TO.P,Q4,E*%
%TO.N,env2*%
X43000000Y83900000D03*
%TO.P,Q4,C*%
%TO.N,+12V*%
X45500000Y84850000D03*
%TD*%
%TO.P,R54,2*%
%TO.N,env1*%
%TA.AperFunction,SMDPad,CuDef*%
G36*
G01*
X43800000Y31456250D02*
X43800000Y30543750D01*
G75*
G02*
X43556250Y30300000I-243750J0D01*
G01*
X43068750Y30300000D01*
G75*
G02*
X42825000Y30543750I0J243750D01*
G01*
X42825000Y31456250D01*
G75*
G02*
X43068750Y31700000I243750J0D01*
G01*
X43556250Y31700000D01*
G75*
G02*
X43800000Y31456250I0J-243750D01*
G01*
G37*
%TD.AperFunction*%
%TO.P,R54,1*%
%TO.N,Net-(J10-PadT)*%
%TA.AperFunction,SMDPad,CuDef*%
G36*
G01*
X45675000Y31456250D02*
X45675000Y30543750D01*
G75*
G02*
X45431250Y30300000I-243750J0D01*
G01*
X44943750Y30300000D01*
G75*
G02*
X44700000Y30543750I0J243750D01*
G01*
X44700000Y31456250D01*
G75*
G02*
X44943750Y31700000I243750J0D01*
G01*
X45431250Y31700000D01*
G75*
G02*
X45675000Y31456250I0J-243750D01*
G01*
G37*
%TD.AperFunction*%
%TD*%
D12*
%TO.P,J10,S*%
%TO.N,GND*%
X30250000Y1879500D03*
D13*
%TO.P,J10,TN*%
%TO.N,Net-(J10-PadTN)*%
X30250000Y4120000D03*
D14*
%TO.P,J10,T*%
%TO.N,Net-(J10-PadT)*%
X30250000Y12420000D03*
%TD*%
%TO.P,R53,2*%
%TO.N,Net-(D9-Pad1)*%
%TA.AperFunction,SMDPad,CuDef*%
G36*
G01*
X39043750Y73300000D02*
X39956250Y73300000D01*
G75*
G02*
X40200000Y73056250I0J-243750D01*
G01*
X40200000Y72568750D01*
G75*
G02*
X39956250Y72325000I-243750J0D01*
G01*
X39043750Y72325000D01*
G75*
G02*
X38800000Y72568750I0J243750D01*
G01*
X38800000Y73056250D01*
G75*
G02*
X39043750Y73300000I243750J0D01*
G01*
G37*
%TD.AperFunction*%
%TO.P,R53,1*%
%TO.N,Net-(C1-Pad1)*%
%TA.AperFunction,SMDPad,CuDef*%
G36*
G01*
X39043750Y75175000D02*
X39956250Y75175000D01*
G75*
G02*
X40200000Y74931250I0J-243750D01*
G01*
X40200000Y74443750D01*
G75*
G02*
X39956250Y74200000I-243750J0D01*
G01*
X39043750Y74200000D01*
G75*
G02*
X38800000Y74443750I0J243750D01*
G01*
X38800000Y74931250D01*
G75*
G02*
X39043750Y75175000I243750J0D01*
G01*
G37*
%TD.AperFunction*%
%TD*%
D24*
%TO.P,Q9,B*%
%TO.N,Net-(Q9-PadB)*%
X41500000Y78300000D03*
%TO.P,Q9,E*%
%TO.N,GND*%
X41500000Y80200000D03*
%TO.P,Q9,C*%
%TO.N,Net-(Q9-PadC)*%
X39000000Y79250000D03*
%TD*%
%TO.P,Q8,B*%
%TO.N,Net-(C1-Pad1)*%
X43000000Y74450000D03*
%TO.P,Q8,E*%
%TO.N,env3*%
X43000000Y72550000D03*
%TO.P,Q8,C*%
%TO.N,+12V*%
X45500000Y73500000D03*
%TD*%
%TO.P,R48,2*%
%TO.N,sine*%
%TA.AperFunction,SMDPad,CuDef*%
G36*
G01*
X3206250Y18200000D02*
X2293750Y18200000D01*
G75*
G02*
X2050000Y18443750I0J243750D01*
G01*
X2050000Y18931250D01*
G75*
G02*
X2293750Y19175000I243750J0D01*
G01*
X3206250Y19175000D01*
G75*
G02*
X3450000Y18931250I0J-243750D01*
G01*
X3450000Y18443750D01*
G75*
G02*
X3206250Y18200000I-243750J0D01*
G01*
G37*
%TD.AperFunction*%
%TO.P,R48,1*%
%TO.N,Net-(J8-PadT)*%
%TA.AperFunction,SMDPad,CuDef*%
G36*
G01*
X3206250Y16325000D02*
X2293750Y16325000D01*
G75*
G02*
X2050000Y16568750I0J243750D01*
G01*
X2050000Y17056250D01*
G75*
G02*
X2293750Y17300000I243750J0D01*
G01*
X3206250Y17300000D01*
G75*
G02*
X3450000Y17056250I0J-243750D01*
G01*
X3450000Y16568750D01*
G75*
G02*
X3206250Y16325000I-243750J0D01*
G01*
G37*
%TD.AperFunction*%
%TD*%
D15*
%TO.P,RV3,*%
%TO.N,*%
X32200000Y67498000D03*
X41800000Y67498000D03*
D25*
%TO.P,RV3,1*%
%TO.N,GND*%
X34500000Y59998000D03*
D16*
%TO.P,RV3,3*%
%TO.N,env2*%
X39500000Y59998000D03*
D25*
%TO.P,RV3,2*%
%TO.N,Net-(R36-Pad2)*%
X37000000Y59998000D03*
%TD*%
D15*
%TO.P,RV1,*%
%TO.N,*%
X28200000Y96498000D03*
X37800000Y96498000D03*
D16*
%TO.P,RV1,1*%
%TO.N,GND*%
X30500000Y88998000D03*
%TO.P,RV1,3*%
%TO.N,+5V*%
X35500000Y88998000D03*
%TO.P,RV1,2*%
%TO.N,Net-(R20-Pad2)*%
X33000000Y88998000D03*
%TD*%
D24*
%TO.P,Q3,B*%
%TO.N,Net-(Q3-PadB)*%
X33250000Y75300000D03*
%TO.P,Q3,E*%
%TO.N,GND*%
X33250000Y77200000D03*
%TO.P,Q3,C*%
%TO.N,Net-(Q3-PadC)*%
X30750000Y76250000D03*
%TD*%
%TO.P,U5,1*%
%TO.N,Net-(U5-Pad1)*%
%TA.AperFunction,SMDPad,CuDef*%
G36*
G01*
X11050000Y39705000D02*
X11050000Y40005000D01*
G75*
G02*
X11200000Y40155000I150000J0D01*
G01*
X12850000Y40155000D01*
G75*
G02*
X13000000Y40005000I0J-150000D01*
G01*
X13000000Y39705000D01*
G75*
G02*
X12850000Y39555000I-150000J0D01*
G01*
X11200000Y39555000D01*
G75*
G02*
X11050000Y39705000I0J150000D01*
G01*
G37*
%TD.AperFunction*%
%TO.P,U5,2*%
%TO.N,Net-(C23-Pad2)*%
%TA.AperFunction,SMDPad,CuDef*%
G36*
G01*
X11050000Y38435000D02*
X11050000Y38735000D01*
G75*
G02*
X11200000Y38885000I150000J0D01*
G01*
X12850000Y38885000D01*
G75*
G02*
X13000000Y38735000I0J-150000D01*
G01*
X13000000Y38435000D01*
G75*
G02*
X12850000Y38285000I-150000J0D01*
G01*
X11200000Y38285000D01*
G75*
G02*
X11050000Y38435000I0J150000D01*
G01*
G37*
%TD.AperFunction*%
%TO.P,U5,3*%
%TO.N,GND*%
%TA.AperFunction,SMDPad,CuDef*%
G36*
G01*
X11050000Y37165000D02*
X11050000Y37465000D01*
G75*
G02*
X11200000Y37615000I150000J0D01*
G01*
X12850000Y37615000D01*
G75*
G02*
X13000000Y37465000I0J-150000D01*
G01*
X13000000Y37165000D01*
G75*
G02*
X12850000Y37015000I-150000J0D01*
G01*
X11200000Y37015000D01*
G75*
G02*
X11050000Y37165000I0J150000D01*
G01*
G37*
%TD.AperFunction*%
%TO.P,U5,4*%
%TO.N,-12V*%
%TA.AperFunction,SMDPad,CuDef*%
G36*
G01*
X11050000Y35895000D02*
X11050000Y36195000D01*
G75*
G02*
X11200000Y36345000I150000J0D01*
G01*
X12850000Y36345000D01*
G75*
G02*
X13000000Y36195000I0J-150000D01*
G01*
X13000000Y35895000D01*
G75*
G02*
X12850000Y35745000I-150000J0D01*
G01*
X11200000Y35745000D01*
G75*
G02*
X11050000Y35895000I0J150000D01*
G01*
G37*
%TD.AperFunction*%
%TO.P,U5,5*%
%TO.N,Net-(U5-Pad5)*%
%TA.AperFunction,SMDPad,CuDef*%
G36*
G01*
X16000000Y35895000D02*
X16000000Y36195000D01*
G75*
G02*
X16150000Y36345000I150000J0D01*
G01*
X17800000Y36345000D01*
G75*
G02*
X17950000Y36195000I0J-150000D01*
G01*
X17950000Y35895000D01*
G75*
G02*
X17800000Y35745000I-150000J0D01*
G01*
X16150000Y35745000D01*
G75*
G02*
X16000000Y35895000I0J150000D01*
G01*
G37*
%TD.AperFunction*%
%TO.P,U5,6*%
%TO.N,sine*%
%TA.AperFunction,SMDPad,CuDef*%
G36*
G01*
X16000000Y37165000D02*
X16000000Y37465000D01*
G75*
G02*
X16150000Y37615000I150000J0D01*
G01*
X17800000Y37615000D01*
G75*
G02*
X17950000Y37465000I0J-150000D01*
G01*
X17950000Y37165000D01*
G75*
G02*
X17800000Y37015000I-150000J0D01*
G01*
X16150000Y37015000D01*
G75*
G02*
X16000000Y37165000I0J150000D01*
G01*
G37*
%TD.AperFunction*%
%TO.P,U5,7*%
%TO.N,+12V*%
%TA.AperFunction,SMDPad,CuDef*%
G36*
G01*
X16000000Y38435000D02*
X16000000Y38735000D01*
G75*
G02*
X16150000Y38885000I150000J0D01*
G01*
X17800000Y38885000D01*
G75*
G02*
X17950000Y38735000I0J-150000D01*
G01*
X17950000Y38435000D01*
G75*
G02*
X17800000Y38285000I-150000J0D01*
G01*
X16150000Y38285000D01*
G75*
G02*
X16000000Y38435000I0J150000D01*
G01*
G37*
%TD.AperFunction*%
%TO.P,U5,8*%
%TO.N,Net-(U5-Pad8)*%
%TA.AperFunction,SMDPad,CuDef*%
G36*
G01*
X16000000Y39705000D02*
X16000000Y40005000D01*
G75*
G02*
X16150000Y40155000I150000J0D01*
G01*
X17800000Y40155000D01*
G75*
G02*
X17950000Y40005000I0J-150000D01*
G01*
X17950000Y39705000D01*
G75*
G02*
X17800000Y39555000I-150000J0D01*
G01*
X16150000Y39555000D01*
G75*
G02*
X16000000Y39705000I0J150000D01*
G01*
G37*
%TD.AperFunction*%
%TD*%
%TO.P,Q2,B*%
%TO.N,Net-(Q2-PadB)*%
X3750001Y93700000D03*
%TO.P,Q2,E*%
%TO.N,Net-(Q2-PadE)*%
X3750001Y91800000D03*
%TO.P,Q2,C*%
%TO.N,+5V*%
X6250001Y92750000D03*
%TD*%
%TO.P,R26,2*%
%TO.N,Net-(R25-Pad1)*%
%TA.AperFunction,SMDPad,CuDef*%
G36*
G01*
X29300000Y31706250D02*
X29300000Y30793750D01*
G75*
G02*
X29056250Y30550000I-243750J0D01*
G01*
X28568750Y30550000D01*
G75*
G02*
X28325000Y30793750I0J243750D01*
G01*
X28325000Y31706250D01*
G75*
G02*
X28568750Y31950000I243750J0D01*
G01*
X29056250Y31950000D01*
G75*
G02*
X29300000Y31706250I0J-243750D01*
G01*
G37*
%TD.AperFunction*%
%TO.P,R26,1*%
%TO.N,+6V*%
%TA.AperFunction,SMDPad,CuDef*%
G36*
G01*
X31175000Y31706250D02*
X31175000Y30793750D01*
G75*
G02*
X30931250Y30550000I-243750J0D01*
G01*
X30443750Y30550000D01*
G75*
G02*
X30200000Y30793750I0J243750D01*
G01*
X30200000Y31706250D01*
G75*
G02*
X30443750Y31950000I243750J0D01*
G01*
X30931250Y31950000D01*
G75*
G02*
X31175000Y31706250I0J-243750D01*
G01*
G37*
%TD.AperFunction*%
%TD*%
%TO.P,R3,1*%
%TO.N,Net-(J2-PadT)*%
%TA.AperFunction,SMDPad,CuDef*%
G36*
G01*
X5706250Y16325000D02*
X4793750Y16325000D01*
G75*
G02*
X4550000Y16568750I0J243750D01*
G01*
X4550000Y17056250D01*
G75*
G02*
X4793750Y17300000I243750J0D01*
G01*
X5706250Y17300000D01*
G75*
G02*
X5950000Y17056250I0J-243750D01*
G01*
X5950000Y16568750D01*
G75*
G02*
X5706250Y16325000I-243750J0D01*
G01*
G37*
%TD.AperFunction*%
%TO.P,R3,2*%
%TO.N,Net-(Q2-PadE)*%
%TA.AperFunction,SMDPad,CuDef*%
G36*
G01*
X5706250Y18200000D02*
X4793750Y18200000D01*
G75*
G02*
X4550000Y18443750I0J243750D01*
G01*
X4550000Y18931250D01*
G75*
G02*
X4793750Y19175000I243750J0D01*
G01*
X5706250Y19175000D01*
G75*
G02*
X5950000Y18931250I0J-243750D01*
G01*
X5950000Y18443750D01*
G75*
G02*
X5706250Y18200000I-243750J0D01*
G01*
G37*
%TD.AperFunction*%
%TD*%
%TO.P,R49,2*%
%TO.N,Net-(C25-Pad1)*%
%TA.AperFunction,SMDPad,CuDef*%
G36*
G01*
X42200000Y14293750D02*
X42200000Y15206250D01*
G75*
G02*
X42443750Y15450000I243750J0D01*
G01*
X42931250Y15450000D01*
G75*
G02*
X43175000Y15206250I0J-243750D01*
G01*
X43175000Y14293750D01*
G75*
G02*
X42931250Y14050000I-243750J0D01*
G01*
X42443750Y14050000D01*
G75*
G02*
X42200000Y14293750I0J243750D01*
G01*
G37*
%TD.AperFunction*%
%TO.P,R49,1*%
%TO.N,Net-(J9-PadT)*%
%TA.AperFunction,SMDPad,CuDef*%
G36*
G01*
X40325000Y14293750D02*
X40325000Y15206250D01*
G75*
G02*
X40568750Y15450000I243750J0D01*
G01*
X41056250Y15450000D01*
G75*
G02*
X41300000Y15206250I0J-243750D01*
G01*
X41300000Y14293750D01*
G75*
G02*
X41056250Y14050000I-243750J0D01*
G01*
X40568750Y14050000D01*
G75*
G02*
X40325000Y14293750I0J243750D01*
G01*
G37*
%TD.AperFunction*%
%TD*%
%TO.P,U8,1*%
%TO.N,Net-(U8-Pad1)*%
%TA.AperFunction,SMDPad,CuDef*%
G36*
G01*
X20550000Y18755000D02*
X20550000Y19055000D01*
G75*
G02*
X20700000Y19205000I150000J0D01*
G01*
X22350000Y19205000D01*
G75*
G02*
X22500000Y19055000I0J-150000D01*
G01*
X22500000Y18755000D01*
G75*
G02*
X22350000Y18605000I-150000J0D01*
G01*
X20700000Y18605000D01*
G75*
G02*
X20550000Y18755000I0J150000D01*
G01*
G37*
%TD.AperFunction*%
%TO.P,U8,2*%
%TO.N,Net-(C8-Pad2)*%
%TA.AperFunction,SMDPad,CuDef*%
G36*
G01*
X20550000Y17485000D02*
X20550000Y17785000D01*
G75*
G02*
X20700000Y17935000I150000J0D01*
G01*
X22350000Y17935000D01*
G75*
G02*
X22500000Y17785000I0J-150000D01*
G01*
X22500000Y17485000D01*
G75*
G02*
X22350000Y17335000I-150000J0D01*
G01*
X20700000Y17335000D01*
G75*
G02*
X20550000Y17485000I0J150000D01*
G01*
G37*
%TD.AperFunction*%
%TO.P,U8,3*%
%TO.N,GND*%
%TA.AperFunction,SMDPad,CuDef*%
G36*
G01*
X20550000Y16215000D02*
X20550000Y16515000D01*
G75*
G02*
X20700000Y16665000I150000J0D01*
G01*
X22350000Y16665000D01*
G75*
G02*
X22500000Y16515000I0J-150000D01*
G01*
X22500000Y16215000D01*
G75*
G02*
X22350000Y16065000I-150000J0D01*
G01*
X20700000Y16065000D01*
G75*
G02*
X20550000Y16215000I0J150000D01*
G01*
G37*
%TD.AperFunction*%
%TO.P,U8,4*%
%TO.N,-12V*%
%TA.AperFunction,SMDPad,CuDef*%
G36*
G01*
X20550000Y14945000D02*
X20550000Y15245000D01*
G75*
G02*
X20700000Y15395000I150000J0D01*
G01*
X22350000Y15395000D01*
G75*
G02*
X22500000Y15245000I0J-150000D01*
G01*
X22500000Y14945000D01*
G75*
G02*
X22350000Y14795000I-150000J0D01*
G01*
X20700000Y14795000D01*
G75*
G02*
X20550000Y14945000I0J150000D01*
G01*
G37*
%TD.AperFunction*%
%TO.P,U8,5*%
%TO.N,Net-(U8-Pad5)*%
%TA.AperFunction,SMDPad,CuDef*%
G36*
G01*
X25500000Y14945000D02*
X25500000Y15245000D01*
G75*
G02*
X25650000Y15395000I150000J0D01*
G01*
X27300000Y15395000D01*
G75*
G02*
X27450000Y15245000I0J-150000D01*
G01*
X27450000Y14945000D01*
G75*
G02*
X27300000Y14795000I-150000J0D01*
G01*
X25650000Y14795000D01*
G75*
G02*
X25500000Y14945000I0J150000D01*
G01*
G37*
%TD.AperFunction*%
%TO.P,U8,6*%
%TO.N,Net-(C8-Pad1)*%
%TA.AperFunction,SMDPad,CuDef*%
G36*
G01*
X25500000Y16215000D02*
X25500000Y16515000D01*
G75*
G02*
X25650000Y16665000I150000J0D01*
G01*
X27300000Y16665000D01*
G75*
G02*
X27450000Y16515000I0J-150000D01*
G01*
X27450000Y16215000D01*
G75*
G02*
X27300000Y16065000I-150000J0D01*
G01*
X25650000Y16065000D01*
G75*
G02*
X25500000Y16215000I0J150000D01*
G01*
G37*
%TD.AperFunction*%
%TO.P,U8,7*%
%TO.N,+12V*%
%TA.AperFunction,SMDPad,CuDef*%
G36*
G01*
X25500000Y17485000D02*
X25500000Y17785000D01*
G75*
G02*
X25650000Y17935000I150000J0D01*
G01*
X27300000Y17935000D01*
G75*
G02*
X27450000Y17785000I0J-150000D01*
G01*
X27450000Y17485000D01*
G75*
G02*
X27300000Y17335000I-150000J0D01*
G01*
X25650000Y17335000D01*
G75*
G02*
X25500000Y17485000I0J150000D01*
G01*
G37*
%TD.AperFunction*%
%TO.P,U8,8*%
%TO.N,Net-(U8-Pad8)*%
%TA.AperFunction,SMDPad,CuDef*%
G36*
G01*
X25500000Y18755000D02*
X25500000Y19055000D01*
G75*
G02*
X25650000Y19205000I150000J0D01*
G01*
X27300000Y19205000D01*
G75*
G02*
X27450000Y19055000I0J-150000D01*
G01*
X27450000Y18755000D01*
G75*
G02*
X27300000Y18605000I-150000J0D01*
G01*
X25650000Y18605000D01*
G75*
G02*
X25500000Y18755000I0J150000D01*
G01*
G37*
%TD.AperFunction*%
%TD*%
D11*
%TO.P,RV2,3*%
%TO.N,Net-(R34-Pad2)*%
X19960000Y57198600D03*
%TO.P,RV2,2*%
%TO.N,GND*%
X22500000Y59738600D03*
%TO.P,RV2,1*%
X25040000Y57198600D03*
%TD*%
D26*
%TO.P,U7,5*%
%TO.N,+5V*%
X41400000Y98050000D03*
%TO.P,U7,4*%
%TO.N,Net-(U7-Pad4)*%
X41400000Y99950000D03*
%TO.P,U7,3*%
%TO.N,+12V*%
X43600000Y99950000D03*
%TO.P,U7,2*%
%TO.N,GND*%
X43600000Y99000000D03*
%TO.P,U7,1*%
%TO.N,+12V*%
X43600000Y98050000D03*
%TD*%
%TO.P,U6,1*%
%TO.N,Net-(R16-Pad2)*%
%TA.AperFunction,SMDPad,CuDef*%
G36*
G01*
X20550000Y33045000D02*
X20550000Y33345000D01*
G75*
G02*
X20700000Y33495000I150000J0D01*
G01*
X22350000Y33495000D01*
G75*
G02*
X22500000Y33345000I0J-150000D01*
G01*
X22500000Y33045000D01*
G75*
G02*
X22350000Y32895000I-150000J0D01*
G01*
X20700000Y32895000D01*
G75*
G02*
X20550000Y33045000I0J150000D01*
G01*
G37*
%TD.AperFunction*%
%TO.P,U6,2*%
%TO.N,Net-(U6-Pad2)*%
%TA.AperFunction,SMDPad,CuDef*%
G36*
G01*
X20550000Y31775000D02*
X20550000Y32075000D01*
G75*
G02*
X20700000Y32225000I150000J0D01*
G01*
X22350000Y32225000D01*
G75*
G02*
X22500000Y32075000I0J-150000D01*
G01*
X22500000Y31775000D01*
G75*
G02*
X22350000Y31625000I-150000J0D01*
G01*
X20700000Y31625000D01*
G75*
G02*
X20550000Y31775000I0J150000D01*
G01*
G37*
%TD.AperFunction*%
%TO.P,U6,3*%
%TO.N,Net-(R10-Pad1)*%
%TA.AperFunction,SMDPad,CuDef*%
G36*
G01*
X20550000Y30505000D02*
X20550000Y30805000D01*
G75*
G02*
X20700000Y30955000I150000J0D01*
G01*
X22350000Y30955000D01*
G75*
G02*
X22500000Y30805000I0J-150000D01*
G01*
X22500000Y30505000D01*
G75*
G02*
X22350000Y30355000I-150000J0D01*
G01*
X20700000Y30355000D01*
G75*
G02*
X20550000Y30505000I0J150000D01*
G01*
G37*
%TD.AperFunction*%
%TO.P,U6,4*%
%TO.N,+6V*%
%TA.AperFunction,SMDPad,CuDef*%
G36*
G01*
X20550000Y29235000D02*
X20550000Y29535000D01*
G75*
G02*
X20700000Y29685000I150000J0D01*
G01*
X22350000Y29685000D01*
G75*
G02*
X22500000Y29535000I0J-150000D01*
G01*
X22500000Y29235000D01*
G75*
G02*
X22350000Y29085000I-150000J0D01*
G01*
X20700000Y29085000D01*
G75*
G02*
X20550000Y29235000I0J150000D01*
G01*
G37*
%TD.AperFunction*%
%TO.P,U6,5*%
%TO.N,Net-(R18-Pad1)*%
%TA.AperFunction,SMDPad,CuDef*%
G36*
G01*
X20550000Y27965000D02*
X20550000Y28265000D01*
G75*
G02*
X20700000Y28415000I150000J0D01*
G01*
X22350000Y28415000D01*
G75*
G02*
X22500000Y28265000I0J-150000D01*
G01*
X22500000Y27965000D01*
G75*
G02*
X22350000Y27815000I-150000J0D01*
G01*
X20700000Y27815000D01*
G75*
G02*
X20550000Y27965000I0J150000D01*
G01*
G37*
%TD.AperFunction*%
%TO.P,U6,6*%
%TO.N,GND*%
%TA.AperFunction,SMDPad,CuDef*%
G36*
G01*
X20550000Y26695000D02*
X20550000Y26995000D01*
G75*
G02*
X20700000Y27145000I150000J0D01*
G01*
X22350000Y27145000D01*
G75*
G02*
X22500000Y26995000I0J-150000D01*
G01*
X22500000Y26695000D01*
G75*
G02*
X22350000Y26545000I-150000J0D01*
G01*
X20700000Y26545000D01*
G75*
G02*
X20550000Y26695000I0J150000D01*
G01*
G37*
%TD.AperFunction*%
%TO.P,U6,7*%
%TO.N,Net-(R18-Pad1)*%
%TA.AperFunction,SMDPad,CuDef*%
G36*
G01*
X20550000Y25425000D02*
X20550000Y25725000D01*
G75*
G02*
X20700000Y25875000I150000J0D01*
G01*
X22350000Y25875000D01*
G75*
G02*
X22500000Y25725000I0J-150000D01*
G01*
X22500000Y25425000D01*
G75*
G02*
X22350000Y25275000I-150000J0D01*
G01*
X20700000Y25275000D01*
G75*
G02*
X20550000Y25425000I0J150000D01*
G01*
G37*
%TD.AperFunction*%
%TO.P,U6,8*%
%TO.N,Net-(C4-Pad2)*%
%TA.AperFunction,SMDPad,CuDef*%
G36*
G01*
X20550000Y24155000D02*
X20550000Y24455000D01*
G75*
G02*
X20700000Y24605000I150000J0D01*
G01*
X22350000Y24605000D01*
G75*
G02*
X22500000Y24455000I0J-150000D01*
G01*
X22500000Y24155000D01*
G75*
G02*
X22350000Y24005000I-150000J0D01*
G01*
X20700000Y24005000D01*
G75*
G02*
X20550000Y24155000I0J150000D01*
G01*
G37*
%TD.AperFunction*%
%TO.P,U6,9*%
%TO.N,Net-(C22-Pad2)*%
%TA.AperFunction,SMDPad,CuDef*%
G36*
G01*
X25500000Y24155000D02*
X25500000Y24455000D01*
G75*
G02*
X25650000Y24605000I150000J0D01*
G01*
X27300000Y24605000D01*
G75*
G02*
X27450000Y24455000I0J-150000D01*
G01*
X27450000Y24155000D01*
G75*
G02*
X27300000Y24005000I-150000J0D01*
G01*
X25650000Y24005000D01*
G75*
G02*
X25500000Y24155000I0J150000D01*
G01*
G37*
%TD.AperFunction*%
%TO.P,U6,10*%
%TO.N,Net-(R31-Pad1)*%
%TA.AperFunction,SMDPad,CuDef*%
G36*
G01*
X25500000Y25425000D02*
X25500000Y25725000D01*
G75*
G02*
X25650000Y25875000I150000J0D01*
G01*
X27300000Y25875000D01*
G75*
G02*
X27450000Y25725000I0J-150000D01*
G01*
X27450000Y25425000D01*
G75*
G02*
X27300000Y25275000I-150000J0D01*
G01*
X25650000Y25275000D01*
G75*
G02*
X25500000Y25425000I0J150000D01*
G01*
G37*
%TD.AperFunction*%
%TO.P,U6,11*%
%TO.N,+12V*%
%TA.AperFunction,SMDPad,CuDef*%
G36*
G01*
X25500000Y26695000D02*
X25500000Y26995000D01*
G75*
G02*
X25650000Y27145000I150000J0D01*
G01*
X27300000Y27145000D01*
G75*
G02*
X27450000Y26995000I0J-150000D01*
G01*
X27450000Y26695000D01*
G75*
G02*
X27300000Y26545000I-150000J0D01*
G01*
X25650000Y26545000D01*
G75*
G02*
X25500000Y26695000I0J150000D01*
G01*
G37*
%TD.AperFunction*%
%TO.P,U6,12*%
%TO.N,Net-(R31-Pad1)*%
%TA.AperFunction,SMDPad,CuDef*%
G36*
G01*
X25500000Y27965000D02*
X25500000Y28265000D01*
G75*
G02*
X25650000Y28415000I150000J0D01*
G01*
X27300000Y28415000D01*
G75*
G02*
X27450000Y28265000I0J-150000D01*
G01*
X27450000Y27965000D01*
G75*
G02*
X27300000Y27815000I-150000J0D01*
G01*
X25650000Y27815000D01*
G75*
G02*
X25500000Y27965000I0J150000D01*
G01*
G37*
%TD.AperFunction*%
%TO.P,U6,13*%
%TO.N,+6V*%
%TA.AperFunction,SMDPad,CuDef*%
G36*
G01*
X25500000Y29235000D02*
X25500000Y29535000D01*
G75*
G02*
X25650000Y29685000I150000J0D01*
G01*
X27300000Y29685000D01*
G75*
G02*
X27450000Y29535000I0J-150000D01*
G01*
X27450000Y29235000D01*
G75*
G02*
X27300000Y29085000I-150000J0D01*
G01*
X25650000Y29085000D01*
G75*
G02*
X25500000Y29235000I0J150000D01*
G01*
G37*
%TD.AperFunction*%
%TO.P,U6,14*%
%TO.N,Net-(R25-Pad1)*%
%TA.AperFunction,SMDPad,CuDef*%
G36*
G01*
X25500000Y30505000D02*
X25500000Y30805000D01*
G75*
G02*
X25650000Y30955000I150000J0D01*
G01*
X27300000Y30955000D01*
G75*
G02*
X27450000Y30805000I0J-150000D01*
G01*
X27450000Y30505000D01*
G75*
G02*
X27300000Y30355000I-150000J0D01*
G01*
X25650000Y30355000D01*
G75*
G02*
X25500000Y30505000I0J150000D01*
G01*
G37*
%TD.AperFunction*%
%TO.P,U6,15*%
%TO.N,Net-(U6-Pad15)*%
%TA.AperFunction,SMDPad,CuDef*%
G36*
G01*
X25500000Y31775000D02*
X25500000Y32075000D01*
G75*
G02*
X25650000Y32225000I150000J0D01*
G01*
X27300000Y32225000D01*
G75*
G02*
X27450000Y32075000I0J-150000D01*
G01*
X27450000Y31775000D01*
G75*
G02*
X27300000Y31625000I-150000J0D01*
G01*
X25650000Y31625000D01*
G75*
G02*
X25500000Y31775000I0J150000D01*
G01*
G37*
%TD.AperFunction*%
%TO.P,U6,16*%
%TO.N,Net-(R30-Pad2)*%
%TA.AperFunction,SMDPad,CuDef*%
G36*
G01*
X25500000Y33045000D02*
X25500000Y33345000D01*
G75*
G02*
X25650000Y33495000I150000J0D01*
G01*
X27300000Y33495000D01*
G75*
G02*
X27450000Y33345000I0J-150000D01*
G01*
X27450000Y33045000D01*
G75*
G02*
X27300000Y32895000I-150000J0D01*
G01*
X25650000Y32895000D01*
G75*
G02*
X25500000Y33045000I0J150000D01*
G01*
G37*
%TD.AperFunction*%
%TD*%
%TO.P,U4,1*%
%TO.N,Net-(R34-Pad1)*%
%TA.AperFunction,SMDPad,CuDef*%
G36*
G01*
X18800000Y54240000D02*
X18800000Y54540000D01*
G75*
G02*
X18950000Y54690000I150000J0D01*
G01*
X20600000Y54690000D01*
G75*
G02*
X20750000Y54540000I0J-150000D01*
G01*
X20750000Y54240000D01*
G75*
G02*
X20600000Y54090000I-150000J0D01*
G01*
X18950000Y54090000D01*
G75*
G02*
X18800000Y54240000I0J150000D01*
G01*
G37*
%TD.AperFunction*%
%TO.P,U4,2*%
%TO.N,Net-(U4-Pad2)*%
%TA.AperFunction,SMDPad,CuDef*%
G36*
G01*
X18800000Y52970000D02*
X18800000Y53270000D01*
G75*
G02*
X18950000Y53420000I150000J0D01*
G01*
X20600000Y53420000D01*
G75*
G02*
X20750000Y53270000I0J-150000D01*
G01*
X20750000Y52970000D01*
G75*
G02*
X20600000Y52820000I-150000J0D01*
G01*
X18950000Y52820000D01*
G75*
G02*
X18800000Y52970000I0J150000D01*
G01*
G37*
%TD.AperFunction*%
%TO.P,U4,3*%
%TO.N,Net-(R35-Pad1)*%
%TA.AperFunction,SMDPad,CuDef*%
G36*
G01*
X18800000Y51700000D02*
X18800000Y52000000D01*
G75*
G02*
X18950000Y52150000I150000J0D01*
G01*
X20600000Y52150000D01*
G75*
G02*
X20750000Y52000000I0J-150000D01*
G01*
X20750000Y51700000D01*
G75*
G02*
X20600000Y51550000I-150000J0D01*
G01*
X18950000Y51550000D01*
G75*
G02*
X18800000Y51700000I0J150000D01*
G01*
G37*
%TD.AperFunction*%
%TO.P,U4,4*%
%TO.N,triangle*%
%TA.AperFunction,SMDPad,CuDef*%
G36*
G01*
X18800000Y50430000D02*
X18800000Y50730000D01*
G75*
G02*
X18950000Y50880000I150000J0D01*
G01*
X20600000Y50880000D01*
G75*
G02*
X20750000Y50730000I0J-150000D01*
G01*
X20750000Y50430000D01*
G75*
G02*
X20600000Y50280000I-150000J0D01*
G01*
X18950000Y50280000D01*
G75*
G02*
X18800000Y50430000I0J150000D01*
G01*
G37*
%TD.AperFunction*%
%TO.P,U4,5*%
%TO.N,Net-(R35-Pad1)*%
%TA.AperFunction,SMDPad,CuDef*%
G36*
G01*
X18800000Y49160000D02*
X18800000Y49460000D01*
G75*
G02*
X18950000Y49610000I150000J0D01*
G01*
X20600000Y49610000D01*
G75*
G02*
X20750000Y49460000I0J-150000D01*
G01*
X20750000Y49160000D01*
G75*
G02*
X20600000Y49010000I-150000J0D01*
G01*
X18950000Y49010000D01*
G75*
G02*
X18800000Y49160000I0J150000D01*
G01*
G37*
%TD.AperFunction*%
%TO.P,U4,6*%
%TO.N,-12V*%
%TA.AperFunction,SMDPad,CuDef*%
G36*
G01*
X18800000Y47890000D02*
X18800000Y48190000D01*
G75*
G02*
X18950000Y48340000I150000J0D01*
G01*
X20600000Y48340000D01*
G75*
G02*
X20750000Y48190000I0J-150000D01*
G01*
X20750000Y47890000D01*
G75*
G02*
X20600000Y47740000I-150000J0D01*
G01*
X18950000Y47740000D01*
G75*
G02*
X18800000Y47890000I0J150000D01*
G01*
G37*
%TD.AperFunction*%
%TO.P,U4,7*%
%TO.N,Net-(U4-Pad7)*%
%TA.AperFunction,SMDPad,CuDef*%
G36*
G01*
X18800000Y46620000D02*
X18800000Y46920000D01*
G75*
G02*
X18950000Y47070000I150000J0D01*
G01*
X20600000Y47070000D01*
G75*
G02*
X20750000Y46920000I0J-150000D01*
G01*
X20750000Y46620000D01*
G75*
G02*
X20600000Y46470000I-150000J0D01*
G01*
X18950000Y46470000D01*
G75*
G02*
X18800000Y46620000I0J150000D01*
G01*
G37*
%TD.AperFunction*%
%TO.P,U4,8*%
%TO.N,Net-(U4-Pad8)*%
%TA.AperFunction,SMDPad,CuDef*%
G36*
G01*
X18800000Y45350000D02*
X18800000Y45650000D01*
G75*
G02*
X18950000Y45800000I150000J0D01*
G01*
X20600000Y45800000D01*
G75*
G02*
X20750000Y45650000I0J-150000D01*
G01*
X20750000Y45350000D01*
G75*
G02*
X20600000Y45200000I-150000J0D01*
G01*
X18950000Y45200000D01*
G75*
G02*
X18800000Y45350000I0J150000D01*
G01*
G37*
%TD.AperFunction*%
%TO.P,U4,9*%
%TO.N,triangle*%
%TA.AperFunction,SMDPad,CuDef*%
G36*
G01*
X23750000Y45350000D02*
X23750000Y45650000D01*
G75*
G02*
X23900000Y45800000I150000J0D01*
G01*
X25550000Y45800000D01*
G75*
G02*
X25700000Y45650000I0J-150000D01*
G01*
X25700000Y45350000D01*
G75*
G02*
X25550000Y45200000I-150000J0D01*
G01*
X23900000Y45200000D01*
G75*
G02*
X23750000Y45350000I0J150000D01*
G01*
G37*
%TD.AperFunction*%
%TO.P,U4,10*%
%TO.N,Net-(C19-Pad1)*%
%TA.AperFunction,SMDPad,CuDef*%
G36*
G01*
X23750000Y46620000D02*
X23750000Y46920000D01*
G75*
G02*
X23900000Y47070000I150000J0D01*
G01*
X25550000Y47070000D01*
G75*
G02*
X25700000Y46920000I0J-150000D01*
G01*
X25700000Y46620000D01*
G75*
G02*
X25550000Y46470000I-150000J0D01*
G01*
X23900000Y46470000D01*
G75*
G02*
X23750000Y46620000I0J150000D01*
G01*
G37*
%TD.AperFunction*%
%TO.P,U4,11*%
%TO.N,+12V*%
%TA.AperFunction,SMDPad,CuDef*%
G36*
G01*
X23750000Y47890000D02*
X23750000Y48190000D01*
G75*
G02*
X23900000Y48340000I150000J0D01*
G01*
X25550000Y48340000D01*
G75*
G02*
X25700000Y48190000I0J-150000D01*
G01*
X25700000Y47890000D01*
G75*
G02*
X25550000Y47740000I-150000J0D01*
G01*
X23900000Y47740000D01*
G75*
G02*
X23750000Y47890000I0J150000D01*
G01*
G37*
%TD.AperFunction*%
%TO.P,U4,12*%
%TO.N,Net-(C19-Pad1)*%
%TA.AperFunction,SMDPad,CuDef*%
G36*
G01*
X23750000Y49160000D02*
X23750000Y49460000D01*
G75*
G02*
X23900000Y49610000I150000J0D01*
G01*
X25550000Y49610000D01*
G75*
G02*
X25700000Y49460000I0J-150000D01*
G01*
X25700000Y49160000D01*
G75*
G02*
X25550000Y49010000I-150000J0D01*
G01*
X23900000Y49010000D01*
G75*
G02*
X23750000Y49160000I0J150000D01*
G01*
G37*
%TD.AperFunction*%
%TO.P,U4,13*%
%TO.N,GND*%
%TA.AperFunction,SMDPad,CuDef*%
G36*
G01*
X23750000Y50430000D02*
X23750000Y50730000D01*
G75*
G02*
X23900000Y50880000I150000J0D01*
G01*
X25550000Y50880000D01*
G75*
G02*
X25700000Y50730000I0J-150000D01*
G01*
X25700000Y50430000D01*
G75*
G02*
X25550000Y50280000I-150000J0D01*
G01*
X23900000Y50280000D01*
G75*
G02*
X23750000Y50430000I0J150000D01*
G01*
G37*
%TD.AperFunction*%
%TO.P,U4,14*%
%TO.N,Net-(R35-Pad1)*%
%TA.AperFunction,SMDPad,CuDef*%
G36*
G01*
X23750000Y51700000D02*
X23750000Y52000000D01*
G75*
G02*
X23900000Y52150000I150000J0D01*
G01*
X25550000Y52150000D01*
G75*
G02*
X25700000Y52000000I0J-150000D01*
G01*
X25700000Y51700000D01*
G75*
G02*
X25550000Y51550000I-150000J0D01*
G01*
X23900000Y51550000D01*
G75*
G02*
X23750000Y51700000I0J150000D01*
G01*
G37*
%TD.AperFunction*%
%TO.P,U4,15*%
%TO.N,Net-(U4-Pad15)*%
%TA.AperFunction,SMDPad,CuDef*%
G36*
G01*
X23750000Y52970000D02*
X23750000Y53270000D01*
G75*
G02*
X23900000Y53420000I150000J0D01*
G01*
X25550000Y53420000D01*
G75*
G02*
X25700000Y53270000I0J-150000D01*
G01*
X25700000Y52970000D01*
G75*
G02*
X25550000Y52820000I-150000J0D01*
G01*
X23900000Y52820000D01*
G75*
G02*
X23750000Y52970000I0J150000D01*
G01*
G37*
%TD.AperFunction*%
%TO.P,U4,16*%
%TO.N,Net-(R29-Pad2)*%
%TA.AperFunction,SMDPad,CuDef*%
G36*
G01*
X23750000Y54240000D02*
X23750000Y54540000D01*
G75*
G02*
X23900000Y54690000I150000J0D01*
G01*
X25550000Y54690000D01*
G75*
G02*
X25700000Y54540000I0J-150000D01*
G01*
X25700000Y54240000D01*
G75*
G02*
X25550000Y54090000I-150000J0D01*
G01*
X23900000Y54090000D01*
G75*
G02*
X23750000Y54240000I0J150000D01*
G01*
G37*
%TD.AperFunction*%
%TD*%
%TO.P,U3,1*%
%TO.N,Net-(U3-Pad1)*%
%TA.AperFunction,SMDPad,CuDef*%
G36*
G01*
X13800000Y63255000D02*
X13800000Y63555000D01*
G75*
G02*
X13950000Y63705000I150000J0D01*
G01*
X15600000Y63705000D01*
G75*
G02*
X15750000Y63555000I0J-150000D01*
G01*
X15750000Y63255000D01*
G75*
G02*
X15600000Y63105000I-150000J0D01*
G01*
X13950000Y63105000D01*
G75*
G02*
X13800000Y63255000I0J150000D01*
G01*
G37*
%TD.AperFunction*%
%TO.P,U3,2*%
%TO.N,Net-(R36-Pad1)*%
%TA.AperFunction,SMDPad,CuDef*%
G36*
G01*
X13800000Y61985000D02*
X13800000Y62285000D01*
G75*
G02*
X13950000Y62435000I150000J0D01*
G01*
X15600000Y62435000D01*
G75*
G02*
X15750000Y62285000I0J-150000D01*
G01*
X15750000Y61985000D01*
G75*
G02*
X15600000Y61835000I-150000J0D01*
G01*
X13950000Y61835000D01*
G75*
G02*
X13800000Y61985000I0J150000D01*
G01*
G37*
%TD.AperFunction*%
%TO.P,U3,3*%
%TO.N,GND*%
%TA.AperFunction,SMDPad,CuDef*%
G36*
G01*
X13800000Y60715000D02*
X13800000Y61015000D01*
G75*
G02*
X13950000Y61165000I150000J0D01*
G01*
X15600000Y61165000D01*
G75*
G02*
X15750000Y61015000I0J-150000D01*
G01*
X15750000Y60715000D01*
G75*
G02*
X15600000Y60565000I-150000J0D01*
G01*
X13950000Y60565000D01*
G75*
G02*
X13800000Y60715000I0J150000D01*
G01*
G37*
%TD.AperFunction*%
%TO.P,U3,4*%
%TO.N,-12V*%
%TA.AperFunction,SMDPad,CuDef*%
G36*
G01*
X13800000Y59445000D02*
X13800000Y59745000D01*
G75*
G02*
X13950000Y59895000I150000J0D01*
G01*
X15600000Y59895000D01*
G75*
G02*
X15750000Y59745000I0J-150000D01*
G01*
X15750000Y59445000D01*
G75*
G02*
X15600000Y59295000I-150000J0D01*
G01*
X13950000Y59295000D01*
G75*
G02*
X13800000Y59445000I0J150000D01*
G01*
G37*
%TD.AperFunction*%
%TO.P,U3,5*%
%TO.N,Net-(U3-Pad5)*%
%TA.AperFunction,SMDPad,CuDef*%
G36*
G01*
X18750000Y59445000D02*
X18750000Y59745000D01*
G75*
G02*
X18900000Y59895000I150000J0D01*
G01*
X20550000Y59895000D01*
G75*
G02*
X20700000Y59745000I0J-150000D01*
G01*
X20700000Y59445000D01*
G75*
G02*
X20550000Y59295000I-150000J0D01*
G01*
X18900000Y59295000D01*
G75*
G02*
X18750000Y59445000I0J150000D01*
G01*
G37*
%TD.AperFunction*%
%TO.P,U3,6*%
%TO.N,Net-(Q6-Pad2)*%
%TA.AperFunction,SMDPad,CuDef*%
G36*
G01*
X18750000Y60715000D02*
X18750000Y61015000D01*
G75*
G02*
X18900000Y61165000I150000J0D01*
G01*
X20550000Y61165000D01*
G75*
G02*
X20700000Y61015000I0J-150000D01*
G01*
X20700000Y60715000D01*
G75*
G02*
X20550000Y60565000I-150000J0D01*
G01*
X18900000Y60565000D01*
G75*
G02*
X18750000Y60715000I0J150000D01*
G01*
G37*
%TD.AperFunction*%
%TO.P,U3,7*%
%TO.N,+12V*%
%TA.AperFunction,SMDPad,CuDef*%
G36*
G01*
X18750000Y61985000D02*
X18750000Y62285000D01*
G75*
G02*
X18900000Y62435000I150000J0D01*
G01*
X20550000Y62435000D01*
G75*
G02*
X20700000Y62285000I0J-150000D01*
G01*
X20700000Y61985000D01*
G75*
G02*
X20550000Y61835000I-150000J0D01*
G01*
X18900000Y61835000D01*
G75*
G02*
X18750000Y61985000I0J150000D01*
G01*
G37*
%TD.AperFunction*%
%TO.P,U3,8*%
%TO.N,Net-(U3-Pad8)*%
%TA.AperFunction,SMDPad,CuDef*%
G36*
G01*
X18750000Y63255000D02*
X18750000Y63555000D01*
G75*
G02*
X18900000Y63705000I150000J0D01*
G01*
X20550000Y63705000D01*
G75*
G02*
X20700000Y63555000I0J-150000D01*
G01*
X20700000Y63255000D01*
G75*
G02*
X20550000Y63105000I-150000J0D01*
G01*
X18900000Y63105000D01*
G75*
G02*
X18750000Y63255000I0J150000D01*
G01*
G37*
%TD.AperFunction*%
%TD*%
%TO.P,U2,1*%
%TO.N,decayPin*%
%TA.AperFunction,SMDPad,CuDef*%
G36*
G01*
X22800000Y85255000D02*
X22800000Y85555000D01*
G75*
G02*
X22950000Y85705000I150000J0D01*
G01*
X24600000Y85705000D01*
G75*
G02*
X24750000Y85555000I0J-150000D01*
G01*
X24750000Y85255000D01*
G75*
G02*
X24600000Y85105000I-150000J0D01*
G01*
X22950000Y85105000D01*
G75*
G02*
X22800000Y85255000I0J150000D01*
G01*
G37*
%TD.AperFunction*%
%TO.P,U2,2*%
%TO.N,Net-(C12-Pad2)*%
%TA.AperFunction,SMDPad,CuDef*%
G36*
G01*
X22800000Y83985000D02*
X22800000Y84285000D01*
G75*
G02*
X22950000Y84435000I150000J0D01*
G01*
X24600000Y84435000D01*
G75*
G02*
X24750000Y84285000I0J-150000D01*
G01*
X24750000Y83985000D01*
G75*
G02*
X24600000Y83835000I-150000J0D01*
G01*
X22950000Y83835000D01*
G75*
G02*
X22800000Y83985000I0J150000D01*
G01*
G37*
%TD.AperFunction*%
%TO.P,U2,3*%
%TO.N,GND*%
%TA.AperFunction,SMDPad,CuDef*%
G36*
G01*
X22800000Y82715000D02*
X22800000Y83015000D01*
G75*
G02*
X22950000Y83165000I150000J0D01*
G01*
X24600000Y83165000D01*
G75*
G02*
X24750000Y83015000I0J-150000D01*
G01*
X24750000Y82715000D01*
G75*
G02*
X24600000Y82565000I-150000J0D01*
G01*
X22950000Y82565000D01*
G75*
G02*
X22800000Y82715000I0J150000D01*
G01*
G37*
%TD.AperFunction*%
%TO.P,U2,4*%
%TA.AperFunction,SMDPad,CuDef*%
G36*
G01*
X22800000Y81445000D02*
X22800000Y81745000D01*
G75*
G02*
X22950000Y81895000I150000J0D01*
G01*
X24600000Y81895000D01*
G75*
G02*
X24750000Y81745000I0J-150000D01*
G01*
X24750000Y81445000D01*
G75*
G02*
X24600000Y81295000I-150000J0D01*
G01*
X22950000Y81295000D01*
G75*
G02*
X22800000Y81445000I0J150000D01*
G01*
G37*
%TD.AperFunction*%
%TO.P,U2,5*%
%TO.N,Net-(C10-Pad1)*%
%TA.AperFunction,SMDPad,CuDef*%
G36*
G01*
X27750000Y81445000D02*
X27750000Y81745000D01*
G75*
G02*
X27900000Y81895000I150000J0D01*
G01*
X29550000Y81895000D01*
G75*
G02*
X29700000Y81745000I0J-150000D01*
G01*
X29700000Y81445000D01*
G75*
G02*
X29550000Y81295000I-150000J0D01*
G01*
X27900000Y81295000D01*
G75*
G02*
X27750000Y81445000I0J150000D01*
G01*
G37*
%TD.AperFunction*%
%TO.P,U2,6*%
%TO.N,env1*%
%TA.AperFunction,SMDPad,CuDef*%
G36*
G01*
X27750000Y82715000D02*
X27750000Y83015000D01*
G75*
G02*
X27900000Y83165000I150000J0D01*
G01*
X29550000Y83165000D01*
G75*
G02*
X29700000Y83015000I0J-150000D01*
G01*
X29700000Y82715000D01*
G75*
G02*
X29550000Y82565000I-150000J0D01*
G01*
X27900000Y82565000D01*
G75*
G02*
X27750000Y82715000I0J150000D01*
G01*
G37*
%TD.AperFunction*%
%TO.P,U2,7*%
%TA.AperFunction,SMDPad,CuDef*%
G36*
G01*
X27750000Y83985000D02*
X27750000Y84285000D01*
G75*
G02*
X27900000Y84435000I150000J0D01*
G01*
X29550000Y84435000D01*
G75*
G02*
X29700000Y84285000I0J-150000D01*
G01*
X29700000Y83985000D01*
G75*
G02*
X29550000Y83835000I-150000J0D01*
G01*
X27900000Y83835000D01*
G75*
G02*
X27750000Y83985000I0J150000D01*
G01*
G37*
%TD.AperFunction*%
%TO.P,U2,8*%
%TO.N,+5V*%
%TA.AperFunction,SMDPad,CuDef*%
G36*
G01*
X27750000Y85255000D02*
X27750000Y85555000D01*
G75*
G02*
X27900000Y85705000I150000J0D01*
G01*
X29550000Y85705000D01*
G75*
G02*
X29700000Y85555000I0J-150000D01*
G01*
X29700000Y85255000D01*
G75*
G02*
X29550000Y85105000I-150000J0D01*
G01*
X27900000Y85105000D01*
G75*
G02*
X27750000Y85255000I0J150000D01*
G01*
G37*
%TD.AperFunction*%
%TD*%
D27*
%TO.P,Q5,D*%
%TO.N,Net-(C19-Pad1)*%
X26350000Y43250000D03*
%TO.P,Q5,S*%
%TO.N,GND*%
X24450000Y43250000D03*
%TO.P,Q5,G*%
%TO.N,Net-(Q5-PadG)*%
X25400000Y40750000D03*
%TD*%
D24*
%TO.P,Q1,B*%
%TO.N,Net-(Q1-PadB)*%
X21000000Y98200000D03*
%TO.P,Q1,E*%
%TO.N,GND*%
X21000000Y96300000D03*
%TO.P,Q1,C*%
%TO.N,trigPin*%
X23500000Y97250000D03*
%TD*%
D11*
%TO.P,J5,10*%
%TO.N,Net-(D4-Pad2)*%
X33830000Y103980000D03*
%TO.P,J5,9*%
X33830000Y106520000D03*
%TO.P,J5,8*%
%TO.N,GND*%
X31290000Y103980000D03*
%TO.P,J5,7*%
X31290000Y106520000D03*
%TO.P,J5,6*%
X28750000Y103980000D03*
%TO.P,J5,5*%
X28750000Y106520000D03*
%TO.P,J5,4*%
X26210000Y103980000D03*
%TO.P,J5,3*%
X26210000Y106520000D03*
%TO.P,J5,2*%
%TO.N,Net-(D5-Pad1)*%
X23670000Y103980000D03*
%TO.P,J5,1*%
X23670000Y106520000D03*
%TD*%
%TO.P,C11,2*%
%TO.N,GND*%
%TA.AperFunction,SMDPad,CuDef*%
G36*
G01*
X43425000Y94875000D02*
X43425000Y96125000D01*
G75*
G02*
X43675000Y96375000I250000J0D01*
G01*
X44425000Y96375000D01*
G75*
G02*
X44675000Y96125000I0J-250000D01*
G01*
X44675000Y94875000D01*
G75*
G02*
X44425000Y94625000I-250000J0D01*
G01*
X43675000Y94625000D01*
G75*
G02*
X43425000Y94875000I0J250000D01*
G01*
G37*
%TD.AperFunction*%
%TO.P,C11,1*%
%TO.N,+5V*%
%TA.AperFunction,SMDPad,CuDef*%
G36*
G01*
X40625000Y94875000D02*
X40625000Y96125000D01*
G75*
G02*
X40875000Y96375000I250000J0D01*
G01*
X41625000Y96375000D01*
G75*
G02*
X41875000Y96125000I0J-250000D01*
G01*
X41875000Y94875000D01*
G75*
G02*
X41625000Y94625000I-250000J0D01*
G01*
X40875000Y94625000D01*
G75*
G02*
X40625000Y94875000I0J250000D01*
G01*
G37*
%TD.AperFunction*%
%TD*%
%TO.P,C7,2*%
%TO.N,GND*%
%TA.AperFunction,SMDPad,CuDef*%
G36*
G01*
X7125000Y82525000D02*
X5875000Y82525000D01*
G75*
G02*
X5625000Y82775000I0J250000D01*
G01*
X5625000Y83525000D01*
G75*
G02*
X5875000Y83775000I250000J0D01*
G01*
X7125000Y83775000D01*
G75*
G02*
X7375000Y83525000I0J-250000D01*
G01*
X7375000Y82775000D01*
G75*
G02*
X7125000Y82525000I-250000J0D01*
G01*
G37*
%TD.AperFunction*%
%TO.P,C7,1*%
%TO.N,-5V*%
%TA.AperFunction,SMDPad,CuDef*%
G36*
G01*
X7125000Y79725000D02*
X5875000Y79725000D01*
G75*
G02*
X5625000Y79975000I0J250000D01*
G01*
X5625000Y80725000D01*
G75*
G02*
X5875000Y80975000I250000J0D01*
G01*
X7125000Y80975000D01*
G75*
G02*
X7375000Y80725000I0J-250000D01*
G01*
X7375000Y79975000D01*
G75*
G02*
X7125000Y79725000I-250000J0D01*
G01*
G37*
%TD.AperFunction*%
%TD*%
D15*
%TO.P,RV5,*%
%TO.N,*%
X6200000Y27998000D03*
X15800000Y27998000D03*
D16*
%TO.P,RV5,1*%
%TO.N,GND*%
X8500000Y20498000D03*
%TO.P,RV5,3*%
%TO.N,Net-(Q2-PadE)*%
X13500000Y20498000D03*
%TO.P,RV5,2*%
%TO.N,texture*%
X11000000Y20498000D03*
%TD*%
D15*
%TO.P,RV4,*%
%TO.N,*%
X6200000Y52998000D03*
X15800000Y52998000D03*
D16*
%TO.P,RV4,1*%
%TO.N,-12V*%
X8500000Y45498000D03*
%TO.P,RV4,3*%
%TO.N,Net-(R50-Pad1)*%
X13500000Y45498000D03*
%TO.P,RV4,2*%
%TO.N,Net-(R37-Pad2)*%
X11000000Y45498000D03*
%TD*%
D12*
%TO.P,J9,S*%
%TO.N,GND*%
X42750000Y1879500D03*
D13*
%TO.P,J9,TN*%
%TO.N,Net-(J9-PadTN)*%
X42750000Y4120000D03*
D14*
%TO.P,J9,T*%
%TO.N,Net-(J9-PadT)*%
X42750000Y12420000D03*
%TD*%
D12*
%TO.P,J8,S*%
%TO.N,GND*%
X5250000Y1879500D03*
D13*
%TO.P,J8,TN*%
%TO.N,Net-(J8-PadTN)*%
X5250000Y4120000D03*
D14*
%TO.P,J8,T*%
%TO.N,Net-(J8-PadT)*%
X5250000Y12420000D03*
%TD*%
D12*
%TO.P,J7,S*%
%TO.N,GND*%
X9500000Y79620500D03*
D13*
%TO.P,J7,TN*%
X9500000Y77380000D03*
D14*
%TO.P,J7,T*%
%TO.N,Net-(J7-PadT)*%
X9500000Y69080000D03*
%TD*%
D12*
%TO.P,J4,S*%
%TO.N,GND*%
X13000000Y93620500D03*
D13*
%TO.P,J4,TN*%
X13000000Y91380000D03*
D14*
%TO.P,J4,T*%
%TO.N,Net-(J4-PadT)*%
X13000000Y83080000D03*
%TD*%
D12*
%TO.P,J2,S*%
%TO.N,GND*%
X17750000Y1879500D03*
D13*
%TO.P,J2,TN*%
%TO.N,Net-(J2-PadTN)*%
X17750000Y4120000D03*
D14*
%TO.P,J2,T*%
%TO.N,Net-(J2-PadT)*%
X17750000Y12420000D03*
%TD*%
D12*
%TO.P,J1,S*%
%TO.N,GND*%
X9500000Y96379500D03*
D13*
%TO.P,J1,TN*%
X9500000Y98620000D03*
D14*
%TO.P,J1,T*%
%TO.N,Net-(J1-PadT)*%
X9500000Y106920000D03*
%TD*%
D28*
%TO.N,GND*%
X19500000Y96250000D03*
X34250000Y77250000D03*
X27400000Y76800000D03*
X23750000Y80500000D03*
X45250000Y69500000D03*
X16135000Y60865000D03*
X20412500Y36587500D03*
X20095000Y26845000D03*
X22865000Y16365000D03*
X34000000Y82500000D03*
X45500000Y75250000D03*
X45500000Y95500000D03*
X42500000Y99000000D03*
X9500000Y59500000D03*
X16250000Y15000000D03*
X16000000Y23750000D03*
X45250000Y81000000D03*
X39087500Y86587500D03*
X8150000Y83150000D03*
X14405000Y71845000D03*
X26420000Y50580000D03*
X7837500Y34837500D03*
X10565000Y37315000D03*
X27950000Y65450000D03*
X25050000Y65450000D03*
X21250000Y64250000D03*
X45000000Y23250000D03*
X41500000Y81000000D03*
X16550000Y101450000D03*
X39950000Y103300000D03*
X39750000Y16750000D03*
X29837500Y19662500D03*
X30250000Y21750000D03*
X29962500Y23837500D03*
X27000000Y45000000D03*
X45300000Y40700000D03*
X44200000Y47000000D03*
X37500000Y58500000D03*
X44800000Y56800000D03*
X24450000Y44350000D03*
X17800000Y45200000D03*
X15412500Y42337500D03*
%TO.N,+12V*%
X45750000Y25750000D03*
X34750000Y61750000D03*
X45500000Y72250000D03*
X45500000Y86000000D03*
X44700000Y99950000D03*
X44700000Y98050000D03*
X47000000Y103500000D03*
X37800000Y49200000D03*
X46000000Y47000000D03*
X34600000Y39000000D03*
X39800000Y18200000D03*
%TO.N,-12V*%
X3250000Y58000000D03*
X3250000Y48000000D03*
X13250000Y67500000D03*
X10250000Y13750000D03*
X5412500Y86912500D03*
X4000000Y31750000D03*
X16250000Y109000000D03*
%TO.N,Net-(C22-Pad2)*%
X15750000Y21500000D03*
X20500000Y21500000D03*
%TO.N,pulsePin*%
X21200000Y73000000D03*
X35250000Y73400000D03*
%TO.N,trigPin*%
X21200000Y74400000D03*
X34800000Y74400000D03*
X23500000Y93250000D03*
X23500000Y90750000D03*
X36000000Y86250000D03*
%TO.N,pwmPin*%
X21200000Y71800000D03*
X35800000Y72200000D03*
%TO.N,RST*%
X21200000Y70400000D03*
X37000000Y72250000D03*
%TO.N,env2*%
X43250000Y60000000D03*
%TO.N,env1*%
X42600000Y37600000D03*
X34600000Y37600000D03*
%TO.N,Net-(R20-Pad2)*%
X23500000Y89250000D03*
X26500000Y89250000D03*
%TO.N,Net-(C8-Pad1)*%
X34500000Y17250000D03*
%TD*%
D29*
%TO.N,GND*%
X19550000Y96300000D02*
X19500000Y96250000D01*
X21000000Y96300000D02*
X19550000Y96300000D01*
X23775000Y81595000D02*
X23775000Y82865000D01*
X32912500Y82500000D02*
X32912500Y80750000D01*
X23775000Y81595000D02*
X22845000Y81595000D01*
X34200000Y77200000D02*
X34250000Y77250000D01*
X33250000Y77200000D02*
X34200000Y77200000D01*
X27312500Y76712500D02*
X27400000Y76800000D01*
X27312500Y75750000D02*
X27312500Y76712500D01*
X23775000Y80525000D02*
X23750000Y80500000D01*
X23775000Y81595000D02*
X23775000Y80525000D01*
X45162500Y69587500D02*
X45250000Y69500000D01*
X45162500Y70750000D02*
X45162500Y69587500D01*
X45162500Y75587500D02*
X45162500Y76250000D01*
D30*
X14775000Y60865000D02*
X16135000Y60865000D01*
X19250000Y36587500D02*
X20412500Y36587500D01*
X21525000Y26845000D02*
X20095000Y26845000D01*
X21525000Y16365000D02*
X22865000Y16365000D01*
D29*
X32912500Y82500000D02*
X34000000Y82500000D01*
X45500000Y75250000D02*
X45162500Y75587500D01*
X44050000Y95500000D02*
X45500000Y95500000D01*
X43600000Y99000000D02*
X42500000Y99000000D01*
X10587500Y59500000D02*
X9500000Y59500000D01*
X17337500Y15000000D02*
X16250000Y15000000D01*
X17337500Y23750000D02*
X16000000Y23750000D01*
X45212500Y82050000D02*
X45212500Y81037500D01*
X45212500Y81037500D02*
X45250000Y81000000D01*
X39087500Y85800000D02*
X39087500Y84050000D01*
D30*
X39087500Y85800000D02*
X39087500Y86587500D01*
X6500000Y83150000D02*
X8150000Y83150000D01*
X15650000Y71845000D02*
X14405000Y71845000D01*
X24725000Y50580000D02*
X26420000Y50580000D01*
X7837500Y36000000D02*
X7837500Y34837500D01*
X12025000Y37315000D02*
X10565000Y37315000D01*
D31*
X27150000Y65450000D02*
X27950000Y65450000D01*
X25850000Y65450000D02*
X25050000Y65450000D01*
D32*
X21837500Y63662500D02*
X21250000Y64250000D01*
X22000000Y63662500D02*
X21837500Y63662500D01*
X45000000Y24100000D02*
X45000000Y23250000D01*
X41500000Y80200000D02*
X41500000Y81000000D01*
X45162500Y78000000D02*
X45162500Y76250000D01*
D33*
X18250000Y101450000D02*
X16550000Y101450000D01*
X39950000Y105000000D02*
X39950000Y103300000D01*
D32*
X40837500Y16750000D02*
X39750000Y16750000D01*
X29000000Y19662500D02*
X29837500Y19662500D01*
X29162500Y21750000D02*
X30250000Y21750000D01*
X29000000Y23837500D02*
X29962500Y23837500D01*
X27000000Y45887500D02*
X27000000Y45000000D01*
D33*
X45300000Y39400000D02*
X45300000Y40700000D01*
D32*
X44200000Y46112500D02*
X44200000Y46200000D01*
X44200000Y46200000D02*
X44200000Y47000000D01*
X37500000Y57662500D02*
X37500000Y58500000D01*
X43850000Y56800000D02*
X44800000Y56800000D01*
X24450000Y43250000D02*
X24450000Y44350000D01*
X17800000Y45887500D02*
X17800000Y45200000D01*
X17600000Y46087500D02*
X17800000Y45887500D01*
X15412500Y43250000D02*
X15412500Y42337500D01*
D30*
%TO.N,+12V*%
X26475000Y26845000D02*
X27405000Y26845000D01*
X27405000Y26845000D02*
X28500000Y25750000D01*
D29*
X19337500Y38500000D02*
X19250000Y38412500D01*
D30*
X19077500Y38585000D02*
X16975000Y38585000D01*
D29*
X45500000Y73500000D02*
X45500000Y72250000D01*
X45500000Y84850000D02*
X45500000Y86000000D01*
X43600000Y99950000D02*
X44700000Y99950000D01*
X43600000Y98050000D02*
X44700000Y98050000D01*
D30*
X20865000Y62135000D02*
X19725000Y62135000D01*
X21250000Y61750000D02*
X20865000Y62135000D01*
D34*
X43650000Y106900000D02*
X45550000Y105000000D01*
X36500000Y106900000D02*
X43650000Y106900000D01*
D32*
X47000000Y103550000D02*
X47000000Y103500000D01*
D34*
X45550000Y105000000D02*
X47000000Y103550000D01*
D32*
X29162500Y25662500D02*
X29250000Y25750000D01*
D30*
X29250000Y25750000D02*
X45750000Y25750000D01*
D32*
X29000000Y25662500D02*
X29162500Y25662500D01*
D30*
X28500000Y25750000D02*
X29250000Y25750000D01*
X28700000Y62800000D02*
X27650000Y61750000D01*
X27650000Y61750000D02*
X21250000Y61750000D01*
D32*
X46000000Y46112501D02*
X46000000Y47000000D01*
D33*
X19837500Y39000000D02*
X19250000Y38412500D01*
X34600000Y39000000D02*
X19837500Y39000000D01*
D32*
X29000000Y17750000D02*
X28885000Y17635000D01*
D30*
X30200000Y18200000D02*
X39800000Y18200000D01*
X29635000Y17635000D02*
X30200000Y18200000D01*
X26475000Y17635000D02*
X29635000Y17635000D01*
D32*
X29000000Y17837500D02*
X29000000Y17750000D01*
D30*
X32600000Y61750000D02*
X31550000Y62800000D01*
X34750000Y61750000D02*
X32600000Y61750000D01*
X31550000Y62800000D02*
X28700000Y62800000D01*
D33*
X37800000Y49200000D02*
X29450000Y49200000D01*
X29450000Y49200000D02*
X28290000Y48040000D01*
D32*
X27000000Y47712500D02*
X27000000Y48000000D01*
X27000000Y48000000D02*
X26960000Y48040000D01*
D30*
X26960000Y48040000D02*
X24725000Y48040000D01*
X28290000Y48040000D02*
X26960000Y48040000D01*
D29*
%TO.N,+5V*%
X35500000Y88998000D02*
X35500000Y92000000D01*
X41250000Y97900000D02*
X41400000Y98050000D01*
X41250000Y95500000D02*
X41250000Y97900000D01*
X25392500Y75655000D02*
X22975000Y75655000D01*
X25487500Y75750000D02*
X25392500Y75655000D01*
X21412500Y77500000D02*
X21412500Y76087500D01*
X21845000Y75655000D02*
X22975000Y75655000D01*
X21412500Y76087500D02*
X21845000Y75655000D01*
X25487500Y75750000D02*
X25487500Y77587500D01*
X25487500Y77587500D02*
X26500000Y78600000D01*
X26595000Y85405000D02*
X26500000Y85500000D01*
D30*
X28725000Y85405000D02*
X26595000Y85405000D01*
D29*
X26500000Y78600000D02*
X26500000Y85500000D01*
X26500000Y85500000D02*
X26500000Y86000000D01*
X26500000Y86000000D02*
X25250000Y87250000D01*
X25250000Y87250000D02*
X25250000Y92000000D01*
X25250000Y92000000D02*
X35500000Y92000000D01*
X17500000Y92000000D02*
X14500000Y95000000D01*
X21675000Y94500000D02*
X21675000Y92075000D01*
X21675000Y92075000D02*
X21750000Y92000000D01*
X21750000Y92000000D02*
X17500000Y92000000D01*
X25250000Y92000000D02*
X21750000Y92000000D01*
X6250001Y92750000D02*
X9000000Y92750000D01*
X9000000Y92750000D02*
X11250000Y95000000D01*
X14500000Y95000000D02*
X11250000Y95000000D01*
X35500000Y92000000D02*
X37750000Y92000000D01*
X40000000Y94210000D02*
X40000000Y94250000D01*
X41210000Y93000000D02*
X40000000Y94210000D01*
X40000000Y94250000D02*
X41250000Y95500000D01*
X37750000Y92000000D02*
X40000000Y94250000D01*
%TO.N,+6V*%
X26475000Y29385000D02*
X21525000Y29385000D01*
X26475000Y29385000D02*
X29885000Y29385000D01*
X30750000Y31250000D02*
X31250000Y30750000D01*
X29885000Y29385000D02*
X31250000Y30750000D01*
X30687500Y31250000D02*
X30750000Y31250000D01*
X21525000Y29385000D02*
X20385000Y29385000D01*
X17337500Y26337500D02*
X17337500Y25500000D01*
X17337500Y29912500D02*
X19125000Y28125000D01*
X17337500Y30500000D02*
X17337500Y29912500D01*
X19125000Y28125000D02*
X17337500Y26337500D01*
X20385000Y29385000D02*
X19125000Y28125000D01*
D34*
X39700000Y39400000D02*
X39700000Y35500000D01*
X34950000Y30750000D02*
X31250000Y30750000D01*
X39700000Y35500000D02*
X34950000Y30750000D01*
D35*
X39700000Y39787500D02*
X44200000Y44287500D01*
D32*
X39700000Y39400000D02*
X39700000Y39787500D01*
X44200001Y44287501D02*
X44200000Y44287500D01*
D35*
X46000000Y44287501D02*
X44200001Y44287501D01*
D36*
%TO.N,sine*%
X7837500Y40350000D02*
X7837500Y38600000D01*
X2725000Y18712500D02*
X2750000Y18687500D01*
X2725000Y34415000D02*
X2750000Y34440000D01*
X2725000Y30025000D02*
X2725000Y34415000D01*
X12587500Y33500000D02*
X12587500Y32087500D01*
X10525000Y30025000D02*
X2725000Y30025000D01*
X2725000Y30025000D02*
X2725000Y18712500D01*
X12587500Y32087500D02*
X10525000Y30025000D01*
X12587500Y33500000D02*
X12587500Y33837500D01*
X16065000Y37315000D02*
X16975000Y37315000D01*
X12587500Y33837500D02*
X16065000Y37315000D01*
X6910000Y38600000D02*
X7837500Y38600000D01*
X2750000Y34440000D02*
X6910000Y38600000D01*
%TO.N,Net-(C6-Pad1)*%
X14412500Y33500000D02*
X15250000Y33500000D01*
X16500000Y32250000D02*
X17337500Y32250000D01*
X15250000Y33500000D02*
X16500000Y32250000D01*
D30*
%TO.N,-5V*%
X6500000Y85087500D02*
X4837500Y85087500D01*
X3500000Y83750000D02*
X3500000Y81190000D01*
X4837500Y85087500D02*
X3500000Y83750000D01*
X4340000Y80350000D02*
X6500000Y80350000D01*
X3500000Y81190000D02*
X4340000Y80350000D01*
X6500000Y80350000D02*
X7600000Y80350000D01*
X7600000Y80350000D02*
X8500000Y81250000D01*
X18337500Y81250000D02*
X19587500Y82500000D01*
X8500000Y81250000D02*
X18337500Y81250000D01*
D36*
%TO.N,Net-(C9-Pad1)*%
X40912500Y82300000D02*
X40912500Y84050000D01*
X43000000Y85800000D02*
X40912500Y85800000D01*
X40912500Y84050000D02*
X40912500Y85800000D01*
%TO.N,Net-(C10-Pad1)*%
X30242500Y81595000D02*
X31087500Y80750000D01*
X28725000Y81595000D02*
X30242500Y81595000D01*
X31087500Y82440000D02*
X31087500Y82500000D01*
X30242500Y81595000D02*
X31087500Y82440000D01*
X31087500Y80750000D02*
X31087500Y79000000D01*
X27750000Y73750000D02*
X28750000Y73750000D01*
X29168750Y74168750D02*
X29168750Y77081250D01*
X28750000Y73750000D02*
X29168750Y74168750D01*
X29168750Y77081250D02*
X31087500Y79000000D01*
%TO.N,Net-(C12-Pad2)*%
X23775000Y84135000D02*
X21460000Y84135000D01*
X21412500Y84087500D02*
X21412500Y82500000D01*
X21460000Y84135000D02*
X21412500Y84087500D01*
X21412500Y84500000D02*
X21412500Y84087500D01*
X19587500Y88000000D02*
X19587500Y86250000D01*
X19662500Y86250000D02*
X21412500Y84500000D01*
X19587500Y86250000D02*
X19662500Y86250000D01*
X19587500Y89750000D02*
X19587500Y88000000D01*
%TO.N,decayPin*%
X22257500Y85405000D02*
X21412500Y86250000D01*
X23775000Y85405000D02*
X22257500Y85405000D01*
X21412500Y86250000D02*
X21412500Y88000000D01*
X24595000Y85405000D02*
X23775000Y85405000D01*
X25200000Y79800000D02*
X25200000Y84800000D01*
X24400000Y79000000D02*
X25200000Y79800000D01*
X14250000Y78000000D02*
X15250000Y79000000D01*
X25200000Y84800000D02*
X24595000Y85405000D01*
X15250000Y79000000D02*
X24400000Y79000000D01*
X14250000Y75000000D02*
X14250000Y78000000D01*
X14865000Y74385000D02*
X14250000Y75000000D01*
X15650000Y74385000D02*
X14865000Y74385000D01*
D29*
%TO.N,-12V*%
X14775000Y59595000D02*
X12845000Y59595000D01*
X11250000Y58000000D02*
X3250000Y58000000D01*
X12845000Y59595000D02*
X11250000Y58000000D01*
X8500000Y45498000D02*
X8500000Y48000000D01*
X16337500Y67500000D02*
X13250000Y67500000D01*
D30*
X19595000Y15095000D02*
X21525000Y15095000D01*
D29*
X19162500Y15000000D02*
X17912500Y13750000D01*
X17912500Y13750000D02*
X10250000Y13750000D01*
D30*
X6500000Y86912500D02*
X5412500Y86912500D01*
X8000000Y31750000D02*
X4000000Y31750000D01*
X9662500Y33412500D02*
X8000000Y31750000D01*
X9707500Y36045000D02*
X9662500Y36000000D01*
X12025000Y36045000D02*
X9707500Y36045000D01*
X9662500Y36000000D02*
X9662500Y33412500D01*
D32*
X18250000Y105850000D02*
X18250000Y107050000D01*
D34*
X23350000Y100750000D02*
X18250000Y105850000D01*
X18200000Y107050000D02*
X16250000Y109000000D01*
D32*
X18250000Y107050000D02*
X18200000Y107050000D01*
X20337500Y42000000D02*
X20337500Y43750000D01*
X17600000Y47912500D02*
X17632500Y47912500D01*
D30*
X17760000Y48040000D02*
X17160000Y48040000D01*
D32*
X17632500Y47912500D02*
X17760000Y48040000D01*
D30*
X19775000Y48040000D02*
X17760000Y48040000D01*
X17160000Y48040000D02*
X15960000Y48040000D01*
X15440000Y48040000D02*
X8460000Y48040000D01*
X15960000Y48040000D02*
X15440000Y48040000D01*
D32*
X15960000Y45040000D02*
X15960000Y48040000D01*
X17250000Y43750000D02*
X15960000Y45040000D01*
X3290000Y48040000D02*
X3250000Y48000000D01*
D30*
X8460000Y48040000D02*
X3290000Y48040000D01*
D32*
X20337500Y43750000D02*
X17250000Y43750000D01*
D36*
%TO.N,Net-(C19-Pad1)*%
X24725000Y49310000D02*
X23560000Y49310000D01*
X23560000Y49310000D02*
X23000000Y48750000D01*
X23000000Y48750000D02*
X23000000Y47250000D01*
X23480000Y46770000D02*
X24725000Y46770000D01*
X23000000Y47250000D02*
X23480000Y46770000D01*
X29630000Y46770000D02*
X29640000Y46760000D01*
X24725000Y46770000D02*
X29630000Y46770000D01*
X26350000Y43250000D02*
X27820000Y43250000D01*
X29640000Y45070000D02*
X29640000Y46760000D01*
X27820000Y43250000D02*
X29640000Y45070000D01*
%TO.N,Net-(C22-Pad2)*%
X15750000Y18337500D02*
X15750000Y21500000D01*
X17337500Y16750000D02*
X15750000Y18337500D01*
X23305000Y24305000D02*
X20500000Y21500000D01*
X26475000Y24305000D02*
X23305000Y24305000D01*
X27337500Y23442500D02*
X26475000Y24305000D01*
X27337500Y21750000D02*
X27337500Y23442500D01*
%TO.N,noiseDrum*%
X19087500Y16750000D02*
X17337500Y18500000D01*
X19162500Y16750000D02*
X19087500Y16750000D01*
%TO.N,Net-(C23-Pad2)*%
X9662500Y38600000D02*
X9662500Y40350000D01*
X5500000Y34439999D02*
X5500000Y35250000D01*
X5500000Y34439999D02*
X5500000Y35750000D01*
X5500000Y35750000D02*
X7000000Y37250000D01*
X8312500Y37250000D02*
X9662500Y38600000D01*
X7000000Y37250000D02*
X8312500Y37250000D01*
X12010000Y38600000D02*
X12025000Y38585000D01*
X9662500Y38600000D02*
X12010000Y38600000D01*
X9662500Y42000000D02*
X9662500Y40350000D01*
%TO.N,Net-(C25-Pad1)*%
X37000000Y20498000D02*
X39500000Y20498000D01*
X42687500Y16725000D02*
X42662500Y16750000D01*
X42687500Y14750000D02*
X42687500Y16725000D01*
X42662500Y17335500D02*
X39500000Y20498000D01*
X42662500Y16750000D02*
X42662500Y17335500D01*
%TO.N,pulsePin*%
X21315000Y73115000D02*
X21200000Y73000000D01*
X36000000Y74000000D02*
X35400000Y73400000D01*
X42450000Y91700000D02*
X40300000Y91700000D01*
X40300000Y91700000D02*
X39725000Y91125000D01*
X43750000Y93000000D02*
X42450000Y91700000D01*
X39725000Y91125000D02*
X39725000Y89975000D01*
X39725000Y89975000D02*
X37000000Y87250000D01*
X37000000Y87250000D02*
X37000000Y82500000D01*
X37000000Y82500000D02*
X36000000Y81500000D01*
X36000000Y81500000D02*
X36000000Y74000000D01*
X22735000Y73000000D02*
X22850000Y73115000D01*
X21200000Y73000000D02*
X22735000Y73000000D01*
X25385000Y73115000D02*
X25450000Y73050000D01*
X25450000Y73050000D02*
X25450000Y73750000D01*
X22850000Y73115000D02*
X25385000Y73115000D01*
X25450000Y68550000D02*
X25450000Y73050000D01*
X26500000Y67500000D02*
X25450000Y68550000D01*
X30750000Y69500000D02*
X28750000Y67500000D01*
X28750000Y67500000D02*
X26500000Y67500000D01*
X41500000Y61750000D02*
X33750000Y69500000D01*
X40250000Y54000000D02*
X41500000Y55250000D01*
X40250000Y50250000D02*
X40250000Y54000000D01*
X33750000Y69500000D02*
X30750000Y69500000D01*
X41500000Y55250000D02*
X41500000Y61750000D01*
X40550000Y56800000D02*
X41400000Y56800000D01*
X32200000Y47712500D02*
X37712500Y47712500D01*
X37712500Y47712500D02*
X40250000Y50250000D01*
%TO.N,Net-(D2-Pad1)*%
X28100000Y71250000D02*
X27750000Y71600000D01*
X37250000Y71250000D02*
X28100000Y71250000D01*
X37750000Y71750000D02*
X37250000Y71250000D01*
X39087500Y82300000D02*
X37750000Y80962500D01*
X37750000Y80962500D02*
X37750000Y71750000D01*
D34*
%TO.N,Net-(D4-Pad2)*%
X33830000Y106520000D02*
X33830000Y103980000D01*
X34210000Y103600000D02*
X36500000Y103600000D01*
D32*
X33830000Y103980000D02*
X34210000Y103600000D01*
D34*
%TO.N,Net-(D5-Pad1)*%
X23670000Y106520000D02*
X23670000Y103980000D01*
X23670000Y103730000D02*
X26650000Y100750000D01*
D32*
X23670000Y103980000D02*
X23670000Y103730000D01*
D36*
%TO.N,Net-(D6-Pad2)*%
X5499999Y42060000D02*
X5500000Y42059999D01*
X2750000Y42060000D02*
X5499999Y42060000D01*
%TO.N,Net-(J1-PadT)*%
X9500000Y105587500D02*
X9500000Y106920000D01*
X16837500Y98250000D02*
X9500000Y105587500D01*
%TO.N,Net-(J2-PadT)*%
X5250000Y16812500D02*
X5250000Y16500000D01*
X9642500Y12420000D02*
X17750000Y12420000D01*
X5250000Y16812500D02*
X9642500Y12420000D01*
%TO.N,trigPin*%
X23500000Y97250000D02*
X23500000Y94500000D01*
X21215000Y74385000D02*
X21200000Y74400000D01*
X23500000Y94500000D02*
X23500000Y93250000D01*
X20500000Y75100000D02*
X21200000Y74400000D01*
X20500000Y78100000D02*
X20500000Y75100000D01*
X25700000Y79600000D02*
X24600000Y78500000D01*
X25700000Y85550000D02*
X25700000Y79600000D01*
X24600000Y78500000D02*
X20900000Y78500000D01*
X20900000Y78500000D02*
X20500000Y78100000D01*
X24500000Y89750000D02*
X24500000Y86750000D01*
X23500000Y90750000D02*
X24500000Y89750000D01*
X24500000Y86750000D02*
X25700000Y85550000D01*
X34800000Y74400000D02*
X35500000Y75100000D01*
X35500000Y75100000D02*
X35500000Y81750000D01*
X36000000Y82250000D02*
X36000000Y86250000D01*
X35500000Y81750000D02*
X36000000Y82250000D01*
X22835000Y74400000D02*
X22850000Y74385000D01*
X21200000Y74400000D02*
X22835000Y74400000D01*
%TO.N,pwmPin*%
X21245000Y71845000D02*
X21200000Y71800000D01*
X31087500Y73500000D02*
X32787500Y71800000D01*
X35400000Y71800000D02*
X35800000Y72200000D01*
X32787500Y71800000D02*
X35400000Y71800000D01*
X44500000Y89250000D02*
X47000000Y86750000D01*
X35800000Y72200000D02*
X36500000Y72900000D01*
X40960000Y90460000D02*
X41210000Y90460000D01*
X41540000Y90460000D02*
X42750000Y89250000D01*
X41210000Y90460000D02*
X41540000Y90460000D01*
X42750000Y89250000D02*
X44500000Y89250000D01*
X37500000Y87000000D02*
X40960000Y90460000D01*
X37500000Y87000000D02*
X37500000Y82250000D01*
X37500000Y82250000D02*
X36500000Y81250000D01*
X36500000Y81250000D02*
X36500000Y72900000D01*
X22805000Y71800000D02*
X22850000Y71845000D01*
X21200000Y71800000D02*
X22805000Y71800000D01*
X45162500Y79750000D02*
X45500000Y79750000D01*
X45500000Y79750000D02*
X47000000Y81250000D01*
X47000000Y86750000D02*
X47000000Y81250000D01*
%TO.N,RST*%
X19800000Y77287500D02*
X19587500Y77500000D01*
X43750000Y87920000D02*
X43330000Y87920000D01*
X43330000Y87920000D02*
X42047600Y89202400D01*
X42047600Y89202400D02*
X40452400Y89202400D01*
X40452400Y89202400D02*
X38000000Y86750000D01*
X38000000Y82000000D02*
X38000000Y86750000D01*
X37000000Y81000000D02*
X38000000Y82000000D01*
X37000000Y81000000D02*
X37000000Y72250000D01*
X21200000Y70400000D02*
X21100000Y70400000D01*
X21100000Y70400000D02*
X19587500Y71912500D01*
X19580000Y75655000D02*
X19587500Y75662500D01*
X15650000Y75655000D02*
X19580000Y75655000D01*
X19587500Y75662500D02*
X19587500Y77500000D01*
X19587500Y71912500D02*
X19587500Y75662500D01*
%TO.N,Net-(J4-PadT)*%
X18167500Y83080000D02*
X19587500Y84500000D01*
X13000000Y83080000D02*
X18167500Y83080000D01*
%TO.N,Net-(J6-PadT)*%
X10587500Y64750000D02*
X10500000Y64750000D01*
X9500000Y65500000D02*
X10250000Y64750000D01*
X10250000Y64750000D02*
X10587500Y64750000D01*
X37000000Y65500000D02*
X30500000Y65500000D01*
X21250000Y67000000D02*
X19000000Y69250000D01*
X30500000Y65500000D02*
X29000000Y67000000D01*
X41000000Y61500000D02*
X37000000Y65500000D01*
X9500000Y67000000D02*
X9500000Y65500000D01*
X11750000Y69250000D02*
X9500000Y67000000D01*
X29000000Y67000000D02*
X21250000Y67000000D01*
X41000000Y59200000D02*
X41000000Y61500000D01*
X19000000Y69250000D02*
X11750000Y69250000D01*
X39025000Y53445000D02*
X39025000Y57225000D01*
X38500000Y52920000D02*
X39025000Y53445000D01*
X39025000Y57225000D02*
X41000000Y59200000D01*
%TO.N,Net-(J7-PadT)*%
X10587500Y63000000D02*
X8750000Y64837500D01*
X8750000Y64837500D02*
X8750000Y68330000D01*
X8750000Y68330000D02*
X9500000Y69080000D01*
%TO.N,Net-(J8-PadT)*%
X2750000Y14920000D02*
X5250000Y12420000D01*
X2750000Y16812500D02*
X2750000Y14920000D01*
%TO.N,Net-(J9-PadT)*%
X40812500Y14357500D02*
X42750000Y12420000D01*
X40812500Y14750000D02*
X40812500Y14357500D01*
%TO.N,Net-(Q1-PadB)*%
X20950000Y98250000D02*
X21000000Y98200000D01*
X18662500Y98250000D02*
X20950000Y98250000D01*
%TO.N,Net-(Q2-PadB)*%
X3750001Y95749999D02*
X3750000Y95750000D01*
X3750001Y93700000D02*
X3750001Y95749999D01*
%TO.N,Net-(Q3-PadB)*%
X32912500Y74962500D02*
X33250000Y75300000D01*
X32912500Y73500000D02*
X32912500Y74962500D01*
%TO.N,Net-(Q3-PadC)*%
X30750000Y76837500D02*
X32912500Y79000000D01*
X30750000Y76250000D02*
X30750000Y76837500D01*
%TO.N,env2*%
X43250000Y62700000D02*
X44250000Y63700000D01*
X43250000Y60000000D02*
X43250000Y62700000D01*
X43387500Y82050000D02*
X43387500Y83512500D01*
X43387500Y83512500D02*
X43000000Y83900000D01*
X44250000Y81187500D02*
X43387500Y82050000D01*
X44250000Y81187500D02*
X44250000Y63700000D01*
%TO.N,Iexpo*%
X35750000Y62250000D02*
X35750000Y57662500D01*
X34450000Y63550000D02*
X35750000Y62250000D01*
X27150000Y63550000D02*
X34450000Y63550000D01*
%TO.N,noisePin*%
X5000000Y91250000D02*
X5000000Y95175000D01*
X4500000Y90750000D02*
X5000000Y91250000D01*
X2000000Y90750000D02*
X4500000Y90750000D01*
X1500000Y90250000D02*
X2000000Y90750000D01*
X5000000Y95175000D02*
X5575000Y95750000D01*
X3135000Y73115000D02*
X1500000Y74750000D01*
X1500000Y74750000D02*
X1500000Y90250000D01*
X15650000Y73115000D02*
X3135000Y73115000D01*
%TO.N,Net-(R10-Pad1)*%
X19162500Y32250000D02*
X19162500Y30500000D01*
X19317500Y30655000D02*
X19162500Y30500000D01*
X21525000Y30655000D02*
X19317500Y30655000D01*
%TO.N,Net-(R16-Pad2)*%
X28837500Y36500000D02*
X27750000Y36500000D01*
X27700000Y36500000D02*
X28837500Y36500000D01*
X24395000Y33195000D02*
X27700000Y36500000D01*
X21525000Y33195000D02*
X24395000Y33195000D01*
%TO.N,env1*%
X28725000Y82865000D02*
X28725000Y84135000D01*
X45000000Y27850000D02*
X45000000Y28250000D01*
X45000000Y29312500D02*
X43312500Y31000000D01*
X45000000Y27850000D02*
X45000000Y29312500D01*
X43312500Y31000000D02*
X43400000Y31000000D01*
X42600000Y31800000D02*
X42600000Y37600000D01*
X43400000Y31000000D02*
X42600000Y31800000D01*
X34700000Y36500000D02*
X30662500Y36500000D01*
X35400000Y37200000D02*
X34700000Y36500000D01*
X40750000Y49950000D02*
X35400000Y44600000D01*
X28725000Y82865000D02*
X27965000Y82865000D01*
X27300000Y82200000D02*
X27300000Y77900000D01*
X30500000Y70000000D02*
X34000000Y70000000D01*
X42000000Y55000000D02*
X40750000Y53750000D01*
X27300000Y77900000D02*
X26400000Y77000000D01*
X27965000Y82865000D02*
X27300000Y82200000D01*
X26400000Y68600000D02*
X27000000Y68000000D01*
X28500000Y68000000D02*
X30500000Y70000000D01*
X27000000Y68000000D02*
X28500000Y68000000D01*
X26400000Y77000000D02*
X26400000Y68600000D01*
X34000000Y70000000D02*
X42000000Y62000000D01*
X42000000Y62000000D02*
X42000000Y55000000D01*
X40750000Y53750000D02*
X40750000Y49950000D01*
X34600000Y37600000D02*
X35400000Y37600000D01*
X35400000Y37600000D02*
X35400000Y37200000D01*
X35400000Y44600000D02*
X35400000Y37600000D01*
%TO.N,Net-(R18-Pad1)*%
X21525000Y28115000D02*
X22385000Y28115000D01*
X21525000Y28115000D02*
X22885000Y28115000D01*
X22885000Y28115000D02*
X23250000Y27750000D01*
X23250000Y27750000D02*
X23250000Y26000000D01*
X22825000Y25575000D02*
X21525000Y25575000D01*
X23250000Y26000000D02*
X22825000Y25575000D01*
X19237500Y25575000D02*
X21525000Y25575000D01*
X19162500Y25500000D02*
X19237500Y25575000D01*
%TO.N,Net-(R20-Pad2)*%
X23000000Y89750000D02*
X23500000Y89250000D01*
X21412500Y89750000D02*
X23000000Y89750000D01*
X26500000Y89250000D02*
X26500000Y87750000D01*
X26500000Y87750000D02*
X27000000Y87250000D01*
X31252000Y87250000D02*
X33000000Y88998000D01*
X27000000Y87250000D02*
X31252000Y87250000D01*
%TO.N,sineDrum*%
X17337500Y22000000D02*
X17337500Y20250000D01*
%TO.N,Net-(R25-Pad1)*%
X28217500Y30655000D02*
X26475000Y30655000D01*
X28812500Y31250000D02*
X28217500Y30655000D01*
X28837500Y31275000D02*
X28812500Y31250000D01*
X28837500Y33250000D02*
X28837500Y31275000D01*
%TO.N,Net-(R29-Pad2)*%
X34302500Y54390000D02*
X24725000Y54390000D01*
X35750000Y55837500D02*
X34302500Y54390000D01*
%TO.N,Net-(R30-Pad2)*%
X26530000Y33250000D02*
X26475000Y33195000D01*
X26475000Y33195000D02*
X27032500Y33195000D01*
X27032500Y33195000D02*
X28837500Y35000000D01*
%TO.N,Net-(R31-Pad1)*%
X26475000Y25575000D02*
X25425000Y25575000D01*
X25425000Y25575000D02*
X24750000Y26250000D01*
X24750000Y26250000D02*
X24750000Y27500000D01*
X25365000Y28115000D02*
X26475000Y28115000D01*
X24750000Y27500000D02*
X25365000Y28115000D01*
X28222500Y28115000D02*
X26475000Y28115000D01*
X29000000Y27337500D02*
X28222500Y28115000D01*
%TO.N,triangle*%
X20920000Y50580000D02*
X19775000Y50580000D01*
X22250000Y49250000D02*
X20920000Y50580000D01*
X24725000Y45500000D02*
X22250000Y45500000D01*
X22250000Y45500000D02*
X22250000Y49250000D01*
X22250000Y43837500D02*
X22250000Y45500000D01*
X22162500Y43750000D02*
X22250000Y43837500D01*
X11487500Y42000000D02*
X12487500Y41000000D01*
X12487500Y41000000D02*
X20750000Y41000000D01*
X20750000Y41000000D02*
X21250000Y41500000D01*
X21250000Y42837500D02*
X22162500Y43750000D01*
X21250000Y41500000D02*
X21250000Y42837500D01*
%TO.N,Net-(R34-Pad1)*%
X18697500Y54390000D02*
X19775000Y54390000D01*
X17250000Y55837500D02*
X18697500Y54390000D01*
%TO.N,Net-(R35-Pad1)*%
X24725000Y51850000D02*
X19775000Y51850000D01*
X18350000Y51850000D02*
X19775000Y51850000D01*
X18000000Y49750000D02*
X18000000Y51500000D01*
X18000000Y51500000D02*
X18350000Y51850000D01*
X18440000Y49310000D02*
X18000000Y49750000D01*
X19775000Y49310000D02*
X18440000Y49310000D01*
X37500000Y55837500D02*
X35412500Y53750000D01*
X35412500Y53750000D02*
X27800000Y53750000D01*
X27800000Y53750000D02*
X25900000Y51850000D01*
X25900000Y51850000D02*
X24725000Y51850000D01*
%TO.N,Net-(R36-Pad2)*%
X37000000Y60000000D02*
X37250000Y60250000D01*
X37000000Y59998000D02*
X37000000Y60000000D01*
X12668750Y68581250D02*
X10587500Y66500000D01*
X18831250Y68581250D02*
X12668750Y68581250D01*
X28793750Y66456250D02*
X20956250Y66456250D01*
X20956250Y66456250D02*
X18831250Y68581250D01*
X30250000Y65000000D02*
X28793750Y66456250D01*
X33750000Y65000000D02*
X30250000Y65000000D01*
X37000000Y61750000D02*
X33750000Y65000000D01*
X37000000Y59998000D02*
X37000000Y61750000D01*
%TO.N,Net-(R36-Pad1)*%
X16337500Y65250000D02*
X16337500Y62587500D01*
X15885000Y62135000D02*
X14775000Y62135000D01*
X16337500Y62587500D02*
X15885000Y62135000D01*
X12460000Y62135000D02*
X12412500Y62087500D01*
X14775000Y62135000D02*
X12460000Y62135000D01*
X12412500Y62087500D02*
X12412500Y63000000D01*
X12412500Y61250000D02*
X12412500Y62087500D01*
X12412500Y66500000D02*
X12412500Y64750000D01*
X12412500Y64750000D02*
X12412500Y63000000D01*
%TO.N,Net-(R37-Pad2)*%
X3000000Y61250000D02*
X10587500Y61250000D01*
X2250000Y60500000D02*
X3000000Y61250000D01*
X2250000Y44750000D02*
X2250000Y60500000D01*
X3000000Y44000000D02*
X2250000Y44750000D01*
X9502000Y44000000D02*
X3000000Y44000000D01*
X11000000Y45498000D02*
X9502000Y44000000D01*
%TO.N,Net-(Q5-PadG)*%
X31400000Y43688600D02*
X28860000Y41148600D01*
X28461400Y40750000D02*
X25400000Y40750000D01*
X28860000Y41148600D02*
X28461400Y40750000D01*
X23412500Y40750000D02*
X22162500Y42000000D01*
X25400000Y40750000D02*
X23412500Y40750000D01*
%TO.N,Net-(R34-Pad2)*%
X19496100Y57662500D02*
X19960000Y57198600D01*
X17250000Y57662500D02*
X19496100Y57662500D01*
%TO.N,texture*%
X13500000Y22998000D02*
X11000000Y20498000D01*
X13500000Y34000000D02*
X13500000Y22998000D01*
X14000000Y34500000D02*
X13500000Y34000000D01*
X21187500Y34500000D02*
X24287500Y37600000D01*
X14000000Y34500000D02*
X21187500Y34500000D01*
%TO.N,Net-(R50-Pad1)*%
X13587500Y45410500D02*
X13500000Y45498000D01*
X13587500Y43250000D02*
X13587500Y45410500D01*
%TO.N,Net-(Q2-PadE)*%
X13500000Y20498000D02*
X10752000Y17750000D01*
X5250000Y18687500D02*
X5250000Y17750000D01*
X10752000Y17750000D02*
X5250000Y17750000D01*
X1000000Y18500000D02*
X1000000Y90750000D01*
X1750000Y17750000D02*
X1000000Y18500000D01*
X5250000Y17750000D02*
X1750000Y17750000D01*
X3750001Y91800000D02*
X3450001Y91500000D01*
X1750000Y91500000D02*
X1000000Y90750000D01*
X3450001Y91500000D02*
X1750000Y91500000D01*
%TO.N,env3*%
X43337500Y70750000D02*
X43750000Y70337500D01*
X43000000Y72550000D02*
X43750000Y71800000D01*
X43750000Y71800000D02*
X43750000Y70000000D01*
X43750000Y70337500D02*
X43750000Y70000000D01*
X42500000Y62750000D02*
X43750000Y64000000D01*
X42500000Y54750000D02*
X42500000Y62750000D01*
X41250000Y49650000D02*
X41250000Y53500000D01*
X43750000Y64000000D02*
X43750000Y70000000D01*
X36000000Y44400000D02*
X41250000Y49650000D01*
X36000000Y37000000D02*
X36000000Y44400000D01*
X34000000Y35000000D02*
X36000000Y37000000D01*
X41250000Y53500000D02*
X42500000Y54750000D01*
X30662500Y35000000D02*
X34000000Y35000000D01*
%TO.N,Net-(C1-Pad1)*%
X43337500Y74787500D02*
X43000000Y74450000D01*
X43337500Y76250000D02*
X43337500Y74787500D01*
X39737500Y74450000D02*
X43000000Y74450000D01*
X39500000Y74687500D02*
X39737500Y74450000D01*
X39337500Y74850000D02*
X39500000Y74687500D01*
X39337500Y76500000D02*
X39337500Y74850000D01*
X43337500Y78000000D02*
X43337500Y76250000D01*
%TO.N,Net-(C3-Pad1)*%
X26112500Y37600000D02*
X29200000Y37600000D01*
X29200000Y37600000D02*
X29800000Y37000000D01*
X29800000Y34112500D02*
X30662500Y33250000D01*
X29800000Y37000000D02*
X29800000Y34112500D01*
%TO.N,Net-(D9-Pad1)*%
X27750000Y69500000D02*
X28750000Y70500000D01*
X40000000Y72812500D02*
X40000000Y72500000D01*
X28750000Y70500000D02*
X37500000Y70500000D01*
X39500000Y72500000D02*
X37500000Y70500000D01*
X39500000Y72812500D02*
X39500000Y72500000D01*
%TO.N,Net-(Q9-PadB)*%
X41887500Y78300000D02*
X43337500Y79750000D01*
X41500000Y78300000D02*
X41887500Y78300000D01*
%TO.N,Net-(Q9-PadC)*%
X39000000Y78662500D02*
X41162500Y76500000D01*
X39000000Y79250000D02*
X39000000Y78662500D01*
%TO.N,Net-(J10-PadT)*%
X45187500Y31000000D02*
X47000000Y29187500D01*
X47000000Y29187500D02*
X47000000Y12500000D01*
X47000000Y12500000D02*
X45750000Y11250000D01*
X31420000Y11250000D02*
X30250000Y12420000D01*
X45750000Y11250000D02*
X31420000Y11250000D01*
%TO.N,Net-(Q6-Pad2)*%
X18162500Y65250000D02*
X18162500Y61337500D01*
X18635000Y60865000D02*
X19725000Y60865000D01*
X18162500Y61337500D02*
X18635000Y60865000D01*
X26500000Y63550000D02*
X26500000Y63000000D01*
X26500000Y63000000D02*
X26250000Y62750000D01*
X26250000Y62750000D02*
X24750000Y62750000D01*
X22250000Y65250000D02*
X18162500Y65250000D01*
X24750000Y62750000D02*
X22250000Y65250000D01*
%TO.N,Net-(Q6-Pad1)*%
X18162500Y67500000D02*
X19000000Y67500000D01*
X19000000Y67500000D02*
X20750000Y65750000D01*
X20750000Y65750000D02*
X22500000Y65750000D01*
X24700000Y63550000D02*
X25850000Y63550000D01*
X22500000Y65750000D02*
X24700000Y63550000D01*
X25850000Y63550000D02*
X25850000Y64100000D01*
X26500000Y64750000D02*
X26500000Y65450000D01*
X25850000Y64100000D02*
X26500000Y64750000D01*
%TO.N,Net-(C4-Pad2)*%
X19717500Y24305000D02*
X21525000Y24305000D01*
X19162500Y23750000D02*
X19717500Y24305000D01*
X19162500Y23750000D02*
X19162500Y22000000D01*
%TO.N,Net-(C8-Pad2)*%
X19162500Y20250000D02*
X19162500Y18500000D01*
X20027500Y17635000D02*
X19162500Y18500000D01*
X21525000Y17635000D02*
X20027500Y17635000D01*
X23337500Y22500000D02*
X23337500Y20750000D01*
X23337500Y20750000D02*
X23337500Y18337500D01*
X22635000Y17635000D02*
X21525000Y17635000D01*
X23337500Y18337500D02*
X22635000Y17635000D01*
%TO.N,Net-(C8-Pad1)*%
X25162500Y22500000D02*
X25162500Y20750000D01*
X25162500Y20750000D02*
X25000000Y20587500D01*
X25000000Y20587500D02*
X25000000Y16750000D01*
X25385000Y16365000D02*
X26475000Y16365000D01*
X25000000Y16750000D02*
X25385000Y16365000D01*
X33615000Y16365000D02*
X26475000Y16365000D01*
X34500000Y17250000D02*
X33615000Y16365000D01*
%TO.N,Net-(R27-Pad1)*%
X33940000Y44147500D02*
X32200000Y45887500D01*
X33940000Y41148600D02*
X33940000Y44147500D01*
%TD*%
M02*
