%TF.GenerationSoftware,KiCad,Pcbnew,(5.1.10)-1*%
%TF.CreationDate,2021-09-03T07:56:25-07:00*%
%TF.ProjectId,Foundation,466f756e-6461-4746-996f-6e2e6b696361,rev?*%
%TF.SameCoordinates,Original*%
%TF.FileFunction,Copper,L2,Bot*%
%TF.FilePolarity,Positive*%
%FSLAX46Y46*%
G04 Gerber Fmt 4.6, Leading zero omitted, Abs format (unit mm)*
G04 Created by KiCad (PCBNEW (5.1.10)-1) date 2021-09-03 07:56:25*
%MOMM*%
%LPD*%
G01*
G04 APERTURE LIST*
%TA.AperFunction,ComponentPad*%
%ADD10C,1.524000*%
%TD*%
%TA.AperFunction,ComponentPad*%
%ADD11C,2.000000*%
%TD*%
%TA.AperFunction,ComponentPad*%
%ADD12O,1.900000X1.200000*%
%TD*%
%TA.AperFunction,ComponentPad*%
%ADD13O,2.100000X1.200000*%
%TD*%
%TA.AperFunction,ComponentPad*%
%ADD14O,2.100000X1.100000*%
%TD*%
%TA.AperFunction,ComponentPad*%
%ADD15C,2.800000*%
%TD*%
%TA.AperFunction,ComponentPad*%
%ADD16C,1.800000*%
%TD*%
%TA.AperFunction,ComponentPad*%
%ADD17R,2.000000X2.000000*%
%TD*%
%TA.AperFunction,ComponentPad*%
%ADD18R,1.700000X1.700000*%
%TD*%
%TA.AperFunction,ComponentPad*%
%ADD19O,1.700000X1.700000*%
%TD*%
%TA.AperFunction,ComponentPad*%
%ADD20C,1.650000*%
%TD*%
%TA.AperFunction,ViaPad*%
%ADD21C,0.800000*%
%TD*%
%TA.AperFunction,Conductor*%
%ADD22C,0.650000*%
%TD*%
%TA.AperFunction,Conductor*%
%ADD23C,0.800000*%
%TD*%
%TA.AperFunction,Conductor*%
%ADD24C,1.000000*%
%TD*%
%TA.AperFunction,Conductor*%
%ADD25C,0.600000*%
%TD*%
%TA.AperFunction,Conductor*%
%ADD26C,0.500000*%
%TD*%
%TA.AperFunction,Conductor*%
%ADD27C,0.250000*%
%TD*%
%TA.AperFunction,Conductor*%
%ADD28C,0.254000*%
%TD*%
%TA.AperFunction,Conductor*%
%ADD29C,0.100000*%
%TD*%
G04 APERTURE END LIST*
D10*
%TO.P,C19,2*%
%TO.N,GND*%
X29640000Y51840000D03*
%TO.P,C19,1*%
%TO.N,Net-(C19-Pad1)*%
X29640000Y46760000D03*
%TD*%
D11*
%TO.P,RV7,3*%
%TO.N,Net-(Q5-PadG)*%
X28860000Y41148600D03*
%TO.P,RV7,2*%
X31400000Y43688600D03*
%TO.P,RV7,1*%
%TO.N,Net-(R27-Pad1)*%
X33940000Y41148600D03*
%TD*%
D12*
%TO.P,J6,S*%
%TO.N,GND*%
X37500000Y42379500D03*
D13*
%TO.P,J6,TN*%
X38500000Y44620000D03*
D14*
%TO.P,J6,T*%
%TO.N,Net-(J6-PadT)*%
X38500000Y52920000D03*
%TD*%
D15*
%TO.P,RV6,*%
%TO.N,*%
X32200000Y27998000D03*
X41800000Y27998000D03*
D16*
%TO.P,RV6,1*%
%TO.N,Net-(C8-Pad1)*%
X34500000Y20498000D03*
%TO.P,RV6,3*%
%TO.N,Net-(C25-Pad1)*%
X39500000Y20498000D03*
%TO.P,RV6,2*%
X37000000Y20498000D03*
%TD*%
D11*
%TO.P,D6,2*%
%TO.N,Net-(D6-Pad2)*%
X5500000Y42059999D03*
D17*
%TO.P,D6,1*%
%TO.N,Net-(C23-Pad2)*%
X5500000Y34439999D03*
%TD*%
D11*
%TO.P,D7,2*%
%TO.N,Net-(D6-Pad2)*%
X2750000Y42060000D03*
D17*
%TO.P,D7,1*%
%TO.N,sine*%
X2750000Y34440000D03*
%TD*%
D11*
%TO.P,D1,2*%
%TO.N,-5V*%
X3500000Y81190000D03*
D17*
%TO.P,D1,1*%
%TO.N,GND*%
X3500000Y88810000D03*
%TD*%
D18*
%TO.P,J3,1*%
%TO.N,pulsePin*%
X43750000Y93000000D03*
D19*
%TO.P,J3,2*%
%TO.N,+5V*%
X41210000Y93000000D03*
%TO.P,J3,3*%
%TO.N,trigPin*%
X43750000Y90460000D03*
%TO.P,J3,4*%
%TO.N,pwmPin*%
X41210000Y90460000D03*
%TO.P,J3,5*%
%TO.N,RST*%
X43750000Y87920000D03*
%TO.P,J3,6*%
%TO.N,GND*%
X41210000Y87920000D03*
%TD*%
D12*
%TO.P,J10,S*%
%TO.N,GND*%
X30250000Y1879500D03*
D13*
%TO.P,J10,TN*%
%TO.N,Net-(J10-PadTN)*%
X30250000Y4120000D03*
D14*
%TO.P,J10,T*%
%TO.N,Net-(J10-PadT)*%
X30250000Y12420000D03*
%TD*%
D15*
%TO.P,RV3,*%
%TO.N,*%
X32200000Y67498000D03*
X41800000Y67498000D03*
D20*
%TO.P,RV3,1*%
%TO.N,GND*%
X34500000Y59998000D03*
D16*
%TO.P,RV3,3*%
%TO.N,env2*%
X39500000Y59998000D03*
D20*
%TO.P,RV3,2*%
%TO.N,Net-(R36-Pad2)*%
X37000000Y59998000D03*
%TD*%
D15*
%TO.P,RV1,*%
%TO.N,*%
X28200000Y96498000D03*
X37800000Y96498000D03*
D16*
%TO.P,RV1,1*%
%TO.N,GND*%
X30500000Y88998000D03*
%TO.P,RV1,3*%
%TO.N,+5V*%
X35500000Y88998000D03*
%TO.P,RV1,2*%
%TO.N,Net-(R20-Pad2)*%
X33000000Y88998000D03*
%TD*%
D11*
%TO.P,RV2,3*%
%TO.N,Net-(R34-Pad2)*%
X19960000Y57198600D03*
%TO.P,RV2,2*%
%TO.N,GND*%
X22500000Y59738600D03*
%TO.P,RV2,1*%
X25040000Y57198600D03*
%TD*%
%TO.P,J5,10*%
%TO.N,Net-(D4-Pad2)*%
X33830000Y103980000D03*
%TO.P,J5,9*%
X33830000Y106520000D03*
%TO.P,J5,8*%
%TO.N,GND*%
X31290000Y103980000D03*
%TO.P,J5,7*%
X31290000Y106520000D03*
%TO.P,J5,6*%
X28750000Y103980000D03*
%TO.P,J5,5*%
X28750000Y106520000D03*
%TO.P,J5,4*%
X26210000Y103980000D03*
%TO.P,J5,3*%
X26210000Y106520000D03*
%TO.P,J5,2*%
%TO.N,Net-(D5-Pad1)*%
X23670000Y103980000D03*
%TO.P,J5,1*%
X23670000Y106520000D03*
%TD*%
D15*
%TO.P,RV5,*%
%TO.N,*%
X6200000Y27998000D03*
X15800000Y27998000D03*
D16*
%TO.P,RV5,1*%
%TO.N,GND*%
X8500000Y20498000D03*
%TO.P,RV5,3*%
%TO.N,Net-(Q2-PadE)*%
X13500000Y20498000D03*
%TO.P,RV5,2*%
%TO.N,texture*%
X11000000Y20498000D03*
%TD*%
D15*
%TO.P,RV4,*%
%TO.N,*%
X6200000Y52998000D03*
X15800000Y52998000D03*
D16*
%TO.P,RV4,1*%
%TO.N,-12V*%
X8500000Y45498000D03*
%TO.P,RV4,3*%
%TO.N,Net-(R50-Pad1)*%
X13500000Y45498000D03*
%TO.P,RV4,2*%
%TO.N,Net-(R37-Pad2)*%
X11000000Y45498000D03*
%TD*%
D12*
%TO.P,J9,S*%
%TO.N,GND*%
X42750000Y1879500D03*
D13*
%TO.P,J9,TN*%
%TO.N,Net-(J9-PadTN)*%
X42750000Y4120000D03*
D14*
%TO.P,J9,T*%
%TO.N,Net-(J9-PadT)*%
X42750000Y12420000D03*
%TD*%
D12*
%TO.P,J8,S*%
%TO.N,GND*%
X5250000Y1879500D03*
D13*
%TO.P,J8,TN*%
%TO.N,Net-(J8-PadTN)*%
X5250000Y4120000D03*
D14*
%TO.P,J8,T*%
%TO.N,Net-(J8-PadT)*%
X5250000Y12420000D03*
%TD*%
D12*
%TO.P,J7,S*%
%TO.N,GND*%
X9500000Y79620500D03*
D13*
%TO.P,J7,TN*%
X9500000Y77380000D03*
D14*
%TO.P,J7,T*%
%TO.N,Net-(J7-PadT)*%
X9500000Y69080000D03*
%TD*%
D12*
%TO.P,J4,S*%
%TO.N,GND*%
X13000000Y93620500D03*
D13*
%TO.P,J4,TN*%
X13000000Y91380000D03*
D14*
%TO.P,J4,T*%
%TO.N,Net-(J4-PadT)*%
X13000000Y83080000D03*
%TD*%
D12*
%TO.P,J2,S*%
%TO.N,GND*%
X17750000Y1879500D03*
D13*
%TO.P,J2,TN*%
%TO.N,Net-(J2-PadTN)*%
X17750000Y4120000D03*
D14*
%TO.P,J2,T*%
%TO.N,Net-(J2-PadT)*%
X17750000Y12420000D03*
%TD*%
D12*
%TO.P,J1,S*%
%TO.N,GND*%
X9500000Y96379500D03*
D13*
%TO.P,J1,TN*%
X9500000Y98620000D03*
D14*
%TO.P,J1,T*%
%TO.N,Net-(J1-PadT)*%
X9500000Y106920000D03*
%TD*%
D21*
%TO.N,GND*%
X19500000Y96250000D03*
X34250000Y77250000D03*
X27400000Y76800000D03*
X23750000Y80500000D03*
X45250000Y69500000D03*
X16135000Y60865000D03*
X20412500Y36587500D03*
X20095000Y26845000D03*
X22865000Y16365000D03*
X34000000Y82500000D03*
X45500000Y75250000D03*
X45500000Y95500000D03*
X42500000Y99000000D03*
X9500000Y59500000D03*
X16250000Y15000000D03*
X16000000Y23750000D03*
X45250000Y81000000D03*
X39087500Y86587500D03*
X8150000Y83150000D03*
X14405000Y71845000D03*
X26420000Y50580000D03*
X7837500Y34837500D03*
X10565000Y37315000D03*
X27950000Y65450000D03*
X25050000Y65450000D03*
X21250000Y64250000D03*
X45000000Y23250000D03*
X41500000Y81000000D03*
X16550000Y101450000D03*
X39950000Y103300000D03*
X39750000Y16750000D03*
X29837500Y19662500D03*
X30250000Y21750000D03*
X29962500Y23837500D03*
X27000000Y45000000D03*
X45300000Y40700000D03*
X44200000Y47000000D03*
X37500000Y58500000D03*
X44800000Y56800000D03*
X24450000Y44350000D03*
X17800000Y45200000D03*
X15412500Y42337500D03*
%TO.N,+12V*%
X45750000Y25750000D03*
X34750000Y61750000D03*
X45500000Y72250000D03*
X45500000Y86000000D03*
X44700000Y99950000D03*
X44700000Y98050000D03*
X47000000Y103500000D03*
X37800000Y49200000D03*
X46000000Y47000000D03*
X34600000Y39000000D03*
X39800000Y18200000D03*
%TO.N,-12V*%
X3250000Y58000000D03*
X3250000Y48000000D03*
X13250000Y67500000D03*
X10250000Y13750000D03*
X5412500Y86912500D03*
X4000000Y31750000D03*
X16250000Y109000000D03*
%TO.N,Net-(C22-Pad2)*%
X15750000Y21500000D03*
X20500000Y21500000D03*
%TO.N,pulsePin*%
X21200000Y73000000D03*
X35250000Y73400000D03*
%TO.N,trigPin*%
X21200000Y74400000D03*
X34800000Y74400000D03*
X23500000Y93250000D03*
X23500000Y90750000D03*
X36000000Y86250000D03*
%TO.N,pwmPin*%
X21200000Y71800000D03*
X35800000Y72200000D03*
%TO.N,RST*%
X21200000Y70400000D03*
X37000000Y72250000D03*
%TO.N,env2*%
X43250000Y60000000D03*
%TO.N,env1*%
X42600000Y37600000D03*
X34600000Y37600000D03*
%TO.N,Net-(R20-Pad2)*%
X23500000Y89250000D03*
X26500000Y89250000D03*
%TO.N,Net-(C8-Pad1)*%
X34500000Y17250000D03*
%TD*%
D22*
%TO.N,+12V*%
X46750000Y25750000D02*
X47000000Y26000000D01*
X45750000Y25750000D02*
X46750000Y25750000D01*
D23*
X34750000Y61750000D02*
X47000000Y61750000D01*
D24*
X47000000Y98250000D02*
X47000000Y61750000D01*
D22*
X46750000Y86000000D02*
X47000000Y86250000D01*
X45500000Y86000000D02*
X46750000Y86000000D01*
X45500000Y72250000D02*
X47000000Y72250000D01*
D24*
X47000000Y99750000D02*
X47000000Y98250000D01*
D25*
X46800000Y99950000D02*
X47000000Y99750000D01*
D22*
X44700000Y99950000D02*
X46800000Y99950000D01*
D24*
X47000000Y103500000D02*
X47000000Y99750000D01*
D25*
X46800000Y98050000D02*
X47000000Y98250000D01*
D22*
X44700000Y98050000D02*
X46800000Y98050000D01*
D24*
X47000000Y46800000D02*
X47000000Y39000000D01*
X47000000Y48800000D02*
X47000000Y46800000D01*
X47000000Y61750000D02*
X47000000Y48800000D01*
D26*
X46600000Y49200000D02*
X47000000Y48800000D01*
D23*
X37800000Y49200000D02*
X46600000Y49200000D01*
D24*
X47000000Y39000000D02*
X47000000Y26000000D01*
D26*
X46800000Y47000000D02*
X47000000Y46800000D01*
X46000000Y47000000D02*
X46800000Y47000000D01*
D23*
X34600000Y39000000D02*
X47000000Y39000000D01*
D24*
X47000000Y26000000D02*
X47000000Y18200000D01*
D23*
X47000000Y18200000D02*
X39800000Y18200000D01*
D24*
%TO.N,-12V*%
X3500000Y109000000D02*
X16250000Y109000000D01*
X1000000Y106500000D02*
X3500000Y109000000D01*
X1000000Y31500000D02*
X1000000Y48000000D01*
X1000000Y48000000D02*
X1000000Y58000000D01*
X1000000Y58000000D02*
X1000000Y67250000D01*
D22*
X3250000Y58000000D02*
X1000000Y58000000D01*
X3250000Y48000000D02*
X1000000Y48000000D01*
D24*
X1000000Y67250000D02*
X1000000Y87000000D01*
D22*
X13250000Y67500000D02*
X1250000Y67500000D01*
X1250000Y67500000D02*
X1000000Y67250000D01*
D23*
X10250000Y13750000D02*
X1000000Y13750000D01*
D25*
X1087500Y86912500D02*
X1000000Y87000000D01*
X5412500Y86912500D02*
X1087500Y86912500D01*
D24*
X1000000Y87000000D02*
X1000000Y106500000D01*
D25*
X4000000Y31750000D02*
X1250000Y31750000D01*
X1250000Y31750000D02*
X1000000Y31500000D01*
D24*
X1000000Y13750000D02*
X1000000Y31500000D01*
D27*
%TO.N,Net-(C22-Pad2)*%
X15750000Y21500000D02*
X20500000Y21500000D01*
%TO.N,pulsePin*%
X21200000Y73000000D02*
X21800000Y72400000D01*
X34250000Y72400000D02*
X21800000Y72400000D01*
X35250000Y73400000D02*
X34250000Y72400000D01*
%TO.N,trigPin*%
X21200000Y74400000D02*
X22600000Y73000000D01*
X33400000Y73000000D02*
X34800000Y74400000D01*
X22600000Y73000000D02*
X33400000Y73000000D01*
X23500000Y93250000D02*
X23500000Y90750000D01*
X38950000Y89200000D02*
X42490000Y89200000D01*
X36000000Y86250000D02*
X38950000Y89200000D01*
X42490000Y89200000D02*
X43750000Y90460000D01*
%TO.N,pwmPin*%
X35400000Y71800000D02*
X21200000Y71800000D01*
X35800000Y72200000D02*
X35400000Y71800000D01*
%TO.N,RST*%
X22000000Y71200000D02*
X21200000Y70400000D01*
X36000000Y71200000D02*
X22000000Y71200000D01*
X37000000Y72200000D02*
X36000000Y71200000D01*
%TO.N,env2*%
X43248000Y59998000D02*
X43250000Y60000000D01*
X39500000Y59998000D02*
X43248000Y59998000D01*
%TO.N,env1*%
X42600000Y37600000D02*
X34600000Y37600000D01*
%TO.N,Net-(R20-Pad2)*%
X23500000Y89250000D02*
X26500000Y89250000D01*
%TO.N,Net-(C8-Pad1)*%
X34500000Y20498000D02*
X34500000Y17250000D01*
%TD*%
D28*
%TO.N,GND*%
X47340001Y104582933D02*
X47222498Y104618577D01*
X47000000Y104640491D01*
X46777501Y104618577D01*
X46563553Y104553676D01*
X46366377Y104448284D01*
X46193551Y104306449D01*
X46051716Y104133623D01*
X45946324Y103936446D01*
X45881423Y103722498D01*
X45865000Y103555751D01*
X45865001Y100910000D01*
X45086940Y100910000D01*
X45001898Y100945226D01*
X44801939Y100985000D01*
X44598061Y100985000D01*
X44398102Y100945226D01*
X44209744Y100867205D01*
X44040226Y100753937D01*
X43896063Y100609774D01*
X43782795Y100440256D01*
X43704774Y100251898D01*
X43665000Y100051939D01*
X43665000Y99848061D01*
X43704774Y99648102D01*
X43782795Y99459744D01*
X43896063Y99290226D01*
X44040226Y99146063D01*
X44209744Y99032795D01*
X44288918Y99000000D01*
X44209744Y98967205D01*
X44040226Y98853937D01*
X43896063Y98709774D01*
X43782795Y98540256D01*
X43704774Y98351898D01*
X43665000Y98151939D01*
X43665000Y97948061D01*
X43704774Y97748102D01*
X43782795Y97559744D01*
X43896063Y97390226D01*
X44040226Y97246063D01*
X44209744Y97132795D01*
X44398102Y97054774D01*
X44598061Y97015000D01*
X44801939Y97015000D01*
X45001898Y97054774D01*
X45086940Y97090000D01*
X45865000Y97090000D01*
X45865000Y86969088D01*
X45801898Y86995226D01*
X45601939Y87035000D01*
X45398061Y87035000D01*
X45198102Y86995226D01*
X45009744Y86917205D01*
X44840226Y86803937D01*
X44696063Y86659774D01*
X44582795Y86490256D01*
X44504774Y86301898D01*
X44465000Y86101939D01*
X44465000Y85898061D01*
X44504774Y85698102D01*
X44582795Y85509744D01*
X44696063Y85340226D01*
X44840226Y85196063D01*
X45009744Y85082795D01*
X45198102Y85004774D01*
X45398061Y84965000D01*
X45601939Y84965000D01*
X45801898Y85004774D01*
X45865000Y85030912D01*
X45865001Y73219088D01*
X45801898Y73245226D01*
X45601939Y73285000D01*
X45398061Y73285000D01*
X45198102Y73245226D01*
X45009744Y73167205D01*
X44840226Y73053937D01*
X44696063Y72909774D01*
X44582795Y72740256D01*
X44504774Y72551898D01*
X44465000Y72351939D01*
X44465000Y72148061D01*
X44504774Y71948102D01*
X44582795Y71759744D01*
X44696063Y71590226D01*
X44840226Y71446063D01*
X45009744Y71332795D01*
X45198102Y71254774D01*
X45398061Y71215000D01*
X45601939Y71215000D01*
X45801898Y71254774D01*
X45865001Y71280912D01*
X45865001Y62785000D01*
X34648061Y62785000D01*
X34597943Y62775031D01*
X34547105Y62770024D01*
X34498223Y62755196D01*
X34448102Y62745226D01*
X34400887Y62725669D01*
X34352007Y62710841D01*
X34306958Y62686762D01*
X34259744Y62667205D01*
X34217254Y62638814D01*
X34172203Y62614734D01*
X34132716Y62582328D01*
X34090226Y62553937D01*
X34054092Y62517803D01*
X34014604Y62485396D01*
X33982197Y62445908D01*
X33946063Y62409774D01*
X33917672Y62367284D01*
X33885266Y62327797D01*
X33861186Y62282746D01*
X33832795Y62240256D01*
X33813238Y62193042D01*
X33789159Y62147993D01*
X33774331Y62099113D01*
X33754774Y62051898D01*
X33744804Y62001777D01*
X33729976Y61952895D01*
X33724969Y61902057D01*
X33715000Y61851939D01*
X33715000Y61800838D01*
X33709993Y61750000D01*
X33715000Y61699162D01*
X33715000Y61648061D01*
X33724969Y61597943D01*
X33729976Y61547105D01*
X33744804Y61498223D01*
X33754774Y61448102D01*
X33774331Y61400887D01*
X33789159Y61352007D01*
X33813238Y61306958D01*
X33818222Y61294926D01*
X33743663Y61255073D01*
X33669054Y61008551D01*
X34500000Y60177605D01*
X34514143Y60191748D01*
X34693748Y60012143D01*
X34679605Y59998000D01*
X35510551Y59167054D01*
X35750725Y59239742D01*
X35865944Y59067304D01*
X36069304Y58863944D01*
X36308431Y58704165D01*
X36574134Y58594107D01*
X36856203Y58538000D01*
X37143797Y58538000D01*
X37425866Y58594107D01*
X37691569Y58704165D01*
X37930696Y58863944D01*
X38134056Y59067304D01*
X38204899Y59173329D01*
X38307688Y59019495D01*
X38521495Y58805688D01*
X38772905Y58637701D01*
X39052257Y58521989D01*
X39348816Y58463000D01*
X39651184Y58463000D01*
X39947743Y58521989D01*
X40227095Y58637701D01*
X40478505Y58805688D01*
X40692312Y59019495D01*
X40838313Y59238000D01*
X42548289Y59238000D01*
X42590226Y59196063D01*
X42759744Y59082795D01*
X42948102Y59004774D01*
X43148061Y58965000D01*
X43351939Y58965000D01*
X43551898Y59004774D01*
X43740256Y59082795D01*
X43909774Y59196063D01*
X44053937Y59340226D01*
X44167205Y59509744D01*
X44245226Y59698102D01*
X44285000Y59898061D01*
X44285000Y60101939D01*
X44245226Y60301898D01*
X44167205Y60490256D01*
X44053937Y60659774D01*
X43998711Y60715000D01*
X45865000Y60715000D01*
X45865001Y50235000D01*
X37698061Y50235000D01*
X37647943Y50225031D01*
X37597105Y50220024D01*
X37548223Y50205196D01*
X37498102Y50195226D01*
X37450887Y50175669D01*
X37402007Y50160841D01*
X37356958Y50136762D01*
X37309744Y50117205D01*
X37267254Y50088814D01*
X37222203Y50064734D01*
X37182716Y50032328D01*
X37140226Y50003937D01*
X37104092Y49967803D01*
X37064604Y49935396D01*
X37032197Y49895908D01*
X36996063Y49859774D01*
X36967672Y49817284D01*
X36935266Y49777797D01*
X36911186Y49732746D01*
X36882795Y49690256D01*
X36863238Y49643042D01*
X36839159Y49597993D01*
X36824331Y49549113D01*
X36804774Y49501898D01*
X36794804Y49451777D01*
X36779976Y49402895D01*
X36774969Y49352057D01*
X36765000Y49301939D01*
X36765000Y49250838D01*
X36759993Y49200000D01*
X36765000Y49149162D01*
X36765000Y49098061D01*
X36774969Y49047943D01*
X36779976Y48997105D01*
X36794804Y48948223D01*
X36804774Y48898102D01*
X36824331Y48850887D01*
X36839159Y48802007D01*
X36863238Y48756958D01*
X36882795Y48709744D01*
X36911186Y48667254D01*
X36935266Y48622203D01*
X36967672Y48582716D01*
X36996063Y48540226D01*
X37032197Y48504092D01*
X37064604Y48464604D01*
X37104092Y48432197D01*
X37140226Y48396063D01*
X37182716Y48367672D01*
X37222203Y48335266D01*
X37267254Y48311186D01*
X37309744Y48282795D01*
X37356958Y48263238D01*
X37402007Y48239159D01*
X37450887Y48224331D01*
X37498102Y48204774D01*
X37548223Y48194804D01*
X37597105Y48179976D01*
X37647943Y48174969D01*
X37698061Y48165000D01*
X45865000Y48165000D01*
X45865000Y48028424D01*
X45698102Y47995226D01*
X45509744Y47917205D01*
X45340226Y47803937D01*
X45196063Y47659774D01*
X45082795Y47490256D01*
X45004774Y47301898D01*
X44965000Y47101939D01*
X44965000Y46898061D01*
X45004774Y46698102D01*
X45082795Y46509744D01*
X45196063Y46340226D01*
X45340226Y46196063D01*
X45509744Y46082795D01*
X45698102Y46004774D01*
X45865000Y45971576D01*
X45865001Y40035000D01*
X35138639Y40035000D01*
X35209987Y40106348D01*
X35388918Y40374137D01*
X35512168Y40671688D01*
X35575000Y40987567D01*
X35575000Y41309633D01*
X35512168Y41625512D01*
X35388918Y41923063D01*
X35296157Y42061891D01*
X35956538Y42061891D01*
X35960409Y42024218D01*
X36052579Y41798967D01*
X36186922Y41596026D01*
X36358275Y41423193D01*
X36560054Y41287110D01*
X36784504Y41193007D01*
X37023000Y41144500D01*
X37373000Y41144500D01*
X37373000Y42252500D01*
X37627000Y42252500D01*
X37627000Y41144500D01*
X37977000Y41144500D01*
X38215496Y41193007D01*
X38439946Y41287110D01*
X38641725Y41423193D01*
X38813078Y41596026D01*
X38947421Y41798967D01*
X39039591Y42024218D01*
X39043462Y42061891D01*
X38918731Y42252500D01*
X37627000Y42252500D01*
X37373000Y42252500D01*
X36081269Y42252500D01*
X35956538Y42061891D01*
X35296157Y42061891D01*
X35209987Y42190852D01*
X34982252Y42418587D01*
X34714463Y42597518D01*
X34474030Y42697109D01*
X35956538Y42697109D01*
X36081269Y42506500D01*
X37373000Y42506500D01*
X37373000Y42526500D01*
X37627000Y42526500D01*
X37627000Y42506500D01*
X38918731Y42506500D01*
X39043462Y42697109D01*
X39039591Y42734782D01*
X38947421Y42960033D01*
X38813078Y43162974D01*
X38641725Y43335807D01*
X38568783Y43385000D01*
X39077000Y43385000D01*
X39315496Y43433507D01*
X39539946Y43527610D01*
X39741725Y43663693D01*
X39913078Y43836526D01*
X40047421Y44039467D01*
X40139591Y44264718D01*
X40143462Y44302391D01*
X40018731Y44493000D01*
X38627000Y44493000D01*
X38627000Y44473000D01*
X38373000Y44473000D01*
X38373000Y44493000D01*
X36981269Y44493000D01*
X36856538Y44302391D01*
X36860409Y44264718D01*
X36952579Y44039467D01*
X37086922Y43836526D01*
X37258275Y43663693D01*
X37331217Y43614500D01*
X37023000Y43614500D01*
X36784504Y43565993D01*
X36560054Y43471890D01*
X36358275Y43335807D01*
X36186922Y43162974D01*
X36052579Y42960033D01*
X35960409Y42734782D01*
X35956538Y42697109D01*
X34474030Y42697109D01*
X34416912Y42720768D01*
X34101033Y42783600D01*
X33778967Y42783600D01*
X33463088Y42720768D01*
X33165537Y42597518D01*
X32897748Y42418587D01*
X32670013Y42190852D01*
X32491082Y41923063D01*
X32367832Y41625512D01*
X32305000Y41309633D01*
X32305000Y40987567D01*
X32367832Y40671688D01*
X32491082Y40374137D01*
X32670013Y40106348D01*
X32897748Y39878613D01*
X33165537Y39699682D01*
X33463088Y39576432D01*
X33707846Y39527747D01*
X33682795Y39490256D01*
X33663238Y39443042D01*
X33639159Y39397993D01*
X33624331Y39349113D01*
X33604774Y39301898D01*
X33594804Y39251777D01*
X33579976Y39202895D01*
X33574969Y39152057D01*
X33565000Y39101939D01*
X33565000Y39050838D01*
X33559993Y39000000D01*
X33565000Y38949162D01*
X33565000Y38898061D01*
X33574969Y38847943D01*
X33579976Y38797105D01*
X33594804Y38748223D01*
X33604774Y38698102D01*
X33624331Y38650887D01*
X33639159Y38602007D01*
X33663238Y38556958D01*
X33682795Y38509744D01*
X33711186Y38467254D01*
X33735266Y38422203D01*
X33767672Y38382716D01*
X33796063Y38340226D01*
X33832197Y38304092D01*
X33835886Y38299597D01*
X33796063Y38259774D01*
X33682795Y38090256D01*
X33604774Y37901898D01*
X33565000Y37701939D01*
X33565000Y37498061D01*
X33604774Y37298102D01*
X33682795Y37109744D01*
X33796063Y36940226D01*
X33940226Y36796063D01*
X34109744Y36682795D01*
X34298102Y36604774D01*
X34498061Y36565000D01*
X34701939Y36565000D01*
X34901898Y36604774D01*
X35090256Y36682795D01*
X35259774Y36796063D01*
X35303711Y36840000D01*
X41896289Y36840000D01*
X41940226Y36796063D01*
X42109744Y36682795D01*
X42298102Y36604774D01*
X42498061Y36565000D01*
X42701939Y36565000D01*
X42901898Y36604774D01*
X43090256Y36682795D01*
X43259774Y36796063D01*
X43403937Y36940226D01*
X43517205Y37109744D01*
X43595226Y37298102D01*
X43635000Y37498061D01*
X43635000Y37701939D01*
X43595226Y37901898D01*
X43569088Y37965000D01*
X45865000Y37965000D01*
X45865001Y26782402D01*
X45851939Y26785000D01*
X45648061Y26785000D01*
X45448102Y26745226D01*
X45259744Y26667205D01*
X45090226Y26553937D01*
X44946063Y26409774D01*
X44832795Y26240256D01*
X44754774Y26051898D01*
X44715000Y25851939D01*
X44715000Y25648061D01*
X44754774Y25448102D01*
X44832795Y25259744D01*
X44946063Y25090226D01*
X45090226Y24946063D01*
X45259744Y24832795D01*
X45448102Y24754774D01*
X45648061Y24715000D01*
X45851939Y24715000D01*
X45865000Y24717598D01*
X45865001Y19235000D01*
X40372713Y19235000D01*
X40478505Y19305688D01*
X40692312Y19519495D01*
X40860299Y19770905D01*
X40976011Y20050257D01*
X41035000Y20346816D01*
X41035000Y20649184D01*
X40976011Y20945743D01*
X40860299Y21225095D01*
X40692312Y21476505D01*
X40478505Y21690312D01*
X40227095Y21858299D01*
X39947743Y21974011D01*
X39651184Y22033000D01*
X39348816Y22033000D01*
X39052257Y21974011D01*
X38772905Y21858299D01*
X38521495Y21690312D01*
X38307688Y21476505D01*
X38250000Y21390169D01*
X38192312Y21476505D01*
X37978505Y21690312D01*
X37727095Y21858299D01*
X37447743Y21974011D01*
X37151184Y22033000D01*
X36848816Y22033000D01*
X36552257Y21974011D01*
X36272905Y21858299D01*
X36021495Y21690312D01*
X35807688Y21476505D01*
X35750000Y21390169D01*
X35692312Y21476505D01*
X35478505Y21690312D01*
X35227095Y21858299D01*
X34947743Y21974011D01*
X34651184Y22033000D01*
X34348816Y22033000D01*
X34052257Y21974011D01*
X33772905Y21858299D01*
X33521495Y21690312D01*
X33307688Y21476505D01*
X33139701Y21225095D01*
X33023989Y20945743D01*
X32965000Y20649184D01*
X32965000Y20346816D01*
X33023989Y20050257D01*
X33139701Y19770905D01*
X33307688Y19519495D01*
X33521495Y19305688D01*
X33740000Y19159687D01*
X33740001Y17953712D01*
X33696063Y17909774D01*
X33582795Y17740256D01*
X33504774Y17551898D01*
X33465000Y17351939D01*
X33465000Y17148061D01*
X33504774Y16948102D01*
X33582795Y16759744D01*
X33696063Y16590226D01*
X33840226Y16446063D01*
X34009744Y16332795D01*
X34198102Y16254774D01*
X34398061Y16215000D01*
X34601939Y16215000D01*
X34801898Y16254774D01*
X34990256Y16332795D01*
X35159774Y16446063D01*
X35303937Y16590226D01*
X35417205Y16759744D01*
X35495226Y16948102D01*
X35535000Y17148061D01*
X35535000Y17351939D01*
X35495226Y17551898D01*
X35417205Y17740256D01*
X35303937Y17909774D01*
X35260000Y17953711D01*
X35260000Y19159687D01*
X35478505Y19305688D01*
X35692312Y19519495D01*
X35750000Y19605831D01*
X35807688Y19519495D01*
X36021495Y19305688D01*
X36272905Y19137701D01*
X36552257Y19021989D01*
X36848816Y18963000D01*
X37151184Y18963000D01*
X37447743Y19021989D01*
X37727095Y19137701D01*
X37978505Y19305688D01*
X38192312Y19519495D01*
X38250000Y19605831D01*
X38307688Y19519495D01*
X38521495Y19305688D01*
X38772905Y19137701D01*
X39052257Y19021989D01*
X39140865Y19004364D01*
X39140226Y19003937D01*
X39104092Y18967803D01*
X39064604Y18935396D01*
X39032197Y18895908D01*
X38996063Y18859774D01*
X38967672Y18817284D01*
X38935266Y18777797D01*
X38911186Y18732746D01*
X38882795Y18690256D01*
X38863238Y18643042D01*
X38839159Y18597993D01*
X38824331Y18549113D01*
X38804774Y18501898D01*
X38794804Y18451777D01*
X38779976Y18402895D01*
X38774969Y18352057D01*
X38765000Y18301939D01*
X38765000Y18250838D01*
X38759993Y18200000D01*
X38765000Y18149162D01*
X38765000Y18098061D01*
X38774969Y18047943D01*
X38779976Y17997105D01*
X38794804Y17948223D01*
X38804774Y17898102D01*
X38824331Y17850887D01*
X38839159Y17802007D01*
X38863238Y17756958D01*
X38882795Y17709744D01*
X38911186Y17667254D01*
X38935266Y17622203D01*
X38967672Y17582716D01*
X38996063Y17540226D01*
X39032197Y17504092D01*
X39064604Y17464604D01*
X39104092Y17432197D01*
X39140226Y17396063D01*
X39182716Y17367672D01*
X39222203Y17335266D01*
X39267254Y17311186D01*
X39309744Y17282795D01*
X39356958Y17263238D01*
X39402007Y17239159D01*
X39450887Y17224331D01*
X39498102Y17204774D01*
X39548223Y17194804D01*
X39597105Y17179976D01*
X39647943Y17174969D01*
X39698061Y17165000D01*
X46528613Y17165000D01*
X46563554Y17146324D01*
X46777502Y17081423D01*
X47000000Y17059509D01*
X47222499Y17081423D01*
X47340000Y17117067D01*
X47340000Y660000D01*
X43303209Y660000D01*
X43465496Y693007D01*
X43689946Y787110D01*
X43891725Y923193D01*
X44063078Y1096026D01*
X44197421Y1298967D01*
X44289591Y1524218D01*
X44293462Y1561891D01*
X44168731Y1752500D01*
X42877000Y1752500D01*
X42877000Y1732500D01*
X42623000Y1732500D01*
X42623000Y1752500D01*
X41331269Y1752500D01*
X41206538Y1561891D01*
X41210409Y1524218D01*
X41302579Y1298967D01*
X41436922Y1096026D01*
X41608275Y923193D01*
X41810054Y787110D01*
X42034504Y693007D01*
X42196791Y660000D01*
X30803209Y660000D01*
X30965496Y693007D01*
X31189946Y787110D01*
X31391725Y923193D01*
X31563078Y1096026D01*
X31697421Y1298967D01*
X31789591Y1524218D01*
X31793462Y1561891D01*
X31668731Y1752500D01*
X30377000Y1752500D01*
X30377000Y1732500D01*
X30123000Y1732500D01*
X30123000Y1752500D01*
X28831269Y1752500D01*
X28706538Y1561891D01*
X28710409Y1524218D01*
X28802579Y1298967D01*
X28936922Y1096026D01*
X29108275Y923193D01*
X29310054Y787110D01*
X29534504Y693007D01*
X29696791Y660000D01*
X18303209Y660000D01*
X18465496Y693007D01*
X18689946Y787110D01*
X18891725Y923193D01*
X19063078Y1096026D01*
X19197421Y1298967D01*
X19289591Y1524218D01*
X19293462Y1561891D01*
X19168731Y1752500D01*
X17877000Y1752500D01*
X17877000Y1732500D01*
X17623000Y1732500D01*
X17623000Y1752500D01*
X16331269Y1752500D01*
X16206538Y1561891D01*
X16210409Y1524218D01*
X16302579Y1298967D01*
X16436922Y1096026D01*
X16608275Y923193D01*
X16810054Y787110D01*
X17034504Y693007D01*
X17196791Y660000D01*
X5803209Y660000D01*
X5965496Y693007D01*
X6189946Y787110D01*
X6391725Y923193D01*
X6563078Y1096026D01*
X6697421Y1298967D01*
X6789591Y1524218D01*
X6793462Y1561891D01*
X6668731Y1752500D01*
X5377000Y1752500D01*
X5377000Y1732500D01*
X5123000Y1732500D01*
X5123000Y1752500D01*
X3831269Y1752500D01*
X3706538Y1561891D01*
X3710409Y1524218D01*
X3802579Y1298967D01*
X3936922Y1096026D01*
X4108275Y923193D01*
X4310054Y787110D01*
X4534504Y693007D01*
X4696791Y660000D01*
X660000Y660000D01*
X660000Y4120000D01*
X3559025Y4120000D01*
X3582870Y3877898D01*
X3653489Y3645099D01*
X3768167Y3430551D01*
X3922498Y3242498D01*
X4110551Y3088167D01*
X4320162Y2976128D01*
X4310054Y2971890D01*
X4108275Y2835807D01*
X3936922Y2662974D01*
X3802579Y2460033D01*
X3710409Y2234782D01*
X3706538Y2197109D01*
X3831269Y2006500D01*
X5123000Y2006500D01*
X5123000Y2026500D01*
X5377000Y2026500D01*
X5377000Y2006500D01*
X6668731Y2006500D01*
X6793462Y2197109D01*
X6789591Y2234782D01*
X6697421Y2460033D01*
X6563078Y2662974D01*
X6391725Y2835807D01*
X6189946Y2971890D01*
X6179838Y2976128D01*
X6389449Y3088167D01*
X6577502Y3242498D01*
X6731833Y3430551D01*
X6846511Y3645099D01*
X6917130Y3877898D01*
X6940975Y4120000D01*
X16059025Y4120000D01*
X16082870Y3877898D01*
X16153489Y3645099D01*
X16268167Y3430551D01*
X16422498Y3242498D01*
X16610551Y3088167D01*
X16820162Y2976128D01*
X16810054Y2971890D01*
X16608275Y2835807D01*
X16436922Y2662974D01*
X16302579Y2460033D01*
X16210409Y2234782D01*
X16206538Y2197109D01*
X16331269Y2006500D01*
X17623000Y2006500D01*
X17623000Y2026500D01*
X17877000Y2026500D01*
X17877000Y2006500D01*
X19168731Y2006500D01*
X19293462Y2197109D01*
X19289591Y2234782D01*
X19197421Y2460033D01*
X19063078Y2662974D01*
X18891725Y2835807D01*
X18689946Y2971890D01*
X18679838Y2976128D01*
X18889449Y3088167D01*
X19077502Y3242498D01*
X19231833Y3430551D01*
X19346511Y3645099D01*
X19417130Y3877898D01*
X19440975Y4120000D01*
X28559025Y4120000D01*
X28582870Y3877898D01*
X28653489Y3645099D01*
X28768167Y3430551D01*
X28922498Y3242498D01*
X29110551Y3088167D01*
X29320162Y2976128D01*
X29310054Y2971890D01*
X29108275Y2835807D01*
X28936922Y2662974D01*
X28802579Y2460033D01*
X28710409Y2234782D01*
X28706538Y2197109D01*
X28831269Y2006500D01*
X30123000Y2006500D01*
X30123000Y2026500D01*
X30377000Y2026500D01*
X30377000Y2006500D01*
X31668731Y2006500D01*
X31793462Y2197109D01*
X31789591Y2234782D01*
X31697421Y2460033D01*
X31563078Y2662974D01*
X31391725Y2835807D01*
X31189946Y2971890D01*
X31179838Y2976128D01*
X31389449Y3088167D01*
X31577502Y3242498D01*
X31731833Y3430551D01*
X31846511Y3645099D01*
X31917130Y3877898D01*
X31940975Y4120000D01*
X41059025Y4120000D01*
X41082870Y3877898D01*
X41153489Y3645099D01*
X41268167Y3430551D01*
X41422498Y3242498D01*
X41610551Y3088167D01*
X41820162Y2976128D01*
X41810054Y2971890D01*
X41608275Y2835807D01*
X41436922Y2662974D01*
X41302579Y2460033D01*
X41210409Y2234782D01*
X41206538Y2197109D01*
X41331269Y2006500D01*
X42623000Y2006500D01*
X42623000Y2026500D01*
X42877000Y2026500D01*
X42877000Y2006500D01*
X44168731Y2006500D01*
X44293462Y2197109D01*
X44289591Y2234782D01*
X44197421Y2460033D01*
X44063078Y2662974D01*
X43891725Y2835807D01*
X43689946Y2971890D01*
X43679838Y2976128D01*
X43889449Y3088167D01*
X44077502Y3242498D01*
X44231833Y3430551D01*
X44346511Y3645099D01*
X44417130Y3877898D01*
X44440975Y4120000D01*
X44417130Y4362102D01*
X44346511Y4594901D01*
X44231833Y4809449D01*
X44077502Y4997502D01*
X43889449Y5151833D01*
X43674901Y5266511D01*
X43442102Y5337130D01*
X43260665Y5355000D01*
X42239335Y5355000D01*
X42057898Y5337130D01*
X41825099Y5266511D01*
X41610551Y5151833D01*
X41422498Y4997502D01*
X41268167Y4809449D01*
X41153489Y4594901D01*
X41082870Y4362102D01*
X41059025Y4120000D01*
X31940975Y4120000D01*
X31917130Y4362102D01*
X31846511Y4594901D01*
X31731833Y4809449D01*
X31577502Y4997502D01*
X31389449Y5151833D01*
X31174901Y5266511D01*
X30942102Y5337130D01*
X30760665Y5355000D01*
X29739335Y5355000D01*
X29557898Y5337130D01*
X29325099Y5266511D01*
X29110551Y5151833D01*
X28922498Y4997502D01*
X28768167Y4809449D01*
X28653489Y4594901D01*
X28582870Y4362102D01*
X28559025Y4120000D01*
X19440975Y4120000D01*
X19417130Y4362102D01*
X19346511Y4594901D01*
X19231833Y4809449D01*
X19077502Y4997502D01*
X18889449Y5151833D01*
X18674901Y5266511D01*
X18442102Y5337130D01*
X18260665Y5355000D01*
X17239335Y5355000D01*
X17057898Y5337130D01*
X16825099Y5266511D01*
X16610551Y5151833D01*
X16422498Y4997502D01*
X16268167Y4809449D01*
X16153489Y4594901D01*
X16082870Y4362102D01*
X16059025Y4120000D01*
X6940975Y4120000D01*
X6917130Y4362102D01*
X6846511Y4594901D01*
X6731833Y4809449D01*
X6577502Y4997502D01*
X6389449Y5151833D01*
X6174901Y5266511D01*
X5942102Y5337130D01*
X5760665Y5355000D01*
X4739335Y5355000D01*
X4557898Y5337130D01*
X4325099Y5266511D01*
X4110551Y5151833D01*
X3922498Y4997502D01*
X3768167Y4809449D01*
X3653489Y4594901D01*
X3582870Y4362102D01*
X3559025Y4120000D01*
X660000Y4120000D01*
X660000Y12667067D01*
X777501Y12631423D01*
X1000000Y12609509D01*
X1222498Y12631423D01*
X1436446Y12696324D01*
X1471387Y12715000D01*
X3601167Y12715000D01*
X3582147Y12652300D01*
X3559267Y12420000D01*
X3582147Y12187700D01*
X3649906Y11964326D01*
X3759942Y11758464D01*
X3908025Y11578025D01*
X4088464Y11429942D01*
X4294326Y11319906D01*
X4517700Y11252147D01*
X4691793Y11235000D01*
X5808207Y11235000D01*
X5982300Y11252147D01*
X6205674Y11319906D01*
X6411536Y11429942D01*
X6591975Y11578025D01*
X6740058Y11758464D01*
X6850094Y11964326D01*
X6917853Y12187700D01*
X6940733Y12420000D01*
X16059267Y12420000D01*
X16082147Y12187700D01*
X16149906Y11964326D01*
X16259942Y11758464D01*
X16408025Y11578025D01*
X16588464Y11429942D01*
X16794326Y11319906D01*
X17017700Y11252147D01*
X17191793Y11235000D01*
X18308207Y11235000D01*
X18482300Y11252147D01*
X18705674Y11319906D01*
X18911536Y11429942D01*
X19091975Y11578025D01*
X19240058Y11758464D01*
X19350094Y11964326D01*
X19417853Y12187700D01*
X19440733Y12420000D01*
X28559267Y12420000D01*
X28582147Y12187700D01*
X28649906Y11964326D01*
X28759942Y11758464D01*
X28908025Y11578025D01*
X29088464Y11429942D01*
X29294326Y11319906D01*
X29517700Y11252147D01*
X29691793Y11235000D01*
X30808207Y11235000D01*
X30982300Y11252147D01*
X31205674Y11319906D01*
X31411536Y11429942D01*
X31591975Y11578025D01*
X31740058Y11758464D01*
X31850094Y11964326D01*
X31917853Y12187700D01*
X31940733Y12420000D01*
X41059267Y12420000D01*
X41082147Y12187700D01*
X41149906Y11964326D01*
X41259942Y11758464D01*
X41408025Y11578025D01*
X41588464Y11429942D01*
X41794326Y11319906D01*
X42017700Y11252147D01*
X42191793Y11235000D01*
X43308207Y11235000D01*
X43482300Y11252147D01*
X43705674Y11319906D01*
X43911536Y11429942D01*
X44091975Y11578025D01*
X44240058Y11758464D01*
X44350094Y11964326D01*
X44417853Y12187700D01*
X44440733Y12420000D01*
X44417853Y12652300D01*
X44350094Y12875674D01*
X44240058Y13081536D01*
X44091975Y13261975D01*
X43911536Y13410058D01*
X43705674Y13520094D01*
X43482300Y13587853D01*
X43308207Y13605000D01*
X42191793Y13605000D01*
X42017700Y13587853D01*
X41794326Y13520094D01*
X41588464Y13410058D01*
X41408025Y13261975D01*
X41259942Y13081536D01*
X41149906Y12875674D01*
X41082147Y12652300D01*
X41059267Y12420000D01*
X31940733Y12420000D01*
X31917853Y12652300D01*
X31850094Y12875674D01*
X31740058Y13081536D01*
X31591975Y13261975D01*
X31411536Y13410058D01*
X31205674Y13520094D01*
X30982300Y13587853D01*
X30808207Y13605000D01*
X29691793Y13605000D01*
X29517700Y13587853D01*
X29294326Y13520094D01*
X29088464Y13410058D01*
X28908025Y13261975D01*
X28759942Y13081536D01*
X28649906Y12875674D01*
X28582147Y12652300D01*
X28559267Y12420000D01*
X19440733Y12420000D01*
X19417853Y12652300D01*
X19350094Y12875674D01*
X19240058Y13081536D01*
X19091975Y13261975D01*
X18911536Y13410058D01*
X18705674Y13520094D01*
X18482300Y13587853D01*
X18308207Y13605000D01*
X17191793Y13605000D01*
X17017700Y13587853D01*
X16794326Y13520094D01*
X16588464Y13410058D01*
X16408025Y13261975D01*
X16259942Y13081536D01*
X16149906Y12875674D01*
X16082147Y12652300D01*
X16059267Y12420000D01*
X6940733Y12420000D01*
X6917853Y12652300D01*
X6898833Y12715000D01*
X10351939Y12715000D01*
X10402057Y12724969D01*
X10452895Y12729976D01*
X10501777Y12744804D01*
X10551898Y12754774D01*
X10599113Y12774331D01*
X10647993Y12789159D01*
X10693042Y12813238D01*
X10740256Y12832795D01*
X10782746Y12861186D01*
X10827797Y12885266D01*
X10867284Y12917672D01*
X10909774Y12946063D01*
X10945908Y12982197D01*
X10985396Y13014604D01*
X11017803Y13054092D01*
X11053937Y13090226D01*
X11082328Y13132716D01*
X11114734Y13172203D01*
X11138814Y13217254D01*
X11167205Y13259744D01*
X11186762Y13306958D01*
X11210841Y13352007D01*
X11225669Y13400887D01*
X11245226Y13448102D01*
X11255196Y13498223D01*
X11270024Y13547105D01*
X11275031Y13597943D01*
X11285000Y13648061D01*
X11285000Y13699162D01*
X11290007Y13750000D01*
X11285000Y13800838D01*
X11285000Y13851939D01*
X11275031Y13902057D01*
X11270024Y13952895D01*
X11255196Y14001777D01*
X11245226Y14051898D01*
X11225669Y14099113D01*
X11210841Y14147993D01*
X11186762Y14193042D01*
X11167205Y14240256D01*
X11138814Y14282746D01*
X11114734Y14327797D01*
X11082328Y14367284D01*
X11053937Y14409774D01*
X11017803Y14445908D01*
X10985396Y14485396D01*
X10945908Y14517803D01*
X10909774Y14553937D01*
X10867284Y14582328D01*
X10827797Y14614734D01*
X10782746Y14638814D01*
X10740256Y14667205D01*
X10693042Y14686762D01*
X10647993Y14710841D01*
X10599113Y14725669D01*
X10551898Y14745226D01*
X10501777Y14755196D01*
X10452895Y14770024D01*
X10402057Y14775031D01*
X10351939Y14785000D01*
X2135000Y14785000D01*
X2135000Y19433920D01*
X7615525Y19433920D01*
X7699208Y19179739D01*
X7971775Y19048842D01*
X8264642Y18973635D01*
X8566553Y18957009D01*
X8865907Y18999603D01*
X9151199Y19099778D01*
X9300792Y19179739D01*
X9384475Y19433920D01*
X8500000Y20318395D01*
X7615525Y19433920D01*
X2135000Y19433920D01*
X2135000Y20431447D01*
X6959009Y20431447D01*
X7001603Y20132093D01*
X7101778Y19846801D01*
X7181739Y19697208D01*
X7435920Y19613525D01*
X8320395Y20498000D01*
X8679605Y20498000D01*
X9564080Y19613525D01*
X9712262Y19662310D01*
X9807688Y19519495D01*
X10021495Y19305688D01*
X10272905Y19137701D01*
X10552257Y19021989D01*
X10848816Y18963000D01*
X11151184Y18963000D01*
X11447743Y19021989D01*
X11727095Y19137701D01*
X11978505Y19305688D01*
X12192312Y19519495D01*
X12250000Y19605831D01*
X12307688Y19519495D01*
X12521495Y19305688D01*
X12772905Y19137701D01*
X13052257Y19021989D01*
X13348816Y18963000D01*
X13651184Y18963000D01*
X13947743Y19021989D01*
X14227095Y19137701D01*
X14478505Y19305688D01*
X14692312Y19519495D01*
X14860299Y19770905D01*
X14976011Y20050257D01*
X15035000Y20346816D01*
X15035000Y20649184D01*
X15009647Y20776642D01*
X15090226Y20696063D01*
X15259744Y20582795D01*
X15448102Y20504774D01*
X15648061Y20465000D01*
X15851939Y20465000D01*
X16051898Y20504774D01*
X16240256Y20582795D01*
X16409774Y20696063D01*
X16453711Y20740000D01*
X19796289Y20740000D01*
X19840226Y20696063D01*
X20009744Y20582795D01*
X20198102Y20504774D01*
X20398061Y20465000D01*
X20601939Y20465000D01*
X20801898Y20504774D01*
X20990256Y20582795D01*
X21159774Y20696063D01*
X21303937Y20840226D01*
X21417205Y21009744D01*
X21495226Y21198102D01*
X21535000Y21398061D01*
X21535000Y21601939D01*
X21495226Y21801898D01*
X21417205Y21990256D01*
X21303937Y22159774D01*
X21159774Y22303937D01*
X20990256Y22417205D01*
X20801898Y22495226D01*
X20601939Y22535000D01*
X20398061Y22535000D01*
X20198102Y22495226D01*
X20009744Y22417205D01*
X19840226Y22303937D01*
X19796289Y22260000D01*
X16453711Y22260000D01*
X16409774Y22303937D01*
X16240256Y22417205D01*
X16051898Y22495226D01*
X15851939Y22535000D01*
X15648061Y22535000D01*
X15448102Y22495226D01*
X15259744Y22417205D01*
X15090226Y22303937D01*
X14946063Y22159774D01*
X14832795Y21990256D01*
X14754774Y21801898D01*
X14715000Y21601939D01*
X14715000Y21442550D01*
X14692312Y21476505D01*
X14478505Y21690312D01*
X14227095Y21858299D01*
X13947743Y21974011D01*
X13651184Y22033000D01*
X13348816Y22033000D01*
X13052257Y21974011D01*
X12772905Y21858299D01*
X12521495Y21690312D01*
X12307688Y21476505D01*
X12250000Y21390169D01*
X12192312Y21476505D01*
X11978505Y21690312D01*
X11727095Y21858299D01*
X11447743Y21974011D01*
X11151184Y22033000D01*
X10848816Y22033000D01*
X10552257Y21974011D01*
X10272905Y21858299D01*
X10021495Y21690312D01*
X9807688Y21476505D01*
X9712262Y21333690D01*
X9564080Y21382475D01*
X8679605Y20498000D01*
X8320395Y20498000D01*
X7435920Y21382475D01*
X7181739Y21298792D01*
X7050842Y21026225D01*
X6975635Y20733358D01*
X6959009Y20431447D01*
X2135000Y20431447D01*
X2135000Y21562080D01*
X7615525Y21562080D01*
X8500000Y20677605D01*
X9384475Y21562080D01*
X9300792Y21816261D01*
X9028225Y21947158D01*
X8735358Y22022365D01*
X8433447Y22038991D01*
X8134093Y21996397D01*
X7848801Y21896222D01*
X7699208Y21816261D01*
X7615525Y21562080D01*
X2135000Y21562080D01*
X2135000Y28198430D01*
X4165000Y28198430D01*
X4165000Y27797570D01*
X4243204Y27404413D01*
X4396607Y27034066D01*
X4619313Y26700763D01*
X4902763Y26417313D01*
X5236066Y26194607D01*
X5606413Y26041204D01*
X5999570Y25963000D01*
X6400430Y25963000D01*
X6793587Y26041204D01*
X7163934Y26194607D01*
X7497237Y26417313D01*
X7780687Y26700763D01*
X8003393Y27034066D01*
X8156796Y27404413D01*
X8235000Y27797570D01*
X8235000Y28198430D01*
X13765000Y28198430D01*
X13765000Y27797570D01*
X13843204Y27404413D01*
X13996607Y27034066D01*
X14219313Y26700763D01*
X14502763Y26417313D01*
X14836066Y26194607D01*
X15206413Y26041204D01*
X15599570Y25963000D01*
X16000430Y25963000D01*
X16393587Y26041204D01*
X16763934Y26194607D01*
X17097237Y26417313D01*
X17380687Y26700763D01*
X17603393Y27034066D01*
X17756796Y27404413D01*
X17835000Y27797570D01*
X17835000Y28198430D01*
X30165000Y28198430D01*
X30165000Y27797570D01*
X30243204Y27404413D01*
X30396607Y27034066D01*
X30619313Y26700763D01*
X30902763Y26417313D01*
X31236066Y26194607D01*
X31606413Y26041204D01*
X31999570Y25963000D01*
X32400430Y25963000D01*
X32793587Y26041204D01*
X33163934Y26194607D01*
X33497237Y26417313D01*
X33780687Y26700763D01*
X34003393Y27034066D01*
X34156796Y27404413D01*
X34235000Y27797570D01*
X34235000Y28198430D01*
X39765000Y28198430D01*
X39765000Y27797570D01*
X39843204Y27404413D01*
X39996607Y27034066D01*
X40219313Y26700763D01*
X40502763Y26417313D01*
X40836066Y26194607D01*
X41206413Y26041204D01*
X41599570Y25963000D01*
X42000430Y25963000D01*
X42393587Y26041204D01*
X42763934Y26194607D01*
X43097237Y26417313D01*
X43380687Y26700763D01*
X43603393Y27034066D01*
X43756796Y27404413D01*
X43835000Y27797570D01*
X43835000Y28198430D01*
X43756796Y28591587D01*
X43603393Y28961934D01*
X43380687Y29295237D01*
X43097237Y29578687D01*
X42763934Y29801393D01*
X42393587Y29954796D01*
X42000430Y30033000D01*
X41599570Y30033000D01*
X41206413Y29954796D01*
X40836066Y29801393D01*
X40502763Y29578687D01*
X40219313Y29295237D01*
X39996607Y28961934D01*
X39843204Y28591587D01*
X39765000Y28198430D01*
X34235000Y28198430D01*
X34156796Y28591587D01*
X34003393Y28961934D01*
X33780687Y29295237D01*
X33497237Y29578687D01*
X33163934Y29801393D01*
X32793587Y29954796D01*
X32400430Y30033000D01*
X31999570Y30033000D01*
X31606413Y29954796D01*
X31236066Y29801393D01*
X30902763Y29578687D01*
X30619313Y29295237D01*
X30396607Y28961934D01*
X30243204Y28591587D01*
X30165000Y28198430D01*
X17835000Y28198430D01*
X17756796Y28591587D01*
X17603393Y28961934D01*
X17380687Y29295237D01*
X17097237Y29578687D01*
X16763934Y29801393D01*
X16393587Y29954796D01*
X16000430Y30033000D01*
X15599570Y30033000D01*
X15206413Y29954796D01*
X14836066Y29801393D01*
X14502763Y29578687D01*
X14219313Y29295237D01*
X13996607Y28961934D01*
X13843204Y28591587D01*
X13765000Y28198430D01*
X8235000Y28198430D01*
X8156796Y28591587D01*
X8003393Y28961934D01*
X7780687Y29295237D01*
X7497237Y29578687D01*
X7163934Y29801393D01*
X6793587Y29954796D01*
X6400430Y30033000D01*
X5999570Y30033000D01*
X5606413Y29954796D01*
X5236066Y29801393D01*
X4902763Y29578687D01*
X4619313Y29295237D01*
X4396607Y28961934D01*
X4243204Y28591587D01*
X4165000Y28198430D01*
X2135000Y28198430D01*
X2135000Y30815000D01*
X3552705Y30815000D01*
X3698102Y30754774D01*
X3898061Y30715000D01*
X4101939Y30715000D01*
X4301898Y30754774D01*
X4490256Y30832795D01*
X4659774Y30946063D01*
X4803937Y31090226D01*
X4917205Y31259744D01*
X4995226Y31448102D01*
X5035000Y31648061D01*
X5035000Y31851939D01*
X4995226Y32051898D01*
X4917205Y32240256D01*
X4803937Y32409774D01*
X4659774Y32553937D01*
X4490256Y32667205D01*
X4301898Y32745226D01*
X4101939Y32785000D01*
X3898061Y32785000D01*
X3698102Y32745226D01*
X3552705Y32685000D01*
X2135000Y32685000D01*
X2135000Y32801928D01*
X3750000Y32801928D01*
X3874482Y32814188D01*
X3994180Y32850498D01*
X4104494Y32909463D01*
X4124999Y32926291D01*
X4145506Y32909462D01*
X4255820Y32850497D01*
X4375518Y32814187D01*
X4500000Y32801927D01*
X6500000Y32801927D01*
X6624482Y32814187D01*
X6744180Y32850497D01*
X6854494Y32909462D01*
X6951185Y32988814D01*
X7030537Y33085505D01*
X7089502Y33195819D01*
X7125812Y33315517D01*
X7138072Y33439999D01*
X7138072Y35439999D01*
X7125812Y35564481D01*
X7089502Y35684179D01*
X7030537Y35794493D01*
X6951185Y35891184D01*
X6854494Y35970536D01*
X6744180Y36029501D01*
X6624482Y36065811D01*
X6500000Y36078071D01*
X4500000Y36078071D01*
X4375518Y36065811D01*
X4255820Y36029501D01*
X4145506Y35970536D01*
X4125001Y35953708D01*
X4104494Y35970537D01*
X3994180Y36029502D01*
X3874482Y36065812D01*
X3750000Y36078072D01*
X2135000Y36078072D01*
X2135000Y40545030D01*
X2273088Y40487832D01*
X2588967Y40425000D01*
X2911033Y40425000D01*
X3226912Y40487832D01*
X3524463Y40611082D01*
X3792252Y40790013D01*
X4019987Y41017748D01*
X4125000Y41174910D01*
X4230013Y41017747D01*
X4457748Y40790012D01*
X4725537Y40611081D01*
X5023088Y40487831D01*
X5338967Y40424999D01*
X5661033Y40424999D01*
X5976912Y40487831D01*
X6274463Y40611081D01*
X6542252Y40790012D01*
X6769987Y41017747D01*
X6948918Y41285536D01*
X6958899Y41309633D01*
X27225000Y41309633D01*
X27225000Y40987567D01*
X27287832Y40671688D01*
X27411082Y40374137D01*
X27590013Y40106348D01*
X27817748Y39878613D01*
X28085537Y39699682D01*
X28383088Y39576432D01*
X28698967Y39513600D01*
X29021033Y39513600D01*
X29336912Y39576432D01*
X29634463Y39699682D01*
X29902252Y39878613D01*
X30129987Y40106348D01*
X30308918Y40374137D01*
X30432168Y40671688D01*
X30495000Y40987567D01*
X30495000Y41309633D01*
X30432168Y41625512D01*
X30308918Y41923063D01*
X30129987Y42190852D01*
X29902252Y42418587D01*
X29634463Y42597518D01*
X29336912Y42720768D01*
X29021033Y42783600D01*
X28698967Y42783600D01*
X28383088Y42720768D01*
X28085537Y42597518D01*
X27817748Y42418587D01*
X27590013Y42190852D01*
X27411082Y41923063D01*
X27287832Y41625512D01*
X27225000Y41309633D01*
X6958899Y41309633D01*
X7072168Y41583087D01*
X7135000Y41898966D01*
X7135000Y42221032D01*
X7072168Y42536911D01*
X6948918Y42834462D01*
X6769987Y43102251D01*
X6542252Y43329986D01*
X6274463Y43508917D01*
X5976912Y43632167D01*
X5661033Y43694999D01*
X5338967Y43694999D01*
X5023088Y43632167D01*
X4725537Y43508917D01*
X4457748Y43329986D01*
X4230013Y43102251D01*
X4125000Y42945089D01*
X4019987Y43102252D01*
X3792252Y43329987D01*
X3524463Y43508918D01*
X3226912Y43632168D01*
X2911033Y43695000D01*
X2588967Y43695000D01*
X2273088Y43632168D01*
X2135000Y43574970D01*
X2135000Y43849633D01*
X29765000Y43849633D01*
X29765000Y43527567D01*
X29827832Y43211688D01*
X29951082Y42914137D01*
X30130013Y42646348D01*
X30357748Y42418613D01*
X30625537Y42239682D01*
X30923088Y42116432D01*
X31238967Y42053600D01*
X31561033Y42053600D01*
X31876912Y42116432D01*
X32174463Y42239682D01*
X32442252Y42418613D01*
X32669987Y42646348D01*
X32848918Y42914137D01*
X32972168Y43211688D01*
X33035000Y43527567D01*
X33035000Y43849633D01*
X32972168Y44165512D01*
X32848918Y44463063D01*
X32669987Y44730852D01*
X32463230Y44937609D01*
X36856538Y44937609D01*
X36981269Y44747000D01*
X38373000Y44747000D01*
X38373000Y45855000D01*
X38627000Y45855000D01*
X38627000Y44747000D01*
X40018731Y44747000D01*
X40143462Y44937609D01*
X40139591Y44975282D01*
X40047421Y45200533D01*
X39913078Y45403474D01*
X39741725Y45576307D01*
X39539946Y45712390D01*
X39315496Y45806493D01*
X39077000Y45855000D01*
X38627000Y45855000D01*
X38373000Y45855000D01*
X37923000Y45855000D01*
X37684504Y45806493D01*
X37460054Y45712390D01*
X37258275Y45576307D01*
X37086922Y45403474D01*
X36952579Y45200533D01*
X36860409Y44975282D01*
X36856538Y44937609D01*
X32463230Y44937609D01*
X32442252Y44958587D01*
X32174463Y45137518D01*
X31876912Y45260768D01*
X31561033Y45323600D01*
X31238967Y45323600D01*
X30923088Y45260768D01*
X30625537Y45137518D01*
X30357748Y44958587D01*
X30130013Y44730852D01*
X29951082Y44463063D01*
X29827832Y44165512D01*
X29765000Y43849633D01*
X2135000Y43849633D01*
X2135000Y45649184D01*
X6965000Y45649184D01*
X6965000Y45346816D01*
X7023989Y45050257D01*
X7139701Y44770905D01*
X7307688Y44519495D01*
X7521495Y44305688D01*
X7772905Y44137701D01*
X8052257Y44021989D01*
X8348816Y43963000D01*
X8651184Y43963000D01*
X8947743Y44021989D01*
X9227095Y44137701D01*
X9478505Y44305688D01*
X9692312Y44519495D01*
X9750000Y44605831D01*
X9807688Y44519495D01*
X10021495Y44305688D01*
X10272905Y44137701D01*
X10552257Y44021989D01*
X10848816Y43963000D01*
X11151184Y43963000D01*
X11447743Y44021989D01*
X11727095Y44137701D01*
X11978505Y44305688D01*
X12192312Y44519495D01*
X12250000Y44605831D01*
X12307688Y44519495D01*
X12521495Y44305688D01*
X12772905Y44137701D01*
X13052257Y44021989D01*
X13348816Y43963000D01*
X13651184Y43963000D01*
X13947743Y44021989D01*
X14227095Y44137701D01*
X14478505Y44305688D01*
X14692312Y44519495D01*
X14860299Y44770905D01*
X14976011Y45050257D01*
X15035000Y45346816D01*
X15035000Y45649184D01*
X14976011Y45945743D01*
X14860299Y46225095D01*
X14692312Y46476505D01*
X14478505Y46690312D01*
X14227095Y46858299D01*
X14132234Y46897592D01*
X28243000Y46897592D01*
X28243000Y46622408D01*
X28296686Y46352510D01*
X28401995Y46098273D01*
X28554880Y45869465D01*
X28749465Y45674880D01*
X28978273Y45521995D01*
X29232510Y45416686D01*
X29502408Y45363000D01*
X29777592Y45363000D01*
X30047490Y45416686D01*
X30301727Y45521995D01*
X30530535Y45674880D01*
X30725120Y45869465D01*
X30878005Y46098273D01*
X30983314Y46352510D01*
X31037000Y46622408D01*
X31037000Y46897592D01*
X30983314Y47167490D01*
X30878005Y47421727D01*
X30725120Y47650535D01*
X30530535Y47845120D01*
X30301727Y47998005D01*
X30047490Y48103314D01*
X29777592Y48157000D01*
X29502408Y48157000D01*
X29232510Y48103314D01*
X28978273Y47998005D01*
X28749465Y47845120D01*
X28554880Y47650535D01*
X28401995Y47421727D01*
X28296686Y47167490D01*
X28243000Y46897592D01*
X14132234Y46897592D01*
X13947743Y46974011D01*
X13651184Y47033000D01*
X13348816Y47033000D01*
X13052257Y46974011D01*
X12772905Y46858299D01*
X12521495Y46690312D01*
X12307688Y46476505D01*
X12250000Y46390169D01*
X12192312Y46476505D01*
X11978505Y46690312D01*
X11727095Y46858299D01*
X11447743Y46974011D01*
X11151184Y47033000D01*
X10848816Y47033000D01*
X10552257Y46974011D01*
X10272905Y46858299D01*
X10021495Y46690312D01*
X9807688Y46476505D01*
X9750000Y46390169D01*
X9692312Y46476505D01*
X9478505Y46690312D01*
X9227095Y46858299D01*
X8947743Y46974011D01*
X8651184Y47033000D01*
X8348816Y47033000D01*
X8052257Y46974011D01*
X7772905Y46858299D01*
X7521495Y46690312D01*
X7307688Y46476505D01*
X7139701Y46225095D01*
X7023989Y45945743D01*
X6965000Y45649184D01*
X2135000Y45649184D01*
X2135000Y47040000D01*
X2863060Y47040000D01*
X2948102Y47004774D01*
X3148061Y46965000D01*
X3351939Y46965000D01*
X3551898Y47004774D01*
X3740256Y47082795D01*
X3909774Y47196063D01*
X4053937Y47340226D01*
X4167205Y47509744D01*
X4245226Y47698102D01*
X4285000Y47898061D01*
X4285000Y48101939D01*
X4245226Y48301898D01*
X4167205Y48490256D01*
X4053937Y48659774D01*
X3909774Y48803937D01*
X3740256Y48917205D01*
X3551898Y48995226D01*
X3351939Y49035000D01*
X3148061Y49035000D01*
X2948102Y48995226D01*
X2863060Y48960000D01*
X2135000Y48960000D01*
X2135000Y50874435D01*
X28854040Y50874435D01*
X28921020Y50634344D01*
X29170048Y50517244D01*
X29437135Y50450977D01*
X29712017Y50438090D01*
X29984133Y50479078D01*
X30243023Y50572364D01*
X30358980Y50634344D01*
X30425960Y50874435D01*
X29640000Y51660395D01*
X28854040Y50874435D01*
X2135000Y50874435D01*
X2135000Y53198430D01*
X4165000Y53198430D01*
X4165000Y52797570D01*
X4243204Y52404413D01*
X4396607Y52034066D01*
X4619313Y51700763D01*
X4902763Y51417313D01*
X5236066Y51194607D01*
X5606413Y51041204D01*
X5999570Y50963000D01*
X6400430Y50963000D01*
X6793587Y51041204D01*
X7163934Y51194607D01*
X7497237Y51417313D01*
X7780687Y51700763D01*
X8003393Y52034066D01*
X8156796Y52404413D01*
X8235000Y52797570D01*
X8235000Y53198430D01*
X13765000Y53198430D01*
X13765000Y52797570D01*
X13843204Y52404413D01*
X13996607Y52034066D01*
X14219313Y51700763D01*
X14502763Y51417313D01*
X14836066Y51194607D01*
X15206413Y51041204D01*
X15599570Y50963000D01*
X16000430Y50963000D01*
X16393587Y51041204D01*
X16763934Y51194607D01*
X17097237Y51417313D01*
X17380687Y51700763D01*
X17425601Y51767983D01*
X28238090Y51767983D01*
X28279078Y51495867D01*
X28372364Y51236977D01*
X28434344Y51121020D01*
X28674435Y51054040D01*
X29460395Y51840000D01*
X29819605Y51840000D01*
X30605565Y51054040D01*
X30845656Y51121020D01*
X30962756Y51370048D01*
X31029023Y51637135D01*
X31041910Y51912017D01*
X31000922Y52184133D01*
X30907636Y52443023D01*
X30845656Y52558980D01*
X30605565Y52625960D01*
X29819605Y51840000D01*
X29460395Y51840000D01*
X28674435Y52625960D01*
X28434344Y52558980D01*
X28317244Y52309952D01*
X28250977Y52042865D01*
X28238090Y51767983D01*
X17425601Y51767983D01*
X17603393Y52034066D01*
X17756796Y52404413D01*
X17835000Y52797570D01*
X17835000Y52805565D01*
X28854040Y52805565D01*
X29640000Y52019605D01*
X30425960Y52805565D01*
X30394036Y52920000D01*
X36809267Y52920000D01*
X36832147Y52687700D01*
X36899906Y52464326D01*
X37009942Y52258464D01*
X37158025Y52078025D01*
X37338464Y51929942D01*
X37544326Y51819906D01*
X37767700Y51752147D01*
X37941793Y51735000D01*
X39058207Y51735000D01*
X39232300Y51752147D01*
X39455674Y51819906D01*
X39661536Y51929942D01*
X39841975Y52078025D01*
X39990058Y52258464D01*
X40100094Y52464326D01*
X40167853Y52687700D01*
X40190733Y52920000D01*
X40167853Y53152300D01*
X40100094Y53375674D01*
X39990058Y53581536D01*
X39841975Y53761975D01*
X39661536Y53910058D01*
X39455674Y54020094D01*
X39232300Y54087853D01*
X39058207Y54105000D01*
X37941793Y54105000D01*
X37767700Y54087853D01*
X37544326Y54020094D01*
X37338464Y53910058D01*
X37158025Y53761975D01*
X37009942Y53581536D01*
X36899906Y53375674D01*
X36832147Y53152300D01*
X36809267Y52920000D01*
X30394036Y52920000D01*
X30358980Y53045656D01*
X30109952Y53162756D01*
X29842865Y53229023D01*
X29567983Y53241910D01*
X29295867Y53200922D01*
X29036977Y53107636D01*
X28921020Y53045656D01*
X28854040Y52805565D01*
X17835000Y52805565D01*
X17835000Y53198430D01*
X17756796Y53591587D01*
X17603393Y53961934D01*
X17380687Y54295237D01*
X17097237Y54578687D01*
X16763934Y54801393D01*
X16393587Y54954796D01*
X16000430Y55033000D01*
X15599570Y55033000D01*
X15206413Y54954796D01*
X14836066Y54801393D01*
X14502763Y54578687D01*
X14219313Y54295237D01*
X13996607Y53961934D01*
X13843204Y53591587D01*
X13765000Y53198430D01*
X8235000Y53198430D01*
X8156796Y53591587D01*
X8003393Y53961934D01*
X7780687Y54295237D01*
X7497237Y54578687D01*
X7163934Y54801393D01*
X6793587Y54954796D01*
X6400430Y55033000D01*
X5999570Y55033000D01*
X5606413Y54954796D01*
X5236066Y54801393D01*
X4902763Y54578687D01*
X4619313Y54295237D01*
X4396607Y53961934D01*
X4243204Y53591587D01*
X4165000Y53198430D01*
X2135000Y53198430D01*
X2135000Y57040000D01*
X2863060Y57040000D01*
X2948102Y57004774D01*
X3148061Y56965000D01*
X3351939Y56965000D01*
X3551898Y57004774D01*
X3740256Y57082795D01*
X3909774Y57196063D01*
X4053937Y57340226D01*
X4066904Y57359633D01*
X18325000Y57359633D01*
X18325000Y57037567D01*
X18387832Y56721688D01*
X18511082Y56424137D01*
X18690013Y56156348D01*
X18917748Y55928613D01*
X19185537Y55749682D01*
X19483088Y55626432D01*
X19798967Y55563600D01*
X20121033Y55563600D01*
X20436912Y55626432D01*
X20734463Y55749682D01*
X21002252Y55928613D01*
X21136826Y56063187D01*
X24084192Y56063187D01*
X24179956Y55798786D01*
X24469571Y55657896D01*
X24781108Y55576216D01*
X25102595Y55556882D01*
X25421675Y55600639D01*
X25726088Y55705805D01*
X25900044Y55798786D01*
X25995808Y56063187D01*
X25040000Y57018995D01*
X24084192Y56063187D01*
X21136826Y56063187D01*
X21229987Y56156348D01*
X21408918Y56424137D01*
X21532168Y56721688D01*
X21595000Y57037567D01*
X21595000Y57136005D01*
X23398282Y57136005D01*
X23442039Y56816925D01*
X23547205Y56512512D01*
X23640186Y56338556D01*
X23904587Y56242792D01*
X24860395Y57198600D01*
X25219605Y57198600D01*
X26175413Y56242792D01*
X26439814Y56338556D01*
X26580704Y56628171D01*
X26662384Y56939708D01*
X26681718Y57261195D01*
X26637961Y57580275D01*
X26532795Y57884688D01*
X26439814Y58058644D01*
X26175413Y58154408D01*
X25219605Y57198600D01*
X24860395Y57198600D01*
X23904587Y58154408D01*
X23640186Y58058644D01*
X23499296Y57769029D01*
X23417616Y57457492D01*
X23398282Y57136005D01*
X21595000Y57136005D01*
X21595000Y57359633D01*
X21532168Y57675512D01*
X21408918Y57973063D01*
X21229987Y58240852D01*
X21002252Y58468587D01*
X20800809Y58603187D01*
X21544192Y58603187D01*
X21639956Y58338786D01*
X21929571Y58197896D01*
X22241108Y58116216D01*
X22562595Y58096882D01*
X22881675Y58140639D01*
X23186088Y58245805D01*
X23351114Y58334013D01*
X24084192Y58334013D01*
X25040000Y57378205D01*
X25995808Y58334013D01*
X25900044Y58598414D01*
X25610429Y58739304D01*
X25298892Y58820984D01*
X24977405Y58840318D01*
X24658325Y58796561D01*
X24353912Y58691395D01*
X24179956Y58598414D01*
X24084192Y58334013D01*
X23351114Y58334013D01*
X23360044Y58338786D01*
X23455808Y58603187D01*
X22500000Y59558995D01*
X21544192Y58603187D01*
X20800809Y58603187D01*
X20734463Y58647518D01*
X20436912Y58770768D01*
X20121033Y58833600D01*
X19798967Y58833600D01*
X19483088Y58770768D01*
X19185537Y58647518D01*
X18917748Y58468587D01*
X18690013Y58240852D01*
X18511082Y57973063D01*
X18387832Y57675512D01*
X18325000Y57359633D01*
X4066904Y57359633D01*
X4167205Y57509744D01*
X4245226Y57698102D01*
X4285000Y57898061D01*
X4285000Y58101939D01*
X4245226Y58301898D01*
X4167205Y58490256D01*
X4053937Y58659774D01*
X3909774Y58803937D01*
X3740256Y58917205D01*
X3551898Y58995226D01*
X3351939Y59035000D01*
X3148061Y59035000D01*
X2948102Y58995226D01*
X2863060Y58960000D01*
X2135000Y58960000D01*
X2135000Y59676005D01*
X20858282Y59676005D01*
X20902039Y59356925D01*
X21007205Y59052512D01*
X21100186Y58878556D01*
X21364587Y58782792D01*
X22320395Y59738600D01*
X22679605Y59738600D01*
X23635413Y58782792D01*
X23899814Y58878556D01*
X23952787Y58987449D01*
X33669054Y58987449D01*
X33743663Y58740927D01*
X34003439Y58617527D01*
X34282297Y58547177D01*
X34569521Y58532583D01*
X34854074Y58574303D01*
X35125020Y58670735D01*
X35256337Y58740927D01*
X35330946Y58987449D01*
X34500000Y59818395D01*
X33669054Y58987449D01*
X23952787Y58987449D01*
X24040704Y59168171D01*
X24122384Y59479708D01*
X24141718Y59801195D01*
X24124263Y59928479D01*
X33034583Y59928479D01*
X33076303Y59643926D01*
X33172735Y59372980D01*
X33242927Y59241663D01*
X33489449Y59167054D01*
X34320395Y59998000D01*
X33489449Y60828946D01*
X33242927Y60754337D01*
X33119527Y60494561D01*
X33049177Y60215703D01*
X33034583Y59928479D01*
X24124263Y59928479D01*
X24097961Y60120275D01*
X23992795Y60424688D01*
X23899814Y60598644D01*
X23635413Y60694408D01*
X22679605Y59738600D01*
X22320395Y59738600D01*
X21364587Y60694408D01*
X21100186Y60598644D01*
X20959296Y60309029D01*
X20877616Y59997492D01*
X20858282Y59676005D01*
X2135000Y59676005D01*
X2135000Y60874013D01*
X21544192Y60874013D01*
X22500000Y59918205D01*
X23455808Y60874013D01*
X23360044Y61138414D01*
X23070429Y61279304D01*
X22758892Y61360984D01*
X22437405Y61380318D01*
X22118325Y61336561D01*
X21813912Y61231395D01*
X21639956Y61138414D01*
X21544192Y60874013D01*
X2135000Y60874013D01*
X2135000Y66540000D01*
X12863060Y66540000D01*
X12948102Y66504774D01*
X13148061Y66465000D01*
X13351939Y66465000D01*
X13551898Y66504774D01*
X13740256Y66582795D01*
X13909774Y66696063D01*
X14053937Y66840226D01*
X14167205Y67009744D01*
X14245226Y67198102D01*
X14285000Y67398061D01*
X14285000Y67601939D01*
X14265807Y67698430D01*
X30165000Y67698430D01*
X30165000Y67297570D01*
X30243204Y66904413D01*
X30396607Y66534066D01*
X30619313Y66200763D01*
X30902763Y65917313D01*
X31236066Y65694607D01*
X31606413Y65541204D01*
X31999570Y65463000D01*
X32400430Y65463000D01*
X32793587Y65541204D01*
X33163934Y65694607D01*
X33497237Y65917313D01*
X33780687Y66200763D01*
X34003393Y66534066D01*
X34156796Y66904413D01*
X34235000Y67297570D01*
X34235000Y67698430D01*
X39765000Y67698430D01*
X39765000Y67297570D01*
X39843204Y66904413D01*
X39996607Y66534066D01*
X40219313Y66200763D01*
X40502763Y65917313D01*
X40836066Y65694607D01*
X41206413Y65541204D01*
X41599570Y65463000D01*
X42000430Y65463000D01*
X42393587Y65541204D01*
X42763934Y65694607D01*
X43097237Y65917313D01*
X43380687Y66200763D01*
X43603393Y66534066D01*
X43756796Y66904413D01*
X43835000Y67297570D01*
X43835000Y67698430D01*
X43756796Y68091587D01*
X43603393Y68461934D01*
X43380687Y68795237D01*
X43097237Y69078687D01*
X42763934Y69301393D01*
X42393587Y69454796D01*
X42000430Y69533000D01*
X41599570Y69533000D01*
X41206413Y69454796D01*
X40836066Y69301393D01*
X40502763Y69078687D01*
X40219313Y68795237D01*
X39996607Y68461934D01*
X39843204Y68091587D01*
X39765000Y67698430D01*
X34235000Y67698430D01*
X34156796Y68091587D01*
X34003393Y68461934D01*
X33780687Y68795237D01*
X33497237Y69078687D01*
X33163934Y69301393D01*
X32793587Y69454796D01*
X32400430Y69533000D01*
X31999570Y69533000D01*
X31606413Y69454796D01*
X31236066Y69301393D01*
X30902763Y69078687D01*
X30619313Y68795237D01*
X30396607Y68461934D01*
X30243204Y68091587D01*
X30165000Y67698430D01*
X14265807Y67698430D01*
X14245226Y67801898D01*
X14167205Y67990256D01*
X14053937Y68159774D01*
X13909774Y68303937D01*
X13740256Y68417205D01*
X13551898Y68495226D01*
X13351939Y68535000D01*
X13148061Y68535000D01*
X12948102Y68495226D01*
X12863060Y68460000D01*
X11012260Y68460000D01*
X11100094Y68624326D01*
X11167853Y68847700D01*
X11190733Y69080000D01*
X11167853Y69312300D01*
X11100094Y69535674D01*
X10990058Y69741536D01*
X10841975Y69921975D01*
X10661536Y70070058D01*
X10455674Y70180094D01*
X10232300Y70247853D01*
X10058207Y70265000D01*
X8941793Y70265000D01*
X8767700Y70247853D01*
X8544326Y70180094D01*
X8338464Y70070058D01*
X8158025Y69921975D01*
X8009942Y69741536D01*
X7899906Y69535674D01*
X7832147Y69312300D01*
X7809267Y69080000D01*
X7832147Y68847700D01*
X7899906Y68624326D01*
X7987740Y68460000D01*
X2135000Y68460000D01*
X2135000Y74501939D01*
X20165000Y74501939D01*
X20165000Y74298061D01*
X20204774Y74098102D01*
X20282795Y73909744D01*
X20396063Y73740226D01*
X20436289Y73700000D01*
X20396063Y73659774D01*
X20282795Y73490256D01*
X20204774Y73301898D01*
X20165000Y73101939D01*
X20165000Y72898061D01*
X20204774Y72698102D01*
X20282795Y72509744D01*
X20356123Y72400000D01*
X20282795Y72290256D01*
X20204774Y72101898D01*
X20165000Y71901939D01*
X20165000Y71698061D01*
X20204774Y71498102D01*
X20282795Y71309744D01*
X20396063Y71140226D01*
X20436289Y71100000D01*
X20396063Y71059774D01*
X20282795Y70890256D01*
X20204774Y70701898D01*
X20165000Y70501939D01*
X20165000Y70298061D01*
X20204774Y70098102D01*
X20282795Y69909744D01*
X20396063Y69740226D01*
X20540226Y69596063D01*
X20709744Y69482795D01*
X20898102Y69404774D01*
X21098061Y69365000D01*
X21301939Y69365000D01*
X21501898Y69404774D01*
X21690256Y69482795D01*
X21859774Y69596063D01*
X22003937Y69740226D01*
X22117205Y69909744D01*
X22195226Y70098102D01*
X22235000Y70298061D01*
X22235000Y70360198D01*
X22314802Y70440000D01*
X35962678Y70440000D01*
X36000000Y70436324D01*
X36037322Y70440000D01*
X36037333Y70440000D01*
X36148986Y70450997D01*
X36292247Y70494454D01*
X36424276Y70565026D01*
X36540001Y70659999D01*
X36563804Y70689002D01*
X37089802Y71215000D01*
X37101939Y71215000D01*
X37301898Y71254774D01*
X37490256Y71332795D01*
X37659774Y71446063D01*
X37803937Y71590226D01*
X37917205Y71759744D01*
X37995226Y71948102D01*
X38035000Y72148061D01*
X38035000Y72351939D01*
X37995226Y72551898D01*
X37917205Y72740256D01*
X37803937Y72909774D01*
X37659774Y73053937D01*
X37490256Y73167205D01*
X37301898Y73245226D01*
X37101939Y73285000D01*
X36898061Y73285000D01*
X36698102Y73245226D01*
X36509744Y73167205D01*
X36362585Y73068877D01*
X36290256Y73117205D01*
X36252164Y73132983D01*
X36285000Y73298061D01*
X36285000Y73501939D01*
X36245226Y73701898D01*
X36167205Y73890256D01*
X36053937Y74059774D01*
X35909774Y74203937D01*
X35827246Y74259080D01*
X35835000Y74298061D01*
X35835000Y74501939D01*
X35795226Y74701898D01*
X35717205Y74890256D01*
X35603937Y75059774D01*
X35459774Y75203937D01*
X35290256Y75317205D01*
X35101898Y75395226D01*
X34901939Y75435000D01*
X34698061Y75435000D01*
X34498102Y75395226D01*
X34309744Y75317205D01*
X34140226Y75203937D01*
X33996063Y75059774D01*
X33882795Y74890256D01*
X33804774Y74701898D01*
X33765000Y74501939D01*
X33765000Y74439802D01*
X33085199Y73760000D01*
X22914802Y73760000D01*
X22235000Y74439801D01*
X22235000Y74501939D01*
X22195226Y74701898D01*
X22117205Y74890256D01*
X22003937Y75059774D01*
X21859774Y75203937D01*
X21690256Y75317205D01*
X21501898Y75395226D01*
X21301939Y75435000D01*
X21098061Y75435000D01*
X20898102Y75395226D01*
X20709744Y75317205D01*
X20540226Y75203937D01*
X20396063Y75059774D01*
X20282795Y74890256D01*
X20204774Y74701898D01*
X20165000Y74501939D01*
X2135000Y74501939D01*
X2135000Y77062391D01*
X7856538Y77062391D01*
X7860409Y77024718D01*
X7952579Y76799467D01*
X8086922Y76596526D01*
X8258275Y76423693D01*
X8460054Y76287610D01*
X8684504Y76193507D01*
X8923000Y76145000D01*
X9373000Y76145000D01*
X9373000Y77253000D01*
X9627000Y77253000D01*
X9627000Y76145000D01*
X10077000Y76145000D01*
X10315496Y76193507D01*
X10539946Y76287610D01*
X10741725Y76423693D01*
X10913078Y76596526D01*
X11047421Y76799467D01*
X11139591Y77024718D01*
X11143462Y77062391D01*
X11018731Y77253000D01*
X9627000Y77253000D01*
X9373000Y77253000D01*
X7981269Y77253000D01*
X7856538Y77062391D01*
X2135000Y77062391D01*
X2135000Y77697609D01*
X7856538Y77697609D01*
X7981269Y77507000D01*
X9373000Y77507000D01*
X9373000Y79493500D01*
X9627000Y79493500D01*
X9627000Y77507000D01*
X11018731Y77507000D01*
X11143462Y77697609D01*
X11139591Y77735282D01*
X11047421Y77960533D01*
X10913078Y78163474D01*
X10741725Y78336307D01*
X10539946Y78472390D01*
X10423496Y78521213D01*
X10439946Y78528110D01*
X10641725Y78664193D01*
X10813078Y78837026D01*
X10947421Y79039967D01*
X11039591Y79265218D01*
X11043462Y79302891D01*
X10918731Y79493500D01*
X9627000Y79493500D01*
X9373000Y79493500D01*
X8081269Y79493500D01*
X7956538Y79302891D01*
X7960409Y79265218D01*
X8052579Y79039967D01*
X8186922Y78837026D01*
X8358275Y78664193D01*
X8560054Y78528110D01*
X8576504Y78521213D01*
X8460054Y78472390D01*
X8258275Y78336307D01*
X8086922Y78163474D01*
X7952579Y77960533D01*
X7860409Y77735282D01*
X7856538Y77697609D01*
X2135000Y77697609D01*
X2135000Y80289945D01*
X2230013Y80147748D01*
X2457748Y79920013D01*
X2725537Y79741082D01*
X3023088Y79617832D01*
X3338967Y79555000D01*
X3661033Y79555000D01*
X3976912Y79617832D01*
X4274463Y79741082D01*
X4542252Y79920013D01*
X4560348Y79938109D01*
X7956538Y79938109D01*
X8081269Y79747500D01*
X9373000Y79747500D01*
X9373000Y80855500D01*
X9627000Y80855500D01*
X9627000Y79747500D01*
X10918731Y79747500D01*
X11043462Y79938109D01*
X11039591Y79975782D01*
X10947421Y80201033D01*
X10813078Y80403974D01*
X10641725Y80576807D01*
X10439946Y80712890D01*
X10215496Y80806993D01*
X9977000Y80855500D01*
X9627000Y80855500D01*
X9373000Y80855500D01*
X9023000Y80855500D01*
X8784504Y80806993D01*
X8560054Y80712890D01*
X8358275Y80576807D01*
X8186922Y80403974D01*
X8052579Y80201033D01*
X7960409Y79975782D01*
X7956538Y79938109D01*
X4560348Y79938109D01*
X4769987Y80147748D01*
X4948918Y80415537D01*
X5072168Y80713088D01*
X5135000Y81028967D01*
X5135000Y81351033D01*
X5072168Y81666912D01*
X4948918Y81964463D01*
X4769987Y82232252D01*
X4542252Y82459987D01*
X4274463Y82638918D01*
X3976912Y82762168D01*
X3661033Y82825000D01*
X3338967Y82825000D01*
X3023088Y82762168D01*
X2725537Y82638918D01*
X2457748Y82459987D01*
X2230013Y82232252D01*
X2135000Y82090055D01*
X2135000Y83080000D01*
X11309267Y83080000D01*
X11332147Y82847700D01*
X11399906Y82624326D01*
X11509942Y82418464D01*
X11658025Y82238025D01*
X11838464Y82089942D01*
X12044326Y81979906D01*
X12267700Y81912147D01*
X12441793Y81895000D01*
X13558207Y81895000D01*
X13732300Y81912147D01*
X13955674Y81979906D01*
X14161536Y82089942D01*
X14341975Y82238025D01*
X14490058Y82418464D01*
X14600094Y82624326D01*
X14667853Y82847700D01*
X14690733Y83080000D01*
X14667853Y83312300D01*
X14600094Y83535674D01*
X14490058Y83741536D01*
X14341975Y83921975D01*
X14161536Y84070058D01*
X13955674Y84180094D01*
X13732300Y84247853D01*
X13558207Y84265000D01*
X12441793Y84265000D01*
X12267700Y84247853D01*
X12044326Y84180094D01*
X11838464Y84070058D01*
X11658025Y83921975D01*
X11509942Y83741536D01*
X11399906Y83535674D01*
X11332147Y83312300D01*
X11309267Y83080000D01*
X2135000Y83080000D01*
X2135000Y85977500D01*
X4965205Y85977500D01*
X5110602Y85917274D01*
X5310561Y85877500D01*
X5514439Y85877500D01*
X5714398Y85917274D01*
X5902756Y85995295D01*
X6072274Y86108563D01*
X6216437Y86252726D01*
X6282728Y86351939D01*
X34965000Y86351939D01*
X34965000Y86148061D01*
X35004774Y85948102D01*
X35082795Y85759744D01*
X35196063Y85590226D01*
X35340226Y85446063D01*
X35509744Y85332795D01*
X35698102Y85254774D01*
X35898061Y85215000D01*
X36101939Y85215000D01*
X36301898Y85254774D01*
X36490256Y85332795D01*
X36659774Y85446063D01*
X36803937Y85590226D01*
X36917205Y85759744D01*
X36995226Y85948102D01*
X37035000Y86148061D01*
X37035000Y86210199D01*
X38387911Y87563110D01*
X39768524Y87563110D01*
X39813175Y87415901D01*
X39938359Y87153080D01*
X40112412Y86919731D01*
X40328645Y86724822D01*
X40578748Y86575843D01*
X40853109Y86478519D01*
X41083000Y86599186D01*
X41083000Y87793000D01*
X39889845Y87793000D01*
X39768524Y87563110D01*
X38387911Y87563110D01*
X39264802Y88440000D01*
X39820749Y88440000D01*
X39813175Y88424099D01*
X39768524Y88276890D01*
X39889845Y88047000D01*
X41083000Y88047000D01*
X41083000Y88067000D01*
X41337000Y88067000D01*
X41337000Y88047000D01*
X41357000Y88047000D01*
X41357000Y87793000D01*
X41337000Y87793000D01*
X41337000Y86599186D01*
X41566891Y86478519D01*
X41841252Y86575843D01*
X42091355Y86724822D01*
X42307588Y86919731D01*
X42478900Y87149406D01*
X42596525Y86973368D01*
X42803368Y86766525D01*
X43046589Y86604010D01*
X43316842Y86492068D01*
X43603740Y86435000D01*
X43896260Y86435000D01*
X44183158Y86492068D01*
X44453411Y86604010D01*
X44696632Y86766525D01*
X44903475Y86973368D01*
X45065990Y87216589D01*
X45177932Y87486842D01*
X45235000Y87773740D01*
X45235000Y88066260D01*
X45177932Y88353158D01*
X45065990Y88623411D01*
X44903475Y88866632D01*
X44696632Y89073475D01*
X44522240Y89190000D01*
X44696632Y89306525D01*
X44903475Y89513368D01*
X45065990Y89756589D01*
X45177932Y90026842D01*
X45235000Y90313740D01*
X45235000Y90606260D01*
X45177932Y90893158D01*
X45065990Y91163411D01*
X44903475Y91406632D01*
X44771620Y91538487D01*
X44844180Y91560498D01*
X44954494Y91619463D01*
X45051185Y91698815D01*
X45130537Y91795506D01*
X45189502Y91905820D01*
X45225812Y92025518D01*
X45238072Y92150000D01*
X45238072Y93850000D01*
X45225812Y93974482D01*
X45189502Y94094180D01*
X45130537Y94204494D01*
X45051185Y94301185D01*
X44954494Y94380537D01*
X44844180Y94439502D01*
X44724482Y94475812D01*
X44600000Y94488072D01*
X42900000Y94488072D01*
X42775518Y94475812D01*
X42655820Y94439502D01*
X42545506Y94380537D01*
X42448815Y94301185D01*
X42369463Y94204494D01*
X42310498Y94094180D01*
X42288487Y94021620D01*
X42156632Y94153475D01*
X41913411Y94315990D01*
X41643158Y94427932D01*
X41356260Y94485000D01*
X41063740Y94485000D01*
X40776842Y94427932D01*
X40506589Y94315990D01*
X40263368Y94153475D01*
X40056525Y93946632D01*
X39894010Y93703411D01*
X39782068Y93433158D01*
X39725000Y93146260D01*
X39725000Y92853740D01*
X39782068Y92566842D01*
X39894010Y92296589D01*
X40056525Y92053368D01*
X40263368Y91846525D01*
X40437760Y91730000D01*
X40263368Y91613475D01*
X40056525Y91406632D01*
X39894010Y91163411D01*
X39782068Y90893158D01*
X39725000Y90606260D01*
X39725000Y90313740D01*
X39782068Y90026842D01*
X39809755Y89960000D01*
X38987322Y89960000D01*
X38949999Y89963676D01*
X38912677Y89960000D01*
X38912667Y89960000D01*
X38801014Y89949003D01*
X38671691Y89909774D01*
X38657753Y89905546D01*
X38525723Y89834974D01*
X38481636Y89798792D01*
X38409999Y89740001D01*
X38386201Y89711003D01*
X35960199Y87285000D01*
X35898061Y87285000D01*
X35698102Y87245226D01*
X35509744Y87167205D01*
X35340226Y87053937D01*
X35196063Y86909774D01*
X35082795Y86740256D01*
X35004774Y86551898D01*
X34965000Y86351939D01*
X6282728Y86351939D01*
X6329705Y86422244D01*
X6407726Y86610602D01*
X6447500Y86810561D01*
X6447500Y87014439D01*
X6407726Y87214398D01*
X6329705Y87402756D01*
X6216437Y87572274D01*
X6072274Y87716437D01*
X5902756Y87829705D01*
X5714398Y87907726D01*
X5582711Y87933920D01*
X29615525Y87933920D01*
X29699208Y87679739D01*
X29971775Y87548842D01*
X30264642Y87473635D01*
X30566553Y87457009D01*
X30865907Y87499603D01*
X31151199Y87599778D01*
X31300792Y87679739D01*
X31384475Y87933920D01*
X30500000Y88818395D01*
X29615525Y87933920D01*
X5582711Y87933920D01*
X5514439Y87947500D01*
X5310561Y87947500D01*
X5137629Y87913102D01*
X5135000Y88524250D01*
X4976250Y88683000D01*
X3627000Y88683000D01*
X3627000Y88663000D01*
X3373000Y88663000D01*
X3373000Y88683000D01*
X3353000Y88683000D01*
X3353000Y88937000D01*
X3373000Y88937000D01*
X3373000Y90286250D01*
X3627000Y90286250D01*
X3627000Y88937000D01*
X4976250Y88937000D01*
X5135000Y89095750D01*
X5138072Y89810000D01*
X5125812Y89934482D01*
X5089502Y90054180D01*
X5030537Y90164494D01*
X4951185Y90261185D01*
X4854494Y90340537D01*
X4744180Y90399502D01*
X4624482Y90435812D01*
X4500000Y90448072D01*
X3785750Y90445000D01*
X3627000Y90286250D01*
X3373000Y90286250D01*
X3214250Y90445000D01*
X2500000Y90448072D01*
X2375518Y90435812D01*
X2255820Y90399502D01*
X2145506Y90340537D01*
X2135000Y90331915D01*
X2135000Y91062391D01*
X11356538Y91062391D01*
X11360409Y91024718D01*
X11452579Y90799467D01*
X11586922Y90596526D01*
X11758275Y90423693D01*
X11960054Y90287610D01*
X12184504Y90193507D01*
X12423000Y90145000D01*
X12873000Y90145000D01*
X12873000Y91253000D01*
X13127000Y91253000D01*
X13127000Y90145000D01*
X13577000Y90145000D01*
X13815496Y90193507D01*
X14039946Y90287610D01*
X14241725Y90423693D01*
X14413078Y90596526D01*
X14547421Y90799467D01*
X14639591Y91024718D01*
X14643462Y91062391D01*
X14518731Y91253000D01*
X13127000Y91253000D01*
X12873000Y91253000D01*
X11481269Y91253000D01*
X11356538Y91062391D01*
X2135000Y91062391D01*
X2135000Y91697609D01*
X11356538Y91697609D01*
X11481269Y91507000D01*
X12873000Y91507000D01*
X12873000Y93493500D01*
X13127000Y93493500D01*
X13127000Y91507000D01*
X14518731Y91507000D01*
X14643462Y91697609D01*
X14639591Y91735282D01*
X14547421Y91960533D01*
X14413078Y92163474D01*
X14241725Y92336307D01*
X14039946Y92472390D01*
X13923496Y92521213D01*
X13939946Y92528110D01*
X14141725Y92664193D01*
X14313078Y92837026D01*
X14447421Y93039967D01*
X14539591Y93265218D01*
X14543462Y93302891D01*
X14511366Y93351939D01*
X22465000Y93351939D01*
X22465000Y93148061D01*
X22504774Y92948102D01*
X22582795Y92759744D01*
X22696063Y92590226D01*
X22740000Y92546289D01*
X22740001Y91453712D01*
X22696063Y91409774D01*
X22582795Y91240256D01*
X22504774Y91051898D01*
X22465000Y90851939D01*
X22465000Y90648061D01*
X22504774Y90448102D01*
X22582795Y90259744D01*
X22696063Y90090226D01*
X22786289Y90000000D01*
X22696063Y89909774D01*
X22582795Y89740256D01*
X22504774Y89551898D01*
X22465000Y89351939D01*
X22465000Y89148061D01*
X22504774Y88948102D01*
X22582795Y88759744D01*
X22696063Y88590226D01*
X22840226Y88446063D01*
X23009744Y88332795D01*
X23198102Y88254774D01*
X23398061Y88215000D01*
X23601939Y88215000D01*
X23801898Y88254774D01*
X23990256Y88332795D01*
X24159774Y88446063D01*
X24203711Y88490000D01*
X25796289Y88490000D01*
X25840226Y88446063D01*
X26009744Y88332795D01*
X26198102Y88254774D01*
X26398061Y88215000D01*
X26601939Y88215000D01*
X26801898Y88254774D01*
X26990256Y88332795D01*
X27159774Y88446063D01*
X27303937Y88590226D01*
X27417205Y88759744D01*
X27488327Y88931447D01*
X28959009Y88931447D01*
X29001603Y88632093D01*
X29101778Y88346801D01*
X29181739Y88197208D01*
X29435920Y88113525D01*
X30320395Y88998000D01*
X30679605Y88998000D01*
X31564080Y88113525D01*
X31712262Y88162310D01*
X31807688Y88019495D01*
X32021495Y87805688D01*
X32272905Y87637701D01*
X32552257Y87521989D01*
X32848816Y87463000D01*
X33151184Y87463000D01*
X33447743Y87521989D01*
X33727095Y87637701D01*
X33978505Y87805688D01*
X34192312Y88019495D01*
X34250000Y88105831D01*
X34307688Y88019495D01*
X34521495Y87805688D01*
X34772905Y87637701D01*
X35052257Y87521989D01*
X35348816Y87463000D01*
X35651184Y87463000D01*
X35947743Y87521989D01*
X36227095Y87637701D01*
X36478505Y87805688D01*
X36692312Y88019495D01*
X36860299Y88270905D01*
X36976011Y88550257D01*
X37035000Y88846816D01*
X37035000Y89149184D01*
X36976011Y89445743D01*
X36860299Y89725095D01*
X36692312Y89976505D01*
X36478505Y90190312D01*
X36227095Y90358299D01*
X35947743Y90474011D01*
X35651184Y90533000D01*
X35348816Y90533000D01*
X35052257Y90474011D01*
X34772905Y90358299D01*
X34521495Y90190312D01*
X34307688Y89976505D01*
X34250000Y89890169D01*
X34192312Y89976505D01*
X33978505Y90190312D01*
X33727095Y90358299D01*
X33447743Y90474011D01*
X33151184Y90533000D01*
X32848816Y90533000D01*
X32552257Y90474011D01*
X32272905Y90358299D01*
X32021495Y90190312D01*
X31807688Y89976505D01*
X31712262Y89833690D01*
X31564080Y89882475D01*
X30679605Y88998000D01*
X30320395Y88998000D01*
X29435920Y89882475D01*
X29181739Y89798792D01*
X29050842Y89526225D01*
X28975635Y89233358D01*
X28959009Y88931447D01*
X27488327Y88931447D01*
X27495226Y88948102D01*
X27535000Y89148061D01*
X27535000Y89351939D01*
X27495226Y89551898D01*
X27417205Y89740256D01*
X27303937Y89909774D01*
X27159774Y90053937D01*
X27147588Y90062080D01*
X29615525Y90062080D01*
X30500000Y89177605D01*
X31384475Y90062080D01*
X31300792Y90316261D01*
X31028225Y90447158D01*
X30735358Y90522365D01*
X30433447Y90538991D01*
X30134093Y90496397D01*
X29848801Y90396222D01*
X29699208Y90316261D01*
X29615525Y90062080D01*
X27147588Y90062080D01*
X26990256Y90167205D01*
X26801898Y90245226D01*
X26601939Y90285000D01*
X26398061Y90285000D01*
X26198102Y90245226D01*
X26009744Y90167205D01*
X25840226Y90053937D01*
X25796289Y90010000D01*
X24223711Y90010000D01*
X24303937Y90090226D01*
X24417205Y90259744D01*
X24495226Y90448102D01*
X24535000Y90648061D01*
X24535000Y90851939D01*
X24495226Y91051898D01*
X24417205Y91240256D01*
X24303937Y91409774D01*
X24260000Y91453711D01*
X24260000Y92546289D01*
X24303937Y92590226D01*
X24417205Y92759744D01*
X24495226Y92948102D01*
X24535000Y93148061D01*
X24535000Y93351939D01*
X24495226Y93551898D01*
X24417205Y93740256D01*
X24303937Y93909774D01*
X24159774Y94053937D01*
X23990256Y94167205D01*
X23801898Y94245226D01*
X23601939Y94285000D01*
X23398061Y94285000D01*
X23198102Y94245226D01*
X23009744Y94167205D01*
X22840226Y94053937D01*
X22696063Y93909774D01*
X22582795Y93740256D01*
X22504774Y93551898D01*
X22465000Y93351939D01*
X14511366Y93351939D01*
X14418731Y93493500D01*
X13127000Y93493500D01*
X12873000Y93493500D01*
X11581269Y93493500D01*
X11456538Y93302891D01*
X11460409Y93265218D01*
X11552579Y93039967D01*
X11686922Y92837026D01*
X11858275Y92664193D01*
X12060054Y92528110D01*
X12076504Y92521213D01*
X11960054Y92472390D01*
X11758275Y92336307D01*
X11586922Y92163474D01*
X11452579Y91960533D01*
X11360409Y91735282D01*
X11356538Y91697609D01*
X2135000Y91697609D01*
X2135000Y93938109D01*
X11456538Y93938109D01*
X11581269Y93747500D01*
X12873000Y93747500D01*
X12873000Y94855500D01*
X13127000Y94855500D01*
X13127000Y93747500D01*
X14418731Y93747500D01*
X14543462Y93938109D01*
X14539591Y93975782D01*
X14447421Y94201033D01*
X14313078Y94403974D01*
X14141725Y94576807D01*
X13939946Y94712890D01*
X13715496Y94806993D01*
X13477000Y94855500D01*
X13127000Y94855500D01*
X12873000Y94855500D01*
X12523000Y94855500D01*
X12284504Y94806993D01*
X12060054Y94712890D01*
X11858275Y94576807D01*
X11686922Y94403974D01*
X11552579Y94201033D01*
X11460409Y93975782D01*
X11456538Y93938109D01*
X2135000Y93938109D01*
X2135000Y96061891D01*
X7956538Y96061891D01*
X7960409Y96024218D01*
X8052579Y95798967D01*
X8186922Y95596026D01*
X8358275Y95423193D01*
X8560054Y95287110D01*
X8784504Y95193007D01*
X9023000Y95144500D01*
X9373000Y95144500D01*
X9373000Y96252500D01*
X9627000Y96252500D01*
X9627000Y95144500D01*
X9977000Y95144500D01*
X10215496Y95193007D01*
X10439946Y95287110D01*
X10641725Y95423193D01*
X10813078Y95596026D01*
X10947421Y95798967D01*
X11039591Y96024218D01*
X11043462Y96061891D01*
X10918731Y96252500D01*
X9627000Y96252500D01*
X9373000Y96252500D01*
X8081269Y96252500D01*
X7956538Y96061891D01*
X2135000Y96061891D01*
X2135000Y98302391D01*
X7856538Y98302391D01*
X7860409Y98264718D01*
X7952579Y98039467D01*
X8086922Y97836526D01*
X8258275Y97663693D01*
X8460054Y97527610D01*
X8576504Y97478787D01*
X8560054Y97471890D01*
X8358275Y97335807D01*
X8186922Y97162974D01*
X8052579Y96960033D01*
X7960409Y96734782D01*
X7956538Y96697109D01*
X8081269Y96506500D01*
X9373000Y96506500D01*
X9373000Y98493000D01*
X9627000Y98493000D01*
X9627000Y96506500D01*
X10918731Y96506500D01*
X11043462Y96697109D01*
X11043327Y96698430D01*
X26165000Y96698430D01*
X26165000Y96297570D01*
X26243204Y95904413D01*
X26396607Y95534066D01*
X26619313Y95200763D01*
X26902763Y94917313D01*
X27236066Y94694607D01*
X27606413Y94541204D01*
X27999570Y94463000D01*
X28400430Y94463000D01*
X28793587Y94541204D01*
X29163934Y94694607D01*
X29497237Y94917313D01*
X29780687Y95200763D01*
X30003393Y95534066D01*
X30156796Y95904413D01*
X30235000Y96297570D01*
X30235000Y96698430D01*
X35765000Y96698430D01*
X35765000Y96297570D01*
X35843204Y95904413D01*
X35996607Y95534066D01*
X36219313Y95200763D01*
X36502763Y94917313D01*
X36836066Y94694607D01*
X37206413Y94541204D01*
X37599570Y94463000D01*
X38000430Y94463000D01*
X38393587Y94541204D01*
X38763934Y94694607D01*
X39097237Y94917313D01*
X39380687Y95200763D01*
X39603393Y95534066D01*
X39756796Y95904413D01*
X39835000Y96297570D01*
X39835000Y96698430D01*
X39756796Y97091587D01*
X39603393Y97461934D01*
X39380687Y97795237D01*
X39097237Y98078687D01*
X38763934Y98301393D01*
X38393587Y98454796D01*
X38000430Y98533000D01*
X37599570Y98533000D01*
X37206413Y98454796D01*
X36836066Y98301393D01*
X36502763Y98078687D01*
X36219313Y97795237D01*
X35996607Y97461934D01*
X35843204Y97091587D01*
X35765000Y96698430D01*
X30235000Y96698430D01*
X30156796Y97091587D01*
X30003393Y97461934D01*
X29780687Y97795237D01*
X29497237Y98078687D01*
X29163934Y98301393D01*
X28793587Y98454796D01*
X28400430Y98533000D01*
X27999570Y98533000D01*
X27606413Y98454796D01*
X27236066Y98301393D01*
X26902763Y98078687D01*
X26619313Y97795237D01*
X26396607Y97461934D01*
X26243204Y97091587D01*
X26165000Y96698430D01*
X11043327Y96698430D01*
X11039591Y96734782D01*
X10947421Y96960033D01*
X10813078Y97162974D01*
X10641725Y97335807D01*
X10439946Y97471890D01*
X10423496Y97478787D01*
X10539946Y97527610D01*
X10741725Y97663693D01*
X10913078Y97836526D01*
X11047421Y98039467D01*
X11139591Y98264718D01*
X11143462Y98302391D01*
X11018731Y98493000D01*
X9627000Y98493000D01*
X9373000Y98493000D01*
X7981269Y98493000D01*
X7856538Y98302391D01*
X2135000Y98302391D01*
X2135000Y98937609D01*
X7856538Y98937609D01*
X7981269Y98747000D01*
X9373000Y98747000D01*
X9373000Y99855000D01*
X9627000Y99855000D01*
X9627000Y98747000D01*
X11018731Y98747000D01*
X11143462Y98937609D01*
X11139591Y98975282D01*
X11047421Y99200533D01*
X10913078Y99403474D01*
X10741725Y99576307D01*
X10539946Y99712390D01*
X10315496Y99806493D01*
X10077000Y99855000D01*
X9627000Y99855000D01*
X9373000Y99855000D01*
X8923000Y99855000D01*
X8684504Y99806493D01*
X8460054Y99712390D01*
X8258275Y99576307D01*
X8086922Y99403474D01*
X7952579Y99200533D01*
X7860409Y98975282D01*
X7856538Y98937609D01*
X2135000Y98937609D01*
X2135000Y106029869D01*
X3970132Y107865000D01*
X8283561Y107865000D01*
X8158025Y107761975D01*
X8009942Y107581536D01*
X7899906Y107375674D01*
X7832147Y107152300D01*
X7809267Y106920000D01*
X7832147Y106687700D01*
X7899906Y106464326D01*
X8009942Y106258464D01*
X8158025Y106078025D01*
X8338464Y105929942D01*
X8544326Y105819906D01*
X8767700Y105752147D01*
X8941793Y105735000D01*
X10058207Y105735000D01*
X10232300Y105752147D01*
X10455674Y105819906D01*
X10661536Y105929942D01*
X10841975Y106078025D01*
X10990058Y106258464D01*
X11100094Y106464326D01*
X11165830Y106681033D01*
X22035000Y106681033D01*
X22035000Y106358967D01*
X22097832Y106043088D01*
X22221082Y105745537D01*
X22400013Y105477748D01*
X22627748Y105250013D01*
X22627767Y105250000D01*
X22627748Y105249987D01*
X22400013Y105022252D01*
X22221082Y104754463D01*
X22097832Y104456912D01*
X22035000Y104141033D01*
X22035000Y103818967D01*
X22097832Y103503088D01*
X22221082Y103205537D01*
X22400013Y102937748D01*
X22627748Y102710013D01*
X22895537Y102531082D01*
X23193088Y102407832D01*
X23508967Y102345000D01*
X23831033Y102345000D01*
X24146912Y102407832D01*
X24444463Y102531082D01*
X24712252Y102710013D01*
X24846826Y102844587D01*
X25254192Y102844587D01*
X25349956Y102580186D01*
X25639571Y102439296D01*
X25951108Y102357616D01*
X26272595Y102338282D01*
X26591675Y102382039D01*
X26896088Y102487205D01*
X27070044Y102580186D01*
X27165808Y102844587D01*
X27794192Y102844587D01*
X27889956Y102580186D01*
X28179571Y102439296D01*
X28491108Y102357616D01*
X28812595Y102338282D01*
X29131675Y102382039D01*
X29436088Y102487205D01*
X29610044Y102580186D01*
X29705808Y102844587D01*
X30334192Y102844587D01*
X30429956Y102580186D01*
X30719571Y102439296D01*
X31031108Y102357616D01*
X31352595Y102338282D01*
X31671675Y102382039D01*
X31976088Y102487205D01*
X32150044Y102580186D01*
X32245808Y102844587D01*
X31290000Y103800395D01*
X30334192Y102844587D01*
X29705808Y102844587D01*
X28750000Y103800395D01*
X27794192Y102844587D01*
X27165808Y102844587D01*
X26210000Y103800395D01*
X25254192Y102844587D01*
X24846826Y102844587D01*
X24939987Y102937748D01*
X25012720Y103046600D01*
X25074587Y103024192D01*
X26030395Y103980000D01*
X26389605Y103980000D01*
X27345413Y103024192D01*
X27480000Y103072938D01*
X27614587Y103024192D01*
X28570395Y103980000D01*
X28929605Y103980000D01*
X29885413Y103024192D01*
X30020000Y103072938D01*
X30154587Y103024192D01*
X31110395Y103980000D01*
X30154587Y104935808D01*
X30020000Y104887062D01*
X29885413Y104935808D01*
X28929605Y103980000D01*
X28570395Y103980000D01*
X27614587Y104935808D01*
X27480000Y104887062D01*
X27345413Y104935808D01*
X26389605Y103980000D01*
X26030395Y103980000D01*
X25074587Y104935808D01*
X25012720Y104913400D01*
X24939987Y105022252D01*
X24712252Y105249987D01*
X24712233Y105250000D01*
X24712252Y105250013D01*
X24846826Y105384587D01*
X25254192Y105384587D01*
X25302938Y105250000D01*
X25254192Y105115413D01*
X26210000Y104159605D01*
X27165808Y105115413D01*
X27117062Y105250000D01*
X27165808Y105384587D01*
X27794192Y105384587D01*
X27842938Y105250000D01*
X27794192Y105115413D01*
X28750000Y104159605D01*
X29705808Y105115413D01*
X29657062Y105250000D01*
X29705808Y105384587D01*
X30334192Y105384587D01*
X30382938Y105250000D01*
X30334192Y105115413D01*
X31290000Y104159605D01*
X32245808Y105115413D01*
X32197062Y105250000D01*
X32245808Y105384587D01*
X31290000Y106340395D01*
X30334192Y105384587D01*
X29705808Y105384587D01*
X28750000Y106340395D01*
X27794192Y105384587D01*
X27165808Y105384587D01*
X26210000Y106340395D01*
X25254192Y105384587D01*
X24846826Y105384587D01*
X24939987Y105477748D01*
X25012720Y105586600D01*
X25074587Y105564192D01*
X26030395Y106520000D01*
X26389605Y106520000D01*
X27345413Y105564192D01*
X27480000Y105612938D01*
X27614587Y105564192D01*
X28570395Y106520000D01*
X28929605Y106520000D01*
X29885413Y105564192D01*
X30020000Y105612938D01*
X30154587Y105564192D01*
X31110395Y106520000D01*
X31469605Y106520000D01*
X32425413Y105564192D01*
X32487280Y105586600D01*
X32560013Y105477748D01*
X32787748Y105250013D01*
X32787767Y105250000D01*
X32787748Y105249987D01*
X32560013Y105022252D01*
X32487280Y104913400D01*
X32425413Y104935808D01*
X31469605Y103980000D01*
X32425413Y103024192D01*
X32487280Y103046600D01*
X32560013Y102937748D01*
X32787748Y102710013D01*
X33055537Y102531082D01*
X33353088Y102407832D01*
X33668967Y102345000D01*
X33991033Y102345000D01*
X34306912Y102407832D01*
X34604463Y102531082D01*
X34872252Y102710013D01*
X35099987Y102937748D01*
X35278918Y103205537D01*
X35402168Y103503088D01*
X35465000Y103818967D01*
X35465000Y104141033D01*
X35402168Y104456912D01*
X35278918Y104754463D01*
X35099987Y105022252D01*
X34872252Y105249987D01*
X34872233Y105250000D01*
X34872252Y105250013D01*
X35099987Y105477748D01*
X35278918Y105745537D01*
X35402168Y106043088D01*
X35465000Y106358967D01*
X35465000Y106681033D01*
X35402168Y106996912D01*
X35278918Y107294463D01*
X35099987Y107562252D01*
X34872252Y107789987D01*
X34604463Y107968918D01*
X34306912Y108092168D01*
X33991033Y108155000D01*
X33668967Y108155000D01*
X33353088Y108092168D01*
X33055537Y107968918D01*
X32787748Y107789987D01*
X32560013Y107562252D01*
X32487280Y107453400D01*
X32425413Y107475808D01*
X31469605Y106520000D01*
X31110395Y106520000D01*
X30154587Y107475808D01*
X30020000Y107427062D01*
X29885413Y107475808D01*
X28929605Y106520000D01*
X28570395Y106520000D01*
X27614587Y107475808D01*
X27480000Y107427062D01*
X27345413Y107475808D01*
X26389605Y106520000D01*
X26030395Y106520000D01*
X25074587Y107475808D01*
X25012720Y107453400D01*
X24939987Y107562252D01*
X24846826Y107655413D01*
X25254192Y107655413D01*
X26210000Y106699605D01*
X27165808Y107655413D01*
X27794192Y107655413D01*
X28750000Y106699605D01*
X29705808Y107655413D01*
X30334192Y107655413D01*
X31290000Y106699605D01*
X32245808Y107655413D01*
X32150044Y107919814D01*
X31860429Y108060704D01*
X31548892Y108142384D01*
X31227405Y108161718D01*
X30908325Y108117961D01*
X30603912Y108012795D01*
X30429956Y107919814D01*
X30334192Y107655413D01*
X29705808Y107655413D01*
X29610044Y107919814D01*
X29320429Y108060704D01*
X29008892Y108142384D01*
X28687405Y108161718D01*
X28368325Y108117961D01*
X28063912Y108012795D01*
X27889956Y107919814D01*
X27794192Y107655413D01*
X27165808Y107655413D01*
X27070044Y107919814D01*
X26780429Y108060704D01*
X26468892Y108142384D01*
X26147405Y108161718D01*
X25828325Y108117961D01*
X25523912Y108012795D01*
X25349956Y107919814D01*
X25254192Y107655413D01*
X24846826Y107655413D01*
X24712252Y107789987D01*
X24444463Y107968918D01*
X24146912Y108092168D01*
X23831033Y108155000D01*
X23508967Y108155000D01*
X23193088Y108092168D01*
X22895537Y107968918D01*
X22627748Y107789987D01*
X22400013Y107562252D01*
X22221082Y107294463D01*
X22097832Y106996912D01*
X22035000Y106681033D01*
X11165830Y106681033D01*
X11167853Y106687700D01*
X11190733Y106920000D01*
X11167853Y107152300D01*
X11100094Y107375674D01*
X10990058Y107581536D01*
X10841975Y107761975D01*
X10716439Y107865000D01*
X16305752Y107865000D01*
X16472499Y107881423D01*
X16686447Y107946324D01*
X16883623Y108051716D01*
X17056449Y108193551D01*
X17198284Y108366377D01*
X17303676Y108563553D01*
X17368577Y108777501D01*
X17390491Y109000000D01*
X17368577Y109222499D01*
X17332933Y109340000D01*
X47340001Y109340000D01*
X47340001Y104582933D01*
%TA.AperFunction,Conductor*%
D29*
G36*
X47340001Y104582933D02*
G01*
X47222498Y104618577D01*
X47000000Y104640491D01*
X46777501Y104618577D01*
X46563553Y104553676D01*
X46366377Y104448284D01*
X46193551Y104306449D01*
X46051716Y104133623D01*
X45946324Y103936446D01*
X45881423Y103722498D01*
X45865000Y103555751D01*
X45865001Y100910000D01*
X45086940Y100910000D01*
X45001898Y100945226D01*
X44801939Y100985000D01*
X44598061Y100985000D01*
X44398102Y100945226D01*
X44209744Y100867205D01*
X44040226Y100753937D01*
X43896063Y100609774D01*
X43782795Y100440256D01*
X43704774Y100251898D01*
X43665000Y100051939D01*
X43665000Y99848061D01*
X43704774Y99648102D01*
X43782795Y99459744D01*
X43896063Y99290226D01*
X44040226Y99146063D01*
X44209744Y99032795D01*
X44288918Y99000000D01*
X44209744Y98967205D01*
X44040226Y98853937D01*
X43896063Y98709774D01*
X43782795Y98540256D01*
X43704774Y98351898D01*
X43665000Y98151939D01*
X43665000Y97948061D01*
X43704774Y97748102D01*
X43782795Y97559744D01*
X43896063Y97390226D01*
X44040226Y97246063D01*
X44209744Y97132795D01*
X44398102Y97054774D01*
X44598061Y97015000D01*
X44801939Y97015000D01*
X45001898Y97054774D01*
X45086940Y97090000D01*
X45865000Y97090000D01*
X45865000Y86969088D01*
X45801898Y86995226D01*
X45601939Y87035000D01*
X45398061Y87035000D01*
X45198102Y86995226D01*
X45009744Y86917205D01*
X44840226Y86803937D01*
X44696063Y86659774D01*
X44582795Y86490256D01*
X44504774Y86301898D01*
X44465000Y86101939D01*
X44465000Y85898061D01*
X44504774Y85698102D01*
X44582795Y85509744D01*
X44696063Y85340226D01*
X44840226Y85196063D01*
X45009744Y85082795D01*
X45198102Y85004774D01*
X45398061Y84965000D01*
X45601939Y84965000D01*
X45801898Y85004774D01*
X45865000Y85030912D01*
X45865001Y73219088D01*
X45801898Y73245226D01*
X45601939Y73285000D01*
X45398061Y73285000D01*
X45198102Y73245226D01*
X45009744Y73167205D01*
X44840226Y73053937D01*
X44696063Y72909774D01*
X44582795Y72740256D01*
X44504774Y72551898D01*
X44465000Y72351939D01*
X44465000Y72148061D01*
X44504774Y71948102D01*
X44582795Y71759744D01*
X44696063Y71590226D01*
X44840226Y71446063D01*
X45009744Y71332795D01*
X45198102Y71254774D01*
X45398061Y71215000D01*
X45601939Y71215000D01*
X45801898Y71254774D01*
X45865001Y71280912D01*
X45865001Y62785000D01*
X34648061Y62785000D01*
X34597943Y62775031D01*
X34547105Y62770024D01*
X34498223Y62755196D01*
X34448102Y62745226D01*
X34400887Y62725669D01*
X34352007Y62710841D01*
X34306958Y62686762D01*
X34259744Y62667205D01*
X34217254Y62638814D01*
X34172203Y62614734D01*
X34132716Y62582328D01*
X34090226Y62553937D01*
X34054092Y62517803D01*
X34014604Y62485396D01*
X33982197Y62445908D01*
X33946063Y62409774D01*
X33917672Y62367284D01*
X33885266Y62327797D01*
X33861186Y62282746D01*
X33832795Y62240256D01*
X33813238Y62193042D01*
X33789159Y62147993D01*
X33774331Y62099113D01*
X33754774Y62051898D01*
X33744804Y62001777D01*
X33729976Y61952895D01*
X33724969Y61902057D01*
X33715000Y61851939D01*
X33715000Y61800838D01*
X33709993Y61750000D01*
X33715000Y61699162D01*
X33715000Y61648061D01*
X33724969Y61597943D01*
X33729976Y61547105D01*
X33744804Y61498223D01*
X33754774Y61448102D01*
X33774331Y61400887D01*
X33789159Y61352007D01*
X33813238Y61306958D01*
X33818222Y61294926D01*
X33743663Y61255073D01*
X33669054Y61008551D01*
X34500000Y60177605D01*
X34514143Y60191748D01*
X34693748Y60012143D01*
X34679605Y59998000D01*
X35510551Y59167054D01*
X35750725Y59239742D01*
X35865944Y59067304D01*
X36069304Y58863944D01*
X36308431Y58704165D01*
X36574134Y58594107D01*
X36856203Y58538000D01*
X37143797Y58538000D01*
X37425866Y58594107D01*
X37691569Y58704165D01*
X37930696Y58863944D01*
X38134056Y59067304D01*
X38204899Y59173329D01*
X38307688Y59019495D01*
X38521495Y58805688D01*
X38772905Y58637701D01*
X39052257Y58521989D01*
X39348816Y58463000D01*
X39651184Y58463000D01*
X39947743Y58521989D01*
X40227095Y58637701D01*
X40478505Y58805688D01*
X40692312Y59019495D01*
X40838313Y59238000D01*
X42548289Y59238000D01*
X42590226Y59196063D01*
X42759744Y59082795D01*
X42948102Y59004774D01*
X43148061Y58965000D01*
X43351939Y58965000D01*
X43551898Y59004774D01*
X43740256Y59082795D01*
X43909774Y59196063D01*
X44053937Y59340226D01*
X44167205Y59509744D01*
X44245226Y59698102D01*
X44285000Y59898061D01*
X44285000Y60101939D01*
X44245226Y60301898D01*
X44167205Y60490256D01*
X44053937Y60659774D01*
X43998711Y60715000D01*
X45865000Y60715000D01*
X45865001Y50235000D01*
X37698061Y50235000D01*
X37647943Y50225031D01*
X37597105Y50220024D01*
X37548223Y50205196D01*
X37498102Y50195226D01*
X37450887Y50175669D01*
X37402007Y50160841D01*
X37356958Y50136762D01*
X37309744Y50117205D01*
X37267254Y50088814D01*
X37222203Y50064734D01*
X37182716Y50032328D01*
X37140226Y50003937D01*
X37104092Y49967803D01*
X37064604Y49935396D01*
X37032197Y49895908D01*
X36996063Y49859774D01*
X36967672Y49817284D01*
X36935266Y49777797D01*
X36911186Y49732746D01*
X36882795Y49690256D01*
X36863238Y49643042D01*
X36839159Y49597993D01*
X36824331Y49549113D01*
X36804774Y49501898D01*
X36794804Y49451777D01*
X36779976Y49402895D01*
X36774969Y49352057D01*
X36765000Y49301939D01*
X36765000Y49250838D01*
X36759993Y49200000D01*
X36765000Y49149162D01*
X36765000Y49098061D01*
X36774969Y49047943D01*
X36779976Y48997105D01*
X36794804Y48948223D01*
X36804774Y48898102D01*
X36824331Y48850887D01*
X36839159Y48802007D01*
X36863238Y48756958D01*
X36882795Y48709744D01*
X36911186Y48667254D01*
X36935266Y48622203D01*
X36967672Y48582716D01*
X36996063Y48540226D01*
X37032197Y48504092D01*
X37064604Y48464604D01*
X37104092Y48432197D01*
X37140226Y48396063D01*
X37182716Y48367672D01*
X37222203Y48335266D01*
X37267254Y48311186D01*
X37309744Y48282795D01*
X37356958Y48263238D01*
X37402007Y48239159D01*
X37450887Y48224331D01*
X37498102Y48204774D01*
X37548223Y48194804D01*
X37597105Y48179976D01*
X37647943Y48174969D01*
X37698061Y48165000D01*
X45865000Y48165000D01*
X45865000Y48028424D01*
X45698102Y47995226D01*
X45509744Y47917205D01*
X45340226Y47803937D01*
X45196063Y47659774D01*
X45082795Y47490256D01*
X45004774Y47301898D01*
X44965000Y47101939D01*
X44965000Y46898061D01*
X45004774Y46698102D01*
X45082795Y46509744D01*
X45196063Y46340226D01*
X45340226Y46196063D01*
X45509744Y46082795D01*
X45698102Y46004774D01*
X45865000Y45971576D01*
X45865001Y40035000D01*
X35138639Y40035000D01*
X35209987Y40106348D01*
X35388918Y40374137D01*
X35512168Y40671688D01*
X35575000Y40987567D01*
X35575000Y41309633D01*
X35512168Y41625512D01*
X35388918Y41923063D01*
X35296157Y42061891D01*
X35956538Y42061891D01*
X35960409Y42024218D01*
X36052579Y41798967D01*
X36186922Y41596026D01*
X36358275Y41423193D01*
X36560054Y41287110D01*
X36784504Y41193007D01*
X37023000Y41144500D01*
X37373000Y41144500D01*
X37373000Y42252500D01*
X37627000Y42252500D01*
X37627000Y41144500D01*
X37977000Y41144500D01*
X38215496Y41193007D01*
X38439946Y41287110D01*
X38641725Y41423193D01*
X38813078Y41596026D01*
X38947421Y41798967D01*
X39039591Y42024218D01*
X39043462Y42061891D01*
X38918731Y42252500D01*
X37627000Y42252500D01*
X37373000Y42252500D01*
X36081269Y42252500D01*
X35956538Y42061891D01*
X35296157Y42061891D01*
X35209987Y42190852D01*
X34982252Y42418587D01*
X34714463Y42597518D01*
X34474030Y42697109D01*
X35956538Y42697109D01*
X36081269Y42506500D01*
X37373000Y42506500D01*
X37373000Y42526500D01*
X37627000Y42526500D01*
X37627000Y42506500D01*
X38918731Y42506500D01*
X39043462Y42697109D01*
X39039591Y42734782D01*
X38947421Y42960033D01*
X38813078Y43162974D01*
X38641725Y43335807D01*
X38568783Y43385000D01*
X39077000Y43385000D01*
X39315496Y43433507D01*
X39539946Y43527610D01*
X39741725Y43663693D01*
X39913078Y43836526D01*
X40047421Y44039467D01*
X40139591Y44264718D01*
X40143462Y44302391D01*
X40018731Y44493000D01*
X38627000Y44493000D01*
X38627000Y44473000D01*
X38373000Y44473000D01*
X38373000Y44493000D01*
X36981269Y44493000D01*
X36856538Y44302391D01*
X36860409Y44264718D01*
X36952579Y44039467D01*
X37086922Y43836526D01*
X37258275Y43663693D01*
X37331217Y43614500D01*
X37023000Y43614500D01*
X36784504Y43565993D01*
X36560054Y43471890D01*
X36358275Y43335807D01*
X36186922Y43162974D01*
X36052579Y42960033D01*
X35960409Y42734782D01*
X35956538Y42697109D01*
X34474030Y42697109D01*
X34416912Y42720768D01*
X34101033Y42783600D01*
X33778967Y42783600D01*
X33463088Y42720768D01*
X33165537Y42597518D01*
X32897748Y42418587D01*
X32670013Y42190852D01*
X32491082Y41923063D01*
X32367832Y41625512D01*
X32305000Y41309633D01*
X32305000Y40987567D01*
X32367832Y40671688D01*
X32491082Y40374137D01*
X32670013Y40106348D01*
X32897748Y39878613D01*
X33165537Y39699682D01*
X33463088Y39576432D01*
X33707846Y39527747D01*
X33682795Y39490256D01*
X33663238Y39443042D01*
X33639159Y39397993D01*
X33624331Y39349113D01*
X33604774Y39301898D01*
X33594804Y39251777D01*
X33579976Y39202895D01*
X33574969Y39152057D01*
X33565000Y39101939D01*
X33565000Y39050838D01*
X33559993Y39000000D01*
X33565000Y38949162D01*
X33565000Y38898061D01*
X33574969Y38847943D01*
X33579976Y38797105D01*
X33594804Y38748223D01*
X33604774Y38698102D01*
X33624331Y38650887D01*
X33639159Y38602007D01*
X33663238Y38556958D01*
X33682795Y38509744D01*
X33711186Y38467254D01*
X33735266Y38422203D01*
X33767672Y38382716D01*
X33796063Y38340226D01*
X33832197Y38304092D01*
X33835886Y38299597D01*
X33796063Y38259774D01*
X33682795Y38090256D01*
X33604774Y37901898D01*
X33565000Y37701939D01*
X33565000Y37498061D01*
X33604774Y37298102D01*
X33682795Y37109744D01*
X33796063Y36940226D01*
X33940226Y36796063D01*
X34109744Y36682795D01*
X34298102Y36604774D01*
X34498061Y36565000D01*
X34701939Y36565000D01*
X34901898Y36604774D01*
X35090256Y36682795D01*
X35259774Y36796063D01*
X35303711Y36840000D01*
X41896289Y36840000D01*
X41940226Y36796063D01*
X42109744Y36682795D01*
X42298102Y36604774D01*
X42498061Y36565000D01*
X42701939Y36565000D01*
X42901898Y36604774D01*
X43090256Y36682795D01*
X43259774Y36796063D01*
X43403937Y36940226D01*
X43517205Y37109744D01*
X43595226Y37298102D01*
X43635000Y37498061D01*
X43635000Y37701939D01*
X43595226Y37901898D01*
X43569088Y37965000D01*
X45865000Y37965000D01*
X45865001Y26782402D01*
X45851939Y26785000D01*
X45648061Y26785000D01*
X45448102Y26745226D01*
X45259744Y26667205D01*
X45090226Y26553937D01*
X44946063Y26409774D01*
X44832795Y26240256D01*
X44754774Y26051898D01*
X44715000Y25851939D01*
X44715000Y25648061D01*
X44754774Y25448102D01*
X44832795Y25259744D01*
X44946063Y25090226D01*
X45090226Y24946063D01*
X45259744Y24832795D01*
X45448102Y24754774D01*
X45648061Y24715000D01*
X45851939Y24715000D01*
X45865000Y24717598D01*
X45865001Y19235000D01*
X40372713Y19235000D01*
X40478505Y19305688D01*
X40692312Y19519495D01*
X40860299Y19770905D01*
X40976011Y20050257D01*
X41035000Y20346816D01*
X41035000Y20649184D01*
X40976011Y20945743D01*
X40860299Y21225095D01*
X40692312Y21476505D01*
X40478505Y21690312D01*
X40227095Y21858299D01*
X39947743Y21974011D01*
X39651184Y22033000D01*
X39348816Y22033000D01*
X39052257Y21974011D01*
X38772905Y21858299D01*
X38521495Y21690312D01*
X38307688Y21476505D01*
X38250000Y21390169D01*
X38192312Y21476505D01*
X37978505Y21690312D01*
X37727095Y21858299D01*
X37447743Y21974011D01*
X37151184Y22033000D01*
X36848816Y22033000D01*
X36552257Y21974011D01*
X36272905Y21858299D01*
X36021495Y21690312D01*
X35807688Y21476505D01*
X35750000Y21390169D01*
X35692312Y21476505D01*
X35478505Y21690312D01*
X35227095Y21858299D01*
X34947743Y21974011D01*
X34651184Y22033000D01*
X34348816Y22033000D01*
X34052257Y21974011D01*
X33772905Y21858299D01*
X33521495Y21690312D01*
X33307688Y21476505D01*
X33139701Y21225095D01*
X33023989Y20945743D01*
X32965000Y20649184D01*
X32965000Y20346816D01*
X33023989Y20050257D01*
X33139701Y19770905D01*
X33307688Y19519495D01*
X33521495Y19305688D01*
X33740000Y19159687D01*
X33740001Y17953712D01*
X33696063Y17909774D01*
X33582795Y17740256D01*
X33504774Y17551898D01*
X33465000Y17351939D01*
X33465000Y17148061D01*
X33504774Y16948102D01*
X33582795Y16759744D01*
X33696063Y16590226D01*
X33840226Y16446063D01*
X34009744Y16332795D01*
X34198102Y16254774D01*
X34398061Y16215000D01*
X34601939Y16215000D01*
X34801898Y16254774D01*
X34990256Y16332795D01*
X35159774Y16446063D01*
X35303937Y16590226D01*
X35417205Y16759744D01*
X35495226Y16948102D01*
X35535000Y17148061D01*
X35535000Y17351939D01*
X35495226Y17551898D01*
X35417205Y17740256D01*
X35303937Y17909774D01*
X35260000Y17953711D01*
X35260000Y19159687D01*
X35478505Y19305688D01*
X35692312Y19519495D01*
X35750000Y19605831D01*
X35807688Y19519495D01*
X36021495Y19305688D01*
X36272905Y19137701D01*
X36552257Y19021989D01*
X36848816Y18963000D01*
X37151184Y18963000D01*
X37447743Y19021989D01*
X37727095Y19137701D01*
X37978505Y19305688D01*
X38192312Y19519495D01*
X38250000Y19605831D01*
X38307688Y19519495D01*
X38521495Y19305688D01*
X38772905Y19137701D01*
X39052257Y19021989D01*
X39140865Y19004364D01*
X39140226Y19003937D01*
X39104092Y18967803D01*
X39064604Y18935396D01*
X39032197Y18895908D01*
X38996063Y18859774D01*
X38967672Y18817284D01*
X38935266Y18777797D01*
X38911186Y18732746D01*
X38882795Y18690256D01*
X38863238Y18643042D01*
X38839159Y18597993D01*
X38824331Y18549113D01*
X38804774Y18501898D01*
X38794804Y18451777D01*
X38779976Y18402895D01*
X38774969Y18352057D01*
X38765000Y18301939D01*
X38765000Y18250838D01*
X38759993Y18200000D01*
X38765000Y18149162D01*
X38765000Y18098061D01*
X38774969Y18047943D01*
X38779976Y17997105D01*
X38794804Y17948223D01*
X38804774Y17898102D01*
X38824331Y17850887D01*
X38839159Y17802007D01*
X38863238Y17756958D01*
X38882795Y17709744D01*
X38911186Y17667254D01*
X38935266Y17622203D01*
X38967672Y17582716D01*
X38996063Y17540226D01*
X39032197Y17504092D01*
X39064604Y17464604D01*
X39104092Y17432197D01*
X39140226Y17396063D01*
X39182716Y17367672D01*
X39222203Y17335266D01*
X39267254Y17311186D01*
X39309744Y17282795D01*
X39356958Y17263238D01*
X39402007Y17239159D01*
X39450887Y17224331D01*
X39498102Y17204774D01*
X39548223Y17194804D01*
X39597105Y17179976D01*
X39647943Y17174969D01*
X39698061Y17165000D01*
X46528613Y17165000D01*
X46563554Y17146324D01*
X46777502Y17081423D01*
X47000000Y17059509D01*
X47222499Y17081423D01*
X47340000Y17117067D01*
X47340000Y660000D01*
X43303209Y660000D01*
X43465496Y693007D01*
X43689946Y787110D01*
X43891725Y923193D01*
X44063078Y1096026D01*
X44197421Y1298967D01*
X44289591Y1524218D01*
X44293462Y1561891D01*
X44168731Y1752500D01*
X42877000Y1752500D01*
X42877000Y1732500D01*
X42623000Y1732500D01*
X42623000Y1752500D01*
X41331269Y1752500D01*
X41206538Y1561891D01*
X41210409Y1524218D01*
X41302579Y1298967D01*
X41436922Y1096026D01*
X41608275Y923193D01*
X41810054Y787110D01*
X42034504Y693007D01*
X42196791Y660000D01*
X30803209Y660000D01*
X30965496Y693007D01*
X31189946Y787110D01*
X31391725Y923193D01*
X31563078Y1096026D01*
X31697421Y1298967D01*
X31789591Y1524218D01*
X31793462Y1561891D01*
X31668731Y1752500D01*
X30377000Y1752500D01*
X30377000Y1732500D01*
X30123000Y1732500D01*
X30123000Y1752500D01*
X28831269Y1752500D01*
X28706538Y1561891D01*
X28710409Y1524218D01*
X28802579Y1298967D01*
X28936922Y1096026D01*
X29108275Y923193D01*
X29310054Y787110D01*
X29534504Y693007D01*
X29696791Y660000D01*
X18303209Y660000D01*
X18465496Y693007D01*
X18689946Y787110D01*
X18891725Y923193D01*
X19063078Y1096026D01*
X19197421Y1298967D01*
X19289591Y1524218D01*
X19293462Y1561891D01*
X19168731Y1752500D01*
X17877000Y1752500D01*
X17877000Y1732500D01*
X17623000Y1732500D01*
X17623000Y1752500D01*
X16331269Y1752500D01*
X16206538Y1561891D01*
X16210409Y1524218D01*
X16302579Y1298967D01*
X16436922Y1096026D01*
X16608275Y923193D01*
X16810054Y787110D01*
X17034504Y693007D01*
X17196791Y660000D01*
X5803209Y660000D01*
X5965496Y693007D01*
X6189946Y787110D01*
X6391725Y923193D01*
X6563078Y1096026D01*
X6697421Y1298967D01*
X6789591Y1524218D01*
X6793462Y1561891D01*
X6668731Y1752500D01*
X5377000Y1752500D01*
X5377000Y1732500D01*
X5123000Y1732500D01*
X5123000Y1752500D01*
X3831269Y1752500D01*
X3706538Y1561891D01*
X3710409Y1524218D01*
X3802579Y1298967D01*
X3936922Y1096026D01*
X4108275Y923193D01*
X4310054Y787110D01*
X4534504Y693007D01*
X4696791Y660000D01*
X660000Y660000D01*
X660000Y4120000D01*
X3559025Y4120000D01*
X3582870Y3877898D01*
X3653489Y3645099D01*
X3768167Y3430551D01*
X3922498Y3242498D01*
X4110551Y3088167D01*
X4320162Y2976128D01*
X4310054Y2971890D01*
X4108275Y2835807D01*
X3936922Y2662974D01*
X3802579Y2460033D01*
X3710409Y2234782D01*
X3706538Y2197109D01*
X3831269Y2006500D01*
X5123000Y2006500D01*
X5123000Y2026500D01*
X5377000Y2026500D01*
X5377000Y2006500D01*
X6668731Y2006500D01*
X6793462Y2197109D01*
X6789591Y2234782D01*
X6697421Y2460033D01*
X6563078Y2662974D01*
X6391725Y2835807D01*
X6189946Y2971890D01*
X6179838Y2976128D01*
X6389449Y3088167D01*
X6577502Y3242498D01*
X6731833Y3430551D01*
X6846511Y3645099D01*
X6917130Y3877898D01*
X6940975Y4120000D01*
X16059025Y4120000D01*
X16082870Y3877898D01*
X16153489Y3645099D01*
X16268167Y3430551D01*
X16422498Y3242498D01*
X16610551Y3088167D01*
X16820162Y2976128D01*
X16810054Y2971890D01*
X16608275Y2835807D01*
X16436922Y2662974D01*
X16302579Y2460033D01*
X16210409Y2234782D01*
X16206538Y2197109D01*
X16331269Y2006500D01*
X17623000Y2006500D01*
X17623000Y2026500D01*
X17877000Y2026500D01*
X17877000Y2006500D01*
X19168731Y2006500D01*
X19293462Y2197109D01*
X19289591Y2234782D01*
X19197421Y2460033D01*
X19063078Y2662974D01*
X18891725Y2835807D01*
X18689946Y2971890D01*
X18679838Y2976128D01*
X18889449Y3088167D01*
X19077502Y3242498D01*
X19231833Y3430551D01*
X19346511Y3645099D01*
X19417130Y3877898D01*
X19440975Y4120000D01*
X28559025Y4120000D01*
X28582870Y3877898D01*
X28653489Y3645099D01*
X28768167Y3430551D01*
X28922498Y3242498D01*
X29110551Y3088167D01*
X29320162Y2976128D01*
X29310054Y2971890D01*
X29108275Y2835807D01*
X28936922Y2662974D01*
X28802579Y2460033D01*
X28710409Y2234782D01*
X28706538Y2197109D01*
X28831269Y2006500D01*
X30123000Y2006500D01*
X30123000Y2026500D01*
X30377000Y2026500D01*
X30377000Y2006500D01*
X31668731Y2006500D01*
X31793462Y2197109D01*
X31789591Y2234782D01*
X31697421Y2460033D01*
X31563078Y2662974D01*
X31391725Y2835807D01*
X31189946Y2971890D01*
X31179838Y2976128D01*
X31389449Y3088167D01*
X31577502Y3242498D01*
X31731833Y3430551D01*
X31846511Y3645099D01*
X31917130Y3877898D01*
X31940975Y4120000D01*
X41059025Y4120000D01*
X41082870Y3877898D01*
X41153489Y3645099D01*
X41268167Y3430551D01*
X41422498Y3242498D01*
X41610551Y3088167D01*
X41820162Y2976128D01*
X41810054Y2971890D01*
X41608275Y2835807D01*
X41436922Y2662974D01*
X41302579Y2460033D01*
X41210409Y2234782D01*
X41206538Y2197109D01*
X41331269Y2006500D01*
X42623000Y2006500D01*
X42623000Y2026500D01*
X42877000Y2026500D01*
X42877000Y2006500D01*
X44168731Y2006500D01*
X44293462Y2197109D01*
X44289591Y2234782D01*
X44197421Y2460033D01*
X44063078Y2662974D01*
X43891725Y2835807D01*
X43689946Y2971890D01*
X43679838Y2976128D01*
X43889449Y3088167D01*
X44077502Y3242498D01*
X44231833Y3430551D01*
X44346511Y3645099D01*
X44417130Y3877898D01*
X44440975Y4120000D01*
X44417130Y4362102D01*
X44346511Y4594901D01*
X44231833Y4809449D01*
X44077502Y4997502D01*
X43889449Y5151833D01*
X43674901Y5266511D01*
X43442102Y5337130D01*
X43260665Y5355000D01*
X42239335Y5355000D01*
X42057898Y5337130D01*
X41825099Y5266511D01*
X41610551Y5151833D01*
X41422498Y4997502D01*
X41268167Y4809449D01*
X41153489Y4594901D01*
X41082870Y4362102D01*
X41059025Y4120000D01*
X31940975Y4120000D01*
X31917130Y4362102D01*
X31846511Y4594901D01*
X31731833Y4809449D01*
X31577502Y4997502D01*
X31389449Y5151833D01*
X31174901Y5266511D01*
X30942102Y5337130D01*
X30760665Y5355000D01*
X29739335Y5355000D01*
X29557898Y5337130D01*
X29325099Y5266511D01*
X29110551Y5151833D01*
X28922498Y4997502D01*
X28768167Y4809449D01*
X28653489Y4594901D01*
X28582870Y4362102D01*
X28559025Y4120000D01*
X19440975Y4120000D01*
X19417130Y4362102D01*
X19346511Y4594901D01*
X19231833Y4809449D01*
X19077502Y4997502D01*
X18889449Y5151833D01*
X18674901Y5266511D01*
X18442102Y5337130D01*
X18260665Y5355000D01*
X17239335Y5355000D01*
X17057898Y5337130D01*
X16825099Y5266511D01*
X16610551Y5151833D01*
X16422498Y4997502D01*
X16268167Y4809449D01*
X16153489Y4594901D01*
X16082870Y4362102D01*
X16059025Y4120000D01*
X6940975Y4120000D01*
X6917130Y4362102D01*
X6846511Y4594901D01*
X6731833Y4809449D01*
X6577502Y4997502D01*
X6389449Y5151833D01*
X6174901Y5266511D01*
X5942102Y5337130D01*
X5760665Y5355000D01*
X4739335Y5355000D01*
X4557898Y5337130D01*
X4325099Y5266511D01*
X4110551Y5151833D01*
X3922498Y4997502D01*
X3768167Y4809449D01*
X3653489Y4594901D01*
X3582870Y4362102D01*
X3559025Y4120000D01*
X660000Y4120000D01*
X660000Y12667067D01*
X777501Y12631423D01*
X1000000Y12609509D01*
X1222498Y12631423D01*
X1436446Y12696324D01*
X1471387Y12715000D01*
X3601167Y12715000D01*
X3582147Y12652300D01*
X3559267Y12420000D01*
X3582147Y12187700D01*
X3649906Y11964326D01*
X3759942Y11758464D01*
X3908025Y11578025D01*
X4088464Y11429942D01*
X4294326Y11319906D01*
X4517700Y11252147D01*
X4691793Y11235000D01*
X5808207Y11235000D01*
X5982300Y11252147D01*
X6205674Y11319906D01*
X6411536Y11429942D01*
X6591975Y11578025D01*
X6740058Y11758464D01*
X6850094Y11964326D01*
X6917853Y12187700D01*
X6940733Y12420000D01*
X16059267Y12420000D01*
X16082147Y12187700D01*
X16149906Y11964326D01*
X16259942Y11758464D01*
X16408025Y11578025D01*
X16588464Y11429942D01*
X16794326Y11319906D01*
X17017700Y11252147D01*
X17191793Y11235000D01*
X18308207Y11235000D01*
X18482300Y11252147D01*
X18705674Y11319906D01*
X18911536Y11429942D01*
X19091975Y11578025D01*
X19240058Y11758464D01*
X19350094Y11964326D01*
X19417853Y12187700D01*
X19440733Y12420000D01*
X28559267Y12420000D01*
X28582147Y12187700D01*
X28649906Y11964326D01*
X28759942Y11758464D01*
X28908025Y11578025D01*
X29088464Y11429942D01*
X29294326Y11319906D01*
X29517700Y11252147D01*
X29691793Y11235000D01*
X30808207Y11235000D01*
X30982300Y11252147D01*
X31205674Y11319906D01*
X31411536Y11429942D01*
X31591975Y11578025D01*
X31740058Y11758464D01*
X31850094Y11964326D01*
X31917853Y12187700D01*
X31940733Y12420000D01*
X41059267Y12420000D01*
X41082147Y12187700D01*
X41149906Y11964326D01*
X41259942Y11758464D01*
X41408025Y11578025D01*
X41588464Y11429942D01*
X41794326Y11319906D01*
X42017700Y11252147D01*
X42191793Y11235000D01*
X43308207Y11235000D01*
X43482300Y11252147D01*
X43705674Y11319906D01*
X43911536Y11429942D01*
X44091975Y11578025D01*
X44240058Y11758464D01*
X44350094Y11964326D01*
X44417853Y12187700D01*
X44440733Y12420000D01*
X44417853Y12652300D01*
X44350094Y12875674D01*
X44240058Y13081536D01*
X44091975Y13261975D01*
X43911536Y13410058D01*
X43705674Y13520094D01*
X43482300Y13587853D01*
X43308207Y13605000D01*
X42191793Y13605000D01*
X42017700Y13587853D01*
X41794326Y13520094D01*
X41588464Y13410058D01*
X41408025Y13261975D01*
X41259942Y13081536D01*
X41149906Y12875674D01*
X41082147Y12652300D01*
X41059267Y12420000D01*
X31940733Y12420000D01*
X31917853Y12652300D01*
X31850094Y12875674D01*
X31740058Y13081536D01*
X31591975Y13261975D01*
X31411536Y13410058D01*
X31205674Y13520094D01*
X30982300Y13587853D01*
X30808207Y13605000D01*
X29691793Y13605000D01*
X29517700Y13587853D01*
X29294326Y13520094D01*
X29088464Y13410058D01*
X28908025Y13261975D01*
X28759942Y13081536D01*
X28649906Y12875674D01*
X28582147Y12652300D01*
X28559267Y12420000D01*
X19440733Y12420000D01*
X19417853Y12652300D01*
X19350094Y12875674D01*
X19240058Y13081536D01*
X19091975Y13261975D01*
X18911536Y13410058D01*
X18705674Y13520094D01*
X18482300Y13587853D01*
X18308207Y13605000D01*
X17191793Y13605000D01*
X17017700Y13587853D01*
X16794326Y13520094D01*
X16588464Y13410058D01*
X16408025Y13261975D01*
X16259942Y13081536D01*
X16149906Y12875674D01*
X16082147Y12652300D01*
X16059267Y12420000D01*
X6940733Y12420000D01*
X6917853Y12652300D01*
X6898833Y12715000D01*
X10351939Y12715000D01*
X10402057Y12724969D01*
X10452895Y12729976D01*
X10501777Y12744804D01*
X10551898Y12754774D01*
X10599113Y12774331D01*
X10647993Y12789159D01*
X10693042Y12813238D01*
X10740256Y12832795D01*
X10782746Y12861186D01*
X10827797Y12885266D01*
X10867284Y12917672D01*
X10909774Y12946063D01*
X10945908Y12982197D01*
X10985396Y13014604D01*
X11017803Y13054092D01*
X11053937Y13090226D01*
X11082328Y13132716D01*
X11114734Y13172203D01*
X11138814Y13217254D01*
X11167205Y13259744D01*
X11186762Y13306958D01*
X11210841Y13352007D01*
X11225669Y13400887D01*
X11245226Y13448102D01*
X11255196Y13498223D01*
X11270024Y13547105D01*
X11275031Y13597943D01*
X11285000Y13648061D01*
X11285000Y13699162D01*
X11290007Y13750000D01*
X11285000Y13800838D01*
X11285000Y13851939D01*
X11275031Y13902057D01*
X11270024Y13952895D01*
X11255196Y14001777D01*
X11245226Y14051898D01*
X11225669Y14099113D01*
X11210841Y14147993D01*
X11186762Y14193042D01*
X11167205Y14240256D01*
X11138814Y14282746D01*
X11114734Y14327797D01*
X11082328Y14367284D01*
X11053937Y14409774D01*
X11017803Y14445908D01*
X10985396Y14485396D01*
X10945908Y14517803D01*
X10909774Y14553937D01*
X10867284Y14582328D01*
X10827797Y14614734D01*
X10782746Y14638814D01*
X10740256Y14667205D01*
X10693042Y14686762D01*
X10647993Y14710841D01*
X10599113Y14725669D01*
X10551898Y14745226D01*
X10501777Y14755196D01*
X10452895Y14770024D01*
X10402057Y14775031D01*
X10351939Y14785000D01*
X2135000Y14785000D01*
X2135000Y19433920D01*
X7615525Y19433920D01*
X7699208Y19179739D01*
X7971775Y19048842D01*
X8264642Y18973635D01*
X8566553Y18957009D01*
X8865907Y18999603D01*
X9151199Y19099778D01*
X9300792Y19179739D01*
X9384475Y19433920D01*
X8500000Y20318395D01*
X7615525Y19433920D01*
X2135000Y19433920D01*
X2135000Y20431447D01*
X6959009Y20431447D01*
X7001603Y20132093D01*
X7101778Y19846801D01*
X7181739Y19697208D01*
X7435920Y19613525D01*
X8320395Y20498000D01*
X8679605Y20498000D01*
X9564080Y19613525D01*
X9712262Y19662310D01*
X9807688Y19519495D01*
X10021495Y19305688D01*
X10272905Y19137701D01*
X10552257Y19021989D01*
X10848816Y18963000D01*
X11151184Y18963000D01*
X11447743Y19021989D01*
X11727095Y19137701D01*
X11978505Y19305688D01*
X12192312Y19519495D01*
X12250000Y19605831D01*
X12307688Y19519495D01*
X12521495Y19305688D01*
X12772905Y19137701D01*
X13052257Y19021989D01*
X13348816Y18963000D01*
X13651184Y18963000D01*
X13947743Y19021989D01*
X14227095Y19137701D01*
X14478505Y19305688D01*
X14692312Y19519495D01*
X14860299Y19770905D01*
X14976011Y20050257D01*
X15035000Y20346816D01*
X15035000Y20649184D01*
X15009647Y20776642D01*
X15090226Y20696063D01*
X15259744Y20582795D01*
X15448102Y20504774D01*
X15648061Y20465000D01*
X15851939Y20465000D01*
X16051898Y20504774D01*
X16240256Y20582795D01*
X16409774Y20696063D01*
X16453711Y20740000D01*
X19796289Y20740000D01*
X19840226Y20696063D01*
X20009744Y20582795D01*
X20198102Y20504774D01*
X20398061Y20465000D01*
X20601939Y20465000D01*
X20801898Y20504774D01*
X20990256Y20582795D01*
X21159774Y20696063D01*
X21303937Y20840226D01*
X21417205Y21009744D01*
X21495226Y21198102D01*
X21535000Y21398061D01*
X21535000Y21601939D01*
X21495226Y21801898D01*
X21417205Y21990256D01*
X21303937Y22159774D01*
X21159774Y22303937D01*
X20990256Y22417205D01*
X20801898Y22495226D01*
X20601939Y22535000D01*
X20398061Y22535000D01*
X20198102Y22495226D01*
X20009744Y22417205D01*
X19840226Y22303937D01*
X19796289Y22260000D01*
X16453711Y22260000D01*
X16409774Y22303937D01*
X16240256Y22417205D01*
X16051898Y22495226D01*
X15851939Y22535000D01*
X15648061Y22535000D01*
X15448102Y22495226D01*
X15259744Y22417205D01*
X15090226Y22303937D01*
X14946063Y22159774D01*
X14832795Y21990256D01*
X14754774Y21801898D01*
X14715000Y21601939D01*
X14715000Y21442550D01*
X14692312Y21476505D01*
X14478505Y21690312D01*
X14227095Y21858299D01*
X13947743Y21974011D01*
X13651184Y22033000D01*
X13348816Y22033000D01*
X13052257Y21974011D01*
X12772905Y21858299D01*
X12521495Y21690312D01*
X12307688Y21476505D01*
X12250000Y21390169D01*
X12192312Y21476505D01*
X11978505Y21690312D01*
X11727095Y21858299D01*
X11447743Y21974011D01*
X11151184Y22033000D01*
X10848816Y22033000D01*
X10552257Y21974011D01*
X10272905Y21858299D01*
X10021495Y21690312D01*
X9807688Y21476505D01*
X9712262Y21333690D01*
X9564080Y21382475D01*
X8679605Y20498000D01*
X8320395Y20498000D01*
X7435920Y21382475D01*
X7181739Y21298792D01*
X7050842Y21026225D01*
X6975635Y20733358D01*
X6959009Y20431447D01*
X2135000Y20431447D01*
X2135000Y21562080D01*
X7615525Y21562080D01*
X8500000Y20677605D01*
X9384475Y21562080D01*
X9300792Y21816261D01*
X9028225Y21947158D01*
X8735358Y22022365D01*
X8433447Y22038991D01*
X8134093Y21996397D01*
X7848801Y21896222D01*
X7699208Y21816261D01*
X7615525Y21562080D01*
X2135000Y21562080D01*
X2135000Y28198430D01*
X4165000Y28198430D01*
X4165000Y27797570D01*
X4243204Y27404413D01*
X4396607Y27034066D01*
X4619313Y26700763D01*
X4902763Y26417313D01*
X5236066Y26194607D01*
X5606413Y26041204D01*
X5999570Y25963000D01*
X6400430Y25963000D01*
X6793587Y26041204D01*
X7163934Y26194607D01*
X7497237Y26417313D01*
X7780687Y26700763D01*
X8003393Y27034066D01*
X8156796Y27404413D01*
X8235000Y27797570D01*
X8235000Y28198430D01*
X13765000Y28198430D01*
X13765000Y27797570D01*
X13843204Y27404413D01*
X13996607Y27034066D01*
X14219313Y26700763D01*
X14502763Y26417313D01*
X14836066Y26194607D01*
X15206413Y26041204D01*
X15599570Y25963000D01*
X16000430Y25963000D01*
X16393587Y26041204D01*
X16763934Y26194607D01*
X17097237Y26417313D01*
X17380687Y26700763D01*
X17603393Y27034066D01*
X17756796Y27404413D01*
X17835000Y27797570D01*
X17835000Y28198430D01*
X30165000Y28198430D01*
X30165000Y27797570D01*
X30243204Y27404413D01*
X30396607Y27034066D01*
X30619313Y26700763D01*
X30902763Y26417313D01*
X31236066Y26194607D01*
X31606413Y26041204D01*
X31999570Y25963000D01*
X32400430Y25963000D01*
X32793587Y26041204D01*
X33163934Y26194607D01*
X33497237Y26417313D01*
X33780687Y26700763D01*
X34003393Y27034066D01*
X34156796Y27404413D01*
X34235000Y27797570D01*
X34235000Y28198430D01*
X39765000Y28198430D01*
X39765000Y27797570D01*
X39843204Y27404413D01*
X39996607Y27034066D01*
X40219313Y26700763D01*
X40502763Y26417313D01*
X40836066Y26194607D01*
X41206413Y26041204D01*
X41599570Y25963000D01*
X42000430Y25963000D01*
X42393587Y26041204D01*
X42763934Y26194607D01*
X43097237Y26417313D01*
X43380687Y26700763D01*
X43603393Y27034066D01*
X43756796Y27404413D01*
X43835000Y27797570D01*
X43835000Y28198430D01*
X43756796Y28591587D01*
X43603393Y28961934D01*
X43380687Y29295237D01*
X43097237Y29578687D01*
X42763934Y29801393D01*
X42393587Y29954796D01*
X42000430Y30033000D01*
X41599570Y30033000D01*
X41206413Y29954796D01*
X40836066Y29801393D01*
X40502763Y29578687D01*
X40219313Y29295237D01*
X39996607Y28961934D01*
X39843204Y28591587D01*
X39765000Y28198430D01*
X34235000Y28198430D01*
X34156796Y28591587D01*
X34003393Y28961934D01*
X33780687Y29295237D01*
X33497237Y29578687D01*
X33163934Y29801393D01*
X32793587Y29954796D01*
X32400430Y30033000D01*
X31999570Y30033000D01*
X31606413Y29954796D01*
X31236066Y29801393D01*
X30902763Y29578687D01*
X30619313Y29295237D01*
X30396607Y28961934D01*
X30243204Y28591587D01*
X30165000Y28198430D01*
X17835000Y28198430D01*
X17756796Y28591587D01*
X17603393Y28961934D01*
X17380687Y29295237D01*
X17097237Y29578687D01*
X16763934Y29801393D01*
X16393587Y29954796D01*
X16000430Y30033000D01*
X15599570Y30033000D01*
X15206413Y29954796D01*
X14836066Y29801393D01*
X14502763Y29578687D01*
X14219313Y29295237D01*
X13996607Y28961934D01*
X13843204Y28591587D01*
X13765000Y28198430D01*
X8235000Y28198430D01*
X8156796Y28591587D01*
X8003393Y28961934D01*
X7780687Y29295237D01*
X7497237Y29578687D01*
X7163934Y29801393D01*
X6793587Y29954796D01*
X6400430Y30033000D01*
X5999570Y30033000D01*
X5606413Y29954796D01*
X5236066Y29801393D01*
X4902763Y29578687D01*
X4619313Y29295237D01*
X4396607Y28961934D01*
X4243204Y28591587D01*
X4165000Y28198430D01*
X2135000Y28198430D01*
X2135000Y30815000D01*
X3552705Y30815000D01*
X3698102Y30754774D01*
X3898061Y30715000D01*
X4101939Y30715000D01*
X4301898Y30754774D01*
X4490256Y30832795D01*
X4659774Y30946063D01*
X4803937Y31090226D01*
X4917205Y31259744D01*
X4995226Y31448102D01*
X5035000Y31648061D01*
X5035000Y31851939D01*
X4995226Y32051898D01*
X4917205Y32240256D01*
X4803937Y32409774D01*
X4659774Y32553937D01*
X4490256Y32667205D01*
X4301898Y32745226D01*
X4101939Y32785000D01*
X3898061Y32785000D01*
X3698102Y32745226D01*
X3552705Y32685000D01*
X2135000Y32685000D01*
X2135000Y32801928D01*
X3750000Y32801928D01*
X3874482Y32814188D01*
X3994180Y32850498D01*
X4104494Y32909463D01*
X4124999Y32926291D01*
X4145506Y32909462D01*
X4255820Y32850497D01*
X4375518Y32814187D01*
X4500000Y32801927D01*
X6500000Y32801927D01*
X6624482Y32814187D01*
X6744180Y32850497D01*
X6854494Y32909462D01*
X6951185Y32988814D01*
X7030537Y33085505D01*
X7089502Y33195819D01*
X7125812Y33315517D01*
X7138072Y33439999D01*
X7138072Y35439999D01*
X7125812Y35564481D01*
X7089502Y35684179D01*
X7030537Y35794493D01*
X6951185Y35891184D01*
X6854494Y35970536D01*
X6744180Y36029501D01*
X6624482Y36065811D01*
X6500000Y36078071D01*
X4500000Y36078071D01*
X4375518Y36065811D01*
X4255820Y36029501D01*
X4145506Y35970536D01*
X4125001Y35953708D01*
X4104494Y35970537D01*
X3994180Y36029502D01*
X3874482Y36065812D01*
X3750000Y36078072D01*
X2135000Y36078072D01*
X2135000Y40545030D01*
X2273088Y40487832D01*
X2588967Y40425000D01*
X2911033Y40425000D01*
X3226912Y40487832D01*
X3524463Y40611082D01*
X3792252Y40790013D01*
X4019987Y41017748D01*
X4125000Y41174910D01*
X4230013Y41017747D01*
X4457748Y40790012D01*
X4725537Y40611081D01*
X5023088Y40487831D01*
X5338967Y40424999D01*
X5661033Y40424999D01*
X5976912Y40487831D01*
X6274463Y40611081D01*
X6542252Y40790012D01*
X6769987Y41017747D01*
X6948918Y41285536D01*
X6958899Y41309633D01*
X27225000Y41309633D01*
X27225000Y40987567D01*
X27287832Y40671688D01*
X27411082Y40374137D01*
X27590013Y40106348D01*
X27817748Y39878613D01*
X28085537Y39699682D01*
X28383088Y39576432D01*
X28698967Y39513600D01*
X29021033Y39513600D01*
X29336912Y39576432D01*
X29634463Y39699682D01*
X29902252Y39878613D01*
X30129987Y40106348D01*
X30308918Y40374137D01*
X30432168Y40671688D01*
X30495000Y40987567D01*
X30495000Y41309633D01*
X30432168Y41625512D01*
X30308918Y41923063D01*
X30129987Y42190852D01*
X29902252Y42418587D01*
X29634463Y42597518D01*
X29336912Y42720768D01*
X29021033Y42783600D01*
X28698967Y42783600D01*
X28383088Y42720768D01*
X28085537Y42597518D01*
X27817748Y42418587D01*
X27590013Y42190852D01*
X27411082Y41923063D01*
X27287832Y41625512D01*
X27225000Y41309633D01*
X6958899Y41309633D01*
X7072168Y41583087D01*
X7135000Y41898966D01*
X7135000Y42221032D01*
X7072168Y42536911D01*
X6948918Y42834462D01*
X6769987Y43102251D01*
X6542252Y43329986D01*
X6274463Y43508917D01*
X5976912Y43632167D01*
X5661033Y43694999D01*
X5338967Y43694999D01*
X5023088Y43632167D01*
X4725537Y43508917D01*
X4457748Y43329986D01*
X4230013Y43102251D01*
X4125000Y42945089D01*
X4019987Y43102252D01*
X3792252Y43329987D01*
X3524463Y43508918D01*
X3226912Y43632168D01*
X2911033Y43695000D01*
X2588967Y43695000D01*
X2273088Y43632168D01*
X2135000Y43574970D01*
X2135000Y43849633D01*
X29765000Y43849633D01*
X29765000Y43527567D01*
X29827832Y43211688D01*
X29951082Y42914137D01*
X30130013Y42646348D01*
X30357748Y42418613D01*
X30625537Y42239682D01*
X30923088Y42116432D01*
X31238967Y42053600D01*
X31561033Y42053600D01*
X31876912Y42116432D01*
X32174463Y42239682D01*
X32442252Y42418613D01*
X32669987Y42646348D01*
X32848918Y42914137D01*
X32972168Y43211688D01*
X33035000Y43527567D01*
X33035000Y43849633D01*
X32972168Y44165512D01*
X32848918Y44463063D01*
X32669987Y44730852D01*
X32463230Y44937609D01*
X36856538Y44937609D01*
X36981269Y44747000D01*
X38373000Y44747000D01*
X38373000Y45855000D01*
X38627000Y45855000D01*
X38627000Y44747000D01*
X40018731Y44747000D01*
X40143462Y44937609D01*
X40139591Y44975282D01*
X40047421Y45200533D01*
X39913078Y45403474D01*
X39741725Y45576307D01*
X39539946Y45712390D01*
X39315496Y45806493D01*
X39077000Y45855000D01*
X38627000Y45855000D01*
X38373000Y45855000D01*
X37923000Y45855000D01*
X37684504Y45806493D01*
X37460054Y45712390D01*
X37258275Y45576307D01*
X37086922Y45403474D01*
X36952579Y45200533D01*
X36860409Y44975282D01*
X36856538Y44937609D01*
X32463230Y44937609D01*
X32442252Y44958587D01*
X32174463Y45137518D01*
X31876912Y45260768D01*
X31561033Y45323600D01*
X31238967Y45323600D01*
X30923088Y45260768D01*
X30625537Y45137518D01*
X30357748Y44958587D01*
X30130013Y44730852D01*
X29951082Y44463063D01*
X29827832Y44165512D01*
X29765000Y43849633D01*
X2135000Y43849633D01*
X2135000Y45649184D01*
X6965000Y45649184D01*
X6965000Y45346816D01*
X7023989Y45050257D01*
X7139701Y44770905D01*
X7307688Y44519495D01*
X7521495Y44305688D01*
X7772905Y44137701D01*
X8052257Y44021989D01*
X8348816Y43963000D01*
X8651184Y43963000D01*
X8947743Y44021989D01*
X9227095Y44137701D01*
X9478505Y44305688D01*
X9692312Y44519495D01*
X9750000Y44605831D01*
X9807688Y44519495D01*
X10021495Y44305688D01*
X10272905Y44137701D01*
X10552257Y44021989D01*
X10848816Y43963000D01*
X11151184Y43963000D01*
X11447743Y44021989D01*
X11727095Y44137701D01*
X11978505Y44305688D01*
X12192312Y44519495D01*
X12250000Y44605831D01*
X12307688Y44519495D01*
X12521495Y44305688D01*
X12772905Y44137701D01*
X13052257Y44021989D01*
X13348816Y43963000D01*
X13651184Y43963000D01*
X13947743Y44021989D01*
X14227095Y44137701D01*
X14478505Y44305688D01*
X14692312Y44519495D01*
X14860299Y44770905D01*
X14976011Y45050257D01*
X15035000Y45346816D01*
X15035000Y45649184D01*
X14976011Y45945743D01*
X14860299Y46225095D01*
X14692312Y46476505D01*
X14478505Y46690312D01*
X14227095Y46858299D01*
X14132234Y46897592D01*
X28243000Y46897592D01*
X28243000Y46622408D01*
X28296686Y46352510D01*
X28401995Y46098273D01*
X28554880Y45869465D01*
X28749465Y45674880D01*
X28978273Y45521995D01*
X29232510Y45416686D01*
X29502408Y45363000D01*
X29777592Y45363000D01*
X30047490Y45416686D01*
X30301727Y45521995D01*
X30530535Y45674880D01*
X30725120Y45869465D01*
X30878005Y46098273D01*
X30983314Y46352510D01*
X31037000Y46622408D01*
X31037000Y46897592D01*
X30983314Y47167490D01*
X30878005Y47421727D01*
X30725120Y47650535D01*
X30530535Y47845120D01*
X30301727Y47998005D01*
X30047490Y48103314D01*
X29777592Y48157000D01*
X29502408Y48157000D01*
X29232510Y48103314D01*
X28978273Y47998005D01*
X28749465Y47845120D01*
X28554880Y47650535D01*
X28401995Y47421727D01*
X28296686Y47167490D01*
X28243000Y46897592D01*
X14132234Y46897592D01*
X13947743Y46974011D01*
X13651184Y47033000D01*
X13348816Y47033000D01*
X13052257Y46974011D01*
X12772905Y46858299D01*
X12521495Y46690312D01*
X12307688Y46476505D01*
X12250000Y46390169D01*
X12192312Y46476505D01*
X11978505Y46690312D01*
X11727095Y46858299D01*
X11447743Y46974011D01*
X11151184Y47033000D01*
X10848816Y47033000D01*
X10552257Y46974011D01*
X10272905Y46858299D01*
X10021495Y46690312D01*
X9807688Y46476505D01*
X9750000Y46390169D01*
X9692312Y46476505D01*
X9478505Y46690312D01*
X9227095Y46858299D01*
X8947743Y46974011D01*
X8651184Y47033000D01*
X8348816Y47033000D01*
X8052257Y46974011D01*
X7772905Y46858299D01*
X7521495Y46690312D01*
X7307688Y46476505D01*
X7139701Y46225095D01*
X7023989Y45945743D01*
X6965000Y45649184D01*
X2135000Y45649184D01*
X2135000Y47040000D01*
X2863060Y47040000D01*
X2948102Y47004774D01*
X3148061Y46965000D01*
X3351939Y46965000D01*
X3551898Y47004774D01*
X3740256Y47082795D01*
X3909774Y47196063D01*
X4053937Y47340226D01*
X4167205Y47509744D01*
X4245226Y47698102D01*
X4285000Y47898061D01*
X4285000Y48101939D01*
X4245226Y48301898D01*
X4167205Y48490256D01*
X4053937Y48659774D01*
X3909774Y48803937D01*
X3740256Y48917205D01*
X3551898Y48995226D01*
X3351939Y49035000D01*
X3148061Y49035000D01*
X2948102Y48995226D01*
X2863060Y48960000D01*
X2135000Y48960000D01*
X2135000Y50874435D01*
X28854040Y50874435D01*
X28921020Y50634344D01*
X29170048Y50517244D01*
X29437135Y50450977D01*
X29712017Y50438090D01*
X29984133Y50479078D01*
X30243023Y50572364D01*
X30358980Y50634344D01*
X30425960Y50874435D01*
X29640000Y51660395D01*
X28854040Y50874435D01*
X2135000Y50874435D01*
X2135000Y53198430D01*
X4165000Y53198430D01*
X4165000Y52797570D01*
X4243204Y52404413D01*
X4396607Y52034066D01*
X4619313Y51700763D01*
X4902763Y51417313D01*
X5236066Y51194607D01*
X5606413Y51041204D01*
X5999570Y50963000D01*
X6400430Y50963000D01*
X6793587Y51041204D01*
X7163934Y51194607D01*
X7497237Y51417313D01*
X7780687Y51700763D01*
X8003393Y52034066D01*
X8156796Y52404413D01*
X8235000Y52797570D01*
X8235000Y53198430D01*
X13765000Y53198430D01*
X13765000Y52797570D01*
X13843204Y52404413D01*
X13996607Y52034066D01*
X14219313Y51700763D01*
X14502763Y51417313D01*
X14836066Y51194607D01*
X15206413Y51041204D01*
X15599570Y50963000D01*
X16000430Y50963000D01*
X16393587Y51041204D01*
X16763934Y51194607D01*
X17097237Y51417313D01*
X17380687Y51700763D01*
X17425601Y51767983D01*
X28238090Y51767983D01*
X28279078Y51495867D01*
X28372364Y51236977D01*
X28434344Y51121020D01*
X28674435Y51054040D01*
X29460395Y51840000D01*
X29819605Y51840000D01*
X30605565Y51054040D01*
X30845656Y51121020D01*
X30962756Y51370048D01*
X31029023Y51637135D01*
X31041910Y51912017D01*
X31000922Y52184133D01*
X30907636Y52443023D01*
X30845656Y52558980D01*
X30605565Y52625960D01*
X29819605Y51840000D01*
X29460395Y51840000D01*
X28674435Y52625960D01*
X28434344Y52558980D01*
X28317244Y52309952D01*
X28250977Y52042865D01*
X28238090Y51767983D01*
X17425601Y51767983D01*
X17603393Y52034066D01*
X17756796Y52404413D01*
X17835000Y52797570D01*
X17835000Y52805565D01*
X28854040Y52805565D01*
X29640000Y52019605D01*
X30425960Y52805565D01*
X30394036Y52920000D01*
X36809267Y52920000D01*
X36832147Y52687700D01*
X36899906Y52464326D01*
X37009942Y52258464D01*
X37158025Y52078025D01*
X37338464Y51929942D01*
X37544326Y51819906D01*
X37767700Y51752147D01*
X37941793Y51735000D01*
X39058207Y51735000D01*
X39232300Y51752147D01*
X39455674Y51819906D01*
X39661536Y51929942D01*
X39841975Y52078025D01*
X39990058Y52258464D01*
X40100094Y52464326D01*
X40167853Y52687700D01*
X40190733Y52920000D01*
X40167853Y53152300D01*
X40100094Y53375674D01*
X39990058Y53581536D01*
X39841975Y53761975D01*
X39661536Y53910058D01*
X39455674Y54020094D01*
X39232300Y54087853D01*
X39058207Y54105000D01*
X37941793Y54105000D01*
X37767700Y54087853D01*
X37544326Y54020094D01*
X37338464Y53910058D01*
X37158025Y53761975D01*
X37009942Y53581536D01*
X36899906Y53375674D01*
X36832147Y53152300D01*
X36809267Y52920000D01*
X30394036Y52920000D01*
X30358980Y53045656D01*
X30109952Y53162756D01*
X29842865Y53229023D01*
X29567983Y53241910D01*
X29295867Y53200922D01*
X29036977Y53107636D01*
X28921020Y53045656D01*
X28854040Y52805565D01*
X17835000Y52805565D01*
X17835000Y53198430D01*
X17756796Y53591587D01*
X17603393Y53961934D01*
X17380687Y54295237D01*
X17097237Y54578687D01*
X16763934Y54801393D01*
X16393587Y54954796D01*
X16000430Y55033000D01*
X15599570Y55033000D01*
X15206413Y54954796D01*
X14836066Y54801393D01*
X14502763Y54578687D01*
X14219313Y54295237D01*
X13996607Y53961934D01*
X13843204Y53591587D01*
X13765000Y53198430D01*
X8235000Y53198430D01*
X8156796Y53591587D01*
X8003393Y53961934D01*
X7780687Y54295237D01*
X7497237Y54578687D01*
X7163934Y54801393D01*
X6793587Y54954796D01*
X6400430Y55033000D01*
X5999570Y55033000D01*
X5606413Y54954796D01*
X5236066Y54801393D01*
X4902763Y54578687D01*
X4619313Y54295237D01*
X4396607Y53961934D01*
X4243204Y53591587D01*
X4165000Y53198430D01*
X2135000Y53198430D01*
X2135000Y57040000D01*
X2863060Y57040000D01*
X2948102Y57004774D01*
X3148061Y56965000D01*
X3351939Y56965000D01*
X3551898Y57004774D01*
X3740256Y57082795D01*
X3909774Y57196063D01*
X4053937Y57340226D01*
X4066904Y57359633D01*
X18325000Y57359633D01*
X18325000Y57037567D01*
X18387832Y56721688D01*
X18511082Y56424137D01*
X18690013Y56156348D01*
X18917748Y55928613D01*
X19185537Y55749682D01*
X19483088Y55626432D01*
X19798967Y55563600D01*
X20121033Y55563600D01*
X20436912Y55626432D01*
X20734463Y55749682D01*
X21002252Y55928613D01*
X21136826Y56063187D01*
X24084192Y56063187D01*
X24179956Y55798786D01*
X24469571Y55657896D01*
X24781108Y55576216D01*
X25102595Y55556882D01*
X25421675Y55600639D01*
X25726088Y55705805D01*
X25900044Y55798786D01*
X25995808Y56063187D01*
X25040000Y57018995D01*
X24084192Y56063187D01*
X21136826Y56063187D01*
X21229987Y56156348D01*
X21408918Y56424137D01*
X21532168Y56721688D01*
X21595000Y57037567D01*
X21595000Y57136005D01*
X23398282Y57136005D01*
X23442039Y56816925D01*
X23547205Y56512512D01*
X23640186Y56338556D01*
X23904587Y56242792D01*
X24860395Y57198600D01*
X25219605Y57198600D01*
X26175413Y56242792D01*
X26439814Y56338556D01*
X26580704Y56628171D01*
X26662384Y56939708D01*
X26681718Y57261195D01*
X26637961Y57580275D01*
X26532795Y57884688D01*
X26439814Y58058644D01*
X26175413Y58154408D01*
X25219605Y57198600D01*
X24860395Y57198600D01*
X23904587Y58154408D01*
X23640186Y58058644D01*
X23499296Y57769029D01*
X23417616Y57457492D01*
X23398282Y57136005D01*
X21595000Y57136005D01*
X21595000Y57359633D01*
X21532168Y57675512D01*
X21408918Y57973063D01*
X21229987Y58240852D01*
X21002252Y58468587D01*
X20800809Y58603187D01*
X21544192Y58603187D01*
X21639956Y58338786D01*
X21929571Y58197896D01*
X22241108Y58116216D01*
X22562595Y58096882D01*
X22881675Y58140639D01*
X23186088Y58245805D01*
X23351114Y58334013D01*
X24084192Y58334013D01*
X25040000Y57378205D01*
X25995808Y58334013D01*
X25900044Y58598414D01*
X25610429Y58739304D01*
X25298892Y58820984D01*
X24977405Y58840318D01*
X24658325Y58796561D01*
X24353912Y58691395D01*
X24179956Y58598414D01*
X24084192Y58334013D01*
X23351114Y58334013D01*
X23360044Y58338786D01*
X23455808Y58603187D01*
X22500000Y59558995D01*
X21544192Y58603187D01*
X20800809Y58603187D01*
X20734463Y58647518D01*
X20436912Y58770768D01*
X20121033Y58833600D01*
X19798967Y58833600D01*
X19483088Y58770768D01*
X19185537Y58647518D01*
X18917748Y58468587D01*
X18690013Y58240852D01*
X18511082Y57973063D01*
X18387832Y57675512D01*
X18325000Y57359633D01*
X4066904Y57359633D01*
X4167205Y57509744D01*
X4245226Y57698102D01*
X4285000Y57898061D01*
X4285000Y58101939D01*
X4245226Y58301898D01*
X4167205Y58490256D01*
X4053937Y58659774D01*
X3909774Y58803937D01*
X3740256Y58917205D01*
X3551898Y58995226D01*
X3351939Y59035000D01*
X3148061Y59035000D01*
X2948102Y58995226D01*
X2863060Y58960000D01*
X2135000Y58960000D01*
X2135000Y59676005D01*
X20858282Y59676005D01*
X20902039Y59356925D01*
X21007205Y59052512D01*
X21100186Y58878556D01*
X21364587Y58782792D01*
X22320395Y59738600D01*
X22679605Y59738600D01*
X23635413Y58782792D01*
X23899814Y58878556D01*
X23952787Y58987449D01*
X33669054Y58987449D01*
X33743663Y58740927D01*
X34003439Y58617527D01*
X34282297Y58547177D01*
X34569521Y58532583D01*
X34854074Y58574303D01*
X35125020Y58670735D01*
X35256337Y58740927D01*
X35330946Y58987449D01*
X34500000Y59818395D01*
X33669054Y58987449D01*
X23952787Y58987449D01*
X24040704Y59168171D01*
X24122384Y59479708D01*
X24141718Y59801195D01*
X24124263Y59928479D01*
X33034583Y59928479D01*
X33076303Y59643926D01*
X33172735Y59372980D01*
X33242927Y59241663D01*
X33489449Y59167054D01*
X34320395Y59998000D01*
X33489449Y60828946D01*
X33242927Y60754337D01*
X33119527Y60494561D01*
X33049177Y60215703D01*
X33034583Y59928479D01*
X24124263Y59928479D01*
X24097961Y60120275D01*
X23992795Y60424688D01*
X23899814Y60598644D01*
X23635413Y60694408D01*
X22679605Y59738600D01*
X22320395Y59738600D01*
X21364587Y60694408D01*
X21100186Y60598644D01*
X20959296Y60309029D01*
X20877616Y59997492D01*
X20858282Y59676005D01*
X2135000Y59676005D01*
X2135000Y60874013D01*
X21544192Y60874013D01*
X22500000Y59918205D01*
X23455808Y60874013D01*
X23360044Y61138414D01*
X23070429Y61279304D01*
X22758892Y61360984D01*
X22437405Y61380318D01*
X22118325Y61336561D01*
X21813912Y61231395D01*
X21639956Y61138414D01*
X21544192Y60874013D01*
X2135000Y60874013D01*
X2135000Y66540000D01*
X12863060Y66540000D01*
X12948102Y66504774D01*
X13148061Y66465000D01*
X13351939Y66465000D01*
X13551898Y66504774D01*
X13740256Y66582795D01*
X13909774Y66696063D01*
X14053937Y66840226D01*
X14167205Y67009744D01*
X14245226Y67198102D01*
X14285000Y67398061D01*
X14285000Y67601939D01*
X14265807Y67698430D01*
X30165000Y67698430D01*
X30165000Y67297570D01*
X30243204Y66904413D01*
X30396607Y66534066D01*
X30619313Y66200763D01*
X30902763Y65917313D01*
X31236066Y65694607D01*
X31606413Y65541204D01*
X31999570Y65463000D01*
X32400430Y65463000D01*
X32793587Y65541204D01*
X33163934Y65694607D01*
X33497237Y65917313D01*
X33780687Y66200763D01*
X34003393Y66534066D01*
X34156796Y66904413D01*
X34235000Y67297570D01*
X34235000Y67698430D01*
X39765000Y67698430D01*
X39765000Y67297570D01*
X39843204Y66904413D01*
X39996607Y66534066D01*
X40219313Y66200763D01*
X40502763Y65917313D01*
X40836066Y65694607D01*
X41206413Y65541204D01*
X41599570Y65463000D01*
X42000430Y65463000D01*
X42393587Y65541204D01*
X42763934Y65694607D01*
X43097237Y65917313D01*
X43380687Y66200763D01*
X43603393Y66534066D01*
X43756796Y66904413D01*
X43835000Y67297570D01*
X43835000Y67698430D01*
X43756796Y68091587D01*
X43603393Y68461934D01*
X43380687Y68795237D01*
X43097237Y69078687D01*
X42763934Y69301393D01*
X42393587Y69454796D01*
X42000430Y69533000D01*
X41599570Y69533000D01*
X41206413Y69454796D01*
X40836066Y69301393D01*
X40502763Y69078687D01*
X40219313Y68795237D01*
X39996607Y68461934D01*
X39843204Y68091587D01*
X39765000Y67698430D01*
X34235000Y67698430D01*
X34156796Y68091587D01*
X34003393Y68461934D01*
X33780687Y68795237D01*
X33497237Y69078687D01*
X33163934Y69301393D01*
X32793587Y69454796D01*
X32400430Y69533000D01*
X31999570Y69533000D01*
X31606413Y69454796D01*
X31236066Y69301393D01*
X30902763Y69078687D01*
X30619313Y68795237D01*
X30396607Y68461934D01*
X30243204Y68091587D01*
X30165000Y67698430D01*
X14265807Y67698430D01*
X14245226Y67801898D01*
X14167205Y67990256D01*
X14053937Y68159774D01*
X13909774Y68303937D01*
X13740256Y68417205D01*
X13551898Y68495226D01*
X13351939Y68535000D01*
X13148061Y68535000D01*
X12948102Y68495226D01*
X12863060Y68460000D01*
X11012260Y68460000D01*
X11100094Y68624326D01*
X11167853Y68847700D01*
X11190733Y69080000D01*
X11167853Y69312300D01*
X11100094Y69535674D01*
X10990058Y69741536D01*
X10841975Y69921975D01*
X10661536Y70070058D01*
X10455674Y70180094D01*
X10232300Y70247853D01*
X10058207Y70265000D01*
X8941793Y70265000D01*
X8767700Y70247853D01*
X8544326Y70180094D01*
X8338464Y70070058D01*
X8158025Y69921975D01*
X8009942Y69741536D01*
X7899906Y69535674D01*
X7832147Y69312300D01*
X7809267Y69080000D01*
X7832147Y68847700D01*
X7899906Y68624326D01*
X7987740Y68460000D01*
X2135000Y68460000D01*
X2135000Y74501939D01*
X20165000Y74501939D01*
X20165000Y74298061D01*
X20204774Y74098102D01*
X20282795Y73909744D01*
X20396063Y73740226D01*
X20436289Y73700000D01*
X20396063Y73659774D01*
X20282795Y73490256D01*
X20204774Y73301898D01*
X20165000Y73101939D01*
X20165000Y72898061D01*
X20204774Y72698102D01*
X20282795Y72509744D01*
X20356123Y72400000D01*
X20282795Y72290256D01*
X20204774Y72101898D01*
X20165000Y71901939D01*
X20165000Y71698061D01*
X20204774Y71498102D01*
X20282795Y71309744D01*
X20396063Y71140226D01*
X20436289Y71100000D01*
X20396063Y71059774D01*
X20282795Y70890256D01*
X20204774Y70701898D01*
X20165000Y70501939D01*
X20165000Y70298061D01*
X20204774Y70098102D01*
X20282795Y69909744D01*
X20396063Y69740226D01*
X20540226Y69596063D01*
X20709744Y69482795D01*
X20898102Y69404774D01*
X21098061Y69365000D01*
X21301939Y69365000D01*
X21501898Y69404774D01*
X21690256Y69482795D01*
X21859774Y69596063D01*
X22003937Y69740226D01*
X22117205Y69909744D01*
X22195226Y70098102D01*
X22235000Y70298061D01*
X22235000Y70360198D01*
X22314802Y70440000D01*
X35962678Y70440000D01*
X36000000Y70436324D01*
X36037322Y70440000D01*
X36037333Y70440000D01*
X36148986Y70450997D01*
X36292247Y70494454D01*
X36424276Y70565026D01*
X36540001Y70659999D01*
X36563804Y70689002D01*
X37089802Y71215000D01*
X37101939Y71215000D01*
X37301898Y71254774D01*
X37490256Y71332795D01*
X37659774Y71446063D01*
X37803937Y71590226D01*
X37917205Y71759744D01*
X37995226Y71948102D01*
X38035000Y72148061D01*
X38035000Y72351939D01*
X37995226Y72551898D01*
X37917205Y72740256D01*
X37803937Y72909774D01*
X37659774Y73053937D01*
X37490256Y73167205D01*
X37301898Y73245226D01*
X37101939Y73285000D01*
X36898061Y73285000D01*
X36698102Y73245226D01*
X36509744Y73167205D01*
X36362585Y73068877D01*
X36290256Y73117205D01*
X36252164Y73132983D01*
X36285000Y73298061D01*
X36285000Y73501939D01*
X36245226Y73701898D01*
X36167205Y73890256D01*
X36053937Y74059774D01*
X35909774Y74203937D01*
X35827246Y74259080D01*
X35835000Y74298061D01*
X35835000Y74501939D01*
X35795226Y74701898D01*
X35717205Y74890256D01*
X35603937Y75059774D01*
X35459774Y75203937D01*
X35290256Y75317205D01*
X35101898Y75395226D01*
X34901939Y75435000D01*
X34698061Y75435000D01*
X34498102Y75395226D01*
X34309744Y75317205D01*
X34140226Y75203937D01*
X33996063Y75059774D01*
X33882795Y74890256D01*
X33804774Y74701898D01*
X33765000Y74501939D01*
X33765000Y74439802D01*
X33085199Y73760000D01*
X22914802Y73760000D01*
X22235000Y74439801D01*
X22235000Y74501939D01*
X22195226Y74701898D01*
X22117205Y74890256D01*
X22003937Y75059774D01*
X21859774Y75203937D01*
X21690256Y75317205D01*
X21501898Y75395226D01*
X21301939Y75435000D01*
X21098061Y75435000D01*
X20898102Y75395226D01*
X20709744Y75317205D01*
X20540226Y75203937D01*
X20396063Y75059774D01*
X20282795Y74890256D01*
X20204774Y74701898D01*
X20165000Y74501939D01*
X2135000Y74501939D01*
X2135000Y77062391D01*
X7856538Y77062391D01*
X7860409Y77024718D01*
X7952579Y76799467D01*
X8086922Y76596526D01*
X8258275Y76423693D01*
X8460054Y76287610D01*
X8684504Y76193507D01*
X8923000Y76145000D01*
X9373000Y76145000D01*
X9373000Y77253000D01*
X9627000Y77253000D01*
X9627000Y76145000D01*
X10077000Y76145000D01*
X10315496Y76193507D01*
X10539946Y76287610D01*
X10741725Y76423693D01*
X10913078Y76596526D01*
X11047421Y76799467D01*
X11139591Y77024718D01*
X11143462Y77062391D01*
X11018731Y77253000D01*
X9627000Y77253000D01*
X9373000Y77253000D01*
X7981269Y77253000D01*
X7856538Y77062391D01*
X2135000Y77062391D01*
X2135000Y77697609D01*
X7856538Y77697609D01*
X7981269Y77507000D01*
X9373000Y77507000D01*
X9373000Y79493500D01*
X9627000Y79493500D01*
X9627000Y77507000D01*
X11018731Y77507000D01*
X11143462Y77697609D01*
X11139591Y77735282D01*
X11047421Y77960533D01*
X10913078Y78163474D01*
X10741725Y78336307D01*
X10539946Y78472390D01*
X10423496Y78521213D01*
X10439946Y78528110D01*
X10641725Y78664193D01*
X10813078Y78837026D01*
X10947421Y79039967D01*
X11039591Y79265218D01*
X11043462Y79302891D01*
X10918731Y79493500D01*
X9627000Y79493500D01*
X9373000Y79493500D01*
X8081269Y79493500D01*
X7956538Y79302891D01*
X7960409Y79265218D01*
X8052579Y79039967D01*
X8186922Y78837026D01*
X8358275Y78664193D01*
X8560054Y78528110D01*
X8576504Y78521213D01*
X8460054Y78472390D01*
X8258275Y78336307D01*
X8086922Y78163474D01*
X7952579Y77960533D01*
X7860409Y77735282D01*
X7856538Y77697609D01*
X2135000Y77697609D01*
X2135000Y80289945D01*
X2230013Y80147748D01*
X2457748Y79920013D01*
X2725537Y79741082D01*
X3023088Y79617832D01*
X3338967Y79555000D01*
X3661033Y79555000D01*
X3976912Y79617832D01*
X4274463Y79741082D01*
X4542252Y79920013D01*
X4560348Y79938109D01*
X7956538Y79938109D01*
X8081269Y79747500D01*
X9373000Y79747500D01*
X9373000Y80855500D01*
X9627000Y80855500D01*
X9627000Y79747500D01*
X10918731Y79747500D01*
X11043462Y79938109D01*
X11039591Y79975782D01*
X10947421Y80201033D01*
X10813078Y80403974D01*
X10641725Y80576807D01*
X10439946Y80712890D01*
X10215496Y80806993D01*
X9977000Y80855500D01*
X9627000Y80855500D01*
X9373000Y80855500D01*
X9023000Y80855500D01*
X8784504Y80806993D01*
X8560054Y80712890D01*
X8358275Y80576807D01*
X8186922Y80403974D01*
X8052579Y80201033D01*
X7960409Y79975782D01*
X7956538Y79938109D01*
X4560348Y79938109D01*
X4769987Y80147748D01*
X4948918Y80415537D01*
X5072168Y80713088D01*
X5135000Y81028967D01*
X5135000Y81351033D01*
X5072168Y81666912D01*
X4948918Y81964463D01*
X4769987Y82232252D01*
X4542252Y82459987D01*
X4274463Y82638918D01*
X3976912Y82762168D01*
X3661033Y82825000D01*
X3338967Y82825000D01*
X3023088Y82762168D01*
X2725537Y82638918D01*
X2457748Y82459987D01*
X2230013Y82232252D01*
X2135000Y82090055D01*
X2135000Y83080000D01*
X11309267Y83080000D01*
X11332147Y82847700D01*
X11399906Y82624326D01*
X11509942Y82418464D01*
X11658025Y82238025D01*
X11838464Y82089942D01*
X12044326Y81979906D01*
X12267700Y81912147D01*
X12441793Y81895000D01*
X13558207Y81895000D01*
X13732300Y81912147D01*
X13955674Y81979906D01*
X14161536Y82089942D01*
X14341975Y82238025D01*
X14490058Y82418464D01*
X14600094Y82624326D01*
X14667853Y82847700D01*
X14690733Y83080000D01*
X14667853Y83312300D01*
X14600094Y83535674D01*
X14490058Y83741536D01*
X14341975Y83921975D01*
X14161536Y84070058D01*
X13955674Y84180094D01*
X13732300Y84247853D01*
X13558207Y84265000D01*
X12441793Y84265000D01*
X12267700Y84247853D01*
X12044326Y84180094D01*
X11838464Y84070058D01*
X11658025Y83921975D01*
X11509942Y83741536D01*
X11399906Y83535674D01*
X11332147Y83312300D01*
X11309267Y83080000D01*
X2135000Y83080000D01*
X2135000Y85977500D01*
X4965205Y85977500D01*
X5110602Y85917274D01*
X5310561Y85877500D01*
X5514439Y85877500D01*
X5714398Y85917274D01*
X5902756Y85995295D01*
X6072274Y86108563D01*
X6216437Y86252726D01*
X6282728Y86351939D01*
X34965000Y86351939D01*
X34965000Y86148061D01*
X35004774Y85948102D01*
X35082795Y85759744D01*
X35196063Y85590226D01*
X35340226Y85446063D01*
X35509744Y85332795D01*
X35698102Y85254774D01*
X35898061Y85215000D01*
X36101939Y85215000D01*
X36301898Y85254774D01*
X36490256Y85332795D01*
X36659774Y85446063D01*
X36803937Y85590226D01*
X36917205Y85759744D01*
X36995226Y85948102D01*
X37035000Y86148061D01*
X37035000Y86210199D01*
X38387911Y87563110D01*
X39768524Y87563110D01*
X39813175Y87415901D01*
X39938359Y87153080D01*
X40112412Y86919731D01*
X40328645Y86724822D01*
X40578748Y86575843D01*
X40853109Y86478519D01*
X41083000Y86599186D01*
X41083000Y87793000D01*
X39889845Y87793000D01*
X39768524Y87563110D01*
X38387911Y87563110D01*
X39264802Y88440000D01*
X39820749Y88440000D01*
X39813175Y88424099D01*
X39768524Y88276890D01*
X39889845Y88047000D01*
X41083000Y88047000D01*
X41083000Y88067000D01*
X41337000Y88067000D01*
X41337000Y88047000D01*
X41357000Y88047000D01*
X41357000Y87793000D01*
X41337000Y87793000D01*
X41337000Y86599186D01*
X41566891Y86478519D01*
X41841252Y86575843D01*
X42091355Y86724822D01*
X42307588Y86919731D01*
X42478900Y87149406D01*
X42596525Y86973368D01*
X42803368Y86766525D01*
X43046589Y86604010D01*
X43316842Y86492068D01*
X43603740Y86435000D01*
X43896260Y86435000D01*
X44183158Y86492068D01*
X44453411Y86604010D01*
X44696632Y86766525D01*
X44903475Y86973368D01*
X45065990Y87216589D01*
X45177932Y87486842D01*
X45235000Y87773740D01*
X45235000Y88066260D01*
X45177932Y88353158D01*
X45065990Y88623411D01*
X44903475Y88866632D01*
X44696632Y89073475D01*
X44522240Y89190000D01*
X44696632Y89306525D01*
X44903475Y89513368D01*
X45065990Y89756589D01*
X45177932Y90026842D01*
X45235000Y90313740D01*
X45235000Y90606260D01*
X45177932Y90893158D01*
X45065990Y91163411D01*
X44903475Y91406632D01*
X44771620Y91538487D01*
X44844180Y91560498D01*
X44954494Y91619463D01*
X45051185Y91698815D01*
X45130537Y91795506D01*
X45189502Y91905820D01*
X45225812Y92025518D01*
X45238072Y92150000D01*
X45238072Y93850000D01*
X45225812Y93974482D01*
X45189502Y94094180D01*
X45130537Y94204494D01*
X45051185Y94301185D01*
X44954494Y94380537D01*
X44844180Y94439502D01*
X44724482Y94475812D01*
X44600000Y94488072D01*
X42900000Y94488072D01*
X42775518Y94475812D01*
X42655820Y94439502D01*
X42545506Y94380537D01*
X42448815Y94301185D01*
X42369463Y94204494D01*
X42310498Y94094180D01*
X42288487Y94021620D01*
X42156632Y94153475D01*
X41913411Y94315990D01*
X41643158Y94427932D01*
X41356260Y94485000D01*
X41063740Y94485000D01*
X40776842Y94427932D01*
X40506589Y94315990D01*
X40263368Y94153475D01*
X40056525Y93946632D01*
X39894010Y93703411D01*
X39782068Y93433158D01*
X39725000Y93146260D01*
X39725000Y92853740D01*
X39782068Y92566842D01*
X39894010Y92296589D01*
X40056525Y92053368D01*
X40263368Y91846525D01*
X40437760Y91730000D01*
X40263368Y91613475D01*
X40056525Y91406632D01*
X39894010Y91163411D01*
X39782068Y90893158D01*
X39725000Y90606260D01*
X39725000Y90313740D01*
X39782068Y90026842D01*
X39809755Y89960000D01*
X38987322Y89960000D01*
X38949999Y89963676D01*
X38912677Y89960000D01*
X38912667Y89960000D01*
X38801014Y89949003D01*
X38671691Y89909774D01*
X38657753Y89905546D01*
X38525723Y89834974D01*
X38481636Y89798792D01*
X38409999Y89740001D01*
X38386201Y89711003D01*
X35960199Y87285000D01*
X35898061Y87285000D01*
X35698102Y87245226D01*
X35509744Y87167205D01*
X35340226Y87053937D01*
X35196063Y86909774D01*
X35082795Y86740256D01*
X35004774Y86551898D01*
X34965000Y86351939D01*
X6282728Y86351939D01*
X6329705Y86422244D01*
X6407726Y86610602D01*
X6447500Y86810561D01*
X6447500Y87014439D01*
X6407726Y87214398D01*
X6329705Y87402756D01*
X6216437Y87572274D01*
X6072274Y87716437D01*
X5902756Y87829705D01*
X5714398Y87907726D01*
X5582711Y87933920D01*
X29615525Y87933920D01*
X29699208Y87679739D01*
X29971775Y87548842D01*
X30264642Y87473635D01*
X30566553Y87457009D01*
X30865907Y87499603D01*
X31151199Y87599778D01*
X31300792Y87679739D01*
X31384475Y87933920D01*
X30500000Y88818395D01*
X29615525Y87933920D01*
X5582711Y87933920D01*
X5514439Y87947500D01*
X5310561Y87947500D01*
X5137629Y87913102D01*
X5135000Y88524250D01*
X4976250Y88683000D01*
X3627000Y88683000D01*
X3627000Y88663000D01*
X3373000Y88663000D01*
X3373000Y88683000D01*
X3353000Y88683000D01*
X3353000Y88937000D01*
X3373000Y88937000D01*
X3373000Y90286250D01*
X3627000Y90286250D01*
X3627000Y88937000D01*
X4976250Y88937000D01*
X5135000Y89095750D01*
X5138072Y89810000D01*
X5125812Y89934482D01*
X5089502Y90054180D01*
X5030537Y90164494D01*
X4951185Y90261185D01*
X4854494Y90340537D01*
X4744180Y90399502D01*
X4624482Y90435812D01*
X4500000Y90448072D01*
X3785750Y90445000D01*
X3627000Y90286250D01*
X3373000Y90286250D01*
X3214250Y90445000D01*
X2500000Y90448072D01*
X2375518Y90435812D01*
X2255820Y90399502D01*
X2145506Y90340537D01*
X2135000Y90331915D01*
X2135000Y91062391D01*
X11356538Y91062391D01*
X11360409Y91024718D01*
X11452579Y90799467D01*
X11586922Y90596526D01*
X11758275Y90423693D01*
X11960054Y90287610D01*
X12184504Y90193507D01*
X12423000Y90145000D01*
X12873000Y90145000D01*
X12873000Y91253000D01*
X13127000Y91253000D01*
X13127000Y90145000D01*
X13577000Y90145000D01*
X13815496Y90193507D01*
X14039946Y90287610D01*
X14241725Y90423693D01*
X14413078Y90596526D01*
X14547421Y90799467D01*
X14639591Y91024718D01*
X14643462Y91062391D01*
X14518731Y91253000D01*
X13127000Y91253000D01*
X12873000Y91253000D01*
X11481269Y91253000D01*
X11356538Y91062391D01*
X2135000Y91062391D01*
X2135000Y91697609D01*
X11356538Y91697609D01*
X11481269Y91507000D01*
X12873000Y91507000D01*
X12873000Y93493500D01*
X13127000Y93493500D01*
X13127000Y91507000D01*
X14518731Y91507000D01*
X14643462Y91697609D01*
X14639591Y91735282D01*
X14547421Y91960533D01*
X14413078Y92163474D01*
X14241725Y92336307D01*
X14039946Y92472390D01*
X13923496Y92521213D01*
X13939946Y92528110D01*
X14141725Y92664193D01*
X14313078Y92837026D01*
X14447421Y93039967D01*
X14539591Y93265218D01*
X14543462Y93302891D01*
X14511366Y93351939D01*
X22465000Y93351939D01*
X22465000Y93148061D01*
X22504774Y92948102D01*
X22582795Y92759744D01*
X22696063Y92590226D01*
X22740000Y92546289D01*
X22740001Y91453712D01*
X22696063Y91409774D01*
X22582795Y91240256D01*
X22504774Y91051898D01*
X22465000Y90851939D01*
X22465000Y90648061D01*
X22504774Y90448102D01*
X22582795Y90259744D01*
X22696063Y90090226D01*
X22786289Y90000000D01*
X22696063Y89909774D01*
X22582795Y89740256D01*
X22504774Y89551898D01*
X22465000Y89351939D01*
X22465000Y89148061D01*
X22504774Y88948102D01*
X22582795Y88759744D01*
X22696063Y88590226D01*
X22840226Y88446063D01*
X23009744Y88332795D01*
X23198102Y88254774D01*
X23398061Y88215000D01*
X23601939Y88215000D01*
X23801898Y88254774D01*
X23990256Y88332795D01*
X24159774Y88446063D01*
X24203711Y88490000D01*
X25796289Y88490000D01*
X25840226Y88446063D01*
X26009744Y88332795D01*
X26198102Y88254774D01*
X26398061Y88215000D01*
X26601939Y88215000D01*
X26801898Y88254774D01*
X26990256Y88332795D01*
X27159774Y88446063D01*
X27303937Y88590226D01*
X27417205Y88759744D01*
X27488327Y88931447D01*
X28959009Y88931447D01*
X29001603Y88632093D01*
X29101778Y88346801D01*
X29181739Y88197208D01*
X29435920Y88113525D01*
X30320395Y88998000D01*
X30679605Y88998000D01*
X31564080Y88113525D01*
X31712262Y88162310D01*
X31807688Y88019495D01*
X32021495Y87805688D01*
X32272905Y87637701D01*
X32552257Y87521989D01*
X32848816Y87463000D01*
X33151184Y87463000D01*
X33447743Y87521989D01*
X33727095Y87637701D01*
X33978505Y87805688D01*
X34192312Y88019495D01*
X34250000Y88105831D01*
X34307688Y88019495D01*
X34521495Y87805688D01*
X34772905Y87637701D01*
X35052257Y87521989D01*
X35348816Y87463000D01*
X35651184Y87463000D01*
X35947743Y87521989D01*
X36227095Y87637701D01*
X36478505Y87805688D01*
X36692312Y88019495D01*
X36860299Y88270905D01*
X36976011Y88550257D01*
X37035000Y88846816D01*
X37035000Y89149184D01*
X36976011Y89445743D01*
X36860299Y89725095D01*
X36692312Y89976505D01*
X36478505Y90190312D01*
X36227095Y90358299D01*
X35947743Y90474011D01*
X35651184Y90533000D01*
X35348816Y90533000D01*
X35052257Y90474011D01*
X34772905Y90358299D01*
X34521495Y90190312D01*
X34307688Y89976505D01*
X34250000Y89890169D01*
X34192312Y89976505D01*
X33978505Y90190312D01*
X33727095Y90358299D01*
X33447743Y90474011D01*
X33151184Y90533000D01*
X32848816Y90533000D01*
X32552257Y90474011D01*
X32272905Y90358299D01*
X32021495Y90190312D01*
X31807688Y89976505D01*
X31712262Y89833690D01*
X31564080Y89882475D01*
X30679605Y88998000D01*
X30320395Y88998000D01*
X29435920Y89882475D01*
X29181739Y89798792D01*
X29050842Y89526225D01*
X28975635Y89233358D01*
X28959009Y88931447D01*
X27488327Y88931447D01*
X27495226Y88948102D01*
X27535000Y89148061D01*
X27535000Y89351939D01*
X27495226Y89551898D01*
X27417205Y89740256D01*
X27303937Y89909774D01*
X27159774Y90053937D01*
X27147588Y90062080D01*
X29615525Y90062080D01*
X30500000Y89177605D01*
X31384475Y90062080D01*
X31300792Y90316261D01*
X31028225Y90447158D01*
X30735358Y90522365D01*
X30433447Y90538991D01*
X30134093Y90496397D01*
X29848801Y90396222D01*
X29699208Y90316261D01*
X29615525Y90062080D01*
X27147588Y90062080D01*
X26990256Y90167205D01*
X26801898Y90245226D01*
X26601939Y90285000D01*
X26398061Y90285000D01*
X26198102Y90245226D01*
X26009744Y90167205D01*
X25840226Y90053937D01*
X25796289Y90010000D01*
X24223711Y90010000D01*
X24303937Y90090226D01*
X24417205Y90259744D01*
X24495226Y90448102D01*
X24535000Y90648061D01*
X24535000Y90851939D01*
X24495226Y91051898D01*
X24417205Y91240256D01*
X24303937Y91409774D01*
X24260000Y91453711D01*
X24260000Y92546289D01*
X24303937Y92590226D01*
X24417205Y92759744D01*
X24495226Y92948102D01*
X24535000Y93148061D01*
X24535000Y93351939D01*
X24495226Y93551898D01*
X24417205Y93740256D01*
X24303937Y93909774D01*
X24159774Y94053937D01*
X23990256Y94167205D01*
X23801898Y94245226D01*
X23601939Y94285000D01*
X23398061Y94285000D01*
X23198102Y94245226D01*
X23009744Y94167205D01*
X22840226Y94053937D01*
X22696063Y93909774D01*
X22582795Y93740256D01*
X22504774Y93551898D01*
X22465000Y93351939D01*
X14511366Y93351939D01*
X14418731Y93493500D01*
X13127000Y93493500D01*
X12873000Y93493500D01*
X11581269Y93493500D01*
X11456538Y93302891D01*
X11460409Y93265218D01*
X11552579Y93039967D01*
X11686922Y92837026D01*
X11858275Y92664193D01*
X12060054Y92528110D01*
X12076504Y92521213D01*
X11960054Y92472390D01*
X11758275Y92336307D01*
X11586922Y92163474D01*
X11452579Y91960533D01*
X11360409Y91735282D01*
X11356538Y91697609D01*
X2135000Y91697609D01*
X2135000Y93938109D01*
X11456538Y93938109D01*
X11581269Y93747500D01*
X12873000Y93747500D01*
X12873000Y94855500D01*
X13127000Y94855500D01*
X13127000Y93747500D01*
X14418731Y93747500D01*
X14543462Y93938109D01*
X14539591Y93975782D01*
X14447421Y94201033D01*
X14313078Y94403974D01*
X14141725Y94576807D01*
X13939946Y94712890D01*
X13715496Y94806993D01*
X13477000Y94855500D01*
X13127000Y94855500D01*
X12873000Y94855500D01*
X12523000Y94855500D01*
X12284504Y94806993D01*
X12060054Y94712890D01*
X11858275Y94576807D01*
X11686922Y94403974D01*
X11552579Y94201033D01*
X11460409Y93975782D01*
X11456538Y93938109D01*
X2135000Y93938109D01*
X2135000Y96061891D01*
X7956538Y96061891D01*
X7960409Y96024218D01*
X8052579Y95798967D01*
X8186922Y95596026D01*
X8358275Y95423193D01*
X8560054Y95287110D01*
X8784504Y95193007D01*
X9023000Y95144500D01*
X9373000Y95144500D01*
X9373000Y96252500D01*
X9627000Y96252500D01*
X9627000Y95144500D01*
X9977000Y95144500D01*
X10215496Y95193007D01*
X10439946Y95287110D01*
X10641725Y95423193D01*
X10813078Y95596026D01*
X10947421Y95798967D01*
X11039591Y96024218D01*
X11043462Y96061891D01*
X10918731Y96252500D01*
X9627000Y96252500D01*
X9373000Y96252500D01*
X8081269Y96252500D01*
X7956538Y96061891D01*
X2135000Y96061891D01*
X2135000Y98302391D01*
X7856538Y98302391D01*
X7860409Y98264718D01*
X7952579Y98039467D01*
X8086922Y97836526D01*
X8258275Y97663693D01*
X8460054Y97527610D01*
X8576504Y97478787D01*
X8560054Y97471890D01*
X8358275Y97335807D01*
X8186922Y97162974D01*
X8052579Y96960033D01*
X7960409Y96734782D01*
X7956538Y96697109D01*
X8081269Y96506500D01*
X9373000Y96506500D01*
X9373000Y98493000D01*
X9627000Y98493000D01*
X9627000Y96506500D01*
X10918731Y96506500D01*
X11043462Y96697109D01*
X11043327Y96698430D01*
X26165000Y96698430D01*
X26165000Y96297570D01*
X26243204Y95904413D01*
X26396607Y95534066D01*
X26619313Y95200763D01*
X26902763Y94917313D01*
X27236066Y94694607D01*
X27606413Y94541204D01*
X27999570Y94463000D01*
X28400430Y94463000D01*
X28793587Y94541204D01*
X29163934Y94694607D01*
X29497237Y94917313D01*
X29780687Y95200763D01*
X30003393Y95534066D01*
X30156796Y95904413D01*
X30235000Y96297570D01*
X30235000Y96698430D01*
X35765000Y96698430D01*
X35765000Y96297570D01*
X35843204Y95904413D01*
X35996607Y95534066D01*
X36219313Y95200763D01*
X36502763Y94917313D01*
X36836066Y94694607D01*
X37206413Y94541204D01*
X37599570Y94463000D01*
X38000430Y94463000D01*
X38393587Y94541204D01*
X38763934Y94694607D01*
X39097237Y94917313D01*
X39380687Y95200763D01*
X39603393Y95534066D01*
X39756796Y95904413D01*
X39835000Y96297570D01*
X39835000Y96698430D01*
X39756796Y97091587D01*
X39603393Y97461934D01*
X39380687Y97795237D01*
X39097237Y98078687D01*
X38763934Y98301393D01*
X38393587Y98454796D01*
X38000430Y98533000D01*
X37599570Y98533000D01*
X37206413Y98454796D01*
X36836066Y98301393D01*
X36502763Y98078687D01*
X36219313Y97795237D01*
X35996607Y97461934D01*
X35843204Y97091587D01*
X35765000Y96698430D01*
X30235000Y96698430D01*
X30156796Y97091587D01*
X30003393Y97461934D01*
X29780687Y97795237D01*
X29497237Y98078687D01*
X29163934Y98301393D01*
X28793587Y98454796D01*
X28400430Y98533000D01*
X27999570Y98533000D01*
X27606413Y98454796D01*
X27236066Y98301393D01*
X26902763Y98078687D01*
X26619313Y97795237D01*
X26396607Y97461934D01*
X26243204Y97091587D01*
X26165000Y96698430D01*
X11043327Y96698430D01*
X11039591Y96734782D01*
X10947421Y96960033D01*
X10813078Y97162974D01*
X10641725Y97335807D01*
X10439946Y97471890D01*
X10423496Y97478787D01*
X10539946Y97527610D01*
X10741725Y97663693D01*
X10913078Y97836526D01*
X11047421Y98039467D01*
X11139591Y98264718D01*
X11143462Y98302391D01*
X11018731Y98493000D01*
X9627000Y98493000D01*
X9373000Y98493000D01*
X7981269Y98493000D01*
X7856538Y98302391D01*
X2135000Y98302391D01*
X2135000Y98937609D01*
X7856538Y98937609D01*
X7981269Y98747000D01*
X9373000Y98747000D01*
X9373000Y99855000D01*
X9627000Y99855000D01*
X9627000Y98747000D01*
X11018731Y98747000D01*
X11143462Y98937609D01*
X11139591Y98975282D01*
X11047421Y99200533D01*
X10913078Y99403474D01*
X10741725Y99576307D01*
X10539946Y99712390D01*
X10315496Y99806493D01*
X10077000Y99855000D01*
X9627000Y99855000D01*
X9373000Y99855000D01*
X8923000Y99855000D01*
X8684504Y99806493D01*
X8460054Y99712390D01*
X8258275Y99576307D01*
X8086922Y99403474D01*
X7952579Y99200533D01*
X7860409Y98975282D01*
X7856538Y98937609D01*
X2135000Y98937609D01*
X2135000Y106029869D01*
X3970132Y107865000D01*
X8283561Y107865000D01*
X8158025Y107761975D01*
X8009942Y107581536D01*
X7899906Y107375674D01*
X7832147Y107152300D01*
X7809267Y106920000D01*
X7832147Y106687700D01*
X7899906Y106464326D01*
X8009942Y106258464D01*
X8158025Y106078025D01*
X8338464Y105929942D01*
X8544326Y105819906D01*
X8767700Y105752147D01*
X8941793Y105735000D01*
X10058207Y105735000D01*
X10232300Y105752147D01*
X10455674Y105819906D01*
X10661536Y105929942D01*
X10841975Y106078025D01*
X10990058Y106258464D01*
X11100094Y106464326D01*
X11165830Y106681033D01*
X22035000Y106681033D01*
X22035000Y106358967D01*
X22097832Y106043088D01*
X22221082Y105745537D01*
X22400013Y105477748D01*
X22627748Y105250013D01*
X22627767Y105250000D01*
X22627748Y105249987D01*
X22400013Y105022252D01*
X22221082Y104754463D01*
X22097832Y104456912D01*
X22035000Y104141033D01*
X22035000Y103818967D01*
X22097832Y103503088D01*
X22221082Y103205537D01*
X22400013Y102937748D01*
X22627748Y102710013D01*
X22895537Y102531082D01*
X23193088Y102407832D01*
X23508967Y102345000D01*
X23831033Y102345000D01*
X24146912Y102407832D01*
X24444463Y102531082D01*
X24712252Y102710013D01*
X24846826Y102844587D01*
X25254192Y102844587D01*
X25349956Y102580186D01*
X25639571Y102439296D01*
X25951108Y102357616D01*
X26272595Y102338282D01*
X26591675Y102382039D01*
X26896088Y102487205D01*
X27070044Y102580186D01*
X27165808Y102844587D01*
X27794192Y102844587D01*
X27889956Y102580186D01*
X28179571Y102439296D01*
X28491108Y102357616D01*
X28812595Y102338282D01*
X29131675Y102382039D01*
X29436088Y102487205D01*
X29610044Y102580186D01*
X29705808Y102844587D01*
X30334192Y102844587D01*
X30429956Y102580186D01*
X30719571Y102439296D01*
X31031108Y102357616D01*
X31352595Y102338282D01*
X31671675Y102382039D01*
X31976088Y102487205D01*
X32150044Y102580186D01*
X32245808Y102844587D01*
X31290000Y103800395D01*
X30334192Y102844587D01*
X29705808Y102844587D01*
X28750000Y103800395D01*
X27794192Y102844587D01*
X27165808Y102844587D01*
X26210000Y103800395D01*
X25254192Y102844587D01*
X24846826Y102844587D01*
X24939987Y102937748D01*
X25012720Y103046600D01*
X25074587Y103024192D01*
X26030395Y103980000D01*
X26389605Y103980000D01*
X27345413Y103024192D01*
X27480000Y103072938D01*
X27614587Y103024192D01*
X28570395Y103980000D01*
X28929605Y103980000D01*
X29885413Y103024192D01*
X30020000Y103072938D01*
X30154587Y103024192D01*
X31110395Y103980000D01*
X30154587Y104935808D01*
X30020000Y104887062D01*
X29885413Y104935808D01*
X28929605Y103980000D01*
X28570395Y103980000D01*
X27614587Y104935808D01*
X27480000Y104887062D01*
X27345413Y104935808D01*
X26389605Y103980000D01*
X26030395Y103980000D01*
X25074587Y104935808D01*
X25012720Y104913400D01*
X24939987Y105022252D01*
X24712252Y105249987D01*
X24712233Y105250000D01*
X24712252Y105250013D01*
X24846826Y105384587D01*
X25254192Y105384587D01*
X25302938Y105250000D01*
X25254192Y105115413D01*
X26210000Y104159605D01*
X27165808Y105115413D01*
X27117062Y105250000D01*
X27165808Y105384587D01*
X27794192Y105384587D01*
X27842938Y105250000D01*
X27794192Y105115413D01*
X28750000Y104159605D01*
X29705808Y105115413D01*
X29657062Y105250000D01*
X29705808Y105384587D01*
X30334192Y105384587D01*
X30382938Y105250000D01*
X30334192Y105115413D01*
X31290000Y104159605D01*
X32245808Y105115413D01*
X32197062Y105250000D01*
X32245808Y105384587D01*
X31290000Y106340395D01*
X30334192Y105384587D01*
X29705808Y105384587D01*
X28750000Y106340395D01*
X27794192Y105384587D01*
X27165808Y105384587D01*
X26210000Y106340395D01*
X25254192Y105384587D01*
X24846826Y105384587D01*
X24939987Y105477748D01*
X25012720Y105586600D01*
X25074587Y105564192D01*
X26030395Y106520000D01*
X26389605Y106520000D01*
X27345413Y105564192D01*
X27480000Y105612938D01*
X27614587Y105564192D01*
X28570395Y106520000D01*
X28929605Y106520000D01*
X29885413Y105564192D01*
X30020000Y105612938D01*
X30154587Y105564192D01*
X31110395Y106520000D01*
X31469605Y106520000D01*
X32425413Y105564192D01*
X32487280Y105586600D01*
X32560013Y105477748D01*
X32787748Y105250013D01*
X32787767Y105250000D01*
X32787748Y105249987D01*
X32560013Y105022252D01*
X32487280Y104913400D01*
X32425413Y104935808D01*
X31469605Y103980000D01*
X32425413Y103024192D01*
X32487280Y103046600D01*
X32560013Y102937748D01*
X32787748Y102710013D01*
X33055537Y102531082D01*
X33353088Y102407832D01*
X33668967Y102345000D01*
X33991033Y102345000D01*
X34306912Y102407832D01*
X34604463Y102531082D01*
X34872252Y102710013D01*
X35099987Y102937748D01*
X35278918Y103205537D01*
X35402168Y103503088D01*
X35465000Y103818967D01*
X35465000Y104141033D01*
X35402168Y104456912D01*
X35278918Y104754463D01*
X35099987Y105022252D01*
X34872252Y105249987D01*
X34872233Y105250000D01*
X34872252Y105250013D01*
X35099987Y105477748D01*
X35278918Y105745537D01*
X35402168Y106043088D01*
X35465000Y106358967D01*
X35465000Y106681033D01*
X35402168Y106996912D01*
X35278918Y107294463D01*
X35099987Y107562252D01*
X34872252Y107789987D01*
X34604463Y107968918D01*
X34306912Y108092168D01*
X33991033Y108155000D01*
X33668967Y108155000D01*
X33353088Y108092168D01*
X33055537Y107968918D01*
X32787748Y107789987D01*
X32560013Y107562252D01*
X32487280Y107453400D01*
X32425413Y107475808D01*
X31469605Y106520000D01*
X31110395Y106520000D01*
X30154587Y107475808D01*
X30020000Y107427062D01*
X29885413Y107475808D01*
X28929605Y106520000D01*
X28570395Y106520000D01*
X27614587Y107475808D01*
X27480000Y107427062D01*
X27345413Y107475808D01*
X26389605Y106520000D01*
X26030395Y106520000D01*
X25074587Y107475808D01*
X25012720Y107453400D01*
X24939987Y107562252D01*
X24846826Y107655413D01*
X25254192Y107655413D01*
X26210000Y106699605D01*
X27165808Y107655413D01*
X27794192Y107655413D01*
X28750000Y106699605D01*
X29705808Y107655413D01*
X30334192Y107655413D01*
X31290000Y106699605D01*
X32245808Y107655413D01*
X32150044Y107919814D01*
X31860429Y108060704D01*
X31548892Y108142384D01*
X31227405Y108161718D01*
X30908325Y108117961D01*
X30603912Y108012795D01*
X30429956Y107919814D01*
X30334192Y107655413D01*
X29705808Y107655413D01*
X29610044Y107919814D01*
X29320429Y108060704D01*
X29008892Y108142384D01*
X28687405Y108161718D01*
X28368325Y108117961D01*
X28063912Y108012795D01*
X27889956Y107919814D01*
X27794192Y107655413D01*
X27165808Y107655413D01*
X27070044Y107919814D01*
X26780429Y108060704D01*
X26468892Y108142384D01*
X26147405Y108161718D01*
X25828325Y108117961D01*
X25523912Y108012795D01*
X25349956Y107919814D01*
X25254192Y107655413D01*
X24846826Y107655413D01*
X24712252Y107789987D01*
X24444463Y107968918D01*
X24146912Y108092168D01*
X23831033Y108155000D01*
X23508967Y108155000D01*
X23193088Y108092168D01*
X22895537Y107968918D01*
X22627748Y107789987D01*
X22400013Y107562252D01*
X22221082Y107294463D01*
X22097832Y106996912D01*
X22035000Y106681033D01*
X11165830Y106681033D01*
X11167853Y106687700D01*
X11190733Y106920000D01*
X11167853Y107152300D01*
X11100094Y107375674D01*
X10990058Y107581536D01*
X10841975Y107761975D01*
X10716439Y107865000D01*
X16305752Y107865000D01*
X16472499Y107881423D01*
X16686447Y107946324D01*
X16883623Y108051716D01*
X17056449Y108193551D01*
X17198284Y108366377D01*
X17303676Y108563553D01*
X17368577Y108777501D01*
X17390491Y109000000D01*
X17368577Y109222499D01*
X17332933Y109340000D01*
X47340001Y109340000D01*
X47340001Y104582933D01*
G37*
%TD.AperFunction*%
%TD*%
M02*
