G04 #@! TF.GenerationSoftware,KiCad,Pcbnew,(5.1.10)-1*
G04 #@! TF.CreationDate,2021-12-11T11:34:55-08:00*
G04 #@! TF.ProjectId,paradox,70617261-646f-4782-9e6b-696361645f70,rev?*
G04 #@! TF.SameCoordinates,Original*
G04 #@! TF.FileFunction,Soldermask,Bot*
G04 #@! TF.FilePolarity,Negative*
%FSLAX46Y46*%
G04 Gerber Fmt 4.6, Leading zero omitted, Abs format (unit mm)*
G04 Created by KiCad (PCBNEW (5.1.10)-1) date 2021-12-11 11:34:55*
%MOMM*%
%LPD*%
G01*
G04 APERTURE LIST*
%ADD10C,1.800000*%
%ADD11R,2.000000X2.000000*%
%ADD12C,2.000000*%
%ADD13R,2.300000X2.700000*%
%ADD14C,1.700000*%
%ADD15O,1.500000X1.200000*%
%ADD16O,2.100000X1.200000*%
%ADD17O,2.100000X1.100000*%
%ADD18C,2.850000*%
%ADD19R,2.300000X1.700000*%
G04 APERTURE END LIST*
D10*
G04 #@! TO.C,R20*
X-20764500Y40965000D03*
X-20764500Y33965000D03*
G04 #@! TD*
G04 #@! TO.C,R19*
X-20764500Y96019500D03*
X-20764500Y89019500D03*
G04 #@! TD*
D11*
G04 #@! TO.C,RV9*
X-18254001Y52865000D03*
D12*
X-20794001Y52865000D03*
X-23334001Y52865000D03*
G04 #@! TD*
G04 #@! TO.C,RV8*
X-15890000Y43535000D03*
X-15890000Y40995000D03*
D11*
X-15890000Y38455000D03*
G04 #@! TD*
D12*
G04 #@! TO.C,RV7*
X-15890000Y99454000D03*
X-15890000Y96914000D03*
D11*
X-15890000Y94374000D03*
G04 #@! TD*
D13*
G04 #@! TO.C,RV2*
X-35105000Y82199000D03*
X-26305000Y82199000D03*
D14*
X-33205000Y75199000D03*
X-30705000Y75199000D03*
X-28205000Y75199000D03*
G04 #@! TD*
D13*
G04 #@! TO.C,RV5*
X-35105000Y26280000D03*
X-26305000Y26280000D03*
D14*
X-33205000Y19280000D03*
X-30705000Y19280000D03*
X-28205000Y19280000D03*
G04 #@! TD*
G04 #@! TO.C,J6*
X-19880000Y103378000D03*
X-19880000Y105918000D03*
X-17340000Y103378000D03*
X-17340000Y105918000D03*
X-14800000Y103378000D03*
X-14800000Y105918000D03*
X-12260000Y103378000D03*
X-12260000Y105918000D03*
X-9720000Y103378000D03*
X-9720000Y105918000D03*
G04 #@! TD*
D15*
G04 #@! TO.C,J8*
X-34000000Y879501D03*
D16*
X-34000000Y3120001D03*
D17*
X-34000000Y11420001D03*
G04 #@! TD*
D15*
G04 #@! TO.C,J5*
X-4000000Y879500D03*
D16*
X-4000000Y3120000D03*
D17*
X-4000000Y11420000D03*
G04 #@! TD*
D15*
G04 #@! TO.C,J4*
X-7214000Y34443500D03*
D16*
X-7214000Y36684000D03*
D17*
X-7214000Y44984000D03*
G04 #@! TD*
D15*
G04 #@! TO.C,J3*
X-14000000Y56798500D03*
D16*
X-14000000Y59039000D03*
D17*
X-14000000Y67339000D03*
G04 #@! TD*
D15*
G04 #@! TO.C,J2*
X-4000000Y56798500D03*
D16*
X-4000000Y59039000D03*
D17*
X-4000000Y67339000D03*
G04 #@! TD*
D15*
G04 #@! TO.C,J1*
X-7214000Y101603500D03*
D16*
X-7214000Y99363000D03*
D17*
X-7214000Y91063000D03*
G04 #@! TD*
D15*
G04 #@! TO.C,J11*
X-34000000Y56798500D03*
D16*
X-34000000Y59039000D03*
D17*
X-34000000Y67339000D03*
G04 #@! TD*
D15*
G04 #@! TO.C,J10*
X-14000000Y879500D03*
D16*
X-14000000Y3120000D03*
D17*
X-14000000Y11420000D03*
G04 #@! TD*
D15*
G04 #@! TO.C,J9*
X-24000000Y879500D03*
D16*
X-24000000Y3120000D03*
D17*
X-24000000Y11420000D03*
G04 #@! TD*
D15*
G04 #@! TO.C,J7*
X-24000000Y56798500D03*
D16*
X-24000000Y59039000D03*
D17*
X-24000000Y67339000D03*
G04 #@! TD*
D18*
G04 #@! TO.C,SW1*
X-3699000Y50019000D03*
X-8399000Y50019000D03*
X-13099000Y50019000D03*
G04 #@! TD*
D19*
G04 #@! TO.C,RV6*
X-14750000Y23191000D03*
X-5250000Y23191000D03*
D14*
X-12500000Y15691000D03*
X-10000000Y15691000D03*
X-7500000Y15691000D03*
G04 #@! TD*
D19*
G04 #@! TO.C,RV4*
X-32750000Y43528000D03*
X-23250000Y43528000D03*
D14*
X-30500000Y36028000D03*
X-28000000Y36028000D03*
X-25500000Y36028000D03*
G04 #@! TD*
D19*
G04 #@! TO.C,RV3*
X-14750000Y79109000D03*
X-5250000Y79109000D03*
D14*
X-12500000Y71609000D03*
X-10000000Y71609000D03*
X-7500000Y71609000D03*
G04 #@! TD*
D19*
G04 #@! TO.C,RV1*
X-32750000Y99447000D03*
X-23250000Y99447000D03*
D14*
X-30500000Y91947000D03*
X-28000000Y91947000D03*
X-25500000Y91947000D03*
G04 #@! TD*
M02*
