M48
; DRILL file {KiCad (5.1.10)-1} date 12/11/21 11:34:57
; FORMAT={-:-/ absolute / inch / decimal}
; #@! TF.CreationDate,2021-12-11T11:34:57-08:00
; #@! TF.GenerationSoftware,Kicad,Pcbnew,(5.1.10)-1
FMAT,2
INCH
T1C0.0138
T2C0.0157
T3C0.0197
T4C0.0276
T5C0.0320
T6C0.0393
T7C0.0394
T8C0.0472
T9C0.0709
T10C0.0728
%
G90
G05
T1
X-1.34Y0.19
X-1.23Y2.53
X-1.2089Y3.4111
X-1.2089Y3.3336
X-1.165Y1.145
X-1.135Y2.485
X-1.1024Y3.5374
X-1.07Y2.2
X-1.04Y2.175
X-1.0Y2.6
X-1.0Y2.175
X-0.8875Y3.6425
X-0.88Y1.2775
X-0.88Y1.0725
X-0.875Y3.461
X-0.875Y3.3112
X-0.805Y0.355
X-0.805Y0.27
X-0.7638Y2.7244
X-0.7625Y2.9096
X-0.515Y1.245
X-0.47Y3.4462
X-0.465Y1.245
X-0.435Y3.4462
X-0.355Y2.5075
X-0.355Y2.3662
X-0.285Y3.4962
X-0.2004Y1.3196
X-0.17Y0.565
X-0.165Y1.26
X-0.1273Y3.4531
X-0.1249Y2.7749
X-0.12Y0.535
X-0.1149Y3.4009
X-0.1096Y3.5176
X-0.0977Y2.1466
X-0.095Y0.705
X-0.085Y3.585
X-0.081Y2.1761
X-0.08Y2.645
X-0.08Y1.3
X-0.0375Y0.185
T2
X-1.415Y1.4162
X-1.41Y3.6212
X-1.41Y3.565
X-1.21Y2.7775
X-1.195Y0.635
X-1.1075Y0.295
X-1.095Y4.1961
X-1.07Y3.04
X-1.065Y2.605
X-1.035Y0.88
X-0.99Y2.935
X-0.99Y0.73
X-0.97Y0.21
X-0.955Y2.4162
X-0.945Y2.99
X-0.945Y0.79
X-0.825Y0.52
X-0.688Y0.2454
X-0.59Y2.84
X-0.59Y0.655
X-0.5844Y2.5094
X-0.535Y3.2812
X-0.535Y1.08
X-0.505Y2.415
X-0.4125Y0.2375
X-0.395Y0.39
X-0.225Y2.435
X-0.18Y3.25
X-0.18Y1.045
X-0.165Y1.13
X-0.1452Y3.3468
X-0.12Y4.04
X-0.04Y4.28
T5
X-0.8175Y3.7803
X-0.8175Y3.5047
X-0.8175Y1.6128
X-0.8175Y1.3372
T6
X-0.7827Y4.17
X-0.7827Y4.07
X-0.6827Y4.17
X-0.6827Y4.07
X-0.5827Y4.17
X-0.5827Y4.07
X-0.4827Y4.17
X-0.4827Y4.07
X-0.3827Y4.17
X-0.3827Y4.07
T7
X-1.3073Y2.9606
X-1.3073Y0.7591
X-1.2089Y2.9606
X-1.2089Y0.7591
X-1.2008Y3.62
X-1.2008Y1.4184
X-1.1104Y2.9606
X-1.1104Y0.7591
X-1.1024Y3.62
X-1.1024Y1.4184
X-1.0039Y3.62
X-1.0039Y1.4184
X-0.9187Y2.0813
X-0.8187Y2.0813
X-0.7187Y2.0813
X-0.6256Y3.9155
X-0.6256Y3.8155
X-0.6256Y3.7155
X-0.6256Y1.714
X-0.6256Y1.614
X-0.6256Y1.514
X-0.4921Y2.8193
X-0.4921Y0.6178
X-0.3937Y2.8193
X-0.3937Y0.6178
X-0.2953Y2.8193
X-0.2953Y0.6178
T10
X-0.5157Y1.9693
X-0.3307Y1.9693
X-0.1456Y1.9693
T2
G00X-1.3228Y2.6511
M15
G01X-1.3543Y2.6511
M16
G05
G00X-1.3228Y0.4496
M15
G01X-1.3543Y0.4496
M16
G05
G00X-0.9291Y2.6511
M15
G01X-0.9606Y2.6511
M16
G05
G00X-0.9291Y0.4496
M15
G01X-0.9606Y0.4496
M16
G05
G00X-0.5354Y2.6511
M15
G01X-0.5669Y2.6511
M16
G05
G00X-0.5354Y0.4496
M15
G01X-0.5669Y0.4496
M16
G05
G00X-0.2998Y3.5852
M15
G01X-0.2683Y3.5852
M16
G05
G00X-0.2683Y1.771
M15
G01X-0.2998Y1.771
M16
G05
G00X-0.1417Y2.6511
M15
G01X-0.1732Y2.6511
M16
G05
G00X-0.1417Y0.4496
M15
G01X-0.1732Y0.4496
M16
G05
T3
G00X-1.3248Y2.3244
M15
G01X-1.3524Y2.3244
M16
G05
G00X-1.3248Y0.1228
M15
G01X-1.3524Y0.1228
M16
G05
G00X-0.9311Y2.3244
M15
G01X-0.9587Y2.3244
M16
G05
G00X-0.9311Y0.1228
M15
G01X-0.9587Y0.1228
M16
G05
G00X-0.5374Y2.3244
M15
G01X-0.565Y2.3244
M16
G05
G00X-0.5374Y0.1228
M15
G01X-0.565Y0.1228
M16
G05
G00X-0.2978Y3.9119
M15
G01X-0.2702Y3.9119
M16
G05
G00X-0.2702Y1.4443
M15
G01X-0.2978Y1.4443
M16
G05
G00X-0.1437Y2.3244
M15
G01X-0.1713Y2.3244
M16
G05
G00X-0.1437Y0.1228
M15
G01X-0.1713Y0.1228
M16
G05
T4
G00X-1.3327Y2.2362
M15
G01X-1.3445Y2.2362
M16
G05
G00X-1.3327Y0.0346
M15
G01X-1.3445Y0.0346
M16
G05
G00X-0.939Y2.2362
M15
G01X-0.9508Y2.2362
M16
G05
G00X-0.939Y0.0346
M15
G01X-0.9508Y0.0346
M16
G05
G00X-0.5453Y2.2362
M15
G01X-0.5571Y2.2362
M16
G05
G00X-0.5453Y0.0346
M15
G01X-0.5571Y0.0346
M16
G05
G00X-0.2899Y4.0001
M15
G01X-0.2781Y4.0001
M16
G05
G00X-0.2781Y1.356
M15
G01X-0.2899Y1.356
M16
G05
G00X-0.1516Y2.2362
M15
G01X-0.1634Y2.2362
M16
G05
G00X-0.1516Y0.0346
M15
G01X-0.1634Y0.0346
M16
G05
T8
G00X-1.2776Y3.9152
M15
G01X-1.3012Y3.9152
M16
G05
G00X-1.2776Y1.7137
M15
G01X-1.3012Y1.7137
M16
G05
G00X-0.9035Y3.9152
M15
G01X-0.9272Y3.9152
M16
G05
G00X-0.9035Y1.7137
M15
G01X-0.9272Y1.7137
M16
G05
G00X-0.5689Y3.1145
M15
G01X-0.5925Y3.1145
M16
G05
G00X-0.5689Y0.913
M15
G01X-0.5925Y0.913
M16
G05
G00X-0.1949Y3.1145
M15
G01X-0.2185Y3.1145
M16
G05
G00X-0.1949Y0.913
M15
G01X-0.2185Y0.913
M16
G05
T9
G00X-1.3821Y3.2283
M15
G01X-1.3821Y3.2441
M16
G05
G00X-1.3821Y1.0268
M15
G01X-1.3821Y1.0425
M16
G05
G00X-1.0356Y3.2283
M15
G01X-1.0356Y3.2441
M16
G05
G00X-1.0356Y1.0268
M15
G01X-1.0356Y1.0425
M16
G05
T0
M30
