G04 #@! TF.GenerationSoftware,KiCad,Pcbnew,(5.1.10)-1*
G04 #@! TF.CreationDate,2021-12-11T11:34:55-08:00*
G04 #@! TF.ProjectId,paradox,70617261-646f-4782-9e6b-696361645f70,rev?*
G04 #@! TF.SameCoordinates,Original*
G04 #@! TF.FileFunction,Paste,Top*
G04 #@! TF.FilePolarity,Positive*
%FSLAX46Y46*%
G04 Gerber Fmt 4.6, Leading zero omitted, Abs format (unit mm)*
G04 Created by KiCad (PCBNEW (5.1.10)-1) date 2021-12-11 11:34:55*
%MOMM*%
%LPD*%
G01*
G04 APERTURE LIST*
%ADD10R,0.800000X0.900000*%
%ADD11R,0.650000X0.400000*%
%ADD12R,1.200000X0.900000*%
G04 APERTURE END LIST*
G04 #@! TO.C,R58*
G36*
G01*
X-25927500Y7218000D02*
X-25927500Y7768000D01*
G75*
G02*
X-25727500Y7968000I200000J0D01*
G01*
X-25327500Y7968000D01*
G75*
G02*
X-25127500Y7768000I0J-200000D01*
G01*
X-25127500Y7218000D01*
G75*
G02*
X-25327500Y7018000I-200000J0D01*
G01*
X-25727500Y7018000D01*
G75*
G02*
X-25927500Y7218000I0J200000D01*
G01*
G37*
G36*
G01*
X-27577500Y7218000D02*
X-27577500Y7768000D01*
G75*
G02*
X-27377500Y7968000I200000J0D01*
G01*
X-26977500Y7968000D01*
G75*
G02*
X-26777500Y7768000I0J-200000D01*
G01*
X-26777500Y7218000D01*
G75*
G02*
X-26977500Y7018000I-200000J0D01*
G01*
X-27377500Y7018000D01*
G75*
G02*
X-27577500Y7218000I0J200000D01*
G01*
G37*
G04 #@! TD*
G04 #@! TO.C,R57*
G36*
G01*
X-25927500Y8869000D02*
X-25927500Y9419000D01*
G75*
G02*
X-25727500Y9619000I200000J0D01*
G01*
X-25327500Y9619000D01*
G75*
G02*
X-25127500Y9419000I0J-200000D01*
G01*
X-25127500Y8869000D01*
G75*
G02*
X-25327500Y8669000I-200000J0D01*
G01*
X-25727500Y8669000D01*
G75*
G02*
X-25927500Y8869000I0J200000D01*
G01*
G37*
G36*
G01*
X-27577500Y8869000D02*
X-27577500Y9419000D01*
G75*
G02*
X-27377500Y9619000I200000J0D01*
G01*
X-26977500Y9619000D01*
G75*
G02*
X-26777500Y9419000I0J-200000D01*
G01*
X-26777500Y8869000D01*
G75*
G02*
X-26977500Y8669000I-200000J0D01*
G01*
X-27377500Y8669000D01*
G75*
G02*
X-27577500Y8869000I0J200000D01*
G01*
G37*
G04 #@! TD*
G04 #@! TO.C,R56*
G36*
G01*
X-9062000Y12340000D02*
X-9062000Y11790000D01*
G75*
G02*
X-9262000Y11590000I-200000J0D01*
G01*
X-9662000Y11590000D01*
G75*
G02*
X-9862000Y11790000I0J200000D01*
G01*
X-9862000Y12340000D01*
G75*
G02*
X-9662000Y12540000I200000J0D01*
G01*
X-9262000Y12540000D01*
G75*
G02*
X-9062000Y12340000I0J-200000D01*
G01*
G37*
G36*
G01*
X-10712000Y12340000D02*
X-10712000Y11790000D01*
G75*
G02*
X-10912000Y11590000I-200000J0D01*
G01*
X-11312000Y11590000D01*
G75*
G02*
X-11512000Y11790000I0J200000D01*
G01*
X-11512000Y12340000D01*
G75*
G02*
X-11312000Y12540000I200000J0D01*
G01*
X-10912000Y12540000D01*
G75*
G02*
X-10712000Y12340000I0J-200000D01*
G01*
G37*
G04 #@! TD*
G04 #@! TO.C,R49*
G36*
G01*
X-24151000Y7893500D02*
X-23601000Y7893500D01*
G75*
G02*
X-23401000Y7693500I0J-200000D01*
G01*
X-23401000Y7293500D01*
G75*
G02*
X-23601000Y7093500I-200000J0D01*
G01*
X-24151000Y7093500D01*
G75*
G02*
X-24351000Y7293500I0J200000D01*
G01*
X-24351000Y7693500D01*
G75*
G02*
X-24151000Y7893500I200000J0D01*
G01*
G37*
G36*
G01*
X-24151000Y9543500D02*
X-23601000Y9543500D01*
G75*
G02*
X-23401000Y9343500I0J-200000D01*
G01*
X-23401000Y8943500D01*
G75*
G02*
X-23601000Y8743500I-200000J0D01*
G01*
X-24151000Y8743500D01*
G75*
G02*
X-24351000Y8943500I0J200000D01*
G01*
X-24351000Y9343500D01*
G75*
G02*
X-24151000Y9543500I200000J0D01*
G01*
G37*
G04 #@! TD*
G04 #@! TO.C,R48*
G36*
G01*
X-14600600Y9975300D02*
X-14050600Y9975300D01*
G75*
G02*
X-13850600Y9775300I0J-200000D01*
G01*
X-13850600Y9375300D01*
G75*
G02*
X-14050600Y9175300I-200000J0D01*
G01*
X-14600600Y9175300D01*
G75*
G02*
X-14800600Y9375300I0J200000D01*
G01*
X-14800600Y9775300D01*
G75*
G02*
X-14600600Y9975300I200000J0D01*
G01*
G37*
G36*
G01*
X-14600600Y8325300D02*
X-14050600Y8325300D01*
G75*
G02*
X-13850600Y8125300I0J-200000D01*
G01*
X-13850600Y7725300D01*
G75*
G02*
X-14050600Y7525300I-200000J0D01*
G01*
X-14600600Y7525300D01*
G75*
G02*
X-14800600Y7725300I0J200000D01*
G01*
X-14800600Y8125300D01*
G75*
G02*
X-14600600Y8325300I200000J0D01*
G01*
G37*
G04 #@! TD*
G04 #@! TO.C,R46*
G36*
G01*
X-21230000Y11005000D02*
X-20680000Y11005000D01*
G75*
G02*
X-20480000Y10805000I0J-200000D01*
G01*
X-20480000Y10405000D01*
G75*
G02*
X-20680000Y10205000I-200000J0D01*
G01*
X-21230000Y10205000D01*
G75*
G02*
X-21430000Y10405000I0J200000D01*
G01*
X-21430000Y10805000D01*
G75*
G02*
X-21230000Y11005000I200000J0D01*
G01*
G37*
G36*
G01*
X-21230000Y12655000D02*
X-20680000Y12655000D01*
G75*
G02*
X-20480000Y12455000I0J-200000D01*
G01*
X-20480000Y12055000D01*
G75*
G02*
X-20680000Y11855000I-200000J0D01*
G01*
X-21230000Y11855000D01*
G75*
G02*
X-21430000Y12055000I0J200000D01*
G01*
X-21430000Y12455000D01*
G75*
G02*
X-21230000Y12655000I200000J0D01*
G01*
G37*
G04 #@! TD*
G04 #@! TO.C,R45*
G36*
G01*
X-16682000Y12594000D02*
X-16682000Y12044000D01*
G75*
G02*
X-16882000Y11844000I-200000J0D01*
G01*
X-17282000Y11844000D01*
G75*
G02*
X-17482000Y12044000I0J200000D01*
G01*
X-17482000Y12594000D01*
G75*
G02*
X-17282000Y12794000I200000J0D01*
G01*
X-16882000Y12794000D01*
G75*
G02*
X-16682000Y12594000I0J-200000D01*
G01*
G37*
G36*
G01*
X-18332000Y12594000D02*
X-18332000Y12044000D01*
G75*
G02*
X-18532000Y11844000I-200000J0D01*
G01*
X-18932000Y11844000D01*
G75*
G02*
X-19132000Y12044000I0J200000D01*
G01*
X-19132000Y12594000D01*
G75*
G02*
X-18932000Y12794000I200000J0D01*
G01*
X-18532000Y12794000D01*
G75*
G02*
X-18332000Y12594000I0J-200000D01*
G01*
G37*
G04 #@! TD*
G04 #@! TO.C,R43*
G36*
G01*
X-19132000Y10393000D02*
X-19132000Y10943000D01*
G75*
G02*
X-18932000Y11143000I200000J0D01*
G01*
X-18532000Y11143000D01*
G75*
G02*
X-18332000Y10943000I0J-200000D01*
G01*
X-18332000Y10393000D01*
G75*
G02*
X-18532000Y10193000I-200000J0D01*
G01*
X-18932000Y10193000D01*
G75*
G02*
X-19132000Y10393000I0J200000D01*
G01*
G37*
G36*
G01*
X-17482000Y10393000D02*
X-17482000Y10943000D01*
G75*
G02*
X-17282000Y11143000I200000J0D01*
G01*
X-16882000Y11143000D01*
G75*
G02*
X-16682000Y10943000I0J-200000D01*
G01*
X-16682000Y10393000D01*
G75*
G02*
X-16882000Y10193000I-200000J0D01*
G01*
X-17282000Y10193000D01*
G75*
G02*
X-17482000Y10393000I0J200000D01*
G01*
G37*
G04 #@! TD*
G04 #@! TO.C,R41*
G36*
G01*
X-10799400Y7855000D02*
X-11349400Y7855000D01*
G75*
G02*
X-11549400Y8055000I0J200000D01*
G01*
X-11549400Y8455000D01*
G75*
G02*
X-11349400Y8655000I200000J0D01*
G01*
X-10799400Y8655000D01*
G75*
G02*
X-10599400Y8455000I0J-200000D01*
G01*
X-10599400Y8055000D01*
G75*
G02*
X-10799400Y7855000I-200000J0D01*
G01*
G37*
G36*
G01*
X-10799400Y9505000D02*
X-11349400Y9505000D01*
G75*
G02*
X-11549400Y9705000I0J200000D01*
G01*
X-11549400Y10105000D01*
G75*
G02*
X-11349400Y10305000I200000J0D01*
G01*
X-10799400Y10305000D01*
G75*
G02*
X-10599400Y10105000I0J-200000D01*
G01*
X-10599400Y9705000D01*
G75*
G02*
X-10799400Y9505000I-200000J0D01*
G01*
G37*
G04 #@! TD*
G04 #@! TO.C,C17*
G36*
G01*
X-12950000Y9975300D02*
X-12450000Y9975300D01*
G75*
G02*
X-12225000Y9750300I0J-225000D01*
G01*
X-12225000Y9300300D01*
G75*
G02*
X-12450000Y9075300I-225000J0D01*
G01*
X-12950000Y9075300D01*
G75*
G02*
X-13175000Y9300300I0J225000D01*
G01*
X-13175000Y9750300D01*
G75*
G02*
X-12950000Y9975300I225000J0D01*
G01*
G37*
G36*
G01*
X-12950000Y8425300D02*
X-12450000Y8425300D01*
G75*
G02*
X-12225000Y8200300I0J-225000D01*
G01*
X-12225000Y7750300D01*
G75*
G02*
X-12450000Y7525300I-225000J0D01*
G01*
X-12950000Y7525300D01*
G75*
G02*
X-13175000Y7750300I0J225000D01*
G01*
X-13175000Y8200300D01*
G75*
G02*
X-12950000Y8425300I225000J0D01*
G01*
G37*
G04 #@! TD*
G04 #@! TO.C,C25*
G36*
G01*
X-12450000Y5786000D02*
X-12950000Y5786000D01*
G75*
G02*
X-13175000Y6011000I0J225000D01*
G01*
X-13175000Y6461000D01*
G75*
G02*
X-12950000Y6686000I225000J0D01*
G01*
X-12450000Y6686000D01*
G75*
G02*
X-12225000Y6461000I0J-225000D01*
G01*
X-12225000Y6011000D01*
G75*
G02*
X-12450000Y5786000I-225000J0D01*
G01*
G37*
G36*
G01*
X-12450000Y4236000D02*
X-12950000Y4236000D01*
G75*
G02*
X-13175000Y4461000I0J225000D01*
G01*
X-13175000Y4911000D01*
G75*
G02*
X-12950000Y5136000I225000J0D01*
G01*
X-12450000Y5136000D01*
G75*
G02*
X-12225000Y4911000I0J-225000D01*
G01*
X-12225000Y4461000D01*
G75*
G02*
X-12450000Y4236000I-225000J0D01*
G01*
G37*
G04 #@! TD*
G04 #@! TO.C,C24*
G36*
G01*
X-25650000Y64064000D02*
X-25150000Y64064000D01*
G75*
G02*
X-24925000Y63839000I0J-225000D01*
G01*
X-24925000Y63389000D01*
G75*
G02*
X-25150000Y63164000I-225000J0D01*
G01*
X-25650000Y63164000D01*
G75*
G02*
X-25875000Y63389000I0J225000D01*
G01*
X-25875000Y63839000D01*
G75*
G02*
X-25650000Y64064000I225000J0D01*
G01*
G37*
G36*
G01*
X-25650000Y65614000D02*
X-25150000Y65614000D01*
G75*
G02*
X-24925000Y65389000I0J-225000D01*
G01*
X-24925000Y64939000D01*
G75*
G02*
X-25150000Y64714000I-225000J0D01*
G01*
X-25650000Y64714000D01*
G75*
G02*
X-25875000Y64939000I0J225000D01*
G01*
X-25875000Y65389000D01*
G75*
G02*
X-25650000Y65614000I225000J0D01*
G01*
G37*
G04 #@! TD*
G04 #@! TO.C,U6*
G36*
G01*
X-21175000Y5126000D02*
X-21175000Y4926000D01*
G75*
G02*
X-21275000Y4826000I-100000J0D01*
G01*
X-22550000Y4826000D01*
G75*
G02*
X-22650000Y4926000I0J100000D01*
G01*
X-22650000Y5126000D01*
G75*
G02*
X-22550000Y5226000I100000J0D01*
G01*
X-21275000Y5226000D01*
G75*
G02*
X-21175000Y5126000I0J-100000D01*
G01*
G37*
G36*
G01*
X-21175000Y5776000D02*
X-21175000Y5576000D01*
G75*
G02*
X-21275000Y5476000I-100000J0D01*
G01*
X-22550000Y5476000D01*
G75*
G02*
X-22650000Y5576000I0J100000D01*
G01*
X-22650000Y5776000D01*
G75*
G02*
X-22550000Y5876000I100000J0D01*
G01*
X-21275000Y5876000D01*
G75*
G02*
X-21175000Y5776000I0J-100000D01*
G01*
G37*
G36*
G01*
X-21175000Y6426000D02*
X-21175000Y6226000D01*
G75*
G02*
X-21275000Y6126000I-100000J0D01*
G01*
X-22550000Y6126000D01*
G75*
G02*
X-22650000Y6226000I0J100000D01*
G01*
X-22650000Y6426000D01*
G75*
G02*
X-22550000Y6526000I100000J0D01*
G01*
X-21275000Y6526000D01*
G75*
G02*
X-21175000Y6426000I0J-100000D01*
G01*
G37*
G36*
G01*
X-21175000Y7076000D02*
X-21175000Y6876000D01*
G75*
G02*
X-21275000Y6776000I-100000J0D01*
G01*
X-22550000Y6776000D01*
G75*
G02*
X-22650000Y6876000I0J100000D01*
G01*
X-22650000Y7076000D01*
G75*
G02*
X-22550000Y7176000I100000J0D01*
G01*
X-21275000Y7176000D01*
G75*
G02*
X-21175000Y7076000I0J-100000D01*
G01*
G37*
G36*
G01*
X-21175000Y7726000D02*
X-21175000Y7526000D01*
G75*
G02*
X-21275000Y7426000I-100000J0D01*
G01*
X-22550000Y7426000D01*
G75*
G02*
X-22650000Y7526000I0J100000D01*
G01*
X-22650000Y7726000D01*
G75*
G02*
X-22550000Y7826000I100000J0D01*
G01*
X-21275000Y7826000D01*
G75*
G02*
X-21175000Y7726000I0J-100000D01*
G01*
G37*
G36*
G01*
X-21175000Y8376000D02*
X-21175000Y8176000D01*
G75*
G02*
X-21275000Y8076000I-100000J0D01*
G01*
X-22550000Y8076000D01*
G75*
G02*
X-22650000Y8176000I0J100000D01*
G01*
X-22650000Y8376000D01*
G75*
G02*
X-22550000Y8476000I100000J0D01*
G01*
X-21275000Y8476000D01*
G75*
G02*
X-21175000Y8376000I0J-100000D01*
G01*
G37*
G36*
G01*
X-21175000Y9026000D02*
X-21175000Y8826000D01*
G75*
G02*
X-21275000Y8726000I-100000J0D01*
G01*
X-22550000Y8726000D01*
G75*
G02*
X-22650000Y8826000I0J100000D01*
G01*
X-22650000Y9026000D01*
G75*
G02*
X-22550000Y9126000I100000J0D01*
G01*
X-21275000Y9126000D01*
G75*
G02*
X-21175000Y9026000I0J-100000D01*
G01*
G37*
G36*
G01*
X-15450000Y9026000D02*
X-15450000Y8826000D01*
G75*
G02*
X-15550000Y8726000I-100000J0D01*
G01*
X-16825000Y8726000D01*
G75*
G02*
X-16925000Y8826000I0J100000D01*
G01*
X-16925000Y9026000D01*
G75*
G02*
X-16825000Y9126000I100000J0D01*
G01*
X-15550000Y9126000D01*
G75*
G02*
X-15450000Y9026000I0J-100000D01*
G01*
G37*
G36*
G01*
X-15450000Y8376000D02*
X-15450000Y8176000D01*
G75*
G02*
X-15550000Y8076000I-100000J0D01*
G01*
X-16825000Y8076000D01*
G75*
G02*
X-16925000Y8176000I0J100000D01*
G01*
X-16925000Y8376000D01*
G75*
G02*
X-16825000Y8476000I100000J0D01*
G01*
X-15550000Y8476000D01*
G75*
G02*
X-15450000Y8376000I0J-100000D01*
G01*
G37*
G36*
G01*
X-15450000Y7726000D02*
X-15450000Y7526000D01*
G75*
G02*
X-15550000Y7426000I-100000J0D01*
G01*
X-16825000Y7426000D01*
G75*
G02*
X-16925000Y7526000I0J100000D01*
G01*
X-16925000Y7726000D01*
G75*
G02*
X-16825000Y7826000I100000J0D01*
G01*
X-15550000Y7826000D01*
G75*
G02*
X-15450000Y7726000I0J-100000D01*
G01*
G37*
G36*
G01*
X-15450000Y7076000D02*
X-15450000Y6876000D01*
G75*
G02*
X-15550000Y6776000I-100000J0D01*
G01*
X-16825000Y6776000D01*
G75*
G02*
X-16925000Y6876000I0J100000D01*
G01*
X-16925000Y7076000D01*
G75*
G02*
X-16825000Y7176000I100000J0D01*
G01*
X-15550000Y7176000D01*
G75*
G02*
X-15450000Y7076000I0J-100000D01*
G01*
G37*
G36*
G01*
X-15450000Y6426000D02*
X-15450000Y6226000D01*
G75*
G02*
X-15550000Y6126000I-100000J0D01*
G01*
X-16825000Y6126000D01*
G75*
G02*
X-16925000Y6226000I0J100000D01*
G01*
X-16925000Y6426000D01*
G75*
G02*
X-16825000Y6526000I100000J0D01*
G01*
X-15550000Y6526000D01*
G75*
G02*
X-15450000Y6426000I0J-100000D01*
G01*
G37*
G36*
G01*
X-15450000Y5776000D02*
X-15450000Y5576000D01*
G75*
G02*
X-15550000Y5476000I-100000J0D01*
G01*
X-16825000Y5476000D01*
G75*
G02*
X-16925000Y5576000I0J100000D01*
G01*
X-16925000Y5776000D01*
G75*
G02*
X-16825000Y5876000I100000J0D01*
G01*
X-15550000Y5876000D01*
G75*
G02*
X-15450000Y5776000I0J-100000D01*
G01*
G37*
G36*
G01*
X-15450000Y5126000D02*
X-15450000Y4926000D01*
G75*
G02*
X-15550000Y4826000I-100000J0D01*
G01*
X-16825000Y4826000D01*
G75*
G02*
X-16925000Y4926000I0J100000D01*
G01*
X-16925000Y5126000D01*
G75*
G02*
X-16825000Y5226000I100000J0D01*
G01*
X-15550000Y5226000D01*
G75*
G02*
X-15450000Y5126000I0J-100000D01*
G01*
G37*
G04 #@! TD*
G04 #@! TO.C,U5*
G36*
G01*
X-7009000Y30203000D02*
X-7009000Y30503000D01*
G75*
G02*
X-6859000Y30653000I150000J0D01*
G01*
X-5209000Y30653000D01*
G75*
G02*
X-5059000Y30503000I0J-150000D01*
G01*
X-5059000Y30203000D01*
G75*
G02*
X-5209000Y30053000I-150000J0D01*
G01*
X-6859000Y30053000D01*
G75*
G02*
X-7009000Y30203000I0J150000D01*
G01*
G37*
G36*
G01*
X-7009000Y28933000D02*
X-7009000Y29233000D01*
G75*
G02*
X-6859000Y29383000I150000J0D01*
G01*
X-5209000Y29383000D01*
G75*
G02*
X-5059000Y29233000I0J-150000D01*
G01*
X-5059000Y28933000D01*
G75*
G02*
X-5209000Y28783000I-150000J0D01*
G01*
X-6859000Y28783000D01*
G75*
G02*
X-7009000Y28933000I0J150000D01*
G01*
G37*
G36*
G01*
X-7009000Y27663000D02*
X-7009000Y27963000D01*
G75*
G02*
X-6859000Y28113000I150000J0D01*
G01*
X-5209000Y28113000D01*
G75*
G02*
X-5059000Y27963000I0J-150000D01*
G01*
X-5059000Y27663000D01*
G75*
G02*
X-5209000Y27513000I-150000J0D01*
G01*
X-6859000Y27513000D01*
G75*
G02*
X-7009000Y27663000I0J150000D01*
G01*
G37*
G36*
G01*
X-7009000Y26393000D02*
X-7009000Y26693000D01*
G75*
G02*
X-6859000Y26843000I150000J0D01*
G01*
X-5209000Y26843000D01*
G75*
G02*
X-5059000Y26693000I0J-150000D01*
G01*
X-5059000Y26393000D01*
G75*
G02*
X-5209000Y26243000I-150000J0D01*
G01*
X-6859000Y26243000D01*
G75*
G02*
X-7009000Y26393000I0J150000D01*
G01*
G37*
G36*
G01*
X-11959000Y26393000D02*
X-11959000Y26693000D01*
G75*
G02*
X-11809000Y26843000I150000J0D01*
G01*
X-10159000Y26843000D01*
G75*
G02*
X-10009000Y26693000I0J-150000D01*
G01*
X-10009000Y26393000D01*
G75*
G02*
X-10159000Y26243000I-150000J0D01*
G01*
X-11809000Y26243000D01*
G75*
G02*
X-11959000Y26393000I0J150000D01*
G01*
G37*
G36*
G01*
X-11959000Y27663000D02*
X-11959000Y27963000D01*
G75*
G02*
X-11809000Y28113000I150000J0D01*
G01*
X-10159000Y28113000D01*
G75*
G02*
X-10009000Y27963000I0J-150000D01*
G01*
X-10009000Y27663000D01*
G75*
G02*
X-10159000Y27513000I-150000J0D01*
G01*
X-11809000Y27513000D01*
G75*
G02*
X-11959000Y27663000I0J150000D01*
G01*
G37*
G36*
G01*
X-11959000Y28933000D02*
X-11959000Y29233000D01*
G75*
G02*
X-11809000Y29383000I150000J0D01*
G01*
X-10159000Y29383000D01*
G75*
G02*
X-10009000Y29233000I0J-150000D01*
G01*
X-10009000Y28933000D01*
G75*
G02*
X-10159000Y28783000I-150000J0D01*
G01*
X-11809000Y28783000D01*
G75*
G02*
X-11959000Y28933000I0J150000D01*
G01*
G37*
G36*
G01*
X-11959000Y30203000D02*
X-11959000Y30503000D01*
G75*
G02*
X-11809000Y30653000I150000J0D01*
G01*
X-10159000Y30653000D01*
G75*
G02*
X-10009000Y30503000I0J-150000D01*
G01*
X-10009000Y30203000D01*
G75*
G02*
X-10159000Y30053000I-150000J0D01*
G01*
X-11809000Y30053000D01*
G75*
G02*
X-11959000Y30203000I0J150000D01*
G01*
G37*
G04 #@! TD*
G04 #@! TO.C,C22*
G36*
G01*
X-12997000Y26823000D02*
X-12657000Y26823000D01*
G75*
G02*
X-12517000Y26683000I0J-140000D01*
G01*
X-12517000Y26403000D01*
G75*
G02*
X-12657000Y26263000I-140000J0D01*
G01*
X-12997000Y26263000D01*
G75*
G02*
X-13137000Y26403000I0J140000D01*
G01*
X-13137000Y26683000D01*
G75*
G02*
X-12997000Y26823000I140000J0D01*
G01*
G37*
G36*
G01*
X-12997000Y27783000D02*
X-12657000Y27783000D01*
G75*
G02*
X-12517000Y27643000I0J-140000D01*
G01*
X-12517000Y27363000D01*
G75*
G02*
X-12657000Y27223000I-140000J0D01*
G01*
X-12997000Y27223000D01*
G75*
G02*
X-13137000Y27363000I0J140000D01*
G01*
X-13137000Y27643000D01*
G75*
G02*
X-12997000Y27783000I140000J0D01*
G01*
G37*
G04 #@! TD*
G04 #@! TO.C,C21*
G36*
G01*
X-4361000Y29673000D02*
X-4021000Y29673000D01*
G75*
G02*
X-3881000Y29533000I0J-140000D01*
G01*
X-3881000Y29253000D01*
G75*
G02*
X-4021000Y29113000I-140000J0D01*
G01*
X-4361000Y29113000D01*
G75*
G02*
X-4501000Y29253000I0J140000D01*
G01*
X-4501000Y29533000D01*
G75*
G02*
X-4361000Y29673000I140000J0D01*
G01*
G37*
G36*
G01*
X-4361000Y30633000D02*
X-4021000Y30633000D01*
G75*
G02*
X-3881000Y30493000I0J-140000D01*
G01*
X-3881000Y30213000D01*
G75*
G02*
X-4021000Y30073000I-140000J0D01*
G01*
X-4361000Y30073000D01*
G75*
G02*
X-4501000Y30213000I0J140000D01*
G01*
X-4501000Y30493000D01*
G75*
G02*
X-4361000Y30633000I140000J0D01*
G01*
G37*
G04 #@! TD*
G04 #@! TO.C,R55*
G36*
G01*
X-33484000Y64652000D02*
X-33484000Y65202000D01*
G75*
G02*
X-33284000Y65402000I200000J0D01*
G01*
X-32884000Y65402000D01*
G75*
G02*
X-32684000Y65202000I0J-200000D01*
G01*
X-32684000Y64652000D01*
G75*
G02*
X-32884000Y64452000I-200000J0D01*
G01*
X-33284000Y64452000D01*
G75*
G02*
X-33484000Y64652000I0J200000D01*
G01*
G37*
G36*
G01*
X-35134000Y64652000D02*
X-35134000Y65202000D01*
G75*
G02*
X-34934000Y65402000I200000J0D01*
G01*
X-34534000Y65402000D01*
G75*
G02*
X-34334000Y65202000I0J-200000D01*
G01*
X-34334000Y64652000D01*
G75*
G02*
X-34534000Y64452000I-200000J0D01*
G01*
X-34934000Y64452000D01*
G75*
G02*
X-35134000Y64652000I0J200000D01*
G01*
G37*
G04 #@! TD*
G04 #@! TO.C,R38*
G36*
G01*
X-20022000Y2900000D02*
X-20022000Y3450000D01*
G75*
G02*
X-19822000Y3650000I200000J0D01*
G01*
X-19422000Y3650000D01*
G75*
G02*
X-19222000Y3450000I0J-200000D01*
G01*
X-19222000Y2900000D01*
G75*
G02*
X-19422000Y2700000I-200000J0D01*
G01*
X-19822000Y2700000D01*
G75*
G02*
X-20022000Y2900000I0J200000D01*
G01*
G37*
G36*
G01*
X-21672000Y2900000D02*
X-21672000Y3450000D01*
G75*
G02*
X-21472000Y3650000I200000J0D01*
G01*
X-21072000Y3650000D01*
G75*
G02*
X-20872000Y3450000I0J-200000D01*
G01*
X-20872000Y2900000D01*
G75*
G02*
X-21072000Y2700000I-200000J0D01*
G01*
X-21472000Y2700000D01*
G75*
G02*
X-21672000Y2900000I0J200000D01*
G01*
G37*
G04 #@! TD*
G04 #@! TO.C,R16*
G36*
G01*
X-21865000Y66534000D02*
X-21315000Y66534000D01*
G75*
G02*
X-21115000Y66334000I0J-200000D01*
G01*
X-21115000Y65934000D01*
G75*
G02*
X-21315000Y65734000I-200000J0D01*
G01*
X-21865000Y65734000D01*
G75*
G02*
X-22065000Y65934000I0J200000D01*
G01*
X-22065000Y66334000D01*
G75*
G02*
X-21865000Y66534000I200000J0D01*
G01*
G37*
G36*
G01*
X-21865000Y68184000D02*
X-21315000Y68184000D01*
G75*
G02*
X-21115000Y67984000I0J-200000D01*
G01*
X-21115000Y67584000D01*
G75*
G02*
X-21315000Y67384000I-200000J0D01*
G01*
X-21865000Y67384000D01*
G75*
G02*
X-22065000Y67584000I0J200000D01*
G01*
X-22065000Y67984000D01*
G75*
G02*
X-21865000Y68184000I200000J0D01*
G01*
G37*
G04 #@! TD*
G04 #@! TO.C,C20*
G36*
G01*
X-12997000Y82733000D02*
X-12657000Y82733000D01*
G75*
G02*
X-12517000Y82593000I0J-140000D01*
G01*
X-12517000Y82313000D01*
G75*
G02*
X-12657000Y82173000I-140000J0D01*
G01*
X-12997000Y82173000D01*
G75*
G02*
X-13137000Y82313000I0J140000D01*
G01*
X-13137000Y82593000D01*
G75*
G02*
X-12997000Y82733000I140000J0D01*
G01*
G37*
G36*
G01*
X-12997000Y83693000D02*
X-12657000Y83693000D01*
G75*
G02*
X-12517000Y83553000I0J-140000D01*
G01*
X-12517000Y83273000D01*
G75*
G02*
X-12657000Y83133000I-140000J0D01*
G01*
X-12997000Y83133000D01*
G75*
G02*
X-13137000Y83273000I0J140000D01*
G01*
X-13137000Y83553000D01*
G75*
G02*
X-12997000Y83693000I140000J0D01*
G01*
G37*
G04 #@! TD*
G04 #@! TO.C,C19*
G36*
G01*
X-4361000Y85583000D02*
X-4021000Y85583000D01*
G75*
G02*
X-3881000Y85443000I0J-140000D01*
G01*
X-3881000Y85163000D01*
G75*
G02*
X-4021000Y85023000I-140000J0D01*
G01*
X-4361000Y85023000D01*
G75*
G02*
X-4501000Y85163000I0J140000D01*
G01*
X-4501000Y85443000D01*
G75*
G02*
X-4361000Y85583000I140000J0D01*
G01*
G37*
G36*
G01*
X-4361000Y86543000D02*
X-4021000Y86543000D01*
G75*
G02*
X-3881000Y86403000I0J-140000D01*
G01*
X-3881000Y86123000D01*
G75*
G02*
X-4021000Y85983000I-140000J0D01*
G01*
X-4361000Y85983000D01*
G75*
G02*
X-4501000Y86123000I0J140000D01*
G01*
X-4501000Y86403000D01*
G75*
G02*
X-4361000Y86543000I140000J0D01*
G01*
G37*
G04 #@! TD*
G04 #@! TO.C,U1*
G36*
G01*
X-7009000Y86113000D02*
X-7009000Y86413000D01*
G75*
G02*
X-6859000Y86563000I150000J0D01*
G01*
X-5209000Y86563000D01*
G75*
G02*
X-5059000Y86413000I0J-150000D01*
G01*
X-5059000Y86113000D01*
G75*
G02*
X-5209000Y85963000I-150000J0D01*
G01*
X-6859000Y85963000D01*
G75*
G02*
X-7009000Y86113000I0J150000D01*
G01*
G37*
G36*
G01*
X-7009000Y84843000D02*
X-7009000Y85143000D01*
G75*
G02*
X-6859000Y85293000I150000J0D01*
G01*
X-5209000Y85293000D01*
G75*
G02*
X-5059000Y85143000I0J-150000D01*
G01*
X-5059000Y84843000D01*
G75*
G02*
X-5209000Y84693000I-150000J0D01*
G01*
X-6859000Y84693000D01*
G75*
G02*
X-7009000Y84843000I0J150000D01*
G01*
G37*
G36*
G01*
X-7009000Y83573000D02*
X-7009000Y83873000D01*
G75*
G02*
X-6859000Y84023000I150000J0D01*
G01*
X-5209000Y84023000D01*
G75*
G02*
X-5059000Y83873000I0J-150000D01*
G01*
X-5059000Y83573000D01*
G75*
G02*
X-5209000Y83423000I-150000J0D01*
G01*
X-6859000Y83423000D01*
G75*
G02*
X-7009000Y83573000I0J150000D01*
G01*
G37*
G36*
G01*
X-7009000Y82303000D02*
X-7009000Y82603000D01*
G75*
G02*
X-6859000Y82753000I150000J0D01*
G01*
X-5209000Y82753000D01*
G75*
G02*
X-5059000Y82603000I0J-150000D01*
G01*
X-5059000Y82303000D01*
G75*
G02*
X-5209000Y82153000I-150000J0D01*
G01*
X-6859000Y82153000D01*
G75*
G02*
X-7009000Y82303000I0J150000D01*
G01*
G37*
G36*
G01*
X-11959000Y82303000D02*
X-11959000Y82603000D01*
G75*
G02*
X-11809000Y82753000I150000J0D01*
G01*
X-10159000Y82753000D01*
G75*
G02*
X-10009000Y82603000I0J-150000D01*
G01*
X-10009000Y82303000D01*
G75*
G02*
X-10159000Y82153000I-150000J0D01*
G01*
X-11809000Y82153000D01*
G75*
G02*
X-11959000Y82303000I0J150000D01*
G01*
G37*
G36*
G01*
X-11959000Y83573000D02*
X-11959000Y83873000D01*
G75*
G02*
X-11809000Y84023000I150000J0D01*
G01*
X-10159000Y84023000D01*
G75*
G02*
X-10009000Y83873000I0J-150000D01*
G01*
X-10009000Y83573000D01*
G75*
G02*
X-10159000Y83423000I-150000J0D01*
G01*
X-11809000Y83423000D01*
G75*
G02*
X-11959000Y83573000I0J150000D01*
G01*
G37*
G36*
G01*
X-11959000Y84843000D02*
X-11959000Y85143000D01*
G75*
G02*
X-11809000Y85293000I150000J0D01*
G01*
X-10159000Y85293000D01*
G75*
G02*
X-10009000Y85143000I0J-150000D01*
G01*
X-10009000Y84843000D01*
G75*
G02*
X-10159000Y84693000I-150000J0D01*
G01*
X-11809000Y84693000D01*
G75*
G02*
X-11959000Y84843000I0J150000D01*
G01*
G37*
G36*
G01*
X-11959000Y86113000D02*
X-11959000Y86413000D01*
G75*
G02*
X-11809000Y86563000I150000J0D01*
G01*
X-10159000Y86563000D01*
G75*
G02*
X-10009000Y86413000I0J-150000D01*
G01*
X-10009000Y86113000D01*
G75*
G02*
X-10159000Y85963000I-150000J0D01*
G01*
X-11809000Y85963000D01*
G75*
G02*
X-11959000Y86113000I0J150000D01*
G01*
G37*
G04 #@! TD*
G04 #@! TO.C,R31*
G36*
G01*
X-25825000Y72441000D02*
X-25825000Y71891000D01*
G75*
G02*
X-26025000Y71691000I-200000J0D01*
G01*
X-26425000Y71691000D01*
G75*
G02*
X-26625000Y71891000I0J200000D01*
G01*
X-26625000Y72441000D01*
G75*
G02*
X-26425000Y72641000I200000J0D01*
G01*
X-26025000Y72641000D01*
G75*
G02*
X-25825000Y72441000I0J-200000D01*
G01*
G37*
G36*
G01*
X-24175000Y72441000D02*
X-24175000Y71891000D01*
G75*
G02*
X-24375000Y71691000I-200000J0D01*
G01*
X-24775000Y71691000D01*
G75*
G02*
X-24975000Y71891000I0J200000D01*
G01*
X-24975000Y72441000D01*
G75*
G02*
X-24775000Y72641000I200000J0D01*
G01*
X-24375000Y72641000D01*
G75*
G02*
X-24175000Y72441000I0J-200000D01*
G01*
G37*
G04 #@! TD*
G04 #@! TO.C,C10*
G36*
G01*
X-23642500Y6006500D02*
X-23982500Y6006500D01*
G75*
G02*
X-24122500Y6146500I0J140000D01*
G01*
X-24122500Y6426500D01*
G75*
G02*
X-23982500Y6566500I140000J0D01*
G01*
X-23642500Y6566500D01*
G75*
G02*
X-23502500Y6426500I0J-140000D01*
G01*
X-23502500Y6146500D01*
G75*
G02*
X-23642500Y6006500I-140000J0D01*
G01*
G37*
G36*
G01*
X-23642500Y5046500D02*
X-23982500Y5046500D01*
G75*
G02*
X-24122500Y5186500I0J140000D01*
G01*
X-24122500Y5466500D01*
G75*
G02*
X-23982500Y5606500I140000J0D01*
G01*
X-23642500Y5606500D01*
G75*
G02*
X-23502500Y5466500I0J-140000D01*
G01*
X-23502500Y5186500D01*
G75*
G02*
X-23642500Y5046500I-140000J0D01*
G01*
G37*
G04 #@! TD*
G04 #@! TO.C,C9*
G36*
G01*
X-15918000Y16846000D02*
X-15578000Y16846000D01*
G75*
G02*
X-15438000Y16706000I0J-140000D01*
G01*
X-15438000Y16426000D01*
G75*
G02*
X-15578000Y16286000I-140000J0D01*
G01*
X-15918000Y16286000D01*
G75*
G02*
X-16058000Y16426000I0J140000D01*
G01*
X-16058000Y16706000D01*
G75*
G02*
X-15918000Y16846000I140000J0D01*
G01*
G37*
G36*
G01*
X-15918000Y17806000D02*
X-15578000Y17806000D01*
G75*
G02*
X-15438000Y17666000I0J-140000D01*
G01*
X-15438000Y17386000D01*
G75*
G02*
X-15578000Y17246000I-140000J0D01*
G01*
X-15918000Y17246000D01*
G75*
G02*
X-16058000Y17386000I0J140000D01*
G01*
X-16058000Y17666000D01*
G75*
G02*
X-15918000Y17806000I140000J0D01*
G01*
G37*
G04 #@! TD*
G04 #@! TO.C,C8*
G36*
G01*
X-24554000Y17806000D02*
X-24214000Y17806000D01*
G75*
G02*
X-24074000Y17666000I0J-140000D01*
G01*
X-24074000Y17386000D01*
G75*
G02*
X-24214000Y17246000I-140000J0D01*
G01*
X-24554000Y17246000D01*
G75*
G02*
X-24694000Y17386000I0J140000D01*
G01*
X-24694000Y17666000D01*
G75*
G02*
X-24554000Y17806000I140000J0D01*
G01*
G37*
G36*
G01*
X-24554000Y18766000D02*
X-24214000Y18766000D01*
G75*
G02*
X-24074000Y18626000I0J-140000D01*
G01*
X-24074000Y18346000D01*
G75*
G02*
X-24214000Y18206000I-140000J0D01*
G01*
X-24554000Y18206000D01*
G75*
G02*
X-24694000Y18346000I0J140000D01*
G01*
X-24694000Y18626000D01*
G75*
G02*
X-24554000Y18766000I140000J0D01*
G01*
G37*
G04 #@! TD*
G04 #@! TO.C,C7*
G36*
G01*
X-11473000Y6305000D02*
X-11133000Y6305000D01*
G75*
G02*
X-10993000Y6165000I0J-140000D01*
G01*
X-10993000Y5885000D01*
G75*
G02*
X-11133000Y5745000I-140000J0D01*
G01*
X-11473000Y5745000D01*
G75*
G02*
X-11613000Y5885000I0J140000D01*
G01*
X-11613000Y6165000D01*
G75*
G02*
X-11473000Y6305000I140000J0D01*
G01*
G37*
G36*
G01*
X-11473000Y7265000D02*
X-11133000Y7265000D01*
G75*
G02*
X-10993000Y7125000I0J-140000D01*
G01*
X-10993000Y6845000D01*
G75*
G02*
X-11133000Y6705000I-140000J0D01*
G01*
X-11473000Y6705000D01*
G75*
G02*
X-11613000Y6845000I0J140000D01*
G01*
X-11613000Y7125000D01*
G75*
G02*
X-11473000Y7265000I140000J0D01*
G01*
G37*
G04 #@! TD*
G04 #@! TO.C,C6*
G36*
G01*
X-24554000Y73744000D02*
X-24214000Y73744000D01*
G75*
G02*
X-24074000Y73604000I0J-140000D01*
G01*
X-24074000Y73324000D01*
G75*
G02*
X-24214000Y73184000I-140000J0D01*
G01*
X-24554000Y73184000D01*
G75*
G02*
X-24694000Y73324000I0J140000D01*
G01*
X-24694000Y73604000D01*
G75*
G02*
X-24554000Y73744000I140000J0D01*
G01*
G37*
G36*
G01*
X-24554000Y74704000D02*
X-24214000Y74704000D01*
G75*
G02*
X-24074000Y74564000I0J-140000D01*
G01*
X-24074000Y74284000D01*
G75*
G02*
X-24214000Y74144000I-140000J0D01*
G01*
X-24554000Y74144000D01*
G75*
G02*
X-24694000Y74284000I0J140000D01*
G01*
X-24694000Y74564000D01*
G75*
G02*
X-24554000Y74704000I140000J0D01*
G01*
G37*
G04 #@! TD*
G04 #@! TO.C,C5*
G36*
G01*
X-15918000Y72571000D02*
X-15578000Y72571000D01*
G75*
G02*
X-15438000Y72431000I0J-140000D01*
G01*
X-15438000Y72151000D01*
G75*
G02*
X-15578000Y72011000I-140000J0D01*
G01*
X-15918000Y72011000D01*
G75*
G02*
X-16058000Y72151000I0J140000D01*
G01*
X-16058000Y72431000D01*
G75*
G02*
X-15918000Y72571000I140000J0D01*
G01*
G37*
G36*
G01*
X-15918000Y73531000D02*
X-15578000Y73531000D01*
G75*
G02*
X-15438000Y73391000I0J-140000D01*
G01*
X-15438000Y73111000D01*
G75*
G02*
X-15578000Y72971000I-140000J0D01*
G01*
X-15918000Y72971000D01*
G75*
G02*
X-16058000Y73111000I0J140000D01*
G01*
X-16058000Y73391000D01*
G75*
G02*
X-15918000Y73531000I140000J0D01*
G01*
G37*
G04 #@! TD*
G04 #@! TO.C,C4*
G36*
G01*
X-23325000Y61980000D02*
X-23665000Y61980000D01*
G75*
G02*
X-23805000Y62120000I0J140000D01*
G01*
X-23805000Y62400000D01*
G75*
G02*
X-23665000Y62540000I140000J0D01*
G01*
X-23325000Y62540000D01*
G75*
G02*
X-23185000Y62400000I0J-140000D01*
G01*
X-23185000Y62120000D01*
G75*
G02*
X-23325000Y61980000I-140000J0D01*
G01*
G37*
G36*
G01*
X-23325000Y61020000D02*
X-23665000Y61020000D01*
G75*
G02*
X-23805000Y61160000I0J140000D01*
G01*
X-23805000Y61440000D01*
G75*
G02*
X-23665000Y61580000I140000J0D01*
G01*
X-23325000Y61580000D01*
G75*
G02*
X-23185000Y61440000I0J-140000D01*
G01*
X-23185000Y61160000D01*
G75*
G02*
X-23325000Y61020000I-140000J0D01*
G01*
G37*
G04 #@! TD*
G04 #@! TO.C,C3*
G36*
G01*
X-13886000Y61613500D02*
X-13546000Y61613500D01*
G75*
G02*
X-13406000Y61473500I0J-140000D01*
G01*
X-13406000Y61193500D01*
G75*
G02*
X-13546000Y61053500I-140000J0D01*
G01*
X-13886000Y61053500D01*
G75*
G02*
X-14026000Y61193500I0J140000D01*
G01*
X-14026000Y61473500D01*
G75*
G02*
X-13886000Y61613500I140000J0D01*
G01*
G37*
G36*
G01*
X-13886000Y62573500D02*
X-13546000Y62573500D01*
G75*
G02*
X-13406000Y62433500I0J-140000D01*
G01*
X-13406000Y62153500D01*
G75*
G02*
X-13546000Y62013500I-140000J0D01*
G01*
X-13886000Y62013500D01*
G75*
G02*
X-14026000Y62153500I0J140000D01*
G01*
X-14026000Y62433500D01*
G75*
G02*
X-13886000Y62573500I140000J0D01*
G01*
G37*
G04 #@! TD*
G04 #@! TO.C,U3*
G36*
G01*
X-21175000Y60664000D02*
X-21175000Y60464000D01*
G75*
G02*
X-21275000Y60364000I-100000J0D01*
G01*
X-22550000Y60364000D01*
G75*
G02*
X-22650000Y60464000I0J100000D01*
G01*
X-22650000Y60664000D01*
G75*
G02*
X-22550000Y60764000I100000J0D01*
G01*
X-21275000Y60764000D01*
G75*
G02*
X-21175000Y60664000I0J-100000D01*
G01*
G37*
G36*
G01*
X-21175000Y61314000D02*
X-21175000Y61114000D01*
G75*
G02*
X-21275000Y61014000I-100000J0D01*
G01*
X-22550000Y61014000D01*
G75*
G02*
X-22650000Y61114000I0J100000D01*
G01*
X-22650000Y61314000D01*
G75*
G02*
X-22550000Y61414000I100000J0D01*
G01*
X-21275000Y61414000D01*
G75*
G02*
X-21175000Y61314000I0J-100000D01*
G01*
G37*
G36*
G01*
X-21175000Y61964000D02*
X-21175000Y61764000D01*
G75*
G02*
X-21275000Y61664000I-100000J0D01*
G01*
X-22550000Y61664000D01*
G75*
G02*
X-22650000Y61764000I0J100000D01*
G01*
X-22650000Y61964000D01*
G75*
G02*
X-22550000Y62064000I100000J0D01*
G01*
X-21275000Y62064000D01*
G75*
G02*
X-21175000Y61964000I0J-100000D01*
G01*
G37*
G36*
G01*
X-21175000Y62614000D02*
X-21175000Y62414000D01*
G75*
G02*
X-21275000Y62314000I-100000J0D01*
G01*
X-22550000Y62314000D01*
G75*
G02*
X-22650000Y62414000I0J100000D01*
G01*
X-22650000Y62614000D01*
G75*
G02*
X-22550000Y62714000I100000J0D01*
G01*
X-21275000Y62714000D01*
G75*
G02*
X-21175000Y62614000I0J-100000D01*
G01*
G37*
G36*
G01*
X-21175000Y63264000D02*
X-21175000Y63064000D01*
G75*
G02*
X-21275000Y62964000I-100000J0D01*
G01*
X-22550000Y62964000D01*
G75*
G02*
X-22650000Y63064000I0J100000D01*
G01*
X-22650000Y63264000D01*
G75*
G02*
X-22550000Y63364000I100000J0D01*
G01*
X-21275000Y63364000D01*
G75*
G02*
X-21175000Y63264000I0J-100000D01*
G01*
G37*
G36*
G01*
X-21175000Y63914000D02*
X-21175000Y63714000D01*
G75*
G02*
X-21275000Y63614000I-100000J0D01*
G01*
X-22550000Y63614000D01*
G75*
G02*
X-22650000Y63714000I0J100000D01*
G01*
X-22650000Y63914000D01*
G75*
G02*
X-22550000Y64014000I100000J0D01*
G01*
X-21275000Y64014000D01*
G75*
G02*
X-21175000Y63914000I0J-100000D01*
G01*
G37*
G36*
G01*
X-21175000Y64564000D02*
X-21175000Y64364000D01*
G75*
G02*
X-21275000Y64264000I-100000J0D01*
G01*
X-22550000Y64264000D01*
G75*
G02*
X-22650000Y64364000I0J100000D01*
G01*
X-22650000Y64564000D01*
G75*
G02*
X-22550000Y64664000I100000J0D01*
G01*
X-21275000Y64664000D01*
G75*
G02*
X-21175000Y64564000I0J-100000D01*
G01*
G37*
G36*
G01*
X-15450000Y64564000D02*
X-15450000Y64364000D01*
G75*
G02*
X-15550000Y64264000I-100000J0D01*
G01*
X-16825000Y64264000D01*
G75*
G02*
X-16925000Y64364000I0J100000D01*
G01*
X-16925000Y64564000D01*
G75*
G02*
X-16825000Y64664000I100000J0D01*
G01*
X-15550000Y64664000D01*
G75*
G02*
X-15450000Y64564000I0J-100000D01*
G01*
G37*
G36*
G01*
X-15450000Y63914000D02*
X-15450000Y63714000D01*
G75*
G02*
X-15550000Y63614000I-100000J0D01*
G01*
X-16825000Y63614000D01*
G75*
G02*
X-16925000Y63714000I0J100000D01*
G01*
X-16925000Y63914000D01*
G75*
G02*
X-16825000Y64014000I100000J0D01*
G01*
X-15550000Y64014000D01*
G75*
G02*
X-15450000Y63914000I0J-100000D01*
G01*
G37*
G36*
G01*
X-15450000Y63264000D02*
X-15450000Y63064000D01*
G75*
G02*
X-15550000Y62964000I-100000J0D01*
G01*
X-16825000Y62964000D01*
G75*
G02*
X-16925000Y63064000I0J100000D01*
G01*
X-16925000Y63264000D01*
G75*
G02*
X-16825000Y63364000I100000J0D01*
G01*
X-15550000Y63364000D01*
G75*
G02*
X-15450000Y63264000I0J-100000D01*
G01*
G37*
G36*
G01*
X-15450000Y62614000D02*
X-15450000Y62414000D01*
G75*
G02*
X-15550000Y62314000I-100000J0D01*
G01*
X-16825000Y62314000D01*
G75*
G02*
X-16925000Y62414000I0J100000D01*
G01*
X-16925000Y62614000D01*
G75*
G02*
X-16825000Y62714000I100000J0D01*
G01*
X-15550000Y62714000D01*
G75*
G02*
X-15450000Y62614000I0J-100000D01*
G01*
G37*
G36*
G01*
X-15450000Y61964000D02*
X-15450000Y61764000D01*
G75*
G02*
X-15550000Y61664000I-100000J0D01*
G01*
X-16825000Y61664000D01*
G75*
G02*
X-16925000Y61764000I0J100000D01*
G01*
X-16925000Y61964000D01*
G75*
G02*
X-16825000Y62064000I100000J0D01*
G01*
X-15550000Y62064000D01*
G75*
G02*
X-15450000Y61964000I0J-100000D01*
G01*
G37*
G36*
G01*
X-15450000Y61314000D02*
X-15450000Y61114000D01*
G75*
G02*
X-15550000Y61014000I-100000J0D01*
G01*
X-16825000Y61014000D01*
G75*
G02*
X-16925000Y61114000I0J100000D01*
G01*
X-16925000Y61314000D01*
G75*
G02*
X-16825000Y61414000I100000J0D01*
G01*
X-15550000Y61414000D01*
G75*
G02*
X-15450000Y61314000I0J-100000D01*
G01*
G37*
G36*
G01*
X-15450000Y60664000D02*
X-15450000Y60464000D01*
G75*
G02*
X-15550000Y60364000I-100000J0D01*
G01*
X-16825000Y60364000D01*
G75*
G02*
X-16925000Y60464000I0J100000D01*
G01*
X-16925000Y60664000D01*
G75*
G02*
X-16825000Y60764000I100000J0D01*
G01*
X-15550000Y60764000D01*
G75*
G02*
X-15450000Y60664000I0J-100000D01*
G01*
G37*
G04 #@! TD*
G04 #@! TO.C,C2*
G36*
G01*
X-27066001Y104207000D02*
X-25765999Y104207000D01*
G75*
G02*
X-25516000Y103957001I0J-249999D01*
G01*
X-25516000Y103306999D01*
G75*
G02*
X-25765999Y103057000I-249999J0D01*
G01*
X-27066001Y103057000D01*
G75*
G02*
X-27316000Y103306999I0J249999D01*
G01*
X-27316000Y103957001D01*
G75*
G02*
X-27066001Y104207000I249999J0D01*
G01*
G37*
G36*
G01*
X-27066001Y107157000D02*
X-25765999Y107157000D01*
G75*
G02*
X-25516000Y106907001I0J-249999D01*
G01*
X-25516000Y106256999D01*
G75*
G02*
X-25765999Y106007000I-249999J0D01*
G01*
X-27066001Y106007000D01*
G75*
G02*
X-27316000Y106256999I0J249999D01*
G01*
X-27316000Y106907001D01*
G75*
G02*
X-27066001Y107157000I249999J0D01*
G01*
G37*
G04 #@! TD*
G04 #@! TO.C,C1*
G36*
G01*
X-3698001Y104305000D02*
X-2397999Y104305000D01*
G75*
G02*
X-2148000Y104055001I0J-249999D01*
G01*
X-2148000Y103404999D01*
G75*
G02*
X-2397999Y103155000I-249999J0D01*
G01*
X-3698001Y103155000D01*
G75*
G02*
X-3948000Y103404999I0J249999D01*
G01*
X-3948000Y104055001D01*
G75*
G02*
X-3698001Y104305000I249999J0D01*
G01*
G37*
G36*
G01*
X-3698001Y107255000D02*
X-2397999Y107255000D01*
G75*
G02*
X-2148000Y107005001I0J-249999D01*
G01*
X-2148000Y106354999D01*
G75*
G02*
X-2397999Y106105000I-249999J0D01*
G01*
X-3698001Y106105000D01*
G75*
G02*
X-3948000Y106354999I0J249999D01*
G01*
X-3948000Y107005001D01*
G75*
G02*
X-3698001Y107255000I249999J0D01*
G01*
G37*
G04 #@! TD*
G04 #@! TO.C,U4*
G36*
G01*
X-18566000Y23717000D02*
X-18566000Y24017000D01*
G75*
G02*
X-18416000Y24167000I150000J0D01*
G01*
X-16766000Y24167000D01*
G75*
G02*
X-16616000Y24017000I0J-150000D01*
G01*
X-16616000Y23717000D01*
G75*
G02*
X-16766000Y23567000I-150000J0D01*
G01*
X-18416000Y23567000D01*
G75*
G02*
X-18566000Y23717000I0J150000D01*
G01*
G37*
G36*
G01*
X-18566000Y22447000D02*
X-18566000Y22747000D01*
G75*
G02*
X-18416000Y22897000I150000J0D01*
G01*
X-16766000Y22897000D01*
G75*
G02*
X-16616000Y22747000I0J-150000D01*
G01*
X-16616000Y22447000D01*
G75*
G02*
X-16766000Y22297000I-150000J0D01*
G01*
X-18416000Y22297000D01*
G75*
G02*
X-18566000Y22447000I0J150000D01*
G01*
G37*
G36*
G01*
X-18566000Y21177000D02*
X-18566000Y21477000D01*
G75*
G02*
X-18416000Y21627000I150000J0D01*
G01*
X-16766000Y21627000D01*
G75*
G02*
X-16616000Y21477000I0J-150000D01*
G01*
X-16616000Y21177000D01*
G75*
G02*
X-16766000Y21027000I-150000J0D01*
G01*
X-18416000Y21027000D01*
G75*
G02*
X-18566000Y21177000I0J150000D01*
G01*
G37*
G36*
G01*
X-18566000Y19907000D02*
X-18566000Y20207000D01*
G75*
G02*
X-18416000Y20357000I150000J0D01*
G01*
X-16766000Y20357000D01*
G75*
G02*
X-16616000Y20207000I0J-150000D01*
G01*
X-16616000Y19907000D01*
G75*
G02*
X-16766000Y19757000I-150000J0D01*
G01*
X-18416000Y19757000D01*
G75*
G02*
X-18566000Y19907000I0J150000D01*
G01*
G37*
G36*
G01*
X-18566000Y18637000D02*
X-18566000Y18937000D01*
G75*
G02*
X-18416000Y19087000I150000J0D01*
G01*
X-16766000Y19087000D01*
G75*
G02*
X-16616000Y18937000I0J-150000D01*
G01*
X-16616000Y18637000D01*
G75*
G02*
X-16766000Y18487000I-150000J0D01*
G01*
X-18416000Y18487000D01*
G75*
G02*
X-18566000Y18637000I0J150000D01*
G01*
G37*
G36*
G01*
X-18566000Y17367000D02*
X-18566000Y17667000D01*
G75*
G02*
X-18416000Y17817000I150000J0D01*
G01*
X-16766000Y17817000D01*
G75*
G02*
X-16616000Y17667000I0J-150000D01*
G01*
X-16616000Y17367000D01*
G75*
G02*
X-16766000Y17217000I-150000J0D01*
G01*
X-18416000Y17217000D01*
G75*
G02*
X-18566000Y17367000I0J150000D01*
G01*
G37*
G36*
G01*
X-18566000Y16097000D02*
X-18566000Y16397000D01*
G75*
G02*
X-18416000Y16547000I150000J0D01*
G01*
X-16766000Y16547000D01*
G75*
G02*
X-16616000Y16397000I0J-150000D01*
G01*
X-16616000Y16097000D01*
G75*
G02*
X-16766000Y15947000I-150000J0D01*
G01*
X-18416000Y15947000D01*
G75*
G02*
X-18566000Y16097000I0J150000D01*
G01*
G37*
G36*
G01*
X-18566000Y14827000D02*
X-18566000Y15127000D01*
G75*
G02*
X-18416000Y15277000I150000J0D01*
G01*
X-16766000Y15277000D01*
G75*
G02*
X-16616000Y15127000I0J-150000D01*
G01*
X-16616000Y14827000D01*
G75*
G02*
X-16766000Y14677000I-150000J0D01*
G01*
X-18416000Y14677000D01*
G75*
G02*
X-18566000Y14827000I0J150000D01*
G01*
G37*
G36*
G01*
X-23516000Y14827000D02*
X-23516000Y15127000D01*
G75*
G02*
X-23366000Y15277000I150000J0D01*
G01*
X-21716000Y15277000D01*
G75*
G02*
X-21566000Y15127000I0J-150000D01*
G01*
X-21566000Y14827000D01*
G75*
G02*
X-21716000Y14677000I-150000J0D01*
G01*
X-23366000Y14677000D01*
G75*
G02*
X-23516000Y14827000I0J150000D01*
G01*
G37*
G36*
G01*
X-23516000Y16097000D02*
X-23516000Y16397000D01*
G75*
G02*
X-23366000Y16547000I150000J0D01*
G01*
X-21716000Y16547000D01*
G75*
G02*
X-21566000Y16397000I0J-150000D01*
G01*
X-21566000Y16097000D01*
G75*
G02*
X-21716000Y15947000I-150000J0D01*
G01*
X-23366000Y15947000D01*
G75*
G02*
X-23516000Y16097000I0J150000D01*
G01*
G37*
G36*
G01*
X-23516000Y17367000D02*
X-23516000Y17667000D01*
G75*
G02*
X-23366000Y17817000I150000J0D01*
G01*
X-21716000Y17817000D01*
G75*
G02*
X-21566000Y17667000I0J-150000D01*
G01*
X-21566000Y17367000D01*
G75*
G02*
X-21716000Y17217000I-150000J0D01*
G01*
X-23366000Y17217000D01*
G75*
G02*
X-23516000Y17367000I0J150000D01*
G01*
G37*
G36*
G01*
X-23516000Y18637000D02*
X-23516000Y18937000D01*
G75*
G02*
X-23366000Y19087000I150000J0D01*
G01*
X-21716000Y19087000D01*
G75*
G02*
X-21566000Y18937000I0J-150000D01*
G01*
X-21566000Y18637000D01*
G75*
G02*
X-21716000Y18487000I-150000J0D01*
G01*
X-23366000Y18487000D01*
G75*
G02*
X-23516000Y18637000I0J150000D01*
G01*
G37*
G36*
G01*
X-23516000Y19907000D02*
X-23516000Y20207000D01*
G75*
G02*
X-23366000Y20357000I150000J0D01*
G01*
X-21716000Y20357000D01*
G75*
G02*
X-21566000Y20207000I0J-150000D01*
G01*
X-21566000Y19907000D01*
G75*
G02*
X-21716000Y19757000I-150000J0D01*
G01*
X-23366000Y19757000D01*
G75*
G02*
X-23516000Y19907000I0J150000D01*
G01*
G37*
G36*
G01*
X-23516000Y21177000D02*
X-23516000Y21477000D01*
G75*
G02*
X-23366000Y21627000I150000J0D01*
G01*
X-21716000Y21627000D01*
G75*
G02*
X-21566000Y21477000I0J-150000D01*
G01*
X-21566000Y21177000D01*
G75*
G02*
X-21716000Y21027000I-150000J0D01*
G01*
X-23366000Y21027000D01*
G75*
G02*
X-23516000Y21177000I0J150000D01*
G01*
G37*
G36*
G01*
X-23516000Y22447000D02*
X-23516000Y22747000D01*
G75*
G02*
X-23366000Y22897000I150000J0D01*
G01*
X-21716000Y22897000D01*
G75*
G02*
X-21566000Y22747000I0J-150000D01*
G01*
X-21566000Y22447000D01*
G75*
G02*
X-21716000Y22297000I-150000J0D01*
G01*
X-23366000Y22297000D01*
G75*
G02*
X-23516000Y22447000I0J150000D01*
G01*
G37*
G36*
G01*
X-23516000Y23717000D02*
X-23516000Y24017000D01*
G75*
G02*
X-23366000Y24167000I150000J0D01*
G01*
X-21716000Y24167000D01*
G75*
G02*
X-21566000Y24017000I0J-150000D01*
G01*
X-21566000Y23717000D01*
G75*
G02*
X-21716000Y23567000I-150000J0D01*
G01*
X-23366000Y23567000D01*
G75*
G02*
X-23516000Y23717000I0J150000D01*
G01*
G37*
G04 #@! TD*
G04 #@! TO.C,U2*
G36*
G01*
X-18566000Y79636000D02*
X-18566000Y79936000D01*
G75*
G02*
X-18416000Y80086000I150000J0D01*
G01*
X-16766000Y80086000D01*
G75*
G02*
X-16616000Y79936000I0J-150000D01*
G01*
X-16616000Y79636000D01*
G75*
G02*
X-16766000Y79486000I-150000J0D01*
G01*
X-18416000Y79486000D01*
G75*
G02*
X-18566000Y79636000I0J150000D01*
G01*
G37*
G36*
G01*
X-18566000Y78366000D02*
X-18566000Y78666000D01*
G75*
G02*
X-18416000Y78816000I150000J0D01*
G01*
X-16766000Y78816000D01*
G75*
G02*
X-16616000Y78666000I0J-150000D01*
G01*
X-16616000Y78366000D01*
G75*
G02*
X-16766000Y78216000I-150000J0D01*
G01*
X-18416000Y78216000D01*
G75*
G02*
X-18566000Y78366000I0J150000D01*
G01*
G37*
G36*
G01*
X-18566000Y77096000D02*
X-18566000Y77396000D01*
G75*
G02*
X-18416000Y77546000I150000J0D01*
G01*
X-16766000Y77546000D01*
G75*
G02*
X-16616000Y77396000I0J-150000D01*
G01*
X-16616000Y77096000D01*
G75*
G02*
X-16766000Y76946000I-150000J0D01*
G01*
X-18416000Y76946000D01*
G75*
G02*
X-18566000Y77096000I0J150000D01*
G01*
G37*
G36*
G01*
X-18566000Y75826000D02*
X-18566000Y76126000D01*
G75*
G02*
X-18416000Y76276000I150000J0D01*
G01*
X-16766000Y76276000D01*
G75*
G02*
X-16616000Y76126000I0J-150000D01*
G01*
X-16616000Y75826000D01*
G75*
G02*
X-16766000Y75676000I-150000J0D01*
G01*
X-18416000Y75676000D01*
G75*
G02*
X-18566000Y75826000I0J150000D01*
G01*
G37*
G36*
G01*
X-18566000Y74556000D02*
X-18566000Y74856000D01*
G75*
G02*
X-18416000Y75006000I150000J0D01*
G01*
X-16766000Y75006000D01*
G75*
G02*
X-16616000Y74856000I0J-150000D01*
G01*
X-16616000Y74556000D01*
G75*
G02*
X-16766000Y74406000I-150000J0D01*
G01*
X-18416000Y74406000D01*
G75*
G02*
X-18566000Y74556000I0J150000D01*
G01*
G37*
G36*
G01*
X-18566000Y73286000D02*
X-18566000Y73586000D01*
G75*
G02*
X-18416000Y73736000I150000J0D01*
G01*
X-16766000Y73736000D01*
G75*
G02*
X-16616000Y73586000I0J-150000D01*
G01*
X-16616000Y73286000D01*
G75*
G02*
X-16766000Y73136000I-150000J0D01*
G01*
X-18416000Y73136000D01*
G75*
G02*
X-18566000Y73286000I0J150000D01*
G01*
G37*
G36*
G01*
X-18566000Y72016000D02*
X-18566000Y72316000D01*
G75*
G02*
X-18416000Y72466000I150000J0D01*
G01*
X-16766000Y72466000D01*
G75*
G02*
X-16616000Y72316000I0J-150000D01*
G01*
X-16616000Y72016000D01*
G75*
G02*
X-16766000Y71866000I-150000J0D01*
G01*
X-18416000Y71866000D01*
G75*
G02*
X-18566000Y72016000I0J150000D01*
G01*
G37*
G36*
G01*
X-18566000Y70746000D02*
X-18566000Y71046000D01*
G75*
G02*
X-18416000Y71196000I150000J0D01*
G01*
X-16766000Y71196000D01*
G75*
G02*
X-16616000Y71046000I0J-150000D01*
G01*
X-16616000Y70746000D01*
G75*
G02*
X-16766000Y70596000I-150000J0D01*
G01*
X-18416000Y70596000D01*
G75*
G02*
X-18566000Y70746000I0J150000D01*
G01*
G37*
G36*
G01*
X-23516000Y70746000D02*
X-23516000Y71046000D01*
G75*
G02*
X-23366000Y71196000I150000J0D01*
G01*
X-21716000Y71196000D01*
G75*
G02*
X-21566000Y71046000I0J-150000D01*
G01*
X-21566000Y70746000D01*
G75*
G02*
X-21716000Y70596000I-150000J0D01*
G01*
X-23366000Y70596000D01*
G75*
G02*
X-23516000Y70746000I0J150000D01*
G01*
G37*
G36*
G01*
X-23516000Y72016000D02*
X-23516000Y72316000D01*
G75*
G02*
X-23366000Y72466000I150000J0D01*
G01*
X-21716000Y72466000D01*
G75*
G02*
X-21566000Y72316000I0J-150000D01*
G01*
X-21566000Y72016000D01*
G75*
G02*
X-21716000Y71866000I-150000J0D01*
G01*
X-23366000Y71866000D01*
G75*
G02*
X-23516000Y72016000I0J150000D01*
G01*
G37*
G36*
G01*
X-23516000Y73286000D02*
X-23516000Y73586000D01*
G75*
G02*
X-23366000Y73736000I150000J0D01*
G01*
X-21716000Y73736000D01*
G75*
G02*
X-21566000Y73586000I0J-150000D01*
G01*
X-21566000Y73286000D01*
G75*
G02*
X-21716000Y73136000I-150000J0D01*
G01*
X-23366000Y73136000D01*
G75*
G02*
X-23516000Y73286000I0J150000D01*
G01*
G37*
G36*
G01*
X-23516000Y74556000D02*
X-23516000Y74856000D01*
G75*
G02*
X-23366000Y75006000I150000J0D01*
G01*
X-21716000Y75006000D01*
G75*
G02*
X-21566000Y74856000I0J-150000D01*
G01*
X-21566000Y74556000D01*
G75*
G02*
X-21716000Y74406000I-150000J0D01*
G01*
X-23366000Y74406000D01*
G75*
G02*
X-23516000Y74556000I0J150000D01*
G01*
G37*
G36*
G01*
X-23516000Y75826000D02*
X-23516000Y76126000D01*
G75*
G02*
X-23366000Y76276000I150000J0D01*
G01*
X-21716000Y76276000D01*
G75*
G02*
X-21566000Y76126000I0J-150000D01*
G01*
X-21566000Y75826000D01*
G75*
G02*
X-21716000Y75676000I-150000J0D01*
G01*
X-23366000Y75676000D01*
G75*
G02*
X-23516000Y75826000I0J150000D01*
G01*
G37*
G36*
G01*
X-23516000Y77096000D02*
X-23516000Y77396000D01*
G75*
G02*
X-23366000Y77546000I150000J0D01*
G01*
X-21716000Y77546000D01*
G75*
G02*
X-21566000Y77396000I0J-150000D01*
G01*
X-21566000Y77096000D01*
G75*
G02*
X-21716000Y76946000I-150000J0D01*
G01*
X-23366000Y76946000D01*
G75*
G02*
X-23516000Y77096000I0J150000D01*
G01*
G37*
G36*
G01*
X-23516000Y78366000D02*
X-23516000Y78666000D01*
G75*
G02*
X-23366000Y78816000I150000J0D01*
G01*
X-21716000Y78816000D01*
G75*
G02*
X-21566000Y78666000I0J-150000D01*
G01*
X-21566000Y78366000D01*
G75*
G02*
X-21716000Y78216000I-150000J0D01*
G01*
X-23366000Y78216000D01*
G75*
G02*
X-23516000Y78366000I0J150000D01*
G01*
G37*
G36*
G01*
X-23516000Y79636000D02*
X-23516000Y79936000D01*
G75*
G02*
X-23366000Y80086000I150000J0D01*
G01*
X-21716000Y80086000D01*
G75*
G02*
X-21566000Y79936000I0J-150000D01*
G01*
X-21566000Y79636000D01*
G75*
G02*
X-21716000Y79486000I-150000J0D01*
G01*
X-23366000Y79486000D01*
G75*
G02*
X-23516000Y79636000I0J150000D01*
G01*
G37*
G04 #@! TD*
G04 #@! TO.C,R54*
G36*
G01*
X-17443000Y59106000D02*
X-17443000Y58556000D01*
G75*
G02*
X-17643000Y58356000I-200000J0D01*
G01*
X-18043000Y58356000D01*
G75*
G02*
X-18243000Y58556000I0J200000D01*
G01*
X-18243000Y59106000D01*
G75*
G02*
X-18043000Y59306000I200000J0D01*
G01*
X-17643000Y59306000D01*
G75*
G02*
X-17443000Y59106000I0J-200000D01*
G01*
G37*
G36*
G01*
X-15793000Y59106000D02*
X-15793000Y58556000D01*
G75*
G02*
X-15993000Y58356000I-200000J0D01*
G01*
X-16393000Y58356000D01*
G75*
G02*
X-16593000Y58556000I0J200000D01*
G01*
X-16593000Y59106000D01*
G75*
G02*
X-16393000Y59306000I200000J0D01*
G01*
X-15993000Y59306000D01*
G75*
G02*
X-15793000Y59106000I0J-200000D01*
G01*
G37*
G04 #@! TD*
G04 #@! TO.C,R53*
G36*
G01*
X-10243000Y58175000D02*
X-10243000Y58725000D01*
G75*
G02*
X-10043000Y58925000I200000J0D01*
G01*
X-9643000Y58925000D01*
G75*
G02*
X-9443000Y58725000I0J-200000D01*
G01*
X-9443000Y58175000D01*
G75*
G02*
X-9643000Y57975000I-200000J0D01*
G01*
X-10043000Y57975000D01*
G75*
G02*
X-10243000Y58175000I0J200000D01*
G01*
G37*
G36*
G01*
X-11893000Y58175000D02*
X-11893000Y58725000D01*
G75*
G02*
X-11693000Y58925000I200000J0D01*
G01*
X-11293000Y58925000D01*
G75*
G02*
X-11093000Y58725000I0J-200000D01*
G01*
X-11093000Y58175000D01*
G75*
G02*
X-11293000Y57975000I-200000J0D01*
G01*
X-11693000Y57975000D01*
G75*
G02*
X-11893000Y58175000I0J200000D01*
G01*
G37*
G04 #@! TD*
G04 #@! TO.C,R52*
G36*
G01*
X-17632000Y67638000D02*
X-18182000Y67638000D01*
G75*
G02*
X-18382000Y67838000I0J200000D01*
G01*
X-18382000Y68238000D01*
G75*
G02*
X-18182000Y68438000I200000J0D01*
G01*
X-17632000Y68438000D01*
G75*
G02*
X-17432000Y68238000I0J-200000D01*
G01*
X-17432000Y67838000D01*
G75*
G02*
X-17632000Y67638000I-200000J0D01*
G01*
G37*
G36*
G01*
X-17632000Y65988000D02*
X-18182000Y65988000D01*
G75*
G02*
X-18382000Y66188000I0J200000D01*
G01*
X-18382000Y66588000D01*
G75*
G02*
X-18182000Y66788000I200000J0D01*
G01*
X-17632000Y66788000D01*
G75*
G02*
X-17432000Y66588000I0J-200000D01*
G01*
X-17432000Y66188000D01*
G75*
G02*
X-17632000Y65988000I-200000J0D01*
G01*
G37*
G04 #@! TD*
G04 #@! TO.C,R51*
G36*
G01*
X-19283000Y67638000D02*
X-19833000Y67638000D01*
G75*
G02*
X-20033000Y67838000I0J200000D01*
G01*
X-20033000Y68238000D01*
G75*
G02*
X-19833000Y68438000I200000J0D01*
G01*
X-19283000Y68438000D01*
G75*
G02*
X-19083000Y68238000I0J-200000D01*
G01*
X-19083000Y67838000D01*
G75*
G02*
X-19283000Y67638000I-200000J0D01*
G01*
G37*
G36*
G01*
X-19283000Y65988000D02*
X-19833000Y65988000D01*
G75*
G02*
X-20033000Y66188000I0J200000D01*
G01*
X-20033000Y66588000D01*
G75*
G02*
X-19833000Y66788000I200000J0D01*
G01*
X-19283000Y66788000D01*
G75*
G02*
X-19083000Y66588000I0J-200000D01*
G01*
X-19083000Y66188000D01*
G75*
G02*
X-19283000Y65988000I-200000J0D01*
G01*
G37*
G04 #@! TD*
G04 #@! TO.C,R50*
G36*
G01*
X-10243000Y59826000D02*
X-10243000Y60376000D01*
G75*
G02*
X-10043000Y60576000I200000J0D01*
G01*
X-9643000Y60576000D01*
G75*
G02*
X-9443000Y60376000I0J-200000D01*
G01*
X-9443000Y59826000D01*
G75*
G02*
X-9643000Y59626000I-200000J0D01*
G01*
X-10043000Y59626000D01*
G75*
G02*
X-10243000Y59826000I0J200000D01*
G01*
G37*
G36*
G01*
X-11893000Y59826000D02*
X-11893000Y60376000D01*
G75*
G02*
X-11693000Y60576000I200000J0D01*
G01*
X-11293000Y60576000D01*
G75*
G02*
X-11093000Y60376000I0J-200000D01*
G01*
X-11093000Y59826000D01*
G75*
G02*
X-11293000Y59626000I-200000J0D01*
G01*
X-11693000Y59626000D01*
G75*
G02*
X-11893000Y59826000I0J200000D01*
G01*
G37*
G04 #@! TD*
G04 #@! TO.C,R47*
G36*
G01*
X-10139000Y64814000D02*
X-10689000Y64814000D01*
G75*
G02*
X-10889000Y65014000I0J200000D01*
G01*
X-10889000Y65414000D01*
G75*
G02*
X-10689000Y65614000I200000J0D01*
G01*
X-10139000Y65614000D01*
G75*
G02*
X-9939000Y65414000I0J-200000D01*
G01*
X-9939000Y65014000D01*
G75*
G02*
X-10139000Y64814000I-200000J0D01*
G01*
G37*
G36*
G01*
X-10139000Y63164000D02*
X-10689000Y63164000D01*
G75*
G02*
X-10889000Y63364000I0J200000D01*
G01*
X-10889000Y63764000D01*
G75*
G02*
X-10689000Y63964000I200000J0D01*
G01*
X-10139000Y63964000D01*
G75*
G02*
X-9939000Y63764000I0J-200000D01*
G01*
X-9939000Y63364000D01*
G75*
G02*
X-10139000Y63164000I-200000J0D01*
G01*
G37*
G04 #@! TD*
G04 #@! TO.C,R44*
G36*
G01*
X-13991000Y63964000D02*
X-13441000Y63964000D01*
G75*
G02*
X-13241000Y63764000I0J-200000D01*
G01*
X-13241000Y63364000D01*
G75*
G02*
X-13441000Y63164000I-200000J0D01*
G01*
X-13991000Y63164000D01*
G75*
G02*
X-14191000Y63364000I0J200000D01*
G01*
X-14191000Y63764000D01*
G75*
G02*
X-13991000Y63964000I200000J0D01*
G01*
G37*
G36*
G01*
X-13991000Y65614000D02*
X-13441000Y65614000D01*
G75*
G02*
X-13241000Y65414000I0J-200000D01*
G01*
X-13241000Y65014000D01*
G75*
G02*
X-13441000Y64814000I-200000J0D01*
G01*
X-13991000Y64814000D01*
G75*
G02*
X-14191000Y65014000I0J200000D01*
G01*
X-14191000Y65414000D01*
G75*
G02*
X-13991000Y65614000I200000J0D01*
G01*
G37*
G04 #@! TD*
G04 #@! TO.C,R42*
G36*
G01*
X-15981000Y67638000D02*
X-16531000Y67638000D01*
G75*
G02*
X-16731000Y67838000I0J200000D01*
G01*
X-16731000Y68238000D01*
G75*
G02*
X-16531000Y68438000I200000J0D01*
G01*
X-15981000Y68438000D01*
G75*
G02*
X-15781000Y68238000I0J-200000D01*
G01*
X-15781000Y67838000D01*
G75*
G02*
X-15981000Y67638000I-200000J0D01*
G01*
G37*
G36*
G01*
X-15981000Y65988000D02*
X-16531000Y65988000D01*
G75*
G02*
X-16731000Y66188000I0J200000D01*
G01*
X-16731000Y66588000D01*
G75*
G02*
X-16531000Y66788000I200000J0D01*
G01*
X-15981000Y66788000D01*
G75*
G02*
X-15781000Y66588000I0J-200000D01*
G01*
X-15781000Y66188000D01*
G75*
G02*
X-15981000Y65988000I-200000J0D01*
G01*
G37*
G04 #@! TD*
G04 #@! TO.C,R40*
G36*
G01*
X-17316000Y25802000D02*
X-17316000Y25252000D01*
G75*
G02*
X-17516000Y25052000I-200000J0D01*
G01*
X-17916000Y25052000D01*
G75*
G02*
X-18116000Y25252000I0J200000D01*
G01*
X-18116000Y25802000D01*
G75*
G02*
X-17916000Y26002000I200000J0D01*
G01*
X-17516000Y26002000D01*
G75*
G02*
X-17316000Y25802000I0J-200000D01*
G01*
G37*
G36*
G01*
X-15666000Y25802000D02*
X-15666000Y25252000D01*
G75*
G02*
X-15866000Y25052000I-200000J0D01*
G01*
X-16266000Y25052000D01*
G75*
G02*
X-16466000Y25252000I0J200000D01*
G01*
X-16466000Y25802000D01*
G75*
G02*
X-16266000Y26002000I200000J0D01*
G01*
X-15866000Y26002000D01*
G75*
G02*
X-15666000Y25802000I0J-200000D01*
G01*
G37*
G04 #@! TD*
G04 #@! TO.C,R39*
G36*
G01*
X-17126000Y81712000D02*
X-17126000Y81162000D01*
G75*
G02*
X-17326000Y80962000I-200000J0D01*
G01*
X-17726000Y80962000D01*
G75*
G02*
X-17926000Y81162000I0J200000D01*
G01*
X-17926000Y81712000D01*
G75*
G02*
X-17726000Y81912000I200000J0D01*
G01*
X-17326000Y81912000D01*
G75*
G02*
X-17126000Y81712000I0J-200000D01*
G01*
G37*
G36*
G01*
X-15476000Y81712000D02*
X-15476000Y81162000D01*
G75*
G02*
X-15676000Y80962000I-200000J0D01*
G01*
X-16076000Y80962000D01*
G75*
G02*
X-16276000Y81162000I0J200000D01*
G01*
X-16276000Y81712000D01*
G75*
G02*
X-16076000Y81912000I200000J0D01*
G01*
X-15676000Y81912000D01*
G75*
G02*
X-15476000Y81712000I0J-200000D01*
G01*
G37*
G04 #@! TD*
G04 #@! TO.C,R37*
G36*
G01*
X-14076000Y5886000D02*
X-14626000Y5886000D01*
G75*
G02*
X-14826000Y6086000I0J200000D01*
G01*
X-14826000Y6486000D01*
G75*
G02*
X-14626000Y6686000I200000J0D01*
G01*
X-14076000Y6686000D01*
G75*
G02*
X-13876000Y6486000I0J-200000D01*
G01*
X-13876000Y6086000D01*
G75*
G02*
X-14076000Y5886000I-200000J0D01*
G01*
G37*
G36*
G01*
X-14076000Y4236000D02*
X-14626000Y4236000D01*
G75*
G02*
X-14826000Y4436000I0J200000D01*
G01*
X-14826000Y4836000D01*
G75*
G02*
X-14626000Y5036000I200000J0D01*
G01*
X-14076000Y5036000D01*
G75*
G02*
X-13876000Y4836000I0J-200000D01*
G01*
X-13876000Y4436000D01*
G75*
G02*
X-14076000Y4236000I-200000J0D01*
G01*
G37*
G04 #@! TD*
G04 #@! TO.C,R36*
G36*
G01*
X-25825000Y14753000D02*
X-25825000Y14203000D01*
G75*
G02*
X-26025000Y14003000I-200000J0D01*
G01*
X-26425000Y14003000D01*
G75*
G02*
X-26625000Y14203000I0J200000D01*
G01*
X-26625000Y14753000D01*
G75*
G02*
X-26425000Y14953000I200000J0D01*
G01*
X-26025000Y14953000D01*
G75*
G02*
X-25825000Y14753000I0J-200000D01*
G01*
G37*
G36*
G01*
X-24175000Y14753000D02*
X-24175000Y14203000D01*
G75*
G02*
X-24375000Y14003000I-200000J0D01*
G01*
X-24775000Y14003000D01*
G75*
G02*
X-24975000Y14203000I0J200000D01*
G01*
X-24975000Y14753000D01*
G75*
G02*
X-24775000Y14953000I200000J0D01*
G01*
X-24375000Y14953000D01*
G75*
G02*
X-24175000Y14753000I0J-200000D01*
G01*
G37*
G04 #@! TD*
G04 #@! TO.C,R35*
G36*
G01*
X-25825000Y70790000D02*
X-25825000Y70240000D01*
G75*
G02*
X-26025000Y70040000I-200000J0D01*
G01*
X-26425000Y70040000D01*
G75*
G02*
X-26625000Y70240000I0J200000D01*
G01*
X-26625000Y70790000D01*
G75*
G02*
X-26425000Y70990000I200000J0D01*
G01*
X-26025000Y70990000D01*
G75*
G02*
X-25825000Y70790000I0J-200000D01*
G01*
G37*
G36*
G01*
X-24175000Y70790000D02*
X-24175000Y70240000D01*
G75*
G02*
X-24375000Y70040000I-200000J0D01*
G01*
X-24775000Y70040000D01*
G75*
G02*
X-24975000Y70240000I0J200000D01*
G01*
X-24975000Y70790000D01*
G75*
G02*
X-24775000Y70990000I200000J0D01*
G01*
X-24375000Y70990000D01*
G75*
G02*
X-24175000Y70790000I0J-200000D01*
G01*
G37*
G04 #@! TD*
G04 #@! TO.C,R34*
G36*
G01*
X-9862000Y4360500D02*
X-9862000Y4910500D01*
G75*
G02*
X-9662000Y5110500I200000J0D01*
G01*
X-9262000Y5110500D01*
G75*
G02*
X-9062000Y4910500I0J-200000D01*
G01*
X-9062000Y4360500D01*
G75*
G02*
X-9262000Y4160500I-200000J0D01*
G01*
X-9662000Y4160500D01*
G75*
G02*
X-9862000Y4360500I0J200000D01*
G01*
G37*
G36*
G01*
X-11512000Y4360500D02*
X-11512000Y4910500D01*
G75*
G02*
X-11312000Y5110500I200000J0D01*
G01*
X-10912000Y5110500D01*
G75*
G02*
X-10712000Y4910500I0J-200000D01*
G01*
X-10712000Y4360500D01*
G75*
G02*
X-10912000Y4160500I-200000J0D01*
G01*
X-11312000Y4160500D01*
G75*
G02*
X-11512000Y4360500I0J200000D01*
G01*
G37*
G04 #@! TD*
G04 #@! TO.C,R33*
G36*
G01*
X-9862000Y2709500D02*
X-9862000Y3259500D01*
G75*
G02*
X-9662000Y3459500I200000J0D01*
G01*
X-9262000Y3459500D01*
G75*
G02*
X-9062000Y3259500I0J-200000D01*
G01*
X-9062000Y2709500D01*
G75*
G02*
X-9262000Y2509500I-200000J0D01*
G01*
X-9662000Y2509500D01*
G75*
G02*
X-9862000Y2709500I0J200000D01*
G01*
G37*
G36*
G01*
X-11512000Y2709500D02*
X-11512000Y3259500D01*
G75*
G02*
X-11312000Y3459500I200000J0D01*
G01*
X-10912000Y3459500D01*
G75*
G02*
X-10712000Y3259500I0J-200000D01*
G01*
X-10712000Y2709500D01*
G75*
G02*
X-10912000Y2509500I-200000J0D01*
G01*
X-11312000Y2509500D01*
G75*
G02*
X-11512000Y2709500I0J200000D01*
G01*
G37*
G04 #@! TD*
G04 #@! TO.C,R32*
G36*
G01*
X-25825000Y16404000D02*
X-25825000Y15854000D01*
G75*
G02*
X-26025000Y15654000I-200000J0D01*
G01*
X-26425000Y15654000D01*
G75*
G02*
X-26625000Y15854000I0J200000D01*
G01*
X-26625000Y16404000D01*
G75*
G02*
X-26425000Y16604000I200000J0D01*
G01*
X-26025000Y16604000D01*
G75*
G02*
X-25825000Y16404000I0J-200000D01*
G01*
G37*
G36*
G01*
X-24175000Y16404000D02*
X-24175000Y15854000D01*
G75*
G02*
X-24375000Y15654000I-200000J0D01*
G01*
X-24775000Y15654000D01*
G75*
G02*
X-24975000Y15854000I0J200000D01*
G01*
X-24975000Y16404000D01*
G75*
G02*
X-24775000Y16604000I200000J0D01*
G01*
X-24375000Y16604000D01*
G75*
G02*
X-24175000Y16404000I0J-200000D01*
G01*
G37*
G04 #@! TD*
G04 #@! TO.C,R30*
G36*
G01*
X-21419000Y25252000D02*
X-21419000Y25802000D01*
G75*
G02*
X-21219000Y26002000I200000J0D01*
G01*
X-20819000Y26002000D01*
G75*
G02*
X-20619000Y25802000I0J-200000D01*
G01*
X-20619000Y25252000D01*
G75*
G02*
X-20819000Y25052000I-200000J0D01*
G01*
X-21219000Y25052000D01*
G75*
G02*
X-21419000Y25252000I0J200000D01*
G01*
G37*
G36*
G01*
X-23069000Y25252000D02*
X-23069000Y25802000D01*
G75*
G02*
X-22869000Y26002000I200000J0D01*
G01*
X-22469000Y26002000D01*
G75*
G02*
X-22269000Y25802000I0J-200000D01*
G01*
X-22269000Y25252000D01*
G75*
G02*
X-22469000Y25052000I-200000J0D01*
G01*
X-22869000Y25052000D01*
G75*
G02*
X-23069000Y25252000I0J200000D01*
G01*
G37*
G04 #@! TD*
G04 #@! TO.C,R29*
G36*
G01*
X-21950000Y82878000D02*
X-22500000Y82878000D01*
G75*
G02*
X-22700000Y83078000I0J200000D01*
G01*
X-22700000Y83478000D01*
G75*
G02*
X-22500000Y83678000I200000J0D01*
G01*
X-21950000Y83678000D01*
G75*
G02*
X-21750000Y83478000I0J-200000D01*
G01*
X-21750000Y83078000D01*
G75*
G02*
X-21950000Y82878000I-200000J0D01*
G01*
G37*
G36*
G01*
X-21950000Y81228000D02*
X-22500000Y81228000D01*
G75*
G02*
X-22700000Y81428000I0J200000D01*
G01*
X-22700000Y81828000D01*
G75*
G02*
X-22500000Y82028000I200000J0D01*
G01*
X-21950000Y82028000D01*
G75*
G02*
X-21750000Y81828000I0J-200000D01*
G01*
X-21750000Y81428000D01*
G75*
G02*
X-21950000Y81228000I-200000J0D01*
G01*
G37*
G04 #@! TD*
G04 #@! TO.C,R28*
G36*
G01*
X-25102000Y21061000D02*
X-25102000Y21611000D01*
G75*
G02*
X-24902000Y21811000I200000J0D01*
G01*
X-24502000Y21811000D01*
G75*
G02*
X-24302000Y21611000I0J-200000D01*
G01*
X-24302000Y21061000D01*
G75*
G02*
X-24502000Y20861000I-200000J0D01*
G01*
X-24902000Y20861000D01*
G75*
G02*
X-25102000Y21061000I0J200000D01*
G01*
G37*
G36*
G01*
X-26752000Y21061000D02*
X-26752000Y21611000D01*
G75*
G02*
X-26552000Y21811000I200000J0D01*
G01*
X-26152000Y21811000D01*
G75*
G02*
X-25952000Y21611000I0J-200000D01*
G01*
X-25952000Y21061000D01*
G75*
G02*
X-26152000Y20861000I-200000J0D01*
G01*
X-26552000Y20861000D01*
G75*
G02*
X-26752000Y21061000I0J200000D01*
G01*
G37*
G04 #@! TD*
G04 #@! TO.C,R27*
G36*
G01*
X-25038000Y76971000D02*
X-25038000Y77521000D01*
G75*
G02*
X-24838000Y77721000I200000J0D01*
G01*
X-24438000Y77721000D01*
G75*
G02*
X-24238000Y77521000I0J-200000D01*
G01*
X-24238000Y76971000D01*
G75*
G02*
X-24438000Y76771000I-200000J0D01*
G01*
X-24838000Y76771000D01*
G75*
G02*
X-25038000Y76971000I0J200000D01*
G01*
G37*
G36*
G01*
X-26688000Y76971000D02*
X-26688000Y77521000D01*
G75*
G02*
X-26488000Y77721000I200000J0D01*
G01*
X-26088000Y77721000D01*
G75*
G02*
X-25888000Y77521000I0J-200000D01*
G01*
X-25888000Y76971000D01*
G75*
G02*
X-26088000Y76771000I-200000J0D01*
G01*
X-26488000Y76771000D01*
G75*
G02*
X-26688000Y76971000I0J200000D01*
G01*
G37*
G04 #@! TD*
G04 #@! TO.C,R26*
G36*
G01*
X-30755000Y65645000D02*
X-30205000Y65645000D01*
G75*
G02*
X-30005000Y65445000I0J-200000D01*
G01*
X-30005000Y65045000D01*
G75*
G02*
X-30205000Y64845000I-200000J0D01*
G01*
X-30755000Y64845000D01*
G75*
G02*
X-30955000Y65045000I0J200000D01*
G01*
X-30955000Y65445000D01*
G75*
G02*
X-30755000Y65645000I200000J0D01*
G01*
G37*
G36*
G01*
X-30755000Y67295000D02*
X-30205000Y67295000D01*
G75*
G02*
X-30005000Y67095000I0J-200000D01*
G01*
X-30005000Y66695000D01*
G75*
G02*
X-30205000Y66495000I-200000J0D01*
G01*
X-30755000Y66495000D01*
G75*
G02*
X-30955000Y66695000I0J200000D01*
G01*
X-30955000Y67095000D01*
G75*
G02*
X-30755000Y67295000I200000J0D01*
G01*
G37*
G04 #@! TD*
G04 #@! TO.C,R25*
G36*
G01*
X-29104000Y65645000D02*
X-28554000Y65645000D01*
G75*
G02*
X-28354000Y65445000I0J-200000D01*
G01*
X-28354000Y65045000D01*
G75*
G02*
X-28554000Y64845000I-200000J0D01*
G01*
X-29104000Y64845000D01*
G75*
G02*
X-29304000Y65045000I0J200000D01*
G01*
X-29304000Y65445000D01*
G75*
G02*
X-29104000Y65645000I200000J0D01*
G01*
G37*
G36*
G01*
X-29104000Y67295000D02*
X-28554000Y67295000D01*
G75*
G02*
X-28354000Y67095000I0J-200000D01*
G01*
X-28354000Y66695000D01*
G75*
G02*
X-28554000Y66495000I-200000J0D01*
G01*
X-29104000Y66495000D01*
G75*
G02*
X-29304000Y66695000I0J200000D01*
G01*
X-29304000Y67095000D01*
G75*
G02*
X-29104000Y67295000I200000J0D01*
G01*
G37*
G04 #@! TD*
G04 #@! TO.C,R24*
G36*
G01*
X-17759000Y93770000D02*
X-18309000Y93770000D01*
G75*
G02*
X-18509000Y93970000I0J200000D01*
G01*
X-18509000Y94370000D01*
G75*
G02*
X-18309000Y94570000I200000J0D01*
G01*
X-17759000Y94570000D01*
G75*
G02*
X-17559000Y94370000I0J-200000D01*
G01*
X-17559000Y93970000D01*
G75*
G02*
X-17759000Y93770000I-200000J0D01*
G01*
G37*
G36*
G01*
X-17759000Y92120000D02*
X-18309000Y92120000D01*
G75*
G02*
X-18509000Y92320000I0J200000D01*
G01*
X-18509000Y92720000D01*
G75*
G02*
X-18309000Y92920000I200000J0D01*
G01*
X-17759000Y92920000D01*
G75*
G02*
X-17559000Y92720000I0J-200000D01*
G01*
X-17559000Y92320000D01*
G75*
G02*
X-17759000Y92120000I-200000J0D01*
G01*
G37*
G04 #@! TD*
G04 #@! TO.C,R23*
G36*
G01*
X-17951000Y32787000D02*
X-17951000Y32237000D01*
G75*
G02*
X-18151000Y32037000I-200000J0D01*
G01*
X-18551000Y32037000D01*
G75*
G02*
X-18751000Y32237000I0J200000D01*
G01*
X-18751000Y32787000D01*
G75*
G02*
X-18551000Y32987000I200000J0D01*
G01*
X-18151000Y32987000D01*
G75*
G02*
X-17951000Y32787000I0J-200000D01*
G01*
G37*
G36*
G01*
X-16301000Y32787000D02*
X-16301000Y32237000D01*
G75*
G02*
X-16501000Y32037000I-200000J0D01*
G01*
X-16901000Y32037000D01*
G75*
G02*
X-17101000Y32237000I0J200000D01*
G01*
X-17101000Y32787000D01*
G75*
G02*
X-16901000Y32987000I200000J0D01*
G01*
X-16501000Y32987000D01*
G75*
G02*
X-16301000Y32787000I0J-200000D01*
G01*
G37*
G04 #@! TD*
G04 #@! TO.C,R22*
G36*
G01*
X-16847000Y90623500D02*
X-16847000Y91173500D01*
G75*
G02*
X-16647000Y91373500I200000J0D01*
G01*
X-16247000Y91373500D01*
G75*
G02*
X-16047000Y91173500I0J-200000D01*
G01*
X-16047000Y90623500D01*
G75*
G02*
X-16247000Y90423500I-200000J0D01*
G01*
X-16647000Y90423500D01*
G75*
G02*
X-16847000Y90623500I0J200000D01*
G01*
G37*
G36*
G01*
X-18497000Y90623500D02*
X-18497000Y91173500D01*
G75*
G02*
X-18297000Y91373500I200000J0D01*
G01*
X-17897000Y91373500D01*
G75*
G02*
X-17697000Y91173500I0J-200000D01*
G01*
X-17697000Y90623500D01*
G75*
G02*
X-17897000Y90423500I-200000J0D01*
G01*
X-18297000Y90423500D01*
G75*
G02*
X-18497000Y90623500I0J200000D01*
G01*
G37*
G04 #@! TD*
G04 #@! TO.C,R21*
G36*
G01*
X-16847000Y88972500D02*
X-16847000Y89522500D01*
G75*
G02*
X-16647000Y89722500I200000J0D01*
G01*
X-16247000Y89722500D01*
G75*
G02*
X-16047000Y89522500I0J-200000D01*
G01*
X-16047000Y88972500D01*
G75*
G02*
X-16247000Y88772500I-200000J0D01*
G01*
X-16647000Y88772500D01*
G75*
G02*
X-16847000Y88972500I0J200000D01*
G01*
G37*
G36*
G01*
X-18497000Y88972500D02*
X-18497000Y89522500D01*
G75*
G02*
X-18297000Y89722500I200000J0D01*
G01*
X-17897000Y89722500D01*
G75*
G02*
X-17697000Y89522500I0J-200000D01*
G01*
X-17697000Y88972500D01*
G75*
G02*
X-17897000Y88772500I-200000J0D01*
G01*
X-18297000Y88772500D01*
G75*
G02*
X-18497000Y88972500I0J200000D01*
G01*
G37*
G04 #@! TD*
G04 #@! TO.C,R18*
G36*
G01*
X-18076500Y42207500D02*
X-18626500Y42207500D01*
G75*
G02*
X-18826500Y42407500I0J200000D01*
G01*
X-18826500Y42807500D01*
G75*
G02*
X-18626500Y43007500I200000J0D01*
G01*
X-18076500Y43007500D01*
G75*
G02*
X-17876500Y42807500I0J-200000D01*
G01*
X-17876500Y42407500D01*
G75*
G02*
X-18076500Y42207500I-200000J0D01*
G01*
G37*
G36*
G01*
X-18076500Y40557500D02*
X-18626500Y40557500D01*
G75*
G02*
X-18826500Y40757500I0J200000D01*
G01*
X-18826500Y41157500D01*
G75*
G02*
X-18626500Y41357500I200000J0D01*
G01*
X-18076500Y41357500D01*
G75*
G02*
X-17876500Y41157500I0J-200000D01*
G01*
X-17876500Y40757500D01*
G75*
G02*
X-18076500Y40557500I-200000J0D01*
G01*
G37*
G04 #@! TD*
G04 #@! TO.C,R17*
G36*
G01*
X-18267000Y97326000D02*
X-18817000Y97326000D01*
G75*
G02*
X-19017000Y97526000I0J200000D01*
G01*
X-19017000Y97926000D01*
G75*
G02*
X-18817000Y98126000I200000J0D01*
G01*
X-18267000Y98126000D01*
G75*
G02*
X-18067000Y97926000I0J-200000D01*
G01*
X-18067000Y97526000D01*
G75*
G02*
X-18267000Y97326000I-200000J0D01*
G01*
G37*
G36*
G01*
X-18267000Y95676000D02*
X-18817000Y95676000D01*
G75*
G02*
X-19017000Y95876000I0J200000D01*
G01*
X-19017000Y96276000D01*
G75*
G02*
X-18817000Y96476000I200000J0D01*
G01*
X-18267000Y96476000D01*
G75*
G02*
X-18067000Y96276000I0J-200000D01*
G01*
X-18067000Y95876000D01*
G75*
G02*
X-18267000Y95676000I-200000J0D01*
G01*
G37*
G04 #@! TD*
G04 #@! TO.C,R15*
G36*
G01*
X-13356000Y29547000D02*
X-12806000Y29547000D01*
G75*
G02*
X-12606000Y29347000I0J-200000D01*
G01*
X-12606000Y28947000D01*
G75*
G02*
X-12806000Y28747000I-200000J0D01*
G01*
X-13356000Y28747000D01*
G75*
G02*
X-13556000Y28947000I0J200000D01*
G01*
X-13556000Y29347000D01*
G75*
G02*
X-13356000Y29547000I200000J0D01*
G01*
G37*
G36*
G01*
X-13356000Y31197000D02*
X-12806000Y31197000D01*
G75*
G02*
X-12606000Y30997000I0J-200000D01*
G01*
X-12606000Y30597000D01*
G75*
G02*
X-12806000Y30397000I-200000J0D01*
G01*
X-13356000Y30397000D01*
G75*
G02*
X-13556000Y30597000I0J200000D01*
G01*
X-13556000Y30997000D01*
G75*
G02*
X-13356000Y31197000I200000J0D01*
G01*
G37*
G04 #@! TD*
G04 #@! TO.C,R14*
G36*
G01*
X-13356000Y85457000D02*
X-12806000Y85457000D01*
G75*
G02*
X-12606000Y85257000I0J-200000D01*
G01*
X-12606000Y84857000D01*
G75*
G02*
X-12806000Y84657000I-200000J0D01*
G01*
X-13356000Y84657000D01*
G75*
G02*
X-13556000Y84857000I0J200000D01*
G01*
X-13556000Y85257000D01*
G75*
G02*
X-13356000Y85457000I200000J0D01*
G01*
G37*
G36*
G01*
X-13356000Y87107000D02*
X-12806000Y87107000D01*
G75*
G02*
X-12606000Y86907000I0J-200000D01*
G01*
X-12606000Y86507000D01*
G75*
G02*
X-12806000Y86307000I-200000J0D01*
G01*
X-13356000Y86307000D01*
G75*
G02*
X-13556000Y86507000I0J200000D01*
G01*
X-13556000Y86907000D01*
G75*
G02*
X-13356000Y87107000I200000J0D01*
G01*
G37*
G04 #@! TD*
G04 #@! TO.C,R13*
G36*
G01*
X-24024000Y63964000D02*
X-23474000Y63964000D01*
G75*
G02*
X-23274000Y63764000I0J-200000D01*
G01*
X-23274000Y63364000D01*
G75*
G02*
X-23474000Y63164000I-200000J0D01*
G01*
X-24024000Y63164000D01*
G75*
G02*
X-24224000Y63364000I0J200000D01*
G01*
X-24224000Y63764000D01*
G75*
G02*
X-24024000Y63964000I200000J0D01*
G01*
G37*
G36*
G01*
X-24024000Y65614000D02*
X-23474000Y65614000D01*
G75*
G02*
X-23274000Y65414000I0J-200000D01*
G01*
X-23274000Y65014000D01*
G75*
G02*
X-23474000Y64814000I-200000J0D01*
G01*
X-24024000Y64814000D01*
G75*
G02*
X-24224000Y65014000I0J200000D01*
G01*
X-24224000Y65414000D01*
G75*
G02*
X-24024000Y65614000I200000J0D01*
G01*
G37*
G04 #@! TD*
G04 #@! TO.C,R12*
G36*
G01*
X-20935000Y29422000D02*
X-20935000Y28872000D01*
G75*
G02*
X-21135000Y28672000I-200000J0D01*
G01*
X-21535000Y28672000D01*
G75*
G02*
X-21735000Y28872000I0J200000D01*
G01*
X-21735000Y29422000D01*
G75*
G02*
X-21535000Y29622000I200000J0D01*
G01*
X-21135000Y29622000D01*
G75*
G02*
X-20935000Y29422000I0J-200000D01*
G01*
G37*
G36*
G01*
X-19285000Y29422000D02*
X-19285000Y28872000D01*
G75*
G02*
X-19485000Y28672000I-200000J0D01*
G01*
X-19885000Y28672000D01*
G75*
G02*
X-20085000Y28872000I0J200000D01*
G01*
X-20085000Y29422000D01*
G75*
G02*
X-19885000Y29622000I200000J0D01*
G01*
X-19485000Y29622000D01*
G75*
G02*
X-19285000Y29422000I0J-200000D01*
G01*
G37*
G04 #@! TD*
G04 #@! TO.C,R11*
G36*
G01*
X-17759000Y30397000D02*
X-18309000Y30397000D01*
G75*
G02*
X-18509000Y30597000I0J200000D01*
G01*
X-18509000Y30997000D01*
G75*
G02*
X-18309000Y31197000I200000J0D01*
G01*
X-17759000Y31197000D01*
G75*
G02*
X-17559000Y30997000I0J-200000D01*
G01*
X-17559000Y30597000D01*
G75*
G02*
X-17759000Y30397000I-200000J0D01*
G01*
G37*
G36*
G01*
X-17759000Y28747000D02*
X-18309000Y28747000D01*
G75*
G02*
X-18509000Y28947000I0J200000D01*
G01*
X-18509000Y29347000D01*
G75*
G02*
X-18309000Y29547000I200000J0D01*
G01*
X-17759000Y29547000D01*
G75*
G02*
X-17559000Y29347000I0J-200000D01*
G01*
X-17559000Y28947000D01*
G75*
G02*
X-17759000Y28747000I-200000J0D01*
G01*
G37*
G04 #@! TD*
G04 #@! TO.C,R10*
G36*
G01*
X-14457000Y30397000D02*
X-15007000Y30397000D01*
G75*
G02*
X-15207000Y30597000I0J200000D01*
G01*
X-15207000Y30997000D01*
G75*
G02*
X-15007000Y31197000I200000J0D01*
G01*
X-14457000Y31197000D01*
G75*
G02*
X-14257000Y30997000I0J-200000D01*
G01*
X-14257000Y30597000D01*
G75*
G02*
X-14457000Y30397000I-200000J0D01*
G01*
G37*
G36*
G01*
X-14457000Y28747000D02*
X-15007000Y28747000D01*
G75*
G02*
X-15207000Y28947000I0J200000D01*
G01*
X-15207000Y29347000D01*
G75*
G02*
X-15007000Y29547000I200000J0D01*
G01*
X-14457000Y29547000D01*
G75*
G02*
X-14257000Y29347000I0J-200000D01*
G01*
X-14257000Y28947000D01*
G75*
G02*
X-14457000Y28747000I-200000J0D01*
G01*
G37*
G04 #@! TD*
G04 #@! TO.C,R9*
G36*
G01*
X-16108000Y30397000D02*
X-16658000Y30397000D01*
G75*
G02*
X-16858000Y30597000I0J200000D01*
G01*
X-16858000Y30997000D01*
G75*
G02*
X-16658000Y31197000I200000J0D01*
G01*
X-16108000Y31197000D01*
G75*
G02*
X-15908000Y30997000I0J-200000D01*
G01*
X-15908000Y30597000D01*
G75*
G02*
X-16108000Y30397000I-200000J0D01*
G01*
G37*
G36*
G01*
X-16108000Y28747000D02*
X-16658000Y28747000D01*
G75*
G02*
X-16858000Y28947000I0J200000D01*
G01*
X-16858000Y29347000D01*
G75*
G02*
X-16658000Y29547000I200000J0D01*
G01*
X-16108000Y29547000D01*
G75*
G02*
X-15908000Y29347000I0J-200000D01*
G01*
X-15908000Y28947000D01*
G75*
G02*
X-16108000Y28747000I-200000J0D01*
G01*
G37*
G04 #@! TD*
G04 #@! TO.C,R8*
G36*
G01*
X-19410000Y86307000D02*
X-19960000Y86307000D01*
G75*
G02*
X-20160000Y86507000I0J200000D01*
G01*
X-20160000Y86907000D01*
G75*
G02*
X-19960000Y87107000I200000J0D01*
G01*
X-19410000Y87107000D01*
G75*
G02*
X-19210000Y86907000I0J-200000D01*
G01*
X-19210000Y86507000D01*
G75*
G02*
X-19410000Y86307000I-200000J0D01*
G01*
G37*
G36*
G01*
X-19410000Y84657000D02*
X-19960000Y84657000D01*
G75*
G02*
X-20160000Y84857000I0J200000D01*
G01*
X-20160000Y85257000D01*
G75*
G02*
X-19960000Y85457000I200000J0D01*
G01*
X-19410000Y85457000D01*
G75*
G02*
X-19210000Y85257000I0J-200000D01*
G01*
X-19210000Y84857000D01*
G75*
G02*
X-19410000Y84657000I-200000J0D01*
G01*
G37*
G04 #@! TD*
G04 #@! TO.C,R7*
G36*
G01*
X-17759000Y86307000D02*
X-18309000Y86307000D01*
G75*
G02*
X-18509000Y86507000I0J200000D01*
G01*
X-18509000Y86907000D01*
G75*
G02*
X-18309000Y87107000I200000J0D01*
G01*
X-17759000Y87107000D01*
G75*
G02*
X-17559000Y86907000I0J-200000D01*
G01*
X-17559000Y86507000D01*
G75*
G02*
X-17759000Y86307000I-200000J0D01*
G01*
G37*
G36*
G01*
X-17759000Y84657000D02*
X-18309000Y84657000D01*
G75*
G02*
X-18509000Y84857000I0J200000D01*
G01*
X-18509000Y85257000D01*
G75*
G02*
X-18309000Y85457000I200000J0D01*
G01*
X-17759000Y85457000D01*
G75*
G02*
X-17559000Y85257000I0J-200000D01*
G01*
X-17559000Y84857000D01*
G75*
G02*
X-17759000Y84657000I-200000J0D01*
G01*
G37*
G04 #@! TD*
G04 #@! TO.C,R6*
G36*
G01*
X-14457000Y86307000D02*
X-15007000Y86307000D01*
G75*
G02*
X-15207000Y86507000I0J200000D01*
G01*
X-15207000Y86907000D01*
G75*
G02*
X-15007000Y87107000I200000J0D01*
G01*
X-14457000Y87107000D01*
G75*
G02*
X-14257000Y86907000I0J-200000D01*
G01*
X-14257000Y86507000D01*
G75*
G02*
X-14457000Y86307000I-200000J0D01*
G01*
G37*
G36*
G01*
X-14457000Y84657000D02*
X-15007000Y84657000D01*
G75*
G02*
X-15207000Y84857000I0J200000D01*
G01*
X-15207000Y85257000D01*
G75*
G02*
X-15007000Y85457000I200000J0D01*
G01*
X-14457000Y85457000D01*
G75*
G02*
X-14257000Y85257000I0J-200000D01*
G01*
X-14257000Y84857000D01*
G75*
G02*
X-14457000Y84657000I-200000J0D01*
G01*
G37*
G04 #@! TD*
G04 #@! TO.C,R5*
G36*
G01*
X-16108000Y86307000D02*
X-16658000Y86307000D01*
G75*
G02*
X-16858000Y86507000I0J200000D01*
G01*
X-16858000Y86907000D01*
G75*
G02*
X-16658000Y87107000I200000J0D01*
G01*
X-16108000Y87107000D01*
G75*
G02*
X-15908000Y86907000I0J-200000D01*
G01*
X-15908000Y86507000D01*
G75*
G02*
X-16108000Y86307000I-200000J0D01*
G01*
G37*
G36*
G01*
X-16108000Y84657000D02*
X-16658000Y84657000D01*
G75*
G02*
X-16858000Y84857000I0J200000D01*
G01*
X-16858000Y85257000D01*
G75*
G02*
X-16658000Y85457000I200000J0D01*
G01*
X-16108000Y85457000D01*
G75*
G02*
X-15908000Y85257000I0J-200000D01*
G01*
X-15908000Y84857000D01*
G75*
G02*
X-16108000Y84657000I-200000J0D01*
G01*
G37*
G04 #@! TD*
G04 #@! TO.C,R4*
G36*
G01*
X-26776000Y64814000D02*
X-27326000Y64814000D01*
G75*
G02*
X-27526000Y65014000I0J200000D01*
G01*
X-27526000Y65414000D01*
G75*
G02*
X-27326000Y65614000I200000J0D01*
G01*
X-26776000Y65614000D01*
G75*
G02*
X-26576000Y65414000I0J-200000D01*
G01*
X-26576000Y65014000D01*
G75*
G02*
X-26776000Y64814000I-200000J0D01*
G01*
G37*
G36*
G01*
X-26776000Y63164000D02*
X-27326000Y63164000D01*
G75*
G02*
X-27526000Y63364000I0J200000D01*
G01*
X-27526000Y63764000D01*
G75*
G02*
X-27326000Y63964000I200000J0D01*
G01*
X-26776000Y63964000D01*
G75*
G02*
X-26576000Y63764000I0J-200000D01*
G01*
X-26576000Y63364000D01*
G75*
G02*
X-26776000Y63164000I-200000J0D01*
G01*
G37*
G04 #@! TD*
G04 #@! TO.C,R3*
G36*
G01*
X-8592000Y17632000D02*
X-8592000Y18182000D01*
G75*
G02*
X-8392000Y18382000I200000J0D01*
G01*
X-7992000Y18382000D01*
G75*
G02*
X-7792000Y18182000I0J-200000D01*
G01*
X-7792000Y17632000D01*
G75*
G02*
X-7992000Y17432000I-200000J0D01*
G01*
X-8392000Y17432000D01*
G75*
G02*
X-8592000Y17632000I0J200000D01*
G01*
G37*
G36*
G01*
X-10242000Y17632000D02*
X-10242000Y18182000D01*
G75*
G02*
X-10042000Y18382000I200000J0D01*
G01*
X-9642000Y18382000D01*
G75*
G02*
X-9442000Y18182000I0J-200000D01*
G01*
X-9442000Y17632000D01*
G75*
G02*
X-9642000Y17432000I-200000J0D01*
G01*
X-10042000Y17432000D01*
G75*
G02*
X-10242000Y17632000I0J200000D01*
G01*
G37*
G04 #@! TD*
G04 #@! TO.C,R2*
G36*
G01*
X-34080000Y36246000D02*
X-34080000Y35696000D01*
G75*
G02*
X-34280000Y35496000I-200000J0D01*
G01*
X-34680000Y35496000D01*
G75*
G02*
X-34880000Y35696000I0J200000D01*
G01*
X-34880000Y36246000D01*
G75*
G02*
X-34680000Y36446000I200000J0D01*
G01*
X-34280000Y36446000D01*
G75*
G02*
X-34080000Y36246000I0J-200000D01*
G01*
G37*
G36*
G01*
X-32430000Y36246000D02*
X-32430000Y35696000D01*
G75*
G02*
X-32630000Y35496000I-200000J0D01*
G01*
X-33030000Y35496000D01*
G75*
G02*
X-33230000Y35696000I0J200000D01*
G01*
X-33230000Y36246000D01*
G75*
G02*
X-33030000Y36446000I200000J0D01*
G01*
X-32630000Y36446000D01*
G75*
G02*
X-32430000Y36246000I0J-200000D01*
G01*
G37*
G04 #@! TD*
G04 #@! TO.C,R1*
G36*
G01*
X-33953000Y92253000D02*
X-33953000Y91703000D01*
G75*
G02*
X-34153000Y91503000I-200000J0D01*
G01*
X-34553000Y91503000D01*
G75*
G02*
X-34753000Y91703000I0J200000D01*
G01*
X-34753000Y92253000D01*
G75*
G02*
X-34553000Y92453000I200000J0D01*
G01*
X-34153000Y92453000D01*
G75*
G02*
X-33953000Y92253000I0J-200000D01*
G01*
G37*
G36*
G01*
X-32303000Y92253000D02*
X-32303000Y91703000D01*
G75*
G02*
X-32503000Y91503000I-200000J0D01*
G01*
X-32903000Y91503000D01*
G75*
G02*
X-33103000Y91703000I0J200000D01*
G01*
X-33103000Y92253000D01*
G75*
G02*
X-32903000Y92453000I200000J0D01*
G01*
X-32503000Y92453000D01*
G75*
G02*
X-32303000Y92253000I0J-200000D01*
G01*
G37*
G04 #@! TD*
D10*
G04 #@! TO.C,Q4*
X-7620000Y63895000D03*
X-6670000Y61895000D03*
X-8570000Y61895000D03*
G04 #@! TD*
G04 #@! TO.C,Q3*
X-28829000Y68499000D03*
X-29779000Y70499000D03*
X-27879000Y70499000D03*
G04 #@! TD*
D11*
G04 #@! TO.C,Q2*
X-19814500Y38115000D03*
X-19814500Y36815000D03*
X-21714500Y37465000D03*
X-19814500Y37465000D03*
X-21714500Y36815000D03*
X-21714500Y38115000D03*
G04 #@! TD*
G04 #@! TO.C,Q1*
X-19814500Y93169500D03*
X-19814500Y91869500D03*
X-21714500Y92519500D03*
X-19814500Y92519500D03*
X-21714500Y91869500D03*
X-21714500Y93169500D03*
G04 #@! TD*
D12*
G04 #@! TO.C,D2*
X-23368000Y103632000D03*
X-23368000Y106932000D03*
G04 #@! TD*
G04 #@! TO.C,D1*
X-6096000Y103380000D03*
X-6096000Y106680000D03*
G04 #@! TD*
G04 #@! TO.C,C18*
G36*
G01*
X-17343000Y57430000D02*
X-17343000Y56930000D01*
G75*
G02*
X-17568000Y56705000I-225000J0D01*
G01*
X-18018000Y56705000D01*
G75*
G02*
X-18243000Y56930000I0J225000D01*
G01*
X-18243000Y57430000D01*
G75*
G02*
X-18018000Y57655000I225000J0D01*
G01*
X-17568000Y57655000D01*
G75*
G02*
X-17343000Y57430000I0J-225000D01*
G01*
G37*
G36*
G01*
X-15793000Y57430000D02*
X-15793000Y56930000D01*
G75*
G02*
X-16018000Y56705000I-225000J0D01*
G01*
X-16468000Y56705000D01*
G75*
G02*
X-16693000Y56930000I0J225000D01*
G01*
X-16693000Y57430000D01*
G75*
G02*
X-16468000Y57655000I225000J0D01*
G01*
X-16018000Y57655000D01*
G75*
G02*
X-15793000Y57430000I0J-225000D01*
G01*
G37*
G04 #@! TD*
G04 #@! TO.C,C16*
G36*
G01*
X-12315000Y64064000D02*
X-11815000Y64064000D01*
G75*
G02*
X-11590000Y63839000I0J-225000D01*
G01*
X-11590000Y63389000D01*
G75*
G02*
X-11815000Y63164000I-225000J0D01*
G01*
X-12315000Y63164000D01*
G75*
G02*
X-12540000Y63389000I0J225000D01*
G01*
X-12540000Y63839000D01*
G75*
G02*
X-12315000Y64064000I225000J0D01*
G01*
G37*
G36*
G01*
X-12315000Y65614000D02*
X-11815000Y65614000D01*
G75*
G02*
X-11590000Y65389000I0J-225000D01*
G01*
X-11590000Y64939000D01*
G75*
G02*
X-11815000Y64714000I-225000J0D01*
G01*
X-12315000Y64714000D01*
G75*
G02*
X-12540000Y64939000I0J225000D01*
G01*
X-12540000Y65389000D01*
G75*
G02*
X-12315000Y65614000I225000J0D01*
G01*
G37*
G04 #@! TD*
G04 #@! TO.C,C15*
G36*
G01*
X-28900000Y16379000D02*
X-28900000Y15879000D01*
G75*
G02*
X-29125000Y15654000I-225000J0D01*
G01*
X-29575000Y15654000D01*
G75*
G02*
X-29800000Y15879000I0J225000D01*
G01*
X-29800000Y16379000D01*
G75*
G02*
X-29575000Y16604000I225000J0D01*
G01*
X-29125000Y16604000D01*
G75*
G02*
X-28900000Y16379000I0J-225000D01*
G01*
G37*
G36*
G01*
X-27350000Y16379000D02*
X-27350000Y15879000D01*
G75*
G02*
X-27575000Y15654000I-225000J0D01*
G01*
X-28025000Y15654000D01*
G75*
G02*
X-28250000Y15879000I0J225000D01*
G01*
X-28250000Y16379000D01*
G75*
G02*
X-28025000Y16604000I225000J0D01*
G01*
X-27575000Y16604000D01*
G75*
G02*
X-27350000Y16379000I0J-225000D01*
G01*
G37*
G04 #@! TD*
G04 #@! TO.C,C14*
G36*
G01*
X-28900000Y72416000D02*
X-28900000Y71916000D01*
G75*
G02*
X-29125000Y71691000I-225000J0D01*
G01*
X-29575000Y71691000D01*
G75*
G02*
X-29800000Y71916000I0J225000D01*
G01*
X-29800000Y72416000D01*
G75*
G02*
X-29575000Y72641000I225000J0D01*
G01*
X-29125000Y72641000D01*
G75*
G02*
X-28900000Y72416000I0J-225000D01*
G01*
G37*
G36*
G01*
X-27350000Y72416000D02*
X-27350000Y71916000D01*
G75*
G02*
X-27575000Y71691000I-225000J0D01*
G01*
X-28025000Y71691000D01*
G75*
G02*
X-28250000Y71916000I0J225000D01*
G01*
X-28250000Y72416000D01*
G75*
G02*
X-28025000Y72641000I225000J0D01*
G01*
X-27575000Y72641000D01*
G75*
G02*
X-27350000Y72416000I0J-225000D01*
G01*
G37*
G04 #@! TD*
G04 #@! TO.C,C13*
G36*
G01*
X-17787500Y34476500D02*
X-17787500Y33976500D01*
G75*
G02*
X-18012500Y33751500I-225000J0D01*
G01*
X-18462500Y33751500D01*
G75*
G02*
X-18687500Y33976500I0J225000D01*
G01*
X-18687500Y34476500D01*
G75*
G02*
X-18462500Y34701500I225000J0D01*
G01*
X-18012500Y34701500D01*
G75*
G02*
X-17787500Y34476500I0J-225000D01*
G01*
G37*
G36*
G01*
X-16237500Y34476500D02*
X-16237500Y33976500D01*
G75*
G02*
X-16462500Y33751500I-225000J0D01*
G01*
X-16912500Y33751500D01*
G75*
G02*
X-17137500Y33976500I0J225000D01*
G01*
X-17137500Y34476500D01*
G75*
G02*
X-16912500Y34701500I225000J0D01*
G01*
X-16462500Y34701500D01*
G75*
G02*
X-16237500Y34476500I0J-225000D01*
G01*
G37*
G04 #@! TD*
G04 #@! TO.C,C12*
G36*
G01*
X-13772000Y90648500D02*
X-13772000Y91148500D01*
G75*
G02*
X-13547000Y91373500I225000J0D01*
G01*
X-13097000Y91373500D01*
G75*
G02*
X-12872000Y91148500I0J-225000D01*
G01*
X-12872000Y90648500D01*
G75*
G02*
X-13097000Y90423500I-225000J0D01*
G01*
X-13547000Y90423500D01*
G75*
G02*
X-13772000Y90648500I0J225000D01*
G01*
G37*
G36*
G01*
X-15322000Y90648500D02*
X-15322000Y91148500D01*
G75*
G02*
X-15097000Y91373500I225000J0D01*
G01*
X-14647000Y91373500D01*
G75*
G02*
X-14422000Y91148500I0J-225000D01*
G01*
X-14422000Y90648500D01*
G75*
G02*
X-14647000Y90423500I-225000J0D01*
G01*
X-15097000Y90423500D01*
G75*
G02*
X-15322000Y90648500I0J225000D01*
G01*
G37*
G04 #@! TD*
G04 #@! TO.C,C11*
G36*
G01*
X-13772000Y88997500D02*
X-13772000Y89497500D01*
G75*
G02*
X-13547000Y89722500I225000J0D01*
G01*
X-13097000Y89722500D01*
G75*
G02*
X-12872000Y89497500I0J-225000D01*
G01*
X-12872000Y88997500D01*
G75*
G02*
X-13097000Y88772500I-225000J0D01*
G01*
X-13547000Y88772500D01*
G75*
G02*
X-13772000Y88997500I0J225000D01*
G01*
G37*
G36*
G01*
X-15322000Y88997500D02*
X-15322000Y89497500D01*
G75*
G02*
X-15097000Y89722500I225000J0D01*
G01*
X-14647000Y89722500D01*
G75*
G02*
X-14422000Y89497500I0J-225000D01*
G01*
X-14422000Y88997500D01*
G75*
G02*
X-14647000Y88772500I-225000J0D01*
G01*
X-15097000Y88772500D01*
G75*
G02*
X-15322000Y88997500I0J225000D01*
G01*
G37*
G04 #@! TD*
M02*
