G04 #@! TF.GenerationSoftware,KiCad,Pcbnew,(5.1.10)-1*
G04 #@! TF.CreationDate,2021-12-11T11:34:55-08:00*
G04 #@! TF.ProjectId,paradox,70617261-646f-4782-9e6b-696361645f70,rev?*
G04 #@! TF.SameCoordinates,Original*
G04 #@! TF.FileFunction,Copper,L2,Bot*
G04 #@! TF.FilePolarity,Positive*
%FSLAX46Y46*%
G04 Gerber Fmt 4.6, Leading zero omitted, Abs format (unit mm)*
G04 Created by KiCad (PCBNEW (5.1.10)-1) date 2021-12-11 11:34:55*
%MOMM*%
%LPD*%
G01*
G04 APERTURE LIST*
G04 #@! TA.AperFunction,ComponentPad*
%ADD10C,1.800000*%
G04 #@! TD*
G04 #@! TA.AperFunction,ComponentPad*
%ADD11R,2.000000X2.000000*%
G04 #@! TD*
G04 #@! TA.AperFunction,ComponentPad*
%ADD12C,2.000000*%
G04 #@! TD*
G04 #@! TA.AperFunction,ComponentPad*
%ADD13R,2.300000X2.700000*%
G04 #@! TD*
G04 #@! TA.AperFunction,ComponentPad*
%ADD14C,1.700000*%
G04 #@! TD*
G04 #@! TA.AperFunction,ComponentPad*
%ADD15O,1.500000X1.200000*%
G04 #@! TD*
G04 #@! TA.AperFunction,ComponentPad*
%ADD16O,2.100000X1.200000*%
G04 #@! TD*
G04 #@! TA.AperFunction,ComponentPad*
%ADD17O,2.100000X1.100000*%
G04 #@! TD*
G04 #@! TA.AperFunction,ComponentPad*
%ADD18C,2.850000*%
G04 #@! TD*
G04 #@! TA.AperFunction,ComponentPad*
%ADD19R,2.300000X1.700000*%
G04 #@! TD*
G04 #@! TA.AperFunction,ViaPad*
%ADD20C,0.800000*%
G04 #@! TD*
G04 #@! TA.AperFunction,ViaPad*
%ADD21C,0.900000*%
G04 #@! TD*
G04 #@! TA.AperFunction,ViaPad*
%ADD22C,0.600000*%
G04 #@! TD*
G04 #@! TA.AperFunction,Conductor*
%ADD23C,0.900000*%
G04 #@! TD*
G04 #@! TA.AperFunction,Conductor*
%ADD24C,0.400000*%
G04 #@! TD*
G04 #@! TA.AperFunction,Conductor*
%ADD25C,0.250000*%
G04 #@! TD*
G04 #@! TA.AperFunction,Conductor*
%ADD26C,0.254000*%
G04 #@! TD*
G04 #@! TA.AperFunction,Conductor*
%ADD27C,0.100000*%
G04 #@! TD*
G04 APERTURE END LIST*
D10*
G04 #@! TO.P,R20,2*
G04 #@! TO.N,Vs_B*
X-20764500Y40965000D03*
G04 #@! TO.P,R20,1*
G04 #@! TO.N,GND*
X-20764500Y33965000D03*
G04 #@! TD*
G04 #@! TO.P,R19,2*
G04 #@! TO.N,Vs_A*
X-20764500Y96019500D03*
G04 #@! TO.P,R19,1*
G04 #@! TO.N,GND*
X-20764500Y89019500D03*
G04 #@! TD*
D11*
G04 #@! TO.P,RV9,1*
G04 #@! TO.N,Net-(RV9-Pad1)*
X-18254001Y52865000D03*
D12*
G04 #@! TO.P,RV9,2*
X-20794001Y52865000D03*
G04 #@! TO.P,RV9,3*
G04 #@! TO.N,Net-(R25-Pad2)*
X-23334001Y52865000D03*
G04 #@! TD*
G04 #@! TO.P,RV8,3*
G04 #@! TO.N,Net-(RV8-Pad3)*
X-15890000Y43535000D03*
G04 #@! TO.P,RV8,2*
G04 #@! TO.N,Net-(R18-Pad2)*
X-15890000Y40995000D03*
D11*
G04 #@! TO.P,RV8,1*
G04 #@! TO.N,Net-(R15-Pad1)*
X-15890000Y38455000D03*
G04 #@! TD*
D12*
G04 #@! TO.P,RV7,3*
G04 #@! TO.N,Net-(RV7-Pad3)*
X-15890000Y99454000D03*
G04 #@! TO.P,RV7,2*
G04 #@! TO.N,Net-(R17-Pad2)*
X-15890000Y96914000D03*
D11*
G04 #@! TO.P,RV7,1*
G04 #@! TO.N,Net-(R14-Pad1)*
X-15890000Y94374000D03*
G04 #@! TD*
D13*
G04 #@! TO.P,RV2,*
G04 #@! TO.N,*
X-35105000Y82199000D03*
X-26305000Y82199000D03*
D14*
G04 #@! TO.P,RV2,3*
G04 #@! TO.N,+12V*
X-33205000Y75199000D03*
G04 #@! TO.P,RV2,2*
G04 #@! TO.N,TUNE_A*
X-30705000Y75199000D03*
G04 #@! TO.P,RV2,1*
G04 #@! TO.N,-12V*
X-28205000Y75199000D03*
G04 #@! TD*
D13*
G04 #@! TO.P,RV5,*
G04 #@! TO.N,*
X-35105000Y26280000D03*
X-26305000Y26280000D03*
D14*
G04 #@! TO.P,RV5,3*
G04 #@! TO.N,+12V*
X-33205000Y19280000D03*
G04 #@! TO.P,RV5,2*
G04 #@! TO.N,TUNE_B*
X-30705000Y19280000D03*
G04 #@! TO.P,RV5,1*
G04 #@! TO.N,-12V*
X-28205000Y19280000D03*
G04 #@! TD*
G04 #@! TO.P,J6,10*
G04 #@! TO.N,Net-(D1-Pad2)*
X-19880000Y103378000D03*
G04 #@! TO.P,J6,9*
X-19880000Y105918000D03*
G04 #@! TO.P,J6,8*
G04 #@! TO.N,GND*
X-17340000Y103378000D03*
G04 #@! TO.P,J6,7*
X-17340000Y105918000D03*
G04 #@! TO.P,J6,6*
X-14800000Y103378000D03*
G04 #@! TO.P,J6,5*
X-14800000Y105918000D03*
G04 #@! TO.P,J6,4*
X-12260000Y103378000D03*
G04 #@! TO.P,J6,3*
X-12260000Y105918000D03*
G04 #@! TO.P,J6,2*
G04 #@! TO.N,Net-(D2-Pad1)*
X-9720000Y103378000D03*
G04 #@! TO.P,J6,1*
X-9720000Y105918000D03*
G04 #@! TD*
D15*
G04 #@! TO.P,J8,S*
G04 #@! TO.N,GND*
X-34000000Y879501D03*
D16*
G04 #@! TO.P,J8,TN*
G04 #@! TO.N,Net-(J8-PadTN)*
X-34000000Y3120001D03*
D17*
G04 #@! TO.P,J8,T*
G04 #@! TO.N,Net-(J8-PadT)*
X-34000000Y11420001D03*
G04 #@! TD*
D15*
G04 #@! TO.P,J5,S*
G04 #@! TO.N,GND*
X-4000000Y879500D03*
D16*
G04 #@! TO.P,J5,TN*
X-4000000Y3120000D03*
D17*
G04 #@! TO.P,J5,T*
G04 #@! TO.N,1V_B*
X-4000000Y11420000D03*
G04 #@! TD*
D15*
G04 #@! TO.P,J4,S*
G04 #@! TO.N,GND*
X-7214000Y34443500D03*
D16*
G04 #@! TO.P,J4,TN*
X-7214000Y36684000D03*
D17*
G04 #@! TO.P,J4,T*
G04 #@! TO.N,EXT_SYNC*
X-7214000Y44984000D03*
G04 #@! TD*
D15*
G04 #@! TO.P,J3,S*
G04 #@! TO.N,GND*
X-14000000Y56798500D03*
D16*
G04 #@! TO.P,J3,TN*
X-14000000Y59039000D03*
D17*
G04 #@! TO.P,J3,T*
G04 #@! TO.N,EXT_FM*
X-14000000Y67339000D03*
G04 #@! TD*
D15*
G04 #@! TO.P,J2,S*
G04 #@! TO.N,GND*
X-4000000Y56798500D03*
D16*
G04 #@! TO.P,J2,TN*
X-4000000Y59039000D03*
D17*
G04 #@! TO.P,J2,T*
G04 #@! TO.N,1V_A*
X-4000000Y67339000D03*
G04 #@! TD*
D15*
G04 #@! TO.P,J1,S*
G04 #@! TO.N,GND*
X-7214000Y101603500D03*
D16*
G04 #@! TO.P,J1,TN*
X-7214000Y99363000D03*
D17*
G04 #@! TO.P,J1,T*
G04 #@! TO.N,LINKED*
X-7214000Y91063000D03*
G04 #@! TD*
D15*
G04 #@! TO.P,J11,S*
G04 #@! TO.N,GND*
X-34000000Y56798500D03*
D16*
G04 #@! TO.P,J11,TN*
G04 #@! TO.N,Net-(J11-PadTN)*
X-34000000Y59039000D03*
D17*
G04 #@! TO.P,J11,T*
G04 #@! TO.N,Net-(J11-PadT)*
X-34000000Y67339000D03*
G04 #@! TD*
D15*
G04 #@! TO.P,J10,S*
G04 #@! TO.N,GND*
X-14000000Y879500D03*
D16*
G04 #@! TO.P,J10,TN*
X-14000000Y3120000D03*
D17*
G04 #@! TO.P,J10,T*
G04 #@! TO.N,Net-(J10-PadT)*
X-14000000Y11420000D03*
G04 #@! TD*
D15*
G04 #@! TO.P,J9,S*
G04 #@! TO.N,GND*
X-24000000Y879500D03*
D16*
G04 #@! TO.P,J9,TN*
G04 #@! TO.N,Net-(J9-PadTN)*
X-24000000Y3120000D03*
D17*
G04 #@! TO.P,J9,T*
G04 #@! TO.N,Net-(J9-PadT)*
X-24000000Y11420000D03*
G04 #@! TD*
D15*
G04 #@! TO.P,J7,S*
G04 #@! TO.N,GND*
X-24000000Y56798500D03*
D16*
G04 #@! TO.P,J7,TN*
G04 #@! TO.N,Net-(J7-PadTN)*
X-24000000Y59039000D03*
D17*
G04 #@! TO.P,J7,T*
G04 #@! TO.N,Net-(J7-PadT)*
X-24000000Y67339000D03*
G04 #@! TD*
D18*
G04 #@! TO.P,SW1,3*
G04 #@! TO.N,OSC_B*
X-3699000Y50019000D03*
G04 #@! TO.P,SW1,2*
G04 #@! TO.N,Net-(RV9-Pad1)*
X-8399000Y50019000D03*
G04 #@! TO.P,SW1,1*
G04 #@! TO.N,EXT_SYNC*
X-13099000Y50019000D03*
G04 #@! TD*
D19*
G04 #@! TO.P,RV6,*
G04 #@! TO.N,*
X-14750000Y23191000D03*
X-5250000Y23191000D03*
D14*
G04 #@! TO.P,RV6,3*
G04 #@! TO.N,Net-(R3-Pad1)*
X-12500000Y15691000D03*
G04 #@! TO.P,RV6,2*
G04 #@! TO.N,FM_A2B*
X-10000000Y15691000D03*
G04 #@! TO.P,RV6,1*
G04 #@! TO.N,GND*
X-7500000Y15691000D03*
G04 #@! TD*
D19*
G04 #@! TO.P,RV4,*
G04 #@! TO.N,*
X-32750000Y43528000D03*
X-23250000Y43528000D03*
D14*
G04 #@! TO.P,RV4,3*
G04 #@! TO.N,Net-(R2-Pad1)*
X-30500000Y36028000D03*
G04 #@! TO.P,RV4,2*
G04 #@! TO.N,FREQ_B*
X-28000000Y36028000D03*
G04 #@! TO.P,RV4,1*
G04 #@! TO.N,-12V*
X-25500000Y36028000D03*
G04 #@! TD*
D19*
G04 #@! TO.P,RV3,*
G04 #@! TO.N,*
X-14750000Y79109000D03*
X-5250000Y79109000D03*
D14*
G04 #@! TO.P,RV3,3*
G04 #@! TO.N,TRI_A*
X-12500000Y71609000D03*
G04 #@! TO.P,RV3,2*
G04 #@! TO.N,S_MOD*
X-10000000Y71609000D03*
G04 #@! TO.P,RV3,1*
G04 #@! TO.N,GND*
X-7500000Y71609000D03*
G04 #@! TD*
D19*
G04 #@! TO.P,RV1,*
G04 #@! TO.N,*
X-32750000Y99447000D03*
X-23250000Y99447000D03*
D14*
G04 #@! TO.P,RV1,3*
G04 #@! TO.N,Net-(R1-Pad1)*
X-30500000Y91947000D03*
G04 #@! TO.P,RV1,2*
G04 #@! TO.N,FREQ_A*
X-28000000Y91947000D03*
G04 #@! TO.P,RV1,1*
G04 #@! TO.N,-12V*
X-25500000Y91947000D03*
G04 #@! TD*
D20*
G04 #@! TO.N,GND*
X-13589000Y83342000D03*
X-24257000Y61371000D03*
X-14986000Y72136000D03*
X-17475396Y6233979D03*
X-14986000Y16637000D03*
X-25146000Y18542000D03*
X-24003000Y20066000D03*
X-26289000Y22352000D03*
X-13589000Y27432000D03*
X-4572000Y82550000D03*
X-25146000Y74549000D03*
X-24003000Y75946000D03*
X-27178000Y77216000D03*
D21*
X-20955000Y13208000D03*
D20*
X-3686845Y85008819D03*
X-27051000Y66167000D03*
X-3048000Y102616000D03*
X-27813000Y106582000D03*
X-30353000Y16129000D03*
X-4572000Y26543000D03*
X-4191000Y28702000D03*
X-5715000Y61849000D03*
D21*
X-24638000Y5334000D03*
X-28130500Y7493000D03*
X-12827000Y61341000D03*
D20*
X-14843831Y63738990D03*
D21*
X-10477500Y6032500D03*
X-10033000Y9906000D03*
X-30734000Y70548500D03*
D20*
G04 #@! TO.N,+12V*
X-1016000Y108712000D03*
X-35814000Y91978000D03*
X-35941000Y35971000D03*
D21*
X-35814000Y90551000D03*
D22*
G04 #@! TO.N,S_MOD*
X-3172449Y70482449D03*
X-2918845Y86382167D03*
G04 #@! TO.N,EXT_FM*
X-2032000Y67183000D03*
X-2784010Y89346918D03*
G04 #@! TO.N,FM_A2B*
X-4318000Y14351000D03*
X-5089510Y33518490D03*
G04 #@! TO.N,LINKED*
X-7239000Y88803000D03*
X-2159000Y91059000D03*
X-2032000Y33020000D03*
G04 #@! TO.N,1V_A*
X-3234021Y87709395D03*
G04 #@! TO.N,1V_B*
X-4191000Y32004000D03*
G04 #@! TO.N,Net-(J8-PadT)*
X-34036000Y4826000D03*
G04 #@! TO.N,FREQ_A*
X-28000000Y89849000D03*
G04 #@! TO.N,TUNE_A*
X-30705000Y84674500D03*
X-30705000Y86643000D03*
G04 #@! TO.N,TUNE_B*
X-29591000Y29083000D03*
G04 #@! TO.N,Net-(R14-Pad1)*
X-11938000Y87533000D03*
G04 #@! TO.N,Net-(R15-Pad1)*
X-13081000Y31623000D03*
G04 #@! TO.N,Net-(R17-Pad2)*
X-11049000Y87533000D03*
G04 #@! TO.N,Net-(R18-Pad2)*
X-11811000Y31623000D03*
G04 #@! TO.N,Net-(R25-Pad2)*
X-28829000Y63119000D03*
X-26416000Y55245000D03*
G04 #@! TO.N,OSC_B*
X-3048000Y13589000D03*
G04 #@! TO.N,SQR_MIX*
X-20447000Y6858000D03*
X-20447000Y9017000D03*
G04 #@! TO.N,SAW_MIX*
X-2058051Y55274019D03*
X-27178000Y55880000D03*
X-31242000Y64262000D03*
X-952500Y4699000D03*
G04 #@! TO.N,Vs_A*
X-22542500Y92519500D03*
G04 #@! TO.N,Iabc_A*
X-22225000Y84104000D03*
X-22225000Y87909000D03*
G04 #@! TO.N,Iabc_B*
X-22352000Y27241500D03*
X-22352000Y32448500D03*
G04 #@! TO.N,Net-(Q4-Pad3)*
X-9017000Y60101000D03*
X-9017000Y63690500D03*
G04 #@! TO.N,OSC_A*
X-25400000Y66040000D03*
X-25400000Y55245000D03*
X-2413000Y17907000D03*
X-2482693Y54523430D03*
G04 #@! TO.N,SQR_A*
X-19400000Y69200000D03*
X-19367500Y73904500D03*
G04 #@! TD*
D23*
G04 #@! TO.N,+12V*
X-36068000Y108712000D02*
X-37084000Y107696000D01*
D24*
X-35814000Y91978000D02*
X-36830000Y91978000D01*
X-36830000Y91978000D02*
X-37084000Y92232000D01*
D23*
X-37084000Y107696000D02*
X-37084000Y91313000D01*
D24*
X-36830000Y35971000D02*
X-37084000Y35717000D01*
D23*
X-37084000Y35717000D02*
X-37084000Y19207000D01*
D24*
X-35941000Y35971000D02*
X-36830000Y35971000D01*
D23*
X-37084000Y75087000D02*
X-37084000Y35717000D01*
X-37084000Y90581000D02*
X-37084000Y75087000D01*
X-37084000Y92232000D02*
X-37084000Y90581000D01*
X-1016000Y108712000D02*
X-36068000Y108712000D01*
D24*
X-36972000Y75199000D02*
X-37084000Y75087000D01*
X-33205000Y75199000D02*
X-36972000Y75199000D01*
X-37010999Y19280001D02*
X-37084000Y19207000D01*
X-33205000Y19280001D02*
X-37010999Y19280001D01*
X-37054000Y90551000D02*
X-37084000Y90581000D01*
X-35814000Y90551000D02*
X-37054000Y90551000D01*
D25*
G04 #@! TO.N,S_MOD*
X-2493031Y71161867D02*
X-2493031Y85956353D01*
X-2493031Y85956353D02*
X-2918845Y86382167D01*
X-3172449Y70482449D02*
X-2493031Y71161867D01*
G04 #@! TO.N,EXT_FM*
X-2032000Y67183000D02*
X-1593009Y67621991D01*
X-1593009Y88155917D02*
X-2784010Y89346918D01*
X-1593009Y67621991D02*
X-1593009Y88155917D01*
G04 #@! TO.N,FM_A2B*
X-4318000Y14351000D02*
X-4318000Y20193000D01*
X-2752999Y29549999D02*
X-5089510Y31886510D01*
X-4318000Y20193000D02*
X-2752999Y21758001D01*
X-5089510Y31886510D02*
X-5089510Y33518490D01*
X-2752999Y29168999D02*
X-2752999Y29549999D01*
X-2752999Y21758001D02*
X-2752999Y29168999D01*
G04 #@! TO.N,LINKED*
X-7239000Y91038000D02*
X-7214000Y91063000D01*
X-7239000Y88803000D02*
X-7239000Y91038000D01*
X-2159000Y91059000D02*
X-1141813Y90041813D01*
X-1141813Y51324637D02*
X-1048977Y51231801D01*
X-1141813Y90041813D02*
X-1141813Y51324637D01*
X-1048977Y34765023D02*
X-1048977Y34003023D01*
X-1048977Y34003023D02*
X-2032000Y33020000D01*
X-1048977Y51231801D02*
X-1048977Y34765023D01*
G04 #@! TO.N,1V_A*
X-2043020Y86518394D02*
X-3234021Y87709395D01*
X-4000000Y67339000D02*
X-2043020Y69295980D01*
X-2043020Y69295980D02*
X-2043020Y86518394D01*
G04 #@! TO.N,1V_B*
X-3692998Y20181591D02*
X-3692998Y11727002D01*
X-4191000Y32004000D02*
X-2302988Y30115988D01*
X-2302988Y21571601D02*
X-3692998Y20181591D01*
X-2302988Y30115988D02*
X-2302988Y21571601D01*
X-3692998Y11727002D02*
X-4000000Y11420000D01*
G04 #@! TO.N,Net-(J8-PadT)*
X-34036000Y11384001D02*
X-34000000Y11420001D01*
X-34036000Y4826000D02*
X-34036000Y11384001D01*
G04 #@! TO.N,FREQ_A*
X-28000000Y91947000D02*
X-28000000Y89849000D01*
G04 #@! TO.N,TUNE_A*
X-30705000Y84674500D02*
X-30705000Y86643000D01*
G04 #@! TO.N,TUNE_B*
X-29683000Y28991000D02*
X-29591000Y29083000D01*
X-30705000Y27969000D02*
X-29591000Y29083000D01*
X-30705000Y19280001D02*
X-30705000Y27969000D01*
G04 #@! TO.N,Net-(R14-Pad1)*
X-11938000Y90422000D02*
X-15890000Y94374000D01*
X-11938000Y87533000D02*
X-11938000Y90422000D01*
G04 #@! TO.N,Net-(R15-Pad1)*
X-13081000Y35646000D02*
X-15890000Y38455000D01*
X-13081000Y31623000D02*
X-13081000Y35646000D01*
G04 #@! TO.N,Net-(R17-Pad2)*
X-11049000Y92073000D02*
X-11049000Y87533000D01*
X-15890000Y96914000D02*
X-11049000Y92073000D01*
G04 #@! TO.N,Net-(R18-Pad2)*
X-11811000Y36916000D02*
X-15890000Y40995000D01*
X-11811000Y31623000D02*
X-11811000Y36916000D01*
G04 #@! TO.N,Net-(R25-Pad2)*
X-26416000Y60706000D02*
X-28829000Y63119000D01*
X-26416000Y55245000D02*
X-26416000Y60706000D01*
G04 #@! TO.N,OSC_B*
X-3048000Y13589000D02*
X-3048000Y20190178D01*
X-3048000Y20190178D02*
X-1852977Y21385201D01*
X-2413000Y48733000D02*
X-3699000Y50019000D01*
X-2413000Y35090825D02*
X-2413000Y48733000D01*
X-3557024Y33946802D02*
X-2413000Y35090825D01*
X-1852977Y21385201D02*
X-1852977Y30643151D01*
X-3557024Y32347198D02*
X-3557024Y33946802D01*
X-1852977Y30643151D02*
X-3557024Y32347198D01*
G04 #@! TO.N,SQR_MIX*
X-20447000Y6858000D02*
X-20447000Y9017000D01*
G04 #@! TO.N,SAW_MIX*
X-27178000Y60198000D02*
X-31242000Y64262000D01*
X-27178000Y55880000D02*
X-27178000Y60198000D01*
X-952955Y4699455D02*
X-952500Y4699000D01*
X-2657002Y32719998D02*
X-952955Y31015951D01*
X-1498988Y34732016D02*
X-2657002Y33574002D01*
X-1498988Y51045401D02*
X-1498988Y34732016D01*
X-1758052Y51304467D02*
X-1498988Y51045401D01*
X-952955Y31015951D02*
X-952955Y4699455D01*
X-1758052Y54974020D02*
X-1758052Y51304467D01*
X-2657002Y33574002D02*
X-2657002Y32719998D01*
X-2058051Y55274019D02*
X-1758052Y54974020D01*
G04 #@! TO.N,Vs_A*
X-22542500Y94241500D02*
X-20764500Y96019500D01*
X-22542500Y92519500D02*
X-22542500Y94241500D01*
G04 #@! TO.N,Iabc_A*
X-22225000Y84104000D02*
X-22225000Y87909000D01*
G04 #@! TO.N,Iabc_B*
X-22352000Y32448500D02*
X-22352000Y27241500D01*
G04 #@! TO.N,Net-(Q4-Pad3)*
X-9017000Y60101000D02*
X-9017000Y63657000D01*
X-9017000Y63657000D02*
X-9017000Y63690500D01*
G04 #@! TO.N,OSC_A*
X-25400000Y66040000D02*
X-25400000Y55245000D01*
X-1948999Y50859002D02*
X-2482693Y51392696D01*
X-1948999Y34918416D02*
X-1948999Y50859002D01*
X-3107013Y33760402D02*
X-1948999Y34918416D01*
X-2482693Y51392696D02*
X-2482693Y54523430D01*
X-3107013Y32533598D02*
X-3107013Y33760402D01*
X-1402966Y30829551D02*
X-3107013Y32533598D01*
X-2413000Y19950932D02*
X-1402966Y20960966D01*
X-2413000Y17907000D02*
X-2413000Y19950932D01*
X-1402966Y20960966D02*
X-1402966Y30829551D01*
G04 #@! TO.N,SQR_A*
X-19400000Y73872000D02*
X-19367500Y73904500D01*
X-19400000Y69200000D02*
X-19400000Y73872000D01*
G04 #@! TD*
D26*
G04 #@! TO.N,GND*
X-660000Y90634802D02*
X-1235847Y91210649D01*
X-1259932Y91331729D01*
X-1330414Y91501889D01*
X-1432738Y91655028D01*
X-1562972Y91785262D01*
X-1716111Y91887586D01*
X-1886271Y91958068D01*
X-2066911Y91994000D01*
X-2251089Y91994000D01*
X-2431729Y91958068D01*
X-2601889Y91887586D01*
X-2755028Y91785262D01*
X-2885262Y91655028D01*
X-2987586Y91501889D01*
X-3058068Y91331729D01*
X-3094000Y91151089D01*
X-3094000Y90966911D01*
X-3058068Y90786271D01*
X-2987586Y90616111D01*
X-2885262Y90462972D01*
X-2755028Y90332738D01*
X-2673481Y90278250D01*
X-2691921Y90281918D01*
X-2876099Y90281918D01*
X-3056739Y90245986D01*
X-3226899Y90175504D01*
X-3380038Y90073180D01*
X-3510272Y89942946D01*
X-3612596Y89789807D01*
X-3683078Y89619647D01*
X-3719010Y89439007D01*
X-3719010Y89254829D01*
X-3683078Y89074189D01*
X-3612596Y88904029D01*
X-3510272Y88750890D01*
X-3390891Y88631509D01*
X-3506750Y88608463D01*
X-3676910Y88537981D01*
X-3830049Y88435657D01*
X-3960283Y88305423D01*
X-4062607Y88152284D01*
X-4133089Y87982124D01*
X-4169021Y87801484D01*
X-4169021Y87617306D01*
X-4133089Y87436666D01*
X-4062607Y87266506D01*
X-3960283Y87113367D01*
X-3830049Y86983133D01*
X-3699910Y86896177D01*
X-3747431Y86825056D01*
X-3817913Y86654896D01*
X-3853845Y86474256D01*
X-3853845Y86290078D01*
X-3817913Y86109438D01*
X-3747431Y85939278D01*
X-3645107Y85786139D01*
X-3514873Y85655905D01*
X-3361734Y85553581D01*
X-3253030Y85508555D01*
X-3253031Y71476669D01*
X-3324098Y71405602D01*
X-3445178Y71381517D01*
X-3615338Y71311035D01*
X-3768477Y71208711D01*
X-3898711Y71078477D01*
X-4001035Y70925338D01*
X-4071517Y70755178D01*
X-4107449Y70574538D01*
X-4107449Y70390360D01*
X-4071517Y70209720D01*
X-4001035Y70039560D01*
X-3898711Y69886421D01*
X-3768477Y69756187D01*
X-3615338Y69653863D01*
X-3445178Y69583381D01*
X-3264538Y69547449D01*
X-3080360Y69547449D01*
X-2899720Y69583381D01*
X-2803020Y69623435D01*
X-2803020Y69610782D01*
X-3889801Y68524000D01*
X-4558207Y68524000D01*
X-4732300Y68506853D01*
X-4955674Y68439094D01*
X-5161536Y68329058D01*
X-5341975Y68180975D01*
X-5490058Y68000536D01*
X-5600094Y67794674D01*
X-5667853Y67571300D01*
X-5690733Y67339000D01*
X-5667853Y67106700D01*
X-5600094Y66883326D01*
X-5490058Y66677464D01*
X-5341975Y66497025D01*
X-5161536Y66348942D01*
X-4955674Y66238906D01*
X-4732300Y66171147D01*
X-4558207Y66154000D01*
X-3441793Y66154000D01*
X-3267700Y66171147D01*
X-3044326Y66238906D01*
X-2838464Y66348942D01*
X-2663677Y66492387D01*
X-2628028Y66456738D01*
X-2474889Y66354414D01*
X-2304729Y66283932D01*
X-2124089Y66248000D01*
X-1939911Y66248000D01*
X-1901812Y66255578D01*
X-1901812Y56196259D01*
X-1965962Y56209019D01*
X-2150140Y56209019D01*
X-2330780Y56173087D01*
X-2500940Y56102605D01*
X-2654079Y56000281D01*
X-2784313Y55870047D01*
X-2886637Y55716908D01*
X-2957119Y55546748D01*
X-2993051Y55366108D01*
X-2993051Y55306935D01*
X-3078721Y55249692D01*
X-3208955Y55119458D01*
X-3311279Y54966319D01*
X-3381761Y54796159D01*
X-3417693Y54615519D01*
X-3417693Y54431341D01*
X-3381761Y54250701D01*
X-3311279Y54080541D01*
X-3242692Y53977893D01*
X-3242693Y52028592D01*
X-3496108Y52079000D01*
X-3901892Y52079000D01*
X-4299880Y51999835D01*
X-4674776Y51844548D01*
X-5012173Y51619106D01*
X-5299106Y51332173D01*
X-5524548Y50994776D01*
X-5679835Y50619880D01*
X-5759000Y50221892D01*
X-5759000Y49816108D01*
X-5679835Y49418120D01*
X-5524548Y49043224D01*
X-5299106Y48705827D01*
X-5012173Y48418894D01*
X-4674776Y48193452D01*
X-4299880Y48038165D01*
X-3901892Y47959000D01*
X-3496108Y47959000D01*
X-3172999Y48023271D01*
X-3173000Y35405628D01*
X-4068026Y34510601D01*
X-4097024Y34486803D01*
X-4120822Y34457805D01*
X-4120823Y34457804D01*
X-4191997Y34371078D01*
X-4262570Y34239048D01*
X-4306026Y34095788D01*
X-4311769Y34037475D01*
X-4363248Y34114518D01*
X-4493482Y34244752D01*
X-4646621Y34347076D01*
X-4816781Y34417558D01*
X-4997421Y34453490D01*
X-5181599Y34453490D01*
X-5362239Y34417558D01*
X-5532399Y34347076D01*
X-5685538Y34244752D01*
X-5815772Y34114518D01*
X-5918096Y33961379D01*
X-5988578Y33791219D01*
X-6024510Y33610579D01*
X-6024510Y33426401D01*
X-5988578Y33245761D01*
X-5918096Y33075601D01*
X-5849509Y32972954D01*
X-5849510Y31923833D01*
X-5853186Y31886510D01*
X-5849510Y31849188D01*
X-5849510Y31849178D01*
X-5838513Y31737525D01*
X-5802837Y31619914D01*
X-5795056Y31594264D01*
X-5724484Y31462234D01*
X-5706423Y31440227D01*
X-5629511Y31346509D01*
X-5600507Y31322706D01*
X-3512999Y29235197D01*
X-3512999Y29131667D01*
X-3512998Y29131657D01*
X-3512999Y24289858D01*
X-3569463Y24395494D01*
X-3648815Y24492185D01*
X-3745506Y24571537D01*
X-3855820Y24630502D01*
X-3975518Y24666812D01*
X-4100000Y24679072D01*
X-6400000Y24679072D01*
X-6524482Y24666812D01*
X-6644180Y24630502D01*
X-6754494Y24571537D01*
X-6851185Y24492185D01*
X-6930537Y24395494D01*
X-6989502Y24285180D01*
X-7025812Y24165482D01*
X-7038072Y24041000D01*
X-7038072Y22341000D01*
X-7025812Y22216518D01*
X-6989502Y22096820D01*
X-6930537Y21986506D01*
X-6851185Y21889815D01*
X-6754494Y21810463D01*
X-6644180Y21751498D01*
X-6524482Y21715188D01*
X-6400000Y21702928D01*
X-4100000Y21702928D01*
X-3975518Y21715188D01*
X-3855820Y21751498D01*
X-3809596Y21776206D01*
X-4829002Y20756799D01*
X-4858000Y20733001D01*
X-4881798Y20704003D01*
X-4881799Y20704002D01*
X-4952974Y20617276D01*
X-5023546Y20485246D01*
X-5067002Y20341985D01*
X-5081676Y20193000D01*
X-5077999Y20155668D01*
X-5078000Y14896536D01*
X-5146586Y14793889D01*
X-5217068Y14623729D01*
X-5253000Y14443089D01*
X-5253000Y14258911D01*
X-5217068Y14078271D01*
X-5146586Y13908111D01*
X-5044262Y13754972D01*
X-4914028Y13624738D01*
X-4760889Y13522414D01*
X-4590729Y13451932D01*
X-4452997Y13424535D01*
X-4452997Y12605000D01*
X-4558207Y12605000D01*
X-4732300Y12587853D01*
X-4955674Y12520094D01*
X-5161536Y12410058D01*
X-5341975Y12261975D01*
X-5490058Y12081536D01*
X-5600094Y11875674D01*
X-5667853Y11652300D01*
X-5690733Y11420000D01*
X-5667853Y11187700D01*
X-5600094Y10964326D01*
X-5490058Y10758464D01*
X-5341975Y10578025D01*
X-5161536Y10429942D01*
X-4955674Y10319906D01*
X-4732300Y10252147D01*
X-4558207Y10235000D01*
X-3441793Y10235000D01*
X-3267700Y10252147D01*
X-3044326Y10319906D01*
X-2838464Y10429942D01*
X-2658025Y10578025D01*
X-2509942Y10758464D01*
X-2399906Y10964326D01*
X-2332147Y11187700D01*
X-2309267Y11420000D01*
X-2332147Y11652300D01*
X-2399906Y11875674D01*
X-2509942Y12081536D01*
X-2658025Y12261975D01*
X-2838464Y12410058D01*
X-2932998Y12460588D01*
X-2932998Y12658558D01*
X-2775271Y12689932D01*
X-2605111Y12760414D01*
X-2451972Y12862738D01*
X-2321738Y12992972D01*
X-2219414Y13146111D01*
X-2148932Y13316271D01*
X-2113000Y13496911D01*
X-2113000Y13681089D01*
X-2148932Y13861729D01*
X-2219414Y14031889D01*
X-2288000Y14134535D01*
X-2288000Y16978546D01*
X-2140271Y17007932D01*
X-1970111Y17078414D01*
X-1816972Y17180738D01*
X-1712954Y17284756D01*
X-1712954Y5243856D01*
X-1781086Y5141889D01*
X-1851568Y4971729D01*
X-1887500Y4791089D01*
X-1887500Y4606911D01*
X-1851568Y4426271D01*
X-1781086Y4256111D01*
X-1678762Y4102972D01*
X-1548528Y3972738D01*
X-1395389Y3870414D01*
X-1225229Y3799932D01*
X-1044589Y3764000D01*
X-860411Y3764000D01*
X-679771Y3799932D01*
X-659999Y3808122D01*
X-659999Y660000D01*
X-2720739Y660000D01*
X-2781269Y752500D01*
X-3873000Y752500D01*
X-3873000Y732500D01*
X-4127000Y732500D01*
X-4127000Y752500D01*
X-5218731Y752500D01*
X-5279261Y660000D01*
X-12720739Y660000D01*
X-12781269Y752500D01*
X-13873000Y752500D01*
X-13873000Y732500D01*
X-14127000Y732500D01*
X-14127000Y752500D01*
X-15218731Y752500D01*
X-15279261Y660000D01*
X-22720739Y660000D01*
X-22781269Y752500D01*
X-23873000Y752500D01*
X-23873000Y732500D01*
X-24127000Y732500D01*
X-24127000Y752500D01*
X-25218731Y752500D01*
X-25279261Y660000D01*
X-32720738Y660000D01*
X-32781269Y752501D01*
X-33873000Y752501D01*
X-33873000Y732501D01*
X-34127000Y732501D01*
X-34127000Y752501D01*
X-35218731Y752501D01*
X-35279262Y660000D01*
X-37340001Y660000D01*
X-37340001Y3120001D01*
X-35690975Y3120001D01*
X-35667130Y2877899D01*
X-35596511Y2645100D01*
X-35481833Y2430552D01*
X-35327502Y2242499D01*
X-35139449Y2088168D01*
X-34924901Y1973490D01*
X-34792897Y1933447D01*
X-34972231Y1802870D01*
X-35136572Y1624718D01*
X-35263000Y1417928D01*
X-35343462Y1197110D01*
X-35218731Y1006501D01*
X-34127000Y1006501D01*
X-34127000Y1026501D01*
X-33873000Y1026501D01*
X-33873000Y1006501D01*
X-32781269Y1006501D01*
X-32656538Y1197110D01*
X-32737000Y1417928D01*
X-32863428Y1624718D01*
X-33027769Y1802870D01*
X-33207103Y1933447D01*
X-33075099Y1973490D01*
X-32860551Y2088168D01*
X-32672498Y2242499D01*
X-32518167Y2430552D01*
X-32403489Y2645100D01*
X-32332870Y2877899D01*
X-32309026Y3120000D01*
X-25690975Y3120000D01*
X-25667130Y2877898D01*
X-25596511Y2645099D01*
X-25481833Y2430551D01*
X-25327502Y2242498D01*
X-25139449Y2088167D01*
X-24924901Y1973489D01*
X-24792897Y1933446D01*
X-24972231Y1802869D01*
X-25136572Y1624717D01*
X-25263000Y1417927D01*
X-25343462Y1197109D01*
X-25218731Y1006500D01*
X-24127000Y1006500D01*
X-24127000Y1026500D01*
X-23873000Y1026500D01*
X-23873000Y1006500D01*
X-22781269Y1006500D01*
X-22656538Y1197109D01*
X-22737000Y1417927D01*
X-22863428Y1624717D01*
X-23027769Y1802869D01*
X-23207103Y1933446D01*
X-23075099Y1973489D01*
X-22860551Y2088167D01*
X-22672498Y2242498D01*
X-22518167Y2430551D01*
X-22403489Y2645099D01*
X-22355775Y2802391D01*
X-15643462Y2802391D01*
X-15639591Y2764718D01*
X-15547421Y2539467D01*
X-15413078Y2336526D01*
X-15241725Y2163693D01*
X-15039946Y2027610D01*
X-14815496Y1933507D01*
X-14797765Y1929901D01*
X-14972231Y1802869D01*
X-15136572Y1624717D01*
X-15263000Y1417927D01*
X-15343462Y1197109D01*
X-15218731Y1006500D01*
X-14127000Y1006500D01*
X-14127000Y2993000D01*
X-13873000Y2993000D01*
X-13873000Y1006500D01*
X-12781269Y1006500D01*
X-12656538Y1197109D01*
X-12737000Y1417927D01*
X-12863428Y1624717D01*
X-13027769Y1802869D01*
X-13202235Y1929901D01*
X-13184504Y1933507D01*
X-12960054Y2027610D01*
X-12758275Y2163693D01*
X-12586922Y2336526D01*
X-12452579Y2539467D01*
X-12360409Y2764718D01*
X-12356538Y2802391D01*
X-5643462Y2802391D01*
X-5639591Y2764718D01*
X-5547421Y2539467D01*
X-5413078Y2336526D01*
X-5241725Y2163693D01*
X-5039946Y2027610D01*
X-4815496Y1933507D01*
X-4797765Y1929901D01*
X-4972231Y1802869D01*
X-5136572Y1624717D01*
X-5263000Y1417927D01*
X-5343462Y1197109D01*
X-5218731Y1006500D01*
X-4127000Y1006500D01*
X-4127000Y2993000D01*
X-3873000Y2993000D01*
X-3873000Y1006500D01*
X-2781269Y1006500D01*
X-2656538Y1197109D01*
X-2737000Y1417927D01*
X-2863428Y1624717D01*
X-3027769Y1802869D01*
X-3202235Y1929901D01*
X-3184504Y1933507D01*
X-2960054Y2027610D01*
X-2758275Y2163693D01*
X-2586922Y2336526D01*
X-2452579Y2539467D01*
X-2360409Y2764718D01*
X-2356538Y2802391D01*
X-2481269Y2993000D01*
X-3873000Y2993000D01*
X-4127000Y2993000D01*
X-5518731Y2993000D01*
X-5643462Y2802391D01*
X-12356538Y2802391D01*
X-12481269Y2993000D01*
X-13873000Y2993000D01*
X-14127000Y2993000D01*
X-15518731Y2993000D01*
X-15643462Y2802391D01*
X-22355775Y2802391D01*
X-22332870Y2877898D01*
X-22309025Y3120000D01*
X-22332870Y3362102D01*
X-22355774Y3437609D01*
X-15643462Y3437609D01*
X-15518731Y3247000D01*
X-14127000Y3247000D01*
X-14127000Y4355000D01*
X-13873000Y4355000D01*
X-13873000Y3247000D01*
X-12481269Y3247000D01*
X-12356538Y3437609D01*
X-5643462Y3437609D01*
X-5518731Y3247000D01*
X-4127000Y3247000D01*
X-4127000Y4355000D01*
X-3873000Y4355000D01*
X-3873000Y3247000D01*
X-2481269Y3247000D01*
X-2356538Y3437609D01*
X-2360409Y3475282D01*
X-2452579Y3700533D01*
X-2586922Y3903474D01*
X-2758275Y4076307D01*
X-2960054Y4212390D01*
X-3184504Y4306493D01*
X-3423000Y4355000D01*
X-3873000Y4355000D01*
X-4127000Y4355000D01*
X-4577000Y4355000D01*
X-4815496Y4306493D01*
X-5039946Y4212390D01*
X-5241725Y4076307D01*
X-5413078Y3903474D01*
X-5547421Y3700533D01*
X-5639591Y3475282D01*
X-5643462Y3437609D01*
X-12356538Y3437609D01*
X-12360409Y3475282D01*
X-12452579Y3700533D01*
X-12586922Y3903474D01*
X-12758275Y4076307D01*
X-12960054Y4212390D01*
X-13184504Y4306493D01*
X-13423000Y4355000D01*
X-13873000Y4355000D01*
X-14127000Y4355000D01*
X-14577000Y4355000D01*
X-14815496Y4306493D01*
X-15039946Y4212390D01*
X-15241725Y4076307D01*
X-15413078Y3903474D01*
X-15547421Y3700533D01*
X-15639591Y3475282D01*
X-15643462Y3437609D01*
X-22355774Y3437609D01*
X-22403489Y3594901D01*
X-22518167Y3809449D01*
X-22672498Y3997502D01*
X-22860551Y4151833D01*
X-23075099Y4266511D01*
X-23307898Y4337130D01*
X-23489335Y4355000D01*
X-24510665Y4355000D01*
X-24692102Y4337130D01*
X-24924901Y4266511D01*
X-25139449Y4151833D01*
X-25327502Y3997502D01*
X-25481833Y3809449D01*
X-25596511Y3594901D01*
X-25667130Y3362102D01*
X-25690975Y3120000D01*
X-32309026Y3120000D01*
X-32309025Y3120001D01*
X-32332870Y3362103D01*
X-32403489Y3594902D01*
X-32518167Y3809450D01*
X-32672498Y3997503D01*
X-32860551Y4151834D01*
X-33075099Y4266512D01*
X-33249894Y4319536D01*
X-33207414Y4383111D01*
X-33136932Y4553271D01*
X-33101000Y4733911D01*
X-33101000Y4918089D01*
X-33136932Y5098729D01*
X-33207414Y5268889D01*
X-33276000Y5371535D01*
X-33276000Y9109089D01*
X-21382000Y9109089D01*
X-21382000Y8924911D01*
X-21346068Y8744271D01*
X-21275586Y8574111D01*
X-21206999Y8471463D01*
X-21207000Y7403536D01*
X-21275586Y7300889D01*
X-21346068Y7130729D01*
X-21382000Y6950089D01*
X-21382000Y6765911D01*
X-21346068Y6585271D01*
X-21275586Y6415111D01*
X-21173262Y6261972D01*
X-21043028Y6131738D01*
X-20889889Y6029414D01*
X-20719729Y5958932D01*
X-20539089Y5923000D01*
X-20354911Y5923000D01*
X-20174271Y5958932D01*
X-20004111Y6029414D01*
X-19850972Y6131738D01*
X-19720738Y6261972D01*
X-19618414Y6415111D01*
X-19547932Y6585271D01*
X-19512000Y6765911D01*
X-19512000Y6950089D01*
X-19547932Y7130729D01*
X-19618414Y7300889D01*
X-19687000Y7403535D01*
X-19687000Y8471465D01*
X-19618414Y8574111D01*
X-19547932Y8744271D01*
X-19512000Y8924911D01*
X-19512000Y9109089D01*
X-19547932Y9289729D01*
X-19618414Y9459889D01*
X-19720738Y9613028D01*
X-19850972Y9743262D01*
X-20004111Y9845586D01*
X-20174271Y9916068D01*
X-20354911Y9952000D01*
X-20539089Y9952000D01*
X-20719729Y9916068D01*
X-20889889Y9845586D01*
X-21043028Y9743262D01*
X-21173262Y9613028D01*
X-21275586Y9459889D01*
X-21346068Y9289729D01*
X-21382000Y9109089D01*
X-33276000Y9109089D01*
X-33276000Y10251331D01*
X-33267700Y10252148D01*
X-33044326Y10319907D01*
X-32838464Y10429943D01*
X-32658025Y10578026D01*
X-32509942Y10758465D01*
X-32399906Y10964327D01*
X-32332147Y11187701D01*
X-32309268Y11420000D01*
X-25690733Y11420000D01*
X-25667853Y11187700D01*
X-25600094Y10964326D01*
X-25490058Y10758464D01*
X-25341975Y10578025D01*
X-25161536Y10429942D01*
X-24955674Y10319906D01*
X-24732300Y10252147D01*
X-24558207Y10235000D01*
X-23441793Y10235000D01*
X-23267700Y10252147D01*
X-23044326Y10319906D01*
X-22838464Y10429942D01*
X-22658025Y10578025D01*
X-22509942Y10758464D01*
X-22399906Y10964326D01*
X-22332147Y11187700D01*
X-22309267Y11420000D01*
X-15690733Y11420000D01*
X-15667853Y11187700D01*
X-15600094Y10964326D01*
X-15490058Y10758464D01*
X-15341975Y10578025D01*
X-15161536Y10429942D01*
X-14955674Y10319906D01*
X-14732300Y10252147D01*
X-14558207Y10235000D01*
X-13441793Y10235000D01*
X-13267700Y10252147D01*
X-13044326Y10319906D01*
X-12838464Y10429942D01*
X-12658025Y10578025D01*
X-12509942Y10758464D01*
X-12399906Y10964326D01*
X-12332147Y11187700D01*
X-12309267Y11420000D01*
X-12332147Y11652300D01*
X-12399906Y11875674D01*
X-12509942Y12081536D01*
X-12658025Y12261975D01*
X-12838464Y12410058D01*
X-13044326Y12520094D01*
X-13267700Y12587853D01*
X-13441793Y12605000D01*
X-14558207Y12605000D01*
X-14732300Y12587853D01*
X-14955674Y12520094D01*
X-15161536Y12410058D01*
X-15341975Y12261975D01*
X-15490058Y12081536D01*
X-15600094Y11875674D01*
X-15667853Y11652300D01*
X-15690733Y11420000D01*
X-22309267Y11420000D01*
X-22332147Y11652300D01*
X-22399906Y11875674D01*
X-22509942Y12081536D01*
X-22658025Y12261975D01*
X-22838464Y12410058D01*
X-23044326Y12520094D01*
X-23267700Y12587853D01*
X-23441793Y12605000D01*
X-24558207Y12605000D01*
X-24732300Y12587853D01*
X-24955674Y12520094D01*
X-25161536Y12410058D01*
X-25341975Y12261975D01*
X-25490058Y12081536D01*
X-25600094Y11875674D01*
X-25667853Y11652300D01*
X-25690733Y11420000D01*
X-32309268Y11420000D01*
X-32309267Y11420001D01*
X-32332147Y11652301D01*
X-32399906Y11875675D01*
X-32509942Y12081537D01*
X-32658025Y12261976D01*
X-32838464Y12410059D01*
X-33044326Y12520095D01*
X-33267700Y12587854D01*
X-33441793Y12605001D01*
X-34558207Y12605001D01*
X-34732300Y12587854D01*
X-34955674Y12520095D01*
X-35161536Y12410059D01*
X-35341975Y12261976D01*
X-35490058Y12081537D01*
X-35600094Y11875675D01*
X-35667853Y11652301D01*
X-35690733Y11420001D01*
X-35667853Y11187701D01*
X-35600094Y10964327D01*
X-35490058Y10758465D01*
X-35341975Y10578026D01*
X-35161536Y10429943D01*
X-34955674Y10319907D01*
X-34795999Y10271471D01*
X-34796000Y5371536D01*
X-34864586Y5268889D01*
X-34935068Y5098729D01*
X-34971000Y4918089D01*
X-34971000Y4733911D01*
X-34935068Y4553271D01*
X-34864586Y4383111D01*
X-34809972Y4301375D01*
X-34924901Y4266512D01*
X-35139449Y4151834D01*
X-35327502Y3997503D01*
X-35481833Y3809450D01*
X-35596511Y3594902D01*
X-35667130Y3362103D01*
X-35690975Y3120001D01*
X-37340001Y3120001D01*
X-37340001Y15837260D01*
X-13985000Y15837260D01*
X-13985000Y15544740D01*
X-13927932Y15257842D01*
X-13815990Y14987589D01*
X-13653475Y14744368D01*
X-13446632Y14537525D01*
X-13203411Y14375010D01*
X-12933158Y14263068D01*
X-12646260Y14206000D01*
X-12353740Y14206000D01*
X-12066842Y14263068D01*
X-11796589Y14375010D01*
X-11553368Y14537525D01*
X-11346525Y14744368D01*
X-11250000Y14888828D01*
X-11153475Y14744368D01*
X-10946632Y14537525D01*
X-10703411Y14375010D01*
X-10433158Y14263068D01*
X-10146260Y14206000D01*
X-9853740Y14206000D01*
X-9566842Y14263068D01*
X-9296589Y14375010D01*
X-9053368Y14537525D01*
X-8928290Y14662603D01*
X-8348792Y14662603D01*
X-8271157Y14413528D01*
X-8007117Y14287629D01*
X-7723589Y14215661D01*
X-7431469Y14200389D01*
X-7141981Y14242401D01*
X-6866253Y14340081D01*
X-6728843Y14413528D01*
X-6651208Y14662603D01*
X-7500000Y15511395D01*
X-8348792Y14662603D01*
X-8928290Y14662603D01*
X-8846525Y14744368D01*
X-8737584Y14907410D01*
X-8528397Y14842208D01*
X-7679605Y15691000D01*
X-7320395Y15691000D01*
X-6471603Y14842208D01*
X-6222528Y14919843D01*
X-6096629Y15183883D01*
X-6024661Y15467411D01*
X-6009389Y15759531D01*
X-6051401Y16049019D01*
X-6149081Y16324747D01*
X-6222528Y16462157D01*
X-6471603Y16539792D01*
X-7320395Y15691000D01*
X-7679605Y15691000D01*
X-8528397Y16539792D01*
X-8737584Y16474590D01*
X-8846525Y16637632D01*
X-8928290Y16719397D01*
X-8348792Y16719397D01*
X-7500000Y15870605D01*
X-6651208Y16719397D01*
X-6728843Y16968472D01*
X-6992883Y17094371D01*
X-7276411Y17166339D01*
X-7568531Y17181611D01*
X-7858019Y17139599D01*
X-8133747Y17041919D01*
X-8271157Y16968472D01*
X-8348792Y16719397D01*
X-8928290Y16719397D01*
X-9053368Y16844475D01*
X-9296589Y17006990D01*
X-9566842Y17118932D01*
X-9853740Y17176000D01*
X-10146260Y17176000D01*
X-10433158Y17118932D01*
X-10703411Y17006990D01*
X-10946632Y16844475D01*
X-11153475Y16637632D01*
X-11250000Y16493172D01*
X-11346525Y16637632D01*
X-11553368Y16844475D01*
X-11796589Y17006990D01*
X-12066842Y17118932D01*
X-12353740Y17176000D01*
X-12646260Y17176000D01*
X-12933158Y17118932D01*
X-13203411Y17006990D01*
X-13446632Y16844475D01*
X-13653475Y16637632D01*
X-13815990Y16394411D01*
X-13927932Y16124158D01*
X-13985000Y15837260D01*
X-37340001Y15837260D01*
X-37340001Y18150836D01*
X-37296696Y18137700D01*
X-37084000Y18116751D01*
X-36871303Y18137700D01*
X-36666780Y18199741D01*
X-36478290Y18300491D01*
X-36313078Y18436078D01*
X-36305755Y18445001D01*
X-34433066Y18445001D01*
X-34358475Y18333368D01*
X-34151632Y18126525D01*
X-33908411Y17964010D01*
X-33638158Y17852068D01*
X-33351260Y17795000D01*
X-33058740Y17795000D01*
X-32771842Y17852068D01*
X-32501589Y17964010D01*
X-32258368Y18126525D01*
X-32051525Y18333368D01*
X-31955000Y18477828D01*
X-31858475Y18333368D01*
X-31651632Y18126525D01*
X-31408411Y17964010D01*
X-31138158Y17852068D01*
X-30851260Y17795000D01*
X-30558740Y17795000D01*
X-30271842Y17852068D01*
X-30001589Y17964010D01*
X-29758368Y18126525D01*
X-29551525Y18333368D01*
X-29455000Y18477828D01*
X-29358475Y18333368D01*
X-29151632Y18126525D01*
X-28908411Y17964010D01*
X-28638158Y17852068D01*
X-28351260Y17795000D01*
X-28058740Y17795000D01*
X-27771842Y17852068D01*
X-27501589Y17964010D01*
X-27258368Y18126525D01*
X-27051525Y18333368D01*
X-26889010Y18576589D01*
X-26777068Y18846842D01*
X-26720000Y19133740D01*
X-26720000Y19426260D01*
X-26777068Y19713158D01*
X-26889010Y19983411D01*
X-27051525Y20226632D01*
X-27258368Y20433475D01*
X-27501589Y20595990D01*
X-27771842Y20707932D01*
X-28058740Y20765000D01*
X-28351260Y20765000D01*
X-28638158Y20707932D01*
X-28908411Y20595990D01*
X-29151632Y20433475D01*
X-29358475Y20226632D01*
X-29455000Y20082172D01*
X-29551525Y20226632D01*
X-29758368Y20433475D01*
X-29945000Y20558178D01*
X-29945000Y24041000D01*
X-16538072Y24041000D01*
X-16538072Y22341000D01*
X-16525812Y22216518D01*
X-16489502Y22096820D01*
X-16430537Y21986506D01*
X-16351185Y21889815D01*
X-16254494Y21810463D01*
X-16144180Y21751498D01*
X-16024482Y21715188D01*
X-15900000Y21702928D01*
X-13600000Y21702928D01*
X-13475518Y21715188D01*
X-13355820Y21751498D01*
X-13245506Y21810463D01*
X-13148815Y21889815D01*
X-13069463Y21986506D01*
X-13010498Y22096820D01*
X-12974188Y22216518D01*
X-12961928Y22341000D01*
X-12961928Y24041000D01*
X-12974188Y24165482D01*
X-13010498Y24285180D01*
X-13069463Y24395494D01*
X-13148815Y24492185D01*
X-13245506Y24571537D01*
X-13355820Y24630502D01*
X-13475518Y24666812D01*
X-13600000Y24679072D01*
X-15900000Y24679072D01*
X-16024482Y24666812D01*
X-16144180Y24630502D01*
X-16254494Y24571537D01*
X-16351185Y24492185D01*
X-16430537Y24395494D01*
X-16489502Y24285180D01*
X-16525812Y24165482D01*
X-16538072Y24041000D01*
X-29945000Y24041000D01*
X-29945000Y27630000D01*
X-28093072Y27630000D01*
X-28093072Y24930000D01*
X-28080812Y24805518D01*
X-28044502Y24685820D01*
X-27985537Y24575506D01*
X-27906185Y24478815D01*
X-27809494Y24399463D01*
X-27699180Y24340498D01*
X-27579482Y24304188D01*
X-27455000Y24291928D01*
X-25155000Y24291928D01*
X-25030518Y24304188D01*
X-24910820Y24340498D01*
X-24800506Y24399463D01*
X-24703815Y24478815D01*
X-24624463Y24575506D01*
X-24565498Y24685820D01*
X-24529188Y24805518D01*
X-24516928Y24930000D01*
X-24516928Y27630000D01*
X-24529188Y27754482D01*
X-24565498Y27874180D01*
X-24624463Y27984494D01*
X-24703815Y28081185D01*
X-24800506Y28160537D01*
X-24910820Y28219502D01*
X-25030518Y28255812D01*
X-25155000Y28268072D01*
X-27455000Y28268072D01*
X-27579482Y28255812D01*
X-27699180Y28219502D01*
X-27809494Y28160537D01*
X-27906185Y28081185D01*
X-27985537Y27984494D01*
X-28044502Y27874180D01*
X-28080812Y27754482D01*
X-28093072Y27630000D01*
X-29945000Y27630000D01*
X-29945000Y27654199D01*
X-29439351Y28159847D01*
X-29318271Y28183932D01*
X-29148111Y28254414D01*
X-28994972Y28356738D01*
X-28864738Y28486972D01*
X-28762414Y28640111D01*
X-28691932Y28810271D01*
X-28656000Y28990911D01*
X-28656000Y29175089D01*
X-28691932Y29355729D01*
X-28762414Y29525889D01*
X-28864738Y29679028D01*
X-28994972Y29809262D01*
X-29148111Y29911586D01*
X-29318271Y29982068D01*
X-29498911Y30018000D01*
X-29683089Y30018000D01*
X-29863729Y29982068D01*
X-30033889Y29911586D01*
X-30187028Y29809262D01*
X-30317262Y29679028D01*
X-30419586Y29525889D01*
X-30490068Y29355729D01*
X-30514153Y29234649D01*
X-31216002Y28532799D01*
X-31245000Y28509001D01*
X-31268798Y28480003D01*
X-31268799Y28480002D01*
X-31339974Y28393276D01*
X-31410546Y28261246D01*
X-31423208Y28219502D01*
X-31444897Y28148000D01*
X-31454002Y28117985D01*
X-31468676Y27969000D01*
X-31464999Y27931668D01*
X-31465000Y20558179D01*
X-31651632Y20433475D01*
X-31858475Y20226632D01*
X-31955000Y20082172D01*
X-32051525Y20226632D01*
X-32258368Y20433475D01*
X-32501589Y20595990D01*
X-32771842Y20707932D01*
X-33058740Y20765000D01*
X-33351260Y20765000D01*
X-33638158Y20707932D01*
X-33908411Y20595990D01*
X-34151632Y20433475D01*
X-34358475Y20226632D01*
X-34433064Y20115001D01*
X-35999000Y20115001D01*
X-35999000Y24291928D01*
X-33955000Y24291928D01*
X-33830518Y24304188D01*
X-33710820Y24340498D01*
X-33600506Y24399463D01*
X-33503815Y24478815D01*
X-33424463Y24575506D01*
X-33365498Y24685820D01*
X-33329188Y24805518D01*
X-33316928Y24930000D01*
X-33316928Y27630000D01*
X-33329188Y27754482D01*
X-33365498Y27874180D01*
X-33424463Y27984494D01*
X-33503815Y28081185D01*
X-33600506Y28160537D01*
X-33710820Y28219502D01*
X-33830518Y28255812D01*
X-33955000Y28268072D01*
X-35999000Y28268072D01*
X-35999000Y32540589D01*
X-23287000Y32540589D01*
X-23287000Y32356411D01*
X-23251068Y32175771D01*
X-23180586Y32005611D01*
X-23112000Y31902964D01*
X-23111999Y27787037D01*
X-23180586Y27684389D01*
X-23251068Y27514229D01*
X-23287000Y27333589D01*
X-23287000Y27149411D01*
X-23251068Y26968771D01*
X-23180586Y26798611D01*
X-23078262Y26645472D01*
X-22948028Y26515238D01*
X-22794889Y26412914D01*
X-22624729Y26342432D01*
X-22444089Y26306500D01*
X-22259911Y26306500D01*
X-22079271Y26342432D01*
X-21909111Y26412914D01*
X-21755972Y26515238D01*
X-21625738Y26645472D01*
X-21523414Y26798611D01*
X-21452932Y26968771D01*
X-21417000Y27149411D01*
X-21417000Y27333589D01*
X-21452932Y27514229D01*
X-21523414Y27684389D01*
X-21592000Y27787035D01*
X-21592000Y31902965D01*
X-21523414Y32005611D01*
X-21452932Y32175771D01*
X-21417000Y32356411D01*
X-21417000Y32540589D01*
X-21424683Y32579213D01*
X-21292725Y32515842D01*
X-20999858Y32440635D01*
X-20697947Y32424009D01*
X-20398593Y32466603D01*
X-20113301Y32566778D01*
X-19963708Y32646739D01*
X-19880025Y32900920D01*
X-20764500Y33785395D01*
X-20778643Y33771253D01*
X-20958248Y33950858D01*
X-20944105Y33965000D01*
X-20584895Y33965000D01*
X-19700420Y33080525D01*
X-19446239Y33164208D01*
X-19315342Y33436775D01*
X-19240135Y33729642D01*
X-19223509Y34031553D01*
X-19266103Y34330907D01*
X-19366278Y34616199D01*
X-19446239Y34765792D01*
X-19700420Y34849475D01*
X-20584895Y33965000D01*
X-20944105Y33965000D01*
X-21828580Y34849475D01*
X-22082761Y34765792D01*
X-22213658Y34493225D01*
X-22288865Y34200358D01*
X-22305491Y33898447D01*
X-22262897Y33599093D01*
X-22181735Y33367950D01*
X-22259911Y33383500D01*
X-22444089Y33383500D01*
X-22624729Y33347568D01*
X-22794889Y33277086D01*
X-22948028Y33174762D01*
X-23078262Y33044528D01*
X-23180586Y32891389D01*
X-23251068Y32721229D01*
X-23287000Y32540589D01*
X-35999000Y32540589D01*
X-35999000Y34936000D01*
X-35839061Y34936000D01*
X-35639102Y34975774D01*
X-35450744Y35053795D01*
X-35281226Y35167063D01*
X-35137063Y35311226D01*
X-35023795Y35480744D01*
X-34945774Y35669102D01*
X-34906000Y35869061D01*
X-34906000Y36072939D01*
X-34926153Y36174260D01*
X-31985000Y36174260D01*
X-31985000Y35881740D01*
X-31927932Y35594842D01*
X-31815990Y35324589D01*
X-31653475Y35081368D01*
X-31446632Y34874525D01*
X-31203411Y34712010D01*
X-30933158Y34600068D01*
X-30646260Y34543000D01*
X-30353740Y34543000D01*
X-30066842Y34600068D01*
X-29796589Y34712010D01*
X-29553368Y34874525D01*
X-29346525Y35081368D01*
X-29250000Y35225828D01*
X-29153475Y35081368D01*
X-28946632Y34874525D01*
X-28703411Y34712010D01*
X-28433158Y34600068D01*
X-28146260Y34543000D01*
X-27853740Y34543000D01*
X-27566842Y34600068D01*
X-27296589Y34712010D01*
X-27053368Y34874525D01*
X-26846525Y35081368D01*
X-26750000Y35225828D01*
X-26653475Y35081368D01*
X-26446632Y34874525D01*
X-26203411Y34712010D01*
X-25933158Y34600068D01*
X-25646260Y34543000D01*
X-25353740Y34543000D01*
X-25066842Y34600068D01*
X-24796589Y34712010D01*
X-24553368Y34874525D01*
X-24398813Y35029080D01*
X-21648975Y35029080D01*
X-20764500Y34144605D01*
X-19880025Y35029080D01*
X-19963708Y35283261D01*
X-20236275Y35414158D01*
X-20529142Y35489365D01*
X-20831053Y35505991D01*
X-21130407Y35463397D01*
X-21415699Y35363222D01*
X-21565292Y35283261D01*
X-21648975Y35029080D01*
X-24398813Y35029080D01*
X-24346525Y35081368D01*
X-24184010Y35324589D01*
X-24072068Y35594842D01*
X-24015000Y35881740D01*
X-24015000Y36174260D01*
X-24072068Y36461158D01*
X-24184010Y36731411D01*
X-24346525Y36974632D01*
X-24553368Y37181475D01*
X-24796589Y37343990D01*
X-25066842Y37455932D01*
X-25353740Y37513000D01*
X-25646260Y37513000D01*
X-25933158Y37455932D01*
X-26203411Y37343990D01*
X-26446632Y37181475D01*
X-26653475Y36974632D01*
X-26750000Y36830172D01*
X-26846525Y36974632D01*
X-27053368Y37181475D01*
X-27296589Y37343990D01*
X-27566842Y37455932D01*
X-27853740Y37513000D01*
X-28146260Y37513000D01*
X-28433158Y37455932D01*
X-28703411Y37343990D01*
X-28946632Y37181475D01*
X-29153475Y36974632D01*
X-29250000Y36830172D01*
X-29346525Y36974632D01*
X-29553368Y37181475D01*
X-29796589Y37343990D01*
X-30066842Y37455932D01*
X-30353740Y37513000D01*
X-30646260Y37513000D01*
X-30933158Y37455932D01*
X-31203411Y37343990D01*
X-31446632Y37181475D01*
X-31653475Y36974632D01*
X-31815990Y36731411D01*
X-31927932Y36461158D01*
X-31985000Y36174260D01*
X-34926153Y36174260D01*
X-34945774Y36272898D01*
X-35023795Y36461256D01*
X-35137063Y36630774D01*
X-35281226Y36774937D01*
X-35450744Y36888205D01*
X-35639102Y36966226D01*
X-35839061Y37006000D01*
X-35999000Y37006000D01*
X-35999000Y44378000D01*
X-34538072Y44378000D01*
X-34538072Y42678000D01*
X-34525812Y42553518D01*
X-34489502Y42433820D01*
X-34430537Y42323506D01*
X-34351185Y42226815D01*
X-34254494Y42147463D01*
X-34144180Y42088498D01*
X-34024482Y42052188D01*
X-33900000Y42039928D01*
X-31600000Y42039928D01*
X-31475518Y42052188D01*
X-31355820Y42088498D01*
X-31245506Y42147463D01*
X-31148815Y42226815D01*
X-31069463Y42323506D01*
X-31010498Y42433820D01*
X-30974188Y42553518D01*
X-30961928Y42678000D01*
X-30961928Y44378000D01*
X-25038072Y44378000D01*
X-25038072Y42678000D01*
X-25025812Y42553518D01*
X-24989502Y42433820D01*
X-24930537Y42323506D01*
X-24851185Y42226815D01*
X-24754494Y42147463D01*
X-24644180Y42088498D01*
X-24524482Y42052188D01*
X-24400000Y42039928D01*
X-22100000Y42039928D01*
X-21975518Y42052188D01*
X-21855820Y42088498D01*
X-21761292Y42139025D01*
X-21956812Y41943505D01*
X-22124799Y41692095D01*
X-22240511Y41412743D01*
X-22299500Y41116184D01*
X-22299500Y40813816D01*
X-22240511Y40517257D01*
X-22124799Y40237905D01*
X-21956812Y39986495D01*
X-21743005Y39772688D01*
X-21491595Y39604701D01*
X-21212243Y39488989D01*
X-20915684Y39430000D01*
X-20613316Y39430000D01*
X-20487632Y39455000D01*
X-17528072Y39455000D01*
X-17528072Y37455000D01*
X-17515812Y37330518D01*
X-17479502Y37210820D01*
X-17420537Y37100506D01*
X-17341185Y37003815D01*
X-17244494Y36924463D01*
X-17134180Y36865498D01*
X-17014482Y36829188D01*
X-16890000Y36816928D01*
X-15326729Y36816928D01*
X-13840999Y35331197D01*
X-13841000Y32168536D01*
X-13909586Y32065889D01*
X-13980068Y31895729D01*
X-14016000Y31715089D01*
X-14016000Y31530911D01*
X-13980068Y31350271D01*
X-13909586Y31180111D01*
X-13807262Y31026972D01*
X-13677028Y30896738D01*
X-13523889Y30794414D01*
X-13353729Y30723932D01*
X-13173089Y30688000D01*
X-12988911Y30688000D01*
X-12808271Y30723932D01*
X-12638111Y30794414D01*
X-12484972Y30896738D01*
X-12446000Y30935710D01*
X-12407028Y30896738D01*
X-12253889Y30794414D01*
X-12083729Y30723932D01*
X-11903089Y30688000D01*
X-11718911Y30688000D01*
X-11538271Y30723932D01*
X-11368111Y30794414D01*
X-11214972Y30896738D01*
X-11084738Y31026972D01*
X-10982414Y31180111D01*
X-10911932Y31350271D01*
X-10876000Y31530911D01*
X-10876000Y31715089D01*
X-10911932Y31895729D01*
X-10982414Y32065889D01*
X-11051000Y32168535D01*
X-11051000Y34125891D01*
X-8557462Y34125891D01*
X-8477000Y33905073D01*
X-8350572Y33698283D01*
X-8186231Y33520131D01*
X-7990292Y33377464D01*
X-7770285Y33275764D01*
X-7534664Y33218940D01*
X-7341000Y33366069D01*
X-7341000Y34316500D01*
X-7087000Y34316500D01*
X-7087000Y33366069D01*
X-6893336Y33218940D01*
X-6657715Y33275764D01*
X-6437708Y33377464D01*
X-6241769Y33520131D01*
X-6077428Y33698283D01*
X-5951000Y33905073D01*
X-5870538Y34125891D01*
X-5995269Y34316500D01*
X-7087000Y34316500D01*
X-7341000Y34316500D01*
X-8432731Y34316500D01*
X-8557462Y34125891D01*
X-11051000Y34125891D01*
X-11051000Y36366391D01*
X-8857462Y36366391D01*
X-8853591Y36328718D01*
X-8761421Y36103467D01*
X-8627078Y35900526D01*
X-8455725Y35727693D01*
X-8253946Y35591610D01*
X-8029496Y35497507D01*
X-8011765Y35493901D01*
X-8186231Y35366869D01*
X-8350572Y35188717D01*
X-8477000Y34981927D01*
X-8557462Y34761109D01*
X-8432731Y34570500D01*
X-7341000Y34570500D01*
X-7341000Y36557000D01*
X-7087000Y36557000D01*
X-7087000Y34570500D01*
X-5995269Y34570500D01*
X-5870538Y34761109D01*
X-5951000Y34981927D01*
X-6077428Y35188717D01*
X-6241769Y35366869D01*
X-6416235Y35493901D01*
X-6398504Y35497507D01*
X-6174054Y35591610D01*
X-5972275Y35727693D01*
X-5800922Y35900526D01*
X-5666579Y36103467D01*
X-5574409Y36328718D01*
X-5570538Y36366391D01*
X-5695269Y36557000D01*
X-7087000Y36557000D01*
X-7341000Y36557000D01*
X-8732731Y36557000D01*
X-8857462Y36366391D01*
X-11051000Y36366391D01*
X-11051000Y36878678D01*
X-11047324Y36916001D01*
X-11051000Y36953324D01*
X-11051000Y36953333D01*
X-11055754Y37001609D01*
X-8857462Y37001609D01*
X-8732731Y36811000D01*
X-7341000Y36811000D01*
X-7341000Y37919000D01*
X-7087000Y37919000D01*
X-7087000Y36811000D01*
X-5695269Y36811000D01*
X-5570538Y37001609D01*
X-5574409Y37039282D01*
X-5666579Y37264533D01*
X-5800922Y37467474D01*
X-5972275Y37640307D01*
X-6174054Y37776390D01*
X-6398504Y37870493D01*
X-6637000Y37919000D01*
X-7087000Y37919000D01*
X-7341000Y37919000D01*
X-7791000Y37919000D01*
X-8029496Y37870493D01*
X-8253946Y37776390D01*
X-8455725Y37640307D01*
X-8627078Y37467474D01*
X-8761421Y37264533D01*
X-8853591Y37039282D01*
X-8857462Y37001609D01*
X-11055754Y37001609D01*
X-11061997Y37064986D01*
X-11105454Y37208247D01*
X-11170810Y37330518D01*
X-11176026Y37340277D01*
X-11247201Y37427003D01*
X-11270999Y37456001D01*
X-11299997Y37479799D01*
X-14323823Y40503624D01*
X-14317832Y40518088D01*
X-14255000Y40833967D01*
X-14255000Y41156033D01*
X-14317832Y41471912D01*
X-14441082Y41769463D01*
X-14620013Y42037252D01*
X-14847748Y42264987D01*
X-14847767Y42265000D01*
X-14847748Y42265013D01*
X-14620013Y42492748D01*
X-14441082Y42760537D01*
X-14317832Y43058088D01*
X-14255000Y43373967D01*
X-14255000Y43696033D01*
X-14317832Y44011912D01*
X-14441082Y44309463D01*
X-14620013Y44577252D01*
X-14847748Y44804987D01*
X-15115537Y44983918D01*
X-15115734Y44984000D01*
X-8904733Y44984000D01*
X-8881853Y44751700D01*
X-8814094Y44528326D01*
X-8704058Y44322464D01*
X-8555975Y44142025D01*
X-8375536Y43993942D01*
X-8169674Y43883906D01*
X-7946300Y43816147D01*
X-7772207Y43799000D01*
X-6655793Y43799000D01*
X-6481700Y43816147D01*
X-6258326Y43883906D01*
X-6052464Y43993942D01*
X-5872025Y44142025D01*
X-5723942Y44322464D01*
X-5613906Y44528326D01*
X-5546147Y44751700D01*
X-5523267Y44984000D01*
X-5546147Y45216300D01*
X-5613906Y45439674D01*
X-5723942Y45645536D01*
X-5872025Y45825975D01*
X-6052464Y45974058D01*
X-6258326Y46084094D01*
X-6481700Y46151853D01*
X-6655793Y46169000D01*
X-7772207Y46169000D01*
X-7946300Y46151853D01*
X-8169674Y46084094D01*
X-8375536Y45974058D01*
X-8555975Y45825975D01*
X-8704058Y45645536D01*
X-8814094Y45439674D01*
X-8881853Y45216300D01*
X-8904733Y44984000D01*
X-15115734Y44984000D01*
X-15413088Y45107168D01*
X-15728967Y45170000D01*
X-16051033Y45170000D01*
X-16366912Y45107168D01*
X-16664463Y44983918D01*
X-16932252Y44804987D01*
X-17159987Y44577252D01*
X-17338918Y44309463D01*
X-17462168Y44011912D01*
X-17525000Y43696033D01*
X-17525000Y43373967D01*
X-17462168Y43058088D01*
X-17338918Y42760537D01*
X-17159987Y42492748D01*
X-16932252Y42265013D01*
X-16932233Y42265000D01*
X-16932252Y42264987D01*
X-17159987Y42037252D01*
X-17338918Y41769463D01*
X-17462168Y41471912D01*
X-17525000Y41156033D01*
X-17525000Y40833967D01*
X-17462168Y40518088D01*
X-17338918Y40220537D01*
X-17198370Y40010191D01*
X-17244494Y39985537D01*
X-17341185Y39906185D01*
X-17420537Y39809494D01*
X-17479502Y39699180D01*
X-17515812Y39579482D01*
X-17528072Y39455000D01*
X-20487632Y39455000D01*
X-20316757Y39488989D01*
X-20037405Y39604701D01*
X-19785995Y39772688D01*
X-19572188Y39986495D01*
X-19404201Y40237905D01*
X-19288489Y40517257D01*
X-19229500Y40813816D01*
X-19229500Y41116184D01*
X-19288489Y41412743D01*
X-19404201Y41692095D01*
X-19572188Y41943505D01*
X-19785995Y42157312D01*
X-20037405Y42325299D01*
X-20316757Y42441011D01*
X-20613316Y42500000D01*
X-20915684Y42500000D01*
X-21212243Y42441011D01*
X-21491595Y42325299D01*
X-21691879Y42191473D01*
X-21648815Y42226815D01*
X-21569463Y42323506D01*
X-21510498Y42433820D01*
X-21474188Y42553518D01*
X-21461928Y42678000D01*
X-21461928Y44378000D01*
X-21474188Y44502482D01*
X-21510498Y44622180D01*
X-21569463Y44732494D01*
X-21648815Y44829185D01*
X-21745506Y44908537D01*
X-21855820Y44967502D01*
X-21975518Y45003812D01*
X-22100000Y45016072D01*
X-24400000Y45016072D01*
X-24524482Y45003812D01*
X-24644180Y44967502D01*
X-24754494Y44908537D01*
X-24851185Y44829185D01*
X-24930537Y44732494D01*
X-24989502Y44622180D01*
X-25025812Y44502482D01*
X-25038072Y44378000D01*
X-30961928Y44378000D01*
X-30974188Y44502482D01*
X-31010498Y44622180D01*
X-31069463Y44732494D01*
X-31148815Y44829185D01*
X-31245506Y44908537D01*
X-31355820Y44967502D01*
X-31475518Y45003812D01*
X-31600000Y45016072D01*
X-33900000Y45016072D01*
X-34024482Y45003812D01*
X-34144180Y44967502D01*
X-34254494Y44908537D01*
X-34351185Y44829185D01*
X-34430537Y44732494D01*
X-34489502Y44622180D01*
X-34525812Y44502482D01*
X-34538072Y44378000D01*
X-35999000Y44378000D01*
X-35999000Y50221892D01*
X-15159000Y50221892D01*
X-15159000Y49816108D01*
X-15079835Y49418120D01*
X-14924548Y49043224D01*
X-14699106Y48705827D01*
X-14412173Y48418894D01*
X-14074776Y48193452D01*
X-13699880Y48038165D01*
X-13301892Y47959000D01*
X-12896108Y47959000D01*
X-12498120Y48038165D01*
X-12123224Y48193452D01*
X-11785827Y48418894D01*
X-11498894Y48705827D01*
X-11273452Y49043224D01*
X-11118165Y49418120D01*
X-11039000Y49816108D01*
X-11039000Y50221892D01*
X-10459000Y50221892D01*
X-10459000Y49816108D01*
X-10379835Y49418120D01*
X-10224548Y49043224D01*
X-9999106Y48705827D01*
X-9712173Y48418894D01*
X-9374776Y48193452D01*
X-8999880Y48038165D01*
X-8601892Y47959000D01*
X-8196108Y47959000D01*
X-7798120Y48038165D01*
X-7423224Y48193452D01*
X-7085827Y48418894D01*
X-6798894Y48705827D01*
X-6573452Y49043224D01*
X-6418165Y49418120D01*
X-6339000Y49816108D01*
X-6339000Y50221892D01*
X-6418165Y50619880D01*
X-6573452Y50994776D01*
X-6798894Y51332173D01*
X-7085827Y51619106D01*
X-7423224Y51844548D01*
X-7798120Y51999835D01*
X-8196108Y52079000D01*
X-8601892Y52079000D01*
X-8999880Y51999835D01*
X-9374776Y51844548D01*
X-9712173Y51619106D01*
X-9999106Y51332173D01*
X-10224548Y50994776D01*
X-10379835Y50619880D01*
X-10459000Y50221892D01*
X-11039000Y50221892D01*
X-11118165Y50619880D01*
X-11273452Y50994776D01*
X-11498894Y51332173D01*
X-11785827Y51619106D01*
X-12123224Y51844548D01*
X-12498120Y51999835D01*
X-12896108Y52079000D01*
X-13301892Y52079000D01*
X-13699880Y51999835D01*
X-14074776Y51844548D01*
X-14412173Y51619106D01*
X-14699106Y51332173D01*
X-14924548Y50994776D01*
X-15079835Y50619880D01*
X-15159000Y50221892D01*
X-35999000Y50221892D01*
X-35999000Y53026033D01*
X-24969001Y53026033D01*
X-24969001Y52703967D01*
X-24906169Y52388088D01*
X-24782919Y52090537D01*
X-24603988Y51822748D01*
X-24376253Y51595013D01*
X-24108464Y51416082D01*
X-23810913Y51292832D01*
X-23495034Y51230000D01*
X-23172968Y51230000D01*
X-22857089Y51292832D01*
X-22559538Y51416082D01*
X-22291749Y51595013D01*
X-22064014Y51822748D01*
X-22064001Y51822767D01*
X-22063988Y51822748D01*
X-21836253Y51595013D01*
X-21568464Y51416082D01*
X-21270913Y51292832D01*
X-20955034Y51230000D01*
X-20632968Y51230000D01*
X-20317089Y51292832D01*
X-20019538Y51416082D01*
X-19809192Y51556630D01*
X-19784538Y51510506D01*
X-19705186Y51413815D01*
X-19608495Y51334463D01*
X-19498181Y51275498D01*
X-19378483Y51239188D01*
X-19254001Y51226928D01*
X-17254001Y51226928D01*
X-17129519Y51239188D01*
X-17009821Y51275498D01*
X-16899507Y51334463D01*
X-16802816Y51413815D01*
X-16723464Y51510506D01*
X-16664499Y51620820D01*
X-16628189Y51740518D01*
X-16615929Y51865000D01*
X-16615929Y53865000D01*
X-16628189Y53989482D01*
X-16664499Y54109180D01*
X-16723464Y54219494D01*
X-16802816Y54316185D01*
X-16899507Y54395537D01*
X-17009821Y54454502D01*
X-17129519Y54490812D01*
X-17254001Y54503072D01*
X-19254001Y54503072D01*
X-19378483Y54490812D01*
X-19498181Y54454502D01*
X-19608495Y54395537D01*
X-19705186Y54316185D01*
X-19784538Y54219494D01*
X-19809192Y54173370D01*
X-20019538Y54313918D01*
X-20317089Y54437168D01*
X-20632968Y54500000D01*
X-20955034Y54500000D01*
X-21270913Y54437168D01*
X-21568464Y54313918D01*
X-21836253Y54134987D01*
X-22063988Y53907252D01*
X-22064001Y53907233D01*
X-22064014Y53907252D01*
X-22291749Y54134987D01*
X-22559538Y54313918D01*
X-22857089Y54437168D01*
X-23172968Y54500000D01*
X-23495034Y54500000D01*
X-23810913Y54437168D01*
X-24108464Y54313918D01*
X-24376253Y54134987D01*
X-24603988Y53907252D01*
X-24782919Y53639463D01*
X-24906169Y53341912D01*
X-24969001Y53026033D01*
X-35999000Y53026033D01*
X-35999000Y56480891D01*
X-35343462Y56480891D01*
X-35263000Y56260073D01*
X-35136572Y56053283D01*
X-34972231Y55875131D01*
X-34776292Y55732464D01*
X-34556285Y55630764D01*
X-34320664Y55573940D01*
X-34127000Y55721069D01*
X-34127000Y56671500D01*
X-33873000Y56671500D01*
X-33873000Y55721069D01*
X-33679336Y55573940D01*
X-33443715Y55630764D01*
X-33223708Y55732464D01*
X-33027769Y55875131D01*
X-32863428Y56053283D01*
X-32737000Y56260073D01*
X-32656538Y56480891D01*
X-32781269Y56671500D01*
X-33873000Y56671500D01*
X-34127000Y56671500D01*
X-35218731Y56671500D01*
X-35343462Y56480891D01*
X-35999000Y56480891D01*
X-35999000Y59039000D01*
X-35690975Y59039000D01*
X-35667130Y58796898D01*
X-35596511Y58564099D01*
X-35481833Y58349551D01*
X-35327502Y58161498D01*
X-35139449Y58007167D01*
X-34924901Y57892489D01*
X-34792897Y57852446D01*
X-34972231Y57721869D01*
X-35136572Y57543717D01*
X-35263000Y57336927D01*
X-35343462Y57116109D01*
X-35218731Y56925500D01*
X-34127000Y56925500D01*
X-34127000Y56945500D01*
X-33873000Y56945500D01*
X-33873000Y56925500D01*
X-32781269Y56925500D01*
X-32656538Y57116109D01*
X-32737000Y57336927D01*
X-32863428Y57543717D01*
X-33027769Y57721869D01*
X-33207103Y57852446D01*
X-33075099Y57892489D01*
X-32860551Y58007167D01*
X-32672498Y58161498D01*
X-32518167Y58349551D01*
X-32403489Y58564099D01*
X-32332870Y58796898D01*
X-32309025Y59039000D01*
X-32332870Y59281102D01*
X-32403489Y59513901D01*
X-32518167Y59728449D01*
X-32672498Y59916502D01*
X-32860551Y60070833D01*
X-33075099Y60185511D01*
X-33307898Y60256130D01*
X-33489335Y60274000D01*
X-34510665Y60274000D01*
X-34692102Y60256130D01*
X-34924901Y60185511D01*
X-35139449Y60070833D01*
X-35327502Y59916502D01*
X-35481833Y59728449D01*
X-35596511Y59513901D01*
X-35667130Y59281102D01*
X-35690975Y59039000D01*
X-35999000Y59039000D01*
X-35999000Y64354089D01*
X-32177000Y64354089D01*
X-32177000Y64169911D01*
X-32141068Y63989271D01*
X-32070586Y63819111D01*
X-31968262Y63665972D01*
X-31838028Y63535738D01*
X-31684889Y63433414D01*
X-31514729Y63362932D01*
X-31393648Y63338847D01*
X-27937999Y59883197D01*
X-27938000Y56425536D01*
X-28006586Y56322889D01*
X-28077068Y56152729D01*
X-28113000Y55972089D01*
X-28113000Y55787911D01*
X-28077068Y55607271D01*
X-28006586Y55437111D01*
X-27904262Y55283972D01*
X-27774028Y55153738D01*
X-27620889Y55051414D01*
X-27450729Y54980932D01*
X-27306797Y54952302D01*
X-27244586Y54802111D01*
X-27142262Y54648972D01*
X-27012028Y54518738D01*
X-26858889Y54416414D01*
X-26688729Y54345932D01*
X-26508089Y54310000D01*
X-26323911Y54310000D01*
X-26143271Y54345932D01*
X-25973111Y54416414D01*
X-25908000Y54459920D01*
X-25842889Y54416414D01*
X-25672729Y54345932D01*
X-25492089Y54310000D01*
X-25307911Y54310000D01*
X-25127271Y54345932D01*
X-24957111Y54416414D01*
X-24803972Y54518738D01*
X-24673738Y54648972D01*
X-24571414Y54802111D01*
X-24500932Y54972271D01*
X-24465000Y55152911D01*
X-24465000Y55337089D01*
X-24500932Y55517729D01*
X-24546805Y55628478D01*
X-24320664Y55573940D01*
X-24127000Y55721069D01*
X-24127000Y56671500D01*
X-23873000Y56671500D01*
X-23873000Y55721069D01*
X-23679336Y55573940D01*
X-23443715Y55630764D01*
X-23223708Y55732464D01*
X-23027769Y55875131D01*
X-22863428Y56053283D01*
X-22737000Y56260073D01*
X-22656538Y56480891D01*
X-15343462Y56480891D01*
X-15263000Y56260073D01*
X-15136572Y56053283D01*
X-14972231Y55875131D01*
X-14776292Y55732464D01*
X-14556285Y55630764D01*
X-14320664Y55573940D01*
X-14127000Y55721069D01*
X-14127000Y56671500D01*
X-13873000Y56671500D01*
X-13873000Y55721069D01*
X-13679336Y55573940D01*
X-13443715Y55630764D01*
X-13223708Y55732464D01*
X-13027769Y55875131D01*
X-12863428Y56053283D01*
X-12737000Y56260073D01*
X-12656538Y56480891D01*
X-5343462Y56480891D01*
X-5263000Y56260073D01*
X-5136572Y56053283D01*
X-4972231Y55875131D01*
X-4776292Y55732464D01*
X-4556285Y55630764D01*
X-4320664Y55573940D01*
X-4127000Y55721069D01*
X-4127000Y56671500D01*
X-3873000Y56671500D01*
X-3873000Y55721069D01*
X-3679336Y55573940D01*
X-3443715Y55630764D01*
X-3223708Y55732464D01*
X-3027769Y55875131D01*
X-2863428Y56053283D01*
X-2737000Y56260073D01*
X-2656538Y56480891D01*
X-2781269Y56671500D01*
X-3873000Y56671500D01*
X-4127000Y56671500D01*
X-5218731Y56671500D01*
X-5343462Y56480891D01*
X-12656538Y56480891D01*
X-12781269Y56671500D01*
X-13873000Y56671500D01*
X-14127000Y56671500D01*
X-15218731Y56671500D01*
X-15343462Y56480891D01*
X-22656538Y56480891D01*
X-22781269Y56671500D01*
X-23873000Y56671500D01*
X-24127000Y56671500D01*
X-24147000Y56671500D01*
X-24147000Y56925500D01*
X-24127000Y56925500D01*
X-24127000Y56945500D01*
X-23873000Y56945500D01*
X-23873000Y56925500D01*
X-22781269Y56925500D01*
X-22656538Y57116109D01*
X-22737000Y57336927D01*
X-22863428Y57543717D01*
X-23027769Y57721869D01*
X-23207103Y57852446D01*
X-23075099Y57892489D01*
X-22860551Y58007167D01*
X-22672498Y58161498D01*
X-22518167Y58349551D01*
X-22403489Y58564099D01*
X-22355775Y58721391D01*
X-15643462Y58721391D01*
X-15639591Y58683718D01*
X-15547421Y58458467D01*
X-15413078Y58255526D01*
X-15241725Y58082693D01*
X-15039946Y57946610D01*
X-14815496Y57852507D01*
X-14797765Y57848901D01*
X-14972231Y57721869D01*
X-15136572Y57543717D01*
X-15263000Y57336927D01*
X-15343462Y57116109D01*
X-15218731Y56925500D01*
X-14127000Y56925500D01*
X-14127000Y58912000D01*
X-13873000Y58912000D01*
X-13873000Y56925500D01*
X-12781269Y56925500D01*
X-12656538Y57116109D01*
X-12737000Y57336927D01*
X-12863428Y57543717D01*
X-13027769Y57721869D01*
X-13202235Y57848901D01*
X-13184504Y57852507D01*
X-12960054Y57946610D01*
X-12758275Y58082693D01*
X-12586922Y58255526D01*
X-12452579Y58458467D01*
X-12360409Y58683718D01*
X-12356538Y58721391D01*
X-5643462Y58721391D01*
X-5639591Y58683718D01*
X-5547421Y58458467D01*
X-5413078Y58255526D01*
X-5241725Y58082693D01*
X-5039946Y57946610D01*
X-4815496Y57852507D01*
X-4797765Y57848901D01*
X-4972231Y57721869D01*
X-5136572Y57543717D01*
X-5263000Y57336927D01*
X-5343462Y57116109D01*
X-5218731Y56925500D01*
X-4127000Y56925500D01*
X-4127000Y58912000D01*
X-3873000Y58912000D01*
X-3873000Y56925500D01*
X-2781269Y56925500D01*
X-2656538Y57116109D01*
X-2737000Y57336927D01*
X-2863428Y57543717D01*
X-3027769Y57721869D01*
X-3202235Y57848901D01*
X-3184504Y57852507D01*
X-2960054Y57946610D01*
X-2758275Y58082693D01*
X-2586922Y58255526D01*
X-2452579Y58458467D01*
X-2360409Y58683718D01*
X-2356538Y58721391D01*
X-2481269Y58912000D01*
X-3873000Y58912000D01*
X-4127000Y58912000D01*
X-5518731Y58912000D01*
X-5643462Y58721391D01*
X-12356538Y58721391D01*
X-12481269Y58912000D01*
X-13873000Y58912000D01*
X-14127000Y58912000D01*
X-15518731Y58912000D01*
X-15643462Y58721391D01*
X-22355775Y58721391D01*
X-22332870Y58796898D01*
X-22309025Y59039000D01*
X-22332870Y59281102D01*
X-22355774Y59356609D01*
X-15643462Y59356609D01*
X-15518731Y59166000D01*
X-14127000Y59166000D01*
X-14127000Y60274000D01*
X-13873000Y60274000D01*
X-13873000Y59166000D01*
X-12481269Y59166000D01*
X-12356538Y59356609D01*
X-12360409Y59394282D01*
X-12452579Y59619533D01*
X-12586922Y59822474D01*
X-12758275Y59995307D01*
X-12960054Y60131390D01*
X-13184504Y60225493D01*
X-13423000Y60274000D01*
X-13873000Y60274000D01*
X-14127000Y60274000D01*
X-14577000Y60274000D01*
X-14815496Y60225493D01*
X-15039946Y60131390D01*
X-15241725Y59995307D01*
X-15413078Y59822474D01*
X-15547421Y59619533D01*
X-15639591Y59394282D01*
X-15643462Y59356609D01*
X-22355774Y59356609D01*
X-22403489Y59513901D01*
X-22518167Y59728449D01*
X-22672498Y59916502D01*
X-22860551Y60070833D01*
X-23075099Y60185511D01*
X-23307898Y60256130D01*
X-23489335Y60274000D01*
X-24510665Y60274000D01*
X-24640000Y60261262D01*
X-24640000Y63782589D01*
X-9952000Y63782589D01*
X-9952000Y63598411D01*
X-9916068Y63417771D01*
X-9845586Y63247611D01*
X-9776999Y63144963D01*
X-9777000Y60646536D01*
X-9845586Y60543889D01*
X-9916068Y60373729D01*
X-9952000Y60193089D01*
X-9952000Y60008911D01*
X-9916068Y59828271D01*
X-9845586Y59658111D01*
X-9743262Y59504972D01*
X-9613028Y59374738D01*
X-9459889Y59272414D01*
X-9289729Y59201932D01*
X-9109089Y59166000D01*
X-8924911Y59166000D01*
X-8744271Y59201932D01*
X-8574111Y59272414D01*
X-8448105Y59356609D01*
X-5643462Y59356609D01*
X-5518731Y59166000D01*
X-4127000Y59166000D01*
X-4127000Y60274000D01*
X-3873000Y60274000D01*
X-3873000Y59166000D01*
X-2481269Y59166000D01*
X-2356538Y59356609D01*
X-2360409Y59394282D01*
X-2452579Y59619533D01*
X-2586922Y59822474D01*
X-2758275Y59995307D01*
X-2960054Y60131390D01*
X-3184504Y60225493D01*
X-3423000Y60274000D01*
X-3873000Y60274000D01*
X-4127000Y60274000D01*
X-4577000Y60274000D01*
X-4815496Y60225493D01*
X-5039946Y60131390D01*
X-5241725Y59995307D01*
X-5413078Y59822474D01*
X-5547421Y59619533D01*
X-5639591Y59394282D01*
X-5643462Y59356609D01*
X-8448105Y59356609D01*
X-8420972Y59374738D01*
X-8290738Y59504972D01*
X-8188414Y59658111D01*
X-8117932Y59828271D01*
X-8082000Y60008911D01*
X-8082000Y60193089D01*
X-8117932Y60373729D01*
X-8188414Y60543889D01*
X-8257000Y60646535D01*
X-8257000Y63144965D01*
X-8188414Y63247611D01*
X-8117932Y63417771D01*
X-8082000Y63598411D01*
X-8082000Y63782589D01*
X-8117932Y63963229D01*
X-8188414Y64133389D01*
X-8290738Y64286528D01*
X-8420972Y64416762D01*
X-8574111Y64519086D01*
X-8744271Y64589568D01*
X-8924911Y64625500D01*
X-9109089Y64625500D01*
X-9289729Y64589568D01*
X-9459889Y64519086D01*
X-9613028Y64416762D01*
X-9743262Y64286528D01*
X-9845586Y64133389D01*
X-9916068Y63963229D01*
X-9952000Y63782589D01*
X-24640000Y63782589D01*
X-24640000Y65494465D01*
X-24571414Y65597111D01*
X-24500932Y65767271D01*
X-24465000Y65947911D01*
X-24465000Y66132089D01*
X-24469358Y66154000D01*
X-23441793Y66154000D01*
X-23267700Y66171147D01*
X-23044326Y66238906D01*
X-22838464Y66348942D01*
X-22658025Y66497025D01*
X-22509942Y66677464D01*
X-22399906Y66883326D01*
X-22332147Y67106700D01*
X-22309267Y67339000D01*
X-15690733Y67339000D01*
X-15667853Y67106700D01*
X-15600094Y66883326D01*
X-15490058Y66677464D01*
X-15341975Y66497025D01*
X-15161536Y66348942D01*
X-14955674Y66238906D01*
X-14732300Y66171147D01*
X-14558207Y66154000D01*
X-13441793Y66154000D01*
X-13267700Y66171147D01*
X-13044326Y66238906D01*
X-12838464Y66348942D01*
X-12658025Y66497025D01*
X-12509942Y66677464D01*
X-12399906Y66883326D01*
X-12332147Y67106700D01*
X-12309267Y67339000D01*
X-12332147Y67571300D01*
X-12399906Y67794674D01*
X-12509942Y68000536D01*
X-12658025Y68180975D01*
X-12838464Y68329058D01*
X-13044326Y68439094D01*
X-13267700Y68506853D01*
X-13441793Y68524000D01*
X-14558207Y68524000D01*
X-14732300Y68506853D01*
X-14955674Y68439094D01*
X-15161536Y68329058D01*
X-15341975Y68180975D01*
X-15490058Y68000536D01*
X-15600094Y67794674D01*
X-15667853Y67571300D01*
X-15690733Y67339000D01*
X-22309267Y67339000D01*
X-22332147Y67571300D01*
X-22399906Y67794674D01*
X-22509942Y68000536D01*
X-22658025Y68180975D01*
X-22838464Y68329058D01*
X-23044326Y68439094D01*
X-23267700Y68506853D01*
X-23441793Y68524000D01*
X-24558207Y68524000D01*
X-24732300Y68506853D01*
X-24955674Y68439094D01*
X-25161536Y68329058D01*
X-25341975Y68180975D01*
X-25490058Y68000536D01*
X-25600094Y67794674D01*
X-25667853Y67571300D01*
X-25690733Y67339000D01*
X-25667853Y67106700D01*
X-25620174Y66949522D01*
X-25672729Y66939068D01*
X-25842889Y66868586D01*
X-25996028Y66766262D01*
X-26126262Y66636028D01*
X-26228586Y66482889D01*
X-26299068Y66312729D01*
X-26335000Y66132089D01*
X-26335000Y65947911D01*
X-26299068Y65767271D01*
X-26228586Y65597111D01*
X-26160000Y65494465D01*
X-26160000Y61524801D01*
X-27905847Y63270648D01*
X-27929932Y63391729D01*
X-28000414Y63561889D01*
X-28102738Y63715028D01*
X-28232972Y63845262D01*
X-28386111Y63947586D01*
X-28556271Y64018068D01*
X-28736911Y64054000D01*
X-28921089Y64054000D01*
X-29101729Y64018068D01*
X-29271889Y63947586D01*
X-29425028Y63845262D01*
X-29555262Y63715028D01*
X-29581283Y63676084D01*
X-30318847Y64413648D01*
X-30342932Y64534729D01*
X-30413414Y64704889D01*
X-30515738Y64858028D01*
X-30645972Y64988262D01*
X-30799111Y65090586D01*
X-30969271Y65161068D01*
X-31149911Y65197000D01*
X-31334089Y65197000D01*
X-31514729Y65161068D01*
X-31684889Y65090586D01*
X-31838028Y64988262D01*
X-31968262Y64858028D01*
X-32070586Y64704889D01*
X-32141068Y64534729D01*
X-32177000Y64354089D01*
X-35999000Y64354089D01*
X-35999000Y67339000D01*
X-35690733Y67339000D01*
X-35667853Y67106700D01*
X-35600094Y66883326D01*
X-35490058Y66677464D01*
X-35341975Y66497025D01*
X-35161536Y66348942D01*
X-34955674Y66238906D01*
X-34732300Y66171147D01*
X-34558207Y66154000D01*
X-33441793Y66154000D01*
X-33267700Y66171147D01*
X-33044326Y66238906D01*
X-32838464Y66348942D01*
X-32658025Y66497025D01*
X-32509942Y66677464D01*
X-32399906Y66883326D01*
X-32332147Y67106700D01*
X-32309267Y67339000D01*
X-32332147Y67571300D01*
X-32399906Y67794674D01*
X-32509942Y68000536D01*
X-32658025Y68180975D01*
X-32838464Y68329058D01*
X-33044326Y68439094D01*
X-33267700Y68506853D01*
X-33441793Y68524000D01*
X-34558207Y68524000D01*
X-34732300Y68506853D01*
X-34955674Y68439094D01*
X-35161536Y68329058D01*
X-35341975Y68180975D01*
X-35490058Y68000536D01*
X-35600094Y67794674D01*
X-35667853Y67571300D01*
X-35690733Y67339000D01*
X-35999000Y67339000D01*
X-35999000Y69292089D01*
X-20335000Y69292089D01*
X-20335000Y69107911D01*
X-20299068Y68927271D01*
X-20228586Y68757111D01*
X-20126262Y68603972D01*
X-19996028Y68473738D01*
X-19842889Y68371414D01*
X-19672729Y68300932D01*
X-19492089Y68265000D01*
X-19307911Y68265000D01*
X-19127271Y68300932D01*
X-18957111Y68371414D01*
X-18803972Y68473738D01*
X-18673738Y68603972D01*
X-18571414Y68757111D01*
X-18500932Y68927271D01*
X-18465000Y69107911D01*
X-18465000Y69292089D01*
X-18500932Y69472729D01*
X-18571414Y69642889D01*
X-18640000Y69745535D01*
X-18640000Y71755260D01*
X-13985000Y71755260D01*
X-13985000Y71462740D01*
X-13927932Y71175842D01*
X-13815990Y70905589D01*
X-13653475Y70662368D01*
X-13446632Y70455525D01*
X-13203411Y70293010D01*
X-12933158Y70181068D01*
X-12646260Y70124000D01*
X-12353740Y70124000D01*
X-12066842Y70181068D01*
X-11796589Y70293010D01*
X-11553368Y70455525D01*
X-11346525Y70662368D01*
X-11250000Y70806828D01*
X-11153475Y70662368D01*
X-10946632Y70455525D01*
X-10703411Y70293010D01*
X-10433158Y70181068D01*
X-10146260Y70124000D01*
X-9853740Y70124000D01*
X-9566842Y70181068D01*
X-9296589Y70293010D01*
X-9053368Y70455525D01*
X-8928290Y70580603D01*
X-8348792Y70580603D01*
X-8271157Y70331528D01*
X-8007117Y70205629D01*
X-7723589Y70133661D01*
X-7431469Y70118389D01*
X-7141981Y70160401D01*
X-6866253Y70258081D01*
X-6728843Y70331528D01*
X-6651208Y70580603D01*
X-7500000Y71429395D01*
X-8348792Y70580603D01*
X-8928290Y70580603D01*
X-8846525Y70662368D01*
X-8737584Y70825410D01*
X-8528397Y70760208D01*
X-7679605Y71609000D01*
X-7320395Y71609000D01*
X-6471603Y70760208D01*
X-6222528Y70837843D01*
X-6096629Y71101883D01*
X-6024661Y71385411D01*
X-6009389Y71677531D01*
X-6051401Y71967019D01*
X-6149081Y72242747D01*
X-6222528Y72380157D01*
X-6471603Y72457792D01*
X-7320395Y71609000D01*
X-7679605Y71609000D01*
X-8528397Y72457792D01*
X-8737584Y72392590D01*
X-8846525Y72555632D01*
X-8928290Y72637397D01*
X-8348792Y72637397D01*
X-7500000Y71788605D01*
X-6651208Y72637397D01*
X-6728843Y72886472D01*
X-6992883Y73012371D01*
X-7276411Y73084339D01*
X-7568531Y73099611D01*
X-7858019Y73057599D01*
X-8133747Y72959919D01*
X-8271157Y72886472D01*
X-8348792Y72637397D01*
X-8928290Y72637397D01*
X-9053368Y72762475D01*
X-9296589Y72924990D01*
X-9566842Y73036932D01*
X-9853740Y73094000D01*
X-10146260Y73094000D01*
X-10433158Y73036932D01*
X-10703411Y72924990D01*
X-10946632Y72762475D01*
X-11153475Y72555632D01*
X-11250000Y72411172D01*
X-11346525Y72555632D01*
X-11553368Y72762475D01*
X-11796589Y72924990D01*
X-12066842Y73036932D01*
X-12353740Y73094000D01*
X-12646260Y73094000D01*
X-12933158Y73036932D01*
X-13203411Y72924990D01*
X-13446632Y72762475D01*
X-13653475Y72555632D01*
X-13815990Y72312411D01*
X-13927932Y72042158D01*
X-13985000Y71755260D01*
X-18640000Y71755260D01*
X-18640000Y73310325D01*
X-18538914Y73461611D01*
X-18468432Y73631771D01*
X-18432500Y73812411D01*
X-18432500Y73996589D01*
X-18468432Y74177229D01*
X-18538914Y74347389D01*
X-18641238Y74500528D01*
X-18771472Y74630762D01*
X-18924611Y74733086D01*
X-19094771Y74803568D01*
X-19275411Y74839500D01*
X-19459589Y74839500D01*
X-19640229Y74803568D01*
X-19810389Y74733086D01*
X-19963528Y74630762D01*
X-20093762Y74500528D01*
X-20196086Y74347389D01*
X-20266568Y74177229D01*
X-20302500Y73996589D01*
X-20302500Y73812411D01*
X-20266568Y73631771D01*
X-20196086Y73461611D01*
X-20159999Y73407603D01*
X-20160000Y69745536D01*
X-20228586Y69642889D01*
X-20299068Y69472729D01*
X-20335000Y69292089D01*
X-35999000Y69292089D01*
X-35999000Y74364000D01*
X-34433065Y74364000D01*
X-34358475Y74252368D01*
X-34151632Y74045525D01*
X-33908411Y73883010D01*
X-33638158Y73771068D01*
X-33351260Y73714000D01*
X-33058740Y73714000D01*
X-32771842Y73771068D01*
X-32501589Y73883010D01*
X-32258368Y74045525D01*
X-32051525Y74252368D01*
X-31955000Y74396828D01*
X-31858475Y74252368D01*
X-31651632Y74045525D01*
X-31408411Y73883010D01*
X-31138158Y73771068D01*
X-30851260Y73714000D01*
X-30558740Y73714000D01*
X-30271842Y73771068D01*
X-30001589Y73883010D01*
X-29758368Y74045525D01*
X-29551525Y74252368D01*
X-29455000Y74396828D01*
X-29358475Y74252368D01*
X-29151632Y74045525D01*
X-28908411Y73883010D01*
X-28638158Y73771068D01*
X-28351260Y73714000D01*
X-28058740Y73714000D01*
X-27771842Y73771068D01*
X-27501589Y73883010D01*
X-27258368Y74045525D01*
X-27051525Y74252368D01*
X-26889010Y74495589D01*
X-26777068Y74765842D01*
X-26720000Y75052740D01*
X-26720000Y75345260D01*
X-26777068Y75632158D01*
X-26889010Y75902411D01*
X-27051525Y76145632D01*
X-27258368Y76352475D01*
X-27501589Y76514990D01*
X-27771842Y76626932D01*
X-28058740Y76684000D01*
X-28351260Y76684000D01*
X-28638158Y76626932D01*
X-28908411Y76514990D01*
X-29151632Y76352475D01*
X-29358475Y76145632D01*
X-29455000Y76001172D01*
X-29551525Y76145632D01*
X-29758368Y76352475D01*
X-30001589Y76514990D01*
X-30271842Y76626932D01*
X-30558740Y76684000D01*
X-30851260Y76684000D01*
X-31138158Y76626932D01*
X-31408411Y76514990D01*
X-31651632Y76352475D01*
X-31858475Y76145632D01*
X-31955000Y76001172D01*
X-32051525Y76145632D01*
X-32258368Y76352475D01*
X-32501589Y76514990D01*
X-32771842Y76626932D01*
X-33058740Y76684000D01*
X-33351260Y76684000D01*
X-33638158Y76626932D01*
X-33908411Y76514990D01*
X-34151632Y76352475D01*
X-34358475Y76145632D01*
X-34433065Y76034000D01*
X-35999000Y76034000D01*
X-35999000Y79959000D01*
X-16538072Y79959000D01*
X-16538072Y78259000D01*
X-16525812Y78134518D01*
X-16489502Y78014820D01*
X-16430537Y77904506D01*
X-16351185Y77807815D01*
X-16254494Y77728463D01*
X-16144180Y77669498D01*
X-16024482Y77633188D01*
X-15900000Y77620928D01*
X-13600000Y77620928D01*
X-13475518Y77633188D01*
X-13355820Y77669498D01*
X-13245506Y77728463D01*
X-13148815Y77807815D01*
X-13069463Y77904506D01*
X-13010498Y78014820D01*
X-12974188Y78134518D01*
X-12961928Y78259000D01*
X-12961928Y79959000D01*
X-7038072Y79959000D01*
X-7038072Y78259000D01*
X-7025812Y78134518D01*
X-6989502Y78014820D01*
X-6930537Y77904506D01*
X-6851185Y77807815D01*
X-6754494Y77728463D01*
X-6644180Y77669498D01*
X-6524482Y77633188D01*
X-6400000Y77620928D01*
X-4100000Y77620928D01*
X-3975518Y77633188D01*
X-3855820Y77669498D01*
X-3745506Y77728463D01*
X-3648815Y77807815D01*
X-3569463Y77904506D01*
X-3510498Y78014820D01*
X-3474188Y78134518D01*
X-3461928Y78259000D01*
X-3461928Y79959000D01*
X-3474188Y80083482D01*
X-3510498Y80203180D01*
X-3569463Y80313494D01*
X-3648815Y80410185D01*
X-3745506Y80489537D01*
X-3855820Y80548502D01*
X-3975518Y80584812D01*
X-4100000Y80597072D01*
X-6400000Y80597072D01*
X-6524482Y80584812D01*
X-6644180Y80548502D01*
X-6754494Y80489537D01*
X-6851185Y80410185D01*
X-6930537Y80313494D01*
X-6989502Y80203180D01*
X-7025812Y80083482D01*
X-7038072Y79959000D01*
X-12961928Y79959000D01*
X-12974188Y80083482D01*
X-13010498Y80203180D01*
X-13069463Y80313494D01*
X-13148815Y80410185D01*
X-13245506Y80489537D01*
X-13355820Y80548502D01*
X-13475518Y80584812D01*
X-13600000Y80597072D01*
X-15900000Y80597072D01*
X-16024482Y80584812D01*
X-16144180Y80548502D01*
X-16254494Y80489537D01*
X-16351185Y80410185D01*
X-16430537Y80313494D01*
X-16489502Y80203180D01*
X-16525812Y80083482D01*
X-16538072Y79959000D01*
X-35999000Y79959000D01*
X-35999000Y80210928D01*
X-33955000Y80210928D01*
X-33830518Y80223188D01*
X-33710820Y80259498D01*
X-33600506Y80318463D01*
X-33503815Y80397815D01*
X-33424463Y80494506D01*
X-33365498Y80604820D01*
X-33329188Y80724518D01*
X-33316928Y80849000D01*
X-33316928Y83549000D01*
X-28093072Y83549000D01*
X-28093072Y80849000D01*
X-28080812Y80724518D01*
X-28044502Y80604820D01*
X-27985537Y80494506D01*
X-27906185Y80397815D01*
X-27809494Y80318463D01*
X-27699180Y80259498D01*
X-27579482Y80223188D01*
X-27455000Y80210928D01*
X-25155000Y80210928D01*
X-25030518Y80223188D01*
X-24910820Y80259498D01*
X-24800506Y80318463D01*
X-24703815Y80397815D01*
X-24624463Y80494506D01*
X-24565498Y80604820D01*
X-24529188Y80724518D01*
X-24516928Y80849000D01*
X-24516928Y83549000D01*
X-24529188Y83673482D01*
X-24565498Y83793180D01*
X-24624463Y83903494D01*
X-24703815Y84000185D01*
X-24800506Y84079537D01*
X-24910820Y84138502D01*
X-25030518Y84174812D01*
X-25155000Y84187072D01*
X-27455000Y84187072D01*
X-27579482Y84174812D01*
X-27699180Y84138502D01*
X-27809494Y84079537D01*
X-27906185Y84000185D01*
X-27985537Y83903494D01*
X-28044502Y83793180D01*
X-28080812Y83673482D01*
X-28093072Y83549000D01*
X-33316928Y83549000D01*
X-33329188Y83673482D01*
X-33365498Y83793180D01*
X-33424463Y83903494D01*
X-33503815Y84000185D01*
X-33600506Y84079537D01*
X-33710820Y84138502D01*
X-33830518Y84174812D01*
X-33955000Y84187072D01*
X-35999000Y84187072D01*
X-35999000Y86735089D01*
X-31640000Y86735089D01*
X-31640000Y86550911D01*
X-31604068Y86370271D01*
X-31533586Y86200111D01*
X-31464999Y86097464D01*
X-31465000Y85220036D01*
X-31533586Y85117389D01*
X-31604068Y84947229D01*
X-31640000Y84766589D01*
X-31640000Y84582411D01*
X-31604068Y84401771D01*
X-31533586Y84231611D01*
X-31431262Y84078472D01*
X-31301028Y83948238D01*
X-31147889Y83845914D01*
X-30977729Y83775432D01*
X-30797089Y83739500D01*
X-30612911Y83739500D01*
X-30432271Y83775432D01*
X-30262111Y83845914D01*
X-30108972Y83948238D01*
X-29978738Y84078472D01*
X-29876414Y84231611D01*
X-29805932Y84401771D01*
X-29770000Y84582411D01*
X-29770000Y84766589D01*
X-29805932Y84947229D01*
X-29876414Y85117389D01*
X-29945000Y85220035D01*
X-29945000Y86097465D01*
X-29876414Y86200111D01*
X-29805932Y86370271D01*
X-29770000Y86550911D01*
X-29770000Y86735089D01*
X-29805932Y86915729D01*
X-29876414Y87085889D01*
X-29978738Y87239028D01*
X-30108972Y87369262D01*
X-30262111Y87471586D01*
X-30432271Y87542068D01*
X-30612911Y87578000D01*
X-30797089Y87578000D01*
X-30977729Y87542068D01*
X-31147889Y87471586D01*
X-31301028Y87369262D01*
X-31431262Y87239028D01*
X-31533586Y87085889D01*
X-31604068Y86915729D01*
X-31640000Y86735089D01*
X-35999000Y86735089D01*
X-35999000Y88001089D01*
X-23160000Y88001089D01*
X-23160000Y87816911D01*
X-23124068Y87636271D01*
X-23053586Y87466111D01*
X-22984999Y87363463D01*
X-22985000Y84649536D01*
X-23053586Y84546889D01*
X-23124068Y84376729D01*
X-23160000Y84196089D01*
X-23160000Y84011911D01*
X-23124068Y83831271D01*
X-23053586Y83661111D01*
X-22951262Y83507972D01*
X-22821028Y83377738D01*
X-22667889Y83275414D01*
X-22497729Y83204932D01*
X-22317089Y83169000D01*
X-22132911Y83169000D01*
X-21952271Y83204932D01*
X-21782111Y83275414D01*
X-21628972Y83377738D01*
X-21498738Y83507972D01*
X-21396414Y83661111D01*
X-21325932Y83831271D01*
X-21290000Y84011911D01*
X-21290000Y84196089D01*
X-21325932Y84376729D01*
X-21396414Y84546889D01*
X-21465000Y84649535D01*
X-21465000Y87363465D01*
X-21396414Y87466111D01*
X-21343200Y87594582D01*
X-21292725Y87570342D01*
X-20999858Y87495135D01*
X-20697947Y87478509D01*
X-20398593Y87521103D01*
X-20113301Y87621278D01*
X-19963708Y87701239D01*
X-19880025Y87955420D01*
X-20764500Y88839895D01*
X-20778643Y88825753D01*
X-20958248Y89005358D01*
X-20944105Y89019500D01*
X-20584895Y89019500D01*
X-19700420Y88135025D01*
X-19446239Y88218708D01*
X-19315342Y88491275D01*
X-19240135Y88784142D01*
X-19223509Y89086053D01*
X-19266103Y89385407D01*
X-19366278Y89670699D01*
X-19446239Y89820292D01*
X-19700420Y89903975D01*
X-20584895Y89019500D01*
X-20944105Y89019500D01*
X-21828580Y89903975D01*
X-22082761Y89820292D01*
X-22213658Y89547725D01*
X-22288865Y89254858D01*
X-22305491Y88952947D01*
X-22289989Y88844000D01*
X-22317089Y88844000D01*
X-22497729Y88808068D01*
X-22667889Y88737586D01*
X-22821028Y88635262D01*
X-22951262Y88505028D01*
X-23053586Y88351889D01*
X-23124068Y88181729D01*
X-23160000Y88001089D01*
X-35999000Y88001089D01*
X-35999000Y89481542D01*
X-35920863Y89466000D01*
X-35707137Y89466000D01*
X-35497517Y89507696D01*
X-35300060Y89589485D01*
X-35122353Y89708225D01*
X-34971225Y89859353D01*
X-34852485Y90037060D01*
X-34770696Y90234517D01*
X-34729000Y90444137D01*
X-34729000Y90657863D01*
X-34770696Y90867483D01*
X-34852485Y91064940D01*
X-34971225Y91242647D01*
X-35028434Y91299856D01*
X-35010063Y91318226D01*
X-34896795Y91487744D01*
X-34818774Y91676102D01*
X-34779000Y91876061D01*
X-34779000Y92079939D01*
X-34781649Y92093260D01*
X-31985000Y92093260D01*
X-31985000Y91800740D01*
X-31927932Y91513842D01*
X-31815990Y91243589D01*
X-31653475Y91000368D01*
X-31446632Y90793525D01*
X-31203411Y90631010D01*
X-30933158Y90519068D01*
X-30646260Y90462000D01*
X-30353740Y90462000D01*
X-30066842Y90519068D01*
X-29796589Y90631010D01*
X-29553368Y90793525D01*
X-29346525Y91000368D01*
X-29250000Y91144828D01*
X-29153475Y91000368D01*
X-28946632Y90793525D01*
X-28759999Y90668821D01*
X-28759999Y90394537D01*
X-28828586Y90291889D01*
X-28899068Y90121729D01*
X-28935000Y89941089D01*
X-28935000Y89756911D01*
X-28899068Y89576271D01*
X-28828586Y89406111D01*
X-28726262Y89252972D01*
X-28596028Y89122738D01*
X-28442889Y89020414D01*
X-28272729Y88949932D01*
X-28092089Y88914000D01*
X-27907911Y88914000D01*
X-27727271Y88949932D01*
X-27557111Y89020414D01*
X-27403972Y89122738D01*
X-27273738Y89252972D01*
X-27171414Y89406111D01*
X-27100932Y89576271D01*
X-27065000Y89756911D01*
X-27065000Y89941089D01*
X-27093343Y90083580D01*
X-21648975Y90083580D01*
X-20764500Y89199105D01*
X-19880025Y90083580D01*
X-19963708Y90337761D01*
X-20236275Y90468658D01*
X-20529142Y90543865D01*
X-20831053Y90560491D01*
X-21130407Y90517897D01*
X-21415699Y90417722D01*
X-21565292Y90337761D01*
X-21648975Y90083580D01*
X-27093343Y90083580D01*
X-27100932Y90121729D01*
X-27171414Y90291889D01*
X-27240000Y90394535D01*
X-27240000Y90668822D01*
X-27053368Y90793525D01*
X-26846525Y91000368D01*
X-26750000Y91144828D01*
X-26653475Y91000368D01*
X-26446632Y90793525D01*
X-26203411Y90631010D01*
X-25933158Y90519068D01*
X-25646260Y90462000D01*
X-25353740Y90462000D01*
X-25066842Y90519068D01*
X-24796589Y90631010D01*
X-24553368Y90793525D01*
X-24346525Y91000368D01*
X-24184010Y91243589D01*
X-24072068Y91513842D01*
X-24015000Y91800740D01*
X-24015000Y92093260D01*
X-24072068Y92380158D01*
X-24167929Y92611589D01*
X-23477500Y92611589D01*
X-23477500Y92427411D01*
X-23441568Y92246771D01*
X-23371086Y92076611D01*
X-23268762Y91923472D01*
X-23138528Y91793238D01*
X-22985389Y91690914D01*
X-22815229Y91620432D01*
X-22634589Y91584500D01*
X-22450411Y91584500D01*
X-22269771Y91620432D01*
X-22099611Y91690914D01*
X-21946472Y91793238D01*
X-21816238Y91923472D01*
X-21713914Y92076611D01*
X-21643432Y92246771D01*
X-21607500Y92427411D01*
X-21607500Y92611589D01*
X-21643432Y92792229D01*
X-21713914Y92962389D01*
X-21782500Y93065035D01*
X-21782500Y93926699D01*
X-21173430Y94535769D01*
X-20915684Y94484500D01*
X-20613316Y94484500D01*
X-20316757Y94543489D01*
X-20037405Y94659201D01*
X-19785995Y94827188D01*
X-19572188Y95040995D01*
X-19404201Y95292405D01*
X-19370404Y95374000D01*
X-17528072Y95374000D01*
X-17528072Y93374000D01*
X-17515812Y93249518D01*
X-17479502Y93129820D01*
X-17420537Y93019506D01*
X-17341185Y92922815D01*
X-17244494Y92843463D01*
X-17134180Y92784498D01*
X-17014482Y92748188D01*
X-16890000Y92735928D01*
X-15326729Y92735928D01*
X-12697999Y90107197D01*
X-12698000Y88078536D01*
X-12766586Y87975889D01*
X-12837068Y87805729D01*
X-12873000Y87625089D01*
X-12873000Y87440911D01*
X-12837068Y87260271D01*
X-12766586Y87090111D01*
X-12664262Y86936972D01*
X-12534028Y86806738D01*
X-12380889Y86704414D01*
X-12210729Y86633932D01*
X-12030089Y86598000D01*
X-11845911Y86598000D01*
X-11665271Y86633932D01*
X-11495111Y86704414D01*
X-11493500Y86705490D01*
X-11491889Y86704414D01*
X-11321729Y86633932D01*
X-11141089Y86598000D01*
X-10956911Y86598000D01*
X-10776271Y86633932D01*
X-10606111Y86704414D01*
X-10452972Y86806738D01*
X-10322738Y86936972D01*
X-10220414Y87090111D01*
X-10149932Y87260271D01*
X-10114000Y87440911D01*
X-10114000Y87625089D01*
X-10149932Y87805729D01*
X-10220414Y87975889D01*
X-10289000Y88078535D01*
X-10289000Y91063000D01*
X-8904733Y91063000D01*
X-8881853Y90830700D01*
X-8814094Y90607326D01*
X-8704058Y90401464D01*
X-8555975Y90221025D01*
X-8375536Y90072942D01*
X-8169674Y89962906D01*
X-7999000Y89911133D01*
X-7999000Y89348536D01*
X-8067586Y89245889D01*
X-8138068Y89075729D01*
X-8174000Y88895089D01*
X-8174000Y88710911D01*
X-8138068Y88530271D01*
X-8067586Y88360111D01*
X-7965262Y88206972D01*
X-7835028Y88076738D01*
X-7681889Y87974414D01*
X-7511729Y87903932D01*
X-7331089Y87868000D01*
X-7146911Y87868000D01*
X-6966271Y87903932D01*
X-6796111Y87974414D01*
X-6642972Y88076738D01*
X-6512738Y88206972D01*
X-6410414Y88360111D01*
X-6339932Y88530271D01*
X-6304000Y88710911D01*
X-6304000Y88895089D01*
X-6339932Y89075729D01*
X-6410414Y89245889D01*
X-6479000Y89348535D01*
X-6479000Y89895966D01*
X-6258326Y89962906D01*
X-6052464Y90072942D01*
X-5872025Y90221025D01*
X-5723942Y90401464D01*
X-5613906Y90607326D01*
X-5546147Y90830700D01*
X-5523267Y91063000D01*
X-5546147Y91295300D01*
X-5613906Y91518674D01*
X-5723942Y91724536D01*
X-5872025Y91904975D01*
X-6052464Y92053058D01*
X-6258326Y92163094D01*
X-6481700Y92230853D01*
X-6655793Y92248000D01*
X-7772207Y92248000D01*
X-7946300Y92230853D01*
X-8169674Y92163094D01*
X-8375536Y92053058D01*
X-8555975Y91904975D01*
X-8704058Y91724536D01*
X-8814094Y91518674D01*
X-8881853Y91295300D01*
X-8904733Y91063000D01*
X-10289000Y91063000D01*
X-10289000Y92035677D01*
X-10285324Y92073000D01*
X-10289000Y92110323D01*
X-10289000Y92110333D01*
X-10299997Y92221986D01*
X-10343454Y92365247D01*
X-10414026Y92497276D01*
X-10508999Y92613001D01*
X-10537996Y92636798D01*
X-14323823Y96422624D01*
X-14317832Y96437088D01*
X-14255000Y96752967D01*
X-14255000Y97075033D01*
X-14317832Y97390912D01*
X-14441082Y97688463D01*
X-14620013Y97956252D01*
X-14847748Y98183987D01*
X-14847767Y98184000D01*
X-14847748Y98184013D01*
X-14620013Y98411748D01*
X-14441082Y98679537D01*
X-14317832Y98977088D01*
X-14304246Y99045391D01*
X-8857462Y99045391D01*
X-8853591Y99007718D01*
X-8761421Y98782467D01*
X-8627078Y98579526D01*
X-8455725Y98406693D01*
X-8253946Y98270610D01*
X-8029496Y98176507D01*
X-7791000Y98128000D01*
X-7341000Y98128000D01*
X-7341000Y99236000D01*
X-7087000Y99236000D01*
X-7087000Y98128000D01*
X-6637000Y98128000D01*
X-6398504Y98176507D01*
X-6174054Y98270610D01*
X-5972275Y98406693D01*
X-5800922Y98579526D01*
X-5666579Y98782467D01*
X-5574409Y99007718D01*
X-5570538Y99045391D01*
X-5695269Y99236000D01*
X-7087000Y99236000D01*
X-7341000Y99236000D01*
X-8732731Y99236000D01*
X-8857462Y99045391D01*
X-14304246Y99045391D01*
X-14255000Y99292967D01*
X-14255000Y99615033D01*
X-14268043Y99680609D01*
X-8857462Y99680609D01*
X-8732731Y99490000D01*
X-7341000Y99490000D01*
X-7341000Y101476500D01*
X-7087000Y101476500D01*
X-7087000Y99490000D01*
X-5695269Y99490000D01*
X-5570538Y99680609D01*
X-5574409Y99718282D01*
X-5666579Y99943533D01*
X-5800922Y100146474D01*
X-5972275Y100319307D01*
X-6174054Y100455390D01*
X-6398504Y100549493D01*
X-6416235Y100553099D01*
X-6241769Y100680131D01*
X-6077428Y100858283D01*
X-5951000Y101065073D01*
X-5870538Y101285891D01*
X-5995269Y101476500D01*
X-7087000Y101476500D01*
X-7341000Y101476500D01*
X-8432731Y101476500D01*
X-8557462Y101285891D01*
X-8477000Y101065073D01*
X-8350572Y100858283D01*
X-8186231Y100680131D01*
X-8011765Y100553099D01*
X-8029496Y100549493D01*
X-8253946Y100455390D01*
X-8455725Y100319307D01*
X-8627078Y100146474D01*
X-8761421Y99943533D01*
X-8853591Y99718282D01*
X-8857462Y99680609D01*
X-14268043Y99680609D01*
X-14317832Y99930912D01*
X-14441082Y100228463D01*
X-14620013Y100496252D01*
X-14847748Y100723987D01*
X-15115537Y100902918D01*
X-15413088Y101026168D01*
X-15728967Y101089000D01*
X-16051033Y101089000D01*
X-16366912Y101026168D01*
X-16664463Y100902918D01*
X-16932252Y100723987D01*
X-17159987Y100496252D01*
X-17338918Y100228463D01*
X-17462168Y99930912D01*
X-17525000Y99615033D01*
X-17525000Y99292967D01*
X-17462168Y98977088D01*
X-17338918Y98679537D01*
X-17159987Y98411748D01*
X-16932252Y98184013D01*
X-16932233Y98184000D01*
X-16932252Y98183987D01*
X-17159987Y97956252D01*
X-17338918Y97688463D01*
X-17462168Y97390912D01*
X-17525000Y97075033D01*
X-17525000Y96752967D01*
X-17462168Y96437088D01*
X-17338918Y96139537D01*
X-17198370Y95929191D01*
X-17244494Y95904537D01*
X-17341185Y95825185D01*
X-17420537Y95728494D01*
X-17479502Y95618180D01*
X-17515812Y95498482D01*
X-17528072Y95374000D01*
X-19370404Y95374000D01*
X-19288489Y95571757D01*
X-19229500Y95868316D01*
X-19229500Y96170684D01*
X-19288489Y96467243D01*
X-19404201Y96746595D01*
X-19572188Y96998005D01*
X-19785995Y97211812D01*
X-20037405Y97379799D01*
X-20316757Y97495511D01*
X-20613316Y97554500D01*
X-20915684Y97554500D01*
X-21212243Y97495511D01*
X-21491595Y97379799D01*
X-21743005Y97211812D01*
X-21956812Y96998005D01*
X-22124799Y96746595D01*
X-22240511Y96467243D01*
X-22299500Y96170684D01*
X-22299500Y95868316D01*
X-22248231Y95610570D01*
X-23053502Y94805299D01*
X-23082500Y94781501D01*
X-23106298Y94752503D01*
X-23106299Y94752502D01*
X-23177474Y94665776D01*
X-23248046Y94533746D01*
X-23291502Y94390485D01*
X-23306176Y94241500D01*
X-23302499Y94204168D01*
X-23302500Y93065036D01*
X-23371086Y92962389D01*
X-23441568Y92792229D01*
X-23477500Y92611589D01*
X-24167929Y92611589D01*
X-24184010Y92650411D01*
X-24346525Y92893632D01*
X-24553368Y93100475D01*
X-24796589Y93262990D01*
X-25066842Y93374932D01*
X-25353740Y93432000D01*
X-25646260Y93432000D01*
X-25933158Y93374932D01*
X-26203411Y93262990D01*
X-26446632Y93100475D01*
X-26653475Y92893632D01*
X-26750000Y92749172D01*
X-26846525Y92893632D01*
X-27053368Y93100475D01*
X-27296589Y93262990D01*
X-27566842Y93374932D01*
X-27853740Y93432000D01*
X-28146260Y93432000D01*
X-28433158Y93374932D01*
X-28703411Y93262990D01*
X-28946632Y93100475D01*
X-29153475Y92893632D01*
X-29250000Y92749172D01*
X-29346525Y92893632D01*
X-29553368Y93100475D01*
X-29796589Y93262990D01*
X-30066842Y93374932D01*
X-30353740Y93432000D01*
X-30646260Y93432000D01*
X-30933158Y93374932D01*
X-31203411Y93262990D01*
X-31446632Y93100475D01*
X-31653475Y92893632D01*
X-31815990Y92650411D01*
X-31927932Y92380158D01*
X-31985000Y92093260D01*
X-34781649Y92093260D01*
X-34818774Y92279898D01*
X-34896795Y92468256D01*
X-35010063Y92637774D01*
X-35154226Y92781937D01*
X-35323744Y92895205D01*
X-35512102Y92973226D01*
X-35712061Y93013000D01*
X-35915939Y93013000D01*
X-35999000Y92996478D01*
X-35999000Y100297000D01*
X-34538072Y100297000D01*
X-34538072Y98597000D01*
X-34525812Y98472518D01*
X-34489502Y98352820D01*
X-34430537Y98242506D01*
X-34351185Y98145815D01*
X-34254494Y98066463D01*
X-34144180Y98007498D01*
X-34024482Y97971188D01*
X-33900000Y97958928D01*
X-31600000Y97958928D01*
X-31475518Y97971188D01*
X-31355820Y98007498D01*
X-31245506Y98066463D01*
X-31148815Y98145815D01*
X-31069463Y98242506D01*
X-31010498Y98352820D01*
X-30974188Y98472518D01*
X-30961928Y98597000D01*
X-30961928Y100297000D01*
X-25038072Y100297000D01*
X-25038072Y98597000D01*
X-25025812Y98472518D01*
X-24989502Y98352820D01*
X-24930537Y98242506D01*
X-24851185Y98145815D01*
X-24754494Y98066463D01*
X-24644180Y98007498D01*
X-24524482Y97971188D01*
X-24400000Y97958928D01*
X-22100000Y97958928D01*
X-21975518Y97971188D01*
X-21855820Y98007498D01*
X-21745506Y98066463D01*
X-21648815Y98145815D01*
X-21569463Y98242506D01*
X-21510498Y98352820D01*
X-21474188Y98472518D01*
X-21461928Y98597000D01*
X-21461928Y100297000D01*
X-21474188Y100421482D01*
X-21510498Y100541180D01*
X-21569463Y100651494D01*
X-21648815Y100748185D01*
X-21745506Y100827537D01*
X-21855820Y100886502D01*
X-21975518Y100922812D01*
X-22100000Y100935072D01*
X-24400000Y100935072D01*
X-24524482Y100922812D01*
X-24644180Y100886502D01*
X-24754494Y100827537D01*
X-24851185Y100748185D01*
X-24930537Y100651494D01*
X-24989502Y100541180D01*
X-25025812Y100421482D01*
X-25038072Y100297000D01*
X-30961928Y100297000D01*
X-30974188Y100421482D01*
X-31010498Y100541180D01*
X-31069463Y100651494D01*
X-31148815Y100748185D01*
X-31245506Y100827537D01*
X-31355820Y100886502D01*
X-31475518Y100922812D01*
X-31600000Y100935072D01*
X-33900000Y100935072D01*
X-34024482Y100922812D01*
X-34144180Y100886502D01*
X-34254494Y100827537D01*
X-34351185Y100748185D01*
X-34430537Y100651494D01*
X-34489502Y100541180D01*
X-34525812Y100421482D01*
X-34538072Y100297000D01*
X-35999000Y100297000D01*
X-35999000Y106064260D01*
X-21365000Y106064260D01*
X-21365000Y105771740D01*
X-21307932Y105484842D01*
X-21195990Y105214589D01*
X-21033475Y104971368D01*
X-20826632Y104764525D01*
X-20652240Y104648000D01*
X-20826632Y104531475D01*
X-21033475Y104324632D01*
X-21195990Y104081411D01*
X-21307932Y103811158D01*
X-21365000Y103524260D01*
X-21365000Y103231740D01*
X-21307932Y102944842D01*
X-21195990Y102674589D01*
X-21033475Y102431368D01*
X-20826632Y102224525D01*
X-20583411Y102062010D01*
X-20313158Y101950068D01*
X-20026260Y101893000D01*
X-19733740Y101893000D01*
X-19446842Y101950068D01*
X-19176589Y102062010D01*
X-18933368Y102224525D01*
X-18808290Y102349603D01*
X-18188792Y102349603D01*
X-18111157Y102100528D01*
X-17847117Y101974629D01*
X-17563589Y101902661D01*
X-17271469Y101887389D01*
X-16981981Y101929401D01*
X-16706253Y102027081D01*
X-16568843Y102100528D01*
X-16491208Y102349603D01*
X-15648792Y102349603D01*
X-15571157Y102100528D01*
X-15307117Y101974629D01*
X-15023589Y101902661D01*
X-14731469Y101887389D01*
X-14441981Y101929401D01*
X-14166253Y102027081D01*
X-14028843Y102100528D01*
X-13951208Y102349603D01*
X-13108792Y102349603D01*
X-13031157Y102100528D01*
X-12767117Y101974629D01*
X-12483589Y101902661D01*
X-12191469Y101887389D01*
X-11901981Y101929401D01*
X-11626253Y102027081D01*
X-11488843Y102100528D01*
X-11411208Y102349603D01*
X-12260000Y103198395D01*
X-13108792Y102349603D01*
X-13951208Y102349603D01*
X-14800000Y103198395D01*
X-15648792Y102349603D01*
X-16491208Y102349603D01*
X-17340000Y103198395D01*
X-18188792Y102349603D01*
X-18808290Y102349603D01*
X-18726525Y102431368D01*
X-18610689Y102604729D01*
X-18368397Y102529208D01*
X-17519605Y103378000D01*
X-17160395Y103378000D01*
X-16311603Y102529208D01*
X-16070000Y102604514D01*
X-15828397Y102529208D01*
X-14979605Y103378000D01*
X-14620395Y103378000D01*
X-13771603Y102529208D01*
X-13530000Y102604514D01*
X-13288397Y102529208D01*
X-12439605Y103378000D01*
X-13288397Y104226792D01*
X-13530000Y104151486D01*
X-13771603Y104226792D01*
X-14620395Y103378000D01*
X-14979605Y103378000D01*
X-15828397Y104226792D01*
X-16070000Y104151486D01*
X-16311603Y104226792D01*
X-17160395Y103378000D01*
X-17519605Y103378000D01*
X-18368397Y104226792D01*
X-18610689Y104151271D01*
X-18726525Y104324632D01*
X-18933368Y104531475D01*
X-19107760Y104648000D01*
X-18933368Y104764525D01*
X-18808290Y104889603D01*
X-18188792Y104889603D01*
X-18113486Y104648000D01*
X-18188792Y104406397D01*
X-17340000Y103557605D01*
X-16491208Y104406397D01*
X-16566514Y104648000D01*
X-16491208Y104889603D01*
X-15648792Y104889603D01*
X-15573486Y104648000D01*
X-15648792Y104406397D01*
X-14800000Y103557605D01*
X-13951208Y104406397D01*
X-14026514Y104648000D01*
X-13951208Y104889603D01*
X-13108792Y104889603D01*
X-13033486Y104648000D01*
X-13108792Y104406397D01*
X-12260000Y103557605D01*
X-11411208Y104406397D01*
X-11486514Y104648000D01*
X-11411208Y104889603D01*
X-12260000Y105738395D01*
X-13108792Y104889603D01*
X-13951208Y104889603D01*
X-14800000Y105738395D01*
X-15648792Y104889603D01*
X-16491208Y104889603D01*
X-17340000Y105738395D01*
X-18188792Y104889603D01*
X-18808290Y104889603D01*
X-18726525Y104971368D01*
X-18610689Y105144729D01*
X-18368397Y105069208D01*
X-17519605Y105918000D01*
X-17160395Y105918000D01*
X-16311603Y105069208D01*
X-16070000Y105144514D01*
X-15828397Y105069208D01*
X-14979605Y105918000D01*
X-14620395Y105918000D01*
X-13771603Y105069208D01*
X-13530000Y105144514D01*
X-13288397Y105069208D01*
X-12439605Y105918000D01*
X-12080395Y105918000D01*
X-11231603Y105069208D01*
X-10989311Y105144729D01*
X-10873475Y104971368D01*
X-10666632Y104764525D01*
X-10492240Y104648000D01*
X-10666632Y104531475D01*
X-10873475Y104324632D01*
X-10989311Y104151271D01*
X-11231603Y104226792D01*
X-12080395Y103378000D01*
X-11231603Y102529208D01*
X-10989311Y102604729D01*
X-10873475Y102431368D01*
X-10666632Y102224525D01*
X-10423411Y102062010D01*
X-10153158Y101950068D01*
X-9866260Y101893000D01*
X-9573740Y101893000D01*
X-9432428Y101921109D01*
X-8557462Y101921109D01*
X-8432731Y101730500D01*
X-7341000Y101730500D01*
X-7341000Y102680931D01*
X-7087000Y102680931D01*
X-7087000Y101730500D01*
X-5995269Y101730500D01*
X-5870538Y101921109D01*
X-5951000Y102141927D01*
X-6077428Y102348717D01*
X-6241769Y102526869D01*
X-6437708Y102669536D01*
X-6657715Y102771236D01*
X-6893336Y102828060D01*
X-7087000Y102680931D01*
X-7341000Y102680931D01*
X-7534664Y102828060D01*
X-7770285Y102771236D01*
X-7990292Y102669536D01*
X-8186231Y102526869D01*
X-8350572Y102348717D01*
X-8477000Y102141927D01*
X-8557462Y101921109D01*
X-9432428Y101921109D01*
X-9286842Y101950068D01*
X-9016589Y102062010D01*
X-8773368Y102224525D01*
X-8566525Y102431368D01*
X-8404010Y102674589D01*
X-8292068Y102944842D01*
X-8235000Y103231740D01*
X-8235000Y103524260D01*
X-8292068Y103811158D01*
X-8404010Y104081411D01*
X-8566525Y104324632D01*
X-8773368Y104531475D01*
X-8947760Y104648000D01*
X-8773368Y104764525D01*
X-8566525Y104971368D01*
X-8404010Y105214589D01*
X-8292068Y105484842D01*
X-8235000Y105771740D01*
X-8235000Y106064260D01*
X-8292068Y106351158D01*
X-8404010Y106621411D01*
X-8566525Y106864632D01*
X-8773368Y107071475D01*
X-9016589Y107233990D01*
X-9286842Y107345932D01*
X-9573740Y107403000D01*
X-9866260Y107403000D01*
X-10153158Y107345932D01*
X-10423411Y107233990D01*
X-10666632Y107071475D01*
X-10873475Y106864632D01*
X-10989311Y106691271D01*
X-11231603Y106766792D01*
X-12080395Y105918000D01*
X-12439605Y105918000D01*
X-13288397Y106766792D01*
X-13530000Y106691486D01*
X-13771603Y106766792D01*
X-14620395Y105918000D01*
X-14979605Y105918000D01*
X-15828397Y106766792D01*
X-16070000Y106691486D01*
X-16311603Y106766792D01*
X-17160395Y105918000D01*
X-17519605Y105918000D01*
X-18368397Y106766792D01*
X-18610689Y106691271D01*
X-18726525Y106864632D01*
X-18808290Y106946397D01*
X-18188792Y106946397D01*
X-17340000Y106097605D01*
X-16491208Y106946397D01*
X-15648792Y106946397D01*
X-14800000Y106097605D01*
X-13951208Y106946397D01*
X-13108792Y106946397D01*
X-12260000Y106097605D01*
X-11411208Y106946397D01*
X-11488843Y107195472D01*
X-11752883Y107321371D01*
X-12036411Y107393339D01*
X-12328531Y107408611D01*
X-12618019Y107366599D01*
X-12893747Y107268919D01*
X-13031157Y107195472D01*
X-13108792Y106946397D01*
X-13951208Y106946397D01*
X-14028843Y107195472D01*
X-14292883Y107321371D01*
X-14576411Y107393339D01*
X-14868531Y107408611D01*
X-15158019Y107366599D01*
X-15433747Y107268919D01*
X-15571157Y107195472D01*
X-15648792Y106946397D01*
X-16491208Y106946397D01*
X-16568843Y107195472D01*
X-16832883Y107321371D01*
X-17116411Y107393339D01*
X-17408531Y107408611D01*
X-17698019Y107366599D01*
X-17973747Y107268919D01*
X-18111157Y107195472D01*
X-18188792Y106946397D01*
X-18808290Y106946397D01*
X-18933368Y107071475D01*
X-19176589Y107233990D01*
X-19446842Y107345932D01*
X-19733740Y107403000D01*
X-20026260Y107403000D01*
X-20313158Y107345932D01*
X-20583411Y107233990D01*
X-20826632Y107071475D01*
X-21033475Y106864632D01*
X-21195990Y106621411D01*
X-21307932Y106351158D01*
X-21365000Y106064260D01*
X-35999000Y106064260D01*
X-35999000Y107246579D01*
X-35618578Y107627000D01*
X-962706Y107627000D01*
X-803303Y107642700D01*
X-660000Y107686170D01*
X-660000Y90634802D01*
G04 #@! TA.AperFunction,Conductor*
D27*
G36*
X-660000Y90634802D02*
G01*
X-1235847Y91210649D01*
X-1259932Y91331729D01*
X-1330414Y91501889D01*
X-1432738Y91655028D01*
X-1562972Y91785262D01*
X-1716111Y91887586D01*
X-1886271Y91958068D01*
X-2066911Y91994000D01*
X-2251089Y91994000D01*
X-2431729Y91958068D01*
X-2601889Y91887586D01*
X-2755028Y91785262D01*
X-2885262Y91655028D01*
X-2987586Y91501889D01*
X-3058068Y91331729D01*
X-3094000Y91151089D01*
X-3094000Y90966911D01*
X-3058068Y90786271D01*
X-2987586Y90616111D01*
X-2885262Y90462972D01*
X-2755028Y90332738D01*
X-2673481Y90278250D01*
X-2691921Y90281918D01*
X-2876099Y90281918D01*
X-3056739Y90245986D01*
X-3226899Y90175504D01*
X-3380038Y90073180D01*
X-3510272Y89942946D01*
X-3612596Y89789807D01*
X-3683078Y89619647D01*
X-3719010Y89439007D01*
X-3719010Y89254829D01*
X-3683078Y89074189D01*
X-3612596Y88904029D01*
X-3510272Y88750890D01*
X-3390891Y88631509D01*
X-3506750Y88608463D01*
X-3676910Y88537981D01*
X-3830049Y88435657D01*
X-3960283Y88305423D01*
X-4062607Y88152284D01*
X-4133089Y87982124D01*
X-4169021Y87801484D01*
X-4169021Y87617306D01*
X-4133089Y87436666D01*
X-4062607Y87266506D01*
X-3960283Y87113367D01*
X-3830049Y86983133D01*
X-3699910Y86896177D01*
X-3747431Y86825056D01*
X-3817913Y86654896D01*
X-3853845Y86474256D01*
X-3853845Y86290078D01*
X-3817913Y86109438D01*
X-3747431Y85939278D01*
X-3645107Y85786139D01*
X-3514873Y85655905D01*
X-3361734Y85553581D01*
X-3253030Y85508555D01*
X-3253031Y71476669D01*
X-3324098Y71405602D01*
X-3445178Y71381517D01*
X-3615338Y71311035D01*
X-3768477Y71208711D01*
X-3898711Y71078477D01*
X-4001035Y70925338D01*
X-4071517Y70755178D01*
X-4107449Y70574538D01*
X-4107449Y70390360D01*
X-4071517Y70209720D01*
X-4001035Y70039560D01*
X-3898711Y69886421D01*
X-3768477Y69756187D01*
X-3615338Y69653863D01*
X-3445178Y69583381D01*
X-3264538Y69547449D01*
X-3080360Y69547449D01*
X-2899720Y69583381D01*
X-2803020Y69623435D01*
X-2803020Y69610782D01*
X-3889801Y68524000D01*
X-4558207Y68524000D01*
X-4732300Y68506853D01*
X-4955674Y68439094D01*
X-5161536Y68329058D01*
X-5341975Y68180975D01*
X-5490058Y68000536D01*
X-5600094Y67794674D01*
X-5667853Y67571300D01*
X-5690733Y67339000D01*
X-5667853Y67106700D01*
X-5600094Y66883326D01*
X-5490058Y66677464D01*
X-5341975Y66497025D01*
X-5161536Y66348942D01*
X-4955674Y66238906D01*
X-4732300Y66171147D01*
X-4558207Y66154000D01*
X-3441793Y66154000D01*
X-3267700Y66171147D01*
X-3044326Y66238906D01*
X-2838464Y66348942D01*
X-2663677Y66492387D01*
X-2628028Y66456738D01*
X-2474889Y66354414D01*
X-2304729Y66283932D01*
X-2124089Y66248000D01*
X-1939911Y66248000D01*
X-1901812Y66255578D01*
X-1901812Y56196259D01*
X-1965962Y56209019D01*
X-2150140Y56209019D01*
X-2330780Y56173087D01*
X-2500940Y56102605D01*
X-2654079Y56000281D01*
X-2784313Y55870047D01*
X-2886637Y55716908D01*
X-2957119Y55546748D01*
X-2993051Y55366108D01*
X-2993051Y55306935D01*
X-3078721Y55249692D01*
X-3208955Y55119458D01*
X-3311279Y54966319D01*
X-3381761Y54796159D01*
X-3417693Y54615519D01*
X-3417693Y54431341D01*
X-3381761Y54250701D01*
X-3311279Y54080541D01*
X-3242692Y53977893D01*
X-3242693Y52028592D01*
X-3496108Y52079000D01*
X-3901892Y52079000D01*
X-4299880Y51999835D01*
X-4674776Y51844548D01*
X-5012173Y51619106D01*
X-5299106Y51332173D01*
X-5524548Y50994776D01*
X-5679835Y50619880D01*
X-5759000Y50221892D01*
X-5759000Y49816108D01*
X-5679835Y49418120D01*
X-5524548Y49043224D01*
X-5299106Y48705827D01*
X-5012173Y48418894D01*
X-4674776Y48193452D01*
X-4299880Y48038165D01*
X-3901892Y47959000D01*
X-3496108Y47959000D01*
X-3172999Y48023271D01*
X-3173000Y35405628D01*
X-4068026Y34510601D01*
X-4097024Y34486803D01*
X-4120822Y34457805D01*
X-4120823Y34457804D01*
X-4191997Y34371078D01*
X-4262570Y34239048D01*
X-4306026Y34095788D01*
X-4311769Y34037475D01*
X-4363248Y34114518D01*
X-4493482Y34244752D01*
X-4646621Y34347076D01*
X-4816781Y34417558D01*
X-4997421Y34453490D01*
X-5181599Y34453490D01*
X-5362239Y34417558D01*
X-5532399Y34347076D01*
X-5685538Y34244752D01*
X-5815772Y34114518D01*
X-5918096Y33961379D01*
X-5988578Y33791219D01*
X-6024510Y33610579D01*
X-6024510Y33426401D01*
X-5988578Y33245761D01*
X-5918096Y33075601D01*
X-5849509Y32972954D01*
X-5849510Y31923833D01*
X-5853186Y31886510D01*
X-5849510Y31849188D01*
X-5849510Y31849178D01*
X-5838513Y31737525D01*
X-5802837Y31619914D01*
X-5795056Y31594264D01*
X-5724484Y31462234D01*
X-5706423Y31440227D01*
X-5629511Y31346509D01*
X-5600507Y31322706D01*
X-3512999Y29235197D01*
X-3512999Y29131667D01*
X-3512998Y29131657D01*
X-3512999Y24289858D01*
X-3569463Y24395494D01*
X-3648815Y24492185D01*
X-3745506Y24571537D01*
X-3855820Y24630502D01*
X-3975518Y24666812D01*
X-4100000Y24679072D01*
X-6400000Y24679072D01*
X-6524482Y24666812D01*
X-6644180Y24630502D01*
X-6754494Y24571537D01*
X-6851185Y24492185D01*
X-6930537Y24395494D01*
X-6989502Y24285180D01*
X-7025812Y24165482D01*
X-7038072Y24041000D01*
X-7038072Y22341000D01*
X-7025812Y22216518D01*
X-6989502Y22096820D01*
X-6930537Y21986506D01*
X-6851185Y21889815D01*
X-6754494Y21810463D01*
X-6644180Y21751498D01*
X-6524482Y21715188D01*
X-6400000Y21702928D01*
X-4100000Y21702928D01*
X-3975518Y21715188D01*
X-3855820Y21751498D01*
X-3809596Y21776206D01*
X-4829002Y20756799D01*
X-4858000Y20733001D01*
X-4881798Y20704003D01*
X-4881799Y20704002D01*
X-4952974Y20617276D01*
X-5023546Y20485246D01*
X-5067002Y20341985D01*
X-5081676Y20193000D01*
X-5077999Y20155668D01*
X-5078000Y14896536D01*
X-5146586Y14793889D01*
X-5217068Y14623729D01*
X-5253000Y14443089D01*
X-5253000Y14258911D01*
X-5217068Y14078271D01*
X-5146586Y13908111D01*
X-5044262Y13754972D01*
X-4914028Y13624738D01*
X-4760889Y13522414D01*
X-4590729Y13451932D01*
X-4452997Y13424535D01*
X-4452997Y12605000D01*
X-4558207Y12605000D01*
X-4732300Y12587853D01*
X-4955674Y12520094D01*
X-5161536Y12410058D01*
X-5341975Y12261975D01*
X-5490058Y12081536D01*
X-5600094Y11875674D01*
X-5667853Y11652300D01*
X-5690733Y11420000D01*
X-5667853Y11187700D01*
X-5600094Y10964326D01*
X-5490058Y10758464D01*
X-5341975Y10578025D01*
X-5161536Y10429942D01*
X-4955674Y10319906D01*
X-4732300Y10252147D01*
X-4558207Y10235000D01*
X-3441793Y10235000D01*
X-3267700Y10252147D01*
X-3044326Y10319906D01*
X-2838464Y10429942D01*
X-2658025Y10578025D01*
X-2509942Y10758464D01*
X-2399906Y10964326D01*
X-2332147Y11187700D01*
X-2309267Y11420000D01*
X-2332147Y11652300D01*
X-2399906Y11875674D01*
X-2509942Y12081536D01*
X-2658025Y12261975D01*
X-2838464Y12410058D01*
X-2932998Y12460588D01*
X-2932998Y12658558D01*
X-2775271Y12689932D01*
X-2605111Y12760414D01*
X-2451972Y12862738D01*
X-2321738Y12992972D01*
X-2219414Y13146111D01*
X-2148932Y13316271D01*
X-2113000Y13496911D01*
X-2113000Y13681089D01*
X-2148932Y13861729D01*
X-2219414Y14031889D01*
X-2288000Y14134535D01*
X-2288000Y16978546D01*
X-2140271Y17007932D01*
X-1970111Y17078414D01*
X-1816972Y17180738D01*
X-1712954Y17284756D01*
X-1712954Y5243856D01*
X-1781086Y5141889D01*
X-1851568Y4971729D01*
X-1887500Y4791089D01*
X-1887500Y4606911D01*
X-1851568Y4426271D01*
X-1781086Y4256111D01*
X-1678762Y4102972D01*
X-1548528Y3972738D01*
X-1395389Y3870414D01*
X-1225229Y3799932D01*
X-1044589Y3764000D01*
X-860411Y3764000D01*
X-679771Y3799932D01*
X-659999Y3808122D01*
X-659999Y660000D01*
X-2720739Y660000D01*
X-2781269Y752500D01*
X-3873000Y752500D01*
X-3873000Y732500D01*
X-4127000Y732500D01*
X-4127000Y752500D01*
X-5218731Y752500D01*
X-5279261Y660000D01*
X-12720739Y660000D01*
X-12781269Y752500D01*
X-13873000Y752500D01*
X-13873000Y732500D01*
X-14127000Y732500D01*
X-14127000Y752500D01*
X-15218731Y752500D01*
X-15279261Y660000D01*
X-22720739Y660000D01*
X-22781269Y752500D01*
X-23873000Y752500D01*
X-23873000Y732500D01*
X-24127000Y732500D01*
X-24127000Y752500D01*
X-25218731Y752500D01*
X-25279261Y660000D01*
X-32720738Y660000D01*
X-32781269Y752501D01*
X-33873000Y752501D01*
X-33873000Y732501D01*
X-34127000Y732501D01*
X-34127000Y752501D01*
X-35218731Y752501D01*
X-35279262Y660000D01*
X-37340001Y660000D01*
X-37340001Y3120001D01*
X-35690975Y3120001D01*
X-35667130Y2877899D01*
X-35596511Y2645100D01*
X-35481833Y2430552D01*
X-35327502Y2242499D01*
X-35139449Y2088168D01*
X-34924901Y1973490D01*
X-34792897Y1933447D01*
X-34972231Y1802870D01*
X-35136572Y1624718D01*
X-35263000Y1417928D01*
X-35343462Y1197110D01*
X-35218731Y1006501D01*
X-34127000Y1006501D01*
X-34127000Y1026501D01*
X-33873000Y1026501D01*
X-33873000Y1006501D01*
X-32781269Y1006501D01*
X-32656538Y1197110D01*
X-32737000Y1417928D01*
X-32863428Y1624718D01*
X-33027769Y1802870D01*
X-33207103Y1933447D01*
X-33075099Y1973490D01*
X-32860551Y2088168D01*
X-32672498Y2242499D01*
X-32518167Y2430552D01*
X-32403489Y2645100D01*
X-32332870Y2877899D01*
X-32309026Y3120000D01*
X-25690975Y3120000D01*
X-25667130Y2877898D01*
X-25596511Y2645099D01*
X-25481833Y2430551D01*
X-25327502Y2242498D01*
X-25139449Y2088167D01*
X-24924901Y1973489D01*
X-24792897Y1933446D01*
X-24972231Y1802869D01*
X-25136572Y1624717D01*
X-25263000Y1417927D01*
X-25343462Y1197109D01*
X-25218731Y1006500D01*
X-24127000Y1006500D01*
X-24127000Y1026500D01*
X-23873000Y1026500D01*
X-23873000Y1006500D01*
X-22781269Y1006500D01*
X-22656538Y1197109D01*
X-22737000Y1417927D01*
X-22863428Y1624717D01*
X-23027769Y1802869D01*
X-23207103Y1933446D01*
X-23075099Y1973489D01*
X-22860551Y2088167D01*
X-22672498Y2242498D01*
X-22518167Y2430551D01*
X-22403489Y2645099D01*
X-22355775Y2802391D01*
X-15643462Y2802391D01*
X-15639591Y2764718D01*
X-15547421Y2539467D01*
X-15413078Y2336526D01*
X-15241725Y2163693D01*
X-15039946Y2027610D01*
X-14815496Y1933507D01*
X-14797765Y1929901D01*
X-14972231Y1802869D01*
X-15136572Y1624717D01*
X-15263000Y1417927D01*
X-15343462Y1197109D01*
X-15218731Y1006500D01*
X-14127000Y1006500D01*
X-14127000Y2993000D01*
X-13873000Y2993000D01*
X-13873000Y1006500D01*
X-12781269Y1006500D01*
X-12656538Y1197109D01*
X-12737000Y1417927D01*
X-12863428Y1624717D01*
X-13027769Y1802869D01*
X-13202235Y1929901D01*
X-13184504Y1933507D01*
X-12960054Y2027610D01*
X-12758275Y2163693D01*
X-12586922Y2336526D01*
X-12452579Y2539467D01*
X-12360409Y2764718D01*
X-12356538Y2802391D01*
X-5643462Y2802391D01*
X-5639591Y2764718D01*
X-5547421Y2539467D01*
X-5413078Y2336526D01*
X-5241725Y2163693D01*
X-5039946Y2027610D01*
X-4815496Y1933507D01*
X-4797765Y1929901D01*
X-4972231Y1802869D01*
X-5136572Y1624717D01*
X-5263000Y1417927D01*
X-5343462Y1197109D01*
X-5218731Y1006500D01*
X-4127000Y1006500D01*
X-4127000Y2993000D01*
X-3873000Y2993000D01*
X-3873000Y1006500D01*
X-2781269Y1006500D01*
X-2656538Y1197109D01*
X-2737000Y1417927D01*
X-2863428Y1624717D01*
X-3027769Y1802869D01*
X-3202235Y1929901D01*
X-3184504Y1933507D01*
X-2960054Y2027610D01*
X-2758275Y2163693D01*
X-2586922Y2336526D01*
X-2452579Y2539467D01*
X-2360409Y2764718D01*
X-2356538Y2802391D01*
X-2481269Y2993000D01*
X-3873000Y2993000D01*
X-4127000Y2993000D01*
X-5518731Y2993000D01*
X-5643462Y2802391D01*
X-12356538Y2802391D01*
X-12481269Y2993000D01*
X-13873000Y2993000D01*
X-14127000Y2993000D01*
X-15518731Y2993000D01*
X-15643462Y2802391D01*
X-22355775Y2802391D01*
X-22332870Y2877898D01*
X-22309025Y3120000D01*
X-22332870Y3362102D01*
X-22355774Y3437609D01*
X-15643462Y3437609D01*
X-15518731Y3247000D01*
X-14127000Y3247000D01*
X-14127000Y4355000D01*
X-13873000Y4355000D01*
X-13873000Y3247000D01*
X-12481269Y3247000D01*
X-12356538Y3437609D01*
X-5643462Y3437609D01*
X-5518731Y3247000D01*
X-4127000Y3247000D01*
X-4127000Y4355000D01*
X-3873000Y4355000D01*
X-3873000Y3247000D01*
X-2481269Y3247000D01*
X-2356538Y3437609D01*
X-2360409Y3475282D01*
X-2452579Y3700533D01*
X-2586922Y3903474D01*
X-2758275Y4076307D01*
X-2960054Y4212390D01*
X-3184504Y4306493D01*
X-3423000Y4355000D01*
X-3873000Y4355000D01*
X-4127000Y4355000D01*
X-4577000Y4355000D01*
X-4815496Y4306493D01*
X-5039946Y4212390D01*
X-5241725Y4076307D01*
X-5413078Y3903474D01*
X-5547421Y3700533D01*
X-5639591Y3475282D01*
X-5643462Y3437609D01*
X-12356538Y3437609D01*
X-12360409Y3475282D01*
X-12452579Y3700533D01*
X-12586922Y3903474D01*
X-12758275Y4076307D01*
X-12960054Y4212390D01*
X-13184504Y4306493D01*
X-13423000Y4355000D01*
X-13873000Y4355000D01*
X-14127000Y4355000D01*
X-14577000Y4355000D01*
X-14815496Y4306493D01*
X-15039946Y4212390D01*
X-15241725Y4076307D01*
X-15413078Y3903474D01*
X-15547421Y3700533D01*
X-15639591Y3475282D01*
X-15643462Y3437609D01*
X-22355774Y3437609D01*
X-22403489Y3594901D01*
X-22518167Y3809449D01*
X-22672498Y3997502D01*
X-22860551Y4151833D01*
X-23075099Y4266511D01*
X-23307898Y4337130D01*
X-23489335Y4355000D01*
X-24510665Y4355000D01*
X-24692102Y4337130D01*
X-24924901Y4266511D01*
X-25139449Y4151833D01*
X-25327502Y3997502D01*
X-25481833Y3809449D01*
X-25596511Y3594901D01*
X-25667130Y3362102D01*
X-25690975Y3120000D01*
X-32309026Y3120000D01*
X-32309025Y3120001D01*
X-32332870Y3362103D01*
X-32403489Y3594902D01*
X-32518167Y3809450D01*
X-32672498Y3997503D01*
X-32860551Y4151834D01*
X-33075099Y4266512D01*
X-33249894Y4319536D01*
X-33207414Y4383111D01*
X-33136932Y4553271D01*
X-33101000Y4733911D01*
X-33101000Y4918089D01*
X-33136932Y5098729D01*
X-33207414Y5268889D01*
X-33276000Y5371535D01*
X-33276000Y9109089D01*
X-21382000Y9109089D01*
X-21382000Y8924911D01*
X-21346068Y8744271D01*
X-21275586Y8574111D01*
X-21206999Y8471463D01*
X-21207000Y7403536D01*
X-21275586Y7300889D01*
X-21346068Y7130729D01*
X-21382000Y6950089D01*
X-21382000Y6765911D01*
X-21346068Y6585271D01*
X-21275586Y6415111D01*
X-21173262Y6261972D01*
X-21043028Y6131738D01*
X-20889889Y6029414D01*
X-20719729Y5958932D01*
X-20539089Y5923000D01*
X-20354911Y5923000D01*
X-20174271Y5958932D01*
X-20004111Y6029414D01*
X-19850972Y6131738D01*
X-19720738Y6261972D01*
X-19618414Y6415111D01*
X-19547932Y6585271D01*
X-19512000Y6765911D01*
X-19512000Y6950089D01*
X-19547932Y7130729D01*
X-19618414Y7300889D01*
X-19687000Y7403535D01*
X-19687000Y8471465D01*
X-19618414Y8574111D01*
X-19547932Y8744271D01*
X-19512000Y8924911D01*
X-19512000Y9109089D01*
X-19547932Y9289729D01*
X-19618414Y9459889D01*
X-19720738Y9613028D01*
X-19850972Y9743262D01*
X-20004111Y9845586D01*
X-20174271Y9916068D01*
X-20354911Y9952000D01*
X-20539089Y9952000D01*
X-20719729Y9916068D01*
X-20889889Y9845586D01*
X-21043028Y9743262D01*
X-21173262Y9613028D01*
X-21275586Y9459889D01*
X-21346068Y9289729D01*
X-21382000Y9109089D01*
X-33276000Y9109089D01*
X-33276000Y10251331D01*
X-33267700Y10252148D01*
X-33044326Y10319907D01*
X-32838464Y10429943D01*
X-32658025Y10578026D01*
X-32509942Y10758465D01*
X-32399906Y10964327D01*
X-32332147Y11187701D01*
X-32309268Y11420000D01*
X-25690733Y11420000D01*
X-25667853Y11187700D01*
X-25600094Y10964326D01*
X-25490058Y10758464D01*
X-25341975Y10578025D01*
X-25161536Y10429942D01*
X-24955674Y10319906D01*
X-24732300Y10252147D01*
X-24558207Y10235000D01*
X-23441793Y10235000D01*
X-23267700Y10252147D01*
X-23044326Y10319906D01*
X-22838464Y10429942D01*
X-22658025Y10578025D01*
X-22509942Y10758464D01*
X-22399906Y10964326D01*
X-22332147Y11187700D01*
X-22309267Y11420000D01*
X-15690733Y11420000D01*
X-15667853Y11187700D01*
X-15600094Y10964326D01*
X-15490058Y10758464D01*
X-15341975Y10578025D01*
X-15161536Y10429942D01*
X-14955674Y10319906D01*
X-14732300Y10252147D01*
X-14558207Y10235000D01*
X-13441793Y10235000D01*
X-13267700Y10252147D01*
X-13044326Y10319906D01*
X-12838464Y10429942D01*
X-12658025Y10578025D01*
X-12509942Y10758464D01*
X-12399906Y10964326D01*
X-12332147Y11187700D01*
X-12309267Y11420000D01*
X-12332147Y11652300D01*
X-12399906Y11875674D01*
X-12509942Y12081536D01*
X-12658025Y12261975D01*
X-12838464Y12410058D01*
X-13044326Y12520094D01*
X-13267700Y12587853D01*
X-13441793Y12605000D01*
X-14558207Y12605000D01*
X-14732300Y12587853D01*
X-14955674Y12520094D01*
X-15161536Y12410058D01*
X-15341975Y12261975D01*
X-15490058Y12081536D01*
X-15600094Y11875674D01*
X-15667853Y11652300D01*
X-15690733Y11420000D01*
X-22309267Y11420000D01*
X-22332147Y11652300D01*
X-22399906Y11875674D01*
X-22509942Y12081536D01*
X-22658025Y12261975D01*
X-22838464Y12410058D01*
X-23044326Y12520094D01*
X-23267700Y12587853D01*
X-23441793Y12605000D01*
X-24558207Y12605000D01*
X-24732300Y12587853D01*
X-24955674Y12520094D01*
X-25161536Y12410058D01*
X-25341975Y12261975D01*
X-25490058Y12081536D01*
X-25600094Y11875674D01*
X-25667853Y11652300D01*
X-25690733Y11420000D01*
X-32309268Y11420000D01*
X-32309267Y11420001D01*
X-32332147Y11652301D01*
X-32399906Y11875675D01*
X-32509942Y12081537D01*
X-32658025Y12261976D01*
X-32838464Y12410059D01*
X-33044326Y12520095D01*
X-33267700Y12587854D01*
X-33441793Y12605001D01*
X-34558207Y12605001D01*
X-34732300Y12587854D01*
X-34955674Y12520095D01*
X-35161536Y12410059D01*
X-35341975Y12261976D01*
X-35490058Y12081537D01*
X-35600094Y11875675D01*
X-35667853Y11652301D01*
X-35690733Y11420001D01*
X-35667853Y11187701D01*
X-35600094Y10964327D01*
X-35490058Y10758465D01*
X-35341975Y10578026D01*
X-35161536Y10429943D01*
X-34955674Y10319907D01*
X-34795999Y10271471D01*
X-34796000Y5371536D01*
X-34864586Y5268889D01*
X-34935068Y5098729D01*
X-34971000Y4918089D01*
X-34971000Y4733911D01*
X-34935068Y4553271D01*
X-34864586Y4383111D01*
X-34809972Y4301375D01*
X-34924901Y4266512D01*
X-35139449Y4151834D01*
X-35327502Y3997503D01*
X-35481833Y3809450D01*
X-35596511Y3594902D01*
X-35667130Y3362103D01*
X-35690975Y3120001D01*
X-37340001Y3120001D01*
X-37340001Y15837260D01*
X-13985000Y15837260D01*
X-13985000Y15544740D01*
X-13927932Y15257842D01*
X-13815990Y14987589D01*
X-13653475Y14744368D01*
X-13446632Y14537525D01*
X-13203411Y14375010D01*
X-12933158Y14263068D01*
X-12646260Y14206000D01*
X-12353740Y14206000D01*
X-12066842Y14263068D01*
X-11796589Y14375010D01*
X-11553368Y14537525D01*
X-11346525Y14744368D01*
X-11250000Y14888828D01*
X-11153475Y14744368D01*
X-10946632Y14537525D01*
X-10703411Y14375010D01*
X-10433158Y14263068D01*
X-10146260Y14206000D01*
X-9853740Y14206000D01*
X-9566842Y14263068D01*
X-9296589Y14375010D01*
X-9053368Y14537525D01*
X-8928290Y14662603D01*
X-8348792Y14662603D01*
X-8271157Y14413528D01*
X-8007117Y14287629D01*
X-7723589Y14215661D01*
X-7431469Y14200389D01*
X-7141981Y14242401D01*
X-6866253Y14340081D01*
X-6728843Y14413528D01*
X-6651208Y14662603D01*
X-7500000Y15511395D01*
X-8348792Y14662603D01*
X-8928290Y14662603D01*
X-8846525Y14744368D01*
X-8737584Y14907410D01*
X-8528397Y14842208D01*
X-7679605Y15691000D01*
X-7320395Y15691000D01*
X-6471603Y14842208D01*
X-6222528Y14919843D01*
X-6096629Y15183883D01*
X-6024661Y15467411D01*
X-6009389Y15759531D01*
X-6051401Y16049019D01*
X-6149081Y16324747D01*
X-6222528Y16462157D01*
X-6471603Y16539792D01*
X-7320395Y15691000D01*
X-7679605Y15691000D01*
X-8528397Y16539792D01*
X-8737584Y16474590D01*
X-8846525Y16637632D01*
X-8928290Y16719397D01*
X-8348792Y16719397D01*
X-7500000Y15870605D01*
X-6651208Y16719397D01*
X-6728843Y16968472D01*
X-6992883Y17094371D01*
X-7276411Y17166339D01*
X-7568531Y17181611D01*
X-7858019Y17139599D01*
X-8133747Y17041919D01*
X-8271157Y16968472D01*
X-8348792Y16719397D01*
X-8928290Y16719397D01*
X-9053368Y16844475D01*
X-9296589Y17006990D01*
X-9566842Y17118932D01*
X-9853740Y17176000D01*
X-10146260Y17176000D01*
X-10433158Y17118932D01*
X-10703411Y17006990D01*
X-10946632Y16844475D01*
X-11153475Y16637632D01*
X-11250000Y16493172D01*
X-11346525Y16637632D01*
X-11553368Y16844475D01*
X-11796589Y17006990D01*
X-12066842Y17118932D01*
X-12353740Y17176000D01*
X-12646260Y17176000D01*
X-12933158Y17118932D01*
X-13203411Y17006990D01*
X-13446632Y16844475D01*
X-13653475Y16637632D01*
X-13815990Y16394411D01*
X-13927932Y16124158D01*
X-13985000Y15837260D01*
X-37340001Y15837260D01*
X-37340001Y18150836D01*
X-37296696Y18137700D01*
X-37084000Y18116751D01*
X-36871303Y18137700D01*
X-36666780Y18199741D01*
X-36478290Y18300491D01*
X-36313078Y18436078D01*
X-36305755Y18445001D01*
X-34433066Y18445001D01*
X-34358475Y18333368D01*
X-34151632Y18126525D01*
X-33908411Y17964010D01*
X-33638158Y17852068D01*
X-33351260Y17795000D01*
X-33058740Y17795000D01*
X-32771842Y17852068D01*
X-32501589Y17964010D01*
X-32258368Y18126525D01*
X-32051525Y18333368D01*
X-31955000Y18477828D01*
X-31858475Y18333368D01*
X-31651632Y18126525D01*
X-31408411Y17964010D01*
X-31138158Y17852068D01*
X-30851260Y17795000D01*
X-30558740Y17795000D01*
X-30271842Y17852068D01*
X-30001589Y17964010D01*
X-29758368Y18126525D01*
X-29551525Y18333368D01*
X-29455000Y18477828D01*
X-29358475Y18333368D01*
X-29151632Y18126525D01*
X-28908411Y17964010D01*
X-28638158Y17852068D01*
X-28351260Y17795000D01*
X-28058740Y17795000D01*
X-27771842Y17852068D01*
X-27501589Y17964010D01*
X-27258368Y18126525D01*
X-27051525Y18333368D01*
X-26889010Y18576589D01*
X-26777068Y18846842D01*
X-26720000Y19133740D01*
X-26720000Y19426260D01*
X-26777068Y19713158D01*
X-26889010Y19983411D01*
X-27051525Y20226632D01*
X-27258368Y20433475D01*
X-27501589Y20595990D01*
X-27771842Y20707932D01*
X-28058740Y20765000D01*
X-28351260Y20765000D01*
X-28638158Y20707932D01*
X-28908411Y20595990D01*
X-29151632Y20433475D01*
X-29358475Y20226632D01*
X-29455000Y20082172D01*
X-29551525Y20226632D01*
X-29758368Y20433475D01*
X-29945000Y20558178D01*
X-29945000Y24041000D01*
X-16538072Y24041000D01*
X-16538072Y22341000D01*
X-16525812Y22216518D01*
X-16489502Y22096820D01*
X-16430537Y21986506D01*
X-16351185Y21889815D01*
X-16254494Y21810463D01*
X-16144180Y21751498D01*
X-16024482Y21715188D01*
X-15900000Y21702928D01*
X-13600000Y21702928D01*
X-13475518Y21715188D01*
X-13355820Y21751498D01*
X-13245506Y21810463D01*
X-13148815Y21889815D01*
X-13069463Y21986506D01*
X-13010498Y22096820D01*
X-12974188Y22216518D01*
X-12961928Y22341000D01*
X-12961928Y24041000D01*
X-12974188Y24165482D01*
X-13010498Y24285180D01*
X-13069463Y24395494D01*
X-13148815Y24492185D01*
X-13245506Y24571537D01*
X-13355820Y24630502D01*
X-13475518Y24666812D01*
X-13600000Y24679072D01*
X-15900000Y24679072D01*
X-16024482Y24666812D01*
X-16144180Y24630502D01*
X-16254494Y24571537D01*
X-16351185Y24492185D01*
X-16430537Y24395494D01*
X-16489502Y24285180D01*
X-16525812Y24165482D01*
X-16538072Y24041000D01*
X-29945000Y24041000D01*
X-29945000Y27630000D01*
X-28093072Y27630000D01*
X-28093072Y24930000D01*
X-28080812Y24805518D01*
X-28044502Y24685820D01*
X-27985537Y24575506D01*
X-27906185Y24478815D01*
X-27809494Y24399463D01*
X-27699180Y24340498D01*
X-27579482Y24304188D01*
X-27455000Y24291928D01*
X-25155000Y24291928D01*
X-25030518Y24304188D01*
X-24910820Y24340498D01*
X-24800506Y24399463D01*
X-24703815Y24478815D01*
X-24624463Y24575506D01*
X-24565498Y24685820D01*
X-24529188Y24805518D01*
X-24516928Y24930000D01*
X-24516928Y27630000D01*
X-24529188Y27754482D01*
X-24565498Y27874180D01*
X-24624463Y27984494D01*
X-24703815Y28081185D01*
X-24800506Y28160537D01*
X-24910820Y28219502D01*
X-25030518Y28255812D01*
X-25155000Y28268072D01*
X-27455000Y28268072D01*
X-27579482Y28255812D01*
X-27699180Y28219502D01*
X-27809494Y28160537D01*
X-27906185Y28081185D01*
X-27985537Y27984494D01*
X-28044502Y27874180D01*
X-28080812Y27754482D01*
X-28093072Y27630000D01*
X-29945000Y27630000D01*
X-29945000Y27654199D01*
X-29439351Y28159847D01*
X-29318271Y28183932D01*
X-29148111Y28254414D01*
X-28994972Y28356738D01*
X-28864738Y28486972D01*
X-28762414Y28640111D01*
X-28691932Y28810271D01*
X-28656000Y28990911D01*
X-28656000Y29175089D01*
X-28691932Y29355729D01*
X-28762414Y29525889D01*
X-28864738Y29679028D01*
X-28994972Y29809262D01*
X-29148111Y29911586D01*
X-29318271Y29982068D01*
X-29498911Y30018000D01*
X-29683089Y30018000D01*
X-29863729Y29982068D01*
X-30033889Y29911586D01*
X-30187028Y29809262D01*
X-30317262Y29679028D01*
X-30419586Y29525889D01*
X-30490068Y29355729D01*
X-30514153Y29234649D01*
X-31216002Y28532799D01*
X-31245000Y28509001D01*
X-31268798Y28480003D01*
X-31268799Y28480002D01*
X-31339974Y28393276D01*
X-31410546Y28261246D01*
X-31423208Y28219502D01*
X-31444897Y28148000D01*
X-31454002Y28117985D01*
X-31468676Y27969000D01*
X-31464999Y27931668D01*
X-31465000Y20558179D01*
X-31651632Y20433475D01*
X-31858475Y20226632D01*
X-31955000Y20082172D01*
X-32051525Y20226632D01*
X-32258368Y20433475D01*
X-32501589Y20595990D01*
X-32771842Y20707932D01*
X-33058740Y20765000D01*
X-33351260Y20765000D01*
X-33638158Y20707932D01*
X-33908411Y20595990D01*
X-34151632Y20433475D01*
X-34358475Y20226632D01*
X-34433064Y20115001D01*
X-35999000Y20115001D01*
X-35999000Y24291928D01*
X-33955000Y24291928D01*
X-33830518Y24304188D01*
X-33710820Y24340498D01*
X-33600506Y24399463D01*
X-33503815Y24478815D01*
X-33424463Y24575506D01*
X-33365498Y24685820D01*
X-33329188Y24805518D01*
X-33316928Y24930000D01*
X-33316928Y27630000D01*
X-33329188Y27754482D01*
X-33365498Y27874180D01*
X-33424463Y27984494D01*
X-33503815Y28081185D01*
X-33600506Y28160537D01*
X-33710820Y28219502D01*
X-33830518Y28255812D01*
X-33955000Y28268072D01*
X-35999000Y28268072D01*
X-35999000Y32540589D01*
X-23287000Y32540589D01*
X-23287000Y32356411D01*
X-23251068Y32175771D01*
X-23180586Y32005611D01*
X-23112000Y31902964D01*
X-23111999Y27787037D01*
X-23180586Y27684389D01*
X-23251068Y27514229D01*
X-23287000Y27333589D01*
X-23287000Y27149411D01*
X-23251068Y26968771D01*
X-23180586Y26798611D01*
X-23078262Y26645472D01*
X-22948028Y26515238D01*
X-22794889Y26412914D01*
X-22624729Y26342432D01*
X-22444089Y26306500D01*
X-22259911Y26306500D01*
X-22079271Y26342432D01*
X-21909111Y26412914D01*
X-21755972Y26515238D01*
X-21625738Y26645472D01*
X-21523414Y26798611D01*
X-21452932Y26968771D01*
X-21417000Y27149411D01*
X-21417000Y27333589D01*
X-21452932Y27514229D01*
X-21523414Y27684389D01*
X-21592000Y27787035D01*
X-21592000Y31902965D01*
X-21523414Y32005611D01*
X-21452932Y32175771D01*
X-21417000Y32356411D01*
X-21417000Y32540589D01*
X-21424683Y32579213D01*
X-21292725Y32515842D01*
X-20999858Y32440635D01*
X-20697947Y32424009D01*
X-20398593Y32466603D01*
X-20113301Y32566778D01*
X-19963708Y32646739D01*
X-19880025Y32900920D01*
X-20764500Y33785395D01*
X-20778643Y33771253D01*
X-20958248Y33950858D01*
X-20944105Y33965000D01*
X-20584895Y33965000D01*
X-19700420Y33080525D01*
X-19446239Y33164208D01*
X-19315342Y33436775D01*
X-19240135Y33729642D01*
X-19223509Y34031553D01*
X-19266103Y34330907D01*
X-19366278Y34616199D01*
X-19446239Y34765792D01*
X-19700420Y34849475D01*
X-20584895Y33965000D01*
X-20944105Y33965000D01*
X-21828580Y34849475D01*
X-22082761Y34765792D01*
X-22213658Y34493225D01*
X-22288865Y34200358D01*
X-22305491Y33898447D01*
X-22262897Y33599093D01*
X-22181735Y33367950D01*
X-22259911Y33383500D01*
X-22444089Y33383500D01*
X-22624729Y33347568D01*
X-22794889Y33277086D01*
X-22948028Y33174762D01*
X-23078262Y33044528D01*
X-23180586Y32891389D01*
X-23251068Y32721229D01*
X-23287000Y32540589D01*
X-35999000Y32540589D01*
X-35999000Y34936000D01*
X-35839061Y34936000D01*
X-35639102Y34975774D01*
X-35450744Y35053795D01*
X-35281226Y35167063D01*
X-35137063Y35311226D01*
X-35023795Y35480744D01*
X-34945774Y35669102D01*
X-34906000Y35869061D01*
X-34906000Y36072939D01*
X-34926153Y36174260D01*
X-31985000Y36174260D01*
X-31985000Y35881740D01*
X-31927932Y35594842D01*
X-31815990Y35324589D01*
X-31653475Y35081368D01*
X-31446632Y34874525D01*
X-31203411Y34712010D01*
X-30933158Y34600068D01*
X-30646260Y34543000D01*
X-30353740Y34543000D01*
X-30066842Y34600068D01*
X-29796589Y34712010D01*
X-29553368Y34874525D01*
X-29346525Y35081368D01*
X-29250000Y35225828D01*
X-29153475Y35081368D01*
X-28946632Y34874525D01*
X-28703411Y34712010D01*
X-28433158Y34600068D01*
X-28146260Y34543000D01*
X-27853740Y34543000D01*
X-27566842Y34600068D01*
X-27296589Y34712010D01*
X-27053368Y34874525D01*
X-26846525Y35081368D01*
X-26750000Y35225828D01*
X-26653475Y35081368D01*
X-26446632Y34874525D01*
X-26203411Y34712010D01*
X-25933158Y34600068D01*
X-25646260Y34543000D01*
X-25353740Y34543000D01*
X-25066842Y34600068D01*
X-24796589Y34712010D01*
X-24553368Y34874525D01*
X-24398813Y35029080D01*
X-21648975Y35029080D01*
X-20764500Y34144605D01*
X-19880025Y35029080D01*
X-19963708Y35283261D01*
X-20236275Y35414158D01*
X-20529142Y35489365D01*
X-20831053Y35505991D01*
X-21130407Y35463397D01*
X-21415699Y35363222D01*
X-21565292Y35283261D01*
X-21648975Y35029080D01*
X-24398813Y35029080D01*
X-24346525Y35081368D01*
X-24184010Y35324589D01*
X-24072068Y35594842D01*
X-24015000Y35881740D01*
X-24015000Y36174260D01*
X-24072068Y36461158D01*
X-24184010Y36731411D01*
X-24346525Y36974632D01*
X-24553368Y37181475D01*
X-24796589Y37343990D01*
X-25066842Y37455932D01*
X-25353740Y37513000D01*
X-25646260Y37513000D01*
X-25933158Y37455932D01*
X-26203411Y37343990D01*
X-26446632Y37181475D01*
X-26653475Y36974632D01*
X-26750000Y36830172D01*
X-26846525Y36974632D01*
X-27053368Y37181475D01*
X-27296589Y37343990D01*
X-27566842Y37455932D01*
X-27853740Y37513000D01*
X-28146260Y37513000D01*
X-28433158Y37455932D01*
X-28703411Y37343990D01*
X-28946632Y37181475D01*
X-29153475Y36974632D01*
X-29250000Y36830172D01*
X-29346525Y36974632D01*
X-29553368Y37181475D01*
X-29796589Y37343990D01*
X-30066842Y37455932D01*
X-30353740Y37513000D01*
X-30646260Y37513000D01*
X-30933158Y37455932D01*
X-31203411Y37343990D01*
X-31446632Y37181475D01*
X-31653475Y36974632D01*
X-31815990Y36731411D01*
X-31927932Y36461158D01*
X-31985000Y36174260D01*
X-34926153Y36174260D01*
X-34945774Y36272898D01*
X-35023795Y36461256D01*
X-35137063Y36630774D01*
X-35281226Y36774937D01*
X-35450744Y36888205D01*
X-35639102Y36966226D01*
X-35839061Y37006000D01*
X-35999000Y37006000D01*
X-35999000Y44378000D01*
X-34538072Y44378000D01*
X-34538072Y42678000D01*
X-34525812Y42553518D01*
X-34489502Y42433820D01*
X-34430537Y42323506D01*
X-34351185Y42226815D01*
X-34254494Y42147463D01*
X-34144180Y42088498D01*
X-34024482Y42052188D01*
X-33900000Y42039928D01*
X-31600000Y42039928D01*
X-31475518Y42052188D01*
X-31355820Y42088498D01*
X-31245506Y42147463D01*
X-31148815Y42226815D01*
X-31069463Y42323506D01*
X-31010498Y42433820D01*
X-30974188Y42553518D01*
X-30961928Y42678000D01*
X-30961928Y44378000D01*
X-25038072Y44378000D01*
X-25038072Y42678000D01*
X-25025812Y42553518D01*
X-24989502Y42433820D01*
X-24930537Y42323506D01*
X-24851185Y42226815D01*
X-24754494Y42147463D01*
X-24644180Y42088498D01*
X-24524482Y42052188D01*
X-24400000Y42039928D01*
X-22100000Y42039928D01*
X-21975518Y42052188D01*
X-21855820Y42088498D01*
X-21761292Y42139025D01*
X-21956812Y41943505D01*
X-22124799Y41692095D01*
X-22240511Y41412743D01*
X-22299500Y41116184D01*
X-22299500Y40813816D01*
X-22240511Y40517257D01*
X-22124799Y40237905D01*
X-21956812Y39986495D01*
X-21743005Y39772688D01*
X-21491595Y39604701D01*
X-21212243Y39488989D01*
X-20915684Y39430000D01*
X-20613316Y39430000D01*
X-20487632Y39455000D01*
X-17528072Y39455000D01*
X-17528072Y37455000D01*
X-17515812Y37330518D01*
X-17479502Y37210820D01*
X-17420537Y37100506D01*
X-17341185Y37003815D01*
X-17244494Y36924463D01*
X-17134180Y36865498D01*
X-17014482Y36829188D01*
X-16890000Y36816928D01*
X-15326729Y36816928D01*
X-13840999Y35331197D01*
X-13841000Y32168536D01*
X-13909586Y32065889D01*
X-13980068Y31895729D01*
X-14016000Y31715089D01*
X-14016000Y31530911D01*
X-13980068Y31350271D01*
X-13909586Y31180111D01*
X-13807262Y31026972D01*
X-13677028Y30896738D01*
X-13523889Y30794414D01*
X-13353729Y30723932D01*
X-13173089Y30688000D01*
X-12988911Y30688000D01*
X-12808271Y30723932D01*
X-12638111Y30794414D01*
X-12484972Y30896738D01*
X-12446000Y30935710D01*
X-12407028Y30896738D01*
X-12253889Y30794414D01*
X-12083729Y30723932D01*
X-11903089Y30688000D01*
X-11718911Y30688000D01*
X-11538271Y30723932D01*
X-11368111Y30794414D01*
X-11214972Y30896738D01*
X-11084738Y31026972D01*
X-10982414Y31180111D01*
X-10911932Y31350271D01*
X-10876000Y31530911D01*
X-10876000Y31715089D01*
X-10911932Y31895729D01*
X-10982414Y32065889D01*
X-11051000Y32168535D01*
X-11051000Y34125891D01*
X-8557462Y34125891D01*
X-8477000Y33905073D01*
X-8350572Y33698283D01*
X-8186231Y33520131D01*
X-7990292Y33377464D01*
X-7770285Y33275764D01*
X-7534664Y33218940D01*
X-7341000Y33366069D01*
X-7341000Y34316500D01*
X-7087000Y34316500D01*
X-7087000Y33366069D01*
X-6893336Y33218940D01*
X-6657715Y33275764D01*
X-6437708Y33377464D01*
X-6241769Y33520131D01*
X-6077428Y33698283D01*
X-5951000Y33905073D01*
X-5870538Y34125891D01*
X-5995269Y34316500D01*
X-7087000Y34316500D01*
X-7341000Y34316500D01*
X-8432731Y34316500D01*
X-8557462Y34125891D01*
X-11051000Y34125891D01*
X-11051000Y36366391D01*
X-8857462Y36366391D01*
X-8853591Y36328718D01*
X-8761421Y36103467D01*
X-8627078Y35900526D01*
X-8455725Y35727693D01*
X-8253946Y35591610D01*
X-8029496Y35497507D01*
X-8011765Y35493901D01*
X-8186231Y35366869D01*
X-8350572Y35188717D01*
X-8477000Y34981927D01*
X-8557462Y34761109D01*
X-8432731Y34570500D01*
X-7341000Y34570500D01*
X-7341000Y36557000D01*
X-7087000Y36557000D01*
X-7087000Y34570500D01*
X-5995269Y34570500D01*
X-5870538Y34761109D01*
X-5951000Y34981927D01*
X-6077428Y35188717D01*
X-6241769Y35366869D01*
X-6416235Y35493901D01*
X-6398504Y35497507D01*
X-6174054Y35591610D01*
X-5972275Y35727693D01*
X-5800922Y35900526D01*
X-5666579Y36103467D01*
X-5574409Y36328718D01*
X-5570538Y36366391D01*
X-5695269Y36557000D01*
X-7087000Y36557000D01*
X-7341000Y36557000D01*
X-8732731Y36557000D01*
X-8857462Y36366391D01*
X-11051000Y36366391D01*
X-11051000Y36878678D01*
X-11047324Y36916001D01*
X-11051000Y36953324D01*
X-11051000Y36953333D01*
X-11055754Y37001609D01*
X-8857462Y37001609D01*
X-8732731Y36811000D01*
X-7341000Y36811000D01*
X-7341000Y37919000D01*
X-7087000Y37919000D01*
X-7087000Y36811000D01*
X-5695269Y36811000D01*
X-5570538Y37001609D01*
X-5574409Y37039282D01*
X-5666579Y37264533D01*
X-5800922Y37467474D01*
X-5972275Y37640307D01*
X-6174054Y37776390D01*
X-6398504Y37870493D01*
X-6637000Y37919000D01*
X-7087000Y37919000D01*
X-7341000Y37919000D01*
X-7791000Y37919000D01*
X-8029496Y37870493D01*
X-8253946Y37776390D01*
X-8455725Y37640307D01*
X-8627078Y37467474D01*
X-8761421Y37264533D01*
X-8853591Y37039282D01*
X-8857462Y37001609D01*
X-11055754Y37001609D01*
X-11061997Y37064986D01*
X-11105454Y37208247D01*
X-11170810Y37330518D01*
X-11176026Y37340277D01*
X-11247201Y37427003D01*
X-11270999Y37456001D01*
X-11299997Y37479799D01*
X-14323823Y40503624D01*
X-14317832Y40518088D01*
X-14255000Y40833967D01*
X-14255000Y41156033D01*
X-14317832Y41471912D01*
X-14441082Y41769463D01*
X-14620013Y42037252D01*
X-14847748Y42264987D01*
X-14847767Y42265000D01*
X-14847748Y42265013D01*
X-14620013Y42492748D01*
X-14441082Y42760537D01*
X-14317832Y43058088D01*
X-14255000Y43373967D01*
X-14255000Y43696033D01*
X-14317832Y44011912D01*
X-14441082Y44309463D01*
X-14620013Y44577252D01*
X-14847748Y44804987D01*
X-15115537Y44983918D01*
X-15115734Y44984000D01*
X-8904733Y44984000D01*
X-8881853Y44751700D01*
X-8814094Y44528326D01*
X-8704058Y44322464D01*
X-8555975Y44142025D01*
X-8375536Y43993942D01*
X-8169674Y43883906D01*
X-7946300Y43816147D01*
X-7772207Y43799000D01*
X-6655793Y43799000D01*
X-6481700Y43816147D01*
X-6258326Y43883906D01*
X-6052464Y43993942D01*
X-5872025Y44142025D01*
X-5723942Y44322464D01*
X-5613906Y44528326D01*
X-5546147Y44751700D01*
X-5523267Y44984000D01*
X-5546147Y45216300D01*
X-5613906Y45439674D01*
X-5723942Y45645536D01*
X-5872025Y45825975D01*
X-6052464Y45974058D01*
X-6258326Y46084094D01*
X-6481700Y46151853D01*
X-6655793Y46169000D01*
X-7772207Y46169000D01*
X-7946300Y46151853D01*
X-8169674Y46084094D01*
X-8375536Y45974058D01*
X-8555975Y45825975D01*
X-8704058Y45645536D01*
X-8814094Y45439674D01*
X-8881853Y45216300D01*
X-8904733Y44984000D01*
X-15115734Y44984000D01*
X-15413088Y45107168D01*
X-15728967Y45170000D01*
X-16051033Y45170000D01*
X-16366912Y45107168D01*
X-16664463Y44983918D01*
X-16932252Y44804987D01*
X-17159987Y44577252D01*
X-17338918Y44309463D01*
X-17462168Y44011912D01*
X-17525000Y43696033D01*
X-17525000Y43373967D01*
X-17462168Y43058088D01*
X-17338918Y42760537D01*
X-17159987Y42492748D01*
X-16932252Y42265013D01*
X-16932233Y42265000D01*
X-16932252Y42264987D01*
X-17159987Y42037252D01*
X-17338918Y41769463D01*
X-17462168Y41471912D01*
X-17525000Y41156033D01*
X-17525000Y40833967D01*
X-17462168Y40518088D01*
X-17338918Y40220537D01*
X-17198370Y40010191D01*
X-17244494Y39985537D01*
X-17341185Y39906185D01*
X-17420537Y39809494D01*
X-17479502Y39699180D01*
X-17515812Y39579482D01*
X-17528072Y39455000D01*
X-20487632Y39455000D01*
X-20316757Y39488989D01*
X-20037405Y39604701D01*
X-19785995Y39772688D01*
X-19572188Y39986495D01*
X-19404201Y40237905D01*
X-19288489Y40517257D01*
X-19229500Y40813816D01*
X-19229500Y41116184D01*
X-19288489Y41412743D01*
X-19404201Y41692095D01*
X-19572188Y41943505D01*
X-19785995Y42157312D01*
X-20037405Y42325299D01*
X-20316757Y42441011D01*
X-20613316Y42500000D01*
X-20915684Y42500000D01*
X-21212243Y42441011D01*
X-21491595Y42325299D01*
X-21691879Y42191473D01*
X-21648815Y42226815D01*
X-21569463Y42323506D01*
X-21510498Y42433820D01*
X-21474188Y42553518D01*
X-21461928Y42678000D01*
X-21461928Y44378000D01*
X-21474188Y44502482D01*
X-21510498Y44622180D01*
X-21569463Y44732494D01*
X-21648815Y44829185D01*
X-21745506Y44908537D01*
X-21855820Y44967502D01*
X-21975518Y45003812D01*
X-22100000Y45016072D01*
X-24400000Y45016072D01*
X-24524482Y45003812D01*
X-24644180Y44967502D01*
X-24754494Y44908537D01*
X-24851185Y44829185D01*
X-24930537Y44732494D01*
X-24989502Y44622180D01*
X-25025812Y44502482D01*
X-25038072Y44378000D01*
X-30961928Y44378000D01*
X-30974188Y44502482D01*
X-31010498Y44622180D01*
X-31069463Y44732494D01*
X-31148815Y44829185D01*
X-31245506Y44908537D01*
X-31355820Y44967502D01*
X-31475518Y45003812D01*
X-31600000Y45016072D01*
X-33900000Y45016072D01*
X-34024482Y45003812D01*
X-34144180Y44967502D01*
X-34254494Y44908537D01*
X-34351185Y44829185D01*
X-34430537Y44732494D01*
X-34489502Y44622180D01*
X-34525812Y44502482D01*
X-34538072Y44378000D01*
X-35999000Y44378000D01*
X-35999000Y50221892D01*
X-15159000Y50221892D01*
X-15159000Y49816108D01*
X-15079835Y49418120D01*
X-14924548Y49043224D01*
X-14699106Y48705827D01*
X-14412173Y48418894D01*
X-14074776Y48193452D01*
X-13699880Y48038165D01*
X-13301892Y47959000D01*
X-12896108Y47959000D01*
X-12498120Y48038165D01*
X-12123224Y48193452D01*
X-11785827Y48418894D01*
X-11498894Y48705827D01*
X-11273452Y49043224D01*
X-11118165Y49418120D01*
X-11039000Y49816108D01*
X-11039000Y50221892D01*
X-10459000Y50221892D01*
X-10459000Y49816108D01*
X-10379835Y49418120D01*
X-10224548Y49043224D01*
X-9999106Y48705827D01*
X-9712173Y48418894D01*
X-9374776Y48193452D01*
X-8999880Y48038165D01*
X-8601892Y47959000D01*
X-8196108Y47959000D01*
X-7798120Y48038165D01*
X-7423224Y48193452D01*
X-7085827Y48418894D01*
X-6798894Y48705827D01*
X-6573452Y49043224D01*
X-6418165Y49418120D01*
X-6339000Y49816108D01*
X-6339000Y50221892D01*
X-6418165Y50619880D01*
X-6573452Y50994776D01*
X-6798894Y51332173D01*
X-7085827Y51619106D01*
X-7423224Y51844548D01*
X-7798120Y51999835D01*
X-8196108Y52079000D01*
X-8601892Y52079000D01*
X-8999880Y51999835D01*
X-9374776Y51844548D01*
X-9712173Y51619106D01*
X-9999106Y51332173D01*
X-10224548Y50994776D01*
X-10379835Y50619880D01*
X-10459000Y50221892D01*
X-11039000Y50221892D01*
X-11118165Y50619880D01*
X-11273452Y50994776D01*
X-11498894Y51332173D01*
X-11785827Y51619106D01*
X-12123224Y51844548D01*
X-12498120Y51999835D01*
X-12896108Y52079000D01*
X-13301892Y52079000D01*
X-13699880Y51999835D01*
X-14074776Y51844548D01*
X-14412173Y51619106D01*
X-14699106Y51332173D01*
X-14924548Y50994776D01*
X-15079835Y50619880D01*
X-15159000Y50221892D01*
X-35999000Y50221892D01*
X-35999000Y53026033D01*
X-24969001Y53026033D01*
X-24969001Y52703967D01*
X-24906169Y52388088D01*
X-24782919Y52090537D01*
X-24603988Y51822748D01*
X-24376253Y51595013D01*
X-24108464Y51416082D01*
X-23810913Y51292832D01*
X-23495034Y51230000D01*
X-23172968Y51230000D01*
X-22857089Y51292832D01*
X-22559538Y51416082D01*
X-22291749Y51595013D01*
X-22064014Y51822748D01*
X-22064001Y51822767D01*
X-22063988Y51822748D01*
X-21836253Y51595013D01*
X-21568464Y51416082D01*
X-21270913Y51292832D01*
X-20955034Y51230000D01*
X-20632968Y51230000D01*
X-20317089Y51292832D01*
X-20019538Y51416082D01*
X-19809192Y51556630D01*
X-19784538Y51510506D01*
X-19705186Y51413815D01*
X-19608495Y51334463D01*
X-19498181Y51275498D01*
X-19378483Y51239188D01*
X-19254001Y51226928D01*
X-17254001Y51226928D01*
X-17129519Y51239188D01*
X-17009821Y51275498D01*
X-16899507Y51334463D01*
X-16802816Y51413815D01*
X-16723464Y51510506D01*
X-16664499Y51620820D01*
X-16628189Y51740518D01*
X-16615929Y51865000D01*
X-16615929Y53865000D01*
X-16628189Y53989482D01*
X-16664499Y54109180D01*
X-16723464Y54219494D01*
X-16802816Y54316185D01*
X-16899507Y54395537D01*
X-17009821Y54454502D01*
X-17129519Y54490812D01*
X-17254001Y54503072D01*
X-19254001Y54503072D01*
X-19378483Y54490812D01*
X-19498181Y54454502D01*
X-19608495Y54395537D01*
X-19705186Y54316185D01*
X-19784538Y54219494D01*
X-19809192Y54173370D01*
X-20019538Y54313918D01*
X-20317089Y54437168D01*
X-20632968Y54500000D01*
X-20955034Y54500000D01*
X-21270913Y54437168D01*
X-21568464Y54313918D01*
X-21836253Y54134987D01*
X-22063988Y53907252D01*
X-22064001Y53907233D01*
X-22064014Y53907252D01*
X-22291749Y54134987D01*
X-22559538Y54313918D01*
X-22857089Y54437168D01*
X-23172968Y54500000D01*
X-23495034Y54500000D01*
X-23810913Y54437168D01*
X-24108464Y54313918D01*
X-24376253Y54134987D01*
X-24603988Y53907252D01*
X-24782919Y53639463D01*
X-24906169Y53341912D01*
X-24969001Y53026033D01*
X-35999000Y53026033D01*
X-35999000Y56480891D01*
X-35343462Y56480891D01*
X-35263000Y56260073D01*
X-35136572Y56053283D01*
X-34972231Y55875131D01*
X-34776292Y55732464D01*
X-34556285Y55630764D01*
X-34320664Y55573940D01*
X-34127000Y55721069D01*
X-34127000Y56671500D01*
X-33873000Y56671500D01*
X-33873000Y55721069D01*
X-33679336Y55573940D01*
X-33443715Y55630764D01*
X-33223708Y55732464D01*
X-33027769Y55875131D01*
X-32863428Y56053283D01*
X-32737000Y56260073D01*
X-32656538Y56480891D01*
X-32781269Y56671500D01*
X-33873000Y56671500D01*
X-34127000Y56671500D01*
X-35218731Y56671500D01*
X-35343462Y56480891D01*
X-35999000Y56480891D01*
X-35999000Y59039000D01*
X-35690975Y59039000D01*
X-35667130Y58796898D01*
X-35596511Y58564099D01*
X-35481833Y58349551D01*
X-35327502Y58161498D01*
X-35139449Y58007167D01*
X-34924901Y57892489D01*
X-34792897Y57852446D01*
X-34972231Y57721869D01*
X-35136572Y57543717D01*
X-35263000Y57336927D01*
X-35343462Y57116109D01*
X-35218731Y56925500D01*
X-34127000Y56925500D01*
X-34127000Y56945500D01*
X-33873000Y56945500D01*
X-33873000Y56925500D01*
X-32781269Y56925500D01*
X-32656538Y57116109D01*
X-32737000Y57336927D01*
X-32863428Y57543717D01*
X-33027769Y57721869D01*
X-33207103Y57852446D01*
X-33075099Y57892489D01*
X-32860551Y58007167D01*
X-32672498Y58161498D01*
X-32518167Y58349551D01*
X-32403489Y58564099D01*
X-32332870Y58796898D01*
X-32309025Y59039000D01*
X-32332870Y59281102D01*
X-32403489Y59513901D01*
X-32518167Y59728449D01*
X-32672498Y59916502D01*
X-32860551Y60070833D01*
X-33075099Y60185511D01*
X-33307898Y60256130D01*
X-33489335Y60274000D01*
X-34510665Y60274000D01*
X-34692102Y60256130D01*
X-34924901Y60185511D01*
X-35139449Y60070833D01*
X-35327502Y59916502D01*
X-35481833Y59728449D01*
X-35596511Y59513901D01*
X-35667130Y59281102D01*
X-35690975Y59039000D01*
X-35999000Y59039000D01*
X-35999000Y64354089D01*
X-32177000Y64354089D01*
X-32177000Y64169911D01*
X-32141068Y63989271D01*
X-32070586Y63819111D01*
X-31968262Y63665972D01*
X-31838028Y63535738D01*
X-31684889Y63433414D01*
X-31514729Y63362932D01*
X-31393648Y63338847D01*
X-27937999Y59883197D01*
X-27938000Y56425536D01*
X-28006586Y56322889D01*
X-28077068Y56152729D01*
X-28113000Y55972089D01*
X-28113000Y55787911D01*
X-28077068Y55607271D01*
X-28006586Y55437111D01*
X-27904262Y55283972D01*
X-27774028Y55153738D01*
X-27620889Y55051414D01*
X-27450729Y54980932D01*
X-27306797Y54952302D01*
X-27244586Y54802111D01*
X-27142262Y54648972D01*
X-27012028Y54518738D01*
X-26858889Y54416414D01*
X-26688729Y54345932D01*
X-26508089Y54310000D01*
X-26323911Y54310000D01*
X-26143271Y54345932D01*
X-25973111Y54416414D01*
X-25908000Y54459920D01*
X-25842889Y54416414D01*
X-25672729Y54345932D01*
X-25492089Y54310000D01*
X-25307911Y54310000D01*
X-25127271Y54345932D01*
X-24957111Y54416414D01*
X-24803972Y54518738D01*
X-24673738Y54648972D01*
X-24571414Y54802111D01*
X-24500932Y54972271D01*
X-24465000Y55152911D01*
X-24465000Y55337089D01*
X-24500932Y55517729D01*
X-24546805Y55628478D01*
X-24320664Y55573940D01*
X-24127000Y55721069D01*
X-24127000Y56671500D01*
X-23873000Y56671500D01*
X-23873000Y55721069D01*
X-23679336Y55573940D01*
X-23443715Y55630764D01*
X-23223708Y55732464D01*
X-23027769Y55875131D01*
X-22863428Y56053283D01*
X-22737000Y56260073D01*
X-22656538Y56480891D01*
X-15343462Y56480891D01*
X-15263000Y56260073D01*
X-15136572Y56053283D01*
X-14972231Y55875131D01*
X-14776292Y55732464D01*
X-14556285Y55630764D01*
X-14320664Y55573940D01*
X-14127000Y55721069D01*
X-14127000Y56671500D01*
X-13873000Y56671500D01*
X-13873000Y55721069D01*
X-13679336Y55573940D01*
X-13443715Y55630764D01*
X-13223708Y55732464D01*
X-13027769Y55875131D01*
X-12863428Y56053283D01*
X-12737000Y56260073D01*
X-12656538Y56480891D01*
X-5343462Y56480891D01*
X-5263000Y56260073D01*
X-5136572Y56053283D01*
X-4972231Y55875131D01*
X-4776292Y55732464D01*
X-4556285Y55630764D01*
X-4320664Y55573940D01*
X-4127000Y55721069D01*
X-4127000Y56671500D01*
X-3873000Y56671500D01*
X-3873000Y55721069D01*
X-3679336Y55573940D01*
X-3443715Y55630764D01*
X-3223708Y55732464D01*
X-3027769Y55875131D01*
X-2863428Y56053283D01*
X-2737000Y56260073D01*
X-2656538Y56480891D01*
X-2781269Y56671500D01*
X-3873000Y56671500D01*
X-4127000Y56671500D01*
X-5218731Y56671500D01*
X-5343462Y56480891D01*
X-12656538Y56480891D01*
X-12781269Y56671500D01*
X-13873000Y56671500D01*
X-14127000Y56671500D01*
X-15218731Y56671500D01*
X-15343462Y56480891D01*
X-22656538Y56480891D01*
X-22781269Y56671500D01*
X-23873000Y56671500D01*
X-24127000Y56671500D01*
X-24147000Y56671500D01*
X-24147000Y56925500D01*
X-24127000Y56925500D01*
X-24127000Y56945500D01*
X-23873000Y56945500D01*
X-23873000Y56925500D01*
X-22781269Y56925500D01*
X-22656538Y57116109D01*
X-22737000Y57336927D01*
X-22863428Y57543717D01*
X-23027769Y57721869D01*
X-23207103Y57852446D01*
X-23075099Y57892489D01*
X-22860551Y58007167D01*
X-22672498Y58161498D01*
X-22518167Y58349551D01*
X-22403489Y58564099D01*
X-22355775Y58721391D01*
X-15643462Y58721391D01*
X-15639591Y58683718D01*
X-15547421Y58458467D01*
X-15413078Y58255526D01*
X-15241725Y58082693D01*
X-15039946Y57946610D01*
X-14815496Y57852507D01*
X-14797765Y57848901D01*
X-14972231Y57721869D01*
X-15136572Y57543717D01*
X-15263000Y57336927D01*
X-15343462Y57116109D01*
X-15218731Y56925500D01*
X-14127000Y56925500D01*
X-14127000Y58912000D01*
X-13873000Y58912000D01*
X-13873000Y56925500D01*
X-12781269Y56925500D01*
X-12656538Y57116109D01*
X-12737000Y57336927D01*
X-12863428Y57543717D01*
X-13027769Y57721869D01*
X-13202235Y57848901D01*
X-13184504Y57852507D01*
X-12960054Y57946610D01*
X-12758275Y58082693D01*
X-12586922Y58255526D01*
X-12452579Y58458467D01*
X-12360409Y58683718D01*
X-12356538Y58721391D01*
X-5643462Y58721391D01*
X-5639591Y58683718D01*
X-5547421Y58458467D01*
X-5413078Y58255526D01*
X-5241725Y58082693D01*
X-5039946Y57946610D01*
X-4815496Y57852507D01*
X-4797765Y57848901D01*
X-4972231Y57721869D01*
X-5136572Y57543717D01*
X-5263000Y57336927D01*
X-5343462Y57116109D01*
X-5218731Y56925500D01*
X-4127000Y56925500D01*
X-4127000Y58912000D01*
X-3873000Y58912000D01*
X-3873000Y56925500D01*
X-2781269Y56925500D01*
X-2656538Y57116109D01*
X-2737000Y57336927D01*
X-2863428Y57543717D01*
X-3027769Y57721869D01*
X-3202235Y57848901D01*
X-3184504Y57852507D01*
X-2960054Y57946610D01*
X-2758275Y58082693D01*
X-2586922Y58255526D01*
X-2452579Y58458467D01*
X-2360409Y58683718D01*
X-2356538Y58721391D01*
X-2481269Y58912000D01*
X-3873000Y58912000D01*
X-4127000Y58912000D01*
X-5518731Y58912000D01*
X-5643462Y58721391D01*
X-12356538Y58721391D01*
X-12481269Y58912000D01*
X-13873000Y58912000D01*
X-14127000Y58912000D01*
X-15518731Y58912000D01*
X-15643462Y58721391D01*
X-22355775Y58721391D01*
X-22332870Y58796898D01*
X-22309025Y59039000D01*
X-22332870Y59281102D01*
X-22355774Y59356609D01*
X-15643462Y59356609D01*
X-15518731Y59166000D01*
X-14127000Y59166000D01*
X-14127000Y60274000D01*
X-13873000Y60274000D01*
X-13873000Y59166000D01*
X-12481269Y59166000D01*
X-12356538Y59356609D01*
X-12360409Y59394282D01*
X-12452579Y59619533D01*
X-12586922Y59822474D01*
X-12758275Y59995307D01*
X-12960054Y60131390D01*
X-13184504Y60225493D01*
X-13423000Y60274000D01*
X-13873000Y60274000D01*
X-14127000Y60274000D01*
X-14577000Y60274000D01*
X-14815496Y60225493D01*
X-15039946Y60131390D01*
X-15241725Y59995307D01*
X-15413078Y59822474D01*
X-15547421Y59619533D01*
X-15639591Y59394282D01*
X-15643462Y59356609D01*
X-22355774Y59356609D01*
X-22403489Y59513901D01*
X-22518167Y59728449D01*
X-22672498Y59916502D01*
X-22860551Y60070833D01*
X-23075099Y60185511D01*
X-23307898Y60256130D01*
X-23489335Y60274000D01*
X-24510665Y60274000D01*
X-24640000Y60261262D01*
X-24640000Y63782589D01*
X-9952000Y63782589D01*
X-9952000Y63598411D01*
X-9916068Y63417771D01*
X-9845586Y63247611D01*
X-9776999Y63144963D01*
X-9777000Y60646536D01*
X-9845586Y60543889D01*
X-9916068Y60373729D01*
X-9952000Y60193089D01*
X-9952000Y60008911D01*
X-9916068Y59828271D01*
X-9845586Y59658111D01*
X-9743262Y59504972D01*
X-9613028Y59374738D01*
X-9459889Y59272414D01*
X-9289729Y59201932D01*
X-9109089Y59166000D01*
X-8924911Y59166000D01*
X-8744271Y59201932D01*
X-8574111Y59272414D01*
X-8448105Y59356609D01*
X-5643462Y59356609D01*
X-5518731Y59166000D01*
X-4127000Y59166000D01*
X-4127000Y60274000D01*
X-3873000Y60274000D01*
X-3873000Y59166000D01*
X-2481269Y59166000D01*
X-2356538Y59356609D01*
X-2360409Y59394282D01*
X-2452579Y59619533D01*
X-2586922Y59822474D01*
X-2758275Y59995307D01*
X-2960054Y60131390D01*
X-3184504Y60225493D01*
X-3423000Y60274000D01*
X-3873000Y60274000D01*
X-4127000Y60274000D01*
X-4577000Y60274000D01*
X-4815496Y60225493D01*
X-5039946Y60131390D01*
X-5241725Y59995307D01*
X-5413078Y59822474D01*
X-5547421Y59619533D01*
X-5639591Y59394282D01*
X-5643462Y59356609D01*
X-8448105Y59356609D01*
X-8420972Y59374738D01*
X-8290738Y59504972D01*
X-8188414Y59658111D01*
X-8117932Y59828271D01*
X-8082000Y60008911D01*
X-8082000Y60193089D01*
X-8117932Y60373729D01*
X-8188414Y60543889D01*
X-8257000Y60646535D01*
X-8257000Y63144965D01*
X-8188414Y63247611D01*
X-8117932Y63417771D01*
X-8082000Y63598411D01*
X-8082000Y63782589D01*
X-8117932Y63963229D01*
X-8188414Y64133389D01*
X-8290738Y64286528D01*
X-8420972Y64416762D01*
X-8574111Y64519086D01*
X-8744271Y64589568D01*
X-8924911Y64625500D01*
X-9109089Y64625500D01*
X-9289729Y64589568D01*
X-9459889Y64519086D01*
X-9613028Y64416762D01*
X-9743262Y64286528D01*
X-9845586Y64133389D01*
X-9916068Y63963229D01*
X-9952000Y63782589D01*
X-24640000Y63782589D01*
X-24640000Y65494465D01*
X-24571414Y65597111D01*
X-24500932Y65767271D01*
X-24465000Y65947911D01*
X-24465000Y66132089D01*
X-24469358Y66154000D01*
X-23441793Y66154000D01*
X-23267700Y66171147D01*
X-23044326Y66238906D01*
X-22838464Y66348942D01*
X-22658025Y66497025D01*
X-22509942Y66677464D01*
X-22399906Y66883326D01*
X-22332147Y67106700D01*
X-22309267Y67339000D01*
X-15690733Y67339000D01*
X-15667853Y67106700D01*
X-15600094Y66883326D01*
X-15490058Y66677464D01*
X-15341975Y66497025D01*
X-15161536Y66348942D01*
X-14955674Y66238906D01*
X-14732300Y66171147D01*
X-14558207Y66154000D01*
X-13441793Y66154000D01*
X-13267700Y66171147D01*
X-13044326Y66238906D01*
X-12838464Y66348942D01*
X-12658025Y66497025D01*
X-12509942Y66677464D01*
X-12399906Y66883326D01*
X-12332147Y67106700D01*
X-12309267Y67339000D01*
X-12332147Y67571300D01*
X-12399906Y67794674D01*
X-12509942Y68000536D01*
X-12658025Y68180975D01*
X-12838464Y68329058D01*
X-13044326Y68439094D01*
X-13267700Y68506853D01*
X-13441793Y68524000D01*
X-14558207Y68524000D01*
X-14732300Y68506853D01*
X-14955674Y68439094D01*
X-15161536Y68329058D01*
X-15341975Y68180975D01*
X-15490058Y68000536D01*
X-15600094Y67794674D01*
X-15667853Y67571300D01*
X-15690733Y67339000D01*
X-22309267Y67339000D01*
X-22332147Y67571300D01*
X-22399906Y67794674D01*
X-22509942Y68000536D01*
X-22658025Y68180975D01*
X-22838464Y68329058D01*
X-23044326Y68439094D01*
X-23267700Y68506853D01*
X-23441793Y68524000D01*
X-24558207Y68524000D01*
X-24732300Y68506853D01*
X-24955674Y68439094D01*
X-25161536Y68329058D01*
X-25341975Y68180975D01*
X-25490058Y68000536D01*
X-25600094Y67794674D01*
X-25667853Y67571300D01*
X-25690733Y67339000D01*
X-25667853Y67106700D01*
X-25620174Y66949522D01*
X-25672729Y66939068D01*
X-25842889Y66868586D01*
X-25996028Y66766262D01*
X-26126262Y66636028D01*
X-26228586Y66482889D01*
X-26299068Y66312729D01*
X-26335000Y66132089D01*
X-26335000Y65947911D01*
X-26299068Y65767271D01*
X-26228586Y65597111D01*
X-26160000Y65494465D01*
X-26160000Y61524801D01*
X-27905847Y63270648D01*
X-27929932Y63391729D01*
X-28000414Y63561889D01*
X-28102738Y63715028D01*
X-28232972Y63845262D01*
X-28386111Y63947586D01*
X-28556271Y64018068D01*
X-28736911Y64054000D01*
X-28921089Y64054000D01*
X-29101729Y64018068D01*
X-29271889Y63947586D01*
X-29425028Y63845262D01*
X-29555262Y63715028D01*
X-29581283Y63676084D01*
X-30318847Y64413648D01*
X-30342932Y64534729D01*
X-30413414Y64704889D01*
X-30515738Y64858028D01*
X-30645972Y64988262D01*
X-30799111Y65090586D01*
X-30969271Y65161068D01*
X-31149911Y65197000D01*
X-31334089Y65197000D01*
X-31514729Y65161068D01*
X-31684889Y65090586D01*
X-31838028Y64988262D01*
X-31968262Y64858028D01*
X-32070586Y64704889D01*
X-32141068Y64534729D01*
X-32177000Y64354089D01*
X-35999000Y64354089D01*
X-35999000Y67339000D01*
X-35690733Y67339000D01*
X-35667853Y67106700D01*
X-35600094Y66883326D01*
X-35490058Y66677464D01*
X-35341975Y66497025D01*
X-35161536Y66348942D01*
X-34955674Y66238906D01*
X-34732300Y66171147D01*
X-34558207Y66154000D01*
X-33441793Y66154000D01*
X-33267700Y66171147D01*
X-33044326Y66238906D01*
X-32838464Y66348942D01*
X-32658025Y66497025D01*
X-32509942Y66677464D01*
X-32399906Y66883326D01*
X-32332147Y67106700D01*
X-32309267Y67339000D01*
X-32332147Y67571300D01*
X-32399906Y67794674D01*
X-32509942Y68000536D01*
X-32658025Y68180975D01*
X-32838464Y68329058D01*
X-33044326Y68439094D01*
X-33267700Y68506853D01*
X-33441793Y68524000D01*
X-34558207Y68524000D01*
X-34732300Y68506853D01*
X-34955674Y68439094D01*
X-35161536Y68329058D01*
X-35341975Y68180975D01*
X-35490058Y68000536D01*
X-35600094Y67794674D01*
X-35667853Y67571300D01*
X-35690733Y67339000D01*
X-35999000Y67339000D01*
X-35999000Y69292089D01*
X-20335000Y69292089D01*
X-20335000Y69107911D01*
X-20299068Y68927271D01*
X-20228586Y68757111D01*
X-20126262Y68603972D01*
X-19996028Y68473738D01*
X-19842889Y68371414D01*
X-19672729Y68300932D01*
X-19492089Y68265000D01*
X-19307911Y68265000D01*
X-19127271Y68300932D01*
X-18957111Y68371414D01*
X-18803972Y68473738D01*
X-18673738Y68603972D01*
X-18571414Y68757111D01*
X-18500932Y68927271D01*
X-18465000Y69107911D01*
X-18465000Y69292089D01*
X-18500932Y69472729D01*
X-18571414Y69642889D01*
X-18640000Y69745535D01*
X-18640000Y71755260D01*
X-13985000Y71755260D01*
X-13985000Y71462740D01*
X-13927932Y71175842D01*
X-13815990Y70905589D01*
X-13653475Y70662368D01*
X-13446632Y70455525D01*
X-13203411Y70293010D01*
X-12933158Y70181068D01*
X-12646260Y70124000D01*
X-12353740Y70124000D01*
X-12066842Y70181068D01*
X-11796589Y70293010D01*
X-11553368Y70455525D01*
X-11346525Y70662368D01*
X-11250000Y70806828D01*
X-11153475Y70662368D01*
X-10946632Y70455525D01*
X-10703411Y70293010D01*
X-10433158Y70181068D01*
X-10146260Y70124000D01*
X-9853740Y70124000D01*
X-9566842Y70181068D01*
X-9296589Y70293010D01*
X-9053368Y70455525D01*
X-8928290Y70580603D01*
X-8348792Y70580603D01*
X-8271157Y70331528D01*
X-8007117Y70205629D01*
X-7723589Y70133661D01*
X-7431469Y70118389D01*
X-7141981Y70160401D01*
X-6866253Y70258081D01*
X-6728843Y70331528D01*
X-6651208Y70580603D01*
X-7500000Y71429395D01*
X-8348792Y70580603D01*
X-8928290Y70580603D01*
X-8846525Y70662368D01*
X-8737584Y70825410D01*
X-8528397Y70760208D01*
X-7679605Y71609000D01*
X-7320395Y71609000D01*
X-6471603Y70760208D01*
X-6222528Y70837843D01*
X-6096629Y71101883D01*
X-6024661Y71385411D01*
X-6009389Y71677531D01*
X-6051401Y71967019D01*
X-6149081Y72242747D01*
X-6222528Y72380157D01*
X-6471603Y72457792D01*
X-7320395Y71609000D01*
X-7679605Y71609000D01*
X-8528397Y72457792D01*
X-8737584Y72392590D01*
X-8846525Y72555632D01*
X-8928290Y72637397D01*
X-8348792Y72637397D01*
X-7500000Y71788605D01*
X-6651208Y72637397D01*
X-6728843Y72886472D01*
X-6992883Y73012371D01*
X-7276411Y73084339D01*
X-7568531Y73099611D01*
X-7858019Y73057599D01*
X-8133747Y72959919D01*
X-8271157Y72886472D01*
X-8348792Y72637397D01*
X-8928290Y72637397D01*
X-9053368Y72762475D01*
X-9296589Y72924990D01*
X-9566842Y73036932D01*
X-9853740Y73094000D01*
X-10146260Y73094000D01*
X-10433158Y73036932D01*
X-10703411Y72924990D01*
X-10946632Y72762475D01*
X-11153475Y72555632D01*
X-11250000Y72411172D01*
X-11346525Y72555632D01*
X-11553368Y72762475D01*
X-11796589Y72924990D01*
X-12066842Y73036932D01*
X-12353740Y73094000D01*
X-12646260Y73094000D01*
X-12933158Y73036932D01*
X-13203411Y72924990D01*
X-13446632Y72762475D01*
X-13653475Y72555632D01*
X-13815990Y72312411D01*
X-13927932Y72042158D01*
X-13985000Y71755260D01*
X-18640000Y71755260D01*
X-18640000Y73310325D01*
X-18538914Y73461611D01*
X-18468432Y73631771D01*
X-18432500Y73812411D01*
X-18432500Y73996589D01*
X-18468432Y74177229D01*
X-18538914Y74347389D01*
X-18641238Y74500528D01*
X-18771472Y74630762D01*
X-18924611Y74733086D01*
X-19094771Y74803568D01*
X-19275411Y74839500D01*
X-19459589Y74839500D01*
X-19640229Y74803568D01*
X-19810389Y74733086D01*
X-19963528Y74630762D01*
X-20093762Y74500528D01*
X-20196086Y74347389D01*
X-20266568Y74177229D01*
X-20302500Y73996589D01*
X-20302500Y73812411D01*
X-20266568Y73631771D01*
X-20196086Y73461611D01*
X-20159999Y73407603D01*
X-20160000Y69745536D01*
X-20228586Y69642889D01*
X-20299068Y69472729D01*
X-20335000Y69292089D01*
X-35999000Y69292089D01*
X-35999000Y74364000D01*
X-34433065Y74364000D01*
X-34358475Y74252368D01*
X-34151632Y74045525D01*
X-33908411Y73883010D01*
X-33638158Y73771068D01*
X-33351260Y73714000D01*
X-33058740Y73714000D01*
X-32771842Y73771068D01*
X-32501589Y73883010D01*
X-32258368Y74045525D01*
X-32051525Y74252368D01*
X-31955000Y74396828D01*
X-31858475Y74252368D01*
X-31651632Y74045525D01*
X-31408411Y73883010D01*
X-31138158Y73771068D01*
X-30851260Y73714000D01*
X-30558740Y73714000D01*
X-30271842Y73771068D01*
X-30001589Y73883010D01*
X-29758368Y74045525D01*
X-29551525Y74252368D01*
X-29455000Y74396828D01*
X-29358475Y74252368D01*
X-29151632Y74045525D01*
X-28908411Y73883010D01*
X-28638158Y73771068D01*
X-28351260Y73714000D01*
X-28058740Y73714000D01*
X-27771842Y73771068D01*
X-27501589Y73883010D01*
X-27258368Y74045525D01*
X-27051525Y74252368D01*
X-26889010Y74495589D01*
X-26777068Y74765842D01*
X-26720000Y75052740D01*
X-26720000Y75345260D01*
X-26777068Y75632158D01*
X-26889010Y75902411D01*
X-27051525Y76145632D01*
X-27258368Y76352475D01*
X-27501589Y76514990D01*
X-27771842Y76626932D01*
X-28058740Y76684000D01*
X-28351260Y76684000D01*
X-28638158Y76626932D01*
X-28908411Y76514990D01*
X-29151632Y76352475D01*
X-29358475Y76145632D01*
X-29455000Y76001172D01*
X-29551525Y76145632D01*
X-29758368Y76352475D01*
X-30001589Y76514990D01*
X-30271842Y76626932D01*
X-30558740Y76684000D01*
X-30851260Y76684000D01*
X-31138158Y76626932D01*
X-31408411Y76514990D01*
X-31651632Y76352475D01*
X-31858475Y76145632D01*
X-31955000Y76001172D01*
X-32051525Y76145632D01*
X-32258368Y76352475D01*
X-32501589Y76514990D01*
X-32771842Y76626932D01*
X-33058740Y76684000D01*
X-33351260Y76684000D01*
X-33638158Y76626932D01*
X-33908411Y76514990D01*
X-34151632Y76352475D01*
X-34358475Y76145632D01*
X-34433065Y76034000D01*
X-35999000Y76034000D01*
X-35999000Y79959000D01*
X-16538072Y79959000D01*
X-16538072Y78259000D01*
X-16525812Y78134518D01*
X-16489502Y78014820D01*
X-16430537Y77904506D01*
X-16351185Y77807815D01*
X-16254494Y77728463D01*
X-16144180Y77669498D01*
X-16024482Y77633188D01*
X-15900000Y77620928D01*
X-13600000Y77620928D01*
X-13475518Y77633188D01*
X-13355820Y77669498D01*
X-13245506Y77728463D01*
X-13148815Y77807815D01*
X-13069463Y77904506D01*
X-13010498Y78014820D01*
X-12974188Y78134518D01*
X-12961928Y78259000D01*
X-12961928Y79959000D01*
X-7038072Y79959000D01*
X-7038072Y78259000D01*
X-7025812Y78134518D01*
X-6989502Y78014820D01*
X-6930537Y77904506D01*
X-6851185Y77807815D01*
X-6754494Y77728463D01*
X-6644180Y77669498D01*
X-6524482Y77633188D01*
X-6400000Y77620928D01*
X-4100000Y77620928D01*
X-3975518Y77633188D01*
X-3855820Y77669498D01*
X-3745506Y77728463D01*
X-3648815Y77807815D01*
X-3569463Y77904506D01*
X-3510498Y78014820D01*
X-3474188Y78134518D01*
X-3461928Y78259000D01*
X-3461928Y79959000D01*
X-3474188Y80083482D01*
X-3510498Y80203180D01*
X-3569463Y80313494D01*
X-3648815Y80410185D01*
X-3745506Y80489537D01*
X-3855820Y80548502D01*
X-3975518Y80584812D01*
X-4100000Y80597072D01*
X-6400000Y80597072D01*
X-6524482Y80584812D01*
X-6644180Y80548502D01*
X-6754494Y80489537D01*
X-6851185Y80410185D01*
X-6930537Y80313494D01*
X-6989502Y80203180D01*
X-7025812Y80083482D01*
X-7038072Y79959000D01*
X-12961928Y79959000D01*
X-12974188Y80083482D01*
X-13010498Y80203180D01*
X-13069463Y80313494D01*
X-13148815Y80410185D01*
X-13245506Y80489537D01*
X-13355820Y80548502D01*
X-13475518Y80584812D01*
X-13600000Y80597072D01*
X-15900000Y80597072D01*
X-16024482Y80584812D01*
X-16144180Y80548502D01*
X-16254494Y80489537D01*
X-16351185Y80410185D01*
X-16430537Y80313494D01*
X-16489502Y80203180D01*
X-16525812Y80083482D01*
X-16538072Y79959000D01*
X-35999000Y79959000D01*
X-35999000Y80210928D01*
X-33955000Y80210928D01*
X-33830518Y80223188D01*
X-33710820Y80259498D01*
X-33600506Y80318463D01*
X-33503815Y80397815D01*
X-33424463Y80494506D01*
X-33365498Y80604820D01*
X-33329188Y80724518D01*
X-33316928Y80849000D01*
X-33316928Y83549000D01*
X-28093072Y83549000D01*
X-28093072Y80849000D01*
X-28080812Y80724518D01*
X-28044502Y80604820D01*
X-27985537Y80494506D01*
X-27906185Y80397815D01*
X-27809494Y80318463D01*
X-27699180Y80259498D01*
X-27579482Y80223188D01*
X-27455000Y80210928D01*
X-25155000Y80210928D01*
X-25030518Y80223188D01*
X-24910820Y80259498D01*
X-24800506Y80318463D01*
X-24703815Y80397815D01*
X-24624463Y80494506D01*
X-24565498Y80604820D01*
X-24529188Y80724518D01*
X-24516928Y80849000D01*
X-24516928Y83549000D01*
X-24529188Y83673482D01*
X-24565498Y83793180D01*
X-24624463Y83903494D01*
X-24703815Y84000185D01*
X-24800506Y84079537D01*
X-24910820Y84138502D01*
X-25030518Y84174812D01*
X-25155000Y84187072D01*
X-27455000Y84187072D01*
X-27579482Y84174812D01*
X-27699180Y84138502D01*
X-27809494Y84079537D01*
X-27906185Y84000185D01*
X-27985537Y83903494D01*
X-28044502Y83793180D01*
X-28080812Y83673482D01*
X-28093072Y83549000D01*
X-33316928Y83549000D01*
X-33329188Y83673482D01*
X-33365498Y83793180D01*
X-33424463Y83903494D01*
X-33503815Y84000185D01*
X-33600506Y84079537D01*
X-33710820Y84138502D01*
X-33830518Y84174812D01*
X-33955000Y84187072D01*
X-35999000Y84187072D01*
X-35999000Y86735089D01*
X-31640000Y86735089D01*
X-31640000Y86550911D01*
X-31604068Y86370271D01*
X-31533586Y86200111D01*
X-31464999Y86097464D01*
X-31465000Y85220036D01*
X-31533586Y85117389D01*
X-31604068Y84947229D01*
X-31640000Y84766589D01*
X-31640000Y84582411D01*
X-31604068Y84401771D01*
X-31533586Y84231611D01*
X-31431262Y84078472D01*
X-31301028Y83948238D01*
X-31147889Y83845914D01*
X-30977729Y83775432D01*
X-30797089Y83739500D01*
X-30612911Y83739500D01*
X-30432271Y83775432D01*
X-30262111Y83845914D01*
X-30108972Y83948238D01*
X-29978738Y84078472D01*
X-29876414Y84231611D01*
X-29805932Y84401771D01*
X-29770000Y84582411D01*
X-29770000Y84766589D01*
X-29805932Y84947229D01*
X-29876414Y85117389D01*
X-29945000Y85220035D01*
X-29945000Y86097465D01*
X-29876414Y86200111D01*
X-29805932Y86370271D01*
X-29770000Y86550911D01*
X-29770000Y86735089D01*
X-29805932Y86915729D01*
X-29876414Y87085889D01*
X-29978738Y87239028D01*
X-30108972Y87369262D01*
X-30262111Y87471586D01*
X-30432271Y87542068D01*
X-30612911Y87578000D01*
X-30797089Y87578000D01*
X-30977729Y87542068D01*
X-31147889Y87471586D01*
X-31301028Y87369262D01*
X-31431262Y87239028D01*
X-31533586Y87085889D01*
X-31604068Y86915729D01*
X-31640000Y86735089D01*
X-35999000Y86735089D01*
X-35999000Y88001089D01*
X-23160000Y88001089D01*
X-23160000Y87816911D01*
X-23124068Y87636271D01*
X-23053586Y87466111D01*
X-22984999Y87363463D01*
X-22985000Y84649536D01*
X-23053586Y84546889D01*
X-23124068Y84376729D01*
X-23160000Y84196089D01*
X-23160000Y84011911D01*
X-23124068Y83831271D01*
X-23053586Y83661111D01*
X-22951262Y83507972D01*
X-22821028Y83377738D01*
X-22667889Y83275414D01*
X-22497729Y83204932D01*
X-22317089Y83169000D01*
X-22132911Y83169000D01*
X-21952271Y83204932D01*
X-21782111Y83275414D01*
X-21628972Y83377738D01*
X-21498738Y83507972D01*
X-21396414Y83661111D01*
X-21325932Y83831271D01*
X-21290000Y84011911D01*
X-21290000Y84196089D01*
X-21325932Y84376729D01*
X-21396414Y84546889D01*
X-21465000Y84649535D01*
X-21465000Y87363465D01*
X-21396414Y87466111D01*
X-21343200Y87594582D01*
X-21292725Y87570342D01*
X-20999858Y87495135D01*
X-20697947Y87478509D01*
X-20398593Y87521103D01*
X-20113301Y87621278D01*
X-19963708Y87701239D01*
X-19880025Y87955420D01*
X-20764500Y88839895D01*
X-20778643Y88825753D01*
X-20958248Y89005358D01*
X-20944105Y89019500D01*
X-20584895Y89019500D01*
X-19700420Y88135025D01*
X-19446239Y88218708D01*
X-19315342Y88491275D01*
X-19240135Y88784142D01*
X-19223509Y89086053D01*
X-19266103Y89385407D01*
X-19366278Y89670699D01*
X-19446239Y89820292D01*
X-19700420Y89903975D01*
X-20584895Y89019500D01*
X-20944105Y89019500D01*
X-21828580Y89903975D01*
X-22082761Y89820292D01*
X-22213658Y89547725D01*
X-22288865Y89254858D01*
X-22305491Y88952947D01*
X-22289989Y88844000D01*
X-22317089Y88844000D01*
X-22497729Y88808068D01*
X-22667889Y88737586D01*
X-22821028Y88635262D01*
X-22951262Y88505028D01*
X-23053586Y88351889D01*
X-23124068Y88181729D01*
X-23160000Y88001089D01*
X-35999000Y88001089D01*
X-35999000Y89481542D01*
X-35920863Y89466000D01*
X-35707137Y89466000D01*
X-35497517Y89507696D01*
X-35300060Y89589485D01*
X-35122353Y89708225D01*
X-34971225Y89859353D01*
X-34852485Y90037060D01*
X-34770696Y90234517D01*
X-34729000Y90444137D01*
X-34729000Y90657863D01*
X-34770696Y90867483D01*
X-34852485Y91064940D01*
X-34971225Y91242647D01*
X-35028434Y91299856D01*
X-35010063Y91318226D01*
X-34896795Y91487744D01*
X-34818774Y91676102D01*
X-34779000Y91876061D01*
X-34779000Y92079939D01*
X-34781649Y92093260D01*
X-31985000Y92093260D01*
X-31985000Y91800740D01*
X-31927932Y91513842D01*
X-31815990Y91243589D01*
X-31653475Y91000368D01*
X-31446632Y90793525D01*
X-31203411Y90631010D01*
X-30933158Y90519068D01*
X-30646260Y90462000D01*
X-30353740Y90462000D01*
X-30066842Y90519068D01*
X-29796589Y90631010D01*
X-29553368Y90793525D01*
X-29346525Y91000368D01*
X-29250000Y91144828D01*
X-29153475Y91000368D01*
X-28946632Y90793525D01*
X-28759999Y90668821D01*
X-28759999Y90394537D01*
X-28828586Y90291889D01*
X-28899068Y90121729D01*
X-28935000Y89941089D01*
X-28935000Y89756911D01*
X-28899068Y89576271D01*
X-28828586Y89406111D01*
X-28726262Y89252972D01*
X-28596028Y89122738D01*
X-28442889Y89020414D01*
X-28272729Y88949932D01*
X-28092089Y88914000D01*
X-27907911Y88914000D01*
X-27727271Y88949932D01*
X-27557111Y89020414D01*
X-27403972Y89122738D01*
X-27273738Y89252972D01*
X-27171414Y89406111D01*
X-27100932Y89576271D01*
X-27065000Y89756911D01*
X-27065000Y89941089D01*
X-27093343Y90083580D01*
X-21648975Y90083580D01*
X-20764500Y89199105D01*
X-19880025Y90083580D01*
X-19963708Y90337761D01*
X-20236275Y90468658D01*
X-20529142Y90543865D01*
X-20831053Y90560491D01*
X-21130407Y90517897D01*
X-21415699Y90417722D01*
X-21565292Y90337761D01*
X-21648975Y90083580D01*
X-27093343Y90083580D01*
X-27100932Y90121729D01*
X-27171414Y90291889D01*
X-27240000Y90394535D01*
X-27240000Y90668822D01*
X-27053368Y90793525D01*
X-26846525Y91000368D01*
X-26750000Y91144828D01*
X-26653475Y91000368D01*
X-26446632Y90793525D01*
X-26203411Y90631010D01*
X-25933158Y90519068D01*
X-25646260Y90462000D01*
X-25353740Y90462000D01*
X-25066842Y90519068D01*
X-24796589Y90631010D01*
X-24553368Y90793525D01*
X-24346525Y91000368D01*
X-24184010Y91243589D01*
X-24072068Y91513842D01*
X-24015000Y91800740D01*
X-24015000Y92093260D01*
X-24072068Y92380158D01*
X-24167929Y92611589D01*
X-23477500Y92611589D01*
X-23477500Y92427411D01*
X-23441568Y92246771D01*
X-23371086Y92076611D01*
X-23268762Y91923472D01*
X-23138528Y91793238D01*
X-22985389Y91690914D01*
X-22815229Y91620432D01*
X-22634589Y91584500D01*
X-22450411Y91584500D01*
X-22269771Y91620432D01*
X-22099611Y91690914D01*
X-21946472Y91793238D01*
X-21816238Y91923472D01*
X-21713914Y92076611D01*
X-21643432Y92246771D01*
X-21607500Y92427411D01*
X-21607500Y92611589D01*
X-21643432Y92792229D01*
X-21713914Y92962389D01*
X-21782500Y93065035D01*
X-21782500Y93926699D01*
X-21173430Y94535769D01*
X-20915684Y94484500D01*
X-20613316Y94484500D01*
X-20316757Y94543489D01*
X-20037405Y94659201D01*
X-19785995Y94827188D01*
X-19572188Y95040995D01*
X-19404201Y95292405D01*
X-19370404Y95374000D01*
X-17528072Y95374000D01*
X-17528072Y93374000D01*
X-17515812Y93249518D01*
X-17479502Y93129820D01*
X-17420537Y93019506D01*
X-17341185Y92922815D01*
X-17244494Y92843463D01*
X-17134180Y92784498D01*
X-17014482Y92748188D01*
X-16890000Y92735928D01*
X-15326729Y92735928D01*
X-12697999Y90107197D01*
X-12698000Y88078536D01*
X-12766586Y87975889D01*
X-12837068Y87805729D01*
X-12873000Y87625089D01*
X-12873000Y87440911D01*
X-12837068Y87260271D01*
X-12766586Y87090111D01*
X-12664262Y86936972D01*
X-12534028Y86806738D01*
X-12380889Y86704414D01*
X-12210729Y86633932D01*
X-12030089Y86598000D01*
X-11845911Y86598000D01*
X-11665271Y86633932D01*
X-11495111Y86704414D01*
X-11493500Y86705490D01*
X-11491889Y86704414D01*
X-11321729Y86633932D01*
X-11141089Y86598000D01*
X-10956911Y86598000D01*
X-10776271Y86633932D01*
X-10606111Y86704414D01*
X-10452972Y86806738D01*
X-10322738Y86936972D01*
X-10220414Y87090111D01*
X-10149932Y87260271D01*
X-10114000Y87440911D01*
X-10114000Y87625089D01*
X-10149932Y87805729D01*
X-10220414Y87975889D01*
X-10289000Y88078535D01*
X-10289000Y91063000D01*
X-8904733Y91063000D01*
X-8881853Y90830700D01*
X-8814094Y90607326D01*
X-8704058Y90401464D01*
X-8555975Y90221025D01*
X-8375536Y90072942D01*
X-8169674Y89962906D01*
X-7999000Y89911133D01*
X-7999000Y89348536D01*
X-8067586Y89245889D01*
X-8138068Y89075729D01*
X-8174000Y88895089D01*
X-8174000Y88710911D01*
X-8138068Y88530271D01*
X-8067586Y88360111D01*
X-7965262Y88206972D01*
X-7835028Y88076738D01*
X-7681889Y87974414D01*
X-7511729Y87903932D01*
X-7331089Y87868000D01*
X-7146911Y87868000D01*
X-6966271Y87903932D01*
X-6796111Y87974414D01*
X-6642972Y88076738D01*
X-6512738Y88206972D01*
X-6410414Y88360111D01*
X-6339932Y88530271D01*
X-6304000Y88710911D01*
X-6304000Y88895089D01*
X-6339932Y89075729D01*
X-6410414Y89245889D01*
X-6479000Y89348535D01*
X-6479000Y89895966D01*
X-6258326Y89962906D01*
X-6052464Y90072942D01*
X-5872025Y90221025D01*
X-5723942Y90401464D01*
X-5613906Y90607326D01*
X-5546147Y90830700D01*
X-5523267Y91063000D01*
X-5546147Y91295300D01*
X-5613906Y91518674D01*
X-5723942Y91724536D01*
X-5872025Y91904975D01*
X-6052464Y92053058D01*
X-6258326Y92163094D01*
X-6481700Y92230853D01*
X-6655793Y92248000D01*
X-7772207Y92248000D01*
X-7946300Y92230853D01*
X-8169674Y92163094D01*
X-8375536Y92053058D01*
X-8555975Y91904975D01*
X-8704058Y91724536D01*
X-8814094Y91518674D01*
X-8881853Y91295300D01*
X-8904733Y91063000D01*
X-10289000Y91063000D01*
X-10289000Y92035677D01*
X-10285324Y92073000D01*
X-10289000Y92110323D01*
X-10289000Y92110333D01*
X-10299997Y92221986D01*
X-10343454Y92365247D01*
X-10414026Y92497276D01*
X-10508999Y92613001D01*
X-10537996Y92636798D01*
X-14323823Y96422624D01*
X-14317832Y96437088D01*
X-14255000Y96752967D01*
X-14255000Y97075033D01*
X-14317832Y97390912D01*
X-14441082Y97688463D01*
X-14620013Y97956252D01*
X-14847748Y98183987D01*
X-14847767Y98184000D01*
X-14847748Y98184013D01*
X-14620013Y98411748D01*
X-14441082Y98679537D01*
X-14317832Y98977088D01*
X-14304246Y99045391D01*
X-8857462Y99045391D01*
X-8853591Y99007718D01*
X-8761421Y98782467D01*
X-8627078Y98579526D01*
X-8455725Y98406693D01*
X-8253946Y98270610D01*
X-8029496Y98176507D01*
X-7791000Y98128000D01*
X-7341000Y98128000D01*
X-7341000Y99236000D01*
X-7087000Y99236000D01*
X-7087000Y98128000D01*
X-6637000Y98128000D01*
X-6398504Y98176507D01*
X-6174054Y98270610D01*
X-5972275Y98406693D01*
X-5800922Y98579526D01*
X-5666579Y98782467D01*
X-5574409Y99007718D01*
X-5570538Y99045391D01*
X-5695269Y99236000D01*
X-7087000Y99236000D01*
X-7341000Y99236000D01*
X-8732731Y99236000D01*
X-8857462Y99045391D01*
X-14304246Y99045391D01*
X-14255000Y99292967D01*
X-14255000Y99615033D01*
X-14268043Y99680609D01*
X-8857462Y99680609D01*
X-8732731Y99490000D01*
X-7341000Y99490000D01*
X-7341000Y101476500D01*
X-7087000Y101476500D01*
X-7087000Y99490000D01*
X-5695269Y99490000D01*
X-5570538Y99680609D01*
X-5574409Y99718282D01*
X-5666579Y99943533D01*
X-5800922Y100146474D01*
X-5972275Y100319307D01*
X-6174054Y100455390D01*
X-6398504Y100549493D01*
X-6416235Y100553099D01*
X-6241769Y100680131D01*
X-6077428Y100858283D01*
X-5951000Y101065073D01*
X-5870538Y101285891D01*
X-5995269Y101476500D01*
X-7087000Y101476500D01*
X-7341000Y101476500D01*
X-8432731Y101476500D01*
X-8557462Y101285891D01*
X-8477000Y101065073D01*
X-8350572Y100858283D01*
X-8186231Y100680131D01*
X-8011765Y100553099D01*
X-8029496Y100549493D01*
X-8253946Y100455390D01*
X-8455725Y100319307D01*
X-8627078Y100146474D01*
X-8761421Y99943533D01*
X-8853591Y99718282D01*
X-8857462Y99680609D01*
X-14268043Y99680609D01*
X-14317832Y99930912D01*
X-14441082Y100228463D01*
X-14620013Y100496252D01*
X-14847748Y100723987D01*
X-15115537Y100902918D01*
X-15413088Y101026168D01*
X-15728967Y101089000D01*
X-16051033Y101089000D01*
X-16366912Y101026168D01*
X-16664463Y100902918D01*
X-16932252Y100723987D01*
X-17159987Y100496252D01*
X-17338918Y100228463D01*
X-17462168Y99930912D01*
X-17525000Y99615033D01*
X-17525000Y99292967D01*
X-17462168Y98977088D01*
X-17338918Y98679537D01*
X-17159987Y98411748D01*
X-16932252Y98184013D01*
X-16932233Y98184000D01*
X-16932252Y98183987D01*
X-17159987Y97956252D01*
X-17338918Y97688463D01*
X-17462168Y97390912D01*
X-17525000Y97075033D01*
X-17525000Y96752967D01*
X-17462168Y96437088D01*
X-17338918Y96139537D01*
X-17198370Y95929191D01*
X-17244494Y95904537D01*
X-17341185Y95825185D01*
X-17420537Y95728494D01*
X-17479502Y95618180D01*
X-17515812Y95498482D01*
X-17528072Y95374000D01*
X-19370404Y95374000D01*
X-19288489Y95571757D01*
X-19229500Y95868316D01*
X-19229500Y96170684D01*
X-19288489Y96467243D01*
X-19404201Y96746595D01*
X-19572188Y96998005D01*
X-19785995Y97211812D01*
X-20037405Y97379799D01*
X-20316757Y97495511D01*
X-20613316Y97554500D01*
X-20915684Y97554500D01*
X-21212243Y97495511D01*
X-21491595Y97379799D01*
X-21743005Y97211812D01*
X-21956812Y96998005D01*
X-22124799Y96746595D01*
X-22240511Y96467243D01*
X-22299500Y96170684D01*
X-22299500Y95868316D01*
X-22248231Y95610570D01*
X-23053502Y94805299D01*
X-23082500Y94781501D01*
X-23106298Y94752503D01*
X-23106299Y94752502D01*
X-23177474Y94665776D01*
X-23248046Y94533746D01*
X-23291502Y94390485D01*
X-23306176Y94241500D01*
X-23302499Y94204168D01*
X-23302500Y93065036D01*
X-23371086Y92962389D01*
X-23441568Y92792229D01*
X-23477500Y92611589D01*
X-24167929Y92611589D01*
X-24184010Y92650411D01*
X-24346525Y92893632D01*
X-24553368Y93100475D01*
X-24796589Y93262990D01*
X-25066842Y93374932D01*
X-25353740Y93432000D01*
X-25646260Y93432000D01*
X-25933158Y93374932D01*
X-26203411Y93262990D01*
X-26446632Y93100475D01*
X-26653475Y92893632D01*
X-26750000Y92749172D01*
X-26846525Y92893632D01*
X-27053368Y93100475D01*
X-27296589Y93262990D01*
X-27566842Y93374932D01*
X-27853740Y93432000D01*
X-28146260Y93432000D01*
X-28433158Y93374932D01*
X-28703411Y93262990D01*
X-28946632Y93100475D01*
X-29153475Y92893632D01*
X-29250000Y92749172D01*
X-29346525Y92893632D01*
X-29553368Y93100475D01*
X-29796589Y93262990D01*
X-30066842Y93374932D01*
X-30353740Y93432000D01*
X-30646260Y93432000D01*
X-30933158Y93374932D01*
X-31203411Y93262990D01*
X-31446632Y93100475D01*
X-31653475Y92893632D01*
X-31815990Y92650411D01*
X-31927932Y92380158D01*
X-31985000Y92093260D01*
X-34781649Y92093260D01*
X-34818774Y92279898D01*
X-34896795Y92468256D01*
X-35010063Y92637774D01*
X-35154226Y92781937D01*
X-35323744Y92895205D01*
X-35512102Y92973226D01*
X-35712061Y93013000D01*
X-35915939Y93013000D01*
X-35999000Y92996478D01*
X-35999000Y100297000D01*
X-34538072Y100297000D01*
X-34538072Y98597000D01*
X-34525812Y98472518D01*
X-34489502Y98352820D01*
X-34430537Y98242506D01*
X-34351185Y98145815D01*
X-34254494Y98066463D01*
X-34144180Y98007498D01*
X-34024482Y97971188D01*
X-33900000Y97958928D01*
X-31600000Y97958928D01*
X-31475518Y97971188D01*
X-31355820Y98007498D01*
X-31245506Y98066463D01*
X-31148815Y98145815D01*
X-31069463Y98242506D01*
X-31010498Y98352820D01*
X-30974188Y98472518D01*
X-30961928Y98597000D01*
X-30961928Y100297000D01*
X-25038072Y100297000D01*
X-25038072Y98597000D01*
X-25025812Y98472518D01*
X-24989502Y98352820D01*
X-24930537Y98242506D01*
X-24851185Y98145815D01*
X-24754494Y98066463D01*
X-24644180Y98007498D01*
X-24524482Y97971188D01*
X-24400000Y97958928D01*
X-22100000Y97958928D01*
X-21975518Y97971188D01*
X-21855820Y98007498D01*
X-21745506Y98066463D01*
X-21648815Y98145815D01*
X-21569463Y98242506D01*
X-21510498Y98352820D01*
X-21474188Y98472518D01*
X-21461928Y98597000D01*
X-21461928Y100297000D01*
X-21474188Y100421482D01*
X-21510498Y100541180D01*
X-21569463Y100651494D01*
X-21648815Y100748185D01*
X-21745506Y100827537D01*
X-21855820Y100886502D01*
X-21975518Y100922812D01*
X-22100000Y100935072D01*
X-24400000Y100935072D01*
X-24524482Y100922812D01*
X-24644180Y100886502D01*
X-24754494Y100827537D01*
X-24851185Y100748185D01*
X-24930537Y100651494D01*
X-24989502Y100541180D01*
X-25025812Y100421482D01*
X-25038072Y100297000D01*
X-30961928Y100297000D01*
X-30974188Y100421482D01*
X-31010498Y100541180D01*
X-31069463Y100651494D01*
X-31148815Y100748185D01*
X-31245506Y100827537D01*
X-31355820Y100886502D01*
X-31475518Y100922812D01*
X-31600000Y100935072D01*
X-33900000Y100935072D01*
X-34024482Y100922812D01*
X-34144180Y100886502D01*
X-34254494Y100827537D01*
X-34351185Y100748185D01*
X-34430537Y100651494D01*
X-34489502Y100541180D01*
X-34525812Y100421482D01*
X-34538072Y100297000D01*
X-35999000Y100297000D01*
X-35999000Y106064260D01*
X-21365000Y106064260D01*
X-21365000Y105771740D01*
X-21307932Y105484842D01*
X-21195990Y105214589D01*
X-21033475Y104971368D01*
X-20826632Y104764525D01*
X-20652240Y104648000D01*
X-20826632Y104531475D01*
X-21033475Y104324632D01*
X-21195990Y104081411D01*
X-21307932Y103811158D01*
X-21365000Y103524260D01*
X-21365000Y103231740D01*
X-21307932Y102944842D01*
X-21195990Y102674589D01*
X-21033475Y102431368D01*
X-20826632Y102224525D01*
X-20583411Y102062010D01*
X-20313158Y101950068D01*
X-20026260Y101893000D01*
X-19733740Y101893000D01*
X-19446842Y101950068D01*
X-19176589Y102062010D01*
X-18933368Y102224525D01*
X-18808290Y102349603D01*
X-18188792Y102349603D01*
X-18111157Y102100528D01*
X-17847117Y101974629D01*
X-17563589Y101902661D01*
X-17271469Y101887389D01*
X-16981981Y101929401D01*
X-16706253Y102027081D01*
X-16568843Y102100528D01*
X-16491208Y102349603D01*
X-15648792Y102349603D01*
X-15571157Y102100528D01*
X-15307117Y101974629D01*
X-15023589Y101902661D01*
X-14731469Y101887389D01*
X-14441981Y101929401D01*
X-14166253Y102027081D01*
X-14028843Y102100528D01*
X-13951208Y102349603D01*
X-13108792Y102349603D01*
X-13031157Y102100528D01*
X-12767117Y101974629D01*
X-12483589Y101902661D01*
X-12191469Y101887389D01*
X-11901981Y101929401D01*
X-11626253Y102027081D01*
X-11488843Y102100528D01*
X-11411208Y102349603D01*
X-12260000Y103198395D01*
X-13108792Y102349603D01*
X-13951208Y102349603D01*
X-14800000Y103198395D01*
X-15648792Y102349603D01*
X-16491208Y102349603D01*
X-17340000Y103198395D01*
X-18188792Y102349603D01*
X-18808290Y102349603D01*
X-18726525Y102431368D01*
X-18610689Y102604729D01*
X-18368397Y102529208D01*
X-17519605Y103378000D01*
X-17160395Y103378000D01*
X-16311603Y102529208D01*
X-16070000Y102604514D01*
X-15828397Y102529208D01*
X-14979605Y103378000D01*
X-14620395Y103378000D01*
X-13771603Y102529208D01*
X-13530000Y102604514D01*
X-13288397Y102529208D01*
X-12439605Y103378000D01*
X-13288397Y104226792D01*
X-13530000Y104151486D01*
X-13771603Y104226792D01*
X-14620395Y103378000D01*
X-14979605Y103378000D01*
X-15828397Y104226792D01*
X-16070000Y104151486D01*
X-16311603Y104226792D01*
X-17160395Y103378000D01*
X-17519605Y103378000D01*
X-18368397Y104226792D01*
X-18610689Y104151271D01*
X-18726525Y104324632D01*
X-18933368Y104531475D01*
X-19107760Y104648000D01*
X-18933368Y104764525D01*
X-18808290Y104889603D01*
X-18188792Y104889603D01*
X-18113486Y104648000D01*
X-18188792Y104406397D01*
X-17340000Y103557605D01*
X-16491208Y104406397D01*
X-16566514Y104648000D01*
X-16491208Y104889603D01*
X-15648792Y104889603D01*
X-15573486Y104648000D01*
X-15648792Y104406397D01*
X-14800000Y103557605D01*
X-13951208Y104406397D01*
X-14026514Y104648000D01*
X-13951208Y104889603D01*
X-13108792Y104889603D01*
X-13033486Y104648000D01*
X-13108792Y104406397D01*
X-12260000Y103557605D01*
X-11411208Y104406397D01*
X-11486514Y104648000D01*
X-11411208Y104889603D01*
X-12260000Y105738395D01*
X-13108792Y104889603D01*
X-13951208Y104889603D01*
X-14800000Y105738395D01*
X-15648792Y104889603D01*
X-16491208Y104889603D01*
X-17340000Y105738395D01*
X-18188792Y104889603D01*
X-18808290Y104889603D01*
X-18726525Y104971368D01*
X-18610689Y105144729D01*
X-18368397Y105069208D01*
X-17519605Y105918000D01*
X-17160395Y105918000D01*
X-16311603Y105069208D01*
X-16070000Y105144514D01*
X-15828397Y105069208D01*
X-14979605Y105918000D01*
X-14620395Y105918000D01*
X-13771603Y105069208D01*
X-13530000Y105144514D01*
X-13288397Y105069208D01*
X-12439605Y105918000D01*
X-12080395Y105918000D01*
X-11231603Y105069208D01*
X-10989311Y105144729D01*
X-10873475Y104971368D01*
X-10666632Y104764525D01*
X-10492240Y104648000D01*
X-10666632Y104531475D01*
X-10873475Y104324632D01*
X-10989311Y104151271D01*
X-11231603Y104226792D01*
X-12080395Y103378000D01*
X-11231603Y102529208D01*
X-10989311Y102604729D01*
X-10873475Y102431368D01*
X-10666632Y102224525D01*
X-10423411Y102062010D01*
X-10153158Y101950068D01*
X-9866260Y101893000D01*
X-9573740Y101893000D01*
X-9432428Y101921109D01*
X-8557462Y101921109D01*
X-8432731Y101730500D01*
X-7341000Y101730500D01*
X-7341000Y102680931D01*
X-7087000Y102680931D01*
X-7087000Y101730500D01*
X-5995269Y101730500D01*
X-5870538Y101921109D01*
X-5951000Y102141927D01*
X-6077428Y102348717D01*
X-6241769Y102526869D01*
X-6437708Y102669536D01*
X-6657715Y102771236D01*
X-6893336Y102828060D01*
X-7087000Y102680931D01*
X-7341000Y102680931D01*
X-7534664Y102828060D01*
X-7770285Y102771236D01*
X-7990292Y102669536D01*
X-8186231Y102526869D01*
X-8350572Y102348717D01*
X-8477000Y102141927D01*
X-8557462Y101921109D01*
X-9432428Y101921109D01*
X-9286842Y101950068D01*
X-9016589Y102062010D01*
X-8773368Y102224525D01*
X-8566525Y102431368D01*
X-8404010Y102674589D01*
X-8292068Y102944842D01*
X-8235000Y103231740D01*
X-8235000Y103524260D01*
X-8292068Y103811158D01*
X-8404010Y104081411D01*
X-8566525Y104324632D01*
X-8773368Y104531475D01*
X-8947760Y104648000D01*
X-8773368Y104764525D01*
X-8566525Y104971368D01*
X-8404010Y105214589D01*
X-8292068Y105484842D01*
X-8235000Y105771740D01*
X-8235000Y106064260D01*
X-8292068Y106351158D01*
X-8404010Y106621411D01*
X-8566525Y106864632D01*
X-8773368Y107071475D01*
X-9016589Y107233990D01*
X-9286842Y107345932D01*
X-9573740Y107403000D01*
X-9866260Y107403000D01*
X-10153158Y107345932D01*
X-10423411Y107233990D01*
X-10666632Y107071475D01*
X-10873475Y106864632D01*
X-10989311Y106691271D01*
X-11231603Y106766792D01*
X-12080395Y105918000D01*
X-12439605Y105918000D01*
X-13288397Y106766792D01*
X-13530000Y106691486D01*
X-13771603Y106766792D01*
X-14620395Y105918000D01*
X-14979605Y105918000D01*
X-15828397Y106766792D01*
X-16070000Y106691486D01*
X-16311603Y106766792D01*
X-17160395Y105918000D01*
X-17519605Y105918000D01*
X-18368397Y106766792D01*
X-18610689Y106691271D01*
X-18726525Y106864632D01*
X-18808290Y106946397D01*
X-18188792Y106946397D01*
X-17340000Y106097605D01*
X-16491208Y106946397D01*
X-15648792Y106946397D01*
X-14800000Y106097605D01*
X-13951208Y106946397D01*
X-13108792Y106946397D01*
X-12260000Y106097605D01*
X-11411208Y106946397D01*
X-11488843Y107195472D01*
X-11752883Y107321371D01*
X-12036411Y107393339D01*
X-12328531Y107408611D01*
X-12618019Y107366599D01*
X-12893747Y107268919D01*
X-13031157Y107195472D01*
X-13108792Y106946397D01*
X-13951208Y106946397D01*
X-14028843Y107195472D01*
X-14292883Y107321371D01*
X-14576411Y107393339D01*
X-14868531Y107408611D01*
X-15158019Y107366599D01*
X-15433747Y107268919D01*
X-15571157Y107195472D01*
X-15648792Y106946397D01*
X-16491208Y106946397D01*
X-16568843Y107195472D01*
X-16832883Y107321371D01*
X-17116411Y107393339D01*
X-17408531Y107408611D01*
X-17698019Y107366599D01*
X-17973747Y107268919D01*
X-18111157Y107195472D01*
X-18188792Y106946397D01*
X-18808290Y106946397D01*
X-18933368Y107071475D01*
X-19176589Y107233990D01*
X-19446842Y107345932D01*
X-19733740Y107403000D01*
X-20026260Y107403000D01*
X-20313158Y107345932D01*
X-20583411Y107233990D01*
X-20826632Y107071475D01*
X-21033475Y106864632D01*
X-21195990Y106621411D01*
X-21307932Y106351158D01*
X-21365000Y106064260D01*
X-35999000Y106064260D01*
X-35999000Y107246579D01*
X-35618578Y107627000D01*
X-962706Y107627000D01*
X-803303Y107642700D01*
X-660000Y107686170D01*
X-660000Y90634802D01*
G37*
G04 #@! TD.AperFunction*
G04 #@! TD*
M02*
