G04 #@! TF.GenerationSoftware,KiCad,Pcbnew,(5.1.10)-1*
G04 #@! TF.CreationDate,2021-12-11T11:34:54-08:00*
G04 #@! TF.ProjectId,paradox,70617261-646f-4782-9e6b-696361645f70,rev?*
G04 #@! TF.SameCoordinates,Original*
G04 #@! TF.FileFunction,Copper,L1,Top*
G04 #@! TF.FilePolarity,Positive*
%FSLAX46Y46*%
G04 Gerber Fmt 4.6, Leading zero omitted, Abs format (unit mm)*
G04 Created by KiCad (PCBNEW (5.1.10)-1) date 2021-12-11 11:34:54*
%MOMM*%
%LPD*%
G01*
G04 APERTURE LIST*
G04 #@! TA.AperFunction,ComponentPad*
%ADD10C,1.800000*%
G04 #@! TD*
G04 #@! TA.AperFunction,ComponentPad*
%ADD11R,2.000000X2.000000*%
G04 #@! TD*
G04 #@! TA.AperFunction,ComponentPad*
%ADD12C,2.000000*%
G04 #@! TD*
G04 #@! TA.AperFunction,ComponentPad*
%ADD13R,2.300000X2.700000*%
G04 #@! TD*
G04 #@! TA.AperFunction,ComponentPad*
%ADD14C,1.700000*%
G04 #@! TD*
G04 #@! TA.AperFunction,ComponentPad*
%ADD15O,1.500000X1.200000*%
G04 #@! TD*
G04 #@! TA.AperFunction,ComponentPad*
%ADD16O,2.100000X1.200000*%
G04 #@! TD*
G04 #@! TA.AperFunction,ComponentPad*
%ADD17O,2.100000X1.100000*%
G04 #@! TD*
G04 #@! TA.AperFunction,SMDPad,CuDef*
%ADD18R,0.800000X0.900000*%
G04 #@! TD*
G04 #@! TA.AperFunction,SMDPad,CuDef*
%ADD19R,0.650000X0.400000*%
G04 #@! TD*
G04 #@! TA.AperFunction,SMDPad,CuDef*
%ADD20R,1.200000X0.900000*%
G04 #@! TD*
G04 #@! TA.AperFunction,ComponentPad*
%ADD21C,2.850000*%
G04 #@! TD*
G04 #@! TA.AperFunction,ComponentPad*
%ADD22R,2.300000X1.700000*%
G04 #@! TD*
G04 #@! TA.AperFunction,ViaPad*
%ADD23C,0.800000*%
G04 #@! TD*
G04 #@! TA.AperFunction,ViaPad*
%ADD24C,0.900000*%
G04 #@! TD*
G04 #@! TA.AperFunction,ViaPad*
%ADD25C,0.600000*%
G04 #@! TD*
G04 #@! TA.AperFunction,Conductor*
%ADD26C,0.400000*%
G04 #@! TD*
G04 #@! TA.AperFunction,Conductor*
%ADD27C,0.800000*%
G04 #@! TD*
G04 #@! TA.AperFunction,Conductor*
%ADD28C,0.900000*%
G04 #@! TD*
G04 #@! TA.AperFunction,Conductor*
%ADD29C,0.250000*%
G04 #@! TD*
G04 APERTURE END LIST*
D10*
G04 #@! TO.P,R20,2*
G04 #@! TO.N,Vs_B*
X-20764500Y40965000D03*
G04 #@! TO.P,R20,1*
G04 #@! TO.N,GND*
X-20764500Y33965000D03*
G04 #@! TD*
G04 #@! TO.P,R19,2*
G04 #@! TO.N,Vs_A*
X-20764500Y96019500D03*
G04 #@! TO.P,R19,1*
G04 #@! TO.N,GND*
X-20764500Y89019500D03*
G04 #@! TD*
D11*
G04 #@! TO.P,RV9,1*
G04 #@! TO.N,Net-(RV9-Pad1)*
X-18254001Y52865000D03*
D12*
G04 #@! TO.P,RV9,2*
X-20794001Y52865000D03*
G04 #@! TO.P,RV9,3*
G04 #@! TO.N,Net-(R25-Pad2)*
X-23334001Y52865000D03*
G04 #@! TD*
G04 #@! TO.P,RV8,3*
G04 #@! TO.N,Net-(RV8-Pad3)*
X-15890000Y43535000D03*
G04 #@! TO.P,RV8,2*
G04 #@! TO.N,Net-(R18-Pad2)*
X-15890000Y40995000D03*
D11*
G04 #@! TO.P,RV8,1*
G04 #@! TO.N,Net-(R15-Pad1)*
X-15890000Y38455000D03*
G04 #@! TD*
D12*
G04 #@! TO.P,RV7,3*
G04 #@! TO.N,Net-(RV7-Pad3)*
X-15890000Y99454000D03*
G04 #@! TO.P,RV7,2*
G04 #@! TO.N,Net-(R17-Pad2)*
X-15890000Y96914000D03*
D11*
G04 #@! TO.P,RV7,1*
G04 #@! TO.N,Net-(R14-Pad1)*
X-15890000Y94374000D03*
G04 #@! TD*
D13*
G04 #@! TO.P,RV2,*
G04 #@! TO.N,*
X-35105000Y82199000D03*
X-26305000Y82199000D03*
D14*
G04 #@! TO.P,RV2,3*
G04 #@! TO.N,+12V*
X-33205000Y75199000D03*
G04 #@! TO.P,RV2,2*
G04 #@! TO.N,TUNE_A*
X-30705000Y75199000D03*
G04 #@! TO.P,RV2,1*
G04 #@! TO.N,-12V*
X-28205000Y75199000D03*
G04 #@! TD*
D13*
G04 #@! TO.P,RV5,*
G04 #@! TO.N,*
X-35105000Y26280000D03*
X-26305000Y26280000D03*
D14*
G04 #@! TO.P,RV5,3*
G04 #@! TO.N,+12V*
X-33205000Y19280000D03*
G04 #@! TO.P,RV5,2*
G04 #@! TO.N,TUNE_B*
X-30705000Y19280000D03*
G04 #@! TO.P,RV5,1*
G04 #@! TO.N,-12V*
X-28205000Y19280000D03*
G04 #@! TD*
G04 #@! TO.P,R58,2*
G04 #@! TO.N,Net-(J9-PadT)*
G04 #@! TA.AperFunction,SMDPad,CuDef*
G36*
G01*
X-25927500Y7218000D02*
X-25927500Y7768000D01*
G75*
G02*
X-25727500Y7968000I200000J0D01*
G01*
X-25327500Y7968000D01*
G75*
G02*
X-25127500Y7768000I0J-200000D01*
G01*
X-25127500Y7218000D01*
G75*
G02*
X-25327500Y7018000I-200000J0D01*
G01*
X-25727500Y7018000D01*
G75*
G02*
X-25927500Y7218000I0J200000D01*
G01*
G37*
G04 #@! TD.AperFunction*
G04 #@! TO.P,R58,1*
G04 #@! TO.N,GND*
G04 #@! TA.AperFunction,SMDPad,CuDef*
G36*
G01*
X-27577500Y7218000D02*
X-27577500Y7768000D01*
G75*
G02*
X-27377500Y7968000I200000J0D01*
G01*
X-26977500Y7968000D01*
G75*
G02*
X-26777500Y7768000I0J-200000D01*
G01*
X-26777500Y7218000D01*
G75*
G02*
X-26977500Y7018000I-200000J0D01*
G01*
X-27377500Y7018000D01*
G75*
G02*
X-27577500Y7218000I0J200000D01*
G01*
G37*
G04 #@! TD.AperFunction*
G04 #@! TD*
G04 #@! TO.P,R57,2*
G04 #@! TO.N,SQR_MIX*
G04 #@! TA.AperFunction,SMDPad,CuDef*
G36*
G01*
X-25927500Y8869000D02*
X-25927500Y9419000D01*
G75*
G02*
X-25727500Y9619000I200000J0D01*
G01*
X-25327500Y9619000D01*
G75*
G02*
X-25127500Y9419000I0J-200000D01*
G01*
X-25127500Y8869000D01*
G75*
G02*
X-25327500Y8669000I-200000J0D01*
G01*
X-25727500Y8669000D01*
G75*
G02*
X-25927500Y8869000I0J200000D01*
G01*
G37*
G04 #@! TD.AperFunction*
G04 #@! TO.P,R57,1*
G04 #@! TO.N,Net-(J9-PadT)*
G04 #@! TA.AperFunction,SMDPad,CuDef*
G36*
G01*
X-27577500Y8869000D02*
X-27577500Y9419000D01*
G75*
G02*
X-27377500Y9619000I200000J0D01*
G01*
X-26977500Y9619000D01*
G75*
G02*
X-26777500Y9419000I0J-200000D01*
G01*
X-26777500Y8869000D01*
G75*
G02*
X-26977500Y8669000I-200000J0D01*
G01*
X-27377500Y8669000D01*
G75*
G02*
X-27577500Y8869000I0J200000D01*
G01*
G37*
G04 #@! TD.AperFunction*
G04 #@! TD*
G04 #@! TO.P,R56,1*
G04 #@! TO.N,OSC_B*
G04 #@! TA.AperFunction,SMDPad,CuDef*
G36*
G01*
X-9062000Y12340000D02*
X-9062000Y11790000D01*
G75*
G02*
X-9262000Y11590000I-200000J0D01*
G01*
X-9662000Y11590000D01*
G75*
G02*
X-9862000Y11790000I0J200000D01*
G01*
X-9862000Y12340000D01*
G75*
G02*
X-9662000Y12540000I200000J0D01*
G01*
X-9262000Y12540000D01*
G75*
G02*
X-9062000Y12340000I0J-200000D01*
G01*
G37*
G04 #@! TD.AperFunction*
G04 #@! TO.P,R56,2*
G04 #@! TO.N,Net-(C17-Pad1)*
G04 #@! TA.AperFunction,SMDPad,CuDef*
G36*
G01*
X-10712000Y12340000D02*
X-10712000Y11790000D01*
G75*
G02*
X-10912000Y11590000I-200000J0D01*
G01*
X-11312000Y11590000D01*
G75*
G02*
X-11512000Y11790000I0J200000D01*
G01*
X-11512000Y12340000D01*
G75*
G02*
X-11312000Y12540000I200000J0D01*
G01*
X-10912000Y12540000D01*
G75*
G02*
X-10712000Y12340000I0J-200000D01*
G01*
G37*
G04 #@! TD.AperFunction*
G04 #@! TD*
G04 #@! TO.P,R49,2*
G04 #@! TO.N,Net-(R43-Pad1)*
G04 #@! TA.AperFunction,SMDPad,CuDef*
G36*
G01*
X-24151000Y7893500D02*
X-23601000Y7893500D01*
G75*
G02*
X-23401000Y7693500I0J-200000D01*
G01*
X-23401000Y7293500D01*
G75*
G02*
X-23601000Y7093500I-200000J0D01*
G01*
X-24151000Y7093500D01*
G75*
G02*
X-24351000Y7293500I0J200000D01*
G01*
X-24351000Y7693500D01*
G75*
G02*
X-24151000Y7893500I200000J0D01*
G01*
G37*
G04 #@! TD.AperFunction*
G04 #@! TO.P,R49,1*
G04 #@! TO.N,SQR_MIX*
G04 #@! TA.AperFunction,SMDPad,CuDef*
G36*
G01*
X-24151000Y9543500D02*
X-23601000Y9543500D01*
G75*
G02*
X-23401000Y9343500I0J-200000D01*
G01*
X-23401000Y8943500D01*
G75*
G02*
X-23601000Y8743500I-200000J0D01*
G01*
X-24151000Y8743500D01*
G75*
G02*
X-24351000Y8943500I0J200000D01*
G01*
X-24351000Y9343500D01*
G75*
G02*
X-24151000Y9543500I200000J0D01*
G01*
G37*
G04 #@! TD.AperFunction*
G04 #@! TD*
G04 #@! TO.P,R48,1*
G04 #@! TO.N,Net-(C17-Pad1)*
G04 #@! TA.AperFunction,SMDPad,CuDef*
G36*
G01*
X-14600600Y9975300D02*
X-14050600Y9975300D01*
G75*
G02*
X-13850600Y9775300I0J-200000D01*
G01*
X-13850600Y9375300D01*
G75*
G02*
X-14050600Y9175300I-200000J0D01*
G01*
X-14600600Y9175300D01*
G75*
G02*
X-14800600Y9375300I0J200000D01*
G01*
X-14800600Y9775300D01*
G75*
G02*
X-14600600Y9975300I200000J0D01*
G01*
G37*
G04 #@! TD.AperFunction*
G04 #@! TO.P,R48,2*
G04 #@! TO.N,Net-(C17-Pad2)*
G04 #@! TA.AperFunction,SMDPad,CuDef*
G36*
G01*
X-14600600Y8325300D02*
X-14050600Y8325300D01*
G75*
G02*
X-13850600Y8125300I0J-200000D01*
G01*
X-13850600Y7725300D01*
G75*
G02*
X-14050600Y7525300I-200000J0D01*
G01*
X-14600600Y7525300D01*
G75*
G02*
X-14800600Y7725300I0J200000D01*
G01*
X-14800600Y8125300D01*
G75*
G02*
X-14600600Y8325300I200000J0D01*
G01*
G37*
G04 #@! TD.AperFunction*
G04 #@! TD*
G04 #@! TO.P,R46,2*
G04 #@! TO.N,Net-(R45-Pad2)*
G04 #@! TA.AperFunction,SMDPad,CuDef*
G36*
G01*
X-21230000Y11005000D02*
X-20680000Y11005000D01*
G75*
G02*
X-20480000Y10805000I0J-200000D01*
G01*
X-20480000Y10405000D01*
G75*
G02*
X-20680000Y10205000I-200000J0D01*
G01*
X-21230000Y10205000D01*
G75*
G02*
X-21430000Y10405000I0J200000D01*
G01*
X-21430000Y10805000D01*
G75*
G02*
X-21230000Y11005000I200000J0D01*
G01*
G37*
G04 #@! TD.AperFunction*
G04 #@! TO.P,R46,1*
G04 #@! TO.N,GND*
G04 #@! TA.AperFunction,SMDPad,CuDef*
G36*
G01*
X-21230000Y12655000D02*
X-20680000Y12655000D01*
G75*
G02*
X-20480000Y12455000I0J-200000D01*
G01*
X-20480000Y12055000D01*
G75*
G02*
X-20680000Y11855000I-200000J0D01*
G01*
X-21230000Y11855000D01*
G75*
G02*
X-21430000Y12055000I0J200000D01*
G01*
X-21430000Y12455000D01*
G75*
G02*
X-21230000Y12655000I200000J0D01*
G01*
G37*
G04 #@! TD.AperFunction*
G04 #@! TD*
G04 #@! TO.P,R45,1*
G04 #@! TO.N,Net-(J10-PadT)*
G04 #@! TA.AperFunction,SMDPad,CuDef*
G36*
G01*
X-16682000Y12594000D02*
X-16682000Y12044000D01*
G75*
G02*
X-16882000Y11844000I-200000J0D01*
G01*
X-17282000Y11844000D01*
G75*
G02*
X-17482000Y12044000I0J200000D01*
G01*
X-17482000Y12594000D01*
G75*
G02*
X-17282000Y12794000I200000J0D01*
G01*
X-16882000Y12794000D01*
G75*
G02*
X-16682000Y12594000I0J-200000D01*
G01*
G37*
G04 #@! TD.AperFunction*
G04 #@! TO.P,R45,2*
G04 #@! TO.N,Net-(R45-Pad2)*
G04 #@! TA.AperFunction,SMDPad,CuDef*
G36*
G01*
X-18332000Y12594000D02*
X-18332000Y12044000D01*
G75*
G02*
X-18532000Y11844000I-200000J0D01*
G01*
X-18932000Y11844000D01*
G75*
G02*
X-19132000Y12044000I0J200000D01*
G01*
X-19132000Y12594000D01*
G75*
G02*
X-18932000Y12794000I200000J0D01*
G01*
X-18532000Y12794000D01*
G75*
G02*
X-18332000Y12594000I0J-200000D01*
G01*
G37*
G04 #@! TD.AperFunction*
G04 #@! TD*
G04 #@! TO.P,R43,1*
G04 #@! TO.N,Net-(R43-Pad1)*
G04 #@! TA.AperFunction,SMDPad,CuDef*
G36*
G01*
X-19132000Y10393000D02*
X-19132000Y10943000D01*
G75*
G02*
X-18932000Y11143000I200000J0D01*
G01*
X-18532000Y11143000D01*
G75*
G02*
X-18332000Y10943000I0J-200000D01*
G01*
X-18332000Y10393000D01*
G75*
G02*
X-18532000Y10193000I-200000J0D01*
G01*
X-18932000Y10193000D01*
G75*
G02*
X-19132000Y10393000I0J200000D01*
G01*
G37*
G04 #@! TD.AperFunction*
G04 #@! TO.P,R43,2*
G04 #@! TO.N,Net-(C17-Pad1)*
G04 #@! TA.AperFunction,SMDPad,CuDef*
G36*
G01*
X-17482000Y10393000D02*
X-17482000Y10943000D01*
G75*
G02*
X-17282000Y11143000I200000J0D01*
G01*
X-16882000Y11143000D01*
G75*
G02*
X-16682000Y10943000I0J-200000D01*
G01*
X-16682000Y10393000D01*
G75*
G02*
X-16882000Y10193000I-200000J0D01*
G01*
X-17282000Y10193000D01*
G75*
G02*
X-17482000Y10393000I0J200000D01*
G01*
G37*
G04 #@! TD.AperFunction*
G04 #@! TD*
G04 #@! TO.P,R41,1*
G04 #@! TO.N,Net-(C17-Pad2)*
G04 #@! TA.AperFunction,SMDPad,CuDef*
G36*
G01*
X-10799400Y7855000D02*
X-11349400Y7855000D01*
G75*
G02*
X-11549400Y8055000I0J200000D01*
G01*
X-11549400Y8455000D01*
G75*
G02*
X-11349400Y8655000I200000J0D01*
G01*
X-10799400Y8655000D01*
G75*
G02*
X-10599400Y8455000I0J-200000D01*
G01*
X-10599400Y8055000D01*
G75*
G02*
X-10799400Y7855000I-200000J0D01*
G01*
G37*
G04 #@! TD.AperFunction*
G04 #@! TO.P,R41,2*
G04 #@! TO.N,GND*
G04 #@! TA.AperFunction,SMDPad,CuDef*
G36*
G01*
X-10799400Y9505000D02*
X-11349400Y9505000D01*
G75*
G02*
X-11549400Y9705000I0J200000D01*
G01*
X-11549400Y10105000D01*
G75*
G02*
X-11349400Y10305000I200000J0D01*
G01*
X-10799400Y10305000D01*
G75*
G02*
X-10599400Y10105000I0J-200000D01*
G01*
X-10599400Y9705000D01*
G75*
G02*
X-10799400Y9505000I-200000J0D01*
G01*
G37*
G04 #@! TD.AperFunction*
G04 #@! TD*
G04 #@! TO.P,C17,1*
G04 #@! TO.N,Net-(C17-Pad1)*
G04 #@! TA.AperFunction,SMDPad,CuDef*
G36*
G01*
X-12950000Y9975300D02*
X-12450000Y9975300D01*
G75*
G02*
X-12225000Y9750300I0J-225000D01*
G01*
X-12225000Y9300300D01*
G75*
G02*
X-12450000Y9075300I-225000J0D01*
G01*
X-12950000Y9075300D01*
G75*
G02*
X-13175000Y9300300I0J225000D01*
G01*
X-13175000Y9750300D01*
G75*
G02*
X-12950000Y9975300I225000J0D01*
G01*
G37*
G04 #@! TD.AperFunction*
G04 #@! TO.P,C17,2*
G04 #@! TO.N,Net-(C17-Pad2)*
G04 #@! TA.AperFunction,SMDPad,CuDef*
G36*
G01*
X-12950000Y8425300D02*
X-12450000Y8425300D01*
G75*
G02*
X-12225000Y8200300I0J-225000D01*
G01*
X-12225000Y7750300D01*
G75*
G02*
X-12450000Y7525300I-225000J0D01*
G01*
X-12950000Y7525300D01*
G75*
G02*
X-13175000Y7750300I0J225000D01*
G01*
X-13175000Y8200300D01*
G75*
G02*
X-12950000Y8425300I225000J0D01*
G01*
G37*
G04 #@! TD.AperFunction*
G04 #@! TD*
G04 #@! TO.P,J6,10*
G04 #@! TO.N,Net-(D1-Pad2)*
X-19880000Y103378000D03*
G04 #@! TO.P,J6,9*
X-19880000Y105918000D03*
G04 #@! TO.P,J6,8*
G04 #@! TO.N,GND*
X-17340000Y103378000D03*
G04 #@! TO.P,J6,7*
X-17340000Y105918000D03*
G04 #@! TO.P,J6,6*
X-14800000Y103378000D03*
G04 #@! TO.P,J6,5*
X-14800000Y105918000D03*
G04 #@! TO.P,J6,4*
X-12260000Y103378000D03*
G04 #@! TO.P,J6,3*
X-12260000Y105918000D03*
G04 #@! TO.P,J6,2*
G04 #@! TO.N,Net-(D2-Pad1)*
X-9720000Y103378000D03*
G04 #@! TO.P,J6,1*
X-9720000Y105918000D03*
G04 #@! TD*
D15*
G04 #@! TO.P,J8,S*
G04 #@! TO.N,GND*
X-34000000Y879501D03*
D16*
G04 #@! TO.P,J8,TN*
G04 #@! TO.N,Net-(J8-PadTN)*
X-34000000Y3120001D03*
D17*
G04 #@! TO.P,J8,T*
G04 #@! TO.N,Net-(J8-PadT)*
X-34000000Y11420001D03*
G04 #@! TD*
G04 #@! TO.P,C25,2*
G04 #@! TO.N,Net-(C25-Pad2)*
G04 #@! TA.AperFunction,SMDPad,CuDef*
G36*
G01*
X-12450000Y5786000D02*
X-12950000Y5786000D01*
G75*
G02*
X-13175000Y6011000I0J225000D01*
G01*
X-13175000Y6461000D01*
G75*
G02*
X-12950000Y6686000I225000J0D01*
G01*
X-12450000Y6686000D01*
G75*
G02*
X-12225000Y6461000I0J-225000D01*
G01*
X-12225000Y6011000D01*
G75*
G02*
X-12450000Y5786000I-225000J0D01*
G01*
G37*
G04 #@! TD.AperFunction*
G04 #@! TO.P,C25,1*
G04 #@! TO.N,Net-(C25-Pad1)*
G04 #@! TA.AperFunction,SMDPad,CuDef*
G36*
G01*
X-12450000Y4236000D02*
X-12950000Y4236000D01*
G75*
G02*
X-13175000Y4461000I0J225000D01*
G01*
X-13175000Y4911000D01*
G75*
G02*
X-12950000Y5136000I225000J0D01*
G01*
X-12450000Y5136000D01*
G75*
G02*
X-12225000Y4911000I0J-225000D01*
G01*
X-12225000Y4461000D01*
G75*
G02*
X-12450000Y4236000I-225000J0D01*
G01*
G37*
G04 #@! TD.AperFunction*
G04 #@! TD*
G04 #@! TO.P,C24,2*
G04 #@! TO.N,Net-(C24-Pad2)*
G04 #@! TA.AperFunction,SMDPad,CuDef*
G36*
G01*
X-25650000Y64064000D02*
X-25150000Y64064000D01*
G75*
G02*
X-24925000Y63839000I0J-225000D01*
G01*
X-24925000Y63389000D01*
G75*
G02*
X-25150000Y63164000I-225000J0D01*
G01*
X-25650000Y63164000D01*
G75*
G02*
X-25875000Y63389000I0J225000D01*
G01*
X-25875000Y63839000D01*
G75*
G02*
X-25650000Y64064000I225000J0D01*
G01*
G37*
G04 #@! TD.AperFunction*
G04 #@! TO.P,C24,1*
G04 #@! TO.N,OSC_A*
G04 #@! TA.AperFunction,SMDPad,CuDef*
G36*
G01*
X-25650000Y65614000D02*
X-25150000Y65614000D01*
G75*
G02*
X-24925000Y65389000I0J-225000D01*
G01*
X-24925000Y64939000D01*
G75*
G02*
X-25150000Y64714000I-225000J0D01*
G01*
X-25650000Y64714000D01*
G75*
G02*
X-25875000Y64939000I0J225000D01*
G01*
X-25875000Y65389000D01*
G75*
G02*
X-25650000Y65614000I225000J0D01*
G01*
G37*
G04 #@! TD.AperFunction*
G04 #@! TD*
G04 #@! TO.P,U6,14*
G04 #@! TO.N,Net-(U6-Pad13)*
G04 #@! TA.AperFunction,SMDPad,CuDef*
G36*
G01*
X-21175000Y5126000D02*
X-21175000Y4926000D01*
G75*
G02*
X-21275000Y4826000I-100000J0D01*
G01*
X-22550000Y4826000D01*
G75*
G02*
X-22650000Y4926000I0J100000D01*
G01*
X-22650000Y5126000D01*
G75*
G02*
X-22550000Y5226000I100000J0D01*
G01*
X-21275000Y5226000D01*
G75*
G02*
X-21175000Y5126000I0J-100000D01*
G01*
G37*
G04 #@! TD.AperFunction*
G04 #@! TO.P,U6,13*
G04 #@! TA.AperFunction,SMDPad,CuDef*
G36*
G01*
X-21175000Y5776000D02*
X-21175000Y5576000D01*
G75*
G02*
X-21275000Y5476000I-100000J0D01*
G01*
X-22550000Y5476000D01*
G75*
G02*
X-22650000Y5576000I0J100000D01*
G01*
X-22650000Y5776000D01*
G75*
G02*
X-22550000Y5876000I100000J0D01*
G01*
X-21275000Y5876000D01*
G75*
G02*
X-21175000Y5776000I0J-100000D01*
G01*
G37*
G04 #@! TD.AperFunction*
G04 #@! TO.P,U6,12*
G04 #@! TO.N,GND*
G04 #@! TA.AperFunction,SMDPad,CuDef*
G36*
G01*
X-21175000Y6426000D02*
X-21175000Y6226000D01*
G75*
G02*
X-21275000Y6126000I-100000J0D01*
G01*
X-22550000Y6126000D01*
G75*
G02*
X-22650000Y6226000I0J100000D01*
G01*
X-22650000Y6426000D01*
G75*
G02*
X-22550000Y6526000I100000J0D01*
G01*
X-21275000Y6526000D01*
G75*
G02*
X-21175000Y6426000I0J-100000D01*
G01*
G37*
G04 #@! TD.AperFunction*
G04 #@! TO.P,U6,11*
G04 #@! TO.N,-12V*
G04 #@! TA.AperFunction,SMDPad,CuDef*
G36*
G01*
X-21175000Y7076000D02*
X-21175000Y6876000D01*
G75*
G02*
X-21275000Y6776000I-100000J0D01*
G01*
X-22550000Y6776000D01*
G75*
G02*
X-22650000Y6876000I0J100000D01*
G01*
X-22650000Y7076000D01*
G75*
G02*
X-22550000Y7176000I100000J0D01*
G01*
X-21275000Y7176000D01*
G75*
G02*
X-21175000Y7076000I0J-100000D01*
G01*
G37*
G04 #@! TD.AperFunction*
G04 #@! TO.P,U6,10*
G04 #@! TO.N,Net-(R43-Pad1)*
G04 #@! TA.AperFunction,SMDPad,CuDef*
G36*
G01*
X-21175000Y7726000D02*
X-21175000Y7526000D01*
G75*
G02*
X-21275000Y7426000I-100000J0D01*
G01*
X-22550000Y7426000D01*
G75*
G02*
X-22650000Y7526000I0J100000D01*
G01*
X-22650000Y7726000D01*
G75*
G02*
X-22550000Y7826000I100000J0D01*
G01*
X-21275000Y7826000D01*
G75*
G02*
X-21175000Y7726000I0J-100000D01*
G01*
G37*
G04 #@! TD.AperFunction*
G04 #@! TO.P,U6,9*
G04 #@! TO.N,Net-(R45-Pad2)*
G04 #@! TA.AperFunction,SMDPad,CuDef*
G36*
G01*
X-21175000Y8376000D02*
X-21175000Y8176000D01*
G75*
G02*
X-21275000Y8076000I-100000J0D01*
G01*
X-22550000Y8076000D01*
G75*
G02*
X-22650000Y8176000I0J100000D01*
G01*
X-22650000Y8376000D01*
G75*
G02*
X-22550000Y8476000I100000J0D01*
G01*
X-21275000Y8476000D01*
G75*
G02*
X-21175000Y8376000I0J-100000D01*
G01*
G37*
G04 #@! TD.AperFunction*
G04 #@! TO.P,U6,8*
G04 #@! TO.N,SQR_MIX*
G04 #@! TA.AperFunction,SMDPad,CuDef*
G36*
G01*
X-21175000Y9026000D02*
X-21175000Y8826000D01*
G75*
G02*
X-21275000Y8726000I-100000J0D01*
G01*
X-22550000Y8726000D01*
G75*
G02*
X-22650000Y8826000I0J100000D01*
G01*
X-22650000Y9026000D01*
G75*
G02*
X-22550000Y9126000I100000J0D01*
G01*
X-21275000Y9126000D01*
G75*
G02*
X-21175000Y9026000I0J-100000D01*
G01*
G37*
G04 #@! TD.AperFunction*
G04 #@! TO.P,U6,7*
G04 #@! TO.N,Net-(C17-Pad1)*
G04 #@! TA.AperFunction,SMDPad,CuDef*
G36*
G01*
X-15450000Y9026000D02*
X-15450000Y8826000D01*
G75*
G02*
X-15550000Y8726000I-100000J0D01*
G01*
X-16825000Y8726000D01*
G75*
G02*
X-16925000Y8826000I0J100000D01*
G01*
X-16925000Y9026000D01*
G75*
G02*
X-16825000Y9126000I100000J0D01*
G01*
X-15550000Y9126000D01*
G75*
G02*
X-15450000Y9026000I0J-100000D01*
G01*
G37*
G04 #@! TD.AperFunction*
G04 #@! TO.P,U6,6*
G04 #@! TO.N,Net-(C17-Pad2)*
G04 #@! TA.AperFunction,SMDPad,CuDef*
G36*
G01*
X-15450000Y8376000D02*
X-15450000Y8176000D01*
G75*
G02*
X-15550000Y8076000I-100000J0D01*
G01*
X-16825000Y8076000D01*
G75*
G02*
X-16925000Y8176000I0J100000D01*
G01*
X-16925000Y8376000D01*
G75*
G02*
X-16825000Y8476000I100000J0D01*
G01*
X-15550000Y8476000D01*
G75*
G02*
X-15450000Y8376000I0J-100000D01*
G01*
G37*
G04 #@! TD.AperFunction*
G04 #@! TO.P,U6,5*
G04 #@! TO.N,TRI_B*
G04 #@! TA.AperFunction,SMDPad,CuDef*
G36*
G01*
X-15450000Y7726000D02*
X-15450000Y7526000D01*
G75*
G02*
X-15550000Y7426000I-100000J0D01*
G01*
X-16825000Y7426000D01*
G75*
G02*
X-16925000Y7526000I0J100000D01*
G01*
X-16925000Y7726000D01*
G75*
G02*
X-16825000Y7826000I100000J0D01*
G01*
X-15550000Y7826000D01*
G75*
G02*
X-15450000Y7726000I0J-100000D01*
G01*
G37*
G04 #@! TD.AperFunction*
G04 #@! TO.P,U6,4*
G04 #@! TO.N,+12V*
G04 #@! TA.AperFunction,SMDPad,CuDef*
G36*
G01*
X-15450000Y7076000D02*
X-15450000Y6876000D01*
G75*
G02*
X-15550000Y6776000I-100000J0D01*
G01*
X-16825000Y6776000D01*
G75*
G02*
X-16925000Y6876000I0J100000D01*
G01*
X-16925000Y7076000D01*
G75*
G02*
X-16825000Y7176000I100000J0D01*
G01*
X-15550000Y7176000D01*
G75*
G02*
X-15450000Y7076000I0J-100000D01*
G01*
G37*
G04 #@! TD.AperFunction*
G04 #@! TO.P,U6,3*
G04 #@! TO.N,GND*
G04 #@! TA.AperFunction,SMDPad,CuDef*
G36*
G01*
X-15450000Y6426000D02*
X-15450000Y6226000D01*
G75*
G02*
X-15550000Y6126000I-100000J0D01*
G01*
X-16825000Y6126000D01*
G75*
G02*
X-16925000Y6226000I0J100000D01*
G01*
X-16925000Y6426000D01*
G75*
G02*
X-16825000Y6526000I100000J0D01*
G01*
X-15550000Y6526000D01*
G75*
G02*
X-15450000Y6426000I0J-100000D01*
G01*
G37*
G04 #@! TD.AperFunction*
G04 #@! TO.P,U6,2*
G04 #@! TO.N,Net-(C25-Pad2)*
G04 #@! TA.AperFunction,SMDPad,CuDef*
G36*
G01*
X-15450000Y5776000D02*
X-15450000Y5576000D01*
G75*
G02*
X-15550000Y5476000I-100000J0D01*
G01*
X-16825000Y5476000D01*
G75*
G02*
X-16925000Y5576000I0J100000D01*
G01*
X-16925000Y5776000D01*
G75*
G02*
X-16825000Y5876000I100000J0D01*
G01*
X-15550000Y5876000D01*
G75*
G02*
X-15450000Y5776000I0J-100000D01*
G01*
G37*
G04 #@! TD.AperFunction*
G04 #@! TO.P,U6,1*
G04 #@! TO.N,Net-(C25-Pad1)*
G04 #@! TA.AperFunction,SMDPad,CuDef*
G36*
G01*
X-15450000Y5126000D02*
X-15450000Y4926000D01*
G75*
G02*
X-15550000Y4826000I-100000J0D01*
G01*
X-16825000Y4826000D01*
G75*
G02*
X-16925000Y4926000I0J100000D01*
G01*
X-16925000Y5126000D01*
G75*
G02*
X-16825000Y5226000I100000J0D01*
G01*
X-15550000Y5226000D01*
G75*
G02*
X-15450000Y5126000I0J-100000D01*
G01*
G37*
G04 #@! TD.AperFunction*
G04 #@! TD*
G04 #@! TO.P,U5,8*
G04 #@! TO.N,+12V*
G04 #@! TA.AperFunction,SMDPad,CuDef*
G36*
G01*
X-7009000Y30203000D02*
X-7009000Y30503000D01*
G75*
G02*
X-6859000Y30653000I150000J0D01*
G01*
X-5209000Y30653000D01*
G75*
G02*
X-5059000Y30503000I0J-150000D01*
G01*
X-5059000Y30203000D01*
G75*
G02*
X-5209000Y30053000I-150000J0D01*
G01*
X-6859000Y30053000D01*
G75*
G02*
X-7009000Y30203000I0J150000D01*
G01*
G37*
G04 #@! TD.AperFunction*
G04 #@! TO.P,U5,7*
G04 #@! TO.N,Net-(U5-Pad6)*
G04 #@! TA.AperFunction,SMDPad,CuDef*
G36*
G01*
X-7009000Y28933000D02*
X-7009000Y29233000D01*
G75*
G02*
X-6859000Y29383000I150000J0D01*
G01*
X-5209000Y29383000D01*
G75*
G02*
X-5059000Y29233000I0J-150000D01*
G01*
X-5059000Y28933000D01*
G75*
G02*
X-5209000Y28783000I-150000J0D01*
G01*
X-6859000Y28783000D01*
G75*
G02*
X-7009000Y28933000I0J150000D01*
G01*
G37*
G04 #@! TD.AperFunction*
G04 #@! TO.P,U5,6*
G04 #@! TA.AperFunction,SMDPad,CuDef*
G36*
G01*
X-7009000Y27663000D02*
X-7009000Y27963000D01*
G75*
G02*
X-6859000Y28113000I150000J0D01*
G01*
X-5209000Y28113000D01*
G75*
G02*
X-5059000Y27963000I0J-150000D01*
G01*
X-5059000Y27663000D01*
G75*
G02*
X-5209000Y27513000I-150000J0D01*
G01*
X-6859000Y27513000D01*
G75*
G02*
X-7009000Y27663000I0J150000D01*
G01*
G37*
G04 #@! TD.AperFunction*
G04 #@! TO.P,U5,5*
G04 #@! TO.N,GND*
G04 #@! TA.AperFunction,SMDPad,CuDef*
G36*
G01*
X-7009000Y26393000D02*
X-7009000Y26693000D01*
G75*
G02*
X-6859000Y26843000I150000J0D01*
G01*
X-5209000Y26843000D01*
G75*
G02*
X-5059000Y26693000I0J-150000D01*
G01*
X-5059000Y26393000D01*
G75*
G02*
X-5209000Y26243000I-150000J0D01*
G01*
X-6859000Y26243000D01*
G75*
G02*
X-7009000Y26393000I0J150000D01*
G01*
G37*
G04 #@! TD.AperFunction*
G04 #@! TO.P,U5,4*
G04 #@! TO.N,-12V*
G04 #@! TA.AperFunction,SMDPad,CuDef*
G36*
G01*
X-11959000Y26393000D02*
X-11959000Y26693000D01*
G75*
G02*
X-11809000Y26843000I150000J0D01*
G01*
X-10159000Y26843000D01*
G75*
G02*
X-10009000Y26693000I0J-150000D01*
G01*
X-10009000Y26393000D01*
G75*
G02*
X-10159000Y26243000I-150000J0D01*
G01*
X-11809000Y26243000D01*
G75*
G02*
X-11959000Y26393000I0J150000D01*
G01*
G37*
G04 #@! TD.AperFunction*
G04 #@! TO.P,U5,3*
G04 #@! TO.N,GND*
G04 #@! TA.AperFunction,SMDPad,CuDef*
G36*
G01*
X-11959000Y27663000D02*
X-11959000Y27963000D01*
G75*
G02*
X-11809000Y28113000I150000J0D01*
G01*
X-10159000Y28113000D01*
G75*
G02*
X-10009000Y27963000I0J-150000D01*
G01*
X-10009000Y27663000D01*
G75*
G02*
X-10159000Y27513000I-150000J0D01*
G01*
X-11809000Y27513000D01*
G75*
G02*
X-11959000Y27663000I0J150000D01*
G01*
G37*
G04 #@! TD.AperFunction*
G04 #@! TO.P,U5,2*
G04 #@! TO.N,Net-(R10-Pad1)*
G04 #@! TA.AperFunction,SMDPad,CuDef*
G36*
G01*
X-11959000Y28933000D02*
X-11959000Y29233000D01*
G75*
G02*
X-11809000Y29383000I150000J0D01*
G01*
X-10159000Y29383000D01*
G75*
G02*
X-10009000Y29233000I0J-150000D01*
G01*
X-10009000Y28933000D01*
G75*
G02*
X-10159000Y28783000I-150000J0D01*
G01*
X-11809000Y28783000D01*
G75*
G02*
X-11959000Y28933000I0J150000D01*
G01*
G37*
G04 #@! TD.AperFunction*
G04 #@! TO.P,U5,1*
G04 #@! TO.N,Net-(R18-Pad2)*
G04 #@! TA.AperFunction,SMDPad,CuDef*
G36*
G01*
X-11959000Y30203000D02*
X-11959000Y30503000D01*
G75*
G02*
X-11809000Y30653000I150000J0D01*
G01*
X-10159000Y30653000D01*
G75*
G02*
X-10009000Y30503000I0J-150000D01*
G01*
X-10009000Y30203000D01*
G75*
G02*
X-10159000Y30053000I-150000J0D01*
G01*
X-11809000Y30053000D01*
G75*
G02*
X-11959000Y30203000I0J150000D01*
G01*
G37*
G04 #@! TD.AperFunction*
G04 #@! TD*
G04 #@! TO.P,C22,2*
G04 #@! TO.N,-12V*
G04 #@! TA.AperFunction,SMDPad,CuDef*
G36*
G01*
X-12997000Y26823000D02*
X-12657000Y26823000D01*
G75*
G02*
X-12517000Y26683000I0J-140000D01*
G01*
X-12517000Y26403000D01*
G75*
G02*
X-12657000Y26263000I-140000J0D01*
G01*
X-12997000Y26263000D01*
G75*
G02*
X-13137000Y26403000I0J140000D01*
G01*
X-13137000Y26683000D01*
G75*
G02*
X-12997000Y26823000I140000J0D01*
G01*
G37*
G04 #@! TD.AperFunction*
G04 #@! TO.P,C22,1*
G04 #@! TO.N,GND*
G04 #@! TA.AperFunction,SMDPad,CuDef*
G36*
G01*
X-12997000Y27783000D02*
X-12657000Y27783000D01*
G75*
G02*
X-12517000Y27643000I0J-140000D01*
G01*
X-12517000Y27363000D01*
G75*
G02*
X-12657000Y27223000I-140000J0D01*
G01*
X-12997000Y27223000D01*
G75*
G02*
X-13137000Y27363000I0J140000D01*
G01*
X-13137000Y27643000D01*
G75*
G02*
X-12997000Y27783000I140000J0D01*
G01*
G37*
G04 #@! TD.AperFunction*
G04 #@! TD*
G04 #@! TO.P,C21,2*
G04 #@! TO.N,GND*
G04 #@! TA.AperFunction,SMDPad,CuDef*
G36*
G01*
X-4361000Y29673000D02*
X-4021000Y29673000D01*
G75*
G02*
X-3881000Y29533000I0J-140000D01*
G01*
X-3881000Y29253000D01*
G75*
G02*
X-4021000Y29113000I-140000J0D01*
G01*
X-4361000Y29113000D01*
G75*
G02*
X-4501000Y29253000I0J140000D01*
G01*
X-4501000Y29533000D01*
G75*
G02*
X-4361000Y29673000I140000J0D01*
G01*
G37*
G04 #@! TD.AperFunction*
G04 #@! TO.P,C21,1*
G04 #@! TO.N,+12V*
G04 #@! TA.AperFunction,SMDPad,CuDef*
G36*
G01*
X-4361000Y30633000D02*
X-4021000Y30633000D01*
G75*
G02*
X-3881000Y30493000I0J-140000D01*
G01*
X-3881000Y30213000D01*
G75*
G02*
X-4021000Y30073000I-140000J0D01*
G01*
X-4361000Y30073000D01*
G75*
G02*
X-4501000Y30213000I0J140000D01*
G01*
X-4501000Y30493000D01*
G75*
G02*
X-4361000Y30633000I140000J0D01*
G01*
G37*
G04 #@! TD.AperFunction*
G04 #@! TD*
G04 #@! TO.P,R55,2*
G04 #@! TO.N,SAW_MIX*
G04 #@! TA.AperFunction,SMDPad,CuDef*
G36*
G01*
X-33484000Y64652000D02*
X-33484000Y65202000D01*
G75*
G02*
X-33284000Y65402000I200000J0D01*
G01*
X-32884000Y65402000D01*
G75*
G02*
X-32684000Y65202000I0J-200000D01*
G01*
X-32684000Y64652000D01*
G75*
G02*
X-32884000Y64452000I-200000J0D01*
G01*
X-33284000Y64452000D01*
G75*
G02*
X-33484000Y64652000I0J200000D01*
G01*
G37*
G04 #@! TD.AperFunction*
G04 #@! TO.P,R55,1*
G04 #@! TO.N,Net-(J11-PadT)*
G04 #@! TA.AperFunction,SMDPad,CuDef*
G36*
G01*
X-35134000Y64652000D02*
X-35134000Y65202000D01*
G75*
G02*
X-34934000Y65402000I200000J0D01*
G01*
X-34534000Y65402000D01*
G75*
G02*
X-34334000Y65202000I0J-200000D01*
G01*
X-34334000Y64652000D01*
G75*
G02*
X-34534000Y64452000I-200000J0D01*
G01*
X-34934000Y64452000D01*
G75*
G02*
X-35134000Y64652000I0J200000D01*
G01*
G37*
G04 #@! TD.AperFunction*
G04 #@! TD*
G04 #@! TO.P,R38,2*
G04 #@! TO.N,Net-(C25-Pad1)*
G04 #@! TA.AperFunction,SMDPad,CuDef*
G36*
G01*
X-20022000Y2900000D02*
X-20022000Y3450000D01*
G75*
G02*
X-19822000Y3650000I200000J0D01*
G01*
X-19422000Y3650000D01*
G75*
G02*
X-19222000Y3450000I0J-200000D01*
G01*
X-19222000Y2900000D01*
G75*
G02*
X-19422000Y2700000I-200000J0D01*
G01*
X-19822000Y2700000D01*
G75*
G02*
X-20022000Y2900000I0J200000D01*
G01*
G37*
G04 #@! TD.AperFunction*
G04 #@! TO.P,R38,1*
G04 #@! TO.N,Net-(J8-PadT)*
G04 #@! TA.AperFunction,SMDPad,CuDef*
G36*
G01*
X-21672000Y2900000D02*
X-21672000Y3450000D01*
G75*
G02*
X-21472000Y3650000I200000J0D01*
G01*
X-21072000Y3650000D01*
G75*
G02*
X-20872000Y3450000I0J-200000D01*
G01*
X-20872000Y2900000D01*
G75*
G02*
X-21072000Y2700000I-200000J0D01*
G01*
X-21472000Y2700000D01*
G75*
G02*
X-21672000Y2900000I0J200000D01*
G01*
G37*
G04 #@! TD.AperFunction*
G04 #@! TD*
G04 #@! TO.P,R16,2*
G04 #@! TO.N,OSC_A*
G04 #@! TA.AperFunction,SMDPad,CuDef*
G36*
G01*
X-21865000Y66534000D02*
X-21315000Y66534000D01*
G75*
G02*
X-21115000Y66334000I0J-200000D01*
G01*
X-21115000Y65934000D01*
G75*
G02*
X-21315000Y65734000I-200000J0D01*
G01*
X-21865000Y65734000D01*
G75*
G02*
X-22065000Y65934000I0J200000D01*
G01*
X-22065000Y66334000D01*
G75*
G02*
X-21865000Y66534000I200000J0D01*
G01*
G37*
G04 #@! TD.AperFunction*
G04 #@! TO.P,R16,1*
G04 #@! TO.N,Net-(J7-PadT)*
G04 #@! TA.AperFunction,SMDPad,CuDef*
G36*
G01*
X-21865000Y68184000D02*
X-21315000Y68184000D01*
G75*
G02*
X-21115000Y67984000I0J-200000D01*
G01*
X-21115000Y67584000D01*
G75*
G02*
X-21315000Y67384000I-200000J0D01*
G01*
X-21865000Y67384000D01*
G75*
G02*
X-22065000Y67584000I0J200000D01*
G01*
X-22065000Y67984000D01*
G75*
G02*
X-21865000Y68184000I200000J0D01*
G01*
G37*
G04 #@! TD.AperFunction*
G04 #@! TD*
G04 #@! TO.P,C20,2*
G04 #@! TO.N,-12V*
G04 #@! TA.AperFunction,SMDPad,CuDef*
G36*
G01*
X-12997000Y82733000D02*
X-12657000Y82733000D01*
G75*
G02*
X-12517000Y82593000I0J-140000D01*
G01*
X-12517000Y82313000D01*
G75*
G02*
X-12657000Y82173000I-140000J0D01*
G01*
X-12997000Y82173000D01*
G75*
G02*
X-13137000Y82313000I0J140000D01*
G01*
X-13137000Y82593000D01*
G75*
G02*
X-12997000Y82733000I140000J0D01*
G01*
G37*
G04 #@! TD.AperFunction*
G04 #@! TO.P,C20,1*
G04 #@! TO.N,GND*
G04 #@! TA.AperFunction,SMDPad,CuDef*
G36*
G01*
X-12997000Y83693000D02*
X-12657000Y83693000D01*
G75*
G02*
X-12517000Y83553000I0J-140000D01*
G01*
X-12517000Y83273000D01*
G75*
G02*
X-12657000Y83133000I-140000J0D01*
G01*
X-12997000Y83133000D01*
G75*
G02*
X-13137000Y83273000I0J140000D01*
G01*
X-13137000Y83553000D01*
G75*
G02*
X-12997000Y83693000I140000J0D01*
G01*
G37*
G04 #@! TD.AperFunction*
G04 #@! TD*
G04 #@! TO.P,C19,2*
G04 #@! TO.N,GND*
G04 #@! TA.AperFunction,SMDPad,CuDef*
G36*
G01*
X-4361000Y85583000D02*
X-4021000Y85583000D01*
G75*
G02*
X-3881000Y85443000I0J-140000D01*
G01*
X-3881000Y85163000D01*
G75*
G02*
X-4021000Y85023000I-140000J0D01*
G01*
X-4361000Y85023000D01*
G75*
G02*
X-4501000Y85163000I0J140000D01*
G01*
X-4501000Y85443000D01*
G75*
G02*
X-4361000Y85583000I140000J0D01*
G01*
G37*
G04 #@! TD.AperFunction*
G04 #@! TO.P,C19,1*
G04 #@! TO.N,+12V*
G04 #@! TA.AperFunction,SMDPad,CuDef*
G36*
G01*
X-4361000Y86543000D02*
X-4021000Y86543000D01*
G75*
G02*
X-3881000Y86403000I0J-140000D01*
G01*
X-3881000Y86123000D01*
G75*
G02*
X-4021000Y85983000I-140000J0D01*
G01*
X-4361000Y85983000D01*
G75*
G02*
X-4501000Y86123000I0J140000D01*
G01*
X-4501000Y86403000D01*
G75*
G02*
X-4361000Y86543000I140000J0D01*
G01*
G37*
G04 #@! TD.AperFunction*
G04 #@! TD*
G04 #@! TO.P,U1,8*
G04 #@! TO.N,+12V*
G04 #@! TA.AperFunction,SMDPad,CuDef*
G36*
G01*
X-7009000Y86113000D02*
X-7009000Y86413000D01*
G75*
G02*
X-6859000Y86563000I150000J0D01*
G01*
X-5209000Y86563000D01*
G75*
G02*
X-5059000Y86413000I0J-150000D01*
G01*
X-5059000Y86113000D01*
G75*
G02*
X-5209000Y85963000I-150000J0D01*
G01*
X-6859000Y85963000D01*
G75*
G02*
X-7009000Y86113000I0J150000D01*
G01*
G37*
G04 #@! TD.AperFunction*
G04 #@! TO.P,U1,7*
G04 #@! TO.N,Net-(U1-Pad6)*
G04 #@! TA.AperFunction,SMDPad,CuDef*
G36*
G01*
X-7009000Y84843000D02*
X-7009000Y85143000D01*
G75*
G02*
X-6859000Y85293000I150000J0D01*
G01*
X-5209000Y85293000D01*
G75*
G02*
X-5059000Y85143000I0J-150000D01*
G01*
X-5059000Y84843000D01*
G75*
G02*
X-5209000Y84693000I-150000J0D01*
G01*
X-6859000Y84693000D01*
G75*
G02*
X-7009000Y84843000I0J150000D01*
G01*
G37*
G04 #@! TD.AperFunction*
G04 #@! TO.P,U1,6*
G04 #@! TA.AperFunction,SMDPad,CuDef*
G36*
G01*
X-7009000Y83573000D02*
X-7009000Y83873000D01*
G75*
G02*
X-6859000Y84023000I150000J0D01*
G01*
X-5209000Y84023000D01*
G75*
G02*
X-5059000Y83873000I0J-150000D01*
G01*
X-5059000Y83573000D01*
G75*
G02*
X-5209000Y83423000I-150000J0D01*
G01*
X-6859000Y83423000D01*
G75*
G02*
X-7009000Y83573000I0J150000D01*
G01*
G37*
G04 #@! TD.AperFunction*
G04 #@! TO.P,U1,5*
G04 #@! TO.N,GND*
G04 #@! TA.AperFunction,SMDPad,CuDef*
G36*
G01*
X-7009000Y82303000D02*
X-7009000Y82603000D01*
G75*
G02*
X-6859000Y82753000I150000J0D01*
G01*
X-5209000Y82753000D01*
G75*
G02*
X-5059000Y82603000I0J-150000D01*
G01*
X-5059000Y82303000D01*
G75*
G02*
X-5209000Y82153000I-150000J0D01*
G01*
X-6859000Y82153000D01*
G75*
G02*
X-7009000Y82303000I0J150000D01*
G01*
G37*
G04 #@! TD.AperFunction*
G04 #@! TO.P,U1,4*
G04 #@! TO.N,-12V*
G04 #@! TA.AperFunction,SMDPad,CuDef*
G36*
G01*
X-11959000Y82303000D02*
X-11959000Y82603000D01*
G75*
G02*
X-11809000Y82753000I150000J0D01*
G01*
X-10159000Y82753000D01*
G75*
G02*
X-10009000Y82603000I0J-150000D01*
G01*
X-10009000Y82303000D01*
G75*
G02*
X-10159000Y82153000I-150000J0D01*
G01*
X-11809000Y82153000D01*
G75*
G02*
X-11959000Y82303000I0J150000D01*
G01*
G37*
G04 #@! TD.AperFunction*
G04 #@! TO.P,U1,3*
G04 #@! TO.N,GND*
G04 #@! TA.AperFunction,SMDPad,CuDef*
G36*
G01*
X-11959000Y83573000D02*
X-11959000Y83873000D01*
G75*
G02*
X-11809000Y84023000I150000J0D01*
G01*
X-10159000Y84023000D01*
G75*
G02*
X-10009000Y83873000I0J-150000D01*
G01*
X-10009000Y83573000D01*
G75*
G02*
X-10159000Y83423000I-150000J0D01*
G01*
X-11809000Y83423000D01*
G75*
G02*
X-11959000Y83573000I0J150000D01*
G01*
G37*
G04 #@! TD.AperFunction*
G04 #@! TO.P,U1,2*
G04 #@! TO.N,Net-(R14-Pad2)*
G04 #@! TA.AperFunction,SMDPad,CuDef*
G36*
G01*
X-11959000Y84843000D02*
X-11959000Y85143000D01*
G75*
G02*
X-11809000Y85293000I150000J0D01*
G01*
X-10159000Y85293000D01*
G75*
G02*
X-10009000Y85143000I0J-150000D01*
G01*
X-10009000Y84843000D01*
G75*
G02*
X-10159000Y84693000I-150000J0D01*
G01*
X-11809000Y84693000D01*
G75*
G02*
X-11959000Y84843000I0J150000D01*
G01*
G37*
G04 #@! TD.AperFunction*
G04 #@! TO.P,U1,1*
G04 #@! TO.N,Net-(R17-Pad2)*
G04 #@! TA.AperFunction,SMDPad,CuDef*
G36*
G01*
X-11959000Y86113000D02*
X-11959000Y86413000D01*
G75*
G02*
X-11809000Y86563000I150000J0D01*
G01*
X-10159000Y86563000D01*
G75*
G02*
X-10009000Y86413000I0J-150000D01*
G01*
X-10009000Y86113000D01*
G75*
G02*
X-10159000Y85963000I-150000J0D01*
G01*
X-11809000Y85963000D01*
G75*
G02*
X-11959000Y86113000I0J150000D01*
G01*
G37*
G04 #@! TD.AperFunction*
G04 #@! TD*
D15*
G04 #@! TO.P,J5,S*
G04 #@! TO.N,GND*
X-4000000Y879500D03*
D16*
G04 #@! TO.P,J5,TN*
X-4000000Y3120000D03*
D17*
G04 #@! TO.P,J5,T*
G04 #@! TO.N,1V_B*
X-4000000Y11420000D03*
G04 #@! TD*
D15*
G04 #@! TO.P,J4,S*
G04 #@! TO.N,GND*
X-7214000Y34443500D03*
D16*
G04 #@! TO.P,J4,TN*
X-7214000Y36684000D03*
D17*
G04 #@! TO.P,J4,T*
G04 #@! TO.N,EXT_SYNC*
X-7214000Y44984000D03*
G04 #@! TD*
D15*
G04 #@! TO.P,J3,S*
G04 #@! TO.N,GND*
X-14000000Y56798500D03*
D16*
G04 #@! TO.P,J3,TN*
X-14000000Y59039000D03*
D17*
G04 #@! TO.P,J3,T*
G04 #@! TO.N,EXT_FM*
X-14000000Y67339000D03*
G04 #@! TD*
D15*
G04 #@! TO.P,J2,S*
G04 #@! TO.N,GND*
X-4000000Y56798500D03*
D16*
G04 #@! TO.P,J2,TN*
X-4000000Y59039000D03*
D17*
G04 #@! TO.P,J2,T*
G04 #@! TO.N,1V_A*
X-4000000Y67339000D03*
G04 #@! TD*
D15*
G04 #@! TO.P,J1,S*
G04 #@! TO.N,GND*
X-7214000Y101603500D03*
D16*
G04 #@! TO.P,J1,TN*
X-7214000Y99363000D03*
D17*
G04 #@! TO.P,J1,T*
G04 #@! TO.N,LINKED*
X-7214000Y91063000D03*
G04 #@! TD*
D15*
G04 #@! TO.P,J11,S*
G04 #@! TO.N,GND*
X-34000000Y56798500D03*
D16*
G04 #@! TO.P,J11,TN*
G04 #@! TO.N,Net-(J11-PadTN)*
X-34000000Y59039000D03*
D17*
G04 #@! TO.P,J11,T*
G04 #@! TO.N,Net-(J11-PadT)*
X-34000000Y67339000D03*
G04 #@! TD*
D15*
G04 #@! TO.P,J10,S*
G04 #@! TO.N,GND*
X-14000000Y879500D03*
D16*
G04 #@! TO.P,J10,TN*
X-14000000Y3120000D03*
D17*
G04 #@! TO.P,J10,T*
G04 #@! TO.N,Net-(J10-PadT)*
X-14000000Y11420000D03*
G04 #@! TD*
D15*
G04 #@! TO.P,J9,S*
G04 #@! TO.N,GND*
X-24000000Y879500D03*
D16*
G04 #@! TO.P,J9,TN*
G04 #@! TO.N,Net-(J9-PadTN)*
X-24000000Y3120000D03*
D17*
G04 #@! TO.P,J9,T*
G04 #@! TO.N,Net-(J9-PadT)*
X-24000000Y11420000D03*
G04 #@! TD*
D15*
G04 #@! TO.P,J7,S*
G04 #@! TO.N,GND*
X-24000000Y56798500D03*
D16*
G04 #@! TO.P,J7,TN*
G04 #@! TO.N,Net-(J7-PadTN)*
X-24000000Y59039000D03*
D17*
G04 #@! TO.P,J7,T*
G04 #@! TO.N,Net-(J7-PadT)*
X-24000000Y67339000D03*
G04 #@! TD*
G04 #@! TO.P,R31,2*
G04 #@! TO.N,SYNC*
G04 #@! TA.AperFunction,SMDPad,CuDef*
G36*
G01*
X-25825000Y72441000D02*
X-25825000Y71891000D01*
G75*
G02*
X-26025000Y71691000I-200000J0D01*
G01*
X-26425000Y71691000D01*
G75*
G02*
X-26625000Y71891000I0J200000D01*
G01*
X-26625000Y72441000D01*
G75*
G02*
X-26425000Y72641000I200000J0D01*
G01*
X-26025000Y72641000D01*
G75*
G02*
X-25825000Y72441000I0J-200000D01*
G01*
G37*
G04 #@! TD.AperFunction*
G04 #@! TO.P,R31,1*
G04 #@! TO.N,Net-(R31-Pad1)*
G04 #@! TA.AperFunction,SMDPad,CuDef*
G36*
G01*
X-24175000Y72441000D02*
X-24175000Y71891000D01*
G75*
G02*
X-24375000Y71691000I-200000J0D01*
G01*
X-24775000Y71691000D01*
G75*
G02*
X-24975000Y71891000I0J200000D01*
G01*
X-24975000Y72441000D01*
G75*
G02*
X-24775000Y72641000I200000J0D01*
G01*
X-24375000Y72641000D01*
G75*
G02*
X-24175000Y72441000I0J-200000D01*
G01*
G37*
G04 #@! TD.AperFunction*
G04 #@! TD*
G04 #@! TO.P,C10,2*
G04 #@! TO.N,-12V*
G04 #@! TA.AperFunction,SMDPad,CuDef*
G36*
G01*
X-23642500Y6006500D02*
X-23982500Y6006500D01*
G75*
G02*
X-24122500Y6146500I0J140000D01*
G01*
X-24122500Y6426500D01*
G75*
G02*
X-23982500Y6566500I140000J0D01*
G01*
X-23642500Y6566500D01*
G75*
G02*
X-23502500Y6426500I0J-140000D01*
G01*
X-23502500Y6146500D01*
G75*
G02*
X-23642500Y6006500I-140000J0D01*
G01*
G37*
G04 #@! TD.AperFunction*
G04 #@! TO.P,C10,1*
G04 #@! TO.N,GND*
G04 #@! TA.AperFunction,SMDPad,CuDef*
G36*
G01*
X-23642500Y5046500D02*
X-23982500Y5046500D01*
G75*
G02*
X-24122500Y5186500I0J140000D01*
G01*
X-24122500Y5466500D01*
G75*
G02*
X-23982500Y5606500I140000J0D01*
G01*
X-23642500Y5606500D01*
G75*
G02*
X-23502500Y5466500I0J-140000D01*
G01*
X-23502500Y5186500D01*
G75*
G02*
X-23642500Y5046500I-140000J0D01*
G01*
G37*
G04 #@! TD.AperFunction*
G04 #@! TD*
G04 #@! TO.P,C9,2*
G04 #@! TO.N,GND*
G04 #@! TA.AperFunction,SMDPad,CuDef*
G36*
G01*
X-15918000Y16846000D02*
X-15578000Y16846000D01*
G75*
G02*
X-15438000Y16706000I0J-140000D01*
G01*
X-15438000Y16426000D01*
G75*
G02*
X-15578000Y16286000I-140000J0D01*
G01*
X-15918000Y16286000D01*
G75*
G02*
X-16058000Y16426000I0J140000D01*
G01*
X-16058000Y16706000D01*
G75*
G02*
X-15918000Y16846000I140000J0D01*
G01*
G37*
G04 #@! TD.AperFunction*
G04 #@! TO.P,C9,1*
G04 #@! TO.N,+12V*
G04 #@! TA.AperFunction,SMDPad,CuDef*
G36*
G01*
X-15918000Y17806000D02*
X-15578000Y17806000D01*
G75*
G02*
X-15438000Y17666000I0J-140000D01*
G01*
X-15438000Y17386000D01*
G75*
G02*
X-15578000Y17246000I-140000J0D01*
G01*
X-15918000Y17246000D01*
G75*
G02*
X-16058000Y17386000I0J140000D01*
G01*
X-16058000Y17666000D01*
G75*
G02*
X-15918000Y17806000I140000J0D01*
G01*
G37*
G04 #@! TD.AperFunction*
G04 #@! TD*
G04 #@! TO.P,C8,2*
G04 #@! TO.N,-12V*
G04 #@! TA.AperFunction,SMDPad,CuDef*
G36*
G01*
X-24554000Y17806000D02*
X-24214000Y17806000D01*
G75*
G02*
X-24074000Y17666000I0J-140000D01*
G01*
X-24074000Y17386000D01*
G75*
G02*
X-24214000Y17246000I-140000J0D01*
G01*
X-24554000Y17246000D01*
G75*
G02*
X-24694000Y17386000I0J140000D01*
G01*
X-24694000Y17666000D01*
G75*
G02*
X-24554000Y17806000I140000J0D01*
G01*
G37*
G04 #@! TD.AperFunction*
G04 #@! TO.P,C8,1*
G04 #@! TO.N,GND*
G04 #@! TA.AperFunction,SMDPad,CuDef*
G36*
G01*
X-24554000Y18766000D02*
X-24214000Y18766000D01*
G75*
G02*
X-24074000Y18626000I0J-140000D01*
G01*
X-24074000Y18346000D01*
G75*
G02*
X-24214000Y18206000I-140000J0D01*
G01*
X-24554000Y18206000D01*
G75*
G02*
X-24694000Y18346000I0J140000D01*
G01*
X-24694000Y18626000D01*
G75*
G02*
X-24554000Y18766000I140000J0D01*
G01*
G37*
G04 #@! TD.AperFunction*
G04 #@! TD*
G04 #@! TO.P,C7,2*
G04 #@! TO.N,GND*
G04 #@! TA.AperFunction,SMDPad,CuDef*
G36*
G01*
X-11473000Y6305000D02*
X-11133000Y6305000D01*
G75*
G02*
X-10993000Y6165000I0J-140000D01*
G01*
X-10993000Y5885000D01*
G75*
G02*
X-11133000Y5745000I-140000J0D01*
G01*
X-11473000Y5745000D01*
G75*
G02*
X-11613000Y5885000I0J140000D01*
G01*
X-11613000Y6165000D01*
G75*
G02*
X-11473000Y6305000I140000J0D01*
G01*
G37*
G04 #@! TD.AperFunction*
G04 #@! TO.P,C7,1*
G04 #@! TO.N,+12V*
G04 #@! TA.AperFunction,SMDPad,CuDef*
G36*
G01*
X-11473000Y7265000D02*
X-11133000Y7265000D01*
G75*
G02*
X-10993000Y7125000I0J-140000D01*
G01*
X-10993000Y6845000D01*
G75*
G02*
X-11133000Y6705000I-140000J0D01*
G01*
X-11473000Y6705000D01*
G75*
G02*
X-11613000Y6845000I0J140000D01*
G01*
X-11613000Y7125000D01*
G75*
G02*
X-11473000Y7265000I140000J0D01*
G01*
G37*
G04 #@! TD.AperFunction*
G04 #@! TD*
G04 #@! TO.P,C6,2*
G04 #@! TO.N,-12V*
G04 #@! TA.AperFunction,SMDPad,CuDef*
G36*
G01*
X-24554000Y73744000D02*
X-24214000Y73744000D01*
G75*
G02*
X-24074000Y73604000I0J-140000D01*
G01*
X-24074000Y73324000D01*
G75*
G02*
X-24214000Y73184000I-140000J0D01*
G01*
X-24554000Y73184000D01*
G75*
G02*
X-24694000Y73324000I0J140000D01*
G01*
X-24694000Y73604000D01*
G75*
G02*
X-24554000Y73744000I140000J0D01*
G01*
G37*
G04 #@! TD.AperFunction*
G04 #@! TO.P,C6,1*
G04 #@! TO.N,GND*
G04 #@! TA.AperFunction,SMDPad,CuDef*
G36*
G01*
X-24554000Y74704000D02*
X-24214000Y74704000D01*
G75*
G02*
X-24074000Y74564000I0J-140000D01*
G01*
X-24074000Y74284000D01*
G75*
G02*
X-24214000Y74144000I-140000J0D01*
G01*
X-24554000Y74144000D01*
G75*
G02*
X-24694000Y74284000I0J140000D01*
G01*
X-24694000Y74564000D01*
G75*
G02*
X-24554000Y74704000I140000J0D01*
G01*
G37*
G04 #@! TD.AperFunction*
G04 #@! TD*
G04 #@! TO.P,C5,2*
G04 #@! TO.N,GND*
G04 #@! TA.AperFunction,SMDPad,CuDef*
G36*
G01*
X-15918000Y72571000D02*
X-15578000Y72571000D01*
G75*
G02*
X-15438000Y72431000I0J-140000D01*
G01*
X-15438000Y72151000D01*
G75*
G02*
X-15578000Y72011000I-140000J0D01*
G01*
X-15918000Y72011000D01*
G75*
G02*
X-16058000Y72151000I0J140000D01*
G01*
X-16058000Y72431000D01*
G75*
G02*
X-15918000Y72571000I140000J0D01*
G01*
G37*
G04 #@! TD.AperFunction*
G04 #@! TO.P,C5,1*
G04 #@! TO.N,+12V*
G04 #@! TA.AperFunction,SMDPad,CuDef*
G36*
G01*
X-15918000Y73531000D02*
X-15578000Y73531000D01*
G75*
G02*
X-15438000Y73391000I0J-140000D01*
G01*
X-15438000Y73111000D01*
G75*
G02*
X-15578000Y72971000I-140000J0D01*
G01*
X-15918000Y72971000D01*
G75*
G02*
X-16058000Y73111000I0J140000D01*
G01*
X-16058000Y73391000D01*
G75*
G02*
X-15918000Y73531000I140000J0D01*
G01*
G37*
G04 #@! TD.AperFunction*
G04 #@! TD*
G04 #@! TO.P,C4,2*
G04 #@! TO.N,-12V*
G04 #@! TA.AperFunction,SMDPad,CuDef*
G36*
G01*
X-23325000Y61980000D02*
X-23665000Y61980000D01*
G75*
G02*
X-23805000Y62120000I0J140000D01*
G01*
X-23805000Y62400000D01*
G75*
G02*
X-23665000Y62540000I140000J0D01*
G01*
X-23325000Y62540000D01*
G75*
G02*
X-23185000Y62400000I0J-140000D01*
G01*
X-23185000Y62120000D01*
G75*
G02*
X-23325000Y61980000I-140000J0D01*
G01*
G37*
G04 #@! TD.AperFunction*
G04 #@! TO.P,C4,1*
G04 #@! TO.N,GND*
G04 #@! TA.AperFunction,SMDPad,CuDef*
G36*
G01*
X-23325000Y61020000D02*
X-23665000Y61020000D01*
G75*
G02*
X-23805000Y61160000I0J140000D01*
G01*
X-23805000Y61440000D01*
G75*
G02*
X-23665000Y61580000I140000J0D01*
G01*
X-23325000Y61580000D01*
G75*
G02*
X-23185000Y61440000I0J-140000D01*
G01*
X-23185000Y61160000D01*
G75*
G02*
X-23325000Y61020000I-140000J0D01*
G01*
G37*
G04 #@! TD.AperFunction*
G04 #@! TD*
G04 #@! TO.P,C3,2*
G04 #@! TO.N,GND*
G04 #@! TA.AperFunction,SMDPad,CuDef*
G36*
G01*
X-13886000Y61613500D02*
X-13546000Y61613500D01*
G75*
G02*
X-13406000Y61473500I0J-140000D01*
G01*
X-13406000Y61193500D01*
G75*
G02*
X-13546000Y61053500I-140000J0D01*
G01*
X-13886000Y61053500D01*
G75*
G02*
X-14026000Y61193500I0J140000D01*
G01*
X-14026000Y61473500D01*
G75*
G02*
X-13886000Y61613500I140000J0D01*
G01*
G37*
G04 #@! TD.AperFunction*
G04 #@! TO.P,C3,1*
G04 #@! TO.N,+12V*
G04 #@! TA.AperFunction,SMDPad,CuDef*
G36*
G01*
X-13886000Y62573500D02*
X-13546000Y62573500D01*
G75*
G02*
X-13406000Y62433500I0J-140000D01*
G01*
X-13406000Y62153500D01*
G75*
G02*
X-13546000Y62013500I-140000J0D01*
G01*
X-13886000Y62013500D01*
G75*
G02*
X-14026000Y62153500I0J140000D01*
G01*
X-14026000Y62433500D01*
G75*
G02*
X-13886000Y62573500I140000J0D01*
G01*
G37*
G04 #@! TD.AperFunction*
G04 #@! TD*
G04 #@! TO.P,U3,14*
G04 #@! TO.N,Net-(U3-Pad13)*
G04 #@! TA.AperFunction,SMDPad,CuDef*
G36*
G01*
X-21175000Y60664000D02*
X-21175000Y60464000D01*
G75*
G02*
X-21275000Y60364000I-100000J0D01*
G01*
X-22550000Y60364000D01*
G75*
G02*
X-22650000Y60464000I0J100000D01*
G01*
X-22650000Y60664000D01*
G75*
G02*
X-22550000Y60764000I100000J0D01*
G01*
X-21275000Y60764000D01*
G75*
G02*
X-21175000Y60664000I0J-100000D01*
G01*
G37*
G04 #@! TD.AperFunction*
G04 #@! TO.P,U3,13*
G04 #@! TA.AperFunction,SMDPad,CuDef*
G36*
G01*
X-21175000Y61314000D02*
X-21175000Y61114000D01*
G75*
G02*
X-21275000Y61014000I-100000J0D01*
G01*
X-22550000Y61014000D01*
G75*
G02*
X-22650000Y61114000I0J100000D01*
G01*
X-22650000Y61314000D01*
G75*
G02*
X-22550000Y61414000I100000J0D01*
G01*
X-21275000Y61414000D01*
G75*
G02*
X-21175000Y61314000I0J-100000D01*
G01*
G37*
G04 #@! TD.AperFunction*
G04 #@! TO.P,U3,12*
G04 #@! TO.N,GND*
G04 #@! TA.AperFunction,SMDPad,CuDef*
G36*
G01*
X-21175000Y61964000D02*
X-21175000Y61764000D01*
G75*
G02*
X-21275000Y61664000I-100000J0D01*
G01*
X-22550000Y61664000D01*
G75*
G02*
X-22650000Y61764000I0J100000D01*
G01*
X-22650000Y61964000D01*
G75*
G02*
X-22550000Y62064000I100000J0D01*
G01*
X-21275000Y62064000D01*
G75*
G02*
X-21175000Y61964000I0J-100000D01*
G01*
G37*
G04 #@! TD.AperFunction*
G04 #@! TO.P,U3,11*
G04 #@! TO.N,-12V*
G04 #@! TA.AperFunction,SMDPad,CuDef*
G36*
G01*
X-21175000Y62614000D02*
X-21175000Y62414000D01*
G75*
G02*
X-21275000Y62314000I-100000J0D01*
G01*
X-22550000Y62314000D01*
G75*
G02*
X-22650000Y62414000I0J100000D01*
G01*
X-22650000Y62614000D01*
G75*
G02*
X-22550000Y62714000I100000J0D01*
G01*
X-21275000Y62714000D01*
G75*
G02*
X-21175000Y62614000I0J-100000D01*
G01*
G37*
G04 #@! TD.AperFunction*
G04 #@! TO.P,U3,10*
G04 #@! TO.N,TRI_A*
G04 #@! TA.AperFunction,SMDPad,CuDef*
G36*
G01*
X-21175000Y63264000D02*
X-21175000Y63064000D01*
G75*
G02*
X-21275000Y62964000I-100000J0D01*
G01*
X-22550000Y62964000D01*
G75*
G02*
X-22650000Y63064000I0J100000D01*
G01*
X-22650000Y63264000D01*
G75*
G02*
X-22550000Y63364000I100000J0D01*
G01*
X-21275000Y63364000D01*
G75*
G02*
X-21175000Y63264000I0J-100000D01*
G01*
G37*
G04 #@! TD.AperFunction*
G04 #@! TO.P,U3,9*
G04 #@! TO.N,Net-(C24-Pad2)*
G04 #@! TA.AperFunction,SMDPad,CuDef*
G36*
G01*
X-21175000Y63914000D02*
X-21175000Y63714000D01*
G75*
G02*
X-21275000Y63614000I-100000J0D01*
G01*
X-22550000Y63614000D01*
G75*
G02*
X-22650000Y63714000I0J100000D01*
G01*
X-22650000Y63914000D01*
G75*
G02*
X-22550000Y64014000I100000J0D01*
G01*
X-21275000Y64014000D01*
G75*
G02*
X-21175000Y63914000I0J-100000D01*
G01*
G37*
G04 #@! TD.AperFunction*
G04 #@! TO.P,U3,8*
G04 #@! TO.N,OSC_A*
G04 #@! TA.AperFunction,SMDPad,CuDef*
G36*
G01*
X-21175000Y64564000D02*
X-21175000Y64364000D01*
G75*
G02*
X-21275000Y64264000I-100000J0D01*
G01*
X-22550000Y64264000D01*
G75*
G02*
X-22650000Y64364000I0J100000D01*
G01*
X-22650000Y64564000D01*
G75*
G02*
X-22550000Y64664000I100000J0D01*
G01*
X-21275000Y64664000D01*
G75*
G02*
X-21175000Y64564000I0J-100000D01*
G01*
G37*
G04 #@! TD.AperFunction*
G04 #@! TO.P,U3,7*
G04 #@! TO.N,Net-(C16-Pad1)*
G04 #@! TA.AperFunction,SMDPad,CuDef*
G36*
G01*
X-15450000Y64564000D02*
X-15450000Y64364000D01*
G75*
G02*
X-15550000Y64264000I-100000J0D01*
G01*
X-16825000Y64264000D01*
G75*
G02*
X-16925000Y64364000I0J100000D01*
G01*
X-16925000Y64564000D01*
G75*
G02*
X-16825000Y64664000I100000J0D01*
G01*
X-15550000Y64664000D01*
G75*
G02*
X-15450000Y64564000I0J-100000D01*
G01*
G37*
G04 #@! TD.AperFunction*
G04 #@! TO.P,U3,6*
G04 #@! TO.N,GND*
G04 #@! TA.AperFunction,SMDPad,CuDef*
G36*
G01*
X-15450000Y63914000D02*
X-15450000Y63714000D01*
G75*
G02*
X-15550000Y63614000I-100000J0D01*
G01*
X-16825000Y63614000D01*
G75*
G02*
X-16925000Y63714000I0J100000D01*
G01*
X-16925000Y63914000D01*
G75*
G02*
X-16825000Y64014000I100000J0D01*
G01*
X-15550000Y64014000D01*
G75*
G02*
X-15450000Y63914000I0J-100000D01*
G01*
G37*
G04 #@! TD.AperFunction*
G04 #@! TO.P,U3,5*
G04 #@! TO.N,Net-(C16-Pad2)*
G04 #@! TA.AperFunction,SMDPad,CuDef*
G36*
G01*
X-15450000Y63264000D02*
X-15450000Y63064000D01*
G75*
G02*
X-15550000Y62964000I-100000J0D01*
G01*
X-16825000Y62964000D01*
G75*
G02*
X-16925000Y63064000I0J100000D01*
G01*
X-16925000Y63264000D01*
G75*
G02*
X-16825000Y63364000I100000J0D01*
G01*
X-15550000Y63364000D01*
G75*
G02*
X-15450000Y63264000I0J-100000D01*
G01*
G37*
G04 #@! TD.AperFunction*
G04 #@! TO.P,U3,4*
G04 #@! TO.N,+12V*
G04 #@! TA.AperFunction,SMDPad,CuDef*
G36*
G01*
X-15450000Y62614000D02*
X-15450000Y62414000D01*
G75*
G02*
X-15550000Y62314000I-100000J0D01*
G01*
X-16825000Y62314000D01*
G75*
G02*
X-16925000Y62414000I0J100000D01*
G01*
X-16925000Y62614000D01*
G75*
G02*
X-16825000Y62714000I100000J0D01*
G01*
X-15550000Y62714000D01*
G75*
G02*
X-15450000Y62614000I0J-100000D01*
G01*
G37*
G04 #@! TD.AperFunction*
G04 #@! TO.P,U3,3*
G04 #@! TO.N,Net-(Q4-Pad1)*
G04 #@! TA.AperFunction,SMDPad,CuDef*
G36*
G01*
X-15450000Y61964000D02*
X-15450000Y61764000D01*
G75*
G02*
X-15550000Y61664000I-100000J0D01*
G01*
X-16825000Y61664000D01*
G75*
G02*
X-16925000Y61764000I0J100000D01*
G01*
X-16925000Y61964000D01*
G75*
G02*
X-16825000Y62064000I100000J0D01*
G01*
X-15550000Y62064000D01*
G75*
G02*
X-15450000Y61964000I0J-100000D01*
G01*
G37*
G04 #@! TD.AperFunction*
G04 #@! TO.P,U3,2*
G04 #@! TO.N,Net-(C18-Pad2)*
G04 #@! TA.AperFunction,SMDPad,CuDef*
G36*
G01*
X-15450000Y61314000D02*
X-15450000Y61114000D01*
G75*
G02*
X-15550000Y61014000I-100000J0D01*
G01*
X-16825000Y61014000D01*
G75*
G02*
X-16925000Y61114000I0J100000D01*
G01*
X-16925000Y61314000D01*
G75*
G02*
X-16825000Y61414000I100000J0D01*
G01*
X-15550000Y61414000D01*
G75*
G02*
X-15450000Y61314000I0J-100000D01*
G01*
G37*
G04 #@! TD.AperFunction*
G04 #@! TO.P,U3,1*
G04 #@! TO.N,SAW_MIX*
G04 #@! TA.AperFunction,SMDPad,CuDef*
G36*
G01*
X-15450000Y60664000D02*
X-15450000Y60464000D01*
G75*
G02*
X-15550000Y60364000I-100000J0D01*
G01*
X-16825000Y60364000D01*
G75*
G02*
X-16925000Y60464000I0J100000D01*
G01*
X-16925000Y60664000D01*
G75*
G02*
X-16825000Y60764000I100000J0D01*
G01*
X-15550000Y60764000D01*
G75*
G02*
X-15450000Y60664000I0J-100000D01*
G01*
G37*
G04 #@! TD.AperFunction*
G04 #@! TD*
G04 #@! TO.P,C2,2*
G04 #@! TO.N,-12V*
G04 #@! TA.AperFunction,SMDPad,CuDef*
G36*
G01*
X-27066001Y104207000D02*
X-25765999Y104207000D01*
G75*
G02*
X-25516000Y103957001I0J-249999D01*
G01*
X-25516000Y103306999D01*
G75*
G02*
X-25765999Y103057000I-249999J0D01*
G01*
X-27066001Y103057000D01*
G75*
G02*
X-27316000Y103306999I0J249999D01*
G01*
X-27316000Y103957001D01*
G75*
G02*
X-27066001Y104207000I249999J0D01*
G01*
G37*
G04 #@! TD.AperFunction*
G04 #@! TO.P,C2,1*
G04 #@! TO.N,GND*
G04 #@! TA.AperFunction,SMDPad,CuDef*
G36*
G01*
X-27066001Y107157000D02*
X-25765999Y107157000D01*
G75*
G02*
X-25516000Y106907001I0J-249999D01*
G01*
X-25516000Y106256999D01*
G75*
G02*
X-25765999Y106007000I-249999J0D01*
G01*
X-27066001Y106007000D01*
G75*
G02*
X-27316000Y106256999I0J249999D01*
G01*
X-27316000Y106907001D01*
G75*
G02*
X-27066001Y107157000I249999J0D01*
G01*
G37*
G04 #@! TD.AperFunction*
G04 #@! TD*
G04 #@! TO.P,C1,2*
G04 #@! TO.N,GND*
G04 #@! TA.AperFunction,SMDPad,CuDef*
G36*
G01*
X-3698001Y104305000D02*
X-2397999Y104305000D01*
G75*
G02*
X-2148000Y104055001I0J-249999D01*
G01*
X-2148000Y103404999D01*
G75*
G02*
X-2397999Y103155000I-249999J0D01*
G01*
X-3698001Y103155000D01*
G75*
G02*
X-3948000Y103404999I0J249999D01*
G01*
X-3948000Y104055001D01*
G75*
G02*
X-3698001Y104305000I249999J0D01*
G01*
G37*
G04 #@! TD.AperFunction*
G04 #@! TO.P,C1,1*
G04 #@! TO.N,+12V*
G04 #@! TA.AperFunction,SMDPad,CuDef*
G36*
G01*
X-3698001Y107255000D02*
X-2397999Y107255000D01*
G75*
G02*
X-2148000Y107005001I0J-249999D01*
G01*
X-2148000Y106354999D01*
G75*
G02*
X-2397999Y106105000I-249999J0D01*
G01*
X-3698001Y106105000D01*
G75*
G02*
X-3948000Y106354999I0J249999D01*
G01*
X-3948000Y107005001D01*
G75*
G02*
X-3698001Y107255000I249999J0D01*
G01*
G37*
G04 #@! TD.AperFunction*
G04 #@! TD*
G04 #@! TO.P,U4,16*
G04 #@! TO.N,Net-(R40-Pad2)*
G04 #@! TA.AperFunction,SMDPad,CuDef*
G36*
G01*
X-18566000Y23717000D02*
X-18566000Y24017000D01*
G75*
G02*
X-18416000Y24167000I150000J0D01*
G01*
X-16766000Y24167000D01*
G75*
G02*
X-16616000Y24017000I0J-150000D01*
G01*
X-16616000Y23717000D01*
G75*
G02*
X-16766000Y23567000I-150000J0D01*
G01*
X-18416000Y23567000D01*
G75*
G02*
X-18566000Y23717000I0J150000D01*
G01*
G37*
G04 #@! TD.AperFunction*
G04 #@! TO.P,U4,15*
G04 #@! TO.N,Net-(U4-Pad15)*
G04 #@! TA.AperFunction,SMDPad,CuDef*
G36*
G01*
X-18566000Y22447000D02*
X-18566000Y22747000D01*
G75*
G02*
X-18416000Y22897000I150000J0D01*
G01*
X-16766000Y22897000D01*
G75*
G02*
X-16616000Y22747000I0J-150000D01*
G01*
X-16616000Y22447000D01*
G75*
G02*
X-16766000Y22297000I-150000J0D01*
G01*
X-18416000Y22297000D01*
G75*
G02*
X-18566000Y22447000I0J150000D01*
G01*
G37*
G04 #@! TD.AperFunction*
G04 #@! TO.P,U4,14*
G04 #@! TO.N,Net-(R28-Pad2)*
G04 #@! TA.AperFunction,SMDPad,CuDef*
G36*
G01*
X-18566000Y21177000D02*
X-18566000Y21477000D01*
G75*
G02*
X-18416000Y21627000I150000J0D01*
G01*
X-16766000Y21627000D01*
G75*
G02*
X-16616000Y21477000I0J-150000D01*
G01*
X-16616000Y21177000D01*
G75*
G02*
X-16766000Y21027000I-150000J0D01*
G01*
X-18416000Y21027000D01*
G75*
G02*
X-18566000Y21177000I0J150000D01*
G01*
G37*
G04 #@! TD.AperFunction*
G04 #@! TO.P,U4,13*
G04 #@! TO.N,TRI_B*
G04 #@! TA.AperFunction,SMDPad,CuDef*
G36*
G01*
X-18566000Y19907000D02*
X-18566000Y20207000D01*
G75*
G02*
X-18416000Y20357000I150000J0D01*
G01*
X-16766000Y20357000D01*
G75*
G02*
X-16616000Y20207000I0J-150000D01*
G01*
X-16616000Y19907000D01*
G75*
G02*
X-16766000Y19757000I-150000J0D01*
G01*
X-18416000Y19757000D01*
G75*
G02*
X-18566000Y19907000I0J150000D01*
G01*
G37*
G04 #@! TD.AperFunction*
G04 #@! TO.P,U4,12*
G04 #@! TO.N,Net-(R28-Pad2)*
G04 #@! TA.AperFunction,SMDPad,CuDef*
G36*
G01*
X-18566000Y18637000D02*
X-18566000Y18937000D01*
G75*
G02*
X-18416000Y19087000I150000J0D01*
G01*
X-16766000Y19087000D01*
G75*
G02*
X-16616000Y18937000I0J-150000D01*
G01*
X-16616000Y18637000D01*
G75*
G02*
X-16766000Y18487000I-150000J0D01*
G01*
X-18416000Y18487000D01*
G75*
G02*
X-18566000Y18637000I0J150000D01*
G01*
G37*
G04 #@! TD.AperFunction*
G04 #@! TO.P,U4,11*
G04 #@! TO.N,+12V*
G04 #@! TA.AperFunction,SMDPad,CuDef*
G36*
G01*
X-18566000Y17367000D02*
X-18566000Y17667000D01*
G75*
G02*
X-18416000Y17817000I150000J0D01*
G01*
X-16766000Y17817000D01*
G75*
G02*
X-16616000Y17667000I0J-150000D01*
G01*
X-16616000Y17367000D01*
G75*
G02*
X-16766000Y17217000I-150000J0D01*
G01*
X-18416000Y17217000D01*
G75*
G02*
X-18566000Y17367000I0J150000D01*
G01*
G37*
G04 #@! TD.AperFunction*
G04 #@! TO.P,U4,10*
G04 #@! TO.N,GND*
G04 #@! TA.AperFunction,SMDPad,CuDef*
G36*
G01*
X-18566000Y16097000D02*
X-18566000Y16397000D01*
G75*
G02*
X-18416000Y16547000I150000J0D01*
G01*
X-16766000Y16547000D01*
G75*
G02*
X-16616000Y16397000I0J-150000D01*
G01*
X-16616000Y16097000D01*
G75*
G02*
X-16766000Y15947000I-150000J0D01*
G01*
X-18416000Y15947000D01*
G75*
G02*
X-18566000Y16097000I0J150000D01*
G01*
G37*
G04 #@! TD.AperFunction*
G04 #@! TO.P,U4,9*
G04 #@! TO.N,Net-(U4-Pad9)*
G04 #@! TA.AperFunction,SMDPad,CuDef*
G36*
G01*
X-18566000Y14827000D02*
X-18566000Y15127000D01*
G75*
G02*
X-18416000Y15277000I150000J0D01*
G01*
X-16766000Y15277000D01*
G75*
G02*
X-16616000Y15127000I0J-150000D01*
G01*
X-16616000Y14827000D01*
G75*
G02*
X-16766000Y14677000I-150000J0D01*
G01*
X-18416000Y14677000D01*
G75*
G02*
X-18566000Y14827000I0J150000D01*
G01*
G37*
G04 #@! TD.AperFunction*
G04 #@! TO.P,U4,8*
G04 #@! TO.N,TRI_B*
G04 #@! TA.AperFunction,SMDPad,CuDef*
G36*
G01*
X-23516000Y14827000D02*
X-23516000Y15127000D01*
G75*
G02*
X-23366000Y15277000I150000J0D01*
G01*
X-21716000Y15277000D01*
G75*
G02*
X-21566000Y15127000I0J-150000D01*
G01*
X-21566000Y14827000D01*
G75*
G02*
X-21716000Y14677000I-150000J0D01*
G01*
X-23366000Y14677000D01*
G75*
G02*
X-23516000Y14827000I0J150000D01*
G01*
G37*
G04 #@! TD.AperFunction*
G04 #@! TO.P,U4,7*
G04 #@! TO.N,Net-(R32-Pad1)*
G04 #@! TA.AperFunction,SMDPad,CuDef*
G36*
G01*
X-23516000Y16097000D02*
X-23516000Y16397000D01*
G75*
G02*
X-23366000Y16547000I150000J0D01*
G01*
X-21716000Y16547000D01*
G75*
G02*
X-21566000Y16397000I0J-150000D01*
G01*
X-21566000Y16097000D01*
G75*
G02*
X-21716000Y15947000I-150000J0D01*
G01*
X-23366000Y15947000D01*
G75*
G02*
X-23516000Y16097000I0J150000D01*
G01*
G37*
G04 #@! TD.AperFunction*
G04 #@! TO.P,U4,6*
G04 #@! TO.N,-12V*
G04 #@! TA.AperFunction,SMDPad,CuDef*
G36*
G01*
X-23516000Y17367000D02*
X-23516000Y17667000D01*
G75*
G02*
X-23366000Y17817000I150000J0D01*
G01*
X-21716000Y17817000D01*
G75*
G02*
X-21566000Y17667000I0J-150000D01*
G01*
X-21566000Y17367000D01*
G75*
G02*
X-21716000Y17217000I-150000J0D01*
G01*
X-23366000Y17217000D01*
G75*
G02*
X-23516000Y17367000I0J150000D01*
G01*
G37*
G04 #@! TD.AperFunction*
G04 #@! TO.P,U4,5*
G04 #@! TO.N,Net-(R32-Pad1)*
G04 #@! TA.AperFunction,SMDPad,CuDef*
G36*
G01*
X-23516000Y18637000D02*
X-23516000Y18937000D01*
G75*
G02*
X-23366000Y19087000I150000J0D01*
G01*
X-21716000Y19087000D01*
G75*
G02*
X-21566000Y18937000I0J-150000D01*
G01*
X-21566000Y18637000D01*
G75*
G02*
X-21716000Y18487000I-150000J0D01*
G01*
X-23366000Y18487000D01*
G75*
G02*
X-23516000Y18637000I0J150000D01*
G01*
G37*
G04 #@! TD.AperFunction*
G04 #@! TO.P,U4,4*
G04 #@! TO.N,GND*
G04 #@! TA.AperFunction,SMDPad,CuDef*
G36*
G01*
X-23516000Y19907000D02*
X-23516000Y20207000D01*
G75*
G02*
X-23366000Y20357000I150000J0D01*
G01*
X-21716000Y20357000D01*
G75*
G02*
X-21566000Y20207000I0J-150000D01*
G01*
X-21566000Y19907000D01*
G75*
G02*
X-21716000Y19757000I-150000J0D01*
G01*
X-23366000Y19757000D01*
G75*
G02*
X-23516000Y19907000I0J150000D01*
G01*
G37*
G04 #@! TD.AperFunction*
G04 #@! TO.P,U4,3*
G04 #@! TO.N,Net-(R28-Pad2)*
G04 #@! TA.AperFunction,SMDPad,CuDef*
G36*
G01*
X-23516000Y21177000D02*
X-23516000Y21477000D01*
G75*
G02*
X-23366000Y21627000I150000J0D01*
G01*
X-21716000Y21627000D01*
G75*
G02*
X-21566000Y21477000I0J-150000D01*
G01*
X-21566000Y21177000D01*
G75*
G02*
X-21716000Y21027000I-150000J0D01*
G01*
X-23366000Y21027000D01*
G75*
G02*
X-23516000Y21177000I0J150000D01*
G01*
G37*
G04 #@! TD.AperFunction*
G04 #@! TO.P,U4,2*
G04 #@! TO.N,Net-(U4-Pad2)*
G04 #@! TA.AperFunction,SMDPad,CuDef*
G36*
G01*
X-23516000Y22447000D02*
X-23516000Y22747000D01*
G75*
G02*
X-23366000Y22897000I150000J0D01*
G01*
X-21716000Y22897000D01*
G75*
G02*
X-21566000Y22747000I0J-150000D01*
G01*
X-21566000Y22447000D01*
G75*
G02*
X-21716000Y22297000I-150000J0D01*
G01*
X-23366000Y22297000D01*
G75*
G02*
X-23516000Y22447000I0J150000D01*
G01*
G37*
G04 #@! TD.AperFunction*
G04 #@! TO.P,U4,1*
G04 #@! TO.N,Net-(R30-Pad1)*
G04 #@! TA.AperFunction,SMDPad,CuDef*
G36*
G01*
X-23516000Y23717000D02*
X-23516000Y24017000D01*
G75*
G02*
X-23366000Y24167000I150000J0D01*
G01*
X-21716000Y24167000D01*
G75*
G02*
X-21566000Y24017000I0J-150000D01*
G01*
X-21566000Y23717000D01*
G75*
G02*
X-21716000Y23567000I-150000J0D01*
G01*
X-23366000Y23567000D01*
G75*
G02*
X-23516000Y23717000I0J150000D01*
G01*
G37*
G04 #@! TD.AperFunction*
G04 #@! TD*
G04 #@! TO.P,U2,16*
G04 #@! TO.N,Net-(R39-Pad2)*
G04 #@! TA.AperFunction,SMDPad,CuDef*
G36*
G01*
X-18566000Y79636000D02*
X-18566000Y79936000D01*
G75*
G02*
X-18416000Y80086000I150000J0D01*
G01*
X-16766000Y80086000D01*
G75*
G02*
X-16616000Y79936000I0J-150000D01*
G01*
X-16616000Y79636000D01*
G75*
G02*
X-16766000Y79486000I-150000J0D01*
G01*
X-18416000Y79486000D01*
G75*
G02*
X-18566000Y79636000I0J150000D01*
G01*
G37*
G04 #@! TD.AperFunction*
G04 #@! TO.P,U2,15*
G04 #@! TO.N,Net-(U2-Pad15)*
G04 #@! TA.AperFunction,SMDPad,CuDef*
G36*
G01*
X-18566000Y78366000D02*
X-18566000Y78666000D01*
G75*
G02*
X-18416000Y78816000I150000J0D01*
G01*
X-16766000Y78816000D01*
G75*
G02*
X-16616000Y78666000I0J-150000D01*
G01*
X-16616000Y78366000D01*
G75*
G02*
X-16766000Y78216000I-150000J0D01*
G01*
X-18416000Y78216000D01*
G75*
G02*
X-18566000Y78366000I0J150000D01*
G01*
G37*
G04 #@! TD.AperFunction*
G04 #@! TO.P,U2,14*
G04 #@! TO.N,SQR_A*
G04 #@! TA.AperFunction,SMDPad,CuDef*
G36*
G01*
X-18566000Y77096000D02*
X-18566000Y77396000D01*
G75*
G02*
X-18416000Y77546000I150000J0D01*
G01*
X-16766000Y77546000D01*
G75*
G02*
X-16616000Y77396000I0J-150000D01*
G01*
X-16616000Y77096000D01*
G75*
G02*
X-16766000Y76946000I-150000J0D01*
G01*
X-18416000Y76946000D01*
G75*
G02*
X-18566000Y77096000I0J150000D01*
G01*
G37*
G04 #@! TD.AperFunction*
G04 #@! TO.P,U2,13*
G04 #@! TO.N,TRI_A*
G04 #@! TA.AperFunction,SMDPad,CuDef*
G36*
G01*
X-18566000Y75826000D02*
X-18566000Y76126000D01*
G75*
G02*
X-18416000Y76276000I150000J0D01*
G01*
X-16766000Y76276000D01*
G75*
G02*
X-16616000Y76126000I0J-150000D01*
G01*
X-16616000Y75826000D01*
G75*
G02*
X-16766000Y75676000I-150000J0D01*
G01*
X-18416000Y75676000D01*
G75*
G02*
X-18566000Y75826000I0J150000D01*
G01*
G37*
G04 #@! TD.AperFunction*
G04 #@! TO.P,U2,12*
G04 #@! TO.N,SQR_A*
G04 #@! TA.AperFunction,SMDPad,CuDef*
G36*
G01*
X-18566000Y74556000D02*
X-18566000Y74856000D01*
G75*
G02*
X-18416000Y75006000I150000J0D01*
G01*
X-16766000Y75006000D01*
G75*
G02*
X-16616000Y74856000I0J-150000D01*
G01*
X-16616000Y74556000D01*
G75*
G02*
X-16766000Y74406000I-150000J0D01*
G01*
X-18416000Y74406000D01*
G75*
G02*
X-18566000Y74556000I0J150000D01*
G01*
G37*
G04 #@! TD.AperFunction*
G04 #@! TO.P,U2,11*
G04 #@! TO.N,+12V*
G04 #@! TA.AperFunction,SMDPad,CuDef*
G36*
G01*
X-18566000Y73286000D02*
X-18566000Y73586000D01*
G75*
G02*
X-18416000Y73736000I150000J0D01*
G01*
X-16766000Y73736000D01*
G75*
G02*
X-16616000Y73586000I0J-150000D01*
G01*
X-16616000Y73286000D01*
G75*
G02*
X-16766000Y73136000I-150000J0D01*
G01*
X-18416000Y73136000D01*
G75*
G02*
X-18566000Y73286000I0J150000D01*
G01*
G37*
G04 #@! TD.AperFunction*
G04 #@! TO.P,U2,10*
G04 #@! TO.N,GND*
G04 #@! TA.AperFunction,SMDPad,CuDef*
G36*
G01*
X-18566000Y72016000D02*
X-18566000Y72316000D01*
G75*
G02*
X-18416000Y72466000I150000J0D01*
G01*
X-16766000Y72466000D01*
G75*
G02*
X-16616000Y72316000I0J-150000D01*
G01*
X-16616000Y72016000D01*
G75*
G02*
X-16766000Y71866000I-150000J0D01*
G01*
X-18416000Y71866000D01*
G75*
G02*
X-18566000Y72016000I0J150000D01*
G01*
G37*
G04 #@! TD.AperFunction*
G04 #@! TO.P,U2,9*
G04 #@! TO.N,Net-(U2-Pad9)*
G04 #@! TA.AperFunction,SMDPad,CuDef*
G36*
G01*
X-18566000Y70746000D02*
X-18566000Y71046000D01*
G75*
G02*
X-18416000Y71196000I150000J0D01*
G01*
X-16766000Y71196000D01*
G75*
G02*
X-16616000Y71046000I0J-150000D01*
G01*
X-16616000Y70746000D01*
G75*
G02*
X-16766000Y70596000I-150000J0D01*
G01*
X-18416000Y70596000D01*
G75*
G02*
X-18566000Y70746000I0J150000D01*
G01*
G37*
G04 #@! TD.AperFunction*
G04 #@! TO.P,U2,8*
G04 #@! TO.N,TRI_A*
G04 #@! TA.AperFunction,SMDPad,CuDef*
G36*
G01*
X-23516000Y70746000D02*
X-23516000Y71046000D01*
G75*
G02*
X-23366000Y71196000I150000J0D01*
G01*
X-21716000Y71196000D01*
G75*
G02*
X-21566000Y71046000I0J-150000D01*
G01*
X-21566000Y70746000D01*
G75*
G02*
X-21716000Y70596000I-150000J0D01*
G01*
X-23366000Y70596000D01*
G75*
G02*
X-23516000Y70746000I0J150000D01*
G01*
G37*
G04 #@! TD.AperFunction*
G04 #@! TO.P,U2,7*
G04 #@! TO.N,Net-(R31-Pad1)*
G04 #@! TA.AperFunction,SMDPad,CuDef*
G36*
G01*
X-23516000Y72016000D02*
X-23516000Y72316000D01*
G75*
G02*
X-23366000Y72466000I150000J0D01*
G01*
X-21716000Y72466000D01*
G75*
G02*
X-21566000Y72316000I0J-150000D01*
G01*
X-21566000Y72016000D01*
G75*
G02*
X-21716000Y71866000I-150000J0D01*
G01*
X-23366000Y71866000D01*
G75*
G02*
X-23516000Y72016000I0J150000D01*
G01*
G37*
G04 #@! TD.AperFunction*
G04 #@! TO.P,U2,6*
G04 #@! TO.N,-12V*
G04 #@! TA.AperFunction,SMDPad,CuDef*
G36*
G01*
X-23516000Y73286000D02*
X-23516000Y73586000D01*
G75*
G02*
X-23366000Y73736000I150000J0D01*
G01*
X-21716000Y73736000D01*
G75*
G02*
X-21566000Y73586000I0J-150000D01*
G01*
X-21566000Y73286000D01*
G75*
G02*
X-21716000Y73136000I-150000J0D01*
G01*
X-23366000Y73136000D01*
G75*
G02*
X-23516000Y73286000I0J150000D01*
G01*
G37*
G04 #@! TD.AperFunction*
G04 #@! TO.P,U2,5*
G04 #@! TO.N,Net-(R31-Pad1)*
G04 #@! TA.AperFunction,SMDPad,CuDef*
G36*
G01*
X-23516000Y74556000D02*
X-23516000Y74856000D01*
G75*
G02*
X-23366000Y75006000I150000J0D01*
G01*
X-21716000Y75006000D01*
G75*
G02*
X-21566000Y74856000I0J-150000D01*
G01*
X-21566000Y74556000D01*
G75*
G02*
X-21716000Y74406000I-150000J0D01*
G01*
X-23366000Y74406000D01*
G75*
G02*
X-23516000Y74556000I0J150000D01*
G01*
G37*
G04 #@! TD.AperFunction*
G04 #@! TO.P,U2,4*
G04 #@! TO.N,GND*
G04 #@! TA.AperFunction,SMDPad,CuDef*
G36*
G01*
X-23516000Y75826000D02*
X-23516000Y76126000D01*
G75*
G02*
X-23366000Y76276000I150000J0D01*
G01*
X-21716000Y76276000D01*
G75*
G02*
X-21566000Y76126000I0J-150000D01*
G01*
X-21566000Y75826000D01*
G75*
G02*
X-21716000Y75676000I-150000J0D01*
G01*
X-23366000Y75676000D01*
G75*
G02*
X-23516000Y75826000I0J150000D01*
G01*
G37*
G04 #@! TD.AperFunction*
G04 #@! TO.P,U2,3*
G04 #@! TO.N,SQR_A*
G04 #@! TA.AperFunction,SMDPad,CuDef*
G36*
G01*
X-23516000Y77096000D02*
X-23516000Y77396000D01*
G75*
G02*
X-23366000Y77546000I150000J0D01*
G01*
X-21716000Y77546000D01*
G75*
G02*
X-21566000Y77396000I0J-150000D01*
G01*
X-21566000Y77096000D01*
G75*
G02*
X-21716000Y76946000I-150000J0D01*
G01*
X-23366000Y76946000D01*
G75*
G02*
X-23516000Y77096000I0J150000D01*
G01*
G37*
G04 #@! TD.AperFunction*
G04 #@! TO.P,U2,2*
G04 #@! TO.N,Net-(U2-Pad2)*
G04 #@! TA.AperFunction,SMDPad,CuDef*
G36*
G01*
X-23516000Y78366000D02*
X-23516000Y78666000D01*
G75*
G02*
X-23366000Y78816000I150000J0D01*
G01*
X-21716000Y78816000D01*
G75*
G02*
X-21566000Y78666000I0J-150000D01*
G01*
X-21566000Y78366000D01*
G75*
G02*
X-21716000Y78216000I-150000J0D01*
G01*
X-23366000Y78216000D01*
G75*
G02*
X-23516000Y78366000I0J150000D01*
G01*
G37*
G04 #@! TD.AperFunction*
G04 #@! TO.P,U2,1*
G04 #@! TO.N,Net-(R29-Pad1)*
G04 #@! TA.AperFunction,SMDPad,CuDef*
G36*
G01*
X-23516000Y79636000D02*
X-23516000Y79936000D01*
G75*
G02*
X-23366000Y80086000I150000J0D01*
G01*
X-21716000Y80086000D01*
G75*
G02*
X-21566000Y79936000I0J-150000D01*
G01*
X-21566000Y79636000D01*
G75*
G02*
X-21716000Y79486000I-150000J0D01*
G01*
X-23366000Y79486000D01*
G75*
G02*
X-23516000Y79636000I0J150000D01*
G01*
G37*
G04 #@! TD.AperFunction*
G04 #@! TD*
G04 #@! TO.P,R54,2*
G04 #@! TO.N,Net-(C18-Pad2)*
G04 #@! TA.AperFunction,SMDPad,CuDef*
G36*
G01*
X-17443000Y59106000D02*
X-17443000Y58556000D01*
G75*
G02*
X-17643000Y58356000I-200000J0D01*
G01*
X-18043000Y58356000D01*
G75*
G02*
X-18243000Y58556000I0J200000D01*
G01*
X-18243000Y59106000D01*
G75*
G02*
X-18043000Y59306000I200000J0D01*
G01*
X-17643000Y59306000D01*
G75*
G02*
X-17443000Y59106000I0J-200000D01*
G01*
G37*
G04 #@! TD.AperFunction*
G04 #@! TO.P,R54,1*
G04 #@! TO.N,SAW_MIX*
G04 #@! TA.AperFunction,SMDPad,CuDef*
G36*
G01*
X-15793000Y59106000D02*
X-15793000Y58556000D01*
G75*
G02*
X-15993000Y58356000I-200000J0D01*
G01*
X-16393000Y58356000D01*
G75*
G02*
X-16593000Y58556000I0J200000D01*
G01*
X-16593000Y59106000D01*
G75*
G02*
X-16393000Y59306000I200000J0D01*
G01*
X-15993000Y59306000D01*
G75*
G02*
X-15793000Y59106000I0J-200000D01*
G01*
G37*
G04 #@! TD.AperFunction*
G04 #@! TD*
G04 #@! TO.P,R53,2*
G04 #@! TO.N,+12V*
G04 #@! TA.AperFunction,SMDPad,CuDef*
G36*
G01*
X-10243000Y58175000D02*
X-10243000Y58725000D01*
G75*
G02*
X-10043000Y58925000I200000J0D01*
G01*
X-9643000Y58925000D01*
G75*
G02*
X-9443000Y58725000I0J-200000D01*
G01*
X-9443000Y58175000D01*
G75*
G02*
X-9643000Y57975000I-200000J0D01*
G01*
X-10043000Y57975000D01*
G75*
G02*
X-10243000Y58175000I0J200000D01*
G01*
G37*
G04 #@! TD.AperFunction*
G04 #@! TO.P,R53,1*
G04 #@! TO.N,Net-(C18-Pad2)*
G04 #@! TA.AperFunction,SMDPad,CuDef*
G36*
G01*
X-11893000Y58175000D02*
X-11893000Y58725000D01*
G75*
G02*
X-11693000Y58925000I200000J0D01*
G01*
X-11293000Y58925000D01*
G75*
G02*
X-11093000Y58725000I0J-200000D01*
G01*
X-11093000Y58175000D01*
G75*
G02*
X-11293000Y57975000I-200000J0D01*
G01*
X-11693000Y57975000D01*
G75*
G02*
X-11893000Y58175000I0J200000D01*
G01*
G37*
G04 #@! TD.AperFunction*
G04 #@! TD*
G04 #@! TO.P,R52,2*
G04 #@! TO.N,TRI_A*
G04 #@! TA.AperFunction,SMDPad,CuDef*
G36*
G01*
X-17632000Y67638000D02*
X-18182000Y67638000D01*
G75*
G02*
X-18382000Y67838000I0J200000D01*
G01*
X-18382000Y68238000D01*
G75*
G02*
X-18182000Y68438000I200000J0D01*
G01*
X-17632000Y68438000D01*
G75*
G02*
X-17432000Y68238000I0J-200000D01*
G01*
X-17432000Y67838000D01*
G75*
G02*
X-17632000Y67638000I-200000J0D01*
G01*
G37*
G04 #@! TD.AperFunction*
G04 #@! TO.P,R52,1*
G04 #@! TO.N,Net-(Q4-Pad1)*
G04 #@! TA.AperFunction,SMDPad,CuDef*
G36*
G01*
X-17632000Y65988000D02*
X-18182000Y65988000D01*
G75*
G02*
X-18382000Y66188000I0J200000D01*
G01*
X-18382000Y66588000D01*
G75*
G02*
X-18182000Y66788000I200000J0D01*
G01*
X-17632000Y66788000D01*
G75*
G02*
X-17432000Y66588000I0J-200000D01*
G01*
X-17432000Y66188000D01*
G75*
G02*
X-17632000Y65988000I-200000J0D01*
G01*
G37*
G04 #@! TD.AperFunction*
G04 #@! TD*
G04 #@! TO.P,R51,2*
G04 #@! TO.N,TRI_A*
G04 #@! TA.AperFunction,SMDPad,CuDef*
G36*
G01*
X-19283000Y67638000D02*
X-19833000Y67638000D01*
G75*
G02*
X-20033000Y67838000I0J200000D01*
G01*
X-20033000Y68238000D01*
G75*
G02*
X-19833000Y68438000I200000J0D01*
G01*
X-19283000Y68438000D01*
G75*
G02*
X-19083000Y68238000I0J-200000D01*
G01*
X-19083000Y67838000D01*
G75*
G02*
X-19283000Y67638000I-200000J0D01*
G01*
G37*
G04 #@! TD.AperFunction*
G04 #@! TO.P,R51,1*
G04 #@! TO.N,Net-(C18-Pad2)*
G04 #@! TA.AperFunction,SMDPad,CuDef*
G36*
G01*
X-19283000Y65988000D02*
X-19833000Y65988000D01*
G75*
G02*
X-20033000Y66188000I0J200000D01*
G01*
X-20033000Y66588000D01*
G75*
G02*
X-19833000Y66788000I200000J0D01*
G01*
X-19283000Y66788000D01*
G75*
G02*
X-19083000Y66588000I0J-200000D01*
G01*
X-19083000Y66188000D01*
G75*
G02*
X-19283000Y65988000I-200000J0D01*
G01*
G37*
G04 #@! TD.AperFunction*
G04 #@! TD*
G04 #@! TO.P,R50,2*
G04 #@! TO.N,Net-(Q4-Pad3)*
G04 #@! TA.AperFunction,SMDPad,CuDef*
G36*
G01*
X-10243000Y59826000D02*
X-10243000Y60376000D01*
G75*
G02*
X-10043000Y60576000I200000J0D01*
G01*
X-9643000Y60576000D01*
G75*
G02*
X-9443000Y60376000I0J-200000D01*
G01*
X-9443000Y59826000D01*
G75*
G02*
X-9643000Y59626000I-200000J0D01*
G01*
X-10043000Y59626000D01*
G75*
G02*
X-10243000Y59826000I0J200000D01*
G01*
G37*
G04 #@! TD.AperFunction*
G04 #@! TO.P,R50,1*
G04 #@! TO.N,Net-(C18-Pad2)*
G04 #@! TA.AperFunction,SMDPad,CuDef*
G36*
G01*
X-11893000Y59826000D02*
X-11893000Y60376000D01*
G75*
G02*
X-11693000Y60576000I200000J0D01*
G01*
X-11293000Y60576000D01*
G75*
G02*
X-11093000Y60376000I0J-200000D01*
G01*
X-11093000Y59826000D01*
G75*
G02*
X-11293000Y59626000I-200000J0D01*
G01*
X-11693000Y59626000D01*
G75*
G02*
X-11893000Y59826000I0J200000D01*
G01*
G37*
G04 #@! TD.AperFunction*
G04 #@! TD*
G04 #@! TO.P,R47,2*
G04 #@! TO.N,Net-(C16-Pad1)*
G04 #@! TA.AperFunction,SMDPad,CuDef*
G36*
G01*
X-10139000Y64814000D02*
X-10689000Y64814000D01*
G75*
G02*
X-10889000Y65014000I0J200000D01*
G01*
X-10889000Y65414000D01*
G75*
G02*
X-10689000Y65614000I200000J0D01*
G01*
X-10139000Y65614000D01*
G75*
G02*
X-9939000Y65414000I0J-200000D01*
G01*
X-9939000Y65014000D01*
G75*
G02*
X-10139000Y64814000I-200000J0D01*
G01*
G37*
G04 #@! TD.AperFunction*
G04 #@! TO.P,R47,1*
G04 #@! TO.N,Net-(Q4-Pad3)*
G04 #@! TA.AperFunction,SMDPad,CuDef*
G36*
G01*
X-10139000Y63164000D02*
X-10689000Y63164000D01*
G75*
G02*
X-10889000Y63364000I0J200000D01*
G01*
X-10889000Y63764000D01*
G75*
G02*
X-10689000Y63964000I200000J0D01*
G01*
X-10139000Y63964000D01*
G75*
G02*
X-9939000Y63764000I0J-200000D01*
G01*
X-9939000Y63364000D01*
G75*
G02*
X-10139000Y63164000I-200000J0D01*
G01*
G37*
G04 #@! TD.AperFunction*
G04 #@! TD*
G04 #@! TO.P,R44,2*
G04 #@! TO.N,Net-(C16-Pad2)*
G04 #@! TA.AperFunction,SMDPad,CuDef*
G36*
G01*
X-13991000Y63964000D02*
X-13441000Y63964000D01*
G75*
G02*
X-13241000Y63764000I0J-200000D01*
G01*
X-13241000Y63364000D01*
G75*
G02*
X-13441000Y63164000I-200000J0D01*
G01*
X-13991000Y63164000D01*
G75*
G02*
X-14191000Y63364000I0J200000D01*
G01*
X-14191000Y63764000D01*
G75*
G02*
X-13991000Y63964000I200000J0D01*
G01*
G37*
G04 #@! TD.AperFunction*
G04 #@! TO.P,R44,1*
G04 #@! TO.N,Net-(C16-Pad1)*
G04 #@! TA.AperFunction,SMDPad,CuDef*
G36*
G01*
X-13991000Y65614000D02*
X-13441000Y65614000D01*
G75*
G02*
X-13241000Y65414000I0J-200000D01*
G01*
X-13241000Y65014000D01*
G75*
G02*
X-13441000Y64814000I-200000J0D01*
G01*
X-13991000Y64814000D01*
G75*
G02*
X-14191000Y65014000I0J200000D01*
G01*
X-14191000Y65414000D01*
G75*
G02*
X-13991000Y65614000I200000J0D01*
G01*
G37*
G04 #@! TD.AperFunction*
G04 #@! TD*
G04 #@! TO.P,R42,2*
G04 #@! TO.N,SQR_A*
G04 #@! TA.AperFunction,SMDPad,CuDef*
G36*
G01*
X-15981000Y67638000D02*
X-16531000Y67638000D01*
G75*
G02*
X-16731000Y67838000I0J200000D01*
G01*
X-16731000Y68238000D01*
G75*
G02*
X-16531000Y68438000I200000J0D01*
G01*
X-15981000Y68438000D01*
G75*
G02*
X-15781000Y68238000I0J-200000D01*
G01*
X-15781000Y67838000D01*
G75*
G02*
X-15981000Y67638000I-200000J0D01*
G01*
G37*
G04 #@! TD.AperFunction*
G04 #@! TO.P,R42,1*
G04 #@! TO.N,Net-(C16-Pad2)*
G04 #@! TA.AperFunction,SMDPad,CuDef*
G36*
G01*
X-15981000Y65988000D02*
X-16531000Y65988000D01*
G75*
G02*
X-16731000Y66188000I0J200000D01*
G01*
X-16731000Y66588000D01*
G75*
G02*
X-16531000Y66788000I200000J0D01*
G01*
X-15981000Y66788000D01*
G75*
G02*
X-15781000Y66588000I0J-200000D01*
G01*
X-15781000Y66188000D01*
G75*
G02*
X-15981000Y65988000I-200000J0D01*
G01*
G37*
G04 #@! TD.AperFunction*
G04 #@! TD*
G04 #@! TO.P,R40,2*
G04 #@! TO.N,Net-(R40-Pad2)*
G04 #@! TA.AperFunction,SMDPad,CuDef*
G36*
G01*
X-17316000Y25802000D02*
X-17316000Y25252000D01*
G75*
G02*
X-17516000Y25052000I-200000J0D01*
G01*
X-17916000Y25052000D01*
G75*
G02*
X-18116000Y25252000I0J200000D01*
G01*
X-18116000Y25802000D01*
G75*
G02*
X-17916000Y26002000I200000J0D01*
G01*
X-17516000Y26002000D01*
G75*
G02*
X-17316000Y25802000I0J-200000D01*
G01*
G37*
G04 #@! TD.AperFunction*
G04 #@! TO.P,R40,1*
G04 #@! TO.N,+12V*
G04 #@! TA.AperFunction,SMDPad,CuDef*
G36*
G01*
X-15666000Y25802000D02*
X-15666000Y25252000D01*
G75*
G02*
X-15866000Y25052000I-200000J0D01*
G01*
X-16266000Y25052000D01*
G75*
G02*
X-16466000Y25252000I0J200000D01*
G01*
X-16466000Y25802000D01*
G75*
G02*
X-16266000Y26002000I200000J0D01*
G01*
X-15866000Y26002000D01*
G75*
G02*
X-15666000Y25802000I0J-200000D01*
G01*
G37*
G04 #@! TD.AperFunction*
G04 #@! TD*
G04 #@! TO.P,R39,2*
G04 #@! TO.N,Net-(R39-Pad2)*
G04 #@! TA.AperFunction,SMDPad,CuDef*
G36*
G01*
X-17126000Y81712000D02*
X-17126000Y81162000D01*
G75*
G02*
X-17326000Y80962000I-200000J0D01*
G01*
X-17726000Y80962000D01*
G75*
G02*
X-17926000Y81162000I0J200000D01*
G01*
X-17926000Y81712000D01*
G75*
G02*
X-17726000Y81912000I200000J0D01*
G01*
X-17326000Y81912000D01*
G75*
G02*
X-17126000Y81712000I0J-200000D01*
G01*
G37*
G04 #@! TD.AperFunction*
G04 #@! TO.P,R39,1*
G04 #@! TO.N,+12V*
G04 #@! TA.AperFunction,SMDPad,CuDef*
G36*
G01*
X-15476000Y81712000D02*
X-15476000Y81162000D01*
G75*
G02*
X-15676000Y80962000I-200000J0D01*
G01*
X-16076000Y80962000D01*
G75*
G02*
X-16276000Y81162000I0J200000D01*
G01*
X-16276000Y81712000D01*
G75*
G02*
X-16076000Y81912000I200000J0D01*
G01*
X-15676000Y81912000D01*
G75*
G02*
X-15476000Y81712000I0J-200000D01*
G01*
G37*
G04 #@! TD.AperFunction*
G04 #@! TD*
G04 #@! TO.P,R37,2*
G04 #@! TO.N,Net-(C25-Pad2)*
G04 #@! TA.AperFunction,SMDPad,CuDef*
G36*
G01*
X-14076000Y5886000D02*
X-14626000Y5886000D01*
G75*
G02*
X-14826000Y6086000I0J200000D01*
G01*
X-14826000Y6486000D01*
G75*
G02*
X-14626000Y6686000I200000J0D01*
G01*
X-14076000Y6686000D01*
G75*
G02*
X-13876000Y6486000I0J-200000D01*
G01*
X-13876000Y6086000D01*
G75*
G02*
X-14076000Y5886000I-200000J0D01*
G01*
G37*
G04 #@! TD.AperFunction*
G04 #@! TO.P,R37,1*
G04 #@! TO.N,Net-(C25-Pad1)*
G04 #@! TA.AperFunction,SMDPad,CuDef*
G36*
G01*
X-14076000Y4236000D02*
X-14626000Y4236000D01*
G75*
G02*
X-14826000Y4436000I0J200000D01*
G01*
X-14826000Y4836000D01*
G75*
G02*
X-14626000Y5036000I200000J0D01*
G01*
X-14076000Y5036000D01*
G75*
G02*
X-13876000Y4836000I0J-200000D01*
G01*
X-13876000Y4436000D01*
G75*
G02*
X-14076000Y4236000I-200000J0D01*
G01*
G37*
G04 #@! TD.AperFunction*
G04 #@! TD*
G04 #@! TO.P,R36,2*
G04 #@! TO.N,-12V*
G04 #@! TA.AperFunction,SMDPad,CuDef*
G36*
G01*
X-25825000Y14753000D02*
X-25825000Y14203000D01*
G75*
G02*
X-26025000Y14003000I-200000J0D01*
G01*
X-26425000Y14003000D01*
G75*
G02*
X-26625000Y14203000I0J200000D01*
G01*
X-26625000Y14753000D01*
G75*
G02*
X-26425000Y14953000I200000J0D01*
G01*
X-26025000Y14953000D01*
G75*
G02*
X-25825000Y14753000I0J-200000D01*
G01*
G37*
G04 #@! TD.AperFunction*
G04 #@! TO.P,R36,1*
G04 #@! TO.N,TRI_B*
G04 #@! TA.AperFunction,SMDPad,CuDef*
G36*
G01*
X-24175000Y14753000D02*
X-24175000Y14203000D01*
G75*
G02*
X-24375000Y14003000I-200000J0D01*
G01*
X-24775000Y14003000D01*
G75*
G02*
X-24975000Y14203000I0J200000D01*
G01*
X-24975000Y14753000D01*
G75*
G02*
X-24775000Y14953000I200000J0D01*
G01*
X-24375000Y14953000D01*
G75*
G02*
X-24175000Y14753000I0J-200000D01*
G01*
G37*
G04 #@! TD.AperFunction*
G04 #@! TD*
G04 #@! TO.P,R35,2*
G04 #@! TO.N,-12V*
G04 #@! TA.AperFunction,SMDPad,CuDef*
G36*
G01*
X-25825000Y70790000D02*
X-25825000Y70240000D01*
G75*
G02*
X-26025000Y70040000I-200000J0D01*
G01*
X-26425000Y70040000D01*
G75*
G02*
X-26625000Y70240000I0J200000D01*
G01*
X-26625000Y70790000D01*
G75*
G02*
X-26425000Y70990000I200000J0D01*
G01*
X-26025000Y70990000D01*
G75*
G02*
X-25825000Y70790000I0J-200000D01*
G01*
G37*
G04 #@! TD.AperFunction*
G04 #@! TO.P,R35,1*
G04 #@! TO.N,TRI_A*
G04 #@! TA.AperFunction,SMDPad,CuDef*
G36*
G01*
X-24175000Y70790000D02*
X-24175000Y70240000D01*
G75*
G02*
X-24375000Y70040000I-200000J0D01*
G01*
X-24775000Y70040000D01*
G75*
G02*
X-24975000Y70240000I0J200000D01*
G01*
X-24975000Y70790000D01*
G75*
G02*
X-24775000Y70990000I200000J0D01*
G01*
X-24375000Y70990000D01*
G75*
G02*
X-24175000Y70790000I0J-200000D01*
G01*
G37*
G04 #@! TD.AperFunction*
G04 #@! TD*
G04 #@! TO.P,R34,2*
G04 #@! TO.N,SAW_MIX*
G04 #@! TA.AperFunction,SMDPad,CuDef*
G36*
G01*
X-9862000Y4360500D02*
X-9862000Y4910500D01*
G75*
G02*
X-9662000Y5110500I200000J0D01*
G01*
X-9262000Y5110500D01*
G75*
G02*
X-9062000Y4910500I0J-200000D01*
G01*
X-9062000Y4360500D01*
G75*
G02*
X-9262000Y4160500I-200000J0D01*
G01*
X-9662000Y4160500D01*
G75*
G02*
X-9862000Y4360500I0J200000D01*
G01*
G37*
G04 #@! TD.AperFunction*
G04 #@! TO.P,R34,1*
G04 #@! TO.N,Net-(C25-Pad2)*
G04 #@! TA.AperFunction,SMDPad,CuDef*
G36*
G01*
X-11512000Y4360500D02*
X-11512000Y4910500D01*
G75*
G02*
X-11312000Y5110500I200000J0D01*
G01*
X-10912000Y5110500D01*
G75*
G02*
X-10712000Y4910500I0J-200000D01*
G01*
X-10712000Y4360500D01*
G75*
G02*
X-10912000Y4160500I-200000J0D01*
G01*
X-11312000Y4160500D01*
G75*
G02*
X-11512000Y4360500I0J200000D01*
G01*
G37*
G04 #@! TD.AperFunction*
G04 #@! TD*
G04 #@! TO.P,R33,2*
G04 #@! TO.N,SQR_MIX*
G04 #@! TA.AperFunction,SMDPad,CuDef*
G36*
G01*
X-9862000Y2709500D02*
X-9862000Y3259500D01*
G75*
G02*
X-9662000Y3459500I200000J0D01*
G01*
X-9262000Y3459500D01*
G75*
G02*
X-9062000Y3259500I0J-200000D01*
G01*
X-9062000Y2709500D01*
G75*
G02*
X-9262000Y2509500I-200000J0D01*
G01*
X-9662000Y2509500D01*
G75*
G02*
X-9862000Y2709500I0J200000D01*
G01*
G37*
G04 #@! TD.AperFunction*
G04 #@! TO.P,R33,1*
G04 #@! TO.N,Net-(C25-Pad2)*
G04 #@! TA.AperFunction,SMDPad,CuDef*
G36*
G01*
X-11512000Y2709500D02*
X-11512000Y3259500D01*
G75*
G02*
X-11312000Y3459500I200000J0D01*
G01*
X-10912000Y3459500D01*
G75*
G02*
X-10712000Y3259500I0J-200000D01*
G01*
X-10712000Y2709500D01*
G75*
G02*
X-10912000Y2509500I-200000J0D01*
G01*
X-11312000Y2509500D01*
G75*
G02*
X-11512000Y2709500I0J200000D01*
G01*
G37*
G04 #@! TD.AperFunction*
G04 #@! TD*
G04 #@! TO.P,R32,2*
G04 #@! TO.N,Net-(C15-Pad1)*
G04 #@! TA.AperFunction,SMDPad,CuDef*
G36*
G01*
X-25825000Y16404000D02*
X-25825000Y15854000D01*
G75*
G02*
X-26025000Y15654000I-200000J0D01*
G01*
X-26425000Y15654000D01*
G75*
G02*
X-26625000Y15854000I0J200000D01*
G01*
X-26625000Y16404000D01*
G75*
G02*
X-26425000Y16604000I200000J0D01*
G01*
X-26025000Y16604000D01*
G75*
G02*
X-25825000Y16404000I0J-200000D01*
G01*
G37*
G04 #@! TD.AperFunction*
G04 #@! TO.P,R32,1*
G04 #@! TO.N,Net-(R32-Pad1)*
G04 #@! TA.AperFunction,SMDPad,CuDef*
G36*
G01*
X-24175000Y16404000D02*
X-24175000Y15854000D01*
G75*
G02*
X-24375000Y15654000I-200000J0D01*
G01*
X-24775000Y15654000D01*
G75*
G02*
X-24975000Y15854000I0J200000D01*
G01*
X-24975000Y16404000D01*
G75*
G02*
X-24775000Y16604000I200000J0D01*
G01*
X-24375000Y16604000D01*
G75*
G02*
X-24175000Y16404000I0J-200000D01*
G01*
G37*
G04 #@! TD.AperFunction*
G04 #@! TD*
G04 #@! TO.P,R30,2*
G04 #@! TO.N,Iabc_B*
G04 #@! TA.AperFunction,SMDPad,CuDef*
G36*
G01*
X-21419000Y25252000D02*
X-21419000Y25802000D01*
G75*
G02*
X-21219000Y26002000I200000J0D01*
G01*
X-20819000Y26002000D01*
G75*
G02*
X-20619000Y25802000I0J-200000D01*
G01*
X-20619000Y25252000D01*
G75*
G02*
X-20819000Y25052000I-200000J0D01*
G01*
X-21219000Y25052000D01*
G75*
G02*
X-21419000Y25252000I0J200000D01*
G01*
G37*
G04 #@! TD.AperFunction*
G04 #@! TO.P,R30,1*
G04 #@! TO.N,Net-(R30-Pad1)*
G04 #@! TA.AperFunction,SMDPad,CuDef*
G36*
G01*
X-23069000Y25252000D02*
X-23069000Y25802000D01*
G75*
G02*
X-22869000Y26002000I200000J0D01*
G01*
X-22469000Y26002000D01*
G75*
G02*
X-22269000Y25802000I0J-200000D01*
G01*
X-22269000Y25252000D01*
G75*
G02*
X-22469000Y25052000I-200000J0D01*
G01*
X-22869000Y25052000D01*
G75*
G02*
X-23069000Y25252000I0J200000D01*
G01*
G37*
G04 #@! TD.AperFunction*
G04 #@! TD*
G04 #@! TO.P,R29,2*
G04 #@! TO.N,Iabc_A*
G04 #@! TA.AperFunction,SMDPad,CuDef*
G36*
G01*
X-21950000Y82878000D02*
X-22500000Y82878000D01*
G75*
G02*
X-22700000Y83078000I0J200000D01*
G01*
X-22700000Y83478000D01*
G75*
G02*
X-22500000Y83678000I200000J0D01*
G01*
X-21950000Y83678000D01*
G75*
G02*
X-21750000Y83478000I0J-200000D01*
G01*
X-21750000Y83078000D01*
G75*
G02*
X-21950000Y82878000I-200000J0D01*
G01*
G37*
G04 #@! TD.AperFunction*
G04 #@! TO.P,R29,1*
G04 #@! TO.N,Net-(R29-Pad1)*
G04 #@! TA.AperFunction,SMDPad,CuDef*
G36*
G01*
X-21950000Y81228000D02*
X-22500000Y81228000D01*
G75*
G02*
X-22700000Y81428000I0J200000D01*
G01*
X-22700000Y81828000D01*
G75*
G02*
X-22500000Y82028000I200000J0D01*
G01*
X-21950000Y82028000D01*
G75*
G02*
X-21750000Y81828000I0J-200000D01*
G01*
X-21750000Y81428000D01*
G75*
G02*
X-21950000Y81228000I-200000J0D01*
G01*
G37*
G04 #@! TD.AperFunction*
G04 #@! TD*
G04 #@! TO.P,R28,2*
G04 #@! TO.N,Net-(R28-Pad2)*
G04 #@! TA.AperFunction,SMDPad,CuDef*
G36*
G01*
X-25102000Y21061000D02*
X-25102000Y21611000D01*
G75*
G02*
X-24902000Y21811000I200000J0D01*
G01*
X-24502000Y21811000D01*
G75*
G02*
X-24302000Y21611000I0J-200000D01*
G01*
X-24302000Y21061000D01*
G75*
G02*
X-24502000Y20861000I-200000J0D01*
G01*
X-24902000Y20861000D01*
G75*
G02*
X-25102000Y21061000I0J200000D01*
G01*
G37*
G04 #@! TD.AperFunction*
G04 #@! TO.P,R28,1*
G04 #@! TO.N,GND*
G04 #@! TA.AperFunction,SMDPad,CuDef*
G36*
G01*
X-26752000Y21061000D02*
X-26752000Y21611000D01*
G75*
G02*
X-26552000Y21811000I200000J0D01*
G01*
X-26152000Y21811000D01*
G75*
G02*
X-25952000Y21611000I0J-200000D01*
G01*
X-25952000Y21061000D01*
G75*
G02*
X-26152000Y20861000I-200000J0D01*
G01*
X-26552000Y20861000D01*
G75*
G02*
X-26752000Y21061000I0J200000D01*
G01*
G37*
G04 #@! TD.AperFunction*
G04 #@! TD*
G04 #@! TO.P,R27,2*
G04 #@! TO.N,SQR_A*
G04 #@! TA.AperFunction,SMDPad,CuDef*
G36*
G01*
X-25038000Y76971000D02*
X-25038000Y77521000D01*
G75*
G02*
X-24838000Y77721000I200000J0D01*
G01*
X-24438000Y77721000D01*
G75*
G02*
X-24238000Y77521000I0J-200000D01*
G01*
X-24238000Y76971000D01*
G75*
G02*
X-24438000Y76771000I-200000J0D01*
G01*
X-24838000Y76771000D01*
G75*
G02*
X-25038000Y76971000I0J200000D01*
G01*
G37*
G04 #@! TD.AperFunction*
G04 #@! TO.P,R27,1*
G04 #@! TO.N,GND*
G04 #@! TA.AperFunction,SMDPad,CuDef*
G36*
G01*
X-26688000Y76971000D02*
X-26688000Y77521000D01*
G75*
G02*
X-26488000Y77721000I200000J0D01*
G01*
X-26088000Y77721000D01*
G75*
G02*
X-25888000Y77521000I0J-200000D01*
G01*
X-25888000Y76971000D01*
G75*
G02*
X-26088000Y76771000I-200000J0D01*
G01*
X-26488000Y76771000D01*
G75*
G02*
X-26688000Y76971000I0J200000D01*
G01*
G37*
G04 #@! TD.AperFunction*
G04 #@! TD*
G04 #@! TO.P,R26,2*
G04 #@! TO.N,-12V*
G04 #@! TA.AperFunction,SMDPad,CuDef*
G36*
G01*
X-30755000Y65645000D02*
X-30205000Y65645000D01*
G75*
G02*
X-30005000Y65445000I0J-200000D01*
G01*
X-30005000Y65045000D01*
G75*
G02*
X-30205000Y64845000I-200000J0D01*
G01*
X-30755000Y64845000D01*
G75*
G02*
X-30955000Y65045000I0J200000D01*
G01*
X-30955000Y65445000D01*
G75*
G02*
X-30755000Y65645000I200000J0D01*
G01*
G37*
G04 #@! TD.AperFunction*
G04 #@! TO.P,R26,1*
G04 #@! TO.N,Net-(Q3-Pad3)*
G04 #@! TA.AperFunction,SMDPad,CuDef*
G36*
G01*
X-30755000Y67295000D02*
X-30205000Y67295000D01*
G75*
G02*
X-30005000Y67095000I0J-200000D01*
G01*
X-30005000Y66695000D01*
G75*
G02*
X-30205000Y66495000I-200000J0D01*
G01*
X-30755000Y66495000D01*
G75*
G02*
X-30955000Y66695000I0J200000D01*
G01*
X-30955000Y67095000D01*
G75*
G02*
X-30755000Y67295000I200000J0D01*
G01*
G37*
G04 #@! TD.AperFunction*
G04 #@! TD*
G04 #@! TO.P,R25,2*
G04 #@! TO.N,Net-(R25-Pad2)*
G04 #@! TA.AperFunction,SMDPad,CuDef*
G36*
G01*
X-29104000Y65645000D02*
X-28554000Y65645000D01*
G75*
G02*
X-28354000Y65445000I0J-200000D01*
G01*
X-28354000Y65045000D01*
G75*
G02*
X-28554000Y64845000I-200000J0D01*
G01*
X-29104000Y64845000D01*
G75*
G02*
X-29304000Y65045000I0J200000D01*
G01*
X-29304000Y65445000D01*
G75*
G02*
X-29104000Y65645000I200000J0D01*
G01*
G37*
G04 #@! TD.AperFunction*
G04 #@! TO.P,R25,1*
G04 #@! TO.N,Net-(Q3-Pad3)*
G04 #@! TA.AperFunction,SMDPad,CuDef*
G36*
G01*
X-29104000Y67295000D02*
X-28554000Y67295000D01*
G75*
G02*
X-28354000Y67095000I0J-200000D01*
G01*
X-28354000Y66695000D01*
G75*
G02*
X-28554000Y66495000I-200000J0D01*
G01*
X-29104000Y66495000D01*
G75*
G02*
X-29304000Y66695000I0J200000D01*
G01*
X-29304000Y67095000D01*
G75*
G02*
X-29104000Y67295000I200000J0D01*
G01*
G37*
G04 #@! TD.AperFunction*
G04 #@! TD*
G04 #@! TO.P,R24,2*
G04 #@! TO.N,-12V*
G04 #@! TA.AperFunction,SMDPad,CuDef*
G36*
G01*
X-17759000Y93770000D02*
X-18309000Y93770000D01*
G75*
G02*
X-18509000Y93970000I0J200000D01*
G01*
X-18509000Y94370000D01*
G75*
G02*
X-18309000Y94570000I200000J0D01*
G01*
X-17759000Y94570000D01*
G75*
G02*
X-17559000Y94370000I0J-200000D01*
G01*
X-17559000Y93970000D01*
G75*
G02*
X-17759000Y93770000I-200000J0D01*
G01*
G37*
G04 #@! TD.AperFunction*
G04 #@! TO.P,R24,1*
G04 #@! TO.N,Net-(Q1-Pad1)*
G04 #@! TA.AperFunction,SMDPad,CuDef*
G36*
G01*
X-17759000Y92120000D02*
X-18309000Y92120000D01*
G75*
G02*
X-18509000Y92320000I0J200000D01*
G01*
X-18509000Y92720000D01*
G75*
G02*
X-18309000Y92920000I200000J0D01*
G01*
X-17759000Y92920000D01*
G75*
G02*
X-17559000Y92720000I0J-200000D01*
G01*
X-17559000Y92320000D01*
G75*
G02*
X-17759000Y92120000I-200000J0D01*
G01*
G37*
G04 #@! TD.AperFunction*
G04 #@! TD*
G04 #@! TO.P,R23,2*
G04 #@! TO.N,-12V*
G04 #@! TA.AperFunction,SMDPad,CuDef*
G36*
G01*
X-17951000Y32787000D02*
X-17951000Y32237000D01*
G75*
G02*
X-18151000Y32037000I-200000J0D01*
G01*
X-18551000Y32037000D01*
G75*
G02*
X-18751000Y32237000I0J200000D01*
G01*
X-18751000Y32787000D01*
G75*
G02*
X-18551000Y32987000I200000J0D01*
G01*
X-18151000Y32987000D01*
G75*
G02*
X-17951000Y32787000I0J-200000D01*
G01*
G37*
G04 #@! TD.AperFunction*
G04 #@! TO.P,R23,1*
G04 #@! TO.N,Net-(C13-Pad2)*
G04 #@! TA.AperFunction,SMDPad,CuDef*
G36*
G01*
X-16301000Y32787000D02*
X-16301000Y32237000D01*
G75*
G02*
X-16501000Y32037000I-200000J0D01*
G01*
X-16901000Y32037000D01*
G75*
G02*
X-17101000Y32237000I0J200000D01*
G01*
X-17101000Y32787000D01*
G75*
G02*
X-16901000Y32987000I200000J0D01*
G01*
X-16501000Y32987000D01*
G75*
G02*
X-16301000Y32787000I0J-200000D01*
G01*
G37*
G04 #@! TD.AperFunction*
G04 #@! TD*
G04 #@! TO.P,R22,2*
G04 #@! TO.N,Net-(C12-Pad1)*
G04 #@! TA.AperFunction,SMDPad,CuDef*
G36*
G01*
X-16847000Y90623500D02*
X-16847000Y91173500D01*
G75*
G02*
X-16647000Y91373500I200000J0D01*
G01*
X-16247000Y91373500D01*
G75*
G02*
X-16047000Y91173500I0J-200000D01*
G01*
X-16047000Y90623500D01*
G75*
G02*
X-16247000Y90423500I-200000J0D01*
G01*
X-16647000Y90423500D01*
G75*
G02*
X-16847000Y90623500I0J200000D01*
G01*
G37*
G04 #@! TD.AperFunction*
G04 #@! TO.P,R22,1*
G04 #@! TO.N,Net-(Q1-Pad1)*
G04 #@! TA.AperFunction,SMDPad,CuDef*
G36*
G01*
X-18497000Y90623500D02*
X-18497000Y91173500D01*
G75*
G02*
X-18297000Y91373500I200000J0D01*
G01*
X-17897000Y91373500D01*
G75*
G02*
X-17697000Y91173500I0J-200000D01*
G01*
X-17697000Y90623500D01*
G75*
G02*
X-17897000Y90423500I-200000J0D01*
G01*
X-18297000Y90423500D01*
G75*
G02*
X-18497000Y90623500I0J200000D01*
G01*
G37*
G04 #@! TD.AperFunction*
G04 #@! TD*
G04 #@! TO.P,R21,2*
G04 #@! TO.N,Net-(C11-Pad1)*
G04 #@! TA.AperFunction,SMDPad,CuDef*
G36*
G01*
X-16847000Y88972500D02*
X-16847000Y89522500D01*
G75*
G02*
X-16647000Y89722500I200000J0D01*
G01*
X-16247000Y89722500D01*
G75*
G02*
X-16047000Y89522500I0J-200000D01*
G01*
X-16047000Y88972500D01*
G75*
G02*
X-16247000Y88772500I-200000J0D01*
G01*
X-16647000Y88772500D01*
G75*
G02*
X-16847000Y88972500I0J200000D01*
G01*
G37*
G04 #@! TD.AperFunction*
G04 #@! TO.P,R21,1*
G04 #@! TO.N,Net-(Q1-Pad1)*
G04 #@! TA.AperFunction,SMDPad,CuDef*
G36*
G01*
X-18497000Y88972500D02*
X-18497000Y89522500D01*
G75*
G02*
X-18297000Y89722500I200000J0D01*
G01*
X-17897000Y89722500D01*
G75*
G02*
X-17697000Y89522500I0J-200000D01*
G01*
X-17697000Y88972500D01*
G75*
G02*
X-17897000Y88772500I-200000J0D01*
G01*
X-18297000Y88772500D01*
G75*
G02*
X-18497000Y88972500I0J200000D01*
G01*
G37*
G04 #@! TD.AperFunction*
G04 #@! TD*
G04 #@! TO.P,R18,2*
G04 #@! TO.N,Net-(R18-Pad2)*
G04 #@! TA.AperFunction,SMDPad,CuDef*
G36*
G01*
X-18076500Y42207500D02*
X-18626500Y42207500D01*
G75*
G02*
X-18826500Y42407500I0J200000D01*
G01*
X-18826500Y42807500D01*
G75*
G02*
X-18626500Y43007500I200000J0D01*
G01*
X-18076500Y43007500D01*
G75*
G02*
X-17876500Y42807500I0J-200000D01*
G01*
X-17876500Y42407500D01*
G75*
G02*
X-18076500Y42207500I-200000J0D01*
G01*
G37*
G04 #@! TD.AperFunction*
G04 #@! TO.P,R18,1*
G04 #@! TO.N,Vs_B*
G04 #@! TA.AperFunction,SMDPad,CuDef*
G36*
G01*
X-18076500Y40557500D02*
X-18626500Y40557500D01*
G75*
G02*
X-18826500Y40757500I0J200000D01*
G01*
X-18826500Y41157500D01*
G75*
G02*
X-18626500Y41357500I200000J0D01*
G01*
X-18076500Y41357500D01*
G75*
G02*
X-17876500Y41157500I0J-200000D01*
G01*
X-17876500Y40757500D01*
G75*
G02*
X-18076500Y40557500I-200000J0D01*
G01*
G37*
G04 #@! TD.AperFunction*
G04 #@! TD*
G04 #@! TO.P,R17,2*
G04 #@! TO.N,Net-(R17-Pad2)*
G04 #@! TA.AperFunction,SMDPad,CuDef*
G36*
G01*
X-18267000Y97326000D02*
X-18817000Y97326000D01*
G75*
G02*
X-19017000Y97526000I0J200000D01*
G01*
X-19017000Y97926000D01*
G75*
G02*
X-18817000Y98126000I200000J0D01*
G01*
X-18267000Y98126000D01*
G75*
G02*
X-18067000Y97926000I0J-200000D01*
G01*
X-18067000Y97526000D01*
G75*
G02*
X-18267000Y97326000I-200000J0D01*
G01*
G37*
G04 #@! TD.AperFunction*
G04 #@! TO.P,R17,1*
G04 #@! TO.N,Vs_A*
G04 #@! TA.AperFunction,SMDPad,CuDef*
G36*
G01*
X-18267000Y95676000D02*
X-18817000Y95676000D01*
G75*
G02*
X-19017000Y95876000I0J200000D01*
G01*
X-19017000Y96276000D01*
G75*
G02*
X-18817000Y96476000I200000J0D01*
G01*
X-18267000Y96476000D01*
G75*
G02*
X-18067000Y96276000I0J-200000D01*
G01*
X-18067000Y95876000D01*
G75*
G02*
X-18267000Y95676000I-200000J0D01*
G01*
G37*
G04 #@! TD.AperFunction*
G04 #@! TD*
G04 #@! TO.P,R15,2*
G04 #@! TO.N,Net-(R10-Pad1)*
G04 #@! TA.AperFunction,SMDPad,CuDef*
G36*
G01*
X-13356000Y29547000D02*
X-12806000Y29547000D01*
G75*
G02*
X-12606000Y29347000I0J-200000D01*
G01*
X-12606000Y28947000D01*
G75*
G02*
X-12806000Y28747000I-200000J0D01*
G01*
X-13356000Y28747000D01*
G75*
G02*
X-13556000Y28947000I0J200000D01*
G01*
X-13556000Y29347000D01*
G75*
G02*
X-13356000Y29547000I200000J0D01*
G01*
G37*
G04 #@! TD.AperFunction*
G04 #@! TO.P,R15,1*
G04 #@! TO.N,Net-(R15-Pad1)*
G04 #@! TA.AperFunction,SMDPad,CuDef*
G36*
G01*
X-13356000Y31197000D02*
X-12806000Y31197000D01*
G75*
G02*
X-12606000Y30997000I0J-200000D01*
G01*
X-12606000Y30597000D01*
G75*
G02*
X-12806000Y30397000I-200000J0D01*
G01*
X-13356000Y30397000D01*
G75*
G02*
X-13556000Y30597000I0J200000D01*
G01*
X-13556000Y30997000D01*
G75*
G02*
X-13356000Y31197000I200000J0D01*
G01*
G37*
G04 #@! TD.AperFunction*
G04 #@! TD*
G04 #@! TO.P,R14,2*
G04 #@! TO.N,Net-(R14-Pad2)*
G04 #@! TA.AperFunction,SMDPad,CuDef*
G36*
G01*
X-13356000Y85457000D02*
X-12806000Y85457000D01*
G75*
G02*
X-12606000Y85257000I0J-200000D01*
G01*
X-12606000Y84857000D01*
G75*
G02*
X-12806000Y84657000I-200000J0D01*
G01*
X-13356000Y84657000D01*
G75*
G02*
X-13556000Y84857000I0J200000D01*
G01*
X-13556000Y85257000D01*
G75*
G02*
X-13356000Y85457000I200000J0D01*
G01*
G37*
G04 #@! TD.AperFunction*
G04 #@! TO.P,R14,1*
G04 #@! TO.N,Net-(R14-Pad1)*
G04 #@! TA.AperFunction,SMDPad,CuDef*
G36*
G01*
X-13356000Y87107000D02*
X-12806000Y87107000D01*
G75*
G02*
X-12606000Y86907000I0J-200000D01*
G01*
X-12606000Y86507000D01*
G75*
G02*
X-12806000Y86307000I-200000J0D01*
G01*
X-13356000Y86307000D01*
G75*
G02*
X-13556000Y86507000I0J200000D01*
G01*
X-13556000Y86907000D01*
G75*
G02*
X-13356000Y87107000I200000J0D01*
G01*
G37*
G04 #@! TD.AperFunction*
G04 #@! TD*
G04 #@! TO.P,R13,2*
G04 #@! TO.N,Net-(C24-Pad2)*
G04 #@! TA.AperFunction,SMDPad,CuDef*
G36*
G01*
X-24024000Y63964000D02*
X-23474000Y63964000D01*
G75*
G02*
X-23274000Y63764000I0J-200000D01*
G01*
X-23274000Y63364000D01*
G75*
G02*
X-23474000Y63164000I-200000J0D01*
G01*
X-24024000Y63164000D01*
G75*
G02*
X-24224000Y63364000I0J200000D01*
G01*
X-24224000Y63764000D01*
G75*
G02*
X-24024000Y63964000I200000J0D01*
G01*
G37*
G04 #@! TD.AperFunction*
G04 #@! TO.P,R13,1*
G04 #@! TO.N,OSC_A*
G04 #@! TA.AperFunction,SMDPad,CuDef*
G36*
G01*
X-24024000Y65614000D02*
X-23474000Y65614000D01*
G75*
G02*
X-23274000Y65414000I0J-200000D01*
G01*
X-23274000Y65014000D01*
G75*
G02*
X-23474000Y64814000I-200000J0D01*
G01*
X-24024000Y64814000D01*
G75*
G02*
X-24224000Y65014000I0J200000D01*
G01*
X-24224000Y65414000D01*
G75*
G02*
X-24024000Y65614000I200000J0D01*
G01*
G37*
G04 #@! TD.AperFunction*
G04 #@! TD*
G04 #@! TO.P,R12,2*
G04 #@! TO.N,TUNE_B*
G04 #@! TA.AperFunction,SMDPad,CuDef*
G36*
G01*
X-20935000Y29422000D02*
X-20935000Y28872000D01*
G75*
G02*
X-21135000Y28672000I-200000J0D01*
G01*
X-21535000Y28672000D01*
G75*
G02*
X-21735000Y28872000I0J200000D01*
G01*
X-21735000Y29422000D01*
G75*
G02*
X-21535000Y29622000I200000J0D01*
G01*
X-21135000Y29622000D01*
G75*
G02*
X-20935000Y29422000I0J-200000D01*
G01*
G37*
G04 #@! TD.AperFunction*
G04 #@! TO.P,R12,1*
G04 #@! TO.N,Net-(R10-Pad1)*
G04 #@! TA.AperFunction,SMDPad,CuDef*
G36*
G01*
X-19285000Y29422000D02*
X-19285000Y28872000D01*
G75*
G02*
X-19485000Y28672000I-200000J0D01*
G01*
X-19885000Y28672000D01*
G75*
G02*
X-20085000Y28872000I0J200000D01*
G01*
X-20085000Y29422000D01*
G75*
G02*
X-19885000Y29622000I200000J0D01*
G01*
X-19485000Y29622000D01*
G75*
G02*
X-19285000Y29422000I0J-200000D01*
G01*
G37*
G04 #@! TD.AperFunction*
G04 #@! TD*
G04 #@! TO.P,R11,2*
G04 #@! TO.N,FREQ_B*
G04 #@! TA.AperFunction,SMDPad,CuDef*
G36*
G01*
X-17759000Y30397000D02*
X-18309000Y30397000D01*
G75*
G02*
X-18509000Y30597000I0J200000D01*
G01*
X-18509000Y30997000D01*
G75*
G02*
X-18309000Y31197000I200000J0D01*
G01*
X-17759000Y31197000D01*
G75*
G02*
X-17559000Y30997000I0J-200000D01*
G01*
X-17559000Y30597000D01*
G75*
G02*
X-17759000Y30397000I-200000J0D01*
G01*
G37*
G04 #@! TD.AperFunction*
G04 #@! TO.P,R11,1*
G04 #@! TO.N,Net-(R10-Pad1)*
G04 #@! TA.AperFunction,SMDPad,CuDef*
G36*
G01*
X-17759000Y28747000D02*
X-18309000Y28747000D01*
G75*
G02*
X-18509000Y28947000I0J200000D01*
G01*
X-18509000Y29347000D01*
G75*
G02*
X-18309000Y29547000I200000J0D01*
G01*
X-17759000Y29547000D01*
G75*
G02*
X-17559000Y29347000I0J-200000D01*
G01*
X-17559000Y28947000D01*
G75*
G02*
X-17759000Y28747000I-200000J0D01*
G01*
G37*
G04 #@! TD.AperFunction*
G04 #@! TD*
G04 #@! TO.P,R10,2*
G04 #@! TO.N,1V_B*
G04 #@! TA.AperFunction,SMDPad,CuDef*
G36*
G01*
X-14457000Y30397000D02*
X-15007000Y30397000D01*
G75*
G02*
X-15207000Y30597000I0J200000D01*
G01*
X-15207000Y30997000D01*
G75*
G02*
X-15007000Y31197000I200000J0D01*
G01*
X-14457000Y31197000D01*
G75*
G02*
X-14257000Y30997000I0J-200000D01*
G01*
X-14257000Y30597000D01*
G75*
G02*
X-14457000Y30397000I-200000J0D01*
G01*
G37*
G04 #@! TD.AperFunction*
G04 #@! TO.P,R10,1*
G04 #@! TO.N,Net-(R10-Pad1)*
G04 #@! TA.AperFunction,SMDPad,CuDef*
G36*
G01*
X-14457000Y28747000D02*
X-15007000Y28747000D01*
G75*
G02*
X-15207000Y28947000I0J200000D01*
G01*
X-15207000Y29347000D01*
G75*
G02*
X-15007000Y29547000I200000J0D01*
G01*
X-14457000Y29547000D01*
G75*
G02*
X-14257000Y29347000I0J-200000D01*
G01*
X-14257000Y28947000D01*
G75*
G02*
X-14457000Y28747000I-200000J0D01*
G01*
G37*
G04 #@! TD.AperFunction*
G04 #@! TD*
G04 #@! TO.P,R9,2*
G04 #@! TO.N,LINKED*
G04 #@! TA.AperFunction,SMDPad,CuDef*
G36*
G01*
X-16108000Y30397000D02*
X-16658000Y30397000D01*
G75*
G02*
X-16858000Y30597000I0J200000D01*
G01*
X-16858000Y30997000D01*
G75*
G02*
X-16658000Y31197000I200000J0D01*
G01*
X-16108000Y31197000D01*
G75*
G02*
X-15908000Y30997000I0J-200000D01*
G01*
X-15908000Y30597000D01*
G75*
G02*
X-16108000Y30397000I-200000J0D01*
G01*
G37*
G04 #@! TD.AperFunction*
G04 #@! TO.P,R9,1*
G04 #@! TO.N,Net-(R10-Pad1)*
G04 #@! TA.AperFunction,SMDPad,CuDef*
G36*
G01*
X-16108000Y28747000D02*
X-16658000Y28747000D01*
G75*
G02*
X-16858000Y28947000I0J200000D01*
G01*
X-16858000Y29347000D01*
G75*
G02*
X-16658000Y29547000I200000J0D01*
G01*
X-16108000Y29547000D01*
G75*
G02*
X-15908000Y29347000I0J-200000D01*
G01*
X-15908000Y28947000D01*
G75*
G02*
X-16108000Y28747000I-200000J0D01*
G01*
G37*
G04 #@! TD.AperFunction*
G04 #@! TD*
G04 #@! TO.P,R8,2*
G04 #@! TO.N,TUNE_A*
G04 #@! TA.AperFunction,SMDPad,CuDef*
G36*
G01*
X-19410000Y86307000D02*
X-19960000Y86307000D01*
G75*
G02*
X-20160000Y86507000I0J200000D01*
G01*
X-20160000Y86907000D01*
G75*
G02*
X-19960000Y87107000I200000J0D01*
G01*
X-19410000Y87107000D01*
G75*
G02*
X-19210000Y86907000I0J-200000D01*
G01*
X-19210000Y86507000D01*
G75*
G02*
X-19410000Y86307000I-200000J0D01*
G01*
G37*
G04 #@! TD.AperFunction*
G04 #@! TO.P,R8,1*
G04 #@! TO.N,Net-(R14-Pad2)*
G04 #@! TA.AperFunction,SMDPad,CuDef*
G36*
G01*
X-19410000Y84657000D02*
X-19960000Y84657000D01*
G75*
G02*
X-20160000Y84857000I0J200000D01*
G01*
X-20160000Y85257000D01*
G75*
G02*
X-19960000Y85457000I200000J0D01*
G01*
X-19410000Y85457000D01*
G75*
G02*
X-19210000Y85257000I0J-200000D01*
G01*
X-19210000Y84857000D01*
G75*
G02*
X-19410000Y84657000I-200000J0D01*
G01*
G37*
G04 #@! TD.AperFunction*
G04 #@! TD*
G04 #@! TO.P,R7,2*
G04 #@! TO.N,FREQ_A*
G04 #@! TA.AperFunction,SMDPad,CuDef*
G36*
G01*
X-17759000Y86307000D02*
X-18309000Y86307000D01*
G75*
G02*
X-18509000Y86507000I0J200000D01*
G01*
X-18509000Y86907000D01*
G75*
G02*
X-18309000Y87107000I200000J0D01*
G01*
X-17759000Y87107000D01*
G75*
G02*
X-17559000Y86907000I0J-200000D01*
G01*
X-17559000Y86507000D01*
G75*
G02*
X-17759000Y86307000I-200000J0D01*
G01*
G37*
G04 #@! TD.AperFunction*
G04 #@! TO.P,R7,1*
G04 #@! TO.N,Net-(R14-Pad2)*
G04 #@! TA.AperFunction,SMDPad,CuDef*
G36*
G01*
X-17759000Y84657000D02*
X-18309000Y84657000D01*
G75*
G02*
X-18509000Y84857000I0J200000D01*
G01*
X-18509000Y85257000D01*
G75*
G02*
X-18309000Y85457000I200000J0D01*
G01*
X-17759000Y85457000D01*
G75*
G02*
X-17559000Y85257000I0J-200000D01*
G01*
X-17559000Y84857000D01*
G75*
G02*
X-17759000Y84657000I-200000J0D01*
G01*
G37*
G04 #@! TD.AperFunction*
G04 #@! TD*
G04 #@! TO.P,R6,2*
G04 #@! TO.N,1V_A*
G04 #@! TA.AperFunction,SMDPad,CuDef*
G36*
G01*
X-14457000Y86307000D02*
X-15007000Y86307000D01*
G75*
G02*
X-15207000Y86507000I0J200000D01*
G01*
X-15207000Y86907000D01*
G75*
G02*
X-15007000Y87107000I200000J0D01*
G01*
X-14457000Y87107000D01*
G75*
G02*
X-14257000Y86907000I0J-200000D01*
G01*
X-14257000Y86507000D01*
G75*
G02*
X-14457000Y86307000I-200000J0D01*
G01*
G37*
G04 #@! TD.AperFunction*
G04 #@! TO.P,R6,1*
G04 #@! TO.N,Net-(R14-Pad2)*
G04 #@! TA.AperFunction,SMDPad,CuDef*
G36*
G01*
X-14457000Y84657000D02*
X-15007000Y84657000D01*
G75*
G02*
X-15207000Y84857000I0J200000D01*
G01*
X-15207000Y85257000D01*
G75*
G02*
X-15007000Y85457000I200000J0D01*
G01*
X-14457000Y85457000D01*
G75*
G02*
X-14257000Y85257000I0J-200000D01*
G01*
X-14257000Y84857000D01*
G75*
G02*
X-14457000Y84657000I-200000J0D01*
G01*
G37*
G04 #@! TD.AperFunction*
G04 #@! TD*
G04 #@! TO.P,R5,2*
G04 #@! TO.N,LINKED*
G04 #@! TA.AperFunction,SMDPad,CuDef*
G36*
G01*
X-16108000Y86307000D02*
X-16658000Y86307000D01*
G75*
G02*
X-16858000Y86507000I0J200000D01*
G01*
X-16858000Y86907000D01*
G75*
G02*
X-16658000Y87107000I200000J0D01*
G01*
X-16108000Y87107000D01*
G75*
G02*
X-15908000Y86907000I0J-200000D01*
G01*
X-15908000Y86507000D01*
G75*
G02*
X-16108000Y86307000I-200000J0D01*
G01*
G37*
G04 #@! TD.AperFunction*
G04 #@! TO.P,R5,1*
G04 #@! TO.N,Net-(R14-Pad2)*
G04 #@! TA.AperFunction,SMDPad,CuDef*
G36*
G01*
X-16108000Y84657000D02*
X-16658000Y84657000D01*
G75*
G02*
X-16858000Y84857000I0J200000D01*
G01*
X-16858000Y85257000D01*
G75*
G02*
X-16658000Y85457000I200000J0D01*
G01*
X-16108000Y85457000D01*
G75*
G02*
X-15908000Y85257000I0J-200000D01*
G01*
X-15908000Y84857000D01*
G75*
G02*
X-16108000Y84657000I-200000J0D01*
G01*
G37*
G04 #@! TD.AperFunction*
G04 #@! TD*
G04 #@! TO.P,R4,2*
G04 #@! TO.N,GND*
G04 #@! TA.AperFunction,SMDPad,CuDef*
G36*
G01*
X-26776000Y64814000D02*
X-27326000Y64814000D01*
G75*
G02*
X-27526000Y65014000I0J200000D01*
G01*
X-27526000Y65414000D01*
G75*
G02*
X-27326000Y65614000I200000J0D01*
G01*
X-26776000Y65614000D01*
G75*
G02*
X-26576000Y65414000I0J-200000D01*
G01*
X-26576000Y65014000D01*
G75*
G02*
X-26776000Y64814000I-200000J0D01*
G01*
G37*
G04 #@! TD.AperFunction*
G04 #@! TO.P,R4,1*
G04 #@! TO.N,Net-(C24-Pad2)*
G04 #@! TA.AperFunction,SMDPad,CuDef*
G36*
G01*
X-26776000Y63164000D02*
X-27326000Y63164000D01*
G75*
G02*
X-27526000Y63364000I0J200000D01*
G01*
X-27526000Y63764000D01*
G75*
G02*
X-27326000Y63964000I200000J0D01*
G01*
X-26776000Y63964000D01*
G75*
G02*
X-26576000Y63764000I0J-200000D01*
G01*
X-26576000Y63364000D01*
G75*
G02*
X-26776000Y63164000I-200000J0D01*
G01*
G37*
G04 #@! TD.AperFunction*
G04 #@! TD*
G04 #@! TO.P,R3,2*
G04 #@! TO.N,OSC_A*
G04 #@! TA.AperFunction,SMDPad,CuDef*
G36*
G01*
X-8592000Y17632000D02*
X-8592000Y18182000D01*
G75*
G02*
X-8392000Y18382000I200000J0D01*
G01*
X-7992000Y18382000D01*
G75*
G02*
X-7792000Y18182000I0J-200000D01*
G01*
X-7792000Y17632000D01*
G75*
G02*
X-7992000Y17432000I-200000J0D01*
G01*
X-8392000Y17432000D01*
G75*
G02*
X-8592000Y17632000I0J200000D01*
G01*
G37*
G04 #@! TD.AperFunction*
G04 #@! TO.P,R3,1*
G04 #@! TO.N,Net-(R3-Pad1)*
G04 #@! TA.AperFunction,SMDPad,CuDef*
G36*
G01*
X-10242000Y17632000D02*
X-10242000Y18182000D01*
G75*
G02*
X-10042000Y18382000I200000J0D01*
G01*
X-9642000Y18382000D01*
G75*
G02*
X-9442000Y18182000I0J-200000D01*
G01*
X-9442000Y17632000D01*
G75*
G02*
X-9642000Y17432000I-200000J0D01*
G01*
X-10042000Y17432000D01*
G75*
G02*
X-10242000Y17632000I0J200000D01*
G01*
G37*
G04 #@! TD.AperFunction*
G04 #@! TD*
G04 #@! TO.P,R2,2*
G04 #@! TO.N,+12V*
G04 #@! TA.AperFunction,SMDPad,CuDef*
G36*
G01*
X-34080000Y36246000D02*
X-34080000Y35696000D01*
G75*
G02*
X-34280000Y35496000I-200000J0D01*
G01*
X-34680000Y35496000D01*
G75*
G02*
X-34880000Y35696000I0J200000D01*
G01*
X-34880000Y36246000D01*
G75*
G02*
X-34680000Y36446000I200000J0D01*
G01*
X-34280000Y36446000D01*
G75*
G02*
X-34080000Y36246000I0J-200000D01*
G01*
G37*
G04 #@! TD.AperFunction*
G04 #@! TO.P,R2,1*
G04 #@! TO.N,Net-(R2-Pad1)*
G04 #@! TA.AperFunction,SMDPad,CuDef*
G36*
G01*
X-32430000Y36246000D02*
X-32430000Y35696000D01*
G75*
G02*
X-32630000Y35496000I-200000J0D01*
G01*
X-33030000Y35496000D01*
G75*
G02*
X-33230000Y35696000I0J200000D01*
G01*
X-33230000Y36246000D01*
G75*
G02*
X-33030000Y36446000I200000J0D01*
G01*
X-32630000Y36446000D01*
G75*
G02*
X-32430000Y36246000I0J-200000D01*
G01*
G37*
G04 #@! TD.AperFunction*
G04 #@! TD*
G04 #@! TO.P,R1,2*
G04 #@! TO.N,+12V*
G04 #@! TA.AperFunction,SMDPad,CuDef*
G36*
G01*
X-33953000Y92253000D02*
X-33953000Y91703000D01*
G75*
G02*
X-34153000Y91503000I-200000J0D01*
G01*
X-34553000Y91503000D01*
G75*
G02*
X-34753000Y91703000I0J200000D01*
G01*
X-34753000Y92253000D01*
G75*
G02*
X-34553000Y92453000I200000J0D01*
G01*
X-34153000Y92453000D01*
G75*
G02*
X-33953000Y92253000I0J-200000D01*
G01*
G37*
G04 #@! TD.AperFunction*
G04 #@! TO.P,R1,1*
G04 #@! TO.N,Net-(R1-Pad1)*
G04 #@! TA.AperFunction,SMDPad,CuDef*
G36*
G01*
X-32303000Y92253000D02*
X-32303000Y91703000D01*
G75*
G02*
X-32503000Y91503000I-200000J0D01*
G01*
X-32903000Y91503000D01*
G75*
G02*
X-33103000Y91703000I0J200000D01*
G01*
X-33103000Y92253000D01*
G75*
G02*
X-32903000Y92453000I200000J0D01*
G01*
X-32503000Y92453000D01*
G75*
G02*
X-32303000Y92253000I0J-200000D01*
G01*
G37*
G04 #@! TD.AperFunction*
G04 #@! TD*
D18*
G04 #@! TO.P,Q4,3*
G04 #@! TO.N,Net-(Q4-Pad3)*
X-7620000Y63895000D03*
G04 #@! TO.P,Q4,2*
G04 #@! TO.N,GND*
X-6670000Y61895000D03*
G04 #@! TO.P,Q4,1*
G04 #@! TO.N,Net-(Q4-Pad1)*
X-8570000Y61895000D03*
G04 #@! TD*
G04 #@! TO.P,Q3,3*
G04 #@! TO.N,Net-(Q3-Pad3)*
X-28829000Y68499000D03*
G04 #@! TO.P,Q3,2*
G04 #@! TO.N,GND*
X-29779000Y70499000D03*
G04 #@! TO.P,Q3,1*
G04 #@! TO.N,SYNC*
X-27879000Y70499000D03*
G04 #@! TD*
D19*
G04 #@! TO.P,Q2,6*
G04 #@! TO.N,+12V*
X-19814500Y38115000D03*
G04 #@! TO.P,Q2,4*
G04 #@! TO.N,GND*
X-19814500Y36815000D03*
G04 #@! TO.P,Q2,2*
G04 #@! TO.N,Vs_B*
X-21714500Y37465000D03*
G04 #@! TO.P,Q2,5*
G04 #@! TO.N,Net-(C13-Pad2)*
X-19814500Y37465000D03*
G04 #@! TO.P,Q2,3*
G04 #@! TO.N,Iabc_B*
X-21714500Y36815000D03*
G04 #@! TO.P,Q2,1*
G04 #@! TO.N,Net-(C13-Pad2)*
X-21714500Y38115000D03*
G04 #@! TD*
G04 #@! TO.P,Q1,6*
G04 #@! TO.N,+12V*
X-19814500Y93169500D03*
G04 #@! TO.P,Q1,4*
G04 #@! TO.N,GND*
X-19814500Y91869500D03*
G04 #@! TO.P,Q1,2*
G04 #@! TO.N,Vs_A*
X-21714500Y92519500D03*
G04 #@! TO.P,Q1,5*
G04 #@! TO.N,Net-(Q1-Pad1)*
X-19814500Y92519500D03*
G04 #@! TO.P,Q1,3*
G04 #@! TO.N,Iabc_A*
X-21714500Y91869500D03*
G04 #@! TO.P,Q1,1*
G04 #@! TO.N,Net-(Q1-Pad1)*
X-21714500Y93169500D03*
G04 #@! TD*
D20*
G04 #@! TO.P,D2,2*
G04 #@! TO.N,-12V*
X-23368000Y103632000D03*
G04 #@! TO.P,D2,1*
G04 #@! TO.N,Net-(D2-Pad1)*
X-23368000Y106932000D03*
G04 #@! TD*
G04 #@! TO.P,D1,2*
G04 #@! TO.N,Net-(D1-Pad2)*
X-6096000Y103380000D03*
G04 #@! TO.P,D1,1*
G04 #@! TO.N,+12V*
X-6096000Y106680000D03*
G04 #@! TD*
G04 #@! TO.P,C18,2*
G04 #@! TO.N,Net-(C18-Pad2)*
G04 #@! TA.AperFunction,SMDPad,CuDef*
G36*
G01*
X-17343000Y57430000D02*
X-17343000Y56930000D01*
G75*
G02*
X-17568000Y56705000I-225000J0D01*
G01*
X-18018000Y56705000D01*
G75*
G02*
X-18243000Y56930000I0J225000D01*
G01*
X-18243000Y57430000D01*
G75*
G02*
X-18018000Y57655000I225000J0D01*
G01*
X-17568000Y57655000D01*
G75*
G02*
X-17343000Y57430000I0J-225000D01*
G01*
G37*
G04 #@! TD.AperFunction*
G04 #@! TO.P,C18,1*
G04 #@! TO.N,SAW_MIX*
G04 #@! TA.AperFunction,SMDPad,CuDef*
G36*
G01*
X-15793000Y57430000D02*
X-15793000Y56930000D01*
G75*
G02*
X-16018000Y56705000I-225000J0D01*
G01*
X-16468000Y56705000D01*
G75*
G02*
X-16693000Y56930000I0J225000D01*
G01*
X-16693000Y57430000D01*
G75*
G02*
X-16468000Y57655000I225000J0D01*
G01*
X-16018000Y57655000D01*
G75*
G02*
X-15793000Y57430000I0J-225000D01*
G01*
G37*
G04 #@! TD.AperFunction*
G04 #@! TD*
G04 #@! TO.P,C16,2*
G04 #@! TO.N,Net-(C16-Pad2)*
G04 #@! TA.AperFunction,SMDPad,CuDef*
G36*
G01*
X-12315000Y64064000D02*
X-11815000Y64064000D01*
G75*
G02*
X-11590000Y63839000I0J-225000D01*
G01*
X-11590000Y63389000D01*
G75*
G02*
X-11815000Y63164000I-225000J0D01*
G01*
X-12315000Y63164000D01*
G75*
G02*
X-12540000Y63389000I0J225000D01*
G01*
X-12540000Y63839000D01*
G75*
G02*
X-12315000Y64064000I225000J0D01*
G01*
G37*
G04 #@! TD.AperFunction*
G04 #@! TO.P,C16,1*
G04 #@! TO.N,Net-(C16-Pad1)*
G04 #@! TA.AperFunction,SMDPad,CuDef*
G36*
G01*
X-12315000Y65614000D02*
X-11815000Y65614000D01*
G75*
G02*
X-11590000Y65389000I0J-225000D01*
G01*
X-11590000Y64939000D01*
G75*
G02*
X-11815000Y64714000I-225000J0D01*
G01*
X-12315000Y64714000D01*
G75*
G02*
X-12540000Y64939000I0J225000D01*
G01*
X-12540000Y65389000D01*
G75*
G02*
X-12315000Y65614000I225000J0D01*
G01*
G37*
G04 #@! TD.AperFunction*
G04 #@! TD*
G04 #@! TO.P,C15,2*
G04 #@! TO.N,GND*
G04 #@! TA.AperFunction,SMDPad,CuDef*
G36*
G01*
X-28900000Y16379000D02*
X-28900000Y15879000D01*
G75*
G02*
X-29125000Y15654000I-225000J0D01*
G01*
X-29575000Y15654000D01*
G75*
G02*
X-29800000Y15879000I0J225000D01*
G01*
X-29800000Y16379000D01*
G75*
G02*
X-29575000Y16604000I225000J0D01*
G01*
X-29125000Y16604000D01*
G75*
G02*
X-28900000Y16379000I0J-225000D01*
G01*
G37*
G04 #@! TD.AperFunction*
G04 #@! TO.P,C15,1*
G04 #@! TO.N,Net-(C15-Pad1)*
G04 #@! TA.AperFunction,SMDPad,CuDef*
G36*
G01*
X-27350000Y16379000D02*
X-27350000Y15879000D01*
G75*
G02*
X-27575000Y15654000I-225000J0D01*
G01*
X-28025000Y15654000D01*
G75*
G02*
X-28250000Y15879000I0J225000D01*
G01*
X-28250000Y16379000D01*
G75*
G02*
X-28025000Y16604000I225000J0D01*
G01*
X-27575000Y16604000D01*
G75*
G02*
X-27350000Y16379000I0J-225000D01*
G01*
G37*
G04 #@! TD.AperFunction*
G04 #@! TD*
G04 #@! TO.P,C14,2*
G04 #@! TO.N,GND*
G04 #@! TA.AperFunction,SMDPad,CuDef*
G36*
G01*
X-28900000Y72416000D02*
X-28900000Y71916000D01*
G75*
G02*
X-29125000Y71691000I-225000J0D01*
G01*
X-29575000Y71691000D01*
G75*
G02*
X-29800000Y71916000I0J225000D01*
G01*
X-29800000Y72416000D01*
G75*
G02*
X-29575000Y72641000I225000J0D01*
G01*
X-29125000Y72641000D01*
G75*
G02*
X-28900000Y72416000I0J-225000D01*
G01*
G37*
G04 #@! TD.AperFunction*
G04 #@! TO.P,C14,1*
G04 #@! TO.N,SYNC*
G04 #@! TA.AperFunction,SMDPad,CuDef*
G36*
G01*
X-27350000Y72416000D02*
X-27350000Y71916000D01*
G75*
G02*
X-27575000Y71691000I-225000J0D01*
G01*
X-28025000Y71691000D01*
G75*
G02*
X-28250000Y71916000I0J225000D01*
G01*
X-28250000Y72416000D01*
G75*
G02*
X-28025000Y72641000I225000J0D01*
G01*
X-27575000Y72641000D01*
G75*
G02*
X-27350000Y72416000I0J-225000D01*
G01*
G37*
G04 #@! TD.AperFunction*
G04 #@! TD*
G04 #@! TO.P,C13,2*
G04 #@! TO.N,Net-(C13-Pad2)*
G04 #@! TA.AperFunction,SMDPad,CuDef*
G36*
G01*
X-17787500Y34476500D02*
X-17787500Y33976500D01*
G75*
G02*
X-18012500Y33751500I-225000J0D01*
G01*
X-18462500Y33751500D01*
G75*
G02*
X-18687500Y33976500I0J225000D01*
G01*
X-18687500Y34476500D01*
G75*
G02*
X-18462500Y34701500I225000J0D01*
G01*
X-18012500Y34701500D01*
G75*
G02*
X-17787500Y34476500I0J-225000D01*
G01*
G37*
G04 #@! TD.AperFunction*
G04 #@! TO.P,C13,1*
G04 #@! TO.N,FM_A2B*
G04 #@! TA.AperFunction,SMDPad,CuDef*
G36*
G01*
X-16237500Y34476500D02*
X-16237500Y33976500D01*
G75*
G02*
X-16462500Y33751500I-225000J0D01*
G01*
X-16912500Y33751500D01*
G75*
G02*
X-17137500Y33976500I0J225000D01*
G01*
X-17137500Y34476500D01*
G75*
G02*
X-16912500Y34701500I225000J0D01*
G01*
X-16462500Y34701500D01*
G75*
G02*
X-16237500Y34476500I0J-225000D01*
G01*
G37*
G04 #@! TD.AperFunction*
G04 #@! TD*
G04 #@! TO.P,C12,2*
G04 #@! TO.N,EXT_FM*
G04 #@! TA.AperFunction,SMDPad,CuDef*
G36*
G01*
X-13772000Y90648500D02*
X-13772000Y91148500D01*
G75*
G02*
X-13547000Y91373500I225000J0D01*
G01*
X-13097000Y91373500D01*
G75*
G02*
X-12872000Y91148500I0J-225000D01*
G01*
X-12872000Y90648500D01*
G75*
G02*
X-13097000Y90423500I-225000J0D01*
G01*
X-13547000Y90423500D01*
G75*
G02*
X-13772000Y90648500I0J225000D01*
G01*
G37*
G04 #@! TD.AperFunction*
G04 #@! TO.P,C12,1*
G04 #@! TO.N,Net-(C12-Pad1)*
G04 #@! TA.AperFunction,SMDPad,CuDef*
G36*
G01*
X-15322000Y90648500D02*
X-15322000Y91148500D01*
G75*
G02*
X-15097000Y91373500I225000J0D01*
G01*
X-14647000Y91373500D01*
G75*
G02*
X-14422000Y91148500I0J-225000D01*
G01*
X-14422000Y90648500D01*
G75*
G02*
X-14647000Y90423500I-225000J0D01*
G01*
X-15097000Y90423500D01*
G75*
G02*
X-15322000Y90648500I0J225000D01*
G01*
G37*
G04 #@! TD.AperFunction*
G04 #@! TD*
G04 #@! TO.P,C11,2*
G04 #@! TO.N,S_MOD*
G04 #@! TA.AperFunction,SMDPad,CuDef*
G36*
G01*
X-13772000Y88997500D02*
X-13772000Y89497500D01*
G75*
G02*
X-13547000Y89722500I225000J0D01*
G01*
X-13097000Y89722500D01*
G75*
G02*
X-12872000Y89497500I0J-225000D01*
G01*
X-12872000Y88997500D01*
G75*
G02*
X-13097000Y88772500I-225000J0D01*
G01*
X-13547000Y88772500D01*
G75*
G02*
X-13772000Y88997500I0J225000D01*
G01*
G37*
G04 #@! TD.AperFunction*
G04 #@! TO.P,C11,1*
G04 #@! TO.N,Net-(C11-Pad1)*
G04 #@! TA.AperFunction,SMDPad,CuDef*
G36*
G01*
X-15322000Y88997500D02*
X-15322000Y89497500D01*
G75*
G02*
X-15097000Y89722500I225000J0D01*
G01*
X-14647000Y89722500D01*
G75*
G02*
X-14422000Y89497500I0J-225000D01*
G01*
X-14422000Y88997500D01*
G75*
G02*
X-14647000Y88772500I-225000J0D01*
G01*
X-15097000Y88772500D01*
G75*
G02*
X-15322000Y88997500I0J225000D01*
G01*
G37*
G04 #@! TD.AperFunction*
G04 #@! TD*
D21*
G04 #@! TO.P,SW1,3*
G04 #@! TO.N,OSC_B*
X-3699000Y50019000D03*
G04 #@! TO.P,SW1,2*
G04 #@! TO.N,Net-(RV9-Pad1)*
X-8399000Y50019000D03*
G04 #@! TO.P,SW1,1*
G04 #@! TO.N,EXT_SYNC*
X-13099000Y50019000D03*
G04 #@! TD*
D22*
G04 #@! TO.P,RV6,*
G04 #@! TO.N,*
X-14750000Y23191000D03*
X-5250000Y23191000D03*
D14*
G04 #@! TO.P,RV6,3*
G04 #@! TO.N,Net-(R3-Pad1)*
X-12500000Y15691000D03*
G04 #@! TO.P,RV6,2*
G04 #@! TO.N,FM_A2B*
X-10000000Y15691000D03*
G04 #@! TO.P,RV6,1*
G04 #@! TO.N,GND*
X-7500000Y15691000D03*
G04 #@! TD*
D22*
G04 #@! TO.P,RV4,*
G04 #@! TO.N,*
X-32750000Y43528000D03*
X-23250000Y43528000D03*
D14*
G04 #@! TO.P,RV4,3*
G04 #@! TO.N,Net-(R2-Pad1)*
X-30500000Y36028000D03*
G04 #@! TO.P,RV4,2*
G04 #@! TO.N,FREQ_B*
X-28000000Y36028000D03*
G04 #@! TO.P,RV4,1*
G04 #@! TO.N,-12V*
X-25500000Y36028000D03*
G04 #@! TD*
D22*
G04 #@! TO.P,RV3,*
G04 #@! TO.N,*
X-14750000Y79109000D03*
X-5250000Y79109000D03*
D14*
G04 #@! TO.P,RV3,3*
G04 #@! TO.N,TRI_A*
X-12500000Y71609000D03*
G04 #@! TO.P,RV3,2*
G04 #@! TO.N,S_MOD*
X-10000000Y71609000D03*
G04 #@! TO.P,RV3,1*
G04 #@! TO.N,GND*
X-7500000Y71609000D03*
G04 #@! TD*
D22*
G04 #@! TO.P,RV1,*
G04 #@! TO.N,*
X-32750000Y99447000D03*
X-23250000Y99447000D03*
D14*
G04 #@! TO.P,RV1,3*
G04 #@! TO.N,Net-(R1-Pad1)*
X-30500000Y91947000D03*
G04 #@! TO.P,RV1,2*
G04 #@! TO.N,FREQ_A*
X-28000000Y91947000D03*
G04 #@! TO.P,RV1,1*
G04 #@! TO.N,-12V*
X-25500000Y91947000D03*
G04 #@! TD*
D23*
G04 #@! TO.N,GND*
X-13589000Y83342000D03*
X-24257000Y61371000D03*
X-14986000Y72136000D03*
X-17475396Y6233979D03*
X-14986000Y16637000D03*
X-25146000Y18542000D03*
X-24003000Y20066000D03*
X-26289000Y22352000D03*
X-13589000Y27432000D03*
X-4572000Y82550000D03*
X-25146000Y74549000D03*
X-24003000Y75946000D03*
X-27178000Y77216000D03*
D24*
X-20955000Y13208000D03*
D23*
X-3686845Y85008819D03*
X-27051000Y66167000D03*
X-3048000Y102616000D03*
X-27813000Y106582000D03*
X-30353000Y16129000D03*
X-4572000Y26543000D03*
X-4191000Y28702000D03*
X-5715000Y61849000D03*
D24*
X-24638000Y5334000D03*
X-28130500Y7493000D03*
X-12827000Y61341000D03*
D23*
X-14843831Y63738990D03*
D24*
X-10477500Y6032500D03*
X-10033000Y9906000D03*
X-30734000Y70548500D03*
D23*
G04 #@! TO.N,+12V*
X-1016000Y108712000D03*
X-35814000Y91978000D03*
X-35941000Y35971000D03*
D24*
X-35814000Y90551000D03*
D25*
G04 #@! TO.N,S_MOD*
X-3172449Y70482449D03*
X-2918845Y86382167D03*
G04 #@! TO.N,EXT_FM*
X-2032000Y67183000D03*
X-2784010Y89346918D03*
G04 #@! TO.N,FM_A2B*
X-4318000Y14351000D03*
X-5089510Y33518490D03*
G04 #@! TO.N,LINKED*
X-7239000Y88803000D03*
X-2159000Y91059000D03*
X-2032000Y33020000D03*
G04 #@! TO.N,1V_A*
X-3234021Y87709395D03*
G04 #@! TO.N,1V_B*
X-4191000Y32004000D03*
G04 #@! TO.N,Net-(J8-PadT)*
X-34036000Y4826000D03*
G04 #@! TO.N,FREQ_A*
X-28000000Y89849000D03*
G04 #@! TO.N,TUNE_A*
X-30705000Y84674500D03*
X-30705000Y86643000D03*
G04 #@! TO.N,TUNE_B*
X-29591000Y29083000D03*
G04 #@! TO.N,Net-(R14-Pad1)*
X-11938000Y87533000D03*
G04 #@! TO.N,Net-(R15-Pad1)*
X-13081000Y31623000D03*
G04 #@! TO.N,Net-(R17-Pad2)*
X-11049000Y87533000D03*
G04 #@! TO.N,Net-(R18-Pad2)*
X-11811000Y31623000D03*
G04 #@! TO.N,Net-(R25-Pad2)*
X-28829000Y63119000D03*
X-26416000Y55245000D03*
G04 #@! TO.N,OSC_B*
X-3048000Y13589000D03*
G04 #@! TO.N,SQR_MIX*
X-20447000Y6858000D03*
X-20447000Y9017000D03*
G04 #@! TO.N,SAW_MIX*
X-2058051Y55274019D03*
X-27178000Y55880000D03*
X-31242000Y64262000D03*
X-952500Y4699000D03*
G04 #@! TO.N,Vs_A*
X-22542500Y92519500D03*
G04 #@! TO.N,Iabc_A*
X-22225000Y84104000D03*
X-22225000Y87909000D03*
G04 #@! TO.N,Iabc_B*
X-22352000Y27241500D03*
X-22352000Y32448500D03*
G04 #@! TO.N,Net-(Q4-Pad3)*
X-9017000Y60101000D03*
X-9017000Y63690500D03*
G04 #@! TO.N,OSC_A*
X-25400000Y66040000D03*
X-25400000Y55245000D03*
X-2413000Y17907000D03*
X-2482693Y54523430D03*
G04 #@! TO.N,SQR_A*
X-19400000Y69200000D03*
X-19367500Y73904500D03*
G04 #@! TD*
D26*
G04 #@! TO.N,GND*
X-10984000Y83723000D02*
X-12065000Y83723000D01*
X-12375000Y83413000D02*
X-12827000Y83413000D01*
X-12065000Y83723000D02*
X-12375000Y83413000D01*
X-13518000Y83413000D02*
X-13589000Y83342000D01*
X-12827000Y83413000D02*
X-13518000Y83413000D01*
X-22707124Y61864000D02*
X-21912500Y61864000D01*
X-23271124Y61300000D02*
X-22707124Y61864000D01*
X-23495000Y61300000D02*
X-23271124Y61300000D01*
X-24186000Y61300000D02*
X-24257000Y61371000D01*
X-23495000Y61300000D02*
X-24186000Y61300000D01*
X-22541000Y75976000D02*
X-22733000Y75976000D01*
X-29779000Y70499000D02*
X-29779000Y70708000D01*
X-29350000Y71137000D02*
X-29350000Y72166000D01*
X-29779000Y70708000D02*
X-29350000Y71137000D01*
X-15016000Y72166000D02*
X-14986000Y72136000D01*
X-15748000Y72196000D02*
X-15778000Y72166000D01*
X-15748000Y72291000D02*
X-15748000Y72196000D01*
X-15778000Y72166000D02*
X-15016000Y72166000D01*
X-17591000Y72166000D02*
X-15778000Y72166000D01*
X-17383375Y6326000D02*
X-17475396Y6233979D01*
X-16187500Y6326000D02*
X-17383375Y6326000D01*
X-4191000Y85303000D02*
X-3981026Y85303000D01*
X-17591000Y16247000D02*
X-16646000Y16247000D01*
X-16327000Y16566000D02*
X-15748000Y16566000D01*
X-16646000Y16247000D02*
X-16327000Y16566000D01*
X-15057000Y16566000D02*
X-14986000Y16637000D01*
X-15748000Y16566000D02*
X-15057000Y16566000D01*
X-25090000Y18486000D02*
X-25146000Y18542000D01*
X-24384000Y18486000D02*
X-25090000Y18486000D01*
X-23994000Y20057000D02*
X-24003000Y20066000D01*
X-22541000Y20057000D02*
X-23994000Y20057000D01*
X-26352000Y22289000D02*
X-26289000Y22352000D01*
X-26352000Y21336000D02*
X-26352000Y22289000D01*
X-10984000Y27813000D02*
X-12065000Y27813000D01*
X-12375000Y27503000D02*
X-12827000Y27503000D01*
X-12065000Y27813000D02*
X-12375000Y27503000D01*
X-13518000Y27503000D02*
X-13589000Y27432000D01*
X-12827000Y27503000D02*
X-13518000Y27503000D01*
X-4669000Y82453000D02*
X-4572000Y82550000D01*
X-6034000Y82453000D02*
X-4669000Y82453000D01*
X-6670000Y61895000D02*
X-6670000Y61915000D01*
X-6670000Y61915000D02*
X-6604000Y61849000D01*
X-25021000Y74424000D02*
X-25146000Y74549000D01*
X-24384000Y74424000D02*
X-25021000Y74424000D01*
X-23973000Y75976000D02*
X-24003000Y75946000D01*
X-22541000Y75976000D02*
X-23973000Y75976000D01*
X-27148000Y77246000D02*
X-27178000Y77216000D01*
X-26288000Y77246000D02*
X-27148000Y77246000D01*
X-20955000Y12255000D02*
X-20955000Y13208000D01*
X-3981026Y85303000D02*
X-3686845Y85008819D01*
X-27051000Y65214000D02*
X-27051000Y66167000D01*
D27*
X-27813000Y106582000D02*
X-26416000Y106582000D01*
X-3048000Y102616000D02*
X-3048000Y103730000D01*
D26*
X-29350000Y16129000D02*
X-30353000Y16129000D01*
X-6034000Y26543000D02*
X-4572000Y26543000D01*
X-4191000Y29393000D02*
X-4191000Y28702000D01*
X-6604000Y61849000D02*
X-5715000Y61849000D01*
X-23698808Y5326500D02*
X-23812500Y5326500D01*
X-23102490Y5922818D02*
X-23698808Y5326500D01*
X-22707124Y6326000D02*
X-23102490Y5930634D01*
X-21912500Y6326000D02*
X-22707124Y6326000D01*
X-23102490Y5930634D02*
X-23102490Y5922818D01*
X-24630500Y5326500D02*
X-24638000Y5334000D01*
X-23812500Y5326500D02*
X-24630500Y5326500D01*
X-27177500Y7493000D02*
X-28130500Y7493000D01*
X-12834500Y61333500D02*
X-12827000Y61341000D01*
X-13716000Y61333500D02*
X-12834500Y61333500D01*
X-16187500Y63814000D02*
X-14918841Y63814000D01*
X-14918841Y63814000D02*
X-14843831Y63738990D01*
X-10485000Y6025000D02*
X-10477500Y6032500D01*
X-11303000Y6025000D02*
X-10485000Y6025000D01*
X-10034000Y9905000D02*
X-10033000Y9906000D01*
X-11074400Y9905000D02*
X-10034000Y9905000D01*
X-30684500Y70499000D02*
X-30734000Y70548500D01*
X-29779000Y70499000D02*
X-30684500Y70499000D01*
X-19814500Y89969500D02*
X-20764500Y89019500D01*
X-19814500Y91869500D02*
X-19814500Y89969500D01*
X-19814500Y34915000D02*
X-20764500Y33965000D01*
X-19814500Y36815000D02*
X-19814500Y34915000D01*
D28*
G04 #@! TO.N,+12V*
X-6096000Y106680000D02*
X-3048000Y106680000D01*
D26*
X-15593000Y73436000D02*
X-15621000Y73436000D01*
X-17591000Y73436000D02*
X-15621000Y73436000D01*
D28*
X-3048000Y106680000D02*
X-1524000Y106680000D01*
X-1524000Y106680000D02*
X-1016000Y106172000D01*
X-1524000Y106680000D02*
X-1016000Y107188000D01*
X-1016000Y107188000D02*
X-1016000Y108712000D01*
X-1016000Y106172000D02*
X-1016000Y107188000D01*
X-1016000Y106172000D02*
X-1016000Y86360000D01*
D26*
X-1143000Y73436000D02*
X-1016000Y73563000D01*
X-15621000Y73436000D02*
X-1143000Y73436000D01*
D28*
X-1016000Y73563000D02*
X-1016000Y62895000D01*
D26*
X-1143000Y81437000D02*
X-1016000Y81564000D01*
X-15876000Y81437000D02*
X-1143000Y81437000D01*
D28*
X-1016000Y81564000D02*
X-1016000Y73563000D01*
X-1016000Y86009000D02*
X-1016000Y81564000D01*
X-1016000Y87279000D02*
X-1016000Y86009000D01*
D26*
X-1270000Y63149000D02*
X-1016000Y62895000D01*
X-6631999Y60482000D02*
X-1016000Y60482000D01*
X-8663999Y58450000D02*
X-6631999Y60482000D01*
X-9843000Y58450000D02*
X-8663999Y58450000D01*
D28*
X-1016000Y62895000D02*
X-1016000Y60482000D01*
D26*
X-15748000Y73309000D02*
X-15621000Y73436000D01*
X-15748000Y73251000D02*
X-15748000Y73309000D01*
X-10414000Y19431000D02*
X-1016000Y19431000D01*
X-12328000Y17517000D02*
X-10414000Y19431000D01*
X-17591000Y17517000D02*
X-12328000Y17517000D01*
D28*
X-1016000Y60482000D02*
X-1016000Y37973000D01*
D26*
X-16066000Y25527000D02*
X-15431000Y24892000D01*
X-15431000Y24892000D02*
X-762000Y24892000D01*
X-6034000Y30353000D02*
X-969020Y30353000D01*
X-3254847Y85682165D02*
X-1342835Y85682165D01*
X-6034000Y86263000D02*
X-3835682Y86263000D01*
X-1342835Y85682165D02*
X-1016000Y86009000D01*
X-3835682Y86263000D02*
X-3254847Y85682165D01*
X-35814000Y91978000D02*
X-34353000Y91978000D01*
X-34480000Y35971000D02*
X-35941000Y35971000D01*
X-9521002Y62514000D02*
X-9170002Y62865000D01*
X-1046000Y62865000D02*
X-1016000Y62895000D01*
X-9170002Y62865000D02*
X-1046000Y62865000D01*
X-13716000Y62484000D02*
X-13686000Y62514000D01*
X-13716000Y62293500D02*
X-13716000Y62484000D01*
X-13686000Y62514000D02*
X-9521002Y62514000D01*
X-13711023Y62488977D02*
X-13686000Y62514000D01*
X-16187500Y62514000D02*
X-16162477Y62488977D01*
X-16162477Y62488977D02*
X-13711023Y62488977D01*
X-14984544Y6976000D02*
X-14874534Y7086010D01*
X-16187500Y6976000D02*
X-14984544Y6976000D01*
X-1041990Y7086010D02*
X-1016000Y7112000D01*
X-1740490Y7086010D02*
X-1041990Y7086010D01*
D28*
X-1016000Y37973000D02*
X-1016000Y7112000D01*
D26*
X-14874534Y7086010D02*
X-1740490Y7086010D01*
X-1740490Y7086010D02*
X-1498010Y7086010D01*
X-21279997Y93980000D02*
X-22606000Y93980000D01*
X-22606000Y93980000D02*
X-23495000Y93091000D01*
X-19814500Y93169500D02*
X-20469497Y93169500D01*
X-20469497Y93169500D02*
X-21279997Y93980000D01*
X-23495000Y93091000D02*
X-23495000Y91376500D01*
X-23495000Y91376500D02*
X-24320500Y90551000D01*
X-24320500Y90551000D02*
X-35814000Y90551000D01*
X-19089500Y38115000D02*
X-17677500Y36703000D01*
X-19814500Y38115000D02*
X-19089500Y38115000D01*
X-17677500Y36703000D02*
X-14287500Y36703000D01*
X-13017500Y37973000D02*
X-1016000Y37973000D01*
X-14287500Y36703000D02*
X-13017500Y37973000D01*
D28*
G04 #@! TO.N,-12V*
X-23368000Y103632000D02*
X-26416000Y103632000D01*
X-26416000Y103632000D02*
X-35560000Y103632000D01*
X-37084000Y93629000D02*
X-37084000Y86009000D01*
D26*
X-26225000Y70515000D02*
X-26225000Y70198000D01*
X-26225000Y70198000D02*
X-26924000Y69499000D01*
X-26924000Y69499000D02*
X-37084000Y69499000D01*
D28*
X-37084000Y69499000D02*
X-37084000Y62260000D01*
D26*
X-22098000Y85755000D02*
X-36830000Y85755000D01*
X-36830000Y85755000D02*
X-37084000Y86009000D01*
X-20256500Y83913500D02*
X-22098000Y85755000D01*
X-12827000Y82453000D02*
X-10984000Y82453000D01*
X-13970000Y82453000D02*
X-15430500Y83913500D01*
X-12827000Y82453000D02*
X-13970000Y82453000D01*
X-15430500Y83913500D02*
X-20256500Y83913500D01*
X-21912500Y62514000D02*
X-21844000Y62514000D01*
X-23241000Y62514000D02*
X-23495000Y62260000D01*
X-21912500Y62514000D02*
X-23241000Y62514000D01*
X-30480000Y65245000D02*
X-30480000Y62260000D01*
X-30480000Y62260000D02*
X-37084000Y62260000D01*
X-23495000Y62260000D02*
X-30480000Y62260000D01*
D28*
X-37084000Y102108000D02*
X-35560000Y103632000D01*
X-37084000Y93629000D02*
X-37084000Y102108000D01*
D26*
X-24384000Y17526000D02*
X-24375000Y17517000D01*
X-22541000Y17517000D02*
X-24375000Y17517000D01*
D28*
X-37084000Y62260000D02*
X-37084000Y28448000D01*
D26*
X-36666002Y28030002D02*
X-37084000Y28448000D01*
X-10984000Y26543000D02*
X-13884004Y26543000D01*
X-13884004Y26543000D02*
X-15371006Y28030002D01*
X-15371006Y28030002D02*
X-36666002Y28030002D01*
X-36922000Y14478000D02*
X-37084000Y14316000D01*
X-26225000Y14478000D02*
X-36922000Y14478000D01*
X-25500000Y93626000D02*
X-25497000Y93629000D01*
X-25497000Y93629000D02*
X-37084000Y93629000D01*
X-25500000Y91947000D02*
X-25500000Y93626000D01*
X-27221000Y37749000D02*
X-27275000Y37749000D01*
X-25500000Y36028000D02*
X-27221000Y37749000D01*
X-22541000Y73436000D02*
X-26442000Y73436000D01*
D28*
X-37084000Y86009000D02*
X-37084000Y76835000D01*
D26*
X-36948000Y17517000D02*
X-37084000Y17653000D01*
D28*
X-37084000Y17653000D02*
X-37084000Y14316000D01*
X-37084000Y28448000D02*
X-37084000Y17653000D01*
D26*
X-28205000Y17642000D02*
X-28330000Y17517000D01*
X-28205000Y19280001D02*
X-28205000Y17642000D01*
X-28330000Y17517000D02*
X-36948000Y17517000D01*
X-24375000Y17517000D02*
X-28330000Y17517000D01*
X-27275000Y37749000D02*
X-37084000Y37749000D01*
D28*
X-37084000Y76835000D02*
X-37084000Y76611000D01*
D26*
X-23812500Y6286500D02*
X-36131500Y6286500D01*
X-36131500Y6286500D02*
X-37084000Y6286500D01*
D28*
X-37084000Y14316000D02*
X-37084000Y6286500D01*
D26*
X-22905667Y6976000D02*
X-23595167Y6286500D01*
X-21912500Y6976000D02*
X-22905667Y6976000D01*
X-23595167Y6286500D02*
X-23812500Y6286500D01*
D28*
X-37084000Y73342500D02*
X-37084000Y69499000D01*
D26*
X-36990500Y73436000D02*
X-37084000Y73342500D01*
D28*
X-37084000Y76611000D02*
X-37084000Y73342500D01*
D26*
X-28205000Y75199000D02*
X-28205000Y73480500D01*
X-28205000Y73480500D02*
X-28160500Y73436000D01*
X-28160500Y73436000D02*
X-36990500Y73436000D01*
X-26442000Y73436000D02*
X-28160500Y73436000D01*
X-20621455Y94170000D02*
X-21066455Y94615000D01*
X-18034000Y94170000D02*
X-20621455Y94170000D01*
X-21066455Y94615000D02*
X-22923500Y94615000D01*
X-23909500Y93629000D02*
X-25497000Y93629000D01*
X-22923500Y94615000D02*
X-23909500Y93629000D01*
X-18351000Y32512000D02*
X-19430500Y31432500D01*
X-19430500Y31432500D02*
X-24955500Y31432500D01*
X-25500000Y31977000D02*
X-25500000Y36028000D01*
X-24955500Y31432500D02*
X-25500000Y31977000D01*
D29*
G04 #@! TO.N,S_MOD*
X-13131500Y89438000D02*
X-3769424Y89438000D01*
X-2555346Y88223922D02*
X-2555346Y86745666D01*
X-13322000Y89247500D02*
X-13131500Y89438000D01*
X-3769424Y89438000D02*
X-2555346Y88223922D01*
X-2555346Y86745666D02*
X-2918845Y86382167D01*
X-8573450Y70182450D02*
X-10000000Y71609000D01*
X-3472448Y70182450D02*
X-8573450Y70182450D01*
X-3172449Y70482449D02*
X-3472448Y70182450D01*
G04 #@! TO.N,EXT_FM*
X-6095000Y67339000D02*
X-14000000Y67339000D01*
X-4923000Y66167000D02*
X-6095000Y67339000D01*
X-3048000Y66167000D02*
X-2032000Y67183000D01*
X-4923000Y66167000D02*
X-3048000Y66167000D01*
X-13322000Y90423500D02*
X-12941550Y90043050D01*
X-13322000Y90898500D02*
X-13322000Y90423500D01*
X-3480142Y90043050D02*
X-2784010Y89346918D01*
X-12941550Y90043050D02*
X-3480142Y90043050D01*
G04 #@! TO.N,FM_A2B*
X-8660000Y14351000D02*
X-10000000Y15691000D01*
X-4318000Y14351000D02*
X-8660000Y14351000D01*
X-16687500Y34226500D02*
X-15979490Y33518490D01*
X-15611490Y33518490D02*
X-15985510Y33518490D01*
X-5089510Y33518490D02*
X-15611490Y33518490D01*
G04 #@! TO.N,LINKED*
X-12229412Y88803000D02*
X-7239000Y88803000D01*
X-13150392Y87882020D02*
X-12229412Y88803000D01*
X-15207980Y87882020D02*
X-13150392Y87882020D01*
X-16383000Y86707000D02*
X-15207980Y87882020D01*
X-2163000Y91063000D02*
X-2159000Y91059000D01*
X-7214000Y91063000D02*
X-2163000Y91063000D01*
X-2201319Y32967036D02*
X-2032000Y33020000D01*
X-16383000Y30797000D02*
X-16383000Y31197000D01*
X-16383000Y31197000D02*
X-14680311Y32899689D01*
X-14680311Y32899689D02*
X-5395711Y32899689D01*
X-2158511Y32893489D02*
X-2032000Y33020000D01*
X-5395711Y32899689D02*
X-5389511Y32893489D01*
X-5389511Y32893489D02*
X-2158511Y32893489D01*
G04 #@! TO.N,1V_A*
X-12238001Y88158001D02*
X-3682627Y88158001D01*
X-14406990Y87432010D02*
X-12963992Y87432010D01*
X-12963992Y87432010D02*
X-12238001Y88158001D01*
X-14732000Y87107000D02*
X-14406990Y87432010D01*
X-3682627Y88158001D02*
X-3234021Y87709395D01*
X-14732000Y86707000D02*
X-14732000Y87107000D01*
G04 #@! TO.N,EXT_SYNC*
X-8064000Y44984000D02*
X-7214000Y44984000D01*
X-13099000Y50019000D02*
X-8064000Y44984000D01*
G04 #@! TO.N,1V_B*
X-14732000Y31496000D02*
X-13886084Y32341916D01*
X-14732000Y30797000D02*
X-14732000Y31496000D01*
X-4528916Y32341916D02*
X-4655916Y32341916D01*
X-4191000Y32004000D02*
X-4528916Y32341916D01*
X-13886084Y32341916D02*
X-4655916Y32341916D01*
G04 #@! TO.N,Net-(J7-PadT)*
X-22035000Y67339000D02*
X-21590000Y67784000D01*
X-24000000Y67339000D02*
X-22035000Y67339000D01*
G04 #@! TO.N,Net-(J8-PadT)*
X-21672000Y3175000D02*
X-22815000Y4318000D01*
X-21272000Y3175000D02*
X-21672000Y3175000D01*
X-33528000Y4318000D02*
X-34036000Y4826000D01*
X-22815000Y4318000D02*
X-33528000Y4318000D01*
G04 #@! TO.N,Net-(J9-PadT)*
X-25527500Y7494000D02*
X-27177500Y9144000D01*
X-25527500Y7493000D02*
X-25527500Y7494000D01*
X-24901500Y11420000D02*
X-24000000Y11420000D01*
X-27177500Y9144000D02*
X-24901500Y11420000D01*
G04 #@! TO.N,Net-(J10-PadT)*
X-14899000Y12319000D02*
X-14000000Y11420000D01*
X-17082000Y12319000D02*
X-14899000Y12319000D01*
G04 #@! TO.N,Net-(J11-PadT)*
X-34734000Y66605001D02*
X-34000000Y67339001D01*
X-34734000Y64927000D02*
X-34734000Y66605001D01*
G04 #@! TO.N,Net-(R1-Pad1)*
X-30531000Y91978000D02*
X-30500000Y91947000D01*
X-32703000Y91978000D02*
X-30531000Y91978000D01*
G04 #@! TO.N,Net-(R2-Pad1)*
X-30557000Y35971000D02*
X-30500000Y36028000D01*
X-32830000Y35971000D02*
X-30557000Y35971000D01*
G04 #@! TO.N,Net-(R3-Pad1)*
X-10284000Y17907000D02*
X-9842000Y17907000D01*
X-12500000Y15691000D02*
X-10284000Y17907000D01*
G04 #@! TO.N,FREQ_A*
X-27495500Y87249000D02*
X-28000000Y87753500D01*
X-20480500Y87660000D02*
X-20891500Y87249000D01*
X-20891500Y87249000D02*
X-27495500Y87249000D01*
X-18987000Y87660000D02*
X-20480500Y87660000D01*
X-28000000Y87753500D02*
X-28000000Y89849000D01*
X-18034000Y86707000D02*
X-18987000Y87660000D01*
G04 #@! TO.N,TUNE_A*
X-30705000Y75199000D02*
X-30705000Y84674500D01*
X-19749000Y86643000D02*
X-19685000Y86707000D01*
X-30705000Y86643000D02*
X-19749000Y86643000D01*
G04 #@! TO.N,FREQ_B*
X-18034000Y30797000D02*
X-25971000Y30797000D01*
X-28000000Y36028000D02*
X-28000000Y31810000D01*
X-28000000Y31810000D02*
X-26987000Y30797000D01*
X-26987000Y30797000D02*
X-25971000Y30797000D01*
G04 #@! TO.N,TUNE_B*
X-21399000Y29083000D02*
X-21335000Y29147000D01*
X-29591000Y29083000D02*
X-21399000Y29083000D01*
G04 #@! TO.N,Net-(R14-Pad1)*
X-12764000Y86707000D02*
X-11938000Y87533000D01*
X-13081000Y86707000D02*
X-12764000Y86707000D01*
G04 #@! TO.N,Net-(R15-Pad1)*
X-13081000Y30797000D02*
X-13081000Y31623000D01*
G04 #@! TO.N,Net-(R17-Pad2)*
X-11049000Y86328000D02*
X-10984000Y86263000D01*
X-11049000Y87533000D02*
X-11049000Y86328000D01*
X-16702000Y97726000D02*
X-15890000Y96914000D01*
X-18542000Y97726000D02*
X-16702000Y97726000D01*
G04 #@! TO.N,Net-(R18-Pad2)*
X-10984000Y30353000D02*
X-11811000Y31180000D01*
X-11811000Y31180000D02*
X-11811000Y31623000D01*
X-17502500Y42607500D02*
X-15890000Y40995000D01*
X-18351500Y42607500D02*
X-17502500Y42607500D01*
G04 #@! TO.N,Net-(R25-Pad2)*
X-28829000Y65245000D02*
X-28829000Y63119000D01*
X-24036000Y52865000D02*
X-26416000Y55245000D01*
X-23334001Y52865000D02*
X-24036000Y52865000D01*
G04 #@! TO.N,TRI_A*
X-24194000Y70896000D02*
X-22541000Y70896000D01*
X-24575000Y70515000D02*
X-24194000Y70896000D01*
X-17907000Y68038000D02*
X-19558000Y68038000D01*
X-19558000Y68038000D02*
X-20498980Y68038000D01*
X-22465980Y70971020D02*
X-22541000Y70896000D01*
X-20498980Y70971020D02*
X-22465980Y70971020D01*
X-20498980Y68038000D02*
X-20498980Y63541520D01*
X-21912500Y63164000D02*
X-20876500Y63164000D01*
X-20876500Y63164000D02*
X-20498980Y63541520D01*
X-20497960Y69900000D02*
X-20498980Y69898980D01*
X-20498980Y69898980D02*
X-20498980Y70971020D01*
X-20498980Y68038000D02*
X-20498980Y69898980D01*
X-18566000Y75976000D02*
X-17591000Y75976000D01*
X-20498980Y74043020D02*
X-18566000Y75976000D01*
X-20498980Y70971020D02*
X-20498980Y74043020D01*
X-12500000Y71609000D02*
X-14209000Y69900000D01*
X-14782000Y69900000D02*
X-20497960Y69900000D01*
X-14209000Y69900000D02*
X-14782000Y69900000D01*
G04 #@! TO.N,OSC_B*
X-7938000Y13589000D02*
X-3048000Y13589000D01*
X-9462000Y12065000D02*
X-7938000Y13589000D01*
G04 #@! TO.N,Net-(RV9-Pad1)*
X-11245000Y52865000D02*
X-18254001Y52865000D01*
X-8399000Y50019000D02*
X-11245000Y52865000D01*
X-18254001Y52865000D02*
X-20794001Y52865000D01*
G04 #@! TO.N,Net-(C11-Pad1)*
X-16447000Y89247500D02*
X-14872000Y89247500D01*
G04 #@! TO.N,Net-(C12-Pad1)*
X-16447000Y90898500D02*
X-14872000Y90898500D01*
G04 #@! TO.N,Net-(C13-Pad2)*
X-19814500Y37465000D02*
X-20510500Y37465000D01*
X-21160500Y38115000D02*
X-21714500Y38115000D01*
X-20510500Y37465000D02*
X-21160500Y38115000D01*
X-16701000Y32690000D02*
X-18237500Y34226500D01*
X-16701000Y32512000D02*
X-16701000Y32690000D01*
X-18237500Y34226500D02*
X-18237500Y36398500D01*
X-19304000Y37465000D02*
X-19814500Y37465000D01*
X-18237500Y36398500D02*
X-19304000Y37465000D01*
G04 #@! TO.N,SYNC*
X-27879000Y72087000D02*
X-27800000Y72166000D01*
X-27879000Y70499000D02*
X-27879000Y72087000D01*
X-27800000Y72166000D02*
X-26225000Y72166000D01*
G04 #@! TO.N,Net-(C15-Pad1)*
X-27800000Y16129000D02*
X-26225000Y16129000D01*
G04 #@! TO.N,Net-(C16-Pad2)*
X-17250010Y65393990D02*
X-16256000Y66388000D01*
X-17250010Y63489010D02*
X-17250010Y65393990D01*
X-16187500Y63164000D02*
X-16925000Y63164000D01*
X-16925000Y63164000D02*
X-17250010Y63489010D01*
X-12115000Y63530500D02*
X-12065000Y63580500D01*
X-13716000Y63530500D02*
X-12115000Y63530500D01*
X-15341845Y63164000D02*
X-15191833Y63013988D01*
X-16187500Y63164000D02*
X-15341845Y63164000D01*
X-15191833Y63013988D02*
X-14232512Y63013988D01*
X-14232512Y63013988D02*
X-13716000Y63530500D01*
G04 #@! TO.N,Net-(C16-Pad1)*
X-14432500Y64464000D02*
X-13716000Y65180500D01*
X-16187500Y64464000D02*
X-14432500Y64464000D01*
X-12115000Y65180500D02*
X-12065000Y65130500D01*
X-13716000Y65180500D02*
X-12115000Y65180500D01*
X-10464000Y65164000D02*
X-10414000Y65214000D01*
X-12065000Y65164000D02*
X-10464000Y65164000D01*
G04 #@! TO.N,Net-(C17-Pad2)*
X-14325600Y7925300D02*
X-14973800Y7925300D01*
X-15324500Y8276000D02*
X-16187500Y8276000D01*
X-14973800Y7925300D02*
X-15324500Y8276000D01*
X-12750000Y7925300D02*
X-12700000Y7975300D01*
X-14325600Y7925300D02*
X-12750000Y7925300D01*
X-11074400Y8255000D02*
X-11557000Y8255000D01*
X-11836700Y7975300D02*
X-12700000Y7975300D01*
X-11557000Y8255000D02*
X-11836700Y7975300D01*
G04 #@! TO.N,SQR_MIX*
X-21912500Y8926000D02*
X-21808000Y8926000D01*
X-10414000Y2032000D02*
X-20066000Y2032000D01*
X-20066000Y2032000D02*
X-20447000Y2413000D01*
X-20447000Y2413000D02*
X-20447000Y6858000D01*
X-20447000Y9017000D02*
X-20574000Y8890000D01*
X-21876500Y8890000D02*
X-21912500Y8926000D01*
X-20574000Y8890000D02*
X-21876500Y8890000D01*
X-23876500Y9144000D02*
X-23876000Y9143500D01*
X-25527500Y9144000D02*
X-23876500Y9144000D01*
X-23658500Y8926000D02*
X-23876000Y9143500D01*
X-21912500Y8926000D02*
X-23658500Y8926000D01*
X-10414000Y2032500D02*
X-9462000Y2984500D01*
X-10414000Y2032000D02*
X-10414000Y2032500D01*
G04 #@! TO.N,Net-(C18-Pad2)*
X-17793000Y58781000D02*
X-17843000Y58831000D01*
X-17793000Y57180000D02*
X-17793000Y58781000D01*
X-17809000Y61214000D02*
X-17843000Y61180000D01*
X-16187500Y61214000D02*
X-17809000Y61214000D01*
X-17843000Y58831000D02*
X-17843000Y61180000D01*
X-19558000Y62895000D02*
X-17843000Y61180000D01*
X-19558000Y66388000D02*
X-19558000Y62895000D01*
X-11493000Y58450000D02*
X-11493000Y60101000D01*
X-15498942Y61214000D02*
X-16187500Y61214000D01*
X-14385942Y60101000D02*
X-15498942Y61214000D01*
X-11493000Y60101000D02*
X-14385942Y60101000D01*
G04 #@! TO.N,SAW_MIX*
X-16243000Y58781000D02*
X-16193000Y58831000D01*
X-16243000Y57180000D02*
X-16243000Y58781000D01*
X-16193000Y60558500D02*
X-16187500Y60564000D01*
X-16193000Y58831000D02*
X-16193000Y60558500D01*
X-16243000Y55879980D02*
X-16249490Y55873490D01*
X-16243000Y57180000D02*
X-16243000Y55879980D01*
X-16249490Y55873490D02*
X-2657522Y55873490D01*
X-2657522Y55873490D02*
X-2058051Y55274019D01*
X-27171490Y55873490D02*
X-27178000Y55880000D01*
X-16249490Y55873490D02*
X-27171490Y55873490D01*
X-32419000Y64262000D02*
X-33084000Y64927000D01*
X-31242000Y64262000D02*
X-32419000Y64262000D01*
X-1016000Y4635500D02*
X-952500Y4699000D01*
X-9462000Y4635500D02*
X-1016000Y4635500D01*
D28*
G04 #@! TO.N,Net-(D1-Pad2)*
X-19880000Y103378000D02*
X-19880000Y105918000D01*
X-19880000Y103378000D02*
X-18102000Y101600000D01*
X-18102000Y101600000D02*
X-9300000Y101600000D01*
X-7520000Y103380000D02*
X-6096000Y103380000D01*
X-9300000Y101600000D02*
X-7520000Y103380000D01*
G04 #@! TO.N,Net-(D2-Pad1)*
X-9720000Y103378000D02*
X-9720000Y105918000D01*
X-9720000Y105918000D02*
X-11502000Y107700000D01*
X-22600000Y107700000D02*
X-23368000Y106932000D01*
X-11502000Y107700000D02*
X-22600000Y107700000D01*
D29*
G04 #@! TO.N,Vs_A*
X-21714500Y92519500D02*
X-22542500Y92519500D01*
X-18598500Y96019500D02*
X-18542000Y96076000D01*
X-20764500Y96019500D02*
X-18598500Y96019500D01*
G04 #@! TO.N,Net-(Q1-Pad1)*
X-18097000Y90009000D02*
X-18097000Y89247500D01*
X-18097000Y90898500D02*
X-18097000Y90009000D01*
X-18097000Y92457000D02*
X-18034000Y92520000D01*
X-18097000Y90898500D02*
X-18097000Y92457000D01*
X-19814500Y92519500D02*
X-20574000Y92519500D01*
X-21224000Y93169500D02*
X-21714500Y93169500D01*
X-20574000Y92519500D02*
X-21224000Y93169500D01*
X-18034500Y92519500D02*
X-18034000Y92520000D01*
X-19814500Y92519500D02*
X-18034500Y92519500D01*
G04 #@! TO.N,Iabc_A*
X-22225000Y83278000D02*
X-22225000Y84104000D01*
X-22225000Y91359000D02*
X-22225000Y87909000D01*
X-21714500Y91869500D02*
X-22225000Y91359000D01*
G04 #@! TO.N,Vs_B*
X-21714500Y37465000D02*
X-22352000Y37465000D01*
X-22352000Y37465000D02*
X-22542500Y37655500D01*
X-22542500Y39187000D02*
X-20764500Y40965000D01*
X-22542500Y37655500D02*
X-22542500Y39187000D01*
X-20757000Y40957500D02*
X-20764500Y40965000D01*
X-18351500Y40957500D02*
X-20757000Y40957500D01*
G04 #@! TO.N,Iabc_B*
X-22352000Y26860000D02*
X-21019000Y25527000D01*
X-22352000Y27241500D02*
X-22352000Y26860000D01*
X-22352000Y36177500D02*
X-21714500Y36815000D01*
X-22352000Y32448500D02*
X-22352000Y36177500D01*
G04 #@! TO.N,Net-(Q3-Pad3)*
X-28829000Y66895000D02*
X-30480000Y66895000D01*
X-28829000Y66895000D02*
X-28829000Y68499000D01*
G04 #@! TO.N,Net-(Q4-Pad3)*
X-7731000Y63784000D02*
X-7620000Y63895000D01*
X-9843000Y60101000D02*
X-9017000Y60101000D01*
X-7824500Y63690500D02*
X-7620000Y63895000D01*
X-9017000Y63690500D02*
X-7824500Y63690500D01*
X-9047500Y63721000D02*
X-9017000Y63690500D01*
X-10287500Y63690500D02*
X-10414000Y63564000D01*
X-9017000Y63690500D02*
X-10287500Y63690500D01*
G04 #@! TO.N,Net-(Q4-Pad1)*
X-17907000Y62894942D02*
X-17907000Y66388000D01*
X-16876058Y61864000D02*
X-17907000Y62894942D01*
X-16187500Y61864000D02*
X-16876058Y61864000D01*
X-16187500Y61864000D02*
X-15450000Y61864000D01*
X-15450000Y61864000D02*
X-14151998Y60565998D01*
X-14151998Y60565998D02*
X-12454998Y60565998D01*
X-12454998Y60565998D02*
X-11125996Y61895000D01*
X-11125996Y61895000D02*
X-8570000Y61895000D01*
G04 #@! TO.N,OSC_A*
X-23876000Y65117000D02*
X-23685000Y65117000D01*
X-21912500Y65811500D02*
X-21590000Y66134000D01*
X-21912500Y64464000D02*
X-21912500Y65811500D01*
X-22999000Y64464000D02*
X-23749000Y65214000D01*
X-21912500Y64464000D02*
X-22999000Y64464000D01*
X-25350000Y65214000D02*
X-25400000Y65164000D01*
X-23749000Y65214000D02*
X-25350000Y65214000D01*
X-25400000Y65164000D02*
X-25400000Y66040000D01*
X-2251315Y17907000D02*
X-8192000Y17907000D01*
X-3204263Y55245000D02*
X-2482693Y54523430D01*
X-25400000Y55245000D02*
X-3204263Y55245000D01*
X-2413000Y17907000D02*
X-2251315Y17907000D01*
G04 #@! TO.N,Net-(R14-Pad2)*
X-19685000Y85057000D02*
X-18034000Y85057000D01*
X-18034000Y85057000D02*
X-16383000Y85057000D01*
X-16383000Y85057000D02*
X-14732000Y85057000D01*
X-14732000Y85057000D02*
X-13081000Y85057000D01*
X-11048000Y85057000D02*
X-10984000Y84993000D01*
X-13081000Y85057000D02*
X-11048000Y85057000D01*
G04 #@! TO.N,Net-(R10-Pad1)*
X-13017000Y29083000D02*
X-13081000Y29147000D01*
X-10984000Y29083000D02*
X-13017000Y29083000D01*
X-18034000Y29147000D02*
X-16383000Y29147000D01*
X-16383000Y29147000D02*
X-14732000Y29147000D01*
X-14732000Y29147000D02*
X-13081000Y29147000D01*
X-18034000Y29147000D02*
X-19685000Y29147000D01*
G04 #@! TO.N,SQR_A*
X-22541000Y77246000D02*
X-17591000Y77246000D01*
X-17591000Y74706000D02*
X-16891000Y74706000D01*
X-16891000Y74706000D02*
X-16002000Y75595000D01*
X-16637000Y77246000D02*
X-17591000Y77246000D01*
X-16002000Y76611000D02*
X-16637000Y77246000D01*
X-16002000Y75595000D02*
X-16002000Y76611000D01*
X-24638000Y77246000D02*
X-22541000Y77246000D01*
X-18566000Y74706000D02*
X-19367500Y73904500D01*
X-17591000Y74706000D02*
X-18566000Y74706000D01*
X-17418000Y69200000D02*
X-19400000Y69200000D01*
X-16256000Y68038000D02*
X-17418000Y69200000D01*
G04 #@! TO.N,Net-(R29-Pad1)*
X-22225000Y80102000D02*
X-22541000Y79786000D01*
X-22225000Y81628000D02*
X-22225000Y80102000D01*
G04 #@! TO.N,Net-(R30-Pad1)*
X-22669000Y23995000D02*
X-22541000Y23867000D01*
X-22669000Y25527000D02*
X-22669000Y23995000D01*
G04 #@! TO.N,Net-(R31-Pad1)*
X-24575000Y72166000D02*
X-22541000Y72166000D01*
X-21240990Y72491010D02*
X-21240990Y74380990D01*
X-21566000Y72166000D02*
X-21240990Y72491010D01*
X-21566000Y74706000D02*
X-22541000Y74706000D01*
X-21240990Y74380990D02*
X-21566000Y74706000D01*
X-22541000Y72166000D02*
X-21566000Y72166000D01*
G04 #@! TO.N,Net-(R32-Pad1)*
X-21566000Y18787000D02*
X-20955000Y18176000D01*
X-22541000Y18787000D02*
X-21566000Y18787000D01*
X-21566000Y16247000D02*
X-22541000Y16247000D01*
X-20955000Y16858000D02*
X-21566000Y16247000D01*
X-20955000Y18176000D02*
X-20955000Y16858000D01*
X-24457000Y16247000D02*
X-24575000Y16129000D01*
X-22541000Y16247000D02*
X-24457000Y16247000D01*
G04 #@! TO.N,TRI_B*
X-22541000Y14977000D02*
X-23504000Y14977000D01*
X-24003000Y14478000D02*
X-24575000Y14478000D01*
X-23504000Y14977000D02*
X-24003000Y14478000D01*
X-19440000Y20057000D02*
X-17591000Y20057000D01*
X-20066000Y19431000D02*
X-19440000Y20057000D01*
X-20075000Y14977000D02*
X-20066000Y14986000D01*
X-20066000Y14986000D02*
X-17907000Y12827000D01*
X-17907000Y12827000D02*
X-17907000Y8255000D01*
X-17278000Y7626000D02*
X-16187500Y7626000D01*
X-17907000Y8255000D02*
X-17278000Y7626000D01*
X-20066000Y15113000D02*
X-20066000Y19431000D01*
X-20066000Y14986000D02*
X-20066000Y15113000D01*
X-20202000Y14977000D02*
X-20066000Y15113000D01*
X-22541000Y14977000D02*
X-20202000Y14977000D01*
X-20202000Y14977000D02*
X-20075000Y14977000D01*
G04 #@! TO.N,Net-(R39-Pad2)*
X-17591000Y81372000D02*
X-17526000Y81437000D01*
X-17591000Y79786000D02*
X-17591000Y81372000D01*
G04 #@! TO.N,Net-(R40-Pad2)*
X-17716000Y23992000D02*
X-17591000Y23867000D01*
X-17716000Y25527000D02*
X-17716000Y23992000D01*
G04 #@! TO.N,Net-(U1-Pad6)*
X-6034000Y83723000D02*
X-6034000Y84993000D01*
G04 #@! TO.N,Net-(U3-Pad13)*
X-21912500Y61214000D02*
X-21912500Y60564000D01*
G04 #@! TO.N,Net-(U5-Pad6)*
X-6034000Y27813000D02*
X-6034000Y29083000D01*
G04 #@! TO.N,Net-(C24-Pad2)*
X-25450000Y63564000D02*
X-25400000Y63614000D01*
X-27051000Y63564000D02*
X-25450000Y63564000D01*
X-23799000Y63614000D02*
X-23749000Y63564000D01*
X-25400000Y63614000D02*
X-23799000Y63614000D01*
X-23749000Y63564000D02*
X-23050000Y63564000D01*
X-22800000Y63814000D02*
X-21912500Y63814000D01*
X-23050000Y63564000D02*
X-22800000Y63814000D01*
G04 #@! TO.N,Net-(C25-Pad2)*
X-14301000Y6236000D02*
X-14351000Y6286000D01*
X-12700000Y6236000D02*
X-14301000Y6236000D01*
X-14961000Y5676000D02*
X-14351000Y6286000D01*
X-16187500Y5676000D02*
X-14961000Y5676000D01*
X-11112000Y2984500D02*
X-11112000Y4635500D01*
X-12700000Y6223500D02*
X-11112000Y4635500D01*
X-12700000Y6236000D02*
X-12700000Y6223500D01*
G04 #@! TO.N,Net-(C25-Pad1)*
X-17771000Y5026000D02*
X-19622000Y3175000D01*
X-16187500Y5026000D02*
X-17771000Y5026000D01*
X-14741000Y5026000D02*
X-14351000Y4636000D01*
X-16187500Y5026000D02*
X-14741000Y5026000D01*
X-12750000Y4636000D02*
X-12700000Y4686000D01*
X-14351000Y4636000D02*
X-12750000Y4636000D01*
G04 #@! TO.N,Net-(U6-Pad13)*
X-21912500Y5026000D02*
X-21912500Y5676000D01*
G04 #@! TO.N,Net-(C17-Pad1)*
X-11112000Y12065000D02*
X-11176000Y12065000D01*
X-17082000Y10668000D02*
X-17082000Y9208000D01*
X-16800000Y8926000D02*
X-16187500Y8926000D01*
X-17082000Y9208000D02*
X-16800000Y8926000D01*
X-16187500Y8926000D02*
X-15204000Y8926000D01*
X-14554700Y9575300D02*
X-14325600Y9575300D01*
X-15204000Y8926000D02*
X-14554700Y9575300D01*
X-12750000Y9575300D02*
X-12700000Y9525300D01*
X-14325600Y9575300D02*
X-12750000Y9575300D01*
X-12700000Y9525300D02*
X-12700000Y9779000D01*
X-11112000Y11367000D02*
X-11112000Y12065000D01*
X-12700000Y9779000D02*
X-11112000Y11367000D01*
G04 #@! TO.N,Net-(R28-Pad2)*
X-22541000Y21327000D02*
X-17591000Y21327000D01*
X-22550000Y21336000D02*
X-22541000Y21327000D01*
X-24702000Y21336000D02*
X-22550000Y21336000D01*
X-16616000Y21327000D02*
X-16002000Y20713000D01*
X-17591000Y21327000D02*
X-16616000Y21327000D01*
X-16616000Y18787000D02*
X-17591000Y18787000D01*
X-16002000Y19401000D02*
X-16616000Y18787000D01*
X-16002000Y20713000D02*
X-16002000Y19401000D01*
G04 #@! TO.N,Net-(R43-Pad1)*
X-18732000Y10668000D02*
X-18923000Y10477000D01*
X-18923000Y8382000D02*
X-19679000Y7626000D01*
X-18923000Y10477000D02*
X-18923000Y8382000D01*
X-21912500Y7626000D02*
X-19679000Y7626000D01*
X-23743500Y7626000D02*
X-23876000Y7493500D01*
X-21912500Y7626000D02*
X-23743500Y7626000D01*
G04 #@! TO.N,Net-(R45-Pad2)*
X-21912500Y8276000D02*
X-20172000Y8276000D01*
X-18732000Y12319000D02*
X-19558000Y11493000D01*
X-19558000Y8636000D02*
X-19918000Y8276000D01*
X-19622000Y10605000D02*
X-19558000Y10541000D01*
X-20955000Y10605000D02*
X-19622000Y10605000D01*
X-19558000Y10541000D02*
X-19558000Y8636000D01*
X-19558000Y11493000D02*
X-19558000Y10541000D01*
X-19918000Y8276000D02*
X-20172000Y8276000D01*
G04 #@! TD*
M02*
