G04 #@! TF.GenerationSoftware,KiCad,Pcbnew,(6.0.0)*
G04 #@! TF.CreationDate,2022-01-12T09:15:57-08:00*
G04 #@! TF.ProjectId,VCF,5643462e-6b69-4636-9164-5f7063625858,rev?*
G04 #@! TF.SameCoordinates,Original*
G04 #@! TF.FileFunction,Soldermask,Bot*
G04 #@! TF.FilePolarity,Negative*
%FSLAX46Y46*%
G04 Gerber Fmt 4.6, Leading zero omitted, Abs format (unit mm)*
G04 Created by KiCad (PCBNEW (6.0.0)) date 2022-01-12 09:15:57*
%MOMM*%
%LPD*%
G01*
G04 APERTURE LIST*
%ADD10C,2.000000*%
%ADD11O,1.900000X2.000000*%
%ADD12O,2.100000X1.100000*%
%ADD13O,2.100000X1.200000*%
%ADD14C,2.800000*%
%ADD15C,1.800000*%
G04 APERTURE END LIST*
D10*
X19080000Y106520000D03*
X19080000Y103980000D03*
X16540000Y106520000D03*
X16540000Y103980000D03*
X14000000Y106520000D03*
X14000000Y103980000D03*
X11460000Y106520000D03*
X11460000Y103980000D03*
X8920000Y106520000D03*
X8920000Y103980000D03*
D11*
X24000000Y13500500D03*
D12*
X24000000Y2080000D03*
D13*
X24000000Y10380000D03*
D11*
X24000000Y13499500D03*
D12*
X24000000Y24920000D03*
D13*
X24000000Y16620000D03*
D11*
X14000000Y13500500D03*
D12*
X14000000Y2080000D03*
D13*
X14000000Y10380000D03*
X4000000Y16620000D03*
D12*
X4000000Y24920000D03*
D11*
X4000000Y13499500D03*
X4000000Y13500500D03*
D12*
X4000000Y2080000D03*
D13*
X4000000Y10380000D03*
D14*
X18800000Y96998000D03*
X9200000Y96998000D03*
D15*
X16500000Y89498000D03*
X14000000Y89498000D03*
X11500000Y89498000D03*
D11*
X14000000Y13499500D03*
D12*
X14000000Y24920000D03*
D13*
X14000000Y16620000D03*
D15*
X11500000Y31498000D03*
X14000000Y31498000D03*
X16500000Y31498000D03*
D14*
X18800000Y38998000D03*
X9200000Y38998000D03*
D15*
X11500000Y59475500D03*
X14000000Y59475500D03*
X16500000Y59475500D03*
D14*
X9200000Y66975500D03*
X18800000Y66975500D03*
M02*
