M48
; DRILL file {KiCad (6.0.0)} date Wed Jan 12 09:16:01 2022
; FORMAT={-:-/ absolute / inch / decimal}
; #@! TF.CreationDate,2022-01-12T09:16:01-08:00
; #@! TF.GenerationSoftware,Kicad,Pcbnew,(6.0.0)
; #@! TF.FileFunction,MixedPlating,1,2
FMAT,2
INCH
; #@! TA.AperFunction,Plated,PTH,ViaDrill
T1C0.0157
; #@! TA.AperFunction,Plated,PTH,ComponentDrill
T2C0.0157
; #@! TA.AperFunction,Plated,PTH,ComponentDrill
T3C0.0197
; #@! TA.AperFunction,Plated,PTH,ComponentDrill
T4C0.0393
; #@! TA.AperFunction,Plated,PTH,ComponentDrill
T5C0.0433
; #@! TA.AperFunction,Plated,PTH,ComponentDrill
T6C0.0551
; #@! TA.AperFunction,Plated,PTH,ComponentDrill
T7C0.0709
%
G90
G05
T1
X0.09Y2.23
X0.09Y0.77
X0.12Y4.24
X0.14Y2.27
X0.16Y1.58
X0.19Y2.31
X0.19Y1.34
X0.2Y1.28
X0.22Y1.92
X0.24Y2.35
X0.24Y1.99
X0.24Y1.07
X0.25Y0.65
X0.27Y1.86
X0.27Y1.68
X0.28Y0.5
X0.33Y2.87
X0.33Y2.1
X0.33Y1.8
X0.39Y2.97
X0.51Y2.11
X0.51Y1.89
X0.52Y1.64
X0.55Y1.56
X0.56Y2.81
X0.59Y3.02
X0.59Y2.02
X0.59Y1.89
X0.66Y2.43
X0.71Y2.92
X0.71Y2.84
X0.71Y2.78
X0.71Y2.06
X0.71Y0.78
X0.77Y3.15
X0.77Y2.14
X0.77Y1.8
X0.81Y1.02
X0.81Y0.98
X0.83Y1.86
X0.83Y1.68
X0.91Y1.35
X0.91Y1.19
X0.91Y0.78
X0.97Y4.05
X1.01Y2.89
X1.01Y2.84
T4
X0.3512Y4.1937
X0.3512Y4.0937
X0.4512Y4.1937
X0.4512Y4.0937
X0.5512Y4.1937
X0.5512Y4.0937
X0.6512Y4.1937
X0.6512Y4.0937
X0.7512Y4.1937
X0.7512Y4.0937
T5
X0.4528Y3.5235
X0.4528Y2.3416
X0.4528Y1.2401
X0.5512Y3.5235
X0.5512Y2.3416
X0.5512Y1.2401
X0.6496Y3.5235
X0.6496Y2.3416
X0.6496Y1.2401
T7
X0.3622Y3.8188
X0.3622Y2.6368
X0.3622Y1.5354
X0.7402Y3.8188
X0.7402Y2.6368
X0.7402Y1.5354
T2
G00X0.1713Y0.9811
M15
G01X0.1437Y0.9811
M16
G05
G00X0.1437Y0.0819
M15
G01X0.1713Y0.0819
M16
G05
G00X0.565Y0.9811
M15
G01X0.5374Y0.9811
M16
G05
G00X0.5374Y0.0819
M15
G01X0.565Y0.0819
M16
G05
G00X0.9587Y0.9811
M15
G01X0.9311Y0.9811
M16
G05
G00X0.9311Y0.0819
M15
G01X0.9587Y0.0819
M16
G05
T3
G00X0.1693Y0.6543
M15
G01X0.1457Y0.6543
M16
G05
G00X0.1457Y0.4087
M15
G01X0.1693Y0.4087
M16
G05
G00X0.563Y0.6543
M15
G01X0.5394Y0.6543
M16
G05
G00X0.5394Y0.4087
M15
G01X0.563Y0.4087
M16
G05
G00X0.9567Y0.6543
M15
G01X0.9331Y0.6543
M16
G05
G00X0.9331Y0.4087
M15
G01X0.9567Y0.4087
M16
G05
T6
G00X0.1575Y0.5315
M15
G01X0.1575Y0.5315
M16
G05
G00X0.1575Y0.5315
M15
G01X0.1575Y0.5315
M16
G05
G00X0.5512Y0.5315
M15
G01X0.5512Y0.5315
M16
G05
G00X0.5512Y0.5315
M15
G01X0.5512Y0.5315
M16
G05
G00X0.9449Y0.5315
M15
G01X0.9449Y0.5315
M16
G05
G00X0.9449Y0.5315
M15
G01X0.9449Y0.5315
M16
G05
T0
M30
