G04 #@! TF.GenerationSoftware,KiCad,Pcbnew,5.1.10-88a1d61d58~88~ubuntu20.04.1*
G04 #@! TF.CreationDate,2021-04-30T11:23:36-07:00*
G04 #@! TF.ProjectId,vca_panel,7663615f-7061-46e6-956c-2e6b69636164,rev?*
G04 #@! TF.SameCoordinates,Original*
G04 #@! TF.FileFunction,Soldermask,Top*
G04 #@! TF.FilePolarity,Negative*
%FSLAX46Y46*%
G04 Gerber Fmt 4.6, Leading zero omitted, Abs format (unit mm)*
G04 Created by KiCad (PCBNEW 5.1.10-88a1d61d58~88~ubuntu20.04.1) date 2021-04-30 11:23:36*
%MOMM*%
%LPD*%
G01*
G04 APERTURE LIST*
%ADD10C,0.010000*%
%ADD11O,2.300000X1.200000*%
%ADD12C,7.500000*%
%ADD13C,3.000000*%
%ADD14C,7.900000*%
%ADD15C,4.800000*%
G04 APERTURE END LIST*
D10*
G36*
X21151437Y90943910D02*
G01*
X21222888Y90869209D01*
X21281935Y90763841D01*
X21315758Y90644434D01*
X21316554Y90553436D01*
X21269648Y90474365D01*
X21179433Y90437676D01*
X21080331Y90452187D01*
X21037619Y90481981D01*
X21003731Y90559720D01*
X20987750Y90683298D01*
X20990909Y90815543D01*
X21014441Y90919285D01*
X21022598Y90934788D01*
X21080400Y90971313D01*
X21151437Y90943910D01*
G37*
X21151437Y90943910D02*
X21222888Y90869209D01*
X21281935Y90763841D01*
X21315758Y90644434D01*
X21316554Y90553436D01*
X21269648Y90474365D01*
X21179433Y90437676D01*
X21080331Y90452187D01*
X21037619Y90481981D01*
X21003731Y90559720D01*
X20987750Y90683298D01*
X20990909Y90815543D01*
X21014441Y90919285D01*
X21022598Y90934788D01*
X21080400Y90971313D01*
X21151437Y90943910D01*
G36*
X21424208Y55248708D02*
G01*
X21442836Y55144248D01*
X21450666Y55077841D01*
X21450667Y55077578D01*
X21415432Y55042982D01*
X21325206Y54987536D01*
X21203205Y54922822D01*
X21072647Y54860425D01*
X20956748Y54811927D01*
X20878725Y54788912D01*
X20870984Y54788367D01*
X20811275Y54819848D01*
X20754567Y54882420D01*
X20707870Y54994350D01*
X20690478Y55131853D01*
X20703619Y55258512D01*
X20739467Y55330200D01*
X20809847Y55357875D01*
X20944112Y55375733D01*
X21094008Y55381000D01*
X21397750Y55381000D01*
X21424208Y55248708D01*
G37*
X21424208Y55248708D02*
X21442836Y55144248D01*
X21450666Y55077841D01*
X21450667Y55077578D01*
X21415432Y55042982D01*
X21325206Y54987536D01*
X21203205Y54922822D01*
X21072647Y54860425D01*
X20956748Y54811927D01*
X20878725Y54788912D01*
X20870984Y54788367D01*
X20811275Y54819848D01*
X20754567Y54882420D01*
X20707870Y54994350D01*
X20690478Y55131853D01*
X20703619Y55258512D01*
X20739467Y55330200D01*
X20809847Y55357875D01*
X20944112Y55375733D01*
X21094008Y55381000D01*
X21397750Y55381000D01*
X21424208Y55248708D01*
G36*
X21703150Y54457680D02*
G01*
X21739531Y54302658D01*
X21735261Y54202256D01*
X21679032Y54131674D01*
X21559537Y54066113D01*
X21515592Y54046335D01*
X21329573Y53967200D01*
X21201966Y53924440D01*
X21115350Y53916773D01*
X21052307Y53942917D01*
X20995416Y54001590D01*
X20990581Y54007687D01*
X20928931Y54126506D01*
X20899779Y54266870D01*
X20904001Y54400625D01*
X20942474Y54499618D01*
X20974417Y54527069D01*
X21052173Y54549275D01*
X21186058Y54571464D01*
X21347660Y54588965D01*
X21354136Y54589488D01*
X21659773Y54613859D01*
X21703150Y54457680D01*
G37*
X21703150Y54457680D02*
X21739531Y54302658D01*
X21735261Y54202256D01*
X21679032Y54131674D01*
X21559537Y54066113D01*
X21515592Y54046335D01*
X21329573Y53967200D01*
X21201966Y53924440D01*
X21115350Y53916773D01*
X21052307Y53942917D01*
X20995416Y54001590D01*
X20990581Y54007687D01*
X20928931Y54126506D01*
X20899779Y54266870D01*
X20904001Y54400625D01*
X20942474Y54499618D01*
X20974417Y54527069D01*
X21052173Y54549275D01*
X21186058Y54571464D01*
X21347660Y54588965D01*
X21354136Y54589488D01*
X21659773Y54613859D01*
X21703150Y54457680D01*
G36*
X7870960Y93149432D02*
G01*
X8270432Y93054197D01*
X8659907Y92878523D01*
X9032673Y92622062D01*
X9068076Y92592549D01*
X9254387Y92455284D01*
X9463073Y92345119D01*
X9708011Y92257550D01*
X10003080Y92188069D01*
X10362155Y92132173D01*
X10556143Y92109403D01*
X10831513Y92079635D01*
X11135201Y92046775D01*
X11428376Y92015026D01*
X11650500Y91990946D01*
X11784949Y91979251D01*
X11959983Y91969256D01*
X12180656Y91960890D01*
X12452024Y91954084D01*
X12779142Y91948769D01*
X13167065Y91944874D01*
X13620849Y91942331D01*
X14145549Y91941070D01*
X14746220Y91941020D01*
X15227667Y91941694D01*
X18296833Y91947555D01*
X18716861Y92053989D01*
X18897500Y92096930D01*
X19049308Y92127758D01*
X19152521Y92142755D01*
X19184808Y92142036D01*
X19246600Y92148288D01*
X19358094Y92183239D01*
X19467360Y92227414D01*
X19868342Y92360170D01*
X20284190Y92416120D01*
X20704015Y92399114D01*
X21116927Y92313001D01*
X21512038Y92161631D01*
X21878457Y91948852D01*
X22205297Y91678515D01*
X22481666Y91354466D01*
X22633739Y91108168D01*
X22797380Y90725197D01*
X22877166Y90350045D01*
X22873732Y89985091D01*
X22787713Y89632714D01*
X22619746Y89295295D01*
X22370467Y88975214D01*
X22040511Y88674851D01*
X21969047Y88620426D01*
X21550132Y88340474D01*
X21103856Y88104023D01*
X20619802Y87907489D01*
X20087552Y87747289D01*
X19496691Y87619841D01*
X18836800Y87521561D01*
X18741333Y87510272D01*
X18626395Y87501972D01*
X18435159Y87494109D01*
X18175990Y87486725D01*
X17857256Y87479863D01*
X17487323Y87473567D01*
X17074558Y87467878D01*
X16627328Y87462840D01*
X16154000Y87458496D01*
X15662940Y87454889D01*
X15162515Y87452061D01*
X14661092Y87450056D01*
X14167038Y87448916D01*
X13688720Y87448684D01*
X13234503Y87449403D01*
X12812756Y87451116D01*
X12431845Y87453866D01*
X12100136Y87457695D01*
X11825997Y87462647D01*
X11617794Y87468765D01*
X11523500Y87473282D01*
X10573950Y87555986D01*
X9695151Y87684677D01*
X8886670Y87859496D01*
X8148077Y88080586D01*
X7478940Y88348089D01*
X6878826Y88662148D01*
X6347306Y89022906D01*
X6034903Y89285708D01*
X5774748Y89558541D01*
X9216333Y89558541D01*
X9216333Y89380442D01*
X9523250Y89315321D01*
X9856493Y89251069D01*
X10115067Y89215436D01*
X10297553Y89208526D01*
X10402534Y89230443D01*
X10423979Y89249521D01*
X10426515Y89318930D01*
X10346912Y89382417D01*
X10187586Y89438439D01*
X10094285Y89460031D01*
X9847286Y89522973D01*
X9675410Y89597945D01*
X9569264Y89691937D01*
X9519454Y89811944D01*
X9512667Y89892959D01*
X9531178Y90014908D01*
X9594818Y90097383D01*
X9715743Y90148465D01*
X9906109Y90176231D01*
X9943095Y90179000D01*
X10126433Y90202389D01*
X10228245Y90239463D01*
X10249867Y90286520D01*
X10192633Y90339858D01*
X10057881Y90395773D01*
X9846945Y90450563D01*
X9844980Y90450981D01*
X9745237Y90510437D01*
X9679477Y90619144D01*
X9662307Y90743933D01*
X9683716Y90817207D01*
X9742922Y90896614D01*
X9773057Y90914031D01*
X11727082Y90914031D01*
X11728668Y90856769D01*
X11745603Y90731475D01*
X11775014Y90552799D01*
X11814030Y90335392D01*
X11859778Y90093904D01*
X11909385Y89842985D01*
X11959979Y89597286D01*
X12008688Y89371458D01*
X12052639Y89180151D01*
X12088960Y89038015D01*
X12105670Y88983083D01*
X12154752Y88892611D01*
X12217349Y88877588D01*
X12297909Y88939578D01*
X12400882Y89080147D01*
X12406477Y89088917D01*
X12474076Y89200162D01*
X12572394Y89368218D01*
X12691417Y89575670D01*
X12821135Y89805102D01*
X12920765Y89983549D01*
X13059203Y90236509D01*
X13157941Y90426233D01*
X13221084Y90561936D01*
X13227397Y90580065D01*
X14275167Y90580065D01*
X14286816Y90347783D01*
X14298920Y90173543D01*
X14319111Y89954016D01*
X14345035Y89708857D01*
X14374336Y89457718D01*
X14404660Y89220252D01*
X14433652Y89016113D01*
X14458955Y88864955D01*
X14471305Y88808183D01*
X14514262Y88643865D01*
X14881547Y88673494D01*
X15081968Y88692922D01*
X15279558Y88717490D01*
X15437174Y88742478D01*
X15460500Y88747082D01*
X15620986Y88787328D01*
X15705577Y88828995D01*
X15722870Y88878894D01*
X15692661Y88930976D01*
X15651802Y88963719D01*
X15585434Y88980426D01*
X15474952Y88982828D01*
X15301746Y88972658D01*
X15270638Y88970268D01*
X15091403Y88957927D01*
X14974130Y88957162D01*
X14896519Y88971285D01*
X14836272Y89003606D01*
X14789104Y89041748D01*
X14696852Y89150069D01*
X14668010Y89274910D01*
X14691184Y89426066D01*
X14710962Y89482707D01*
X14746922Y89524508D01*
X14815007Y89559067D01*
X14931160Y89593980D01*
X15111324Y89636843D01*
X15153583Y89646395D01*
X15247819Y89693416D01*
X15270000Y89756473D01*
X15259787Y89804743D01*
X15215868Y89830019D01*
X15118325Y89839390D01*
X15034383Y89840333D01*
X14815186Y89861436D01*
X14662211Y89922482D01*
X14579392Y90020078D01*
X14570658Y90150830D01*
X14592753Y90221543D01*
X14643607Y90304637D01*
X14727243Y90367497D01*
X14859045Y90417234D01*
X15054397Y90460962D01*
X15145159Y90476924D01*
X15335203Y90513429D01*
X15452415Y90549760D01*
X15508395Y90592004D01*
X15514748Y90646244D01*
X15508129Y90667297D01*
X15503887Y90673918D01*
X16709671Y90673918D01*
X16715937Y90515526D01*
X16732795Y90309677D01*
X16757931Y90072979D01*
X16789034Y89822036D01*
X16823789Y89573452D01*
X16859884Y89343833D01*
X16895007Y89149785D01*
X16926843Y89007911D01*
X16951596Y88937142D01*
X17005163Y88922146D01*
X17130558Y88923069D01*
X17316624Y88939036D01*
X17552205Y88969174D01*
X17748659Y88999560D01*
X17933236Y89035284D01*
X18044687Y89072482D01*
X18094421Y89117355D01*
X18093847Y89176104D01*
X18090547Y89185411D01*
X18065384Y89222266D01*
X18013243Y89241643D01*
X17915606Y89246274D01*
X17753959Y89238889D01*
X17735759Y89237736D01*
X17569788Y89228636D01*
X17463319Y89231620D01*
X17391397Y89252828D01*
X17329068Y89298401D01*
X17274674Y89351193D01*
X17210187Y89423590D01*
X17158860Y89505161D01*
X17123729Y89591978D01*
X20614037Y89591978D01*
X20617355Y89570259D01*
X20676612Y89513289D01*
X20727753Y89501667D01*
X20789256Y89523228D01*
X20825065Y89600879D01*
X20836520Y89660417D01*
X20902181Y89884964D01*
X21020912Y90044537D01*
X21195641Y90141554D01*
X21429293Y90178431D01*
X21464347Y90178934D01*
X21592021Y90172141D01*
X21681323Y90140277D01*
X21768184Y90066268D01*
X21820542Y90009667D01*
X21938883Y89898500D01*
X22036501Y89845841D01*
X22103003Y89854430D01*
X22127994Y89927010D01*
X22128000Y89928584D01*
X22104955Y89984473D01*
X22041259Y90097190D01*
X21945072Y90254381D01*
X21824552Y90443693D01*
X21687857Y90652772D01*
X21543147Y90869265D01*
X21398580Y91080818D01*
X21262316Y91275077D01*
X21142513Y91439690D01*
X21056241Y91551377D01*
X20969358Y91637321D01*
X20901243Y91651688D01*
X20847849Y91590943D01*
X20805127Y91451552D01*
X20780152Y91310349D01*
X20748665Y91082914D01*
X20717503Y90829807D01*
X20688034Y90565670D01*
X20661628Y90305143D01*
X20639656Y90062870D01*
X20623487Y89853490D01*
X20614491Y89691646D01*
X20614037Y89591978D01*
X17123729Y89591978D01*
X17116479Y89609894D01*
X17078829Y89751778D01*
X17041695Y89944799D01*
X17000863Y90202946D01*
X16984477Y90314305D01*
X16951705Y90515904D01*
X16916812Y90691157D01*
X16884136Y90820347D01*
X16859671Y90881689D01*
X16797726Y90932311D01*
X16749040Y90905152D01*
X16718269Y90806662D01*
X16709671Y90673918D01*
X15503887Y90673918D01*
X15486363Y90701267D01*
X15442107Y90720371D01*
X15358597Y90726357D01*
X15219064Y90720976D01*
X15082864Y90711660D01*
X14878811Y90692668D01*
X14680239Y90667400D01*
X14520800Y90640346D01*
X14480486Y90631290D01*
X14275167Y90580065D01*
X13227397Y90580065D01*
X13252738Y90652836D01*
X13257010Y90708149D01*
X13250783Y90724382D01*
X13200351Y90778633D01*
X13143869Y90779390D01*
X13074066Y90720658D01*
X12983671Y90596440D01*
X12871822Y90411833D01*
X12722456Y90157744D01*
X12605980Y89970159D01*
X12516072Y89840545D01*
X12446414Y89760366D01*
X12390684Y89721087D01*
X12354586Y89713333D01*
X12294926Y89722682D01*
X12246600Y89758736D01*
X12204150Y89833505D01*
X12162119Y89959001D01*
X12115049Y90147234D01*
X12074825Y90329051D01*
X12030672Y90531641D01*
X11991070Y90708633D01*
X11960362Y90840919D01*
X11942936Y90909250D01*
X11889082Y90969476D01*
X11807506Y90978605D01*
X11738667Y90935739D01*
X11727082Y90914031D01*
X9773057Y90914031D01*
X9828652Y90946163D01*
X9956509Y90969537D01*
X10142096Y90970424D01*
X10293587Y90961252D01*
X10480281Y90949033D01*
X10599464Y90947356D01*
X10667822Y90957856D01*
X10702041Y90982166D01*
X10712456Y91002277D01*
X10707988Y91062688D01*
X10634167Y91115777D01*
X10601817Y91130196D01*
X10506491Y91160103D01*
X10360899Y91194420D01*
X10184634Y91229841D01*
X9997290Y91263059D01*
X9818459Y91290768D01*
X9667734Y91309662D01*
X9564709Y91316435D01*
X9529961Y91311073D01*
X9506747Y91254133D01*
X9474262Y91129028D01*
X9435303Y90951398D01*
X9392669Y90736878D01*
X9349159Y90501108D01*
X9307571Y90259724D01*
X9270704Y90028364D01*
X9241356Y89822666D01*
X9222326Y89658267D01*
X9216333Y89558541D01*
X5774748Y89558541D01*
X5729879Y89605596D01*
X5534981Y89891661D01*
X6911067Y89891661D01*
X6922638Y89831102D01*
X6922875Y89830859D01*
X6986042Y89800990D01*
X7111382Y89764099D01*
X7277192Y89724718D01*
X7461770Y89687376D01*
X7643413Y89656607D01*
X7800419Y89636940D01*
X7873578Y89632359D01*
X8000922Y89645850D01*
X8059485Y89695977D01*
X8059664Y89696439D01*
X8062930Y89756147D01*
X8013798Y89804591D01*
X7901484Y89848006D01*
X7723366Y89890921D01*
X7542243Y89945288D01*
X7411856Y90017483D01*
X7388210Y90039126D01*
X7316255Y90167146D01*
X7280795Y90361255D01*
X7281632Y90624786D01*
X7318566Y90961073D01*
X7329173Y91030475D01*
X7360793Y91230035D01*
X7389692Y91412575D01*
X7411868Y91552809D01*
X7420625Y91608303D01*
X7423738Y91715748D01*
X7384296Y91768124D01*
X7374010Y91772674D01*
X7295877Y91776589D01*
X7268337Y91761538D01*
X7233700Y91693469D01*
X7191747Y91559442D01*
X7145131Y91374283D01*
X7096504Y91152815D01*
X7048520Y90909861D01*
X7003830Y90660247D01*
X6965087Y90418796D01*
X6934944Y90200331D01*
X6916053Y90019678D01*
X6911067Y89891661D01*
X5534981Y89891661D01*
X5506143Y89933988D01*
X5360331Y90277834D01*
X5289076Y90644086D01*
X5280368Y90844415D01*
X5308187Y91235472D01*
X5393618Y91583981D01*
X5543564Y91906087D01*
X5764923Y92217932D01*
X5958630Y92431212D01*
X6307381Y92732948D01*
X6679703Y92955986D01*
X7068883Y93099978D01*
X7468206Y93164576D01*
X7870960Y93149432D01*
G37*
X7870960Y93149432D02*
X8270432Y93054197D01*
X8659907Y92878523D01*
X9032673Y92622062D01*
X9068076Y92592549D01*
X9254387Y92455284D01*
X9463073Y92345119D01*
X9708011Y92257550D01*
X10003080Y92188069D01*
X10362155Y92132173D01*
X10556143Y92109403D01*
X10831513Y92079635D01*
X11135201Y92046775D01*
X11428376Y92015026D01*
X11650500Y91990946D01*
X11784949Y91979251D01*
X11959983Y91969256D01*
X12180656Y91960890D01*
X12452024Y91954084D01*
X12779142Y91948769D01*
X13167065Y91944874D01*
X13620849Y91942331D01*
X14145549Y91941070D01*
X14746220Y91941020D01*
X15227667Y91941694D01*
X18296833Y91947555D01*
X18716861Y92053989D01*
X18897500Y92096930D01*
X19049308Y92127758D01*
X19152521Y92142755D01*
X19184808Y92142036D01*
X19246600Y92148288D01*
X19358094Y92183239D01*
X19467360Y92227414D01*
X19868342Y92360170D01*
X20284190Y92416120D01*
X20704015Y92399114D01*
X21116927Y92313001D01*
X21512038Y92161631D01*
X21878457Y91948852D01*
X22205297Y91678515D01*
X22481666Y91354466D01*
X22633739Y91108168D01*
X22797380Y90725197D01*
X22877166Y90350045D01*
X22873732Y89985091D01*
X22787713Y89632714D01*
X22619746Y89295295D01*
X22370467Y88975214D01*
X22040511Y88674851D01*
X21969047Y88620426D01*
X21550132Y88340474D01*
X21103856Y88104023D01*
X20619802Y87907489D01*
X20087552Y87747289D01*
X19496691Y87619841D01*
X18836800Y87521561D01*
X18741333Y87510272D01*
X18626395Y87501972D01*
X18435159Y87494109D01*
X18175990Y87486725D01*
X17857256Y87479863D01*
X17487323Y87473567D01*
X17074558Y87467878D01*
X16627328Y87462840D01*
X16154000Y87458496D01*
X15662940Y87454889D01*
X15162515Y87452061D01*
X14661092Y87450056D01*
X14167038Y87448916D01*
X13688720Y87448684D01*
X13234503Y87449403D01*
X12812756Y87451116D01*
X12431845Y87453866D01*
X12100136Y87457695D01*
X11825997Y87462647D01*
X11617794Y87468765D01*
X11523500Y87473282D01*
X10573950Y87555986D01*
X9695151Y87684677D01*
X8886670Y87859496D01*
X8148077Y88080586D01*
X7478940Y88348089D01*
X6878826Y88662148D01*
X6347306Y89022906D01*
X6034903Y89285708D01*
X5774748Y89558541D01*
X9216333Y89558541D01*
X9216333Y89380442D01*
X9523250Y89315321D01*
X9856493Y89251069D01*
X10115067Y89215436D01*
X10297553Y89208526D01*
X10402534Y89230443D01*
X10423979Y89249521D01*
X10426515Y89318930D01*
X10346912Y89382417D01*
X10187586Y89438439D01*
X10094285Y89460031D01*
X9847286Y89522973D01*
X9675410Y89597945D01*
X9569264Y89691937D01*
X9519454Y89811944D01*
X9512667Y89892959D01*
X9531178Y90014908D01*
X9594818Y90097383D01*
X9715743Y90148465D01*
X9906109Y90176231D01*
X9943095Y90179000D01*
X10126433Y90202389D01*
X10228245Y90239463D01*
X10249867Y90286520D01*
X10192633Y90339858D01*
X10057881Y90395773D01*
X9846945Y90450563D01*
X9844980Y90450981D01*
X9745237Y90510437D01*
X9679477Y90619144D01*
X9662307Y90743933D01*
X9683716Y90817207D01*
X9742922Y90896614D01*
X9773057Y90914031D01*
X11727082Y90914031D01*
X11728668Y90856769D01*
X11745603Y90731475D01*
X11775014Y90552799D01*
X11814030Y90335392D01*
X11859778Y90093904D01*
X11909385Y89842985D01*
X11959979Y89597286D01*
X12008688Y89371458D01*
X12052639Y89180151D01*
X12088960Y89038015D01*
X12105670Y88983083D01*
X12154752Y88892611D01*
X12217349Y88877588D01*
X12297909Y88939578D01*
X12400882Y89080147D01*
X12406477Y89088917D01*
X12474076Y89200162D01*
X12572394Y89368218D01*
X12691417Y89575670D01*
X12821135Y89805102D01*
X12920765Y89983549D01*
X13059203Y90236509D01*
X13157941Y90426233D01*
X13221084Y90561936D01*
X13227397Y90580065D01*
X14275167Y90580065D01*
X14286816Y90347783D01*
X14298920Y90173543D01*
X14319111Y89954016D01*
X14345035Y89708857D01*
X14374336Y89457718D01*
X14404660Y89220252D01*
X14433652Y89016113D01*
X14458955Y88864955D01*
X14471305Y88808183D01*
X14514262Y88643865D01*
X14881547Y88673494D01*
X15081968Y88692922D01*
X15279558Y88717490D01*
X15437174Y88742478D01*
X15460500Y88747082D01*
X15620986Y88787328D01*
X15705577Y88828995D01*
X15722870Y88878894D01*
X15692661Y88930976D01*
X15651802Y88963719D01*
X15585434Y88980426D01*
X15474952Y88982828D01*
X15301746Y88972658D01*
X15270638Y88970268D01*
X15091403Y88957927D01*
X14974130Y88957162D01*
X14896519Y88971285D01*
X14836272Y89003606D01*
X14789104Y89041748D01*
X14696852Y89150069D01*
X14668010Y89274910D01*
X14691184Y89426066D01*
X14710962Y89482707D01*
X14746922Y89524508D01*
X14815007Y89559067D01*
X14931160Y89593980D01*
X15111324Y89636843D01*
X15153583Y89646395D01*
X15247819Y89693416D01*
X15270000Y89756473D01*
X15259787Y89804743D01*
X15215868Y89830019D01*
X15118325Y89839390D01*
X15034383Y89840333D01*
X14815186Y89861436D01*
X14662211Y89922482D01*
X14579392Y90020078D01*
X14570658Y90150830D01*
X14592753Y90221543D01*
X14643607Y90304637D01*
X14727243Y90367497D01*
X14859045Y90417234D01*
X15054397Y90460962D01*
X15145159Y90476924D01*
X15335203Y90513429D01*
X15452415Y90549760D01*
X15508395Y90592004D01*
X15514748Y90646244D01*
X15508129Y90667297D01*
X15503887Y90673918D01*
X16709671Y90673918D01*
X16715937Y90515526D01*
X16732795Y90309677D01*
X16757931Y90072979D01*
X16789034Y89822036D01*
X16823789Y89573452D01*
X16859884Y89343833D01*
X16895007Y89149785D01*
X16926843Y89007911D01*
X16951596Y88937142D01*
X17005163Y88922146D01*
X17130558Y88923069D01*
X17316624Y88939036D01*
X17552205Y88969174D01*
X17748659Y88999560D01*
X17933236Y89035284D01*
X18044687Y89072482D01*
X18094421Y89117355D01*
X18093847Y89176104D01*
X18090547Y89185411D01*
X18065384Y89222266D01*
X18013243Y89241643D01*
X17915606Y89246274D01*
X17753959Y89238889D01*
X17735759Y89237736D01*
X17569788Y89228636D01*
X17463319Y89231620D01*
X17391397Y89252828D01*
X17329068Y89298401D01*
X17274674Y89351193D01*
X17210187Y89423590D01*
X17158860Y89505161D01*
X17123729Y89591978D01*
X20614037Y89591978D01*
X20617355Y89570259D01*
X20676612Y89513289D01*
X20727753Y89501667D01*
X20789256Y89523228D01*
X20825065Y89600879D01*
X20836520Y89660417D01*
X20902181Y89884964D01*
X21020912Y90044537D01*
X21195641Y90141554D01*
X21429293Y90178431D01*
X21464347Y90178934D01*
X21592021Y90172141D01*
X21681323Y90140277D01*
X21768184Y90066268D01*
X21820542Y90009667D01*
X21938883Y89898500D01*
X22036501Y89845841D01*
X22103003Y89854430D01*
X22127994Y89927010D01*
X22128000Y89928584D01*
X22104955Y89984473D01*
X22041259Y90097190D01*
X21945072Y90254381D01*
X21824552Y90443693D01*
X21687857Y90652772D01*
X21543147Y90869265D01*
X21398580Y91080818D01*
X21262316Y91275077D01*
X21142513Y91439690D01*
X21056241Y91551377D01*
X20969358Y91637321D01*
X20901243Y91651688D01*
X20847849Y91590943D01*
X20805127Y91451552D01*
X20780152Y91310349D01*
X20748665Y91082914D01*
X20717503Y90829807D01*
X20688034Y90565670D01*
X20661628Y90305143D01*
X20639656Y90062870D01*
X20623487Y89853490D01*
X20614491Y89691646D01*
X20614037Y89591978D01*
X17123729Y89591978D01*
X17116479Y89609894D01*
X17078829Y89751778D01*
X17041695Y89944799D01*
X17000863Y90202946D01*
X16984477Y90314305D01*
X16951705Y90515904D01*
X16916812Y90691157D01*
X16884136Y90820347D01*
X16859671Y90881689D01*
X16797726Y90932311D01*
X16749040Y90905152D01*
X16718269Y90806662D01*
X16709671Y90673918D01*
X15503887Y90673918D01*
X15486363Y90701267D01*
X15442107Y90720371D01*
X15358597Y90726357D01*
X15219064Y90720976D01*
X15082864Y90711660D01*
X14878811Y90692668D01*
X14680239Y90667400D01*
X14520800Y90640346D01*
X14480486Y90631290D01*
X14275167Y90580065D01*
X13227397Y90580065D01*
X13252738Y90652836D01*
X13257010Y90708149D01*
X13250783Y90724382D01*
X13200351Y90778633D01*
X13143869Y90779390D01*
X13074066Y90720658D01*
X12983671Y90596440D01*
X12871822Y90411833D01*
X12722456Y90157744D01*
X12605980Y89970159D01*
X12516072Y89840545D01*
X12446414Y89760366D01*
X12390684Y89721087D01*
X12354586Y89713333D01*
X12294926Y89722682D01*
X12246600Y89758736D01*
X12204150Y89833505D01*
X12162119Y89959001D01*
X12115049Y90147234D01*
X12074825Y90329051D01*
X12030672Y90531641D01*
X11991070Y90708633D01*
X11960362Y90840919D01*
X11942936Y90909250D01*
X11889082Y90969476D01*
X11807506Y90978605D01*
X11738667Y90935739D01*
X11727082Y90914031D01*
X9773057Y90914031D01*
X9828652Y90946163D01*
X9956509Y90969537D01*
X10142096Y90970424D01*
X10293587Y90961252D01*
X10480281Y90949033D01*
X10599464Y90947356D01*
X10667822Y90957856D01*
X10702041Y90982166D01*
X10712456Y91002277D01*
X10707988Y91062688D01*
X10634167Y91115777D01*
X10601817Y91130196D01*
X10506491Y91160103D01*
X10360899Y91194420D01*
X10184634Y91229841D01*
X9997290Y91263059D01*
X9818459Y91290768D01*
X9667734Y91309662D01*
X9564709Y91316435D01*
X9529961Y91311073D01*
X9506747Y91254133D01*
X9474262Y91129028D01*
X9435303Y90951398D01*
X9392669Y90736878D01*
X9349159Y90501108D01*
X9307571Y90259724D01*
X9270704Y90028364D01*
X9241356Y89822666D01*
X9222326Y89658267D01*
X9216333Y89558541D01*
X5774748Y89558541D01*
X5729879Y89605596D01*
X5534981Y89891661D01*
X6911067Y89891661D01*
X6922638Y89831102D01*
X6922875Y89830859D01*
X6986042Y89800990D01*
X7111382Y89764099D01*
X7277192Y89724718D01*
X7461770Y89687376D01*
X7643413Y89656607D01*
X7800419Y89636940D01*
X7873578Y89632359D01*
X8000922Y89645850D01*
X8059485Y89695977D01*
X8059664Y89696439D01*
X8062930Y89756147D01*
X8013798Y89804591D01*
X7901484Y89848006D01*
X7723366Y89890921D01*
X7542243Y89945288D01*
X7411856Y90017483D01*
X7388210Y90039126D01*
X7316255Y90167146D01*
X7280795Y90361255D01*
X7281632Y90624786D01*
X7318566Y90961073D01*
X7329173Y91030475D01*
X7360793Y91230035D01*
X7389692Y91412575D01*
X7411868Y91552809D01*
X7420625Y91608303D01*
X7423738Y91715748D01*
X7384296Y91768124D01*
X7374010Y91772674D01*
X7295877Y91776589D01*
X7268337Y91761538D01*
X7233700Y91693469D01*
X7191747Y91559442D01*
X7145131Y91374283D01*
X7096504Y91152815D01*
X7048520Y90909861D01*
X7003830Y90660247D01*
X6965087Y90418796D01*
X6934944Y90200331D01*
X6916053Y90019678D01*
X6911067Y89891661D01*
X5534981Y89891661D01*
X5506143Y89933988D01*
X5360331Y90277834D01*
X5289076Y90644086D01*
X5280368Y90844415D01*
X5308187Y91235472D01*
X5393618Y91583981D01*
X5543564Y91906087D01*
X5764923Y92217932D01*
X5958630Y92431212D01*
X6307381Y92732948D01*
X6679703Y92955986D01*
X7068883Y93099978D01*
X7468206Y93164576D01*
X7870960Y93149432D01*
G36*
X7909264Y57107651D02*
G01*
X8160476Y57072079D01*
X8405265Y56995676D01*
X8665809Y56871629D01*
X8945782Y56704940D01*
X9285820Y56503201D01*
X9633593Y56328113D01*
X9997797Y56177708D01*
X10387129Y56050018D01*
X10810285Y55943074D01*
X11275962Y55854909D01*
X11792857Y55783554D01*
X12369667Y55727041D01*
X13015086Y55683401D01*
X13576667Y55656835D01*
X13826541Y55644962D01*
X14132473Y55627546D01*
X14466169Y55606363D01*
X14799336Y55583189D01*
X15037167Y55565149D01*
X15485109Y55535841D01*
X15919586Y55519094D01*
X16313040Y55515763D01*
X16497667Y55519805D01*
X16742795Y55531362D01*
X16959629Y55549808D01*
X17162720Y55578887D01*
X17366621Y55622343D01*
X17585883Y55683918D01*
X17835058Y55767357D01*
X18128698Y55876401D01*
X18481354Y56014795D01*
X18588504Y56057650D01*
X19115078Y56256162D01*
X19582810Y56404068D01*
X20000094Y56502217D01*
X20375325Y56551458D01*
X20716898Y56552642D01*
X21033206Y56506616D01*
X21332644Y56414232D01*
X21480075Y56350248D01*
X21779634Y56164607D01*
X22053094Y55911725D01*
X22287414Y55608015D01*
X22469552Y55269888D01*
X22571179Y54977074D01*
X22619935Y54695550D01*
X22635344Y54378320D01*
X22617936Y54060758D01*
X22568243Y53778241D01*
X22552346Y53722080D01*
X22423763Y53403024D01*
X22244145Y53126725D01*
X22003930Y52882468D01*
X21693557Y52659536D01*
X21508938Y52552645D01*
X20623526Y52118965D01*
X19707706Y51763406D01*
X18766532Y51487655D01*
X17805059Y51293399D01*
X17680427Y51274452D01*
X17439061Y51243821D01*
X17143499Y51213635D01*
X16812923Y51185168D01*
X16466518Y51159695D01*
X16123465Y51138491D01*
X15802948Y51122831D01*
X15524149Y51113991D01*
X15306253Y51113245D01*
X15270000Y51114237D01*
X15107941Y51119824D01*
X14904587Y51126733D01*
X14703265Y51133491D01*
X14698500Y51133650D01*
X14193219Y51153255D01*
X13668707Y51178708D01*
X13138400Y51209028D01*
X12615739Y51243239D01*
X12114162Y51280361D01*
X11647106Y51319415D01*
X11228012Y51359424D01*
X10870317Y51399408D01*
X10655667Y51428023D01*
X9845308Y51571267D01*
X9081824Y51756213D01*
X8374859Y51980092D01*
X7734056Y52240140D01*
X7593962Y52306274D01*
X7114449Y52557156D01*
X6713869Y52806511D01*
X6386695Y53058752D01*
X6127401Y53318294D01*
X5940875Y53575207D01*
X9216333Y53575207D01*
X9216333Y53397109D01*
X9523250Y53331988D01*
X9856493Y53267735D01*
X10115067Y53232102D01*
X10297553Y53225193D01*
X10402534Y53247110D01*
X10423979Y53266188D01*
X10426515Y53335597D01*
X10346912Y53399083D01*
X10187586Y53455105D01*
X10094285Y53476698D01*
X9847286Y53539640D01*
X9675410Y53614611D01*
X9569264Y53708604D01*
X9519454Y53828610D01*
X9512667Y53909626D01*
X9531178Y54031574D01*
X9594818Y54114050D01*
X9715743Y54165132D01*
X9906109Y54192898D01*
X9943095Y54195667D01*
X10126433Y54219056D01*
X10228245Y54256130D01*
X10249867Y54303187D01*
X10192633Y54356524D01*
X10057881Y54412439D01*
X9846945Y54467229D01*
X9844980Y54467648D01*
X9745237Y54527103D01*
X9679477Y54635810D01*
X9662307Y54760600D01*
X9683716Y54833874D01*
X9742922Y54913281D01*
X9794950Y54943351D01*
X11731937Y54943351D01*
X11733447Y54885657D01*
X11750537Y54759464D01*
X11780503Y54578937D01*
X11820638Y54358245D01*
X11868235Y54111555D01*
X11920589Y53853035D01*
X11974994Y53596851D01*
X12028742Y53357173D01*
X12060509Y53223242D01*
X12115637Y53030740D01*
X12170666Y52920051D01*
X12231216Y52888514D01*
X12302909Y52933468D01*
X12391365Y53052253D01*
X12398368Y53063326D01*
X12497413Y53226515D01*
X12612526Y53424792D01*
X12736687Y53645077D01*
X12862875Y53874288D01*
X12984072Y54099347D01*
X13093255Y54307171D01*
X13183405Y54484680D01*
X13243506Y54610435D01*
X14283991Y54610435D01*
X14311628Y54180801D01*
X14328371Y53965005D01*
X14351847Y53721968D01*
X14379751Y53470255D01*
X14409775Y53228428D01*
X14439614Y53015052D01*
X14466960Y52848690D01*
X14489509Y52747908D01*
X14489741Y52747171D01*
X14508580Y52706315D01*
X14544819Y52683154D01*
X14616187Y52675123D01*
X14740409Y52679658D01*
X14883917Y52690154D01*
X15088260Y52710242D01*
X15293551Y52737150D01*
X15460468Y52765613D01*
X15482692Y52770337D01*
X15620343Y52807070D01*
X15691573Y52845669D01*
X15714197Y52896522D01*
X15714500Y52905490D01*
X15708537Y52943376D01*
X15680511Y52967721D01*
X15615214Y52981490D01*
X15497442Y52987647D01*
X15311988Y52989157D01*
X15285347Y52989167D01*
X15042890Y52995714D01*
X14872696Y53019419D01*
X14763088Y53066382D01*
X14702388Y53142699D01*
X14678919Y53254470D01*
X14677333Y53306667D01*
X14703661Y53454509D01*
X14788966Y53554251D01*
X14942733Y53615435D01*
X14994833Y53626157D01*
X15171274Y53668644D01*
X15267739Y53719791D01*
X15288702Y53782186D01*
X15285061Y53794146D01*
X15240683Y53833416D01*
X15136769Y53853114D01*
X15016160Y53857000D01*
X14817179Y53880024D01*
X14671420Y53943029D01*
X14586422Y54036913D01*
X14569726Y54152575D01*
X14628870Y54280914D01*
X14646711Y54302992D01*
X14711328Y54363578D01*
X14797082Y54408956D01*
X14924695Y54447146D01*
X15114888Y54486169D01*
X15124498Y54487935D01*
X15306200Y54523595D01*
X15419357Y54553689D01*
X15479270Y54584407D01*
X15501240Y54621943D01*
X15502833Y54641046D01*
X15496314Y54681519D01*
X15487144Y54688827D01*
X16709333Y54688827D01*
X16715401Y54537430D01*
X16732062Y54337032D01*
X16756999Y54104218D01*
X16787898Y53855569D01*
X16822442Y53607671D01*
X16858316Y53377106D01*
X16893205Y53180458D01*
X16924794Y53034309D01*
X16950765Y52955244D01*
X16951596Y52953809D01*
X17005163Y52938813D01*
X17130558Y52939735D01*
X17316624Y52955703D01*
X17552205Y52985841D01*
X17748659Y53016226D01*
X17933236Y53051951D01*
X18044687Y53089149D01*
X18094421Y53134021D01*
X18093847Y53192771D01*
X18090547Y53202078D01*
X18065384Y53238933D01*
X18013243Y53258310D01*
X17915606Y53262941D01*
X17753959Y53255556D01*
X17735759Y53254403D01*
X17569788Y53245303D01*
X17463319Y53248287D01*
X17391397Y53269495D01*
X17329068Y53315068D01*
X17274674Y53367860D01*
X17210187Y53440256D01*
X17158860Y53521828D01*
X17116479Y53626561D01*
X17078829Y53768444D01*
X17041695Y53961466D01*
X17000863Y54219613D01*
X16984477Y54330972D01*
X16951705Y54532570D01*
X16916812Y54707824D01*
X16884136Y54837014D01*
X16859671Y54898356D01*
X16797735Y54949000D01*
X16749055Y54921764D01*
X16718181Y54822986D01*
X16709333Y54688827D01*
X15487144Y54688827D01*
X15465762Y54705867D01*
X15394690Y54717623D01*
X15266607Y54720319D01*
X15139887Y54718802D01*
X14933018Y54709434D01*
X14722129Y54690277D01*
X14548751Y54665227D01*
X14530466Y54661603D01*
X14283991Y54610435D01*
X13243506Y54610435D01*
X13247502Y54618794D01*
X13278525Y54696432D01*
X13280333Y54706644D01*
X13269599Y54768569D01*
X13219505Y54796000D01*
X13148189Y54805267D01*
X13111318Y54771979D01*
X13042144Y54677589D01*
X12949355Y54535080D01*
X12841639Y54357431D01*
X12796832Y54280333D01*
X12676086Y54072194D01*
X12587257Y53926952D01*
X12521279Y53833417D01*
X12469087Y53780402D01*
X12421613Y53756716D01*
X12369791Y53751170D01*
X12368060Y53751167D01*
X12310160Y53757535D01*
X12262933Y53783897D01*
X12221833Y53841135D01*
X12182314Y53940132D01*
X12139828Y54091772D01*
X12089830Y54306939D01*
X12040900Y54534333D01*
X11997076Y54733197D01*
X11962258Y54863603D01*
X11930306Y54940396D01*
X11895078Y54978421D01*
X11851394Y54992386D01*
X11764472Y54978725D01*
X11731937Y54943351D01*
X9794950Y54943351D01*
X9828652Y54962829D01*
X9956509Y54986204D01*
X10142096Y54987091D01*
X10293587Y54977918D01*
X10480281Y54965700D01*
X10599464Y54964023D01*
X10667822Y54974523D01*
X10702041Y54998832D01*
X10712456Y55018944D01*
X10707988Y55079355D01*
X10634167Y55132444D01*
X10601817Y55146863D01*
X10506491Y55176770D01*
X10360899Y55211087D01*
X10184634Y55246508D01*
X9997290Y55279726D01*
X9818459Y55307435D01*
X9667734Y55326329D01*
X9564709Y55333101D01*
X9529961Y55327739D01*
X9506747Y55270799D01*
X9474262Y55145695D01*
X9435303Y54968064D01*
X9392669Y54753545D01*
X9349159Y54517774D01*
X9307571Y54276390D01*
X9270704Y54045030D01*
X9241356Y53839332D01*
X9222326Y53674934D01*
X9216333Y53575207D01*
X5940875Y53575207D01*
X5930462Y53589549D01*
X5883417Y53672547D01*
X5786076Y53908327D01*
X6911067Y53908327D01*
X6922638Y53847769D01*
X6922875Y53847525D01*
X6986042Y53817657D01*
X7111382Y53780766D01*
X7277192Y53741384D01*
X7461770Y53704043D01*
X7643413Y53673273D01*
X7800419Y53653607D01*
X7873578Y53649026D01*
X8000922Y53662517D01*
X8059485Y53712644D01*
X8059664Y53713106D01*
X8062930Y53772814D01*
X8013798Y53821258D01*
X7901484Y53864673D01*
X7723366Y53907587D01*
X7542243Y53961955D01*
X7411856Y54034149D01*
X7388210Y54055793D01*
X7316255Y54183812D01*
X7280795Y54377921D01*
X7281632Y54641453D01*
X7318566Y54977739D01*
X7329173Y55047142D01*
X7360793Y55246701D01*
X7380207Y55369330D01*
X20350570Y55369330D01*
X20361271Y55298338D01*
X20390200Y55162126D01*
X20433190Y54977126D01*
X20486078Y54759770D01*
X20544697Y54526490D01*
X20604884Y54293717D01*
X20662472Y54077884D01*
X20713298Y53895423D01*
X20753196Y53762765D01*
X20770196Y53713811D01*
X20805253Y53640168D01*
X20852240Y53609010D01*
X20939341Y53609252D01*
X21012564Y53618480D01*
X21136156Y53650380D01*
X21305237Y53713662D01*
X21491984Y53797350D01*
X21584833Y53844230D01*
X21749359Y53933816D01*
X21887156Y54014111D01*
X21979683Y54074029D01*
X22006345Y54096274D01*
X22031143Y54183695D01*
X22017705Y54317622D01*
X21973491Y54473284D01*
X21905961Y54625911D01*
X21822576Y54750731D01*
X21802843Y54772002D01*
X21716530Y54870145D01*
X21687403Y54944208D01*
X21698560Y55005889D01*
X21709105Y55114688D01*
X21687272Y55277881D01*
X21671434Y55347117D01*
X21636229Y55470363D01*
X21593613Y55554563D01*
X21528596Y55606058D01*
X21426188Y55631190D01*
X21271399Y55636300D01*
X21049240Y55627731D01*
X21012631Y55625839D01*
X20726954Y55597875D01*
X20522115Y55547869D01*
X20397100Y55475429D01*
X20350895Y55380162D01*
X20350570Y55369330D01*
X7380207Y55369330D01*
X7389692Y55429241D01*
X7411868Y55569476D01*
X7420625Y55624970D01*
X7423738Y55732414D01*
X7384296Y55784790D01*
X7374010Y55789341D01*
X7295877Y55793255D01*
X7268337Y55778205D01*
X7233700Y55710135D01*
X7191747Y55576109D01*
X7145131Y55390950D01*
X7096504Y55169481D01*
X7048520Y54926528D01*
X7003830Y54676914D01*
X6965087Y54435462D01*
X6934944Y54216998D01*
X6916053Y54036345D01*
X6911067Y53908327D01*
X5786076Y53908327D01*
X5725528Y54054985D01*
X5642323Y54457520D01*
X5630243Y54868989D01*
X5685729Y55278229D01*
X5805225Y55674079D01*
X5985173Y56045375D01*
X6222013Y56380956D01*
X6512188Y56669659D01*
X6852141Y56900322D01*
X6924192Y56937718D01*
X7089305Y57014711D01*
X7226102Y57062853D01*
X7368258Y57090331D01*
X7549449Y57105335D01*
X7629448Y57109203D01*
X7909264Y57107651D01*
G37*
X7909264Y57107651D02*
X8160476Y57072079D01*
X8405265Y56995676D01*
X8665809Y56871629D01*
X8945782Y56704940D01*
X9285820Y56503201D01*
X9633593Y56328113D01*
X9997797Y56177708D01*
X10387129Y56050018D01*
X10810285Y55943074D01*
X11275962Y55854909D01*
X11792857Y55783554D01*
X12369667Y55727041D01*
X13015086Y55683401D01*
X13576667Y55656835D01*
X13826541Y55644962D01*
X14132473Y55627546D01*
X14466169Y55606363D01*
X14799336Y55583189D01*
X15037167Y55565149D01*
X15485109Y55535841D01*
X15919586Y55519094D01*
X16313040Y55515763D01*
X16497667Y55519805D01*
X16742795Y55531362D01*
X16959629Y55549808D01*
X17162720Y55578887D01*
X17366621Y55622343D01*
X17585883Y55683918D01*
X17835058Y55767357D01*
X18128698Y55876401D01*
X18481354Y56014795D01*
X18588504Y56057650D01*
X19115078Y56256162D01*
X19582810Y56404068D01*
X20000094Y56502217D01*
X20375325Y56551458D01*
X20716898Y56552642D01*
X21033206Y56506616D01*
X21332644Y56414232D01*
X21480075Y56350248D01*
X21779634Y56164607D01*
X22053094Y55911725D01*
X22287414Y55608015D01*
X22469552Y55269888D01*
X22571179Y54977074D01*
X22619935Y54695550D01*
X22635344Y54378320D01*
X22617936Y54060758D01*
X22568243Y53778241D01*
X22552346Y53722080D01*
X22423763Y53403024D01*
X22244145Y53126725D01*
X22003930Y52882468D01*
X21693557Y52659536D01*
X21508938Y52552645D01*
X20623526Y52118965D01*
X19707706Y51763406D01*
X18766532Y51487655D01*
X17805059Y51293399D01*
X17680427Y51274452D01*
X17439061Y51243821D01*
X17143499Y51213635D01*
X16812923Y51185168D01*
X16466518Y51159695D01*
X16123465Y51138491D01*
X15802948Y51122831D01*
X15524149Y51113991D01*
X15306253Y51113245D01*
X15270000Y51114237D01*
X15107941Y51119824D01*
X14904587Y51126733D01*
X14703265Y51133491D01*
X14698500Y51133650D01*
X14193219Y51153255D01*
X13668707Y51178708D01*
X13138400Y51209028D01*
X12615739Y51243239D01*
X12114162Y51280361D01*
X11647106Y51319415D01*
X11228012Y51359424D01*
X10870317Y51399408D01*
X10655667Y51428023D01*
X9845308Y51571267D01*
X9081824Y51756213D01*
X8374859Y51980092D01*
X7734056Y52240140D01*
X7593962Y52306274D01*
X7114449Y52557156D01*
X6713869Y52806511D01*
X6386695Y53058752D01*
X6127401Y53318294D01*
X5940875Y53575207D01*
X9216333Y53575207D01*
X9216333Y53397109D01*
X9523250Y53331988D01*
X9856493Y53267735D01*
X10115067Y53232102D01*
X10297553Y53225193D01*
X10402534Y53247110D01*
X10423979Y53266188D01*
X10426515Y53335597D01*
X10346912Y53399083D01*
X10187586Y53455105D01*
X10094285Y53476698D01*
X9847286Y53539640D01*
X9675410Y53614611D01*
X9569264Y53708604D01*
X9519454Y53828610D01*
X9512667Y53909626D01*
X9531178Y54031574D01*
X9594818Y54114050D01*
X9715743Y54165132D01*
X9906109Y54192898D01*
X9943095Y54195667D01*
X10126433Y54219056D01*
X10228245Y54256130D01*
X10249867Y54303187D01*
X10192633Y54356524D01*
X10057881Y54412439D01*
X9846945Y54467229D01*
X9844980Y54467648D01*
X9745237Y54527103D01*
X9679477Y54635810D01*
X9662307Y54760600D01*
X9683716Y54833874D01*
X9742922Y54913281D01*
X9794950Y54943351D01*
X11731937Y54943351D01*
X11733447Y54885657D01*
X11750537Y54759464D01*
X11780503Y54578937D01*
X11820638Y54358245D01*
X11868235Y54111555D01*
X11920589Y53853035D01*
X11974994Y53596851D01*
X12028742Y53357173D01*
X12060509Y53223242D01*
X12115637Y53030740D01*
X12170666Y52920051D01*
X12231216Y52888514D01*
X12302909Y52933468D01*
X12391365Y53052253D01*
X12398368Y53063326D01*
X12497413Y53226515D01*
X12612526Y53424792D01*
X12736687Y53645077D01*
X12862875Y53874288D01*
X12984072Y54099347D01*
X13093255Y54307171D01*
X13183405Y54484680D01*
X13243506Y54610435D01*
X14283991Y54610435D01*
X14311628Y54180801D01*
X14328371Y53965005D01*
X14351847Y53721968D01*
X14379751Y53470255D01*
X14409775Y53228428D01*
X14439614Y53015052D01*
X14466960Y52848690D01*
X14489509Y52747908D01*
X14489741Y52747171D01*
X14508580Y52706315D01*
X14544819Y52683154D01*
X14616187Y52675123D01*
X14740409Y52679658D01*
X14883917Y52690154D01*
X15088260Y52710242D01*
X15293551Y52737150D01*
X15460468Y52765613D01*
X15482692Y52770337D01*
X15620343Y52807070D01*
X15691573Y52845669D01*
X15714197Y52896522D01*
X15714500Y52905490D01*
X15708537Y52943376D01*
X15680511Y52967721D01*
X15615214Y52981490D01*
X15497442Y52987647D01*
X15311988Y52989157D01*
X15285347Y52989167D01*
X15042890Y52995714D01*
X14872696Y53019419D01*
X14763088Y53066382D01*
X14702388Y53142699D01*
X14678919Y53254470D01*
X14677333Y53306667D01*
X14703661Y53454509D01*
X14788966Y53554251D01*
X14942733Y53615435D01*
X14994833Y53626157D01*
X15171274Y53668644D01*
X15267739Y53719791D01*
X15288702Y53782186D01*
X15285061Y53794146D01*
X15240683Y53833416D01*
X15136769Y53853114D01*
X15016160Y53857000D01*
X14817179Y53880024D01*
X14671420Y53943029D01*
X14586422Y54036913D01*
X14569726Y54152575D01*
X14628870Y54280914D01*
X14646711Y54302992D01*
X14711328Y54363578D01*
X14797082Y54408956D01*
X14924695Y54447146D01*
X15114888Y54486169D01*
X15124498Y54487935D01*
X15306200Y54523595D01*
X15419357Y54553689D01*
X15479270Y54584407D01*
X15501240Y54621943D01*
X15502833Y54641046D01*
X15496314Y54681519D01*
X15487144Y54688827D01*
X16709333Y54688827D01*
X16715401Y54537430D01*
X16732062Y54337032D01*
X16756999Y54104218D01*
X16787898Y53855569D01*
X16822442Y53607671D01*
X16858316Y53377106D01*
X16893205Y53180458D01*
X16924794Y53034309D01*
X16950765Y52955244D01*
X16951596Y52953809D01*
X17005163Y52938813D01*
X17130558Y52939735D01*
X17316624Y52955703D01*
X17552205Y52985841D01*
X17748659Y53016226D01*
X17933236Y53051951D01*
X18044687Y53089149D01*
X18094421Y53134021D01*
X18093847Y53192771D01*
X18090547Y53202078D01*
X18065384Y53238933D01*
X18013243Y53258310D01*
X17915606Y53262941D01*
X17753959Y53255556D01*
X17735759Y53254403D01*
X17569788Y53245303D01*
X17463319Y53248287D01*
X17391397Y53269495D01*
X17329068Y53315068D01*
X17274674Y53367860D01*
X17210187Y53440256D01*
X17158860Y53521828D01*
X17116479Y53626561D01*
X17078829Y53768444D01*
X17041695Y53961466D01*
X17000863Y54219613D01*
X16984477Y54330972D01*
X16951705Y54532570D01*
X16916812Y54707824D01*
X16884136Y54837014D01*
X16859671Y54898356D01*
X16797735Y54949000D01*
X16749055Y54921764D01*
X16718181Y54822986D01*
X16709333Y54688827D01*
X15487144Y54688827D01*
X15465762Y54705867D01*
X15394690Y54717623D01*
X15266607Y54720319D01*
X15139887Y54718802D01*
X14933018Y54709434D01*
X14722129Y54690277D01*
X14548751Y54665227D01*
X14530466Y54661603D01*
X14283991Y54610435D01*
X13243506Y54610435D01*
X13247502Y54618794D01*
X13278525Y54696432D01*
X13280333Y54706644D01*
X13269599Y54768569D01*
X13219505Y54796000D01*
X13148189Y54805267D01*
X13111318Y54771979D01*
X13042144Y54677589D01*
X12949355Y54535080D01*
X12841639Y54357431D01*
X12796832Y54280333D01*
X12676086Y54072194D01*
X12587257Y53926952D01*
X12521279Y53833417D01*
X12469087Y53780402D01*
X12421613Y53756716D01*
X12369791Y53751170D01*
X12368060Y53751167D01*
X12310160Y53757535D01*
X12262933Y53783897D01*
X12221833Y53841135D01*
X12182314Y53940132D01*
X12139828Y54091772D01*
X12089830Y54306939D01*
X12040900Y54534333D01*
X11997076Y54733197D01*
X11962258Y54863603D01*
X11930306Y54940396D01*
X11895078Y54978421D01*
X11851394Y54992386D01*
X11764472Y54978725D01*
X11731937Y54943351D01*
X9794950Y54943351D01*
X9828652Y54962829D01*
X9956509Y54986204D01*
X10142096Y54987091D01*
X10293587Y54977918D01*
X10480281Y54965700D01*
X10599464Y54964023D01*
X10667822Y54974523D01*
X10702041Y54998832D01*
X10712456Y55018944D01*
X10707988Y55079355D01*
X10634167Y55132444D01*
X10601817Y55146863D01*
X10506491Y55176770D01*
X10360899Y55211087D01*
X10184634Y55246508D01*
X9997290Y55279726D01*
X9818459Y55307435D01*
X9667734Y55326329D01*
X9564709Y55333101D01*
X9529961Y55327739D01*
X9506747Y55270799D01*
X9474262Y55145695D01*
X9435303Y54968064D01*
X9392669Y54753545D01*
X9349159Y54517774D01*
X9307571Y54276390D01*
X9270704Y54045030D01*
X9241356Y53839332D01*
X9222326Y53674934D01*
X9216333Y53575207D01*
X5940875Y53575207D01*
X5930462Y53589549D01*
X5883417Y53672547D01*
X5786076Y53908327D01*
X6911067Y53908327D01*
X6922638Y53847769D01*
X6922875Y53847525D01*
X6986042Y53817657D01*
X7111382Y53780766D01*
X7277192Y53741384D01*
X7461770Y53704043D01*
X7643413Y53673273D01*
X7800419Y53653607D01*
X7873578Y53649026D01*
X8000922Y53662517D01*
X8059485Y53712644D01*
X8059664Y53713106D01*
X8062930Y53772814D01*
X8013798Y53821258D01*
X7901484Y53864673D01*
X7723366Y53907587D01*
X7542243Y53961955D01*
X7411856Y54034149D01*
X7388210Y54055793D01*
X7316255Y54183812D01*
X7280795Y54377921D01*
X7281632Y54641453D01*
X7318566Y54977739D01*
X7329173Y55047142D01*
X7360793Y55246701D01*
X7380207Y55369330D01*
X20350570Y55369330D01*
X20361271Y55298338D01*
X20390200Y55162126D01*
X20433190Y54977126D01*
X20486078Y54759770D01*
X20544697Y54526490D01*
X20604884Y54293717D01*
X20662472Y54077884D01*
X20713298Y53895423D01*
X20753196Y53762765D01*
X20770196Y53713811D01*
X20805253Y53640168D01*
X20852240Y53609010D01*
X20939341Y53609252D01*
X21012564Y53618480D01*
X21136156Y53650380D01*
X21305237Y53713662D01*
X21491984Y53797350D01*
X21584833Y53844230D01*
X21749359Y53933816D01*
X21887156Y54014111D01*
X21979683Y54074029D01*
X22006345Y54096274D01*
X22031143Y54183695D01*
X22017705Y54317622D01*
X21973491Y54473284D01*
X21905961Y54625911D01*
X21822576Y54750731D01*
X21802843Y54772002D01*
X21716530Y54870145D01*
X21687403Y54944208D01*
X21698560Y55005889D01*
X21709105Y55114688D01*
X21687272Y55277881D01*
X21671434Y55347117D01*
X21636229Y55470363D01*
X21593613Y55554563D01*
X21528596Y55606058D01*
X21426188Y55631190D01*
X21271399Y55636300D01*
X21049240Y55627731D01*
X21012631Y55625839D01*
X20726954Y55597875D01*
X20522115Y55547869D01*
X20397100Y55475429D01*
X20350895Y55380162D01*
X20350570Y55369330D01*
X7380207Y55369330D01*
X7389692Y55429241D01*
X7411868Y55569476D01*
X7420625Y55624970D01*
X7423738Y55732414D01*
X7384296Y55784790D01*
X7374010Y55789341D01*
X7295877Y55793255D01*
X7268337Y55778205D01*
X7233700Y55710135D01*
X7191747Y55576109D01*
X7145131Y55390950D01*
X7096504Y55169481D01*
X7048520Y54926528D01*
X7003830Y54676914D01*
X6965087Y54435462D01*
X6934944Y54216998D01*
X6916053Y54036345D01*
X6911067Y53908327D01*
X5786076Y53908327D01*
X5725528Y54054985D01*
X5642323Y54457520D01*
X5630243Y54868989D01*
X5685729Y55278229D01*
X5805225Y55674079D01*
X5985173Y56045375D01*
X6222013Y56380956D01*
X6512188Y56669659D01*
X6852141Y56900322D01*
X6924192Y56937718D01*
X7089305Y57014711D01*
X7226102Y57062853D01*
X7368258Y57090331D01*
X7549449Y57105335D01*
X7629448Y57109203D01*
X7909264Y57107651D01*
G36*
X20740112Y20825035D02*
G01*
X20950401Y20808203D01*
X21115638Y20777304D01*
X21275324Y20722592D01*
X21422302Y20656705D01*
X21771665Y20445858D01*
X22064943Y20175138D01*
X22297919Y19851589D01*
X22466376Y19482257D01*
X22566096Y19074188D01*
X22593667Y18699703D01*
X22559510Y18292105D01*
X22456578Y17933404D01*
X22284182Y17622169D01*
X22041630Y17356966D01*
X21888423Y17237389D01*
X21814910Y17187485D01*
X21743048Y17143977D01*
X21663031Y17103517D01*
X21565054Y17062757D01*
X21439310Y17018348D01*
X21275995Y16966941D01*
X21065301Y16905187D01*
X20797423Y16829740D01*
X20462556Y16737248D01*
X20265333Y16683125D01*
X19753523Y16542383D01*
X19311586Y16420918D01*
X18928907Y16317302D01*
X18594869Y16230109D01*
X18298858Y16157911D01*
X18030259Y16099282D01*
X17778457Y16052794D01*
X17532835Y16017020D01*
X17282779Y15990533D01*
X17017674Y15971905D01*
X16726903Y15959711D01*
X16399853Y15952521D01*
X16025907Y15948910D01*
X15594451Y15947451D01*
X15094868Y15946715D01*
X14783167Y15946092D01*
X14325733Y15945184D01*
X13886459Y15944772D01*
X13473940Y15944833D01*
X13096770Y15945346D01*
X12763544Y15946287D01*
X12482857Y15947635D01*
X12263304Y15949366D01*
X12113481Y15951458D01*
X12052667Y15953221D01*
X11686257Y15973311D01*
X11284037Y15999450D01*
X10870809Y16029732D01*
X10471375Y16062258D01*
X10110537Y16095124D01*
X9851333Y16122060D01*
X9377250Y16181379D01*
X8892233Y16253136D01*
X8407763Y16334879D01*
X7935323Y16424157D01*
X7486395Y16518518D01*
X7072463Y16615511D01*
X6705008Y16712684D01*
X6395513Y16807586D01*
X6155461Y16897766D01*
X6099815Y16923000D01*
X5777969Y17120500D01*
X5516520Y17371054D01*
X5353616Y17613154D01*
X8835333Y17613154D01*
X8835333Y17414003D01*
X9076036Y17364033D01*
X9395826Y17301220D01*
X9641973Y17261613D01*
X9822132Y17244780D01*
X9943958Y17250284D01*
X10015106Y17277692D01*
X10038738Y17309366D01*
X10044531Y17368948D01*
X10001328Y17415057D01*
X9897273Y17454651D01*
X9724333Y17493940D01*
X9569459Y17528530D01*
X9430416Y17566359D01*
X9373397Y17585564D01*
X9231340Y17678792D01*
X9149990Y17812598D01*
X9136297Y17965930D01*
X9197208Y18117735D01*
X9197567Y18118247D01*
X9244423Y18169292D01*
X9310397Y18197859D01*
X9418793Y18210119D01*
X9552871Y18212333D01*
X9720478Y18217628D01*
X9819029Y18235524D01*
X9863593Y18269044D01*
X9866394Y18275188D01*
X9863689Y18331791D01*
X9801779Y18382448D01*
X9670906Y18433273D01*
X9565470Y18463654D01*
X9400379Y18537224D01*
X9301133Y18646390D01*
X9275537Y18781235D01*
X9282771Y18822801D01*
X9314757Y18901492D01*
X11340452Y18901492D01*
X11345639Y18820252D01*
X11364013Y18698537D01*
X11396775Y18525289D01*
X11445124Y18289452D01*
X11497651Y18039675D01*
X11569728Y17700636D01*
X11627594Y17435648D01*
X11673795Y17235769D01*
X11710876Y17092059D01*
X11741380Y16995575D01*
X11767853Y16937376D01*
X11792840Y16908521D01*
X11818884Y16900068D01*
X11821991Y16900000D01*
X11875996Y16933407D01*
X11953753Y17020293D01*
X12025477Y17122250D01*
X12093076Y17233495D01*
X12191394Y17401551D01*
X12310417Y17609003D01*
X12440135Y17838435D01*
X12539765Y18016882D01*
X12678203Y18269843D01*
X12776941Y18459566D01*
X12809488Y18529515D01*
X13885022Y18529515D01*
X13889602Y18402070D01*
X13903167Y18221643D01*
X13923893Y18003601D01*
X13949961Y17763313D01*
X13979548Y17516148D01*
X14010833Y17277475D01*
X14041995Y17062661D01*
X14071213Y16887076D01*
X14096665Y16766088D01*
X14112760Y16719458D01*
X14165509Y16702577D01*
X14282352Y16696948D01*
X14443632Y16701414D01*
X14629692Y16714822D01*
X14820874Y16736016D01*
X14997519Y16763841D01*
X15050645Y16774578D01*
X15209190Y16810211D01*
X15299192Y16837639D01*
X15334944Y16866172D01*
X15330738Y16905122D01*
X15311248Y16944361D01*
X15281323Y16987841D01*
X15236633Y17011413D01*
X15157388Y17018117D01*
X15023798Y17010995D01*
X14929082Y17003080D01*
X14682272Y16993572D01*
X14503444Y17016870D01*
X14381234Y17076233D01*
X14304279Y17174916D01*
X14300302Y17183362D01*
X14272244Y17301417D01*
X14297823Y17433680D01*
X14324341Y17502298D01*
X14361263Y17550933D01*
X14425334Y17588263D01*
X14533298Y17622967D01*
X14701900Y17663723D01*
X14772583Y17679728D01*
X14866819Y17726750D01*
X14889000Y17789807D01*
X14879823Y17835955D01*
X14839636Y17861386D01*
X14749458Y17872161D01*
X14624417Y17874315D01*
X14455124Y17878965D01*
X14347517Y17897910D01*
X14278778Y17940167D01*
X14226088Y18014754D01*
X14214404Y18036360D01*
X14176656Y18177090D01*
X14218423Y18297947D01*
X14336080Y18395054D01*
X14526001Y18464537D01*
X14635000Y18485903D01*
X14852879Y18523291D01*
X14997713Y18558420D01*
X15080836Y18596006D01*
X15113582Y18640765D01*
X15111630Y18678397D01*
X16328333Y18678397D01*
X16334269Y18540398D01*
X16350477Y18348187D01*
X16374562Y18120139D01*
X16404127Y17874627D01*
X16436773Y17630024D01*
X16470106Y17404706D01*
X16501727Y17217046D01*
X16529240Y17085417D01*
X16541521Y17044165D01*
X16569147Y16983239D01*
X16607793Y16952363D01*
X16680105Y16945326D01*
X16808729Y16955914D01*
X16847905Y16960107D01*
X17046590Y16984434D01*
X17261774Y17014974D01*
X17367659Y17031842D01*
X17552064Y17068220D01*
X17663444Y17105651D01*
X17713279Y17150416D01*
X17713048Y17208794D01*
X17709504Y17218856D01*
X17683492Y17256742D01*
X17629698Y17275803D01*
X17528889Y17279023D01*
X17376835Y17270471D01*
X17211936Y17265201D01*
X17070195Y17272194D01*
X16981824Y17289931D01*
X16980845Y17290368D01*
X16884078Y17362040D01*
X16802352Y17486458D01*
X16732603Y17671670D01*
X16671771Y17925725D01*
X16618916Y18241886D01*
X16577532Y18513949D01*
X16541496Y18711355D01*
X16516790Y18808131D01*
X20021499Y18808131D01*
X20052035Y18575410D01*
X20124535Y18339295D01*
X20136031Y18311734D01*
X20232825Y18123647D01*
X20345553Y17990145D01*
X20488745Y17904145D01*
X20676929Y17858567D01*
X20924633Y17846329D01*
X21081725Y17850788D01*
X21308174Y17872014D01*
X21467489Y17910820D01*
X21517570Y17935504D01*
X21632041Y18039077D01*
X21686401Y18151086D01*
X21673717Y18253018D01*
X21648917Y18286226D01*
X21603025Y18322649D01*
X21557549Y18319884D01*
X21490811Y18269858D01*
X21417374Y18199995D01*
X21306991Y18109148D01*
X21190514Y18057075D01*
X21048333Y18040903D01*
X20860843Y18057760D01*
X20674622Y18091165D01*
X20580009Y18108769D01*
X20512664Y18125788D01*
X20464436Y18155390D01*
X20427174Y18210743D01*
X20392728Y18305014D01*
X20352945Y18451370D01*
X20299675Y18662979D01*
X20285149Y18720333D01*
X20215172Y18995500D01*
X20375205Y19133860D01*
X20509374Y19234218D01*
X20673416Y19336169D01*
X20760304Y19382336D01*
X20894639Y19443357D01*
X20985113Y19467117D01*
X21061305Y19458494D01*
X21111426Y19440238D01*
X21244332Y19408066D01*
X21332940Y19434576D01*
X21365983Y19516295D01*
X21366000Y19518742D01*
X21328030Y19586087D01*
X21230344Y19652108D01*
X21097277Y19705292D01*
X20953164Y19734124D01*
X20906116Y19736333D01*
X20805906Y19709431D01*
X20665036Y19638180D01*
X20504022Y19536766D01*
X20343378Y19419375D01*
X20203617Y19300192D01*
X20105256Y19193402D01*
X20091051Y19172730D01*
X20034109Y19014793D01*
X20021499Y18808131D01*
X16516790Y18808131D01*
X16507711Y18843691D01*
X16473082Y18920546D01*
X16434511Y18951506D01*
X16391187Y18947061D01*
X16351896Y18902641D01*
X16332202Y18798636D01*
X16328333Y18678397D01*
X15111630Y18678397D01*
X15111333Y18684118D01*
X15095536Y18726217D01*
X15063751Y18750737D01*
X14998793Y18760259D01*
X14883475Y18757358D01*
X14705538Y18744986D01*
X14436890Y18719424D01*
X14208696Y18687297D01*
X14033124Y18650941D01*
X13922340Y18612693D01*
X13891246Y18588608D01*
X13885022Y18529515D01*
X12809488Y18529515D01*
X12840084Y18595270D01*
X12871738Y18686169D01*
X12876010Y18741482D01*
X12869783Y18757716D01*
X12819351Y18811966D01*
X12762869Y18812723D01*
X12693066Y18753991D01*
X12602671Y18629773D01*
X12490822Y18445167D01*
X12343220Y18193752D01*
X12228490Y18008249D01*
X12139924Y17879725D01*
X12070811Y17799245D01*
X12014444Y17757877D01*
X11966242Y17746667D01*
X11909525Y17762912D01*
X11859052Y17818195D01*
X11810862Y17922337D01*
X11760992Y18085159D01*
X11705481Y18316481D01*
X11670354Y18480078D01*
X11612091Y18731632D01*
X11557627Y18904532D01*
X11503966Y19004515D01*
X11448109Y19037320D01*
X11392015Y19012945D01*
X11364840Y18986781D01*
X11347253Y18953316D01*
X11340452Y18901492D01*
X9314757Y18901492D01*
X9318505Y18910711D01*
X9382374Y18968468D01*
X9487869Y18999856D01*
X9648482Y19008657D01*
X9877705Y18998652D01*
X9903628Y18996855D01*
X10323841Y18967063D01*
X10309837Y19065082D01*
X10291449Y19118652D01*
X10242568Y19158759D01*
X10145445Y19194706D01*
X9985631Y19235033D01*
X9783313Y19276953D01*
X9566842Y19314147D01*
X9406424Y19335773D01*
X9137420Y19364581D01*
X9093649Y19201207D01*
X9058779Y19052339D01*
X9018295Y18850196D01*
X8975373Y18614299D01*
X8933189Y18364171D01*
X8894917Y18119336D01*
X8863734Y17899317D01*
X8842815Y17723636D01*
X8835333Y17613154D01*
X5353616Y17613154D01*
X5318310Y17665623D01*
X5205611Y17946702D01*
X6507008Y17946702D01*
X6526996Y17891405D01*
X6593961Y17843818D01*
X6718388Y17799741D01*
X6910761Y17754974D01*
X7053499Y17727781D01*
X7301861Y17687031D01*
X7478811Y17668877D01*
X7594531Y17673311D01*
X7659205Y17700326D01*
X7677725Y17727326D01*
X7690000Y17776132D01*
X7672956Y17812746D01*
X7612376Y17845983D01*
X7494043Y17884658D01*
X7366147Y17920535D01*
X7153244Y17991981D01*
X7012130Y18077552D01*
X6929930Y18192317D01*
X6893773Y18351346D01*
X6888833Y18479277D01*
X6897503Y18656074D01*
X6919467Y18870017D01*
X6950021Y19075523D01*
X6950856Y19080167D01*
X6981037Y19272131D01*
X7003357Y19461316D01*
X7013373Y19609458D01*
X7013523Y19619917D01*
X7009303Y19743331D01*
X6988751Y19803326D01*
X6943603Y19820765D01*
X6933860Y19821000D01*
X6891119Y19807606D01*
X6854850Y19757620D01*
X6818390Y19656334D01*
X6775072Y19489041D01*
X6765986Y19450583D01*
X6728742Y19279595D01*
X6686646Y19067225D01*
X6642824Y18831618D01*
X6600401Y18590921D01*
X6562500Y18363277D01*
X6532246Y18166831D01*
X6512764Y18019728D01*
X6507008Y17946702D01*
X5205611Y17946702D01*
X5186179Y17995166D01*
X5122968Y18350644D01*
X5131518Y18723016D01*
X5214670Y19103244D01*
X5326158Y19384895D01*
X5462752Y19618800D01*
X5642910Y19851941D01*
X5844255Y20058895D01*
X6044411Y20214239D01*
X6069651Y20229596D01*
X6307279Y20350246D01*
X6551611Y20433010D01*
X6816464Y20479089D01*
X7115656Y20489684D01*
X7463004Y20465997D01*
X7872325Y20409228D01*
X7962122Y20394135D01*
X8565721Y20294654D01*
X9147574Y20208469D01*
X9718989Y20134746D01*
X10291276Y20072649D01*
X10875741Y20021344D01*
X11483693Y19979996D01*
X12126440Y19947770D01*
X12815290Y19923830D01*
X13561551Y19907343D01*
X14376530Y19897474D01*
X14719667Y19895216D01*
X15226247Y19892745D01*
X15658511Y19891806D01*
X16026806Y19893538D01*
X16341481Y19899081D01*
X16612884Y19909575D01*
X16851364Y19926161D01*
X17067269Y19949979D01*
X17270948Y19982169D01*
X17472750Y20023871D01*
X17683022Y20076226D01*
X17912114Y20140373D01*
X18170373Y20217453D01*
X18466167Y20307997D01*
X18918773Y20445680D01*
X19300290Y20558434D01*
X19619873Y20648340D01*
X19886675Y20717479D01*
X20109849Y20767933D01*
X20298550Y20801784D01*
X20461932Y20821112D01*
X20609148Y20827999D01*
X20740112Y20825035D01*
G37*
X20740112Y20825035D02*
X20950401Y20808203D01*
X21115638Y20777304D01*
X21275324Y20722592D01*
X21422302Y20656705D01*
X21771665Y20445858D01*
X22064943Y20175138D01*
X22297919Y19851589D01*
X22466376Y19482257D01*
X22566096Y19074188D01*
X22593667Y18699703D01*
X22559510Y18292105D01*
X22456578Y17933404D01*
X22284182Y17622169D01*
X22041630Y17356966D01*
X21888423Y17237389D01*
X21814910Y17187485D01*
X21743048Y17143977D01*
X21663031Y17103517D01*
X21565054Y17062757D01*
X21439310Y17018348D01*
X21275995Y16966941D01*
X21065301Y16905187D01*
X20797423Y16829740D01*
X20462556Y16737248D01*
X20265333Y16683125D01*
X19753523Y16542383D01*
X19311586Y16420918D01*
X18928907Y16317302D01*
X18594869Y16230109D01*
X18298858Y16157911D01*
X18030259Y16099282D01*
X17778457Y16052794D01*
X17532835Y16017020D01*
X17282779Y15990533D01*
X17017674Y15971905D01*
X16726903Y15959711D01*
X16399853Y15952521D01*
X16025907Y15948910D01*
X15594451Y15947451D01*
X15094868Y15946715D01*
X14783167Y15946092D01*
X14325733Y15945184D01*
X13886459Y15944772D01*
X13473940Y15944833D01*
X13096770Y15945346D01*
X12763544Y15946287D01*
X12482857Y15947635D01*
X12263304Y15949366D01*
X12113481Y15951458D01*
X12052667Y15953221D01*
X11686257Y15973311D01*
X11284037Y15999450D01*
X10870809Y16029732D01*
X10471375Y16062258D01*
X10110537Y16095124D01*
X9851333Y16122060D01*
X9377250Y16181379D01*
X8892233Y16253136D01*
X8407763Y16334879D01*
X7935323Y16424157D01*
X7486395Y16518518D01*
X7072463Y16615511D01*
X6705008Y16712684D01*
X6395513Y16807586D01*
X6155461Y16897766D01*
X6099815Y16923000D01*
X5777969Y17120500D01*
X5516520Y17371054D01*
X5353616Y17613154D01*
X8835333Y17613154D01*
X8835333Y17414003D01*
X9076036Y17364033D01*
X9395826Y17301220D01*
X9641973Y17261613D01*
X9822132Y17244780D01*
X9943958Y17250284D01*
X10015106Y17277692D01*
X10038738Y17309366D01*
X10044531Y17368948D01*
X10001328Y17415057D01*
X9897273Y17454651D01*
X9724333Y17493940D01*
X9569459Y17528530D01*
X9430416Y17566359D01*
X9373397Y17585564D01*
X9231340Y17678792D01*
X9149990Y17812598D01*
X9136297Y17965930D01*
X9197208Y18117735D01*
X9197567Y18118247D01*
X9244423Y18169292D01*
X9310397Y18197859D01*
X9418793Y18210119D01*
X9552871Y18212333D01*
X9720478Y18217628D01*
X9819029Y18235524D01*
X9863593Y18269044D01*
X9866394Y18275188D01*
X9863689Y18331791D01*
X9801779Y18382448D01*
X9670906Y18433273D01*
X9565470Y18463654D01*
X9400379Y18537224D01*
X9301133Y18646390D01*
X9275537Y18781235D01*
X9282771Y18822801D01*
X9314757Y18901492D01*
X11340452Y18901492D01*
X11345639Y18820252D01*
X11364013Y18698537D01*
X11396775Y18525289D01*
X11445124Y18289452D01*
X11497651Y18039675D01*
X11569728Y17700636D01*
X11627594Y17435648D01*
X11673795Y17235769D01*
X11710876Y17092059D01*
X11741380Y16995575D01*
X11767853Y16937376D01*
X11792840Y16908521D01*
X11818884Y16900068D01*
X11821991Y16900000D01*
X11875996Y16933407D01*
X11953753Y17020293D01*
X12025477Y17122250D01*
X12093076Y17233495D01*
X12191394Y17401551D01*
X12310417Y17609003D01*
X12440135Y17838435D01*
X12539765Y18016882D01*
X12678203Y18269843D01*
X12776941Y18459566D01*
X12809488Y18529515D01*
X13885022Y18529515D01*
X13889602Y18402070D01*
X13903167Y18221643D01*
X13923893Y18003601D01*
X13949961Y17763313D01*
X13979548Y17516148D01*
X14010833Y17277475D01*
X14041995Y17062661D01*
X14071213Y16887076D01*
X14096665Y16766088D01*
X14112760Y16719458D01*
X14165509Y16702577D01*
X14282352Y16696948D01*
X14443632Y16701414D01*
X14629692Y16714822D01*
X14820874Y16736016D01*
X14997519Y16763841D01*
X15050645Y16774578D01*
X15209190Y16810211D01*
X15299192Y16837639D01*
X15334944Y16866172D01*
X15330738Y16905122D01*
X15311248Y16944361D01*
X15281323Y16987841D01*
X15236633Y17011413D01*
X15157388Y17018117D01*
X15023798Y17010995D01*
X14929082Y17003080D01*
X14682272Y16993572D01*
X14503444Y17016870D01*
X14381234Y17076233D01*
X14304279Y17174916D01*
X14300302Y17183362D01*
X14272244Y17301417D01*
X14297823Y17433680D01*
X14324341Y17502298D01*
X14361263Y17550933D01*
X14425334Y17588263D01*
X14533298Y17622967D01*
X14701900Y17663723D01*
X14772583Y17679728D01*
X14866819Y17726750D01*
X14889000Y17789807D01*
X14879823Y17835955D01*
X14839636Y17861386D01*
X14749458Y17872161D01*
X14624417Y17874315D01*
X14455124Y17878965D01*
X14347517Y17897910D01*
X14278778Y17940167D01*
X14226088Y18014754D01*
X14214404Y18036360D01*
X14176656Y18177090D01*
X14218423Y18297947D01*
X14336080Y18395054D01*
X14526001Y18464537D01*
X14635000Y18485903D01*
X14852879Y18523291D01*
X14997713Y18558420D01*
X15080836Y18596006D01*
X15113582Y18640765D01*
X15111630Y18678397D01*
X16328333Y18678397D01*
X16334269Y18540398D01*
X16350477Y18348187D01*
X16374562Y18120139D01*
X16404127Y17874627D01*
X16436773Y17630024D01*
X16470106Y17404706D01*
X16501727Y17217046D01*
X16529240Y17085417D01*
X16541521Y17044165D01*
X16569147Y16983239D01*
X16607793Y16952363D01*
X16680105Y16945326D01*
X16808729Y16955914D01*
X16847905Y16960107D01*
X17046590Y16984434D01*
X17261774Y17014974D01*
X17367659Y17031842D01*
X17552064Y17068220D01*
X17663444Y17105651D01*
X17713279Y17150416D01*
X17713048Y17208794D01*
X17709504Y17218856D01*
X17683492Y17256742D01*
X17629698Y17275803D01*
X17528889Y17279023D01*
X17376835Y17270471D01*
X17211936Y17265201D01*
X17070195Y17272194D01*
X16981824Y17289931D01*
X16980845Y17290368D01*
X16884078Y17362040D01*
X16802352Y17486458D01*
X16732603Y17671670D01*
X16671771Y17925725D01*
X16618916Y18241886D01*
X16577532Y18513949D01*
X16541496Y18711355D01*
X16516790Y18808131D01*
X20021499Y18808131D01*
X20052035Y18575410D01*
X20124535Y18339295D01*
X20136031Y18311734D01*
X20232825Y18123647D01*
X20345553Y17990145D01*
X20488745Y17904145D01*
X20676929Y17858567D01*
X20924633Y17846329D01*
X21081725Y17850788D01*
X21308174Y17872014D01*
X21467489Y17910820D01*
X21517570Y17935504D01*
X21632041Y18039077D01*
X21686401Y18151086D01*
X21673717Y18253018D01*
X21648917Y18286226D01*
X21603025Y18322649D01*
X21557549Y18319884D01*
X21490811Y18269858D01*
X21417374Y18199995D01*
X21306991Y18109148D01*
X21190514Y18057075D01*
X21048333Y18040903D01*
X20860843Y18057760D01*
X20674622Y18091165D01*
X20580009Y18108769D01*
X20512664Y18125788D01*
X20464436Y18155390D01*
X20427174Y18210743D01*
X20392728Y18305014D01*
X20352945Y18451370D01*
X20299675Y18662979D01*
X20285149Y18720333D01*
X20215172Y18995500D01*
X20375205Y19133860D01*
X20509374Y19234218D01*
X20673416Y19336169D01*
X20760304Y19382336D01*
X20894639Y19443357D01*
X20985113Y19467117D01*
X21061305Y19458494D01*
X21111426Y19440238D01*
X21244332Y19408066D01*
X21332940Y19434576D01*
X21365983Y19516295D01*
X21366000Y19518742D01*
X21328030Y19586087D01*
X21230344Y19652108D01*
X21097277Y19705292D01*
X20953164Y19734124D01*
X20906116Y19736333D01*
X20805906Y19709431D01*
X20665036Y19638180D01*
X20504022Y19536766D01*
X20343378Y19419375D01*
X20203617Y19300192D01*
X20105256Y19193402D01*
X20091051Y19172730D01*
X20034109Y19014793D01*
X20021499Y18808131D01*
X16516790Y18808131D01*
X16507711Y18843691D01*
X16473082Y18920546D01*
X16434511Y18951506D01*
X16391187Y18947061D01*
X16351896Y18902641D01*
X16332202Y18798636D01*
X16328333Y18678397D01*
X15111630Y18678397D01*
X15111333Y18684118D01*
X15095536Y18726217D01*
X15063751Y18750737D01*
X14998793Y18760259D01*
X14883475Y18757358D01*
X14705538Y18744986D01*
X14436890Y18719424D01*
X14208696Y18687297D01*
X14033124Y18650941D01*
X13922340Y18612693D01*
X13891246Y18588608D01*
X13885022Y18529515D01*
X12809488Y18529515D01*
X12840084Y18595270D01*
X12871738Y18686169D01*
X12876010Y18741482D01*
X12869783Y18757716D01*
X12819351Y18811966D01*
X12762869Y18812723D01*
X12693066Y18753991D01*
X12602671Y18629773D01*
X12490822Y18445167D01*
X12343220Y18193752D01*
X12228490Y18008249D01*
X12139924Y17879725D01*
X12070811Y17799245D01*
X12014444Y17757877D01*
X11966242Y17746667D01*
X11909525Y17762912D01*
X11859052Y17818195D01*
X11810862Y17922337D01*
X11760992Y18085159D01*
X11705481Y18316481D01*
X11670354Y18480078D01*
X11612091Y18731632D01*
X11557627Y18904532D01*
X11503966Y19004515D01*
X11448109Y19037320D01*
X11392015Y19012945D01*
X11364840Y18986781D01*
X11347253Y18953316D01*
X11340452Y18901492D01*
X9314757Y18901492D01*
X9318505Y18910711D01*
X9382374Y18968468D01*
X9487869Y18999856D01*
X9648482Y19008657D01*
X9877705Y18998652D01*
X9903628Y18996855D01*
X10323841Y18967063D01*
X10309837Y19065082D01*
X10291449Y19118652D01*
X10242568Y19158759D01*
X10145445Y19194706D01*
X9985631Y19235033D01*
X9783313Y19276953D01*
X9566842Y19314147D01*
X9406424Y19335773D01*
X9137420Y19364581D01*
X9093649Y19201207D01*
X9058779Y19052339D01*
X9018295Y18850196D01*
X8975373Y18614299D01*
X8933189Y18364171D01*
X8894917Y18119336D01*
X8863734Y17899317D01*
X8842815Y17723636D01*
X8835333Y17613154D01*
X5353616Y17613154D01*
X5318310Y17665623D01*
X5205611Y17946702D01*
X6507008Y17946702D01*
X6526996Y17891405D01*
X6593961Y17843818D01*
X6718388Y17799741D01*
X6910761Y17754974D01*
X7053499Y17727781D01*
X7301861Y17687031D01*
X7478811Y17668877D01*
X7594531Y17673311D01*
X7659205Y17700326D01*
X7677725Y17727326D01*
X7690000Y17776132D01*
X7672956Y17812746D01*
X7612376Y17845983D01*
X7494043Y17884658D01*
X7366147Y17920535D01*
X7153244Y17991981D01*
X7012130Y18077552D01*
X6929930Y18192317D01*
X6893773Y18351346D01*
X6888833Y18479277D01*
X6897503Y18656074D01*
X6919467Y18870017D01*
X6950021Y19075523D01*
X6950856Y19080167D01*
X6981037Y19272131D01*
X7003357Y19461316D01*
X7013373Y19609458D01*
X7013523Y19619917D01*
X7009303Y19743331D01*
X6988751Y19803326D01*
X6943603Y19820765D01*
X6933860Y19821000D01*
X6891119Y19807606D01*
X6854850Y19757620D01*
X6818390Y19656334D01*
X6775072Y19489041D01*
X6765986Y19450583D01*
X6728742Y19279595D01*
X6686646Y19067225D01*
X6642824Y18831618D01*
X6600401Y18590921D01*
X6562500Y18363277D01*
X6532246Y18166831D01*
X6512764Y18019728D01*
X6507008Y17946702D01*
X5205611Y17946702D01*
X5186179Y17995166D01*
X5122968Y18350644D01*
X5131518Y18723016D01*
X5214670Y19103244D01*
X5326158Y19384895D01*
X5462752Y19618800D01*
X5642910Y19851941D01*
X5844255Y20058895D01*
X6044411Y20214239D01*
X6069651Y20229596D01*
X6307279Y20350246D01*
X6551611Y20433010D01*
X6816464Y20479089D01*
X7115656Y20489684D01*
X7463004Y20465997D01*
X7872325Y20409228D01*
X7962122Y20394135D01*
X8565721Y20294654D01*
X9147574Y20208469D01*
X9718989Y20134746D01*
X10291276Y20072649D01*
X10875741Y20021344D01*
X11483693Y19979996D01*
X12126440Y19947770D01*
X12815290Y19923830D01*
X13561551Y19907343D01*
X14376530Y19897474D01*
X14719667Y19895216D01*
X15226247Y19892745D01*
X15658511Y19891806D01*
X16026806Y19893538D01*
X16341481Y19899081D01*
X16612884Y19909575D01*
X16851364Y19926161D01*
X17067269Y19949979D01*
X17270948Y19982169D01*
X17472750Y20023871D01*
X17683022Y20076226D01*
X17912114Y20140373D01*
X18170373Y20217453D01*
X18466167Y20307997D01*
X18918773Y20445680D01*
X19300290Y20558434D01*
X19619873Y20648340D01*
X19886675Y20717479D01*
X20109849Y20767933D01*
X20298550Y20801784D01*
X20461932Y20821112D01*
X20609148Y20827999D01*
X20740112Y20825035D01*
D11*
X14000000Y58000000D03*
D12*
X14000000Y64000000D03*
D11*
X14000000Y94000000D03*
D12*
X14000000Y100000000D03*
D11*
X14000000Y22000000D03*
D12*
X14000000Y28000000D03*
D13*
X4000000Y21000000D03*
X4000000Y57000000D03*
X4000000Y93000000D03*
D14*
X24000000Y7000000D03*
X24000000Y43000000D03*
X14000000Y7000000D03*
X4000000Y7000000D03*
X14000000Y43000000D03*
X24000000Y79000000D03*
X4000000Y43000000D03*
X4000000Y79000000D03*
X14000000Y79000000D03*
D15*
X6500000Y116250000D03*
X6500000Y-6250000D03*
M02*
