G04 #@! TF.GenerationSoftware,KiCad,Pcbnew,5.1.9-73d0e3b20d~88~ubuntu20.04.1*
G04 #@! TF.CreationDate,2021-04-14T10:28:40-07:00*
G04 #@! TF.ProjectId,3xVCA,33785643-412e-46b6-9963-61645f706362,rev?*
G04 #@! TF.SameCoordinates,Original*
G04 #@! TF.FileFunction,Legend,Bot*
G04 #@! TF.FilePolarity,Positive*
%FSLAX46Y46*%
G04 Gerber Fmt 4.6, Leading zero omitted, Abs format (unit mm)*
G04 Created by KiCad (PCBNEW 5.1.9-73d0e3b20d~88~ubuntu20.04.1) date 2021-04-14 10:28:40*
%MOMM*%
%LPD*%
G01*
G04 APERTURE LIST*
%ADD10C,0.212500*%
%ADD11C,0.375000*%
%ADD12C,0.200000*%
%ADD13C,0.010000*%
%ADD14C,0.150000*%
%ADD15C,0.400000*%
G04 APERTURE END LIST*
D10*
X11975000Y1547619D02*
X11975000Y2547619D01*
X11489285Y1547619D01*
X11489285Y2547619D01*
X10598809Y1547619D02*
X10882142Y2023809D01*
X11084523Y1547619D02*
X11084523Y2547619D01*
X10760714Y2547619D01*
X10679761Y2500000D01*
X10639285Y2452380D01*
X10598809Y2357142D01*
X10598809Y2214285D01*
X10639285Y2119047D01*
X10679761Y2071428D01*
X10760714Y2023809D01*
X11084523Y2023809D01*
X10315476Y2547619D02*
X9789285Y2547619D01*
X10072619Y2166666D01*
X9951190Y2166666D01*
X9870238Y2119047D01*
X9829761Y2071428D01*
X9789285Y1976190D01*
X9789285Y1738095D01*
X9829761Y1642857D01*
X9870238Y1595238D01*
X9951190Y1547619D01*
X10194047Y1547619D01*
X10275000Y1595238D01*
X10315476Y1642857D01*
X9425000Y1928571D02*
X8777380Y1928571D01*
X8494047Y2547619D02*
X8210714Y1547619D01*
X7927380Y2547619D01*
X7198809Y1547619D02*
X7684523Y1547619D01*
X7441666Y1547619D02*
X7441666Y2547619D01*
X7522619Y2404761D01*
X7603571Y2309523D01*
X7684523Y2261904D01*
X6834523Y1642857D02*
X6794047Y1595238D01*
X6834523Y1547619D01*
X6875000Y1595238D01*
X6834523Y1642857D01*
X6834523Y1547619D01*
X6267857Y2547619D02*
X6186904Y2547619D01*
X6105952Y2500000D01*
X6065476Y2452380D01*
X6025000Y2357142D01*
X5984523Y2166666D01*
X5984523Y1928571D01*
X6025000Y1738095D01*
X6065476Y1642857D01*
X6105952Y1595238D01*
X6186904Y1547619D01*
X6267857Y1547619D01*
X6348809Y1595238D01*
X6389285Y1642857D01*
X6429761Y1738095D01*
X6470238Y1928571D01*
X6470238Y2166666D01*
X6429761Y2357142D01*
X6389285Y2452380D01*
X6348809Y2500000D01*
X6267857Y2547619D01*
D11*
X2078571Y94285714D02*
X1364285Y94785714D01*
X2078571Y95142857D02*
X578571Y95142857D01*
X578571Y94571428D01*
X650000Y94428571D01*
X721428Y94357142D01*
X864285Y94285714D01*
X1078571Y94285714D01*
X1221428Y94357142D01*
X1292857Y94428571D01*
X1364285Y94571428D01*
X1364285Y95142857D01*
X1292857Y93642857D02*
X1292857Y93142857D01*
X2078571Y92928571D02*
X2078571Y93642857D01*
X578571Y93642857D01*
X578571Y92928571D01*
X2078571Y92285714D02*
X578571Y92285714D01*
X578571Y91928571D01*
X650000Y91714285D01*
X792857Y91571428D01*
X935714Y91500000D01*
X1221428Y91428571D01*
X1435714Y91428571D01*
X1721428Y91500000D01*
X1864285Y91571428D01*
X2007142Y91714285D01*
X2078571Y91928571D01*
X2078571Y92285714D01*
X2007142Y89714285D02*
X2078571Y89500000D01*
X2078571Y89142857D01*
X2007142Y89000000D01*
X1935714Y88928571D01*
X1792857Y88857142D01*
X1650000Y88857142D01*
X1507142Y88928571D01*
X1435714Y89000000D01*
X1364285Y89142857D01*
X1292857Y89428571D01*
X1221428Y89571428D01*
X1150000Y89642857D01*
X1007142Y89714285D01*
X864285Y89714285D01*
X721428Y89642857D01*
X650000Y89571428D01*
X578571Y89428571D01*
X578571Y89071428D01*
X650000Y88857142D01*
X578571Y88428571D02*
X578571Y87571428D01*
X2078571Y88000000D02*
X578571Y88000000D01*
X2078571Y86214285D02*
X1364285Y86714285D01*
X2078571Y87071428D02*
X578571Y87071428D01*
X578571Y86500000D01*
X649999Y86357142D01*
X721428Y86285714D01*
X864285Y86214285D01*
X1078571Y86214285D01*
X1221428Y86285714D01*
X1292857Y86357142D01*
X1364285Y86500000D01*
X1364285Y87071428D01*
X2078571Y85571428D02*
X578571Y85571428D01*
X2078571Y84857142D02*
X578571Y84857142D01*
X578571Y84285714D01*
X649999Y84142857D01*
X721428Y84071428D01*
X864285Y84000000D01*
X1078571Y84000000D01*
X1221428Y84071428D01*
X1292857Y84142857D01*
X1364285Y84285714D01*
X1364285Y84857142D01*
X1292857Y83357142D02*
X1292857Y82857142D01*
X2078571Y82642857D02*
X2078571Y83357142D01*
X578571Y83357142D01*
X578571Y82642857D01*
D12*
X12050000Y7250000D02*
G75*
G03*
X12050000Y7250000I-3050000J0D01*
G01*
X11000000Y5000000D02*
X6750000Y9250000D01*
D13*
G36*
X16677237Y2239474D02*
G01*
X21356184Y2239474D01*
X21356184Y3392500D01*
X16677237Y3392500D01*
X16677237Y2239474D01*
G37*
X16677237Y2239474D02*
X21356184Y2239474D01*
X21356184Y3392500D01*
X16677237Y3392500D01*
X16677237Y2239474D01*
G36*
X16176744Y10150663D02*
G01*
X16177567Y10034934D01*
X16777885Y9425000D01*
X17378204Y8815066D01*
X17378641Y8535165D01*
X17379079Y8255263D01*
X17744663Y8255263D01*
X17754083Y8184244D01*
X17757650Y8151873D01*
X17763662Y8090913D01*
X17771799Y8005002D01*
X17781738Y7897774D01*
X17793157Y7772867D01*
X17805736Y7633917D01*
X17819153Y7484559D01*
X17833085Y7328432D01*
X17847212Y7169170D01*
X17861212Y7010410D01*
X17874763Y6855789D01*
X17887544Y6708943D01*
X17899233Y6573507D01*
X17909508Y6453120D01*
X17918048Y6351416D01*
X17924531Y6272033D01*
X17928636Y6218606D01*
X17930041Y6194771D01*
X17930040Y6194658D01*
X17919796Y6175534D01*
X17889026Y6136045D01*
X17837311Y6075734D01*
X17764233Y5994139D01*
X17669373Y5890802D01*
X17552313Y5765262D01*
X17412633Y5617060D01*
X17249916Y5445737D01*
X17204179Y5397763D01*
X16478805Y4637434D01*
X16537449Y4578948D01*
X16596092Y4520461D01*
X16690974Y4623690D01*
X16725685Y4660997D01*
X16779906Y4718689D01*
X16850059Y4792987D01*
X16932568Y4880111D01*
X17023855Y4976282D01*
X17120342Y5077720D01*
X17178065Y5138305D01*
X17286434Y5251803D01*
X17374028Y5342715D01*
X17443080Y5412693D01*
X17495824Y5463390D01*
X17534494Y5496460D01*
X17561323Y5513556D01*
X17578544Y5516331D01*
X17588392Y5506437D01*
X17593099Y5485529D01*
X17594899Y5455259D01*
X17595141Y5446998D01*
X17607658Y5390091D01*
X17638497Y5321307D01*
X17681503Y5251525D01*
X17730520Y5191622D01*
X17750134Y5173118D01*
X17850770Y5108372D01*
X17968327Y5072146D01*
X18072262Y5063553D01*
X18190049Y5079761D01*
X18298831Y5127288D01*
X18395110Y5204489D01*
X18412875Y5223705D01*
X18477832Y5297500D01*
X19601579Y5297500D01*
X19601579Y5063553D01*
X19902368Y5063553D01*
X19902368Y5172848D01*
X19906143Y5247461D01*
X19918825Y5299250D01*
X19934237Y5327420D01*
X19945250Y5347576D01*
X19954679Y5376800D01*
X19963151Y5419425D01*
X19971290Y5479783D01*
X19979721Y5562207D01*
X19989068Y5671028D01*
X19995469Y5751983D01*
X20024831Y6131268D01*
X20745659Y5401062D01*
X20875992Y5268934D01*
X21001108Y5141904D01*
X21118721Y5022305D01*
X21226545Y4912472D01*
X21322295Y4814737D01*
X21403683Y4731434D01*
X21468423Y4664896D01*
X21514230Y4617458D01*
X21538792Y4591480D01*
X21579145Y4550351D01*
X21612805Y4521665D01*
X21630910Y4512105D01*
X21654035Y4523303D01*
X21687743Y4551281D01*
X21699169Y4562674D01*
X21747617Y4613243D01*
X21480881Y4884298D01*
X21412831Y4953348D01*
X21325085Y5042226D01*
X21221492Y5147041D01*
X21105900Y5263903D01*
X20982159Y5388921D01*
X20854119Y5518205D01*
X20725628Y5647864D01*
X20633454Y5740821D01*
X20493342Y5882480D01*
X20375632Y6002409D01*
X20278820Y6102232D01*
X20201399Y6183572D01*
X20141864Y6248052D01*
X20112358Y6281723D01*
X19875409Y6281723D01*
X19845743Y5902408D01*
X19836797Y5791223D01*
X19828142Y5689547D01*
X19820271Y5602696D01*
X19813672Y5535982D01*
X19808836Y5494721D01*
X19807280Y5485494D01*
X19798482Y5447895D01*
X18536681Y5447895D01*
X18528258Y5552827D01*
X18502828Y5676805D01*
X18449611Y5786476D01*
X18371963Y5877844D01*
X18273237Y5946917D01*
X18162428Y5988380D01*
X18126480Y6007829D01*
X18108483Y6049570D01*
X18108106Y6051411D01*
X18105947Y6069033D01*
X18108616Y6087078D01*
X18118720Y6108892D01*
X18138863Y6137823D01*
X18171651Y6177217D01*
X18219690Y6230423D01*
X18285584Y6300786D01*
X18371940Y6391654D01*
X18377520Y6397507D01*
X18470405Y6495044D01*
X18569155Y6598933D01*
X18666984Y6702023D01*
X18757107Y6797161D01*
X18832738Y6877196D01*
X18849605Y6895089D01*
X18914265Y6962556D01*
X18971705Y7020291D01*
X19017801Y7064325D01*
X19048431Y7090686D01*
X19058715Y7096479D01*
X19074052Y7084354D01*
X19109917Y7051090D01*
X19163488Y6999458D01*
X19231940Y6932225D01*
X19312447Y6852163D01*
X19402187Y6762039D01*
X19475532Y6687802D01*
X19875409Y6281723D01*
X20112358Y6281723D01*
X20098709Y6297297D01*
X20070429Y6332929D01*
X20055517Y6356571D01*
X20052199Y6367520D01*
X20053456Y6391414D01*
X20057274Y6445499D01*
X20063407Y6526662D01*
X20071607Y6631790D01*
X20081627Y6757772D01*
X20093220Y6901495D01*
X20106140Y7059846D01*
X20120138Y7229713D01*
X20131419Y7365472D01*
X20195250Y8130894D01*
X20031004Y8130894D01*
X20030297Y8114376D01*
X20026969Y8067855D01*
X20021290Y7994622D01*
X20013526Y7897972D01*
X20003943Y7781195D01*
X19992811Y7647586D01*
X19980395Y7500437D01*
X19968480Y7360729D01*
X19954984Y7202213D01*
X19942413Y7052579D01*
X19931055Y6915398D01*
X19921198Y6794241D01*
X19913130Y6692680D01*
X19907140Y6614288D01*
X19903515Y6562637D01*
X19902509Y6542577D01*
X19900940Y6530092D01*
X19894722Y6525138D01*
X19881459Y6529782D01*
X19858753Y6546091D01*
X19824208Y6576132D01*
X19775427Y6621973D01*
X19710013Y6685680D01*
X19625569Y6769321D01*
X19535971Y6858701D01*
X19169574Y7224814D01*
X19172141Y7227566D01*
X18929951Y7227566D01*
X18918913Y7212450D01*
X18888013Y7176858D01*
X18840347Y7124059D01*
X18779013Y7057327D01*
X18707107Y6979930D01*
X18627727Y6895142D01*
X18543969Y6806233D01*
X18458930Y6716474D01*
X18375708Y6629136D01*
X18297399Y6547491D01*
X18227100Y6474809D01*
X18167909Y6414363D01*
X18122922Y6369422D01*
X18095236Y6343258D01*
X18087686Y6337928D01*
X18085197Y6355133D01*
X18080030Y6402652D01*
X18072470Y6477511D01*
X18062800Y6576736D01*
X18051305Y6697351D01*
X18038269Y6836382D01*
X18023976Y6990855D01*
X18008710Y7157794D01*
X17996521Y7292403D01*
X17980929Y7466946D01*
X17966523Y7631373D01*
X17953547Y7782701D01*
X17942241Y7917947D01*
X17932848Y8034130D01*
X17925611Y8128265D01*
X17920772Y8197370D01*
X17918573Y8238462D01*
X17918824Y8249132D01*
X17931970Y8239628D01*
X17965446Y8209080D01*
X18016326Y8160444D01*
X18081683Y8096677D01*
X18158591Y8020735D01*
X18244124Y7935576D01*
X18335354Y7844155D01*
X18429356Y7749431D01*
X18523202Y7654359D01*
X18613967Y7561897D01*
X18698723Y7475001D01*
X18774544Y7396628D01*
X18838503Y7329735D01*
X18887674Y7277278D01*
X18919131Y7242215D01*
X18929951Y7227566D01*
X19172141Y7227566D01*
X19306202Y7371240D01*
X19375784Y7445552D01*
X19453881Y7528517D01*
X19537406Y7616898D01*
X19623270Y7707459D01*
X19708385Y7796964D01*
X19789664Y7882177D01*
X19864019Y7959861D01*
X19928363Y8026780D01*
X19979606Y8079697D01*
X20014663Y8115377D01*
X20030444Y8130584D01*
X20031004Y8130894D01*
X20195250Y8130894D01*
X20211204Y8322193D01*
X21009286Y9161515D01*
X21807368Y10000836D01*
X21806781Y10118148D01*
X21806194Y10235461D01*
X21677275Y10097747D01*
X21605124Y10020937D01*
X21519940Y9930696D01*
X21424021Y9829425D01*
X21319666Y9719524D01*
X21209174Y9603396D01*
X21094844Y9483442D01*
X20978975Y9362064D01*
X20863865Y9241662D01*
X20751814Y9124638D01*
X20645119Y9013394D01*
X20546080Y8910331D01*
X20456997Y8817850D01*
X20380166Y8738353D01*
X20317888Y8674242D01*
X20272462Y8627917D01*
X20246185Y8601781D01*
X20240426Y8596767D01*
X20240030Y8614209D01*
X20242208Y8658865D01*
X20246583Y8724660D01*
X20252775Y8805517D01*
X20255433Y8837817D01*
X20275228Y9074079D01*
X20120242Y9074079D01*
X20112240Y9036480D01*
X20108160Y9006745D01*
X20102425Y8950797D01*
X20095701Y8875764D01*
X20088648Y8788775D01*
X20086207Y8756579D01*
X20079008Y8664139D01*
X20071742Y8578293D01*
X20065136Y8507153D01*
X20059916Y8458831D01*
X20058739Y8450061D01*
X20054298Y8432058D01*
X20044687Y8410983D01*
X20027860Y8384475D01*
X20001775Y8350172D01*
X19964387Y8305711D01*
X19913654Y8248729D01*
X19847530Y8176864D01*
X19763974Y8087754D01*
X19660940Y7979036D01*
X19555833Y7868725D01*
X19451262Y7759559D01*
X19353649Y7658460D01*
X19265422Y7567885D01*
X19189012Y7490292D01*
X19126849Y7428138D01*
X19081363Y7383882D01*
X19054983Y7359982D01*
X19049357Y7356426D01*
X19034557Y7369319D01*
X18999961Y7402940D01*
X18948929Y7453918D01*
X18884817Y7518880D01*
X18810984Y7594452D01*
X18757589Y7649507D01*
X18478827Y7937763D01*
X19300790Y7937763D01*
X19300790Y8255263D01*
X18298158Y8255263D01*
X18298158Y8113794D01*
X18114342Y8297040D01*
X17983948Y8427029D01*
X17730000Y8427029D01*
X17727571Y8406523D01*
X17715276Y8395098D01*
X17685604Y8390120D01*
X17631045Y8388956D01*
X17621382Y8388948D01*
X17512763Y8388948D01*
X17512763Y8680416D01*
X17621382Y8572763D01*
X17682654Y8507313D01*
X17719301Y8457171D01*
X17730000Y8427029D01*
X17983948Y8427029D01*
X17930526Y8480285D01*
X17930526Y8643498D01*
X17930015Y8718586D01*
X17927672Y8766355D01*
X17922289Y8792902D01*
X17912656Y8804321D01*
X17898129Y8806711D01*
X17881973Y8810220D01*
X17870031Y8824289D01*
X17860861Y8854231D01*
X17853018Y8905358D01*
X17845058Y8982983D01*
X17842504Y9011415D01*
X17836974Y9074079D01*
X20120242Y9074079D01*
X20275228Y9074079D01*
X20487237Y9074079D01*
X20487237Y9224474D01*
X20397141Y9224474D01*
X20344445Y9225917D01*
X20315812Y9232884D01*
X20312309Y9237030D01*
X20127766Y9237030D01*
X20118054Y9227558D01*
X20084412Y9224634D01*
X20061706Y9224474D01*
X19985921Y9224474D01*
X19703306Y9224474D01*
X17823481Y9224474D01*
X17887062Y9289587D01*
X17985814Y9369938D01*
X18108032Y9431911D01*
X18255787Y9476354D01*
X18402599Y9500935D01*
X18498684Y9512404D01*
X18498684Y9391579D01*
X19267368Y9391579D01*
X19267368Y9528655D01*
X19380165Y9517224D01*
X19458975Y9507575D01*
X19542943Y9494786D01*
X19593224Y9485652D01*
X19693487Y9465512D01*
X19698397Y9344993D01*
X19703306Y9224474D01*
X19985921Y9224474D01*
X19985921Y9291316D01*
X19988131Y9333190D01*
X19993650Y9356464D01*
X19995874Y9358158D01*
X20020613Y9347440D01*
X20056757Y9321437D01*
X20092990Y9289377D01*
X20117999Y9260489D01*
X20120227Y9256733D01*
X20127766Y9237030D01*
X20312309Y9237030D01*
X20301919Y9249326D01*
X20296311Y9267238D01*
X20273422Y9313721D01*
X20229460Y9369600D01*
X20171989Y9427040D01*
X20108573Y9478207D01*
X20066918Y9504857D01*
X20019466Y9534028D01*
X19995141Y9558533D01*
X19986595Y9587428D01*
X19985938Y9604638D01*
X19985937Y9608816D01*
X19133684Y9608816D01*
X19133684Y9525263D01*
X18632368Y9525263D01*
X18632368Y9608816D01*
X19133684Y9608816D01*
X19985937Y9608816D01*
X19985921Y9658948D01*
X19845274Y9658948D01*
X19780564Y9657383D01*
X19730130Y9653215D01*
X19702094Y9647227D01*
X19699057Y9644803D01*
X19681273Y9641082D01*
X19637992Y9642606D01*
X19576651Y9648925D01*
X19534737Y9654760D01*
X19458737Y9666222D01*
X19389230Y9676570D01*
X19336997Y9684204D01*
X19321678Y9686373D01*
X19281653Y9698768D01*
X19267368Y9718192D01*
X19263025Y9726102D01*
X19247490Y9732137D01*
X19217001Y9736534D01*
X19167800Y9739531D01*
X19096126Y9741365D01*
X18998219Y9742275D01*
X18883026Y9742500D01*
X18760086Y9742372D01*
X18666559Y9741770D01*
X18598440Y9740361D01*
X18551719Y9737819D01*
X18522391Y9733811D01*
X18506449Y9728009D01*
X18499885Y9720083D01*
X18498684Y9710867D01*
X18488460Y9681615D01*
X18454970Y9664969D01*
X18393988Y9659032D01*
X18383017Y9658948D01*
X18279746Y9648294D01*
X18162453Y9618967D01*
X18041715Y9574916D01*
X17928111Y9520089D01*
X17832219Y9458436D01*
X17819799Y9448668D01*
X17779318Y9416885D01*
X17755345Y9404156D01*
X17738604Y9408271D01*
X17721419Y9425250D01*
X17670664Y9458508D01*
X17604607Y9471275D01*
X17533474Y9464635D01*
X17467486Y9439673D01*
X17416868Y9397471D01*
X17413203Y9392566D01*
X17375328Y9313789D01*
X17368281Y9232246D01*
X17391285Y9154513D01*
X17443563Y9087165D01*
X17449956Y9081604D01*
X17487073Y9055187D01*
X17524733Y9043553D01*
X17577676Y9042713D01*
X17590902Y9043458D01*
X17642703Y9045359D01*
X17669386Y9041004D01*
X17679045Y9027862D01*
X17680037Y9015592D01*
X17682061Y8979998D01*
X17687086Y8926467D01*
X17690697Y8894441D01*
X17695934Y8843573D01*
X17693756Y8817532D01*
X17681125Y8808014D01*
X17658625Y8806711D01*
X17645282Y8811014D01*
X17623756Y8824943D01*
X17592452Y8850023D01*
X17549776Y8887781D01*
X17494132Y8939744D01*
X17423925Y9007438D01*
X17337560Y9092389D01*
X17233442Y9196125D01*
X17109975Y9320172D01*
X16965564Y9466056D01*
X16895969Y9536551D01*
X16175921Y10266390D01*
X16176744Y10150663D01*
G37*
X16176744Y10150663D02*
X16177567Y10034934D01*
X16777885Y9425000D01*
X17378204Y8815066D01*
X17378641Y8535165D01*
X17379079Y8255263D01*
X17744663Y8255263D01*
X17754083Y8184244D01*
X17757650Y8151873D01*
X17763662Y8090913D01*
X17771799Y8005002D01*
X17781738Y7897774D01*
X17793157Y7772867D01*
X17805736Y7633917D01*
X17819153Y7484559D01*
X17833085Y7328432D01*
X17847212Y7169170D01*
X17861212Y7010410D01*
X17874763Y6855789D01*
X17887544Y6708943D01*
X17899233Y6573507D01*
X17909508Y6453120D01*
X17918048Y6351416D01*
X17924531Y6272033D01*
X17928636Y6218606D01*
X17930041Y6194771D01*
X17930040Y6194658D01*
X17919796Y6175534D01*
X17889026Y6136045D01*
X17837311Y6075734D01*
X17764233Y5994139D01*
X17669373Y5890802D01*
X17552313Y5765262D01*
X17412633Y5617060D01*
X17249916Y5445737D01*
X17204179Y5397763D01*
X16478805Y4637434D01*
X16537449Y4578948D01*
X16596092Y4520461D01*
X16690974Y4623690D01*
X16725685Y4660997D01*
X16779906Y4718689D01*
X16850059Y4792987D01*
X16932568Y4880111D01*
X17023855Y4976282D01*
X17120342Y5077720D01*
X17178065Y5138305D01*
X17286434Y5251803D01*
X17374028Y5342715D01*
X17443080Y5412693D01*
X17495824Y5463390D01*
X17534494Y5496460D01*
X17561323Y5513556D01*
X17578544Y5516331D01*
X17588392Y5506437D01*
X17593099Y5485529D01*
X17594899Y5455259D01*
X17595141Y5446998D01*
X17607658Y5390091D01*
X17638497Y5321307D01*
X17681503Y5251525D01*
X17730520Y5191622D01*
X17750134Y5173118D01*
X17850770Y5108372D01*
X17968327Y5072146D01*
X18072262Y5063553D01*
X18190049Y5079761D01*
X18298831Y5127288D01*
X18395110Y5204489D01*
X18412875Y5223705D01*
X18477832Y5297500D01*
X19601579Y5297500D01*
X19601579Y5063553D01*
X19902368Y5063553D01*
X19902368Y5172848D01*
X19906143Y5247461D01*
X19918825Y5299250D01*
X19934237Y5327420D01*
X19945250Y5347576D01*
X19954679Y5376800D01*
X19963151Y5419425D01*
X19971290Y5479783D01*
X19979721Y5562207D01*
X19989068Y5671028D01*
X19995469Y5751983D01*
X20024831Y6131268D01*
X20745659Y5401062D01*
X20875992Y5268934D01*
X21001108Y5141904D01*
X21118721Y5022305D01*
X21226545Y4912472D01*
X21322295Y4814737D01*
X21403683Y4731434D01*
X21468423Y4664896D01*
X21514230Y4617458D01*
X21538792Y4591480D01*
X21579145Y4550351D01*
X21612805Y4521665D01*
X21630910Y4512105D01*
X21654035Y4523303D01*
X21687743Y4551281D01*
X21699169Y4562674D01*
X21747617Y4613243D01*
X21480881Y4884298D01*
X21412831Y4953348D01*
X21325085Y5042226D01*
X21221492Y5147041D01*
X21105900Y5263903D01*
X20982159Y5388921D01*
X20854119Y5518205D01*
X20725628Y5647864D01*
X20633454Y5740821D01*
X20493342Y5882480D01*
X20375632Y6002409D01*
X20278820Y6102232D01*
X20201399Y6183572D01*
X20141864Y6248052D01*
X20112358Y6281723D01*
X19875409Y6281723D01*
X19845743Y5902408D01*
X19836797Y5791223D01*
X19828142Y5689547D01*
X19820271Y5602696D01*
X19813672Y5535982D01*
X19808836Y5494721D01*
X19807280Y5485494D01*
X19798482Y5447895D01*
X18536681Y5447895D01*
X18528258Y5552827D01*
X18502828Y5676805D01*
X18449611Y5786476D01*
X18371963Y5877844D01*
X18273237Y5946917D01*
X18162428Y5988380D01*
X18126480Y6007829D01*
X18108483Y6049570D01*
X18108106Y6051411D01*
X18105947Y6069033D01*
X18108616Y6087078D01*
X18118720Y6108892D01*
X18138863Y6137823D01*
X18171651Y6177217D01*
X18219690Y6230423D01*
X18285584Y6300786D01*
X18371940Y6391654D01*
X18377520Y6397507D01*
X18470405Y6495044D01*
X18569155Y6598933D01*
X18666984Y6702023D01*
X18757107Y6797161D01*
X18832738Y6877196D01*
X18849605Y6895089D01*
X18914265Y6962556D01*
X18971705Y7020291D01*
X19017801Y7064325D01*
X19048431Y7090686D01*
X19058715Y7096479D01*
X19074052Y7084354D01*
X19109917Y7051090D01*
X19163488Y6999458D01*
X19231940Y6932225D01*
X19312447Y6852163D01*
X19402187Y6762039D01*
X19475532Y6687802D01*
X19875409Y6281723D01*
X20112358Y6281723D01*
X20098709Y6297297D01*
X20070429Y6332929D01*
X20055517Y6356571D01*
X20052199Y6367520D01*
X20053456Y6391414D01*
X20057274Y6445499D01*
X20063407Y6526662D01*
X20071607Y6631790D01*
X20081627Y6757772D01*
X20093220Y6901495D01*
X20106140Y7059846D01*
X20120138Y7229713D01*
X20131419Y7365472D01*
X20195250Y8130894D01*
X20031004Y8130894D01*
X20030297Y8114376D01*
X20026969Y8067855D01*
X20021290Y7994622D01*
X20013526Y7897972D01*
X20003943Y7781195D01*
X19992811Y7647586D01*
X19980395Y7500437D01*
X19968480Y7360729D01*
X19954984Y7202213D01*
X19942413Y7052579D01*
X19931055Y6915398D01*
X19921198Y6794241D01*
X19913130Y6692680D01*
X19907140Y6614288D01*
X19903515Y6562637D01*
X19902509Y6542577D01*
X19900940Y6530092D01*
X19894722Y6525138D01*
X19881459Y6529782D01*
X19858753Y6546091D01*
X19824208Y6576132D01*
X19775427Y6621973D01*
X19710013Y6685680D01*
X19625569Y6769321D01*
X19535971Y6858701D01*
X19169574Y7224814D01*
X19172141Y7227566D01*
X18929951Y7227566D01*
X18918913Y7212450D01*
X18888013Y7176858D01*
X18840347Y7124059D01*
X18779013Y7057327D01*
X18707107Y6979930D01*
X18627727Y6895142D01*
X18543969Y6806233D01*
X18458930Y6716474D01*
X18375708Y6629136D01*
X18297399Y6547491D01*
X18227100Y6474809D01*
X18167909Y6414363D01*
X18122922Y6369422D01*
X18095236Y6343258D01*
X18087686Y6337928D01*
X18085197Y6355133D01*
X18080030Y6402652D01*
X18072470Y6477511D01*
X18062800Y6576736D01*
X18051305Y6697351D01*
X18038269Y6836382D01*
X18023976Y6990855D01*
X18008710Y7157794D01*
X17996521Y7292403D01*
X17980929Y7466946D01*
X17966523Y7631373D01*
X17953547Y7782701D01*
X17942241Y7917947D01*
X17932848Y8034130D01*
X17925611Y8128265D01*
X17920772Y8197370D01*
X17918573Y8238462D01*
X17918824Y8249132D01*
X17931970Y8239628D01*
X17965446Y8209080D01*
X18016326Y8160444D01*
X18081683Y8096677D01*
X18158591Y8020735D01*
X18244124Y7935576D01*
X18335354Y7844155D01*
X18429356Y7749431D01*
X18523202Y7654359D01*
X18613967Y7561897D01*
X18698723Y7475001D01*
X18774544Y7396628D01*
X18838503Y7329735D01*
X18887674Y7277278D01*
X18919131Y7242215D01*
X18929951Y7227566D01*
X19172141Y7227566D01*
X19306202Y7371240D01*
X19375784Y7445552D01*
X19453881Y7528517D01*
X19537406Y7616898D01*
X19623270Y7707459D01*
X19708385Y7796964D01*
X19789664Y7882177D01*
X19864019Y7959861D01*
X19928363Y8026780D01*
X19979606Y8079697D01*
X20014663Y8115377D01*
X20030444Y8130584D01*
X20031004Y8130894D01*
X20195250Y8130894D01*
X20211204Y8322193D01*
X21009286Y9161515D01*
X21807368Y10000836D01*
X21806781Y10118148D01*
X21806194Y10235461D01*
X21677275Y10097747D01*
X21605124Y10020937D01*
X21519940Y9930696D01*
X21424021Y9829425D01*
X21319666Y9719524D01*
X21209174Y9603396D01*
X21094844Y9483442D01*
X20978975Y9362064D01*
X20863865Y9241662D01*
X20751814Y9124638D01*
X20645119Y9013394D01*
X20546080Y8910331D01*
X20456997Y8817850D01*
X20380166Y8738353D01*
X20317888Y8674242D01*
X20272462Y8627917D01*
X20246185Y8601781D01*
X20240426Y8596767D01*
X20240030Y8614209D01*
X20242208Y8658865D01*
X20246583Y8724660D01*
X20252775Y8805517D01*
X20255433Y8837817D01*
X20275228Y9074079D01*
X20120242Y9074079D01*
X20112240Y9036480D01*
X20108160Y9006745D01*
X20102425Y8950797D01*
X20095701Y8875764D01*
X20088648Y8788775D01*
X20086207Y8756579D01*
X20079008Y8664139D01*
X20071742Y8578293D01*
X20065136Y8507153D01*
X20059916Y8458831D01*
X20058739Y8450061D01*
X20054298Y8432058D01*
X20044687Y8410983D01*
X20027860Y8384475D01*
X20001775Y8350172D01*
X19964387Y8305711D01*
X19913654Y8248729D01*
X19847530Y8176864D01*
X19763974Y8087754D01*
X19660940Y7979036D01*
X19555833Y7868725D01*
X19451262Y7759559D01*
X19353649Y7658460D01*
X19265422Y7567885D01*
X19189012Y7490292D01*
X19126849Y7428138D01*
X19081363Y7383882D01*
X19054983Y7359982D01*
X19049357Y7356426D01*
X19034557Y7369319D01*
X18999961Y7402940D01*
X18948929Y7453918D01*
X18884817Y7518880D01*
X18810984Y7594452D01*
X18757589Y7649507D01*
X18478827Y7937763D01*
X19300790Y7937763D01*
X19300790Y8255263D01*
X18298158Y8255263D01*
X18298158Y8113794D01*
X18114342Y8297040D01*
X17983948Y8427029D01*
X17730000Y8427029D01*
X17727571Y8406523D01*
X17715276Y8395098D01*
X17685604Y8390120D01*
X17631045Y8388956D01*
X17621382Y8388948D01*
X17512763Y8388948D01*
X17512763Y8680416D01*
X17621382Y8572763D01*
X17682654Y8507313D01*
X17719301Y8457171D01*
X17730000Y8427029D01*
X17983948Y8427029D01*
X17930526Y8480285D01*
X17930526Y8643498D01*
X17930015Y8718586D01*
X17927672Y8766355D01*
X17922289Y8792902D01*
X17912656Y8804321D01*
X17898129Y8806711D01*
X17881973Y8810220D01*
X17870031Y8824289D01*
X17860861Y8854231D01*
X17853018Y8905358D01*
X17845058Y8982983D01*
X17842504Y9011415D01*
X17836974Y9074079D01*
X20120242Y9074079D01*
X20275228Y9074079D01*
X20487237Y9074079D01*
X20487237Y9224474D01*
X20397141Y9224474D01*
X20344445Y9225917D01*
X20315812Y9232884D01*
X20312309Y9237030D01*
X20127766Y9237030D01*
X20118054Y9227558D01*
X20084412Y9224634D01*
X20061706Y9224474D01*
X19985921Y9224474D01*
X19703306Y9224474D01*
X17823481Y9224474D01*
X17887062Y9289587D01*
X17985814Y9369938D01*
X18108032Y9431911D01*
X18255787Y9476354D01*
X18402599Y9500935D01*
X18498684Y9512404D01*
X18498684Y9391579D01*
X19267368Y9391579D01*
X19267368Y9528655D01*
X19380165Y9517224D01*
X19458975Y9507575D01*
X19542943Y9494786D01*
X19593224Y9485652D01*
X19693487Y9465512D01*
X19698397Y9344993D01*
X19703306Y9224474D01*
X19985921Y9224474D01*
X19985921Y9291316D01*
X19988131Y9333190D01*
X19993650Y9356464D01*
X19995874Y9358158D01*
X20020613Y9347440D01*
X20056757Y9321437D01*
X20092990Y9289377D01*
X20117999Y9260489D01*
X20120227Y9256733D01*
X20127766Y9237030D01*
X20312309Y9237030D01*
X20301919Y9249326D01*
X20296311Y9267238D01*
X20273422Y9313721D01*
X20229460Y9369600D01*
X20171989Y9427040D01*
X20108573Y9478207D01*
X20066918Y9504857D01*
X20019466Y9534028D01*
X19995141Y9558533D01*
X19986595Y9587428D01*
X19985938Y9604638D01*
X19985937Y9608816D01*
X19133684Y9608816D01*
X19133684Y9525263D01*
X18632368Y9525263D01*
X18632368Y9608816D01*
X19133684Y9608816D01*
X19985937Y9608816D01*
X19985921Y9658948D01*
X19845274Y9658948D01*
X19780564Y9657383D01*
X19730130Y9653215D01*
X19702094Y9647227D01*
X19699057Y9644803D01*
X19681273Y9641082D01*
X19637992Y9642606D01*
X19576651Y9648925D01*
X19534737Y9654760D01*
X19458737Y9666222D01*
X19389230Y9676570D01*
X19336997Y9684204D01*
X19321678Y9686373D01*
X19281653Y9698768D01*
X19267368Y9718192D01*
X19263025Y9726102D01*
X19247490Y9732137D01*
X19217001Y9736534D01*
X19167800Y9739531D01*
X19096126Y9741365D01*
X18998219Y9742275D01*
X18883026Y9742500D01*
X18760086Y9742372D01*
X18666559Y9741770D01*
X18598440Y9740361D01*
X18551719Y9737819D01*
X18522391Y9733811D01*
X18506449Y9728009D01*
X18499885Y9720083D01*
X18498684Y9710867D01*
X18488460Y9681615D01*
X18454970Y9664969D01*
X18393988Y9659032D01*
X18383017Y9658948D01*
X18279746Y9648294D01*
X18162453Y9618967D01*
X18041715Y9574916D01*
X17928111Y9520089D01*
X17832219Y9458436D01*
X17819799Y9448668D01*
X17779318Y9416885D01*
X17755345Y9404156D01*
X17738604Y9408271D01*
X17721419Y9425250D01*
X17670664Y9458508D01*
X17604607Y9471275D01*
X17533474Y9464635D01*
X17467486Y9439673D01*
X17416868Y9397471D01*
X17413203Y9392566D01*
X17375328Y9313789D01*
X17368281Y9232246D01*
X17391285Y9154513D01*
X17443563Y9087165D01*
X17449956Y9081604D01*
X17487073Y9055187D01*
X17524733Y9043553D01*
X17577676Y9042713D01*
X17590902Y9043458D01*
X17642703Y9045359D01*
X17669386Y9041004D01*
X17679045Y9027862D01*
X17680037Y9015592D01*
X17682061Y8979998D01*
X17687086Y8926467D01*
X17690697Y8894441D01*
X17695934Y8843573D01*
X17693756Y8817532D01*
X17681125Y8808014D01*
X17658625Y8806711D01*
X17645282Y8811014D01*
X17623756Y8824943D01*
X17592452Y8850023D01*
X17549776Y8887781D01*
X17494132Y8939744D01*
X17423925Y9007438D01*
X17337560Y9092389D01*
X17233442Y9196125D01*
X17109975Y9320172D01*
X16965564Y9466056D01*
X16895969Y9536551D01*
X16175921Y10266390D01*
X16176744Y10150663D01*
D14*
X6250000Y102500000D02*
X6250000Y108800000D01*
X6250000Y108800000D02*
X1250000Y108800000D01*
X1250000Y108800000D02*
X1250000Y96200000D01*
X1250000Y96200000D02*
X6250000Y96200000D01*
X6250000Y96200000D02*
X6250000Y102500000D01*
D15*
X11142857Y5892857D02*
X11142857Y8892857D01*
X10000000Y8892857D01*
X9714285Y8750000D01*
X9571428Y8607142D01*
X9428571Y8321428D01*
X9428571Y7892857D01*
X9571428Y7607142D01*
X9714285Y7464285D01*
X10000000Y7321428D01*
X11142857Y7321428D01*
X8142857Y5892857D02*
X8142857Y8892857D01*
X8142857Y7750000D02*
X7857142Y7892857D01*
X7285714Y7892857D01*
X7000000Y7750000D01*
X6857142Y7607142D01*
X6714285Y7321428D01*
X6714285Y6464285D01*
X6857142Y6178571D01*
X7000000Y6035714D01*
X7285714Y5892857D01*
X7857142Y5892857D01*
X8142857Y6035714D01*
M02*
