M48
; DRILL file {KiCad 5.1.9-73d0e3b20d~88~ubuntu20.04.1} date Wed Apr 14 10:28:43 2021
; FORMAT={-:-/ absolute / inch / decimal}
; #@! TF.CreationDate,2021-04-14T10:28:43-07:00
; #@! TF.GenerationSoftware,Kicad,Pcbnew,5.1.9-73d0e3b20d~88~ubuntu20.04.1
FMAT,2
INCH
T1C0.0157
T2C0.0197
T3C0.0276
T4C0.0320
T5C0.0393
T6C0.0433
T7C0.0709
%
G90
G05
T1
X0.0394Y3.376
X0.1181Y0.3346
X0.128Y1.7618
X0.2067Y3.1398
X0.2165Y3.5728
X0.2165Y3.4252
X0.2165Y0.935
X0.2264Y2.3524
X0.2362Y3.7303
X0.2362Y3.4744
X0.2657Y2.0571
X0.2657Y0.6398
X0.2756Y2.4311
X0.2756Y1.0138
X0.4528Y3.7697
X0.4528Y2.3524
X0.4528Y0.935
X0.5217Y3.4744
X0.5217Y3.4154
X0.5217Y2.0571
X0.5217Y1.998
X0.5217Y0.6398
X0.5217Y0.5807
X0.5512Y3.7697
X0.5512Y2.3524
X0.5512Y0.935
X0.6496Y3.7697
X0.6496Y2.3524
X0.6496Y0.935
X0.7372Y3.7687
X0.7372Y3.69
X0.7372Y2.2726
X0.7372Y0.8455
X0.7382Y2.3524
X0.7382Y0.935
X0.8199Y3.6289
X0.8268Y3.563
X0.8268Y2.1457
X0.8268Y0.7283
X0.8297Y2.2116
X0.8337Y0.7943
X0.9055Y0.8976
X0.9055Y0.685
X0.9134Y2.315
X0.9134Y2.1102
X0.9154Y3.7303
X0.9154Y3.5236
X0.9774Y3.753
X0.9774Y2.3356
X0.9774Y0.9183
X0.9941Y3.9665
X1.0039Y4.2815
X1.0098Y3.4882
X1.0098Y2.0709
X1.0138Y4.0453
X1.0138Y3.8189
X1.0138Y2.6083
X1.0138Y2.4016
X1.0138Y1.1909
X1.0138Y0.9744
X1.0157Y0.6535
X1.063Y4.0659
T4
X0.1575Y3.7114
X0.1575Y3.6114
X0.1575Y2.2941
X0.1575Y2.1941
X0.1575Y0.8768
X0.1575Y0.7768
T5
X0.0976Y4.2354
X0.0976Y4.1354
X0.0976Y4.0354
X0.0976Y3.9354
X0.0976Y3.8354
X0.1976Y4.2354
X0.1976Y4.1354
X0.1976Y4.0354
X0.1976Y3.9354
X0.1976Y3.8354
T6
X0.4528Y3.6417
X0.4528Y2.2243
X0.4528Y0.807
X0.5512Y3.6417
X0.5512Y2.2243
X0.5512Y0.807
X0.6496Y3.6417
X0.6496Y2.2243
X0.6496Y0.807
T7
X0.3622Y3.9369
X0.3622Y2.5196
X0.3622Y1.1023
X0.7402Y3.9369
X0.7402Y2.5196
X0.7402Y1.1023
T1
G00X0.1713Y2.9165
M15
G01X0.1437Y2.9165
M16
G05
G00X0.1713Y1.4992
M15
G01X0.1437Y1.4992
M16
G05
G00X0.1713Y0.0819
M15
G01X0.1437Y0.0819
M16
G05
G00X0.565Y2.9165
M15
G01X0.5374Y2.9165
M16
G05
G00X0.565Y1.4992
M15
G01X0.5374Y1.4992
M16
G05
G00X0.565Y0.0819
M15
G01X0.5374Y0.0819
M16
G05
G00X0.9587Y2.9165
M15
G01X0.9311Y2.9165
M16
G05
G00X0.9587Y1.4992
M15
G01X0.9311Y1.4992
M16
G05
G00X0.9587Y0.0819
M15
G01X0.9311Y0.0819
M16
G05
T2
G00X0.1693Y3.2433
M15
G01X0.1457Y3.2433
M16
G05
G00X0.1693Y1.826
M15
G01X0.1457Y1.826
M16
G05
G00X0.1693Y0.4087
M15
G01X0.1457Y0.4087
M16
G05
G00X0.563Y3.2433
M15
G01X0.5394Y3.2433
M16
G05
G00X0.563Y1.826
M15
G01X0.5394Y1.826
M16
G05
G00X0.563Y0.4087
M15
G01X0.5394Y0.4087
M16
G05
G00X0.9567Y3.2433
M15
G01X0.9331Y3.2433
M16
G05
G00X0.9567Y1.826
M15
G01X0.9331Y1.826
M16
G05
G00X0.9567Y0.4087
M15
G01X0.9331Y0.4087
M16
G05
T3
G00X0.1713Y3.3315
M15
G01X0.1437Y3.3315
M16
G05
G00X0.1713Y1.9142
M15
G01X0.1437Y1.9142
M16
G05
G00X0.1713Y0.4969
M15
G01X0.1437Y0.4969
M16
G05
G00X0.565Y3.3315
M15
G01X0.5374Y3.3315
M16
G05
G00X0.565Y1.9142
M15
G01X0.5374Y1.9142
M16
G05
G00X0.565Y0.4969
M15
G01X0.5374Y0.4969
M16
G05
G00X0.9587Y3.3315
M15
G01X0.9311Y3.3315
M16
G05
G00X0.9587Y1.9142
M15
G01X0.9311Y1.9142
M16
G05
G00X0.9587Y0.4969
M15
G01X0.9311Y0.4969
M16
G05
T0
M30
