G04 #@! TF.GenerationSoftware,KiCad,Pcbnew,5.1.9-73d0e3b20d~88~ubuntu20.04.1*
G04 #@! TF.CreationDate,2021-04-14T10:28:40-07:00*
G04 #@! TF.ProjectId,3xVCA,33785643-412e-46b6-9963-61645f706362,rev?*
G04 #@! TF.SameCoordinates,Original*
G04 #@! TF.FileFunction,Soldermask,Bot*
G04 #@! TF.FilePolarity,Negative*
%FSLAX46Y46*%
G04 Gerber Fmt 4.6, Leading zero omitted, Abs format (unit mm)*
G04 Created by KiCad (PCBNEW 5.1.9-73d0e3b20d~88~ubuntu20.04.1) date 2021-04-14 10:28:40*
%MOMM*%
%LPD*%
G01*
G04 APERTURE LIST*
%ADD10C,1.676400*%
%ADD11R,1.676400X1.676400*%
%ADD12O,1.900000X1.200000*%
%ADD13O,2.100000X1.200000*%
%ADD14O,2.100000X1.100000*%
%ADD15C,2.800000*%
%ADD16C,1.800000*%
%ADD17C,2.000000*%
G04 APERTURE END LIST*
D10*
X4000000Y91730000D03*
D11*
X4000000Y94270000D03*
D10*
X4000000Y55730000D03*
D11*
X4000000Y58270000D03*
D10*
X4000000Y19730000D03*
D11*
X4000000Y22270000D03*
D12*
X14000000Y12620500D03*
D13*
X14000000Y10380000D03*
D14*
X14000000Y2080000D03*
D12*
X24000000Y12620500D03*
D13*
X24000000Y10380000D03*
D14*
X24000000Y2080000D03*
D12*
X4000000Y12620500D03*
D13*
X4000000Y10380000D03*
D14*
X4000000Y2080000D03*
D12*
X14000000Y48620500D03*
D13*
X14000000Y46380000D03*
D14*
X14000000Y38080000D03*
D12*
X4000000Y48620500D03*
D13*
X4000000Y46380000D03*
D14*
X4000000Y38080000D03*
D12*
X24000000Y48620500D03*
D13*
X24000000Y46380000D03*
D14*
X24000000Y38080000D03*
D12*
X4000000Y84620500D03*
D13*
X4000000Y82380000D03*
D14*
X4000000Y74080000D03*
D12*
X24000000Y84620500D03*
D13*
X24000000Y82380000D03*
D14*
X24000000Y74080000D03*
D12*
X14000000Y84620500D03*
D13*
X14000000Y82380000D03*
D14*
X14000000Y74080000D03*
D15*
X9200000Y27998000D03*
X18800000Y27998000D03*
D16*
X11500000Y20498000D03*
X16500000Y20498000D03*
X14000000Y20498000D03*
D15*
X9200000Y63998000D03*
X18800000Y63998000D03*
D16*
X11500000Y56498000D03*
X16500000Y56498000D03*
X14000000Y56498000D03*
D15*
X9200000Y99998000D03*
X18800000Y99998000D03*
D16*
X11500000Y92498000D03*
X16500000Y92498000D03*
X14000000Y92498000D03*
D17*
X5020000Y107580000D03*
X2480000Y107580000D03*
X5020000Y105040000D03*
X2480000Y105040000D03*
X5020000Y102500000D03*
X2480000Y102500000D03*
X5020000Y99960000D03*
X2480000Y99960000D03*
X5020000Y97420000D03*
X2480000Y97420000D03*
M02*
