G04 #@! TF.GenerationSoftware,KiCad,Pcbnew,5.1.10-88a1d61d58~88~ubuntu20.04.1*
G04 #@! TF.CreationDate,2021-04-30T11:29:13-07:00*
G04 #@! TF.ProjectId,foundationPanel,666f756e-6461-4746-996f-6e50616e656c,rev?*
G04 #@! TF.SameCoordinates,Original*
G04 #@! TF.FileFunction,Copper,L1,Top*
G04 #@! TF.FilePolarity,Positive*
%FSLAX46Y46*%
G04 Gerber Fmt 4.6, Leading zero omitted, Abs format (unit mm)*
G04 Created by KiCad (PCBNEW 5.1.10-88a1d61d58~88~ubuntu20.04.1) date 2021-04-30 11:29:13*
%MOMM*%
%LPD*%
G01*
G04 APERTURE LIST*
G04 #@! TA.AperFunction,EtchedComponent*
%ADD10C,0.010000*%
G04 #@! TD*
G04 #@! TA.AperFunction,ComponentPad*
%ADD11C,7.900000*%
G04 #@! TD*
G04 #@! TA.AperFunction,ComponentPad*
%ADD12C,4.800000*%
G04 #@! TD*
G04 APERTURE END LIST*
D10*
G36*
X32241189Y96324461D02*
G01*
X32337014Y96234297D01*
X32381296Y96112359D01*
X32362101Y95981829D01*
X32329083Y95925820D01*
X32265710Y95870790D01*
X32138886Y95782912D01*
X31959977Y95668972D01*
X31740348Y95535758D01*
X31491364Y95390057D01*
X31224390Y95238655D01*
X30950792Y95088341D01*
X30731000Y94971455D01*
X30102283Y94661323D01*
X29410303Y94353665D01*
X28676257Y94056896D01*
X27921338Y93779430D01*
X27166743Y93529683D01*
X26878666Y93442070D01*
X26589080Y93356212D01*
X26345493Y93283674D01*
X26133056Y93219839D01*
X25936919Y93160090D01*
X25742232Y93099808D01*
X25534145Y93034376D01*
X25297809Y92959177D01*
X25018373Y92869593D01*
X24680989Y92761007D01*
X24476499Y92695106D01*
X24124058Y92577598D01*
X23726755Y92438658D01*
X23315477Y92289505D01*
X22921110Y92141354D01*
X22574540Y92005420D01*
X22550332Y91995623D01*
X22217337Y91862089D01*
X21846529Y91716044D01*
X21466185Y91568452D01*
X21104581Y91430279D01*
X20789992Y91312489D01*
X20761500Y91301992D01*
X20256747Y91114767D01*
X19735612Y90918445D01*
X19206467Y90716375D01*
X18677683Y90511903D01*
X18157631Y90308376D01*
X17654683Y90109140D01*
X17177209Y89917544D01*
X16733581Y89736932D01*
X16332170Y89570654D01*
X15981347Y89422054D01*
X15689485Y89294481D01*
X15464954Y89191281D01*
X15388223Y89153740D01*
X15088565Y89009100D01*
X14809588Y88886203D01*
X14566127Y88791042D01*
X14373017Y88729609D01*
X14296535Y88712835D01*
X14188698Y88702766D01*
X14129640Y88728362D01*
X14089886Y88795289D01*
X14061538Y88898056D01*
X14065721Y88969232D01*
X14111018Y89007550D01*
X14223428Y89075521D01*
X14392835Y89168094D01*
X14609125Y89280219D01*
X14862184Y89406845D01*
X15141894Y89542924D01*
X15438143Y89683404D01*
X15740813Y89823236D01*
X16039791Y89957368D01*
X16082538Y89976177D01*
X16248800Y90047334D01*
X16478770Y90143158D01*
X16757306Y90257476D01*
X17069265Y90384117D01*
X17399506Y90516906D01*
X17732887Y90649673D01*
X17797038Y90675060D01*
X18136305Y90809170D01*
X18481932Y90945790D01*
X18817343Y91078368D01*
X19125961Y91200351D01*
X19391209Y91305188D01*
X19596511Y91386325D01*
X19618500Y91395015D01*
X19894210Y91502373D01*
X20211278Y91623322D01*
X20531213Y91743306D01*
X20815520Y91847771D01*
X20825000Y91851202D01*
X21061158Y91938886D01*
X21350875Y92050010D01*
X21669742Y92175004D01*
X21993353Y92304295D01*
X22297298Y92428314D01*
X22306666Y92432188D01*
X22584533Y92543297D01*
X22921977Y92672072D01*
X23297802Y92810798D01*
X23690815Y92951757D01*
X24079820Y93087233D01*
X24423333Y93202830D01*
X24738546Y93307264D01*
X25032808Y93405773D01*
X25295092Y93494586D01*
X25514371Y93569934D01*
X25679618Y93628045D01*
X25779808Y93665151D01*
X25799166Y93673252D01*
X25881413Y93704878D01*
X26028391Y93755075D01*
X26223621Y93818461D01*
X26450624Y93889657D01*
X26624666Y93942786D01*
X27729162Y94299797D01*
X28758073Y94682084D01*
X29717391Y95092254D01*
X30613106Y95532917D01*
X31451210Y96006681D01*
X31660090Y96135397D01*
X31821683Y96231394D01*
X31964957Y96306867D01*
X32069798Y96351692D01*
X32105754Y96359667D01*
X32241189Y96324461D01*
G37*
X32241189Y96324461D02*
X32337014Y96234297D01*
X32381296Y96112359D01*
X32362101Y95981829D01*
X32329083Y95925820D01*
X32265710Y95870790D01*
X32138886Y95782912D01*
X31959977Y95668972D01*
X31740348Y95535758D01*
X31491364Y95390057D01*
X31224390Y95238655D01*
X30950792Y95088341D01*
X30731000Y94971455D01*
X30102283Y94661323D01*
X29410303Y94353665D01*
X28676257Y94056896D01*
X27921338Y93779430D01*
X27166743Y93529683D01*
X26878666Y93442070D01*
X26589080Y93356212D01*
X26345493Y93283674D01*
X26133056Y93219839D01*
X25936919Y93160090D01*
X25742232Y93099808D01*
X25534145Y93034376D01*
X25297809Y92959177D01*
X25018373Y92869593D01*
X24680989Y92761007D01*
X24476499Y92695106D01*
X24124058Y92577598D01*
X23726755Y92438658D01*
X23315477Y92289505D01*
X22921110Y92141354D01*
X22574540Y92005420D01*
X22550332Y91995623D01*
X22217337Y91862089D01*
X21846529Y91716044D01*
X21466185Y91568452D01*
X21104581Y91430279D01*
X20789992Y91312489D01*
X20761500Y91301992D01*
X20256747Y91114767D01*
X19735612Y90918445D01*
X19206467Y90716375D01*
X18677683Y90511903D01*
X18157631Y90308376D01*
X17654683Y90109140D01*
X17177209Y89917544D01*
X16733581Y89736932D01*
X16332170Y89570654D01*
X15981347Y89422054D01*
X15689485Y89294481D01*
X15464954Y89191281D01*
X15388223Y89153740D01*
X15088565Y89009100D01*
X14809588Y88886203D01*
X14566127Y88791042D01*
X14373017Y88729609D01*
X14296535Y88712835D01*
X14188698Y88702766D01*
X14129640Y88728362D01*
X14089886Y88795289D01*
X14061538Y88898056D01*
X14065721Y88969232D01*
X14111018Y89007550D01*
X14223428Y89075521D01*
X14392835Y89168094D01*
X14609125Y89280219D01*
X14862184Y89406845D01*
X15141894Y89542924D01*
X15438143Y89683404D01*
X15740813Y89823236D01*
X16039791Y89957368D01*
X16082538Y89976177D01*
X16248800Y90047334D01*
X16478770Y90143158D01*
X16757306Y90257476D01*
X17069265Y90384117D01*
X17399506Y90516906D01*
X17732887Y90649673D01*
X17797038Y90675060D01*
X18136305Y90809170D01*
X18481932Y90945790D01*
X18817343Y91078368D01*
X19125961Y91200351D01*
X19391209Y91305188D01*
X19596511Y91386325D01*
X19618500Y91395015D01*
X19894210Y91502373D01*
X20211278Y91623322D01*
X20531213Y91743306D01*
X20815520Y91847771D01*
X20825000Y91851202D01*
X21061158Y91938886D01*
X21350875Y92050010D01*
X21669742Y92175004D01*
X21993353Y92304295D01*
X22297298Y92428314D01*
X22306666Y92432188D01*
X22584533Y92543297D01*
X22921977Y92672072D01*
X23297802Y92810798D01*
X23690815Y92951757D01*
X24079820Y93087233D01*
X24423333Y93202830D01*
X24738546Y93307264D01*
X25032808Y93405773D01*
X25295092Y93494586D01*
X25514371Y93569934D01*
X25679618Y93628045D01*
X25779808Y93665151D01*
X25799166Y93673252D01*
X25881413Y93704878D01*
X26028391Y93755075D01*
X26223621Y93818461D01*
X26450624Y93889657D01*
X26624666Y93942786D01*
X27729162Y94299797D01*
X28758073Y94682084D01*
X29717391Y95092254D01*
X30613106Y95532917D01*
X31451210Y96006681D01*
X31660090Y96135397D01*
X31821683Y96231394D01*
X31964957Y96306867D01*
X32069798Y96351692D01*
X32105754Y96359667D01*
X32241189Y96324461D01*
G36*
X9678812Y75325022D02*
G01*
X9766259Y75252103D01*
X9812290Y75176574D01*
X9838003Y75045488D01*
X9782674Y74933073D01*
X9648352Y74841741D01*
X9478475Y74783708D01*
X9228198Y74700429D01*
X8943662Y74573419D01*
X8652110Y74417130D01*
X8380786Y74246019D01*
X8181416Y74095525D01*
X7964649Y73892568D01*
X7716140Y73624406D01*
X7443210Y73300952D01*
X7153181Y72932118D01*
X6853374Y72527815D01*
X6551110Y72097957D01*
X6253710Y71652455D01*
X5968495Y71201222D01*
X5702786Y70754169D01*
X5666336Y70690323D01*
X5362573Y70155333D01*
X5166870Y70161099D01*
X5025202Y70168627D01*
X4904954Y70180577D01*
X4875916Y70185210D01*
X4801691Y70208356D01*
X4780666Y70227150D01*
X4800677Y70275879D01*
X4855864Y70384565D01*
X4938956Y70539905D01*
X5042686Y70728596D01*
X5159785Y70937335D01*
X5282982Y71152821D01*
X5342881Y71256000D01*
X5469067Y71463625D01*
X5633980Y71722304D01*
X5826088Y72014955D01*
X6033860Y72324497D01*
X6245762Y72633848D01*
X6450263Y72925927D01*
X6635830Y73183652D01*
X6728188Y73307941D01*
X7029057Y73695145D01*
X7301313Y74018166D01*
X7556386Y74287419D01*
X7805706Y74513320D01*
X8060701Y74706285D01*
X8332803Y74876729D01*
X8611833Y75024460D01*
X8934513Y75176468D01*
X9194955Y75281566D01*
X9400755Y75340716D01*
X9559509Y75354880D01*
X9678812Y75325022D01*
G37*
X9678812Y75325022D02*
X9766259Y75252103D01*
X9812290Y75176574D01*
X9838003Y75045488D01*
X9782674Y74933073D01*
X9648352Y74841741D01*
X9478475Y74783708D01*
X9228198Y74700429D01*
X8943662Y74573419D01*
X8652110Y74417130D01*
X8380786Y74246019D01*
X8181416Y74095525D01*
X7964649Y73892568D01*
X7716140Y73624406D01*
X7443210Y73300952D01*
X7153181Y72932118D01*
X6853374Y72527815D01*
X6551110Y72097957D01*
X6253710Y71652455D01*
X5968495Y71201222D01*
X5702786Y70754169D01*
X5666336Y70690323D01*
X5362573Y70155333D01*
X5166870Y70161099D01*
X5025202Y70168627D01*
X4904954Y70180577D01*
X4875916Y70185210D01*
X4801691Y70208356D01*
X4780666Y70227150D01*
X4800677Y70275879D01*
X4855864Y70384565D01*
X4938956Y70539905D01*
X5042686Y70728596D01*
X5159785Y70937335D01*
X5282982Y71152821D01*
X5342881Y71256000D01*
X5469067Y71463625D01*
X5633980Y71722304D01*
X5826088Y72014955D01*
X6033860Y72324497D01*
X6245762Y72633848D01*
X6450263Y72925927D01*
X6635830Y73183652D01*
X6728188Y73307941D01*
X7029057Y73695145D01*
X7301313Y74018166D01*
X7556386Y74287419D01*
X7805706Y74513320D01*
X8060701Y74706285D01*
X8332803Y74876729D01*
X8611833Y75024460D01*
X8934513Y75176468D01*
X9194955Y75281566D01*
X9400755Y75340716D01*
X9559509Y75354880D01*
X9678812Y75325022D01*
G36*
X8467409Y101467613D02*
G01*
X8557391Y101377027D01*
X8590370Y101259750D01*
X8580600Y101174607D01*
X8554965Y101034400D01*
X8518520Y100866109D01*
X8509038Y100825833D01*
X8472117Y100662760D01*
X8424794Y100440837D01*
X8372127Y100184459D01*
X8319175Y99918021D01*
X8296506Y99800845D01*
X8224126Y99441640D01*
X8149439Y99114297D01*
X8066516Y98798009D01*
X7969427Y98471969D01*
X7852242Y98115371D01*
X7709032Y97707407D01*
X7665538Y97586869D01*
X7549313Y97267130D01*
X7453734Y97007724D01*
X7370935Y96789262D01*
X7293052Y96592355D01*
X7212219Y96397615D01*
X7120571Y96185651D01*
X7010244Y95937077D01*
X6873372Y95632501D01*
X6867213Y95618833D01*
X6750082Y95356678D01*
X6637924Y95101575D01*
X6538097Y94870571D01*
X6457961Y94680710D01*
X6404874Y94549038D01*
X6401188Y94539333D01*
X6355730Y94424202D01*
X6282505Y94245531D01*
X6187434Y94017457D01*
X6076437Y93754117D01*
X5955435Y93469647D01*
X5858820Y93244286D01*
X5568495Y92535982D01*
X5328015Y91872675D01*
X5131703Y91235443D01*
X4973885Y90605364D01*
X4848882Y89963514D01*
X4818635Y89776833D01*
X4763814Y89172940D01*
X4779857Y88546946D01*
X4864586Y87919567D01*
X5015823Y87311521D01*
X5105577Y87048168D01*
X5469504Y86186913D01*
X5904264Y85364795D01*
X6405582Y84588627D01*
X6969179Y83865223D01*
X7401697Y83390557D01*
X7652912Y83139935D01*
X7898108Y82913439D01*
X8145787Y82706145D01*
X8404448Y82513132D01*
X8682590Y82329475D01*
X8988714Y82150253D01*
X9331319Y81970543D01*
X9718906Y81785422D01*
X10159974Y81589968D01*
X10663022Y81379256D01*
X11236552Y81148366D01*
X11352203Y81102594D01*
X11688157Y80968771D01*
X12041044Y80826161D01*
X12390557Y80683112D01*
X12716389Y80547975D01*
X12998232Y80429099D01*
X13162666Y80358201D01*
X13459823Y80230328D01*
X13798768Y80087700D01*
X14144060Y79945043D01*
X14460259Y79817088D01*
X14559666Y79777646D01*
X15018812Y79595134D01*
X15516800Y79394377D01*
X16037479Y79182072D01*
X16564701Y78964911D01*
X17082317Y78749589D01*
X17574177Y78542801D01*
X18024132Y78351241D01*
X18416032Y78181603D01*
X18517833Y78136885D01*
X18829996Y77999305D01*
X19169267Y77849950D01*
X19509877Y77700152D01*
X19826059Y77561243D01*
X20092048Y77444555D01*
X20105333Y77438733D01*
X20396138Y77307088D01*
X20745911Y77141807D01*
X21139650Y76950452D01*
X21562353Y76740580D01*
X21999017Y76519750D01*
X22434641Y76295522D01*
X22854222Y76075454D01*
X23242759Y75867105D01*
X23449666Y75753673D01*
X23850554Y75529643D01*
X24227154Y75314346D01*
X24596813Y75097408D01*
X24976874Y74868455D01*
X25384683Y74617114D01*
X25837582Y74333010D01*
X26053166Y74196505D01*
X26370496Y73997295D01*
X26714884Y73784862D01*
X27065233Y73571964D01*
X27400445Y73371359D01*
X27699422Y73195808D01*
X27864067Y73101330D01*
X28149362Y72938383D01*
X28456290Y72760858D01*
X28760501Y72582988D01*
X29037641Y72419004D01*
X29248577Y72292147D01*
X29449620Y72171372D01*
X29626741Y72067930D01*
X29766816Y71989251D01*
X29856722Y71942767D01*
X29882251Y71933333D01*
X29933922Y71914033D01*
X30047422Y71860492D01*
X30210380Y71779251D01*
X30410428Y71676849D01*
X30635196Y71559828D01*
X30872314Y71434728D01*
X31109412Y71308090D01*
X31334123Y71186452D01*
X31534074Y71076357D01*
X31696898Y70984344D01*
X31810225Y70916953D01*
X31836265Y70900153D01*
X32198086Y70658523D01*
X32512405Y70451954D01*
X32800936Y70266753D01*
X33085396Y70089222D01*
X33387499Y69905666D01*
X33728961Y69702389D01*
X33828123Y69643877D01*
X34244957Y69400222D01*
X34674046Y69152992D01*
X35102711Y68909265D01*
X35518276Y68676121D01*
X35908062Y68460636D01*
X36259392Y68269890D01*
X36559590Y68110961D01*
X36729120Y68024136D01*
X36968770Y67893786D01*
X37131685Y67778863D01*
X37222732Y67672225D01*
X37246781Y67566730D01*
X37208699Y67455236D01*
X37162594Y67388209D01*
X37098565Y67322578D01*
X37024134Y67285180D01*
X36929491Y67278432D01*
X36804826Y67304747D01*
X36640331Y67366543D01*
X36426196Y67466234D01*
X36152614Y67606236D01*
X36043833Y67663703D01*
X35589488Y67908295D01*
X35110568Y68172092D01*
X34618792Y68448249D01*
X34125881Y68729925D01*
X33643557Y69010278D01*
X33183539Y69282463D01*
X32757548Y69539640D01*
X32377304Y69774964D01*
X32054530Y69981595D01*
X31916333Y70073376D01*
X31684882Y70222274D01*
X31410511Y70387533D01*
X31126889Y70549431D01*
X30867691Y70688249D01*
X30858000Y70693200D01*
X30673019Y70791046D01*
X30430936Y70924514D01*
X30146836Y71084986D01*
X29835806Y71263842D01*
X29512930Y71452464D01*
X29193294Y71642233D01*
X29122333Y71684829D01*
X28803680Y71875702D01*
X28477051Y72069861D01*
X28157880Y72258237D01*
X27861603Y72431760D01*
X27603655Y72581362D01*
X27399472Y72697974D01*
X27365500Y72717069D01*
X27134566Y72849546D01*
X26856946Y73013780D01*
X26556807Y73195180D01*
X26258318Y73379153D01*
X26010833Y73535013D01*
X24790743Y74294709D01*
X23611832Y74990434D01*
X22465610Y75626783D01*
X21343589Y76208354D01*
X20237277Y76739743D01*
X19406833Y77110674D01*
X19109386Y77239603D01*
X18804992Y77372181D01*
X18513148Y77499873D01*
X18253351Y77614140D01*
X18045098Y77706444D01*
X17988666Y77731681D01*
X17811389Y77809464D01*
X17568507Y77913466D01*
X17272976Y78038335D01*
X16937751Y78178719D01*
X16575789Y78329267D01*
X16200045Y78484628D01*
X15823474Y78639448D01*
X15459033Y78788378D01*
X15119677Y78926065D01*
X14818362Y79047158D01*
X14568044Y79146305D01*
X14496166Y79174331D01*
X14317319Y79245439D01*
X14079826Y79342434D01*
X13802680Y79457417D01*
X13504868Y79582491D01*
X13205382Y79709759D01*
X13099166Y79755300D01*
X12787878Y79887500D01*
X12422495Y80040026D01*
X12027889Y80202662D01*
X11628930Y80365192D01*
X11250491Y80517398D01*
X11053909Y80595457D01*
X10403221Y80857461D01*
X9833869Y81097592D01*
X9345449Y81316030D01*
X8937554Y81512955D01*
X8643830Y81669198D01*
X8103594Y82013597D01*
X7567480Y82432383D01*
X7044958Y82915445D01*
X6545501Y83452672D01*
X6078580Y84033953D01*
X5653666Y84649177D01*
X5316080Y85221532D01*
X4981733Y85868711D01*
X4708631Y86471617D01*
X4494974Y87042484D01*
X4338959Y87593547D01*
X4238783Y88137044D01*
X4192645Y88685208D01*
X4198741Y89250276D01*
X4255271Y89844483D01*
X4360430Y90480064D01*
X4467726Y90980897D01*
X4587425Y91464058D01*
X4715319Y91906524D01*
X4861308Y92338092D01*
X5035293Y92788555D01*
X5193041Y93163500D01*
X5299172Y93410878D01*
X5426396Y93710666D01*
X5563776Y94036897D01*
X5700376Y94363609D01*
X5817146Y94645167D01*
X5941319Y94942806D01*
X6075162Y95258076D01*
X6208256Y95566802D01*
X6330181Y95844807D01*
X6428414Y96063333D01*
X6556596Y96354620D01*
X6698983Y96697822D01*
X6848812Y97074913D01*
X6999320Y97467864D01*
X7143743Y97858647D01*
X7275318Y98229234D01*
X7387282Y98561598D01*
X7472872Y98837709D01*
X7484522Y98878500D01*
X7540876Y99093403D01*
X7605198Y99361710D01*
X7670621Y99653469D01*
X7730277Y99938728D01*
X7746592Y100021500D01*
X7825568Y100421117D01*
X7893118Y100744158D01*
X7951037Y100997678D01*
X8001118Y101188729D01*
X8045153Y101324364D01*
X8084938Y101411638D01*
X8108484Y101444806D01*
X8217589Y101511243D01*
X8345687Y101515598D01*
X8467409Y101467613D01*
G37*
X8467409Y101467613D02*
X8557391Y101377027D01*
X8590370Y101259750D01*
X8580600Y101174607D01*
X8554965Y101034400D01*
X8518520Y100866109D01*
X8509038Y100825833D01*
X8472117Y100662760D01*
X8424794Y100440837D01*
X8372127Y100184459D01*
X8319175Y99918021D01*
X8296506Y99800845D01*
X8224126Y99441640D01*
X8149439Y99114297D01*
X8066516Y98798009D01*
X7969427Y98471969D01*
X7852242Y98115371D01*
X7709032Y97707407D01*
X7665538Y97586869D01*
X7549313Y97267130D01*
X7453734Y97007724D01*
X7370935Y96789262D01*
X7293052Y96592355D01*
X7212219Y96397615D01*
X7120571Y96185651D01*
X7010244Y95937077D01*
X6873372Y95632501D01*
X6867213Y95618833D01*
X6750082Y95356678D01*
X6637924Y95101575D01*
X6538097Y94870571D01*
X6457961Y94680710D01*
X6404874Y94549038D01*
X6401188Y94539333D01*
X6355730Y94424202D01*
X6282505Y94245531D01*
X6187434Y94017457D01*
X6076437Y93754117D01*
X5955435Y93469647D01*
X5858820Y93244286D01*
X5568495Y92535982D01*
X5328015Y91872675D01*
X5131703Y91235443D01*
X4973885Y90605364D01*
X4848882Y89963514D01*
X4818635Y89776833D01*
X4763814Y89172940D01*
X4779857Y88546946D01*
X4864586Y87919567D01*
X5015823Y87311521D01*
X5105577Y87048168D01*
X5469504Y86186913D01*
X5904264Y85364795D01*
X6405582Y84588627D01*
X6969179Y83865223D01*
X7401697Y83390557D01*
X7652912Y83139935D01*
X7898108Y82913439D01*
X8145787Y82706145D01*
X8404448Y82513132D01*
X8682590Y82329475D01*
X8988714Y82150253D01*
X9331319Y81970543D01*
X9718906Y81785422D01*
X10159974Y81589968D01*
X10663022Y81379256D01*
X11236552Y81148366D01*
X11352203Y81102594D01*
X11688157Y80968771D01*
X12041044Y80826161D01*
X12390557Y80683112D01*
X12716389Y80547975D01*
X12998232Y80429099D01*
X13162666Y80358201D01*
X13459823Y80230328D01*
X13798768Y80087700D01*
X14144060Y79945043D01*
X14460259Y79817088D01*
X14559666Y79777646D01*
X15018812Y79595134D01*
X15516800Y79394377D01*
X16037479Y79182072D01*
X16564701Y78964911D01*
X17082317Y78749589D01*
X17574177Y78542801D01*
X18024132Y78351241D01*
X18416032Y78181603D01*
X18517833Y78136885D01*
X18829996Y77999305D01*
X19169267Y77849950D01*
X19509877Y77700152D01*
X19826059Y77561243D01*
X20092048Y77444555D01*
X20105333Y77438733D01*
X20396138Y77307088D01*
X20745911Y77141807D01*
X21139650Y76950452D01*
X21562353Y76740580D01*
X21999017Y76519750D01*
X22434641Y76295522D01*
X22854222Y76075454D01*
X23242759Y75867105D01*
X23449666Y75753673D01*
X23850554Y75529643D01*
X24227154Y75314346D01*
X24596813Y75097408D01*
X24976874Y74868455D01*
X25384683Y74617114D01*
X25837582Y74333010D01*
X26053166Y74196505D01*
X26370496Y73997295D01*
X26714884Y73784862D01*
X27065233Y73571964D01*
X27400445Y73371359D01*
X27699422Y73195808D01*
X27864067Y73101330D01*
X28149362Y72938383D01*
X28456290Y72760858D01*
X28760501Y72582988D01*
X29037641Y72419004D01*
X29248577Y72292147D01*
X29449620Y72171372D01*
X29626741Y72067930D01*
X29766816Y71989251D01*
X29856722Y71942767D01*
X29882251Y71933333D01*
X29933922Y71914033D01*
X30047422Y71860492D01*
X30210380Y71779251D01*
X30410428Y71676849D01*
X30635196Y71559828D01*
X30872314Y71434728D01*
X31109412Y71308090D01*
X31334123Y71186452D01*
X31534074Y71076357D01*
X31696898Y70984344D01*
X31810225Y70916953D01*
X31836265Y70900153D01*
X32198086Y70658523D01*
X32512405Y70451954D01*
X32800936Y70266753D01*
X33085396Y70089222D01*
X33387499Y69905666D01*
X33728961Y69702389D01*
X33828123Y69643877D01*
X34244957Y69400222D01*
X34674046Y69152992D01*
X35102711Y68909265D01*
X35518276Y68676121D01*
X35908062Y68460636D01*
X36259392Y68269890D01*
X36559590Y68110961D01*
X36729120Y68024136D01*
X36968770Y67893786D01*
X37131685Y67778863D01*
X37222732Y67672225D01*
X37246781Y67566730D01*
X37208699Y67455236D01*
X37162594Y67388209D01*
X37098565Y67322578D01*
X37024134Y67285180D01*
X36929491Y67278432D01*
X36804826Y67304747D01*
X36640331Y67366543D01*
X36426196Y67466234D01*
X36152614Y67606236D01*
X36043833Y67663703D01*
X35589488Y67908295D01*
X35110568Y68172092D01*
X34618792Y68448249D01*
X34125881Y68729925D01*
X33643557Y69010278D01*
X33183539Y69282463D01*
X32757548Y69539640D01*
X32377304Y69774964D01*
X32054530Y69981595D01*
X31916333Y70073376D01*
X31684882Y70222274D01*
X31410511Y70387533D01*
X31126889Y70549431D01*
X30867691Y70688249D01*
X30858000Y70693200D01*
X30673019Y70791046D01*
X30430936Y70924514D01*
X30146836Y71084986D01*
X29835806Y71263842D01*
X29512930Y71452464D01*
X29193294Y71642233D01*
X29122333Y71684829D01*
X28803680Y71875702D01*
X28477051Y72069861D01*
X28157880Y72258237D01*
X27861603Y72431760D01*
X27603655Y72581362D01*
X27399472Y72697974D01*
X27365500Y72717069D01*
X27134566Y72849546D01*
X26856946Y73013780D01*
X26556807Y73195180D01*
X26258318Y73379153D01*
X26010833Y73535013D01*
X24790743Y74294709D01*
X23611832Y74990434D01*
X22465610Y75626783D01*
X21343589Y76208354D01*
X20237277Y76739743D01*
X19406833Y77110674D01*
X19109386Y77239603D01*
X18804992Y77372181D01*
X18513148Y77499873D01*
X18253351Y77614140D01*
X18045098Y77706444D01*
X17988666Y77731681D01*
X17811389Y77809464D01*
X17568507Y77913466D01*
X17272976Y78038335D01*
X16937751Y78178719D01*
X16575789Y78329267D01*
X16200045Y78484628D01*
X15823474Y78639448D01*
X15459033Y78788378D01*
X15119677Y78926065D01*
X14818362Y79047158D01*
X14568044Y79146305D01*
X14496166Y79174331D01*
X14317319Y79245439D01*
X14079826Y79342434D01*
X13802680Y79457417D01*
X13504868Y79582491D01*
X13205382Y79709759D01*
X13099166Y79755300D01*
X12787878Y79887500D01*
X12422495Y80040026D01*
X12027889Y80202662D01*
X11628930Y80365192D01*
X11250491Y80517398D01*
X11053909Y80595457D01*
X10403221Y80857461D01*
X9833869Y81097592D01*
X9345449Y81316030D01*
X8937554Y81512955D01*
X8643830Y81669198D01*
X8103594Y82013597D01*
X7567480Y82432383D01*
X7044958Y82915445D01*
X6545501Y83452672D01*
X6078580Y84033953D01*
X5653666Y84649177D01*
X5316080Y85221532D01*
X4981733Y85868711D01*
X4708631Y86471617D01*
X4494974Y87042484D01*
X4338959Y87593547D01*
X4238783Y88137044D01*
X4192645Y88685208D01*
X4198741Y89250276D01*
X4255271Y89844483D01*
X4360430Y90480064D01*
X4467726Y90980897D01*
X4587425Y91464058D01*
X4715319Y91906524D01*
X4861308Y92338092D01*
X5035293Y92788555D01*
X5193041Y93163500D01*
X5299172Y93410878D01*
X5426396Y93710666D01*
X5563776Y94036897D01*
X5700376Y94363609D01*
X5817146Y94645167D01*
X5941319Y94942806D01*
X6075162Y95258076D01*
X6208256Y95566802D01*
X6330181Y95844807D01*
X6428414Y96063333D01*
X6556596Y96354620D01*
X6698983Y96697822D01*
X6848812Y97074913D01*
X6999320Y97467864D01*
X7143743Y97858647D01*
X7275318Y98229234D01*
X7387282Y98561598D01*
X7472872Y98837709D01*
X7484522Y98878500D01*
X7540876Y99093403D01*
X7605198Y99361710D01*
X7670621Y99653469D01*
X7730277Y99938728D01*
X7746592Y100021500D01*
X7825568Y100421117D01*
X7893118Y100744158D01*
X7951037Y100997678D01*
X8001118Y101188729D01*
X8045153Y101324364D01*
X8084938Y101411638D01*
X8108484Y101444806D01*
X8217589Y101511243D01*
X8345687Y101515598D01*
X8467409Y101467613D01*
G36*
X39599660Y48307461D02*
G01*
X39672617Y48278106D01*
X39724054Y48224775D01*
X39745426Y48189143D01*
X39788960Y48083128D01*
X39790463Y47993915D01*
X39742779Y47916287D01*
X39638750Y47845025D01*
X39471220Y47774909D01*
X39233033Y47700723D01*
X38984661Y47634388D01*
X38657698Y47554854D01*
X38259509Y47464674D01*
X37802519Y47366253D01*
X37299155Y47262000D01*
X36761844Y47154321D01*
X36203014Y47045623D01*
X35635090Y46938315D01*
X35070501Y46834802D01*
X34521672Y46737492D01*
X34001030Y46648792D01*
X33521003Y46571109D01*
X33393242Y46551304D01*
X33311599Y46543828D01*
X33246085Y46559067D01*
X33176315Y46609139D01*
X33081907Y46706161D01*
X33023482Y46771143D01*
X32922385Y46887513D01*
X32849704Y46976855D01*
X32818315Y47023177D01*
X32818246Y47026024D01*
X32861970Y47036143D01*
X32974143Y47056006D01*
X33139441Y47083056D01*
X33342544Y47114736D01*
X33420838Y47126611D01*
X33870491Y47197397D01*
X34372709Y47281845D01*
X34913469Y47377226D01*
X35478744Y47480812D01*
X36054511Y47589876D01*
X36626745Y47701688D01*
X37181421Y47813520D01*
X37704515Y47922644D01*
X38182002Y48026331D01*
X38599857Y48121854D01*
X38854348Y48183649D01*
X39132528Y48250934D01*
X39341530Y48293948D01*
X39493269Y48312766D01*
X39599660Y48307461D01*
G37*
X39599660Y48307461D02*
X39672617Y48278106D01*
X39724054Y48224775D01*
X39745426Y48189143D01*
X39788960Y48083128D01*
X39790463Y47993915D01*
X39742779Y47916287D01*
X39638750Y47845025D01*
X39471220Y47774909D01*
X39233033Y47700723D01*
X38984661Y47634388D01*
X38657698Y47554854D01*
X38259509Y47464674D01*
X37802519Y47366253D01*
X37299155Y47262000D01*
X36761844Y47154321D01*
X36203014Y47045623D01*
X35635090Y46938315D01*
X35070501Y46834802D01*
X34521672Y46737492D01*
X34001030Y46648792D01*
X33521003Y46571109D01*
X33393242Y46551304D01*
X33311599Y46543828D01*
X33246085Y46559067D01*
X33176315Y46609139D01*
X33081907Y46706161D01*
X33023482Y46771143D01*
X32922385Y46887513D01*
X32849704Y46976855D01*
X32818315Y47023177D01*
X32818246Y47026024D01*
X32861970Y47036143D01*
X32974143Y47056006D01*
X33139441Y47083056D01*
X33342544Y47114736D01*
X33420838Y47126611D01*
X33870491Y47197397D01*
X34372709Y47281845D01*
X34913469Y47377226D01*
X35478744Y47480812D01*
X36054511Y47589876D01*
X36626745Y47701688D01*
X37181421Y47813520D01*
X37704515Y47922644D01*
X38182002Y48026331D01*
X38599857Y48121854D01*
X38854348Y48183649D01*
X39132528Y48250934D01*
X39341530Y48293948D01*
X39493269Y48312766D01*
X39599660Y48307461D01*
G36*
X3800527Y65665675D02*
G01*
X3886072Y65655716D01*
X3919705Y65633651D01*
X3917774Y65595005D01*
X3917450Y65593917D01*
X3875379Y65408849D01*
X3837254Y65153967D01*
X3804329Y64844084D01*
X3777856Y64494009D01*
X3759089Y64118555D01*
X3749281Y63732530D01*
X3748184Y63593667D01*
X3749644Y63224588D01*
X3758603Y62918590D01*
X3778271Y62654196D01*
X3811857Y62409928D01*
X3862569Y62164309D01*
X3933618Y61895861D01*
X4028213Y61583109D01*
X4066837Y61461212D01*
X4236527Y61004987D01*
X4466936Y60504057D01*
X4752907Y59966901D01*
X5089283Y59401998D01*
X5470907Y58817830D01*
X5892620Y58222875D01*
X6349266Y57625614D01*
X6554678Y57370684D01*
X6742453Y57144238D01*
X6936235Y56916965D01*
X7141410Y56683176D01*
X7363363Y56437185D01*
X7607479Y56173304D01*
X7879143Y55885846D01*
X8183741Y55569123D01*
X8526656Y55217448D01*
X8913275Y54825133D01*
X9348982Y54386491D01*
X9839163Y53895835D01*
X9941496Y53793669D01*
X10401020Y53333750D01*
X10800861Y52930763D01*
X11140806Y52584931D01*
X11420641Y52296474D01*
X11640154Y52065615D01*
X11799132Y51892575D01*
X11897362Y51777577D01*
X11934631Y51720842D01*
X11935000Y51718172D01*
X11911076Y51617018D01*
X11871176Y51541052D01*
X11832074Y51456477D01*
X11787169Y51316384D01*
X11745210Y51148659D01*
X11739214Y51120447D01*
X11671076Y50790963D01*
X11834788Y50649660D01*
X12149018Y50384466D01*
X12445080Y50149345D01*
X12732841Y49939300D01*
X13022169Y49749333D01*
X13322931Y49574446D01*
X13644996Y49409640D01*
X13998230Y49249918D01*
X14392502Y49090282D01*
X14837679Y48925733D01*
X15343629Y48751274D01*
X15920220Y48561906D01*
X16020166Y48529736D01*
X16746281Y48300467D01*
X17411062Y48099820D01*
X18029259Y47924737D01*
X18615623Y47772159D01*
X19184905Y47639027D01*
X19751855Y47522282D01*
X20331225Y47418866D01*
X20937765Y47325720D01*
X21586227Y47239785D01*
X22291360Y47158002D01*
X22984000Y47085682D01*
X23280439Y47055916D01*
X23580017Y47025708D01*
X23860773Y46997282D01*
X24100752Y46972861D01*
X24275166Y46954961D01*
X24713276Y46912748D01*
X25137517Y46878840D01*
X25569320Y46852017D01*
X26030116Y46831060D01*
X26541338Y46814749D01*
X26878666Y46806737D01*
X27185365Y46799594D01*
X27469992Y46791812D01*
X27719790Y46783831D01*
X27921997Y46776091D01*
X28063855Y46769033D01*
X28129555Y46763602D01*
X28201195Y46745450D01*
X28251655Y46704058D01*
X28295280Y46620108D01*
X28346420Y46474281D01*
X28347970Y46469515D01*
X28437330Y46194667D01*
X27901415Y46203453D01*
X27646375Y46208033D01*
X27374323Y46213571D01*
X27121912Y46219291D01*
X26963333Y46223347D01*
X26254504Y46251117D01*
X25472676Y46296964D01*
X24627398Y46360149D01*
X23728218Y46439931D01*
X22784686Y46535569D01*
X22412500Y46576362D01*
X21679565Y46662016D01*
X21009375Y46749042D01*
X20388030Y46840539D01*
X19801635Y46939607D01*
X19236291Y47049348D01*
X18678100Y47172861D01*
X18113167Y47313248D01*
X17527593Y47473607D01*
X16907480Y47657041D01*
X16238932Y47866648D01*
X15508051Y48105529D01*
X15406333Y48139362D01*
X14811109Y48342985D01*
X14288728Y48533941D01*
X13829196Y48717091D01*
X13422523Y48897290D01*
X13058718Y49079398D01*
X12727787Y49268272D01*
X12419740Y49468770D01*
X12124586Y49685750D01*
X11966954Y49811557D01*
X11779870Y49964430D01*
X11589784Y50119180D01*
X11420531Y50256432D01*
X11308700Y50346593D01*
X11181900Y50452609D01*
X11107937Y50532176D01*
X11071271Y50608781D01*
X11056361Y50705905D01*
X11054571Y50730633D01*
X11058193Y50858337D01*
X11078610Y51037261D01*
X11111926Y51236522D01*
X11128827Y51318848D01*
X11215678Y51716784D01*
X9255119Y53686475D01*
X8760622Y54184086D01*
X8321335Y54628170D01*
X7932010Y55024473D01*
X7587402Y55378744D01*
X7282264Y55696729D01*
X7011349Y55984175D01*
X6769410Y56246831D01*
X6551201Y56490443D01*
X6351476Y56720759D01*
X6164987Y56943526D01*
X5986488Y57164491D01*
X5810734Y57389403D01*
X5632476Y57624007D01*
X5506607Y57792743D01*
X5001719Y58500303D01*
X4565165Y59170376D01*
X4193296Y59810051D01*
X3882460Y60426417D01*
X3629009Y61026559D01*
X3429292Y61617567D01*
X3315052Y62048500D01*
X3248223Y62416716D01*
X3202891Y62848900D01*
X3179101Y63327120D01*
X3176897Y63833440D01*
X3196324Y64349926D01*
X3237426Y64858644D01*
X3300248Y65341659D01*
X3306803Y65382250D01*
X3353741Y65668000D01*
X3646723Y65668000D01*
X3800527Y65665675D01*
G37*
X3800527Y65665675D02*
X3886072Y65655716D01*
X3919705Y65633651D01*
X3917774Y65595005D01*
X3917450Y65593917D01*
X3875379Y65408849D01*
X3837254Y65153967D01*
X3804329Y64844084D01*
X3777856Y64494009D01*
X3759089Y64118555D01*
X3749281Y63732530D01*
X3748184Y63593667D01*
X3749644Y63224588D01*
X3758603Y62918590D01*
X3778271Y62654196D01*
X3811857Y62409928D01*
X3862569Y62164309D01*
X3933618Y61895861D01*
X4028213Y61583109D01*
X4066837Y61461212D01*
X4236527Y61004987D01*
X4466936Y60504057D01*
X4752907Y59966901D01*
X5089283Y59401998D01*
X5470907Y58817830D01*
X5892620Y58222875D01*
X6349266Y57625614D01*
X6554678Y57370684D01*
X6742453Y57144238D01*
X6936235Y56916965D01*
X7141410Y56683176D01*
X7363363Y56437185D01*
X7607479Y56173304D01*
X7879143Y55885846D01*
X8183741Y55569123D01*
X8526656Y55217448D01*
X8913275Y54825133D01*
X9348982Y54386491D01*
X9839163Y53895835D01*
X9941496Y53793669D01*
X10401020Y53333750D01*
X10800861Y52930763D01*
X11140806Y52584931D01*
X11420641Y52296474D01*
X11640154Y52065615D01*
X11799132Y51892575D01*
X11897362Y51777577D01*
X11934631Y51720842D01*
X11935000Y51718172D01*
X11911076Y51617018D01*
X11871176Y51541052D01*
X11832074Y51456477D01*
X11787169Y51316384D01*
X11745210Y51148659D01*
X11739214Y51120447D01*
X11671076Y50790963D01*
X11834788Y50649660D01*
X12149018Y50384466D01*
X12445080Y50149345D01*
X12732841Y49939300D01*
X13022169Y49749333D01*
X13322931Y49574446D01*
X13644996Y49409640D01*
X13998230Y49249918D01*
X14392502Y49090282D01*
X14837679Y48925733D01*
X15343629Y48751274D01*
X15920220Y48561906D01*
X16020166Y48529736D01*
X16746281Y48300467D01*
X17411062Y48099820D01*
X18029259Y47924737D01*
X18615623Y47772159D01*
X19184905Y47639027D01*
X19751855Y47522282D01*
X20331225Y47418866D01*
X20937765Y47325720D01*
X21586227Y47239785D01*
X22291360Y47158002D01*
X22984000Y47085682D01*
X23280439Y47055916D01*
X23580017Y47025708D01*
X23860773Y46997282D01*
X24100752Y46972861D01*
X24275166Y46954961D01*
X24713276Y46912748D01*
X25137517Y46878840D01*
X25569320Y46852017D01*
X26030116Y46831060D01*
X26541338Y46814749D01*
X26878666Y46806737D01*
X27185365Y46799594D01*
X27469992Y46791812D01*
X27719790Y46783831D01*
X27921997Y46776091D01*
X28063855Y46769033D01*
X28129555Y46763602D01*
X28201195Y46745450D01*
X28251655Y46704058D01*
X28295280Y46620108D01*
X28346420Y46474281D01*
X28347970Y46469515D01*
X28437330Y46194667D01*
X27901415Y46203453D01*
X27646375Y46208033D01*
X27374323Y46213571D01*
X27121912Y46219291D01*
X26963333Y46223347D01*
X26254504Y46251117D01*
X25472676Y46296964D01*
X24627398Y46360149D01*
X23728218Y46439931D01*
X22784686Y46535569D01*
X22412500Y46576362D01*
X21679565Y46662016D01*
X21009375Y46749042D01*
X20388030Y46840539D01*
X19801635Y46939607D01*
X19236291Y47049348D01*
X18678100Y47172861D01*
X18113167Y47313248D01*
X17527593Y47473607D01*
X16907480Y47657041D01*
X16238932Y47866648D01*
X15508051Y48105529D01*
X15406333Y48139362D01*
X14811109Y48342985D01*
X14288728Y48533941D01*
X13829196Y48717091D01*
X13422523Y48897290D01*
X13058718Y49079398D01*
X12727787Y49268272D01*
X12419740Y49468770D01*
X12124586Y49685750D01*
X11966954Y49811557D01*
X11779870Y49964430D01*
X11589784Y50119180D01*
X11420531Y50256432D01*
X11308700Y50346593D01*
X11181900Y50452609D01*
X11107937Y50532176D01*
X11071271Y50608781D01*
X11056361Y50705905D01*
X11054571Y50730633D01*
X11058193Y50858337D01*
X11078610Y51037261D01*
X11111926Y51236522D01*
X11128827Y51318848D01*
X11215678Y51716784D01*
X9255119Y53686475D01*
X8760622Y54184086D01*
X8321335Y54628170D01*
X7932010Y55024473D01*
X7587402Y55378744D01*
X7282264Y55696729D01*
X7011349Y55984175D01*
X6769410Y56246831D01*
X6551201Y56490443D01*
X6351476Y56720759D01*
X6164987Y56943526D01*
X5986488Y57164491D01*
X5810734Y57389403D01*
X5632476Y57624007D01*
X5506607Y57792743D01*
X5001719Y58500303D01*
X4565165Y59170376D01*
X4193296Y59810051D01*
X3882460Y60426417D01*
X3629009Y61026559D01*
X3429292Y61617567D01*
X3315052Y62048500D01*
X3248223Y62416716D01*
X3202891Y62848900D01*
X3179101Y63327120D01*
X3176897Y63833440D01*
X3196324Y64349926D01*
X3237426Y64858644D01*
X3300248Y65341659D01*
X3306803Y65382250D01*
X3353741Y65668000D01*
X3646723Y65668000D01*
X3800527Y65665675D01*
D11*
X42750000Y7500000D03*
X13000000Y88000000D03*
X9500000Y74000000D03*
X38500000Y48000000D03*
X5250000Y7500000D03*
X17750000Y7500000D03*
X30250000Y7500000D03*
X9500000Y102000000D03*
D12*
X41810000Y116250000D03*
X41810000Y-6250000D03*
X6250000Y116250000D03*
X6250000Y-6250000D03*
M02*
