G04 #@! TF.GenerationSoftware,KiCad,Pcbnew,(5.1.10)-1*
G04 #@! TF.CreationDate,2021-09-20T04:35:36-07:00*
G04 #@! TF.ProjectId,paradox_panel,70617261-646f-4785-9f70-616e656c2e6b,rev?*
G04 #@! TF.SameCoordinates,Original*
G04 #@! TF.FileFunction,Copper,L1,Top*
G04 #@! TF.FilePolarity,Positive*
%FSLAX46Y46*%
G04 Gerber Fmt 4.6, Leading zero omitted, Abs format (unit mm)*
G04 Created by KiCad (PCBNEW (5.1.10)-1) date 2021-09-20 04:35:36*
%MOMM*%
%LPD*%
G01*
G04 APERTURE LIST*
G04 #@! TA.AperFunction,EtchedComponent*
%ADD10C,0.010000*%
G04 #@! TD*
G04 #@! TA.AperFunction,ComponentPad*
%ADD11C,4.800000*%
G04 #@! TD*
G04 APERTURE END LIST*
D10*
G36*
X29897626Y95014434D02*
G01*
X29965044Y94983466D01*
X30095911Y94897586D01*
X30271208Y94755352D01*
X30481845Y94566016D01*
X30718733Y94338831D01*
X30972782Y94083048D01*
X31234903Y93807921D01*
X31496005Y93522700D01*
X31747000Y93236639D01*
X31978799Y92958988D01*
X32085735Y92824834D01*
X32637681Y92081341D01*
X33109792Y91362575D01*
X33502702Y90666932D01*
X33817044Y89992807D01*
X34053451Y89338592D01*
X34212556Y88702685D01*
X34294993Y88083478D01*
X34301394Y87479368D01*
X34283853Y87251769D01*
X34228731Y86864620D01*
X34140825Y86484303D01*
X34016532Y86104849D01*
X33852249Y85720289D01*
X33644373Y85324654D01*
X33389303Y84911974D01*
X33083435Y84476281D01*
X32723166Y84011606D01*
X32304893Y83511979D01*
X31825015Y82971432D01*
X31464216Y82580167D01*
X31214097Y82312617D01*
X31014754Y82100536D01*
X30859211Y81937483D01*
X30740495Y81817014D01*
X30651631Y81732684D01*
X30585643Y81678051D01*
X30535557Y81646671D01*
X30494399Y81632101D01*
X30455193Y81627896D01*
X30433194Y81627667D01*
X30333660Y81644175D01*
X30285857Y81706308D01*
X30279040Y81729558D01*
X30270408Y81792591D01*
X30281481Y81858284D01*
X30318950Y81935839D01*
X30389502Y82034459D01*
X30499826Y82163346D01*
X30656610Y82331703D01*
X30866543Y82548731D01*
X30897272Y82580167D01*
X31464400Y83177152D01*
X31975247Y83750626D01*
X32427162Y84297092D01*
X32817498Y84813052D01*
X33143603Y85295012D01*
X33402830Y85739472D01*
X33587914Y86131558D01*
X33689686Y86389821D01*
X33764886Y86608348D01*
X33817336Y86808780D01*
X33850860Y87012759D01*
X33869282Y87241924D01*
X33876425Y87517917D01*
X33876694Y87766000D01*
X33874068Y88049643D01*
X33867907Y88268607D01*
X33856247Y88442868D01*
X33837125Y88592400D01*
X33808579Y88737177D01*
X33768644Y88897173D01*
X33763688Y88915750D01*
X33651857Y89297723D01*
X33524193Y89660013D01*
X33373826Y90016658D01*
X33193883Y90381693D01*
X32977494Y90769155D01*
X32717788Y91193080D01*
X32440708Y91618334D01*
X31912493Y92368701D01*
X31373304Y93047418D01*
X30811903Y93667502D01*
X30217054Y94241968D01*
X30041035Y94398104D01*
X29868758Y94549981D01*
X29751661Y94659796D01*
X29679839Y94739637D01*
X29643389Y94801595D01*
X29632408Y94857759D01*
X29634041Y94894931D01*
X29673513Y95002253D01*
X29762419Y95042367D01*
X29897626Y95014434D01*
G37*
X29897626Y95014434D02*
X29965044Y94983466D01*
X30095911Y94897586D01*
X30271208Y94755352D01*
X30481845Y94566016D01*
X30718733Y94338831D01*
X30972782Y94083048D01*
X31234903Y93807921D01*
X31496005Y93522700D01*
X31747000Y93236639D01*
X31978799Y92958988D01*
X32085735Y92824834D01*
X32637681Y92081341D01*
X33109792Y91362575D01*
X33502702Y90666932D01*
X33817044Y89992807D01*
X34053451Y89338592D01*
X34212556Y88702685D01*
X34294993Y88083478D01*
X34301394Y87479368D01*
X34283853Y87251769D01*
X34228731Y86864620D01*
X34140825Y86484303D01*
X34016532Y86104849D01*
X33852249Y85720289D01*
X33644373Y85324654D01*
X33389303Y84911974D01*
X33083435Y84476281D01*
X32723166Y84011606D01*
X32304893Y83511979D01*
X31825015Y82971432D01*
X31464216Y82580167D01*
X31214097Y82312617D01*
X31014754Y82100536D01*
X30859211Y81937483D01*
X30740495Y81817014D01*
X30651631Y81732684D01*
X30585643Y81678051D01*
X30535557Y81646671D01*
X30494399Y81632101D01*
X30455193Y81627896D01*
X30433194Y81627667D01*
X30333660Y81644175D01*
X30285857Y81706308D01*
X30279040Y81729558D01*
X30270408Y81792591D01*
X30281481Y81858284D01*
X30318950Y81935839D01*
X30389502Y82034459D01*
X30499826Y82163346D01*
X30656610Y82331703D01*
X30866543Y82548731D01*
X30897272Y82580167D01*
X31464400Y83177152D01*
X31975247Y83750626D01*
X32427162Y84297092D01*
X32817498Y84813052D01*
X33143603Y85295012D01*
X33402830Y85739472D01*
X33587914Y86131558D01*
X33689686Y86389821D01*
X33764886Y86608348D01*
X33817336Y86808780D01*
X33850860Y87012759D01*
X33869282Y87241924D01*
X33876425Y87517917D01*
X33876694Y87766000D01*
X33874068Y88049643D01*
X33867907Y88268607D01*
X33856247Y88442868D01*
X33837125Y88592400D01*
X33808579Y88737177D01*
X33768644Y88897173D01*
X33763688Y88915750D01*
X33651857Y89297723D01*
X33524193Y89660013D01*
X33373826Y90016658D01*
X33193883Y90381693D01*
X32977494Y90769155D01*
X32717788Y91193080D01*
X32440708Y91618334D01*
X31912493Y92368701D01*
X31373304Y93047418D01*
X30811903Y93667502D01*
X30217054Y94241968D01*
X30041035Y94398104D01*
X29868758Y94549981D01*
X29751661Y94659796D01*
X29679839Y94739637D01*
X29643389Y94801595D01*
X29632408Y94857759D01*
X29634041Y94894931D01*
X29673513Y95002253D01*
X29762419Y95042367D01*
X29897626Y95014434D01*
G36*
X5275675Y49722166D02*
G01*
X5340469Y49695940D01*
X5378300Y49632902D01*
X5385948Y49612418D01*
X5405373Y49544808D01*
X5404313Y49490228D01*
X5374267Y49445912D01*
X5306736Y49409098D01*
X5193219Y49377020D01*
X5025215Y49346916D01*
X4794225Y49316021D01*
X4491746Y49281571D01*
X4307646Y49261787D01*
X4017949Y49230320D01*
X3748644Y49199841D01*
X3513775Y49172037D01*
X3327384Y49148594D01*
X3203516Y49131200D01*
X3167334Y49124865D01*
X3019167Y49093472D01*
X3028555Y48838264D01*
X3041341Y48688880D01*
X3070503Y48521238D01*
X3117870Y48331342D01*
X3185272Y48115194D01*
X3274538Y47868797D01*
X3387498Y47588155D01*
X3525980Y47269269D01*
X3691815Y46908143D01*
X3886831Y46500779D01*
X4112859Y46043181D01*
X4371727Y45531352D01*
X4665266Y44961293D01*
X4995304Y44329008D01*
X5363670Y43630500D01*
X5713327Y42972248D01*
X5908672Y42604674D01*
X6067116Y42304105D01*
X6192120Y42063118D01*
X6287146Y41874291D01*
X6355655Y41730204D01*
X6401110Y41623434D01*
X6426972Y41546559D01*
X6436702Y41492157D01*
X6433763Y41452807D01*
X6429090Y41437665D01*
X6373445Y41352858D01*
X6276956Y41326583D01*
X6261213Y41326334D01*
X6160002Y41342714D01*
X6101415Y41379250D01*
X6049694Y41466892D01*
X5963864Y41621616D01*
X5848281Y41835077D01*
X5707302Y42098932D01*
X5545282Y42404839D01*
X5366579Y42744453D01*
X5175547Y43109430D01*
X4976543Y43491429D01*
X4773924Y43882104D01*
X4572044Y44273112D01*
X4375261Y44656111D01*
X4187931Y45022756D01*
X4014409Y45364704D01*
X3859052Y45673611D01*
X3852524Y45686667D01*
X3593030Y46209227D01*
X3371112Y46664358D01*
X3184057Y47059098D01*
X3029151Y47400483D01*
X2903679Y47695552D01*
X2804929Y47951340D01*
X2730185Y48174885D01*
X2676735Y48373224D01*
X2641863Y48553394D01*
X2622857Y48722432D01*
X2617002Y48887375D01*
X2617000Y48890298D01*
X2635651Y49072945D01*
X2685281Y49244220D01*
X2756404Y49381460D01*
X2839536Y49462001D01*
X2859707Y49470226D01*
X2974704Y49495433D01*
X3158315Y49525412D01*
X3394736Y49558405D01*
X3668168Y49592655D01*
X3962808Y49626402D01*
X4262855Y49657890D01*
X4552508Y49685360D01*
X4815964Y49707054D01*
X5037423Y49721214D01*
X5155291Y49725629D01*
X5275675Y49722166D01*
G37*
X5275675Y49722166D02*
X5340469Y49695940D01*
X5378300Y49632902D01*
X5385948Y49612418D01*
X5405373Y49544808D01*
X5404313Y49490228D01*
X5374267Y49445912D01*
X5306736Y49409098D01*
X5193219Y49377020D01*
X5025215Y49346916D01*
X4794225Y49316021D01*
X4491746Y49281571D01*
X4307646Y49261787D01*
X4017949Y49230320D01*
X3748644Y49199841D01*
X3513775Y49172037D01*
X3327384Y49148594D01*
X3203516Y49131200D01*
X3167334Y49124865D01*
X3019167Y49093472D01*
X3028555Y48838264D01*
X3041341Y48688880D01*
X3070503Y48521238D01*
X3117870Y48331342D01*
X3185272Y48115194D01*
X3274538Y47868797D01*
X3387498Y47588155D01*
X3525980Y47269269D01*
X3691815Y46908143D01*
X3886831Y46500779D01*
X4112859Y46043181D01*
X4371727Y45531352D01*
X4665266Y44961293D01*
X4995304Y44329008D01*
X5363670Y43630500D01*
X5713327Y42972248D01*
X5908672Y42604674D01*
X6067116Y42304105D01*
X6192120Y42063118D01*
X6287146Y41874291D01*
X6355655Y41730204D01*
X6401110Y41623434D01*
X6426972Y41546559D01*
X6436702Y41492157D01*
X6433763Y41452807D01*
X6429090Y41437665D01*
X6373445Y41352858D01*
X6276956Y41326583D01*
X6261213Y41326334D01*
X6160002Y41342714D01*
X6101415Y41379250D01*
X6049694Y41466892D01*
X5963864Y41621616D01*
X5848281Y41835077D01*
X5707302Y42098932D01*
X5545282Y42404839D01*
X5366579Y42744453D01*
X5175547Y43109430D01*
X4976543Y43491429D01*
X4773924Y43882104D01*
X4572044Y44273112D01*
X4375261Y44656111D01*
X4187931Y45022756D01*
X4014409Y45364704D01*
X3859052Y45673611D01*
X3852524Y45686667D01*
X3593030Y46209227D01*
X3371112Y46664358D01*
X3184057Y47059098D01*
X3029151Y47400483D01*
X2903679Y47695552D01*
X2804929Y47951340D01*
X2730185Y48174885D01*
X2676735Y48373224D01*
X2641863Y48553394D01*
X2622857Y48722432D01*
X2617002Y48887375D01*
X2617000Y48890298D01*
X2635651Y49072945D01*
X2685281Y49244220D01*
X2756404Y49381460D01*
X2839536Y49462001D01*
X2859707Y49470226D01*
X2974704Y49495433D01*
X3158315Y49525412D01*
X3394736Y49558405D01*
X3668168Y49592655D01*
X3962808Y49626402D01*
X4262855Y49657890D01*
X4552508Y49685360D01*
X4815964Y49707054D01*
X5037423Y49721214D01*
X5155291Y49725629D01*
X5275675Y49722166D01*
G36*
X29358254Y40117944D02*
G01*
X29455515Y40052463D01*
X29583421Y39940319D01*
X29750156Y39775932D01*
X29963908Y39553723D01*
X29979050Y39537750D01*
X30518645Y38952970D01*
X31027785Y38370764D01*
X31500938Y37798412D01*
X31932570Y37243194D01*
X32317150Y36712393D01*
X32649145Y36213287D01*
X32923022Y35753157D01*
X33073469Y35465776D01*
X33243433Y35082975D01*
X33397369Y34668232D01*
X33524618Y34253447D01*
X33614523Y33870524D01*
X33624234Y33817205D01*
X33661240Y33522526D01*
X33682558Y33172836D01*
X33688226Y32796317D01*
X33678286Y32421150D01*
X33652778Y32075517D01*
X33621416Y31840544D01*
X33471385Y31173085D01*
X33244134Y30472600D01*
X32940061Y29739886D01*
X32559563Y28975741D01*
X32103036Y28180962D01*
X31570878Y27356348D01*
X30968664Y26509667D01*
X30736700Y26200037D01*
X30547034Y25953832D01*
X30393946Y25764741D01*
X30271718Y25626455D01*
X30174631Y25532662D01*
X30096966Y25477053D01*
X30033005Y25453318D01*
X30009534Y25451334D01*
X29914141Y25460718D01*
X29865556Y25479556D01*
X29841213Y25526868D01*
X29848493Y25596995D01*
X29891824Y25698261D01*
X29975634Y25838988D01*
X30104350Y26027501D01*
X30282400Y26272123D01*
X30299200Y26294759D01*
X30877723Y27095073D01*
X31389739Y27849866D01*
X31837496Y28563027D01*
X32223240Y29238449D01*
X32549217Y29880020D01*
X32817675Y30491631D01*
X32989625Y30953426D01*
X33119898Y31363315D01*
X33212041Y31727771D01*
X33270926Y32074292D01*
X33301424Y32430379D01*
X33308667Y32754703D01*
X33285677Y33248768D01*
X33215162Y33742500D01*
X33094803Y34239992D01*
X32922280Y34745341D01*
X32695274Y35262643D01*
X32411466Y35795992D01*
X32068536Y36349484D01*
X31664166Y36927215D01*
X31196037Y37533280D01*
X30661828Y38171776D01*
X30059221Y38846796D01*
X29551584Y39389369D01*
X29361662Y39594098D01*
X29229458Y39751525D01*
X29149827Y39871063D01*
X29117623Y39962124D01*
X29127699Y40034121D01*
X29168467Y40090200D01*
X29222916Y40131233D01*
X29283450Y40142341D01*
X29358254Y40117944D01*
G37*
X29358254Y40117944D02*
X29455515Y40052463D01*
X29583421Y39940319D01*
X29750156Y39775932D01*
X29963908Y39553723D01*
X29979050Y39537750D01*
X30518645Y38952970D01*
X31027785Y38370764D01*
X31500938Y37798412D01*
X31932570Y37243194D01*
X32317150Y36712393D01*
X32649145Y36213287D01*
X32923022Y35753157D01*
X33073469Y35465776D01*
X33243433Y35082975D01*
X33397369Y34668232D01*
X33524618Y34253447D01*
X33614523Y33870524D01*
X33624234Y33817205D01*
X33661240Y33522526D01*
X33682558Y33172836D01*
X33688226Y32796317D01*
X33678286Y32421150D01*
X33652778Y32075517D01*
X33621416Y31840544D01*
X33471385Y31173085D01*
X33244134Y30472600D01*
X32940061Y29739886D01*
X32559563Y28975741D01*
X32103036Y28180962D01*
X31570878Y27356348D01*
X30968664Y26509667D01*
X30736700Y26200037D01*
X30547034Y25953832D01*
X30393946Y25764741D01*
X30271718Y25626455D01*
X30174631Y25532662D01*
X30096966Y25477053D01*
X30033005Y25453318D01*
X30009534Y25451334D01*
X29914141Y25460718D01*
X29865556Y25479556D01*
X29841213Y25526868D01*
X29848493Y25596995D01*
X29891824Y25698261D01*
X29975634Y25838988D01*
X30104350Y26027501D01*
X30282400Y26272123D01*
X30299200Y26294759D01*
X30877723Y27095073D01*
X31389739Y27849866D01*
X31837496Y28563027D01*
X32223240Y29238449D01*
X32549217Y29880020D01*
X32817675Y30491631D01*
X32989625Y30953426D01*
X33119898Y31363315D01*
X33212041Y31727771D01*
X33270926Y32074292D01*
X33301424Y32430379D01*
X33308667Y32754703D01*
X33285677Y33248768D01*
X33215162Y33742500D01*
X33094803Y34239992D01*
X32922280Y34745341D01*
X32695274Y35262643D01*
X32411466Y35795992D01*
X32068536Y36349484D01*
X31664166Y36927215D01*
X31196037Y37533280D01*
X30661828Y38171776D01*
X30059221Y38846796D01*
X29551584Y39389369D01*
X29361662Y39594098D01*
X29229458Y39751525D01*
X29149827Y39871063D01*
X29117623Y39962124D01*
X29127699Y40034121D01*
X29168467Y40090200D01*
X29222916Y40131233D01*
X29283450Y40142341D01*
X29358254Y40117944D01*
D11*
X6350000Y-6250000D03*
X6350000Y116250000D03*
M02*
