M48
; DRILL file {KiCad (5.1.10)-1} date 09/20/21 04:35:38
; FORMAT={-:-/ absolute / inch / decimal}
; #@! TF.CreationDate,2021-09-20T04:35:38-07:00
; #@! TF.GenerationSoftware,Kicad,Pcbnew,(5.1.10)-1
FMAT,2
INCH
T1C0.1260
T2C0.0472
T3C0.1024
T4C0.2402
T5C0.2500
T6C0.2756
T7C0.2953
%
G90
G05
T1
X0.25Y4.5768
X0.25Y-0.2461
T3
X0.5807Y3.6779
X0.5807Y1.4764
X0.6811Y2.1262
T4
X0.1575Y2.4574
X0.1575Y0.2559
X0.284Y3.7789
X0.284Y1.5773
X0.5512Y2.4574
X0.5512Y0.2559
X0.9449Y2.4574
X0.9449Y0.2559
X1.3386Y2.4574
X1.3386Y0.2559
T5
X0.3307Y1.9693
T6
X1.2089Y3.2362
X1.2089Y1.0346
T7
X0.3937Y3.1145
X0.3937Y0.913
X1.1024Y3.9152
X1.1024Y1.7137
T2
G00X0.372Y2.8783
M15
G01X0.4154Y2.8783
M16
G05
G00X0.372Y0.6768
M15
G01X0.4154Y0.6768
M16
G05
G00X1.0807Y3.679
M15
G01X1.124Y3.679
M16
G05
G00X1.0807Y1.4775
M15
G01X1.124Y1.4775
M16
G05
T0
M30
